<?xml version="1.0" encoding="UTF-8" standalone="no"?>
<!-- Created with Inkscape (http://www.inkscape.org/) -->

<svg
   xmlns:dc="http://purl.org/dc/elements/1.1/"
   xmlns:cc="http://creativecommons.org/ns#"
   xmlns:rdf="http://www.w3.org/1999/02/22-rdf-syntax-ns#"
   xmlns:svg="http://www.w3.org/2000/svg"
   xmlns="http://www.w3.org/2000/svg"
   xmlns:sodipodi="http://sodipodi.sourceforge.net/DTD/sodipodi-0.dtd"
   xmlns:inkscape="http://www.inkscape.org/namespaces/inkscape"
   width="1920"
   height="1080"
   viewBox="0 0 507.99999 285.75001"
   version="1.1"
   id="svg8"
   inkscape:version="0.92.2 2405546, 2018-03-11"
   sodipodi:docname="bccvsfcc-1.svg">
  <defs
     id="defs2" />
  <sodipodi:namedview
     id="base"
     pagecolor="#ffffff"
     bordercolor="#666666"
     borderopacity="1.0"
     inkscape:pageopacity="0.0"
     inkscape:pageshadow="2"
     inkscape:zoom="0.37871094"
     inkscape:cx="1013.6163"
     inkscape:cy="541.45257"
     inkscape:document-units="mm"
     inkscape:current-layer="layer1"
     showgrid="false"
     units="px"
     inkscape:window-width="1348"
     inkscape:window-height="730"
     inkscape:window-x="5"
     inkscape:window-y="25"
     inkscape:window-maximized="0" />
  <metadata
     id="metadata5">
    <rdf:RDF>
      <cc:Work
         rdf:about="">
        <dc:format>image/svg+xml</dc:format>
        <dc:type
           rdf:resource="http://purl.org/dc/dcmitype/StillImage" />
        <dc:title />
      </cc:Work>
    </rdf:RDF>
  </metadata>
  <g
     inkscape:label="Layer 1"
     inkscape:groupmode="layer"
     id="layer1"
     transform="translate(0,-11.249983)">
    <path
       style="opacity:1;fill:#000000;fill-opacity:1;stroke:none;stroke-width:0.2;stroke-linejoin:miter;stroke-miterlimit:4;stroke-dasharray:none;stroke-opacity:1"
       id="path6489"
       d="m 69.220553,39.213097 c 0.183343,3.92866 0.512812,7.848192 0.832855,11.767552 0.720741,8.686718 1.286074,17.38412 1.775577,26.086551 0.606792,12.017076 0.833805,24.04914 1.018897,36.07878 0.127465,13.02903 0.372512,26.05555 0.679799,39.08141 0.333364,12.87477 0.689631,25.74891 1.0008,38.62424 0.238413,10.68278 0.431159,21.36643 0.480332,32.05186 0.302194,6.68812 -0.554016,13.31721 -1.337831,19.93972 -0.03313,0.65442 -0.06625,1.30883 -0.09938,1.96324 0,0 -0.111514,0.008 -0.111514,0.008 v 0 c -0.1237,-0.64939 -0.247401,-1.29879 -0.371102,-1.94818 -1.294656,-6.57058 -2.031746,-13.23354 -1.825183,-19.94166 -0.06975,-10.66597 -0.09457,-21.33276 -0.312179,-31.99714 -0.2329,-12.87583 -0.528733,-25.75027 -0.825426,-38.62476 C 69.858386,139.26729 69.708161,126.23026 69.572957,113.1931 69.412489,101.20711 69.230985,89.218833 68.574112,77.247326 68.10223,68.576541 67.516866,59.911869 66.677904,51.267942 66.322826,47.258009 65.875431,43.240944 65.833873,39.213105 c 0,0 3.38668,0 3.38668,0 z"
       inkscape:connector-curvature="0" />
    <path
       style="opacity:1;fill:#000000;fill-opacity:1;stroke:none;stroke-width:0.2;stroke-linejoin:miter;stroke-miterlimit:4;stroke-dasharray:none;stroke-opacity:1"
       id="path6491"
       d="m 70.763793,36.659609 c 1.916107,2.765662 3.934574,5.458319 5.92046,8.173806 2.05767,2.826642 4.139985,5.637485 5.941583,8.636982 0.908328,1.516742 1.276813,3.384828 -1.476306,3.04111 -0.445264,-0.05559 -1.630468,-1.202563 -1.886145,-1.430007 -2.828764,-2.762265 -4.842545,-6.178968 -6.696602,-9.634754 -1.744557,-3.349755 -3.085129,-6.883963 -4.597887,-10.338656 0.0034,0.10426 -1.016865,-1.971208 -1.118256,-1.739317 -0.181456,0.415001 0.908767,0.592633 1.163114,0.657834 -1.967241,2.458319 -3.644871,5.135549 -5.398606,7.746974 -2.687061,4.228094 -6.124141,7.882675 -9.252019,11.774932 -0.373229,0.599945 -0.746458,1.19989 -1.11969,1.799836 0,0 -0.09994,-0.05007 -0.09994,-0.05007 v 0 c 0.26008,-0.664163 0.520163,-1.328322 0.780243,-1.992482 1.658202,-4.76382 3.522903,-9.477671 6.326553,-13.7024 1.938432,-3.130814 3.750921,-6.46107 6.386851,-9.065425 0.480568,-0.242 0.913508,-0.623422 1.441701,-0.726 2.614041,-0.507664 3.725746,1.883192 4.477578,3.863324 1.253437,3.452024 2.416307,6.942696 3.933338,10.291889 1.539166,3.242318 3.196664,6.474251 5.603917,9.172737 1.637335,1.668838 0.743408,0.37574 -0.08452,1.490445 -0.183814,0.247481 -0.04777,0.614715 -0.07544,0.921748 -0.02854,0.316698 0.219178,-2.624767 -0.27478,-0.913514 -1.722281,-2.935988 -3.946821,-5.532493 -6.088264,-8.165864 -2.16899,-2.63906 -4.359542,-5.265746 -6.377024,-8.023924 0,0 2.570141,-1.789204 2.570141,-1.789204 z"
       inkscape:connector-curvature="0" />
    <path
       style="opacity:1;fill:#000000;fill-opacity:1;stroke:none;stroke-width:0.2;stroke-linejoin:miter;stroke-miterlimit:4;stroke-dasharray:none;stroke-opacity:1"
       id="path6493"
       d="m 74.870814,240.06633 c 2.443705,-2.94111 6.172087,-3.79915 9.748018,-4.52151 7.754186,-1.12696 15.619388,-1.02171 23.434718,-0.99666 12.7336,0.15319 25.46545,0.37936 38.20025,0.39198 15.68984,0.0252 31.36897,-0.59162 47.03731,-1.3478 16.66568,-0.85164 33.31257,-2.02336 49.95648,-3.21785 16.07055,-1.23186 32.15966,-2.15335 48.26612,-2.7413 10.08583,-0.26545 20.18405,-0.60104 30.27502,-0.38647 4.20323,0.0894 9.53733,0.39184 13.7508,0.60682 6.07689,0.46178 12.15477,0.588 18.24484,0.55046 0,0 0,0.11179 0,0.11179 v 0 c -6.08997,0.0375 -12.16594,0.23793 -18.23797,0.75351 -3.95562,0.24431 -9.79328,0.62598 -13.72787,0.78191 -10.05552,0.3985 -20.12572,0.3709 -30.1806,0.80043 -16.06749,0.66075 -32.12139,1.58572 -48.15668,2.80593 -16.66923,1.18338 -33.33912,2.37307 -50.02946,3.22449 -15.72266,0.78363 -31.45501,1.46666 -47.2006,1.48789 -12.73707,-0.002 -25.47225,-0.14558 -38.20806,-0.3159 -7.57589,-0.0177 -15.207904,-0.14412 -22.722671,0.96237 -2.735088,0.55424 -5.630061,1.11721 -7.678235,3.17249 0,0 -2.772098,-2.12258 -2.772098,-2.12258 z"
       inkscape:connector-curvature="0" />
    <path
       style="opacity:1;fill:#000000;fill-opacity:1;stroke:none;stroke-width:0.2;stroke-linejoin:miter;stroke-miterlimit:4;stroke-dasharray:none;stroke-opacity:1"
       id="path6495"
       d="m 368.0374,235.21811 c -2.03219,2.07986 -4.04173,4.17936 -6.1549,6.17785 -2.06261,1.96241 -4.37274,3.6272 -6.93946,4.85683 -2.21393,0.89469 -3.91475,0.66341 -3.97981,-2.49068 -0.0122,-0.58905 1.13752,-1.6048 1.50799,-1.97417 2.43766,-2.12348 5.17064,-3.85749 7.92432,-5.53415 2.6234,-1.58567 5.44338,-2.76294 8.32729,-3.77398 1.9632,-0.73906 0.6763,-0.79957 0.18407,0.57901 -0.082,0.22968 0.12268,0.5256 -0.008,0.73162 -0.0688,0.10856 -0.2091,-0.14951 -0.31364,-0.22426 -2.45364,-2.01237 -5.22306,-3.59912 -7.69233,-5.59079 -0.72467,-0.58449 -1.40621,-1.22052 -2.10932,-1.83078 -2.19313,-1.74572 -4.15877,-3.7853 -6.36209,-5.51694 -0.65087,-0.51155 -1.35757,-0.9478 -2.03639,-1.4217 0,0 0.0599,-0.0944 0.0599,-0.0944 v 0 c 0.71758,0.41213 1.41174,0.868 2.15273,1.23639 2.51008,1.24793 5.20864,2.12246 7.73525,3.33635 4.04834,1.76049 7.93851,3.92329 11.33139,6.77547 0.79664,0.85893 1.62021,1.45706 1.60004,2.8254 -0.0294,1.99967 -1.67632,2.68286 -3.24821,3.1278 -2.63728,0.80621 -5.21411,1.79723 -7.5838,3.23027 -2.49944,1.48105 -4.95559,3.07738 -7.11578,5.03149 -0.9398,0.90478 0.28958,-0.23285 -1.29969,-1.82869 -0.57219,-0.57458 -1.87814,0.0545 -0.71107,-0.24722 2.24631,-0.91352 4.23257,-2.31233 6.03475,-3.92569 2.12069,-1.95253 4.13584,-4.00719 6.13836,-6.08001 0,0 2.55826,2.62496 2.55826,2.62496 z"
       inkscape:connector-curvature="0" />
    <path
       style="opacity:1;fill:#000000;fill-opacity:1;stroke:none;stroke-width:0.2;stroke-linejoin:miter;stroke-miterlimit:4;stroke-dasharray:none;stroke-opacity:1"
       id="path6497"
       d="m 361.09033,264.53648 c 0.13272,3.58849 0.52127,7.16177 0.8753,10.73347 0.35527,3.99341 0.89654,7.97057 1.17457,11.97062 0.0974,2.67234 -0.53079,3.30234 -4.39227,2.0002 -0.35717,-0.12044 -1.29816,-4.69559 -1.3771,-5.06778 -1.24191,-5.92331 -1.614,-11.93919 -1.33726,-17.97095 0.48183,-4.36924 1.45439,-9.21112 5.07598,-12.14236 0.60736,-0.49158 1.32611,-0.8268 1.98917,-1.2402 0.73204,-0.23849 1.44053,-0.56771 2.19614,-0.71546 3.05798,-0.59795 6.21982,0.4121 8.66797,2.2476 0.61709,0.46267 1.15187,1.02599 1.7278,1.53898 2.57942,3.00709 4.04812,6.83465 3.07702,10.80866 -0.18865,0.77199 -0.53951,1.49505 -0.80925,2.24258 -2.16596,3.79217 -5.93056,6.04391 -10.19767,6.78594 -0.85313,0.14836 -1.72532,0.15064 -2.58798,0.22596 -3.58424,0.12293 -7.04915,-0.90857 -10.5845,-1.2073 0,0 -0.001,-0.11177 -0.001,-0.11177 v 0 c 3.36714,-0.35577 6.64813,-1.37881 9.87507,-2.37225 3.36931,-1.08627 7.12009,-1.90417 9.22143,-5.02471 0.19323,-0.41384 0.43812,-0.8073 0.57967,-1.24154 0.79559,-2.44053 -0.0748,-4.92944 -1.60591,-6.85883 -2.17339,-2.18102 -4.26134,-3.38922 -7.40657,-2.61937 -0.38563,0.1968 -0.80229,0.342 -1.15688,0.5904 -2.93474,2.05594 -3.44762,6.0489 -3.89264,9.29771 -0.29566,5.64909 0.15329,11.28994 1.4114,16.81512 0.74709,3.14063 0.13167,0.65538 0.80441,3.1658 0.0352,0.1312 0.2256,0.36224 0.0941,0.39653 -4.66497,1.21613 -3.3411,-0.82368 -3.74907,1.28939 -0.0386,0.20016 0.0447,-0.40523 0.067,-0.60785 -0.1295,-3.92549 -0.58022,-7.83122 -1.06019,-11.72697 -0.45235,-3.6485 -0.92797,-7.29588 -1.2312,-10.96068 0,0 4.55255,-0.24094 4.55255,-0.24094 z"
       inkscape:connector-curvature="0" />
    <path
       style="opacity:1;fill:#000000;fill-opacity:1;stroke:none;stroke-width:0.2;stroke-linejoin:miter;stroke-miterlimit:4;stroke-dasharray:none;stroke-opacity:1"
       id="path6499"
       d="m 23.455588,134.49687 c -0.342953,2.57998 -0.986223,5.10152 -1.744652,7.58664 -0.854422,2.7405 -1.981419,5.38243 -3.033044,8.05024 -0.753978,1.99632 -1.503837,4.04688 -1.38389,6.20771 0.142564,1.11176 0.780682,1.33757 1.73977,1.61789 2.124718,0.40119 4.296266,0.13842 6.427919,-0.0631 2.647369,-0.29531 5.299902,-0.51395 7.964481,-0.51096 1.434745,0.17325 3.574576,-0.10483 4.559647,1.20239 0.0057,0.39163 -0.349134,0.68024 -0.388898,1.05197 -0.0082,0.0763 0.230896,0.0763 0.23037,-5.3e-4 -0.0011,-0.16104 -0.155514,-0.28206 -0.23327,-0.42308 0,0 0.07534,-0.0826 0.07534,-0.0826 v 0 c 1.308237,0.64423 1.49003,1.03784 0.233439,2.13029 -1.313937,0.84219 -2.880283,0.58317 -4.377933,0.66611 -2.546665,0.12018 -5.084316,0.35206 -7.619321,0.6216 -2.811522,0.27027 -5.688837,0.59883 -8.453961,-0.16935 -3.040206,-1.16977 -4.458476,-2.71711 -4.761021,-6.0434 0.09108,-2.74094 0.805137,-5.34261 1.896427,-7.85789 1.052246,-2.54313 2.158063,-5.06775 3.039975,-7.67716 0.729036,-2.26169 1.40902,-4.54619 1.810745,-6.89237 0,0 4.017882,0.58554 4.017882,0.58554 z"
       inkscape:connector-curvature="0" />
    <path
       style="opacity:1;fill:#000000;fill-opacity:1;stroke:none;stroke-width:0.2;stroke-linejoin:miter;stroke-miterlimit:4;stroke-dasharray:none;stroke-opacity:1"
       id="path6501"
       d="m 17.909539,146.43613 c 2.189773,-0.43715 4.340854,-1.05295 6.49619,-1.63321 2.386408,-0.66305 4.765022,-1.35341 7.160308,-1.98374 1.686121,-0.4636 3.399994,-0.19284 5.104175,-0.0352 0.118685,-0.0717 0.237369,-0.14332 0.356053,-0.21498 0,0 0.07481,0.0831 0.07481,0.0831 v 0 c -0.09493,0.12075 -0.189857,0.24149 -0.284784,0.36224 -0.789747,1.73861 -2.230578,2.99264 -3.981788,3.73425 -2.368699,0.90457 -4.797587,1.63171 -7.238637,2.31495 -2.281699,0.65997 -4.574456,1.28986 -6.908793,1.73802 0,0 -0.777537,-4.36534 -0.777537,-4.36534 z"
       inkscape:connector-curvature="0" />
    <path
       style="opacity:1;fill:#000000;fill-opacity:1;stroke:none;stroke-width:0.2;stroke-linejoin:miter;stroke-miterlimit:4;stroke-dasharray:none;stroke-opacity:1"
       id="path6503"
       d="m 20.257576,131.82886 c 2.199286,-0.75177 4.375174,-1.56707 6.581617,-2.29913 2.336673,-0.58661 4.674266,-1.61272 7.103522,-1.78102 0.485564,-0.0336 0.972995,0.0299 1.459492,0.0449 1.555689,0.0599 3.102563,0.23814 4.657709,0.29492 0,0 0.03809,0.10509 0.03809,0.10509 v 0 c -1.217838,1.04964 -2.53188,1.93963 -3.965117,2.67698 -0.416529,0.2294 -0.813724,0.49809 -1.249585,0.68821 -2.129907,0.92904 -4.534456,1.164 -6.688212,2.03621 -2.230877,0.74815 -4.435272,1.57377 -6.679881,2.28061 0,0 -1.257635,-4.04677 -1.257635,-4.04677 z"
       inkscape:connector-curvature="0" />
    <path
       style="opacity:1;fill:#ff0000;fill-opacity:1;stroke:none;stroke-width:0.2;stroke-linejoin:miter;stroke-miterlimit:4;stroke-dasharray:none;stroke-opacity:1"
       id="path6505"
       d="m 75.970941,90.906417 c 0.670701,1.971738 1.514375,3.875241 2.387881,5.763574 1.16732,2.501617 2.490263,4.926209 3.832214,7.337249 1.602653,2.83172 3.438657,5.5182 5.366327,8.13603 2.143051,2.8427 4.361934,5.62716 6.573422,8.41665 2.420495,3.05462 4.75279,6.17766 7.120595,9.27304 2.41216,3.2443 4.98948,6.36035 7.68382,9.37303 3.02455,3.38144 6.16303,6.65852 9.24354,9.9887 3.13426,3.41163 6.32623,6.7698 9.60728,10.04053 3.22913,3.15818 6.50282,6.27021 9.74281,9.4173 3.00039,2.92086 5.97116,5.87148 9.05917,8.70035 2.94821,2.73039 6.15812,5.15152 9.44141,7.45965 3.13226,2.16991 6.44517,4.0573 9.8112,5.83569 3.36037,1.74214 6.8505,3.20384 10.37249,4.58147 3.62815,1.42208 7.35929,2.5379 11.14555,3.44627 3.82343,0.89206 7.72789,1.32055 11.63326,1.64838 4.35522,0.33573 8.72327,0.43293 13.08957,0.47927 4.75695,0.032 9.51362,-0.0661 14.26484,-0.2961 4.62339,-0.17274 9.22058,-0.70787 13.78083,-1.46981 4.37359,-0.74137 8.60437,-2.06163 12.73277,-3.65763 4.19776,-1.64211 8.08901,-3.90848 11.87211,-6.3336 4.0886,-2.7445 7.9558,-5.80105 11.79652,-8.87789 4.22627,-3.3329 8.44077,-6.68054 12.63341,-10.05565 4.34287,-3.47836 8.50127,-7.17607 12.57011,-10.96876 4.16428,-3.90497 8.09369,-8.0428 11.95517,-12.24365 3.85464,-4.26799 7.4888,-8.72274 10.94447,-13.3177 3.71176,-4.88331 6.90364,-10.11852 9.96775,-15.42234 2.99979,-5.3202 5.7013,-10.79786 8.33737,-16.3046 2.28859,-4.773356 4.26627,-9.686219 6.00596,-14.683539 1.20187,-3.48497 2.20141,-7.034218 3.282,-10.557438 0.42971,-1.48159 0.96112,-2.977171 2.66326,-3.182411 0.12536,-0.0098 0.2507,-0.01961 0.37603,-0.0294 -0.003,0.0035 -0.007,0.007 -0.0103,0.01056 0,0 -0.007,-0.111578 -0.007,-0.111578 v 0 c 0.4195,-0.0084 0.1683,-0.03669 0.73046,0.20375 1.27477,1.449639 1.00026,2.64984 0.42643,4.39183 -1.1009,3.583612 -2.19559,7.1701 -3.4299,10.710727 -1.85981,5.107496 -3.88241,10.151914 -6.24144,15.052619 -2.65409,5.617 -5.39919,11.19632 -8.43007,16.62128 -3.11709,5.48339 -6.46142,10.8406 -10.25147,15.88913 -3.56256,4.67544 -7.22741,9.27897 -11.2041,13.6124 -3.90776,4.31284 -7.96131,8.49504 -12.21089,12.47339 -4.13806,3.8627 -8.35871,7.63501 -12.75545,11.20337 -4.17526,3.42 -8.40801,6.7687 -12.60227,10.16532 -3.97483,3.1385 -7.90871,6.34282 -12.12072,9.16367 -4.01941,2.63094 -8.18378,5.05539 -12.66429,6.82477 -4.41747,1.70042 -8.94322,3.10781 -13.62173,3.89368 -4.74401,0.78727 -9.52061,1.32825 -14.32874,1.51953 -4.83262,0.18651 -9.66777,0.31888 -14.5046,0.28737 -4.4775,-0.0386 -8.95687,-0.13108 -13.42339,-0.46959 -4.13655,-0.34305 -8.27181,-0.79717 -12.31995,-1.74833 -3.98585,-0.96185 -7.91425,-2.13834 -11.73584,-3.6332 -3.68318,-1.43722 -7.33103,-2.97622 -10.82916,-4.82659 -3.53227,-1.87194 -6.9921,-3.87894 -10.27488,-6.16642 -3.44534,-2.42716 -6.78008,-5.00442 -9.86336,-7.88469 -3.08113,-2.88769 -6.08453,-5.85529 -9.07848,-8.83309 -3.25307,-3.1686 -6.54315,-6.29964 -9.74215,-9.52331 -3.28351,-3.33875 -6.49369,-6.74509 -9.64358,-10.21045 -3.1029,-3.34983 -6.21162,-6.69425 -9.30326,-10.0545 -2.74064,-3.11636 -5.4218,-6.28254 -7.901773,-9.61305 -2.320464,-3.1009 -4.643231,-6.19992 -7.033836,-9.24745 -2.214132,-2.85074 -4.48064,-5.66216 -6.605718,-8.58087 -1.98828,-2.77 -3.913097,-5.58823 -5.565782,-8.57522 -1.409317,-2.51346 -2.744312,-5.06959 -3.907436,-7.707636 -0.867299,-2.046584 -1.697942,-4.116129 -2.280959,-6.264699 0,0 3.442369,-1.069398 3.442369,-1.069398 z"
       inkscape:connector-curvature="0" />
    <path
       style="opacity:1;fill:#ff0000;fill-opacity:1;stroke:none;stroke-width:0.2;stroke-linejoin:miter;stroke-miterlimit:4;stroke-dasharray:none;stroke-opacity:1"
       id="path6534"
       d="m 129.08409,29.235261 c -0.33737,2.446637 -0.0166,4.929394 -0.20023,7.38162 -0.0478,0.638316 -0.16851,1.269066 -0.25276,1.9036 -0.31716,2.26046 -0.68326,4.512495 -1.10736,6.755175 0,0 -0.1115,0.0079 -0.1115,0.0079 v 0 c -0.74005,-2.173504 -1.40341,-4.370691 -1.97232,-6.595834 -0.1509,-0.636982 -0.3456,-1.265154 -0.4527,-1.910945 -0.43986,-2.652134 -0.26736,-5.395784 -0.14685,-8.064067 0,0 4.24372,0.522522 4.24372,0.522522 z"
       inkscape:connector-curvature="0" />
    <path
       style="opacity:1;fill:#ff0000;fill-opacity:1;stroke:none;stroke-width:0.2;stroke-linejoin:miter;stroke-miterlimit:4;stroke-dasharray:none;stroke-opacity:1"
       id="path6536"
       d="m 120.25459,32.164629 c 0.70487,-2.530152 2.35905,-4.345103 4.47164,-5.802472 2.83635,-1.510955 5.02353,-1.52522 7.87761,-0.11524 2.43708,1.728728 3.39232,3.442819 3.20107,6.431051 -0.47486,2.290425 -2.15005,3.605356 -4.1649,4.532828 -3.11651,1.1308 -2.15043,1.279575 -2.34404,-3.51238 1.72078,-0.325352 3.39342,-0.04369 5.041,0.470797 2.45807,0.962535 4.02759,2.840473 5.09895,5.18003 1.0128,3.171727 0.58365,5.10808 -1.50205,7.657619 -2.16289,2.017074 -4.91974,2.622481 -7.78556,2.699776 -2.6556,-0.129971 -4.09345,-0.521597 -5.08803,-3.123316 -0.0803,-1.013315 -0.13334,-0.531855 0.1249,-1.447729 0,0 0.10687,-0.03277 0.10687,-0.03277 v 0 c 0.59991,0.28834 0.28978,0.200507 0.92706,0.274921 0.54142,-0.05434 1.08857,-0.271706 1.62316,-0.302604 0.72892,-0.04213 1.45835,0.306088 2.19294,0.213312 1.62556,-0.03827 3.27456,-0.247388 4.63582,-1.216088 0.95756,-0.830125 1.25063,-1.840273 0.93014,-3.087939 -0.47903,-1.301898 -1.25766,-2.367706 -2.56765,-2.931658 -0.97849,-0.370848 -1.9793,-0.509847 -3.01603,-0.292832 -1.08449,-4.873471 -2.32868,-3.571825 0.0306,-4.273572 0.7199,-0.264702 1.46705,-0.588456 1.89903,-1.25637 0.33695,-1.114188 -0.20576,-2.087341 -1.03529,-2.833236 -1.3693,-0.863404 -2.79691,-0.908946 -4.2511,-0.146705 -1.38311,0.88355 -2.46596,2.073934 -2.86556,3.709015 0,0 -3.54061,-0.794437 -3.54061,-0.794437 z"
       inkscape:connector-curvature="0" />
    <path
       style="opacity:1;fill:#ff0000;fill-opacity:1;stroke:none;stroke-width:0.2;stroke-linejoin:miter;stroke-miterlimit:4;stroke-dasharray:none;stroke-opacity:1"
       id="path6538"
       d="m 150.14656,31.163137 c -2.02966,0.283975 -3.49388,1.527089 -4.71266,3.085978 -1.13575,1.742657 -1.45076,3.636302 -0.88107,5.621106 0.76217,1.966815 2.51373,2.869573 4.36207,3.615388 2.59063,0.734494 5.05643,1.73939 7.73106,2.143996 0.3754,0.01773 0.7508,0.03544 1.1262,0.05316 0,0 0.0347,0.106267 0.0347,0.106267 v 0 c -0.32872,0.247521 -0.65744,0.495044 -0.98616,0.742564 -3.3078,1.761815 -5.91891,2.32519 -9.58526,1.188836 -3.46317,-1.357378 -5.96679,-3.139493 -7.18715,-6.810438 -0.76814,-3.806587 -0.30291,-6.317229 1.93319,-9.545229 2.22469,-2.556701 4.51192,-4.145529 7.9632,-4.494185 0,0 0.2019,4.292557 0.2019,4.292557 z"
       inkscape:connector-curvature="0" />
    <path
       style="opacity:1;fill:#ff0000;fill-opacity:1;stroke:none;stroke-width:0.2;stroke-linejoin:miter;stroke-miterlimit:4;stroke-dasharray:none;stroke-opacity:1"
       id="path6540"
       d="m 166.88709,30.75189 c -1.87231,1.144102 -3.42569,2.639034 -4.34869,4.638857 -0.47243,1.635322 0.50939,2.635082 1.71741,3.5753 1.39389,0.950243 3.04926,1.320287 4.59034,1.946066 2.71995,1.104485 -0.10757,0.07054 2.60464,1.028668 1.10847,0.402096 2.21428,0.666137 3.38342,0.771364 0,0 0.0189,0.11018 0.0189,0.11018 v 0 c -1.15559,0.515372 -2.26432,1.137651 -3.49685,1.462419 -1.09202,0.235505 -2.20046,0.529362 -3.32865,0.540932 -2.44791,0.02511 -4.7339,-1.01388 -6.7266,-2.345404 -0.44618,-0.390422 -0.93234,-0.739407 -1.33856,-1.171263 -2.10117,-2.233784 -2.58438,-5.140838 -1.46871,-7.96323 0.25826,-0.486307 0.47721,-0.995622 0.77478,-1.458921 1.33927,-2.085209 3.36573,-3.640896 5.4368,-4.937757 0,0 2.18181,3.802789 2.18181,3.802789 z"
       inkscape:connector-curvature="0" />
  </g>
</svg>
