<?xml version="1.0" encoding="UTF-8" standalone="no"?>
<!-- Created with Inkscape (http://www.inkscape.org/) -->

<svg
   xmlns:dc="http://purl.org/dc/elements/1.1/"
   xmlns:cc="http://creativecommons.org/ns#"
   xmlns:rdf="http://www.w3.org/1999/02/22-rdf-syntax-ns#"
   xmlns:svg="http://www.w3.org/2000/svg"
   xmlns="http://www.w3.org/2000/svg"
   xmlns:sodipodi="http://sodipodi.sourceforge.net/DTD/sodipodi-0.dtd"
   xmlns:inkscape="http://www.inkscape.org/namespaces/inkscape"
   width="1920"
   height="1080"
   viewBox="0 0 507.99999 285.75001"
   version="1.1"
   id="svg8"
   inkscape:version="0.92.2 2405546, 2018-03-11"
   sodipodi:docname="bccvsfcc-6.svg">
  <defs
     id="defs2" />
  <sodipodi:namedview
     id="base"
     pagecolor="#ffffff"
     bordercolor="#666666"
     borderopacity="1.0"
     inkscape:pageopacity="0.0"
     inkscape:pageshadow="2"
     inkscape:zoom="0.37871094"
     inkscape:cx="1013.6163"
     inkscape:cy="541.45257"
     inkscape:document-units="mm"
     inkscape:current-layer="layer1"
     showgrid="false"
     units="px"
     inkscape:window-width="1348"
     inkscape:window-height="730"
     inkscape:window-x="5"
     inkscape:window-y="25"
     inkscape:window-maximized="0" />
  <metadata
     id="metadata5">
    <rdf:RDF>
      <cc:Work
         rdf:about="">
        <dc:format>image/svg+xml</dc:format>
        <dc:type
           rdf:resource="http://purl.org/dc/dcmitype/StillImage" />
        <dc:title></dc:title>
      </cc:Work>
    </rdf:RDF>
  </metadata>
  <g
     inkscape:label="Layer 1"
     inkscape:groupmode="layer"
     id="layer1"
     transform="translate(0,-11.249983)">
    <path
       style="opacity:1;fill:#000000;fill-opacity:1;stroke:none;stroke-width:0.2;stroke-linejoin:miter;stroke-miterlimit:4;stroke-dasharray:none;stroke-opacity:1"
       id="path6489"
       d="m 69.220553,39.213097 c 0.183343,3.92866 0.512812,7.848192 0.832855,11.767552 0.720741,8.686718 1.286074,17.38412 1.775577,26.086551 0.606792,12.017076 0.833805,24.04914 1.018897,36.07878 0.127465,13.02903 0.372512,26.05555 0.679799,39.08141 0.333364,12.87477 0.689631,25.74891 1.0008,38.62424 0.238413,10.68278 0.431159,21.36643 0.480332,32.05186 0.302194,6.68812 -0.554016,13.31721 -1.337831,19.93972 -0.03313,0.65442 -0.06625,1.30883 -0.09938,1.96324 0,0 -0.111514,0.008 -0.111514,0.008 v 0 c -0.1237,-0.64939 -0.247401,-1.29879 -0.371102,-1.94818 -1.294656,-6.57058 -2.031746,-13.23354 -1.825183,-19.94166 -0.06975,-10.66597 -0.09457,-21.33276 -0.312179,-31.99714 -0.2329,-12.87583 -0.528733,-25.75027 -0.825426,-38.62476 C 69.858386,139.26729 69.708161,126.23026 69.572957,113.1931 69.412489,101.20711 69.230985,89.218833 68.574112,77.247326 68.10223,68.576541 67.516866,59.911869 66.677904,51.267942 66.322826,47.258009 65.875431,43.240944 65.833873,39.213105 c 0,0 3.38668,0 3.38668,0 z"
       inkscape:connector-curvature="0" />
    <path
       style="opacity:1;fill:#000000;fill-opacity:1;stroke:none;stroke-width:0.2;stroke-linejoin:miter;stroke-miterlimit:4;stroke-dasharray:none;stroke-opacity:1"
       id="path6491"
       d="m 70.763793,36.659609 c 1.916107,2.765662 3.934574,5.458319 5.92046,8.173806 2.05767,2.826642 4.139985,5.637485 5.941583,8.636982 0.908328,1.516742 1.276813,3.384828 -1.476306,3.04111 -0.445264,-0.05559 -1.630468,-1.202563 -1.886145,-1.430007 -2.828764,-2.762265 -4.842545,-6.178968 -6.696602,-9.634754 -1.744557,-3.349755 -3.085129,-6.883963 -4.597887,-10.338656 0.0034,0.10426 -1.016865,-1.971208 -1.118256,-1.739317 -0.181456,0.415001 0.908767,0.592633 1.163114,0.657834 -1.967241,2.458319 -3.644871,5.135549 -5.398606,7.746974 -2.687061,4.228094 -6.124141,7.882675 -9.252019,11.774932 -0.373229,0.599945 -0.746458,1.19989 -1.11969,1.799836 0,0 -0.09994,-0.05007 -0.09994,-0.05007 v 0 c 0.26008,-0.664163 0.520163,-1.328322 0.780243,-1.992482 1.658202,-4.76382 3.522903,-9.477671 6.326553,-13.7024 1.938432,-3.130814 3.750921,-6.46107 6.386851,-9.065425 0.480568,-0.242 0.913508,-0.623422 1.441701,-0.726 2.614041,-0.507664 3.725746,1.883192 4.477578,3.863324 1.253437,3.452024 2.416307,6.942696 3.933338,10.291889 1.539166,3.242318 3.196664,6.474251 5.603917,9.172737 1.637335,1.668838 0.743408,0.37574 -0.08452,1.490445 -0.183814,0.247481 -0.04777,0.614715 -0.07544,0.921748 -0.02854,0.316698 0.219178,-2.624767 -0.27478,-0.913514 -1.722281,-2.935988 -3.946821,-5.532493 -6.088264,-8.165864 -2.16899,-2.63906 -4.359542,-5.265746 -6.377024,-8.023924 0,0 2.570141,-1.789204 2.570141,-1.789204 z"
       inkscape:connector-curvature="0" />
    <path
       style="opacity:1;fill:#000000;fill-opacity:1;stroke:none;stroke-width:0.2;stroke-linejoin:miter;stroke-miterlimit:4;stroke-dasharray:none;stroke-opacity:1"
       id="path6493"
       d="m 74.870814,240.06633 c 2.443705,-2.94111 6.172087,-3.79915 9.748018,-4.52151 7.754186,-1.12696 15.619388,-1.02171 23.434718,-0.99666 12.7336,0.15319 25.46545,0.37936 38.20025,0.39198 15.68984,0.0252 31.36897,-0.59162 47.03731,-1.3478 16.66568,-0.85164 33.31257,-2.02336 49.95648,-3.21785 16.07055,-1.23186 32.15966,-2.15335 48.26612,-2.7413 10.08583,-0.26545 20.18405,-0.60104 30.27502,-0.38647 4.20323,0.0894 9.53733,0.39184 13.7508,0.60682 6.07689,0.46178 12.15477,0.588 18.24484,0.55046 0,0 0,0.11179 0,0.11179 v 0 c -6.08997,0.0375 -12.16594,0.23793 -18.23797,0.75351 -3.95562,0.24431 -9.79328,0.62598 -13.72787,0.78191 -10.05552,0.3985 -20.12572,0.3709 -30.1806,0.80043 -16.06749,0.66075 -32.12139,1.58572 -48.15668,2.80593 -16.66923,1.18338 -33.33912,2.37307 -50.02946,3.22449 -15.72266,0.78363 -31.45501,1.46666 -47.2006,1.48789 -12.73707,-0.002 -25.47225,-0.14558 -38.20806,-0.3159 -7.57589,-0.0177 -15.207904,-0.14412 -22.722671,0.96237 -2.735088,0.55424 -5.630061,1.11721 -7.678235,3.17249 0,0 -2.772098,-2.12258 -2.772098,-2.12258 z"
       inkscape:connector-curvature="0" />
    <path
       style="opacity:1;fill:#000000;fill-opacity:1;stroke:none;stroke-width:0.2;stroke-linejoin:miter;stroke-miterlimit:4;stroke-dasharray:none;stroke-opacity:1"
       id="path6495"
       d="m 368.0374,235.21811 c -2.03219,2.07986 -4.04173,4.17936 -6.1549,6.17785 -2.06261,1.96241 -4.37274,3.6272 -6.93946,4.85683 -2.21393,0.89469 -3.91475,0.66341 -3.97981,-2.49068 -0.0122,-0.58905 1.13752,-1.6048 1.50799,-1.97417 2.43766,-2.12348 5.17064,-3.85749 7.92432,-5.53415 2.6234,-1.58567 5.44338,-2.76294 8.32729,-3.77398 1.9632,-0.73906 0.6763,-0.79957 0.18407,0.57901 -0.082,0.22968 0.12268,0.5256 -0.008,0.73162 -0.0688,0.10856 -0.2091,-0.14951 -0.31364,-0.22426 -2.45364,-2.01237 -5.22306,-3.59912 -7.69233,-5.59079 -0.72467,-0.58449 -1.40621,-1.22052 -2.10932,-1.83078 -2.19313,-1.74572 -4.15877,-3.7853 -6.36209,-5.51694 -0.65087,-0.51155 -1.35757,-0.9478 -2.03639,-1.4217 0,0 0.0599,-0.0944 0.0599,-0.0944 v 0 c 0.71758,0.41213 1.41174,0.868 2.15273,1.23639 2.51008,1.24793 5.20864,2.12246 7.73525,3.33635 4.04834,1.76049 7.93851,3.92329 11.33139,6.77547 0.79664,0.85893 1.62021,1.45706 1.60004,2.8254 -0.0294,1.99967 -1.67632,2.68286 -3.24821,3.1278 -2.63728,0.80621 -5.21411,1.79723 -7.5838,3.23027 -2.49944,1.48105 -4.95559,3.07738 -7.11578,5.03149 -0.9398,0.90478 0.28958,-0.23285 -1.29969,-1.82869 -0.57219,-0.57458 -1.87814,0.0545 -0.71107,-0.24722 2.24631,-0.91352 4.23257,-2.31233 6.03475,-3.92569 2.12069,-1.95253 4.13584,-4.00719 6.13836,-6.08001 0,0 2.55826,2.62496 2.55826,2.62496 z"
       inkscape:connector-curvature="0" />
    <path
       style="opacity:1;fill:#000000;fill-opacity:1;stroke:none;stroke-width:0.2;stroke-linejoin:miter;stroke-miterlimit:4;stroke-dasharray:none;stroke-opacity:1"
       id="path6497"
       d="m 361.09033,264.53648 c 0.13272,3.58849 0.52127,7.16177 0.8753,10.73347 0.35527,3.99341 0.89654,7.97057 1.17457,11.97062 0.0974,2.67234 -0.53079,3.30234 -4.39227,2.0002 -0.35717,-0.12044 -1.29816,-4.69559 -1.3771,-5.06778 -1.24191,-5.92331 -1.614,-11.93919 -1.33726,-17.97095 0.48183,-4.36924 1.45439,-9.21112 5.07598,-12.14236 0.60736,-0.49158 1.32611,-0.8268 1.98917,-1.2402 0.73204,-0.23849 1.44053,-0.56771 2.19614,-0.71546 3.05798,-0.59795 6.21982,0.4121 8.66797,2.2476 0.61709,0.46267 1.15187,1.02599 1.7278,1.53898 2.57942,3.00709 4.04812,6.83465 3.07702,10.80866 -0.18865,0.77199 -0.53951,1.49505 -0.80925,2.24258 -2.16596,3.79217 -5.93056,6.04391 -10.19767,6.78594 -0.85313,0.14836 -1.72532,0.15064 -2.58798,0.22596 -3.58424,0.12293 -7.04915,-0.90857 -10.5845,-1.2073 0,0 -0.001,-0.11177 -0.001,-0.11177 v 0 c 3.36714,-0.35577 6.64813,-1.37881 9.87507,-2.37225 3.36931,-1.08627 7.12009,-1.90417 9.22143,-5.02471 0.19323,-0.41384 0.43812,-0.8073 0.57967,-1.24154 0.79559,-2.44053 -0.0748,-4.92944 -1.60591,-6.85883 -2.17339,-2.18102 -4.26134,-3.38922 -7.40657,-2.61937 -0.38563,0.1968 -0.80229,0.342 -1.15688,0.5904 -2.93474,2.05594 -3.44762,6.0489 -3.89264,9.29771 -0.29566,5.64909 0.15329,11.28994 1.4114,16.81512 0.74709,3.14063 0.13167,0.65538 0.80441,3.1658 0.0352,0.1312 0.2256,0.36224 0.0941,0.39653 -4.66497,1.21613 -3.3411,-0.82368 -3.74907,1.28939 -0.0386,0.20016 0.0447,-0.40523 0.067,-0.60785 -0.1295,-3.92549 -0.58022,-7.83122 -1.06019,-11.72697 -0.45235,-3.6485 -0.92797,-7.29588 -1.2312,-10.96068 0,0 4.55255,-0.24094 4.55255,-0.24094 z"
       inkscape:connector-curvature="0" />
    <path
       style="opacity:1;fill:#000000;fill-opacity:1;stroke:none;stroke-width:0.2;stroke-linejoin:miter;stroke-miterlimit:4;stroke-dasharray:none;stroke-opacity:1"
       id="path6499"
       d="m 23.455588,134.49687 c -0.342953,2.57998 -0.986223,5.10152 -1.744652,7.58664 -0.854422,2.7405 -1.981419,5.38243 -3.033044,8.05024 -0.753978,1.99632 -1.503837,4.04688 -1.38389,6.20771 0.142564,1.11176 0.780682,1.33757 1.73977,1.61789 2.124718,0.40119 4.296266,0.13842 6.427919,-0.0631 2.647369,-0.29531 5.299902,-0.51395 7.964481,-0.51096 1.434745,0.17325 3.574576,-0.10483 4.559647,1.20239 0.0057,0.39163 -0.349134,0.68024 -0.388898,1.05197 -0.0082,0.0763 0.230896,0.0763 0.23037,-5.3e-4 -0.0011,-0.16104 -0.155514,-0.28206 -0.23327,-0.42308 0,0 0.07534,-0.0826 0.07534,-0.0826 v 0 c 1.308237,0.64423 1.49003,1.03784 0.233439,2.13029 -1.313937,0.84219 -2.880283,0.58317 -4.377933,0.66611 -2.546665,0.12018 -5.084316,0.35206 -7.619321,0.6216 -2.811522,0.27027 -5.688837,0.59883 -8.453961,-0.16935 -3.040206,-1.16977 -4.458476,-2.71711 -4.761021,-6.0434 0.09108,-2.74094 0.805137,-5.34261 1.896427,-7.85789 1.052246,-2.54313 2.158063,-5.06775 3.039975,-7.67716 0.729036,-2.26169 1.40902,-4.54619 1.810745,-6.89237 0,0 4.017882,0.58554 4.017882,0.58554 z"
       inkscape:connector-curvature="0" />
    <path
       style="opacity:1;fill:#000000;fill-opacity:1;stroke:none;stroke-width:0.2;stroke-linejoin:miter;stroke-miterlimit:4;stroke-dasharray:none;stroke-opacity:1"
       id="path6501"
       d="m 17.909539,146.43613 c 2.189773,-0.43715 4.340854,-1.05295 6.49619,-1.63321 2.386408,-0.66305 4.765022,-1.35341 7.160308,-1.98374 1.686121,-0.4636 3.399994,-0.19284 5.104175,-0.0352 0.118685,-0.0717 0.237369,-0.14332 0.356053,-0.21498 0,0 0.07481,0.0831 0.07481,0.0831 v 0 c -0.09493,0.12075 -0.189857,0.24149 -0.284784,0.36224 -0.789747,1.73861 -2.230578,2.99264 -3.981788,3.73425 -2.368699,0.90457 -4.797587,1.63171 -7.238637,2.31495 -2.281699,0.65997 -4.574456,1.28986 -6.908793,1.73802 0,0 -0.777537,-4.36534 -0.777537,-4.36534 z"
       inkscape:connector-curvature="0" />
    <path
       style="opacity:1;fill:#000000;fill-opacity:1;stroke:none;stroke-width:0.2;stroke-linejoin:miter;stroke-miterlimit:4;stroke-dasharray:none;stroke-opacity:1"
       id="path6503"
       d="m 20.257576,131.82886 c 2.199286,-0.75177 4.375174,-1.56707 6.581617,-2.29913 2.336673,-0.58661 4.674266,-1.61272 7.103522,-1.78102 0.485564,-0.0336 0.972995,0.0299 1.459492,0.0449 1.555689,0.0599 3.102563,0.23814 4.657709,0.29492 0,0 0.03809,0.10509 0.03809,0.10509 v 0 c -1.217838,1.04964 -2.53188,1.93963 -3.965117,2.67698 -0.416529,0.2294 -0.813724,0.49809 -1.249585,0.68821 -2.129907,0.92904 -4.534456,1.164 -6.688212,2.03621 -2.230877,0.74815 -4.435272,1.57377 -6.679881,2.28061 0,0 -1.257635,-4.04677 -1.257635,-4.04677 z"
       inkscape:connector-curvature="0" />
    <path
       style="opacity:1;fill:#ff0000;fill-opacity:1;stroke:none;stroke-width:0.2;stroke-linejoin:miter;stroke-miterlimit:4;stroke-dasharray:none;stroke-opacity:1"
       id="path6505"
       d="m 75.970941,90.906417 c 0.670701,1.971738 1.514375,3.875241 2.387881,5.763574 1.16732,2.501617 2.490263,4.926209 3.832214,7.337249 1.602653,2.83172 3.438657,5.5182 5.366327,8.13603 2.143051,2.8427 4.361934,5.62716 6.573422,8.41665 2.420495,3.05462 4.75279,6.17766 7.120595,9.27304 2.41216,3.2443 4.98948,6.36035 7.68382,9.37303 3.02455,3.38144 6.16303,6.65852 9.24354,9.9887 3.13426,3.41163 6.32623,6.7698 9.60728,10.04053 3.22913,3.15818 6.50282,6.27021 9.74281,9.4173 3.00039,2.92086 5.97116,5.87148 9.05917,8.70035 2.94821,2.73039 6.15812,5.15152 9.44141,7.45965 3.13226,2.16991 6.44517,4.0573 9.8112,5.83569 3.36037,1.74214 6.8505,3.20384 10.37249,4.58147 3.62815,1.42208 7.35929,2.5379 11.14555,3.44627 3.82343,0.89206 7.72789,1.32055 11.63326,1.64838 4.35522,0.33573 8.72327,0.43293 13.08957,0.47927 4.75695,0.032 9.51362,-0.0661 14.26484,-0.2961 4.62339,-0.17274 9.22058,-0.70787 13.78083,-1.46981 4.37359,-0.74137 8.60437,-2.06163 12.73277,-3.65763 4.19776,-1.64211 8.08901,-3.90848 11.87211,-6.3336 4.0886,-2.7445 7.9558,-5.80105 11.79652,-8.87789 4.22627,-3.3329 8.44077,-6.68054 12.63341,-10.05565 4.34287,-3.47836 8.50127,-7.17607 12.57011,-10.96876 4.16428,-3.90497 8.09369,-8.0428 11.95517,-12.24365 3.85464,-4.26799 7.4888,-8.72274 10.94447,-13.3177 3.71176,-4.88331 6.90364,-10.11852 9.96775,-15.42234 2.99979,-5.3202 5.7013,-10.79786 8.33737,-16.3046 2.28859,-4.773356 4.26627,-9.686219 6.00596,-14.683539 1.20187,-3.48497 2.20141,-7.034218 3.282,-10.557438 0.42971,-1.48159 0.96112,-2.977171 2.66326,-3.182411 0.12536,-0.0098 0.2507,-0.01961 0.37603,-0.0294 -0.003,0.0035 -0.007,0.007 -0.0103,0.01056 0,0 -0.007,-0.111578 -0.007,-0.111578 v 0 c 0.4195,-0.0084 0.1683,-0.03669 0.73046,0.20375 1.27477,1.449639 1.00026,2.64984 0.42643,4.39183 -1.1009,3.583612 -2.19559,7.1701 -3.4299,10.710727 -1.85981,5.107496 -3.88241,10.151914 -6.24144,15.052619 -2.65409,5.617 -5.39919,11.19632 -8.43007,16.62128 -3.11709,5.48339 -6.46142,10.8406 -10.25147,15.88913 -3.56256,4.67544 -7.22741,9.27897 -11.2041,13.6124 -3.90776,4.31284 -7.96131,8.49504 -12.21089,12.47339 -4.13806,3.8627 -8.35871,7.63501 -12.75545,11.20337 -4.17526,3.42 -8.40801,6.7687 -12.60227,10.16532 -3.97483,3.1385 -7.90871,6.34282 -12.12072,9.16367 -4.01941,2.63094 -8.18378,5.05539 -12.66429,6.82477 -4.41747,1.70042 -8.94322,3.10781 -13.62173,3.89368 -4.74401,0.78727 -9.52061,1.32825 -14.32874,1.51953 -4.83262,0.18651 -9.66777,0.31888 -14.5046,0.28737 -4.4775,-0.0386 -8.95687,-0.13108 -13.42339,-0.46959 -4.13655,-0.34305 -8.27181,-0.79717 -12.31995,-1.74833 -3.98585,-0.96185 -7.91425,-2.13834 -11.73584,-3.6332 -3.68318,-1.43722 -7.33103,-2.97622 -10.82916,-4.82659 -3.53227,-1.87194 -6.9921,-3.87894 -10.27488,-6.16642 -3.44534,-2.42716 -6.78008,-5.00442 -9.86336,-7.88469 -3.08113,-2.88769 -6.08453,-5.85529 -9.07848,-8.83309 -3.25307,-3.1686 -6.54315,-6.29964 -9.74215,-9.52331 -3.28351,-3.33875 -6.49369,-6.74509 -9.64358,-10.21045 -3.1029,-3.34983 -6.21162,-6.69425 -9.30326,-10.0545 -2.74064,-3.11636 -5.4218,-6.28254 -7.901773,-9.61305 -2.320464,-3.1009 -4.643231,-6.19992 -7.033836,-9.24745 -2.214132,-2.85074 -4.48064,-5.66216 -6.605718,-8.58087 -1.98828,-2.77 -3.913097,-5.58823 -5.565782,-8.57522 -1.409317,-2.51346 -2.744312,-5.06959 -3.907436,-7.707636 -0.867299,-2.046584 -1.697942,-4.116129 -2.280959,-6.264699 0,0 3.442369,-1.069398 3.442369,-1.069398 z"
       inkscape:connector-curvature="0" />
    <path
       style="opacity:1;fill:#ff0000;fill-opacity:1;stroke:none;stroke-width:0.2;stroke-linejoin:miter;stroke-miterlimit:4;stroke-dasharray:none;stroke-opacity:1"
       id="path6534"
       d="m 129.08409,29.235261 c -0.33737,2.446637 -0.0166,4.929394 -0.20023,7.38162 -0.0478,0.638316 -0.16851,1.269066 -0.25276,1.9036 -0.31716,2.26046 -0.68326,4.512495 -1.10736,6.755175 0,0 -0.1115,0.0079 -0.1115,0.0079 v 0 c -0.74005,-2.173504 -1.40341,-4.370691 -1.97232,-6.595834 -0.1509,-0.636982 -0.3456,-1.265154 -0.4527,-1.910945 -0.43986,-2.652134 -0.26736,-5.395784 -0.14685,-8.064067 0,0 4.24372,0.522522 4.24372,0.522522 z"
       inkscape:connector-curvature="0" />
    <path
       style="opacity:1;fill:#ff0000;fill-opacity:1;stroke:none;stroke-width:0.2;stroke-linejoin:miter;stroke-miterlimit:4;stroke-dasharray:none;stroke-opacity:1"
       id="path6536"
       d="m 120.25459,32.164629 c 0.70487,-2.530152 2.35905,-4.345103 4.47164,-5.802472 2.83635,-1.510955 5.02353,-1.52522 7.87761,-0.11524 2.43708,1.728728 3.39232,3.442819 3.20107,6.431051 -0.47486,2.290425 -2.15005,3.605356 -4.1649,4.532828 -3.11651,1.1308 -2.15043,1.279575 -2.34404,-3.51238 1.72078,-0.325352 3.39342,-0.04369 5.041,0.470797 2.45807,0.962535 4.02759,2.840473 5.09895,5.18003 1.0128,3.171727 0.58365,5.10808 -1.50205,7.657619 -2.16289,2.017074 -4.91974,2.622481 -7.78556,2.699776 -2.6556,-0.129971 -4.09345,-0.521597 -5.08803,-3.123316 -0.0803,-1.013315 -0.13334,-0.531855 0.1249,-1.447729 0,0 0.10687,-0.03277 0.10687,-0.03277 v 0 c 0.59991,0.28834 0.28978,0.200507 0.92706,0.274921 0.54142,-0.05434 1.08857,-0.271706 1.62316,-0.302604 0.72892,-0.04213 1.45835,0.306088 2.19294,0.213312 1.62556,-0.03827 3.27456,-0.247388 4.63582,-1.216088 0.95756,-0.830125 1.25063,-1.840273 0.93014,-3.087939 -0.47903,-1.301898 -1.25766,-2.367706 -2.56765,-2.931658 -0.97849,-0.370848 -1.9793,-0.509847 -3.01603,-0.292832 -1.08449,-4.873471 -2.32868,-3.571825 0.0306,-4.273572 0.7199,-0.264702 1.46705,-0.588456 1.89903,-1.25637 0.33695,-1.114188 -0.20576,-2.087341 -1.03529,-2.833236 -1.3693,-0.863404 -2.79691,-0.908946 -4.2511,-0.146705 -1.38311,0.88355 -2.46596,2.073934 -2.86556,3.709015 0,0 -3.54061,-0.794437 -3.54061,-0.794437 z"
       inkscape:connector-curvature="0" />
    <path
       style="opacity:1;fill:#ff0000;fill-opacity:1;stroke:none;stroke-width:0.2;stroke-linejoin:miter;stroke-miterlimit:4;stroke-dasharray:none;stroke-opacity:1"
       id="path6538"
       d="m 150.14656,31.163137 c -2.02966,0.283975 -3.49388,1.527089 -4.71266,3.085978 -1.13575,1.742657 -1.45076,3.636302 -0.88107,5.621106 0.76217,1.966815 2.51373,2.869573 4.36207,3.615388 2.59063,0.734494 5.05643,1.73939 7.73106,2.143996 0.3754,0.01773 0.7508,0.03544 1.1262,0.05316 0,0 0.0347,0.106267 0.0347,0.106267 v 0 c -0.32872,0.247521 -0.65744,0.495044 -0.98616,0.742564 -3.3078,1.761815 -5.91891,2.32519 -9.58526,1.188836 -3.46317,-1.357378 -5.96679,-3.139493 -7.18715,-6.810438 -0.76814,-3.806587 -0.30291,-6.317229 1.93319,-9.545229 2.22469,-2.556701 4.51192,-4.145529 7.9632,-4.494185 0,0 0.2019,4.292557 0.2019,4.292557 z"
       inkscape:connector-curvature="0" />
    <path
       style="opacity:1;fill:#ff0000;fill-opacity:1;stroke:none;stroke-width:0.2;stroke-linejoin:miter;stroke-miterlimit:4;stroke-dasharray:none;stroke-opacity:1"
       id="path6540"
       d="m 166.88709,30.75189 c -1.87231,1.144102 -3.42569,2.639034 -4.34869,4.638857 -0.47243,1.635322 0.50939,2.635082 1.71741,3.5753 1.39389,0.950243 3.04926,1.320287 4.59034,1.946066 2.71995,1.104485 -0.10757,0.07054 2.60464,1.028668 1.10847,0.402096 2.21428,0.666137 3.38342,0.771364 0,0 0.0189,0.11018 0.0189,0.11018 v 0 c -1.15559,0.515372 -2.26432,1.137651 -3.49685,1.462419 -1.09202,0.235505 -2.20046,0.529362 -3.32865,0.540932 -2.44791,0.02511 -4.7339,-1.01388 -6.7266,-2.345404 -0.44618,-0.390422 -0.93234,-0.739407 -1.33856,-1.171263 -2.10117,-2.233784 -2.58438,-5.140838 -1.46871,-7.96323 0.25826,-0.486307 0.47721,-0.995622 0.77478,-1.458921 1.33927,-2.085209 3.36573,-3.640896 5.4368,-4.937757 0,0 2.18181,3.802789 2.18181,3.802789 z"
       inkscape:connector-curvature="0" />
    <path
       style="opacity:1;fill:#0000ff;fill-opacity:1;stroke:none;stroke-width:0.2;stroke-linejoin:miter;stroke-miterlimit:4;stroke-dasharray:none;stroke-opacity:1"
       id="path6561"
       d="m 174.21961,83.962967 c -0.23311,3.040793 -0.0961,6.088562 0.0904,9.126995 0.28144,4.021907 0.78863,8.021608 1.42086,12.001938 0.64962,4.04995 1.60504,8.0372 2.66435,11.99647 0.92729,3.41213 1.97537,6.79013 3.08549,10.14674 1.04443,3.18398 2.28601,6.29561 3.65927,9.35052 1.27517,2.7901 2.74452,5.48769 4.30629,8.12653 1.39354,2.33623 2.87804,4.61608 4.42599,6.85245 1.63622,2.3984 3.55186,4.57947 5.54127,6.68674 1.97636,2.05773 4.08442,3.98132 6.14074,5.95733 1.8752,1.76937 3.70642,3.58516 5.50994,5.42736 1.93859,2.02652 3.92218,4.00685 5.97965,5.91253 2.29405,2.10602 4.77987,3.98558 7.28106,5.83529 2.4613,1.8161 4.95854,3.58397 7.47589,5.32166 2.62489,1.83542 5.39577,3.43983 8.22586,4.93331 3.2037,1.63474 6.50821,3.05994 9.81322,4.47451 3.62445,1.59795 7.32685,2.99432 11.09494,4.21142 4.07645,1.29801 8.27272,2.13389 12.486,2.83617 4.45206,0.72769 8.95307,1.0394 13.45676,1.19537 4.34665,0.14244 8.67833,-0.25563 12.98337,-0.81046 4.46042,-0.54146 8.78213,-1.74144 13.0543,-3.08876 4.99039,-1.70477 9.95021,-3.49541 14.94017,-5.20145 5.5203,-1.80717 11.0653,-3.53547 16.56972,-5.39091 5.53524,-1.81382 10.86085,-4.15448 15.96549,-6.94855 5.55254,-3.06977 10.4835,-7.05871 15.20592,-11.25969 5.44404,-4.95084 10.35788,-10.43567 15.12948,-16.02534 4.79856,-5.51905 9.07198,-11.44206 12.84177,-17.70218 3.19225,-5.46345 5.36852,-11.40702 7.38931,-17.37704 1.7145,-5.33697 3.51954,-10.64287 5.51148,-15.88282 0.9127,-3.0973 3.35989,-5.488078 4.20097,-8.599554 0,0 0.11166,-0.0054 0.11166,-0.0054 v 0 c 1.15324,3.367733 0.67849,6.717364 -0.53454,10.018484 -1.92196,5.22168 -3.76992,10.46768 -5.446,15.77451 -2.12593,6.24057 -4.43539,12.44578 -7.83632,18.12619 -3.9062,6.43113 -8.33999,12.50452 -13.26984,18.19538 -4.91402,5.69601 -9.91719,11.3361 -15.46672,16.42888 -4.94313,4.41698 -10.08594,8.63686 -15.90892,11.86228 -5.32585,2.86582 -10.81304,5.38588 -16.57093,7.27055 -5.49375,1.89796 -11.04418,3.61846 -16.56725,5.4278 -5.02608,1.6863 -10.00184,3.51549 -15.02654,5.20512 -4.50186,1.42837 -9.07224,2.6543 -13.76937,3.24531 -4.5263,0.58102 -9.08237,0.95837 -13.65088,0.81142 -4.67895,-0.16787 -9.3517,-0.52592 -13.97868,-1.26596 -4.41076,-0.73151 -8.80313,-1.60605 -13.07122,-2.96077 -3.88749,-1.25179 -7.71088,-2.68393 -11.46119,-4.30353 -3.41028,-1.45322 -6.81928,-2.91915 -10.12431,-4.60186 -2.97719,-1.56663 -5.89496,-3.24592 -8.65677,-5.1726 -2.56472,-1.768 -5.08823,-3.59327 -7.57058,-5.47533 -2.58193,-1.96954 -5.15023,-3.9628 -7.55801,-6.14534 -2.11137,-1.94539 -4.15279,-3.96196 -6.14196,-6.0323 -1.77989,-1.8128 -3.56187,-3.62262 -5.3929,-5.3843 -2.10701,-2.03793 -4.1982,-4.09581 -6.17069,-6.26548 -2.03917,-2.28939 -4.01437,-4.63626 -5.76589,-7.15694 -1.60299,-2.30854 -3.13875,-4.66339 -4.56804,-7.08405 -1.62139,-2.76321 -3.18375,-5.56155 -4.50958,-8.48145 -1.42066,-3.17257 -2.71376,-6.40042 -3.79712,-9.70521 -1.12928,-3.42754 -2.20475,-6.87227 -3.16149,-10.35251 -1.07833,-4.08362 -2.0721,-8.19324 -2.74885,-12.36535 -0.65516,-4.10254 -1.20425,-8.224601 -1.44321,-12.375109 -0.17344,-3.240887 -0.26904,-6.500157 0.12546,-9.730338 0,0 3.48071,0.391305 3.48071,0.391305 z"
       inkscape:connector-curvature="0" />
    <path
       style="opacity:1;fill:#0000ff;fill-opacity:1;stroke:none;stroke-width:0.2;stroke-linejoin:miter;stroke-miterlimit:4;stroke-dasharray:none;stroke-opacity:1"
       id="path6563"
       d="m 279.54578,27.610459 c -1.62486,-0.747104 -3.36415,-1.094714 -5.14223,-1.140519 -0.61555,0.09145 -1.90767,0.06529 -2.12286,0.855832 -0.17655,1.097531 -0.0274,2.197901 0.0985,3.292031 0.4313,2.733052 0.89527,5.459289 1.19854,8.21014 0.12242,1.875753 -0.28244,3.875153 -1.41137,5.412142 0,0 -0.11155,0.0076 -0.11155,0.0076 v 0 c -1.31603,-1.286647 -2.23575,-2.982029 -2.64168,-4.772723 -0.55731,-2.75079 -1.11088,-5.504071 -1.58694,-8.26992 -0.33311,-2.377135 -0.55578,-4.817765 0.91183,-6.885527 1.66688,-1.749493 3.43239,-2.387032 5.85187,-2.366509 2.37702,0.122672 4.684,0.652296 6.86242,1.631541 0,0 -1.90651,4.025916 -1.90651,4.025916 z"
       inkscape:connector-curvature="0" />
    <path
       style="opacity:1;fill:#0000ff;fill-opacity:1;stroke:none;stroke-width:0.2;stroke-linejoin:miter;stroke-miterlimit:4;stroke-dasharray:none;stroke-opacity:1"
       id="path6565"
       d="m 277.87526,36.975627 c -1.22368,-0.09051 -2.47632,0.04258 -3.68967,-0.190134 -1.27257,-0.244063 -2.55656,-0.769933 -3.77465,-1.203631 -1.21767,-0.491882 -0.63754,-0.283483 -1.73472,-0.640725 0,0 0,-0.11178 0,-0.11178 v 0 c 1.09427,-0.372302 0.51525,-0.156862 1.73152,-0.660975 1.21848,-0.438547 2.50528,-0.962989 3.78039,-1.206287 1.20443,-0.22981 2.44692,-0.09659 3.66125,-0.192177 0,0 0.0266,4.205709 0.0266,4.205709 z"
       inkscape:connector-curvature="0" />
    <path
       style="opacity:1;fill:#0000ff;fill-opacity:1;stroke:none;stroke-width:0.2;stroke-linejoin:miter;stroke-miterlimit:4;stroke-dasharray:none;stroke-opacity:1"
       id="path6567"
       d="m 289.92554,28.54849 c -1.97294,1.186445 -3.53115,2.785816 -4.59181,4.821077 -0.73279,1.839753 -0.24233,3.452937 0.83291,5.009439 0.20825,0.226308 0.41653,0.452617 0.62478,0.678928 0.22715,0.196268 0.47213,0.37364 0.68146,0.588804 0.22027,0.226394 0.37727,0.509995 0.60278,0.73116 0.81878,0.802984 1.69188,1.066017 2.7786,1.309301 0.40396,-0.02681 0.80793,-0.05362 1.2119,-0.08042 0,0 0.0377,0.105241 0.0377,0.105241 v 0 c -0.37653,0.252595 -0.75305,0.505187 -1.12958,0.757782 -1.92823,0.906365 -3.95301,1.452856 -6.03925,0.502703 -1.05082,-0.478575 -1.70902,-1.350721 -2.46533,-2.16486 -2.16279,-3.385192 -2.52111,-5.759055 -0.96743,-9.539991 1.51665,-2.677203 3.5655,-4.902481 6.2565,-6.450402 0,0 2.1668,3.731243 2.1668,3.731243 z"
       inkscape:connector-curvature="0" />
    <path
       style="opacity:1;fill:#0000ff;fill-opacity:1;stroke:none;stroke-width:0.2;stroke-linejoin:miter;stroke-miterlimit:4;stroke-dasharray:none;stroke-opacity:1"
       id="path6569"
       d="m 303.67769,29.194811 c -1.60692,0.88071 -2.52355,2.302035 -3.10944,3.988158 -0.40852,1.787409 0,3.444153 1.07132,4.898547 1.23791,1.17639 2.89378,1.994778 4.49078,2.576833 1.31813,0.417621 2.35863,0.465095 3.7053,0.263869 0,0 0.028,0.10822 0.028,0.10822 v 0 c -1.29098,0.480676 -2.43255,1.164314 -3.69781,1.709306 -3.78682,1.133364 -5.46936,0.751427 -8.15893,-2.266442 -1.74413,-2.814885 -2.36098,-5.486347 -1.43563,-8.744024 1.05254,-2.819524 2.61506,-4.991913 5.36408,-6.370746 0,0 1.74234,3.836279 1.74234,3.836279 z"
       inkscape:connector-curvature="0" />
    <path
       style="opacity:1;fill:#00ff00;fill-opacity:1;stroke:none;stroke-width:0.2;stroke-linejoin:miter;stroke-miterlimit:4;stroke-dasharray:none;stroke-opacity:1"
       id="path6590"
       d="m 250.1166,99.577744 c 0.24379,2.907766 0.43269,5.819676 0.63319,8.730626 0.22592,3.61107 0.37626,7.2255 0.51977,10.84054 0.121,4.00629 0.15348,8.01422 0.19556,12.02182 0.0278,4.32673 0.24551,8.64716 0.53613,12.9631 0.35486,4.46512 0.78336,8.92365 1.12751,13.38975 0.361,4.37951 0.5326,8.77103 0.75248,13.15904 0.17998,4.14423 0.37454,8.28789 0.63428,12.42796 0.24175,4.14385 0.58167,8.28038 0.95192,12.41442 0.38156,4.4979 0.76268,8.99595 1.10301,13.49719 0.29297,3.92492 0.57593,7.85071 0.93064,11.77063 0.29929,3.64254 0.66669,7.27916 0.99725,10.91896 0.33274,3.90663 0.73839,7.80676 1.12041,11.70883 0.44647,4.3607 0.92,8.71854 1.33599,13.08232 0.43023,4.45811 0.73803,8.92627 1.06594,13.39265 0.2414,3.66754 0.36881,7.34074 0.40977,11.01564 -0.1296,1.82227 0.24761,3.727 -0.0866,5.53829 -0.073,0.39581 -0.55031,1.69219 -0.69545,2.09981 -0.23477,0.69808 -0.56287,1.35501 -0.8328,2.03877 0,0 -0.10729,0.0314 -0.10729,0.0314 v 0 c -0.62478,-0.54628 -1.1597,-1.129 -1.5133,-1.89762 -0.27579,-0.55914 -0.7939,-1.54402 -0.94741,-2.13881 -0.46726,-1.81038 -0.11773,-3.76642 -0.2928,-5.60353 -0.07,-3.59783 -0.15116,-7.19609 -0.39231,-10.78746 -0.2636,-4.42751 -0.59464,-8.85134 -0.99329,-13.26874 -0.42016,-4.35883 -0.85014,-8.71667 -1.29432,-13.07314 -0.3907,-3.91213 -0.73055,-7.82887 -1.09837,-11.74312 -0.33626,-3.65087 -0.65257,-7.30354 -0.98062,-10.95512 -0.30082,-3.93727 -0.60672,-7.87414 -0.876,-11.81375 -0.32779,-4.48597 -0.66078,-8.97138 -1.07476,-13.45048 -0.34361,-4.17729 -0.71268,-8.35303 -0.96043,-12.53747 -0.21051,-4.15945 -0.39646,-8.31973 -0.55336,-12.48159 -0.17213,-4.3539 -0.382,-8.70594 -0.63284,-13.05611 -0.29655,-4.47435 -0.66274,-8.94323 -1.01572,-13.41341 -0.29917,-4.39569 -0.51317,-8.79743 -0.49738,-13.20484 -0.007,-3.97093 -0.007,-7.94263 -0.14705,-11.91168 -0.10779,-3.58782 -0.27729,-7.1739 -0.47287,-10.75792 -0.13115,-2.89078 -0.29294,-5.78022 -0.47432,-8.668296 0,0 3.62541,-0.27864 3.62541,-0.27864 z"
       inkscape:connector-curvature="0" />
    <path
       style="opacity:1;fill:#ff0000;fill-opacity:1;stroke:none;stroke-width:0.2;stroke-linejoin:miter;stroke-miterlimit:4;stroke-dasharray:none;stroke-opacity:1"
       id="path6632"
       d="m 251.94084,240.26139 c 0.45775,2.6344 1.44117,5.13374 2.45433,7.59494 0.4009,1.3558 2.12825,4.23508 1.70541,5.66587 -0.16619,0.56237 -0.54102,1.04057 -0.81153,1.56086 -0.6828,0.18188 -1.34186,0.53499 -2.04839,0.54564 -0.64987,0.01 -2.13247,-0.89987 -2.64155,-1.21433 -1.60578,-0.9919 -3.12313,-2.1335 -4.66378,-3.22119 -3.39648,-2.40739 -6.75307,-4.8703 -10.17346,-7.2438 -0.36647,-0.24765 -0.72705,-0.50423 -1.0994,-0.74294 -0.2586,-0.16579 -0.52083,-0.32695 -0.79265,-0.47003 -0.12321,-0.0649 -0.52436,-0.18498 -0.38908,-0.15201 0.25593,0.0624 0.54513,0.40276 0.75273,0.24062 2.67591,-2.08987 0.89873,-2.60545 2.015,-2.2524 2.44953,2.75218 5.1321,5.29009 7.75674,7.87352 2.87087,2.89791 5.80502,5.80641 7.84355,9.36934 0.7425,1.86989 0.6315,3.52784 -1.6399,4.3649 -1.42609,0.52555 -4.15852,-0.89861 -5.39266,-1.45411 -5.07622,-2.54042 -10.01988,-5.33455 -15.05805,-7.94961 -4.14441,-2.06802 -8.28993,-4.29368 -12.83395,-5.33682 -1.54363,-0.10758 -0.80458,0.48649 0.17252,-0.38194 0.20311,-0.18052 0.10471,-0.65494 0.36637,-0.72824 0.21268,-0.0596 0.28355,0.33874 0.4282,0.50565 0.333,0.38429 0.6698,0.76527 1.0047,1.14791 4.64804,4.65045 9.91065,8.6379 15.04879,12.72357 4.88053,4.03293 10.17409,7.71378 14.20935,12.64532 1.23617,2.02126 1.78551,4.0179 -1.16859,5.21374 -1.81836,0.73607 -5.86974,-1.41216 -7.39956,-2.1064 -8.47756,-4.39208 -16.60839,-9.41654 -24.87108,-14.1939 -8.62203,-5.03016 -17.53131,-9.53495 -26.82395,-13.18216 -2.60616,-0.86615 -5.23175,-1.91055 -7.98892,-2.20844 -0.44553,-0.0481 -0.90013,-0.0559 -1.34438,0.003 -0.15315,0.0203 -0.55765,0.22501 -0.4032,0.22854 0.27497,0.006 0.53025,-0.14639 0.79537,-0.21958 0.1542,-0.21421 0.19911,-0.62725 0.4626,-0.64263 0.25643,-0.015 0.33117,0.39278 0.49992,0.58645 0.36969,0.42427 0.7288,0.85835 1.11537,1.2673 1.93814,2.05035 4.06767,3.91826 6.15076,5.8167 5.51552,4.89162 10.97245,9.84751 16.25604,14.98929 1.84482,1.8746 3.73346,3.73333 5.35056,5.8157 0.3463,0.44592 1.47067,1.94899 1.54346,2.65183 0.0689,0.6649 -0.15264,1.32816 -0.22897,1.99221 -0.8402,0.41293 -1.59637,1.08966 -2.5206,1.23878 -0.85489,0.13792 -3.49428,-1.16311 -4.10638,-1.46511 -3.08976,-1.52434 -6.04268,-3.32612 -9.00906,-5.07139 -8.68466,-5.2933 -17.53585,-10.28949 -26.59796,-14.90518 -7.28541,-3.64614 -14.82608,-6.76061 -22.60729,-9.17212 -0.70705,-0.18582 -1.40796,-0.39688 -2.12117,-0.55748 -0.49269,-0.11094 -0.99118,-0.20149 -1.49321,-0.25641 -0.23486,-0.0257 -0.94455,0.0277 -0.70861,0.0156 0.25373,-0.0131 0.59601,0.17406 0.76198,-0.0183 1.59857,-1.85285 0.22993,-2.46684 1.42445,-1.76252 4.88218,3.65295 9.92824,7.08492 14.87719,10.6486 6.11615,4.44199 12.00859,9.18228 17.48936,14.38927 1.24546,1.35564 5.30766,4.7499 2.82234,7.03482 -1.59175,1.46338 -3.43302,0.51427 -5.01955,0.061 -8.1424,-3.54007 -15.90489,-7.90146 -23.80443,-11.94618 -9.51465,-4.95264 -19.30362,-9.33672 -29.38212,-13.00343 -2.97092,-0.9495 -5.94434,-2.01605 -9.03613,-2.52096 -0.50569,-0.0826 -1.0188,-0.14068 -1.53117,-0.13567 -0.17544,0.002 -0.65972,0.23414 -0.50283,0.15559 0.42622,-0.21337 0.87655,-0.37473 1.31483,-0.56209 0.13501,-0.40072 0.0143,-1.04058 0.40502,-1.20216 0.3211,-0.13277 0.49191,0.49124 0.74902,0.72496 0.48784,0.44347 0.98329,0.87869 1.48525,1.3061 2.31563,1.97176 4.71422,3.84852 7.07511,5.76527 5.46556,4.43203 10.79492,9.02979 15.88484,13.88902 1.53527,1.65169 7.09898,5.90956 3.42133,8.46146 -0.68373,0.47443 -1.66263,0.0773 -2.49394,0.11602 -0.68935,-0.25392 -1.39181,-0.47471 -2.06804,-0.76176 -1.48184,-0.62897 -4.09583,-1.9825 -5.43466,-2.68954 -3.78361,-1.99813 -7.50678,-4.10956 -11.23487,-6.20839 -7.46312,-4.25377 -14.98779,-8.39403 -22.739944,-12.09874 -1.860259,-0.62127 -5.42812,-2.78263 -7.475889,-2.66752 -0.08878,0.005 0.135091,0.21418 0.209367,0.1653 0.563052,-0.37056 1.024454,-0.87627 1.536679,-1.31441 0.07765,-0.0594 0.156586,-0.2392 0.232968,-0.17818 0.348843,0.27867 0.553149,0.7014 0.844984,1.03931 0.450713,0.52187 0.914472,1.03246 1.382025,1.5393 1.955485,2.11979 4.0005,4.15503 6.024671,6.20854 3.479869,3.5629 7.148479,6.95401 10.431179,10.70456 1.84609,2.56925 0.79017,3.87478 -2.47018,3.90031 -0.54265,0.004 -0.98659,-0.45352 -1.46684,-0.7062 -1.27103,-0.66873 -2.50131,-1.41221 -3.75222,-2.11785 -4.796341,-2.82315 -9.750908,-5.3602 -15.042564,-7.10498 -0.905216,-0.054 -2.975935,-1.0065 -3.890703,-0.15494 -0.408445,0.38022 0.490469,0.14257 0.513017,0.15427 0.115236,0.0598 0.122232,0.22903 0.183345,0.34355 0.09518,0.31092 0.205706,0.61756 0.285547,0.93277 0.848177,3.34861 -0.32825,-0.71441 0.770636,2.98521 0.214616,0.72255 0.768797,2.45621 0.88946,3.22367 0.07543,0.47976 0.0545,0.96977 0.08175,1.45467 0,0 -0.103513,0.0422 -0.103513,0.0422 v 0 c -1.052473,-1.1502 -2.099289,-2.31084 -3.113863,-3.49466 -0.532397,-0.62121 -1.886082,-2.21963 -2.26423,-2.94604 -0.289219,-0.55559 -0.419301,-1.18047 -0.628952,-1.7707 -0.05336,-1.71648 -0.392271,-2.46104 0.881669,-3.90801 1.917057,-2.17742 5.337212,-1.13158 7.640545,-0.53332 5.480208,1.90432 10.625618,4.55783 15.680426,7.39074 1.81591,0.99492 1.89214,1.06223 3.59278,1.91014 0.27971,0.13946 0.9969,0.12915 0.84655,0.40316 -0.32214,0.58706 -1.37284,0.51075 -1.67574,1.10797 -0.39268,0.77426 0.56709,2.73795 -0.0239,1.45358 -3.02936,-3.81809 -6.726216,-7.05485 -10.053616,-10.60225 -2.075185,-2.07888 -4.171161,-4.14325 -6.195485,-6.27214 -0.451086,-0.47438 -2.378168,-2.51793 -2.773575,-3.19525 -0.361267,-0.61884 -0.54797,-1.32425 -0.821954,-1.98637 0.5276,-0.78534 0.852397,-1.75467 1.582803,-2.35604 0.532482,-0.4384 2.340081,0.0816 2.816069,0.22895 2.384584,0.73834 4.611725,1.91016 6.881194,2.9252 7.755194,3.83788 15.333404,8.01227 22.886414,12.2318 5.75879,3.15485 11.47701,6.5399 17.64788,8.82983 -0.70153,0.92184 -0.42851,0.42672 -0.73216,2.35654 -0.008,0.0529 0.1293,-0.0718 0.10657,-0.12028 -0.1625,-0.34676 -0.38354,-0.66553 -0.61705,-0.96901 -0.82429,-1.07132 -2.02061,-2.25581 -2.93139,-3.2064 -4.98438,-4.8096 -10.17018,-9.40687 -15.59026,-13.72236 -2.41618,-1.92209 -4.87096,-3.80482 -7.25541,-5.7663 -0.34955,-0.28755 -2.86972,-2.36284 -3.12469,-2.92838 -0.37821,-0.8389 -0.32625,-1.81129 -0.48937,-2.71693 0.59449,-0.47408 1.09207,-1.10581 1.78347,-1.42225 0.63021,-0.28843 2.83903,0.18751 3.2755,0.28421 3.19931,0.70886 6.29153,1.8302 9.37601,2.91468 10.15022,3.83626 20.07075,8.22995 29.73495,13.17065 7.71659,3.89113 15.3471,8.03003 23.36447,11.27327 2.4014,0.75819 1.03053,-0.12923 0.73853,1.19073 -0.10364,0.4685 0.0655,0.95763 0.0818,1.43719 0.005,0.14732 0.0222,-0.30999 -0.048,-0.43961 -0.52175,-0.96372 -1.64173,-2.10806 -2.30725,-2.86245 -5.257,-5.18169 -11.01552,-9.81585 -16.99912,-14.13282 -5.08642,-3.65789 -10.32464,-7.0967 -15.38347,-10.79011 -1.44711,-1.51507 -2.34486,-1.726 -0.8204,-4.42142 0.75405,-1.33325 5.83659,0.48983 6.71142,0.73662 7.8985,2.63688 15.57495,5.88033 23.02667,9.59884 9.12469,4.62009 18.05604,9.59086 26.88607,14.75155 2.88016,1.61458 5.74495,3.29838 8.74468,4.68776 0.55289,0.25607 1.12543,0.46742 1.6873,0.70317 0.22297,0.0935 0.71872,0.0485 0.66719,0.28474 -0.10797,0.49498 -0.65485,0.77319 -0.98228,1.1598 0.0598,0.35105 0.12991,0.70054 0.17953,1.05318 0.0232,0.16494 -0.0258,-0.34047 -0.10022,-0.48946 -0.19808,-0.39679 -0.44711,-0.76771 -0.70685,-1.1272 -1.46319,-2.02511 -3.26678,-3.77513 -4.97896,-5.58163 -5.20373,-5.14829 -10.60568,-10.08463 -16.11559,-14.90349 -2.21398,-1.97054 -4.48923,-3.91081 -6.53172,-6.06435 -0.65643,-0.69212 -2.27744,-2.43875 -2.52796,-3.46701 -0.19068,-0.78267 0.0205,-1.611 0.0307,-2.41651 0.51495,-0.46088 0.93538,-1.05689 1.54486,-1.38266 0.87684,-0.46868 2.57852,-0.25069 3.43914,-0.11099 2.95339,0.47941 5.77205,1.55672 8.56627,2.57974 9.38648,3.83243 18.41692,8.44126 27.2036,13.49761 8.17364,4.64619 16.23055,9.54352 24.7129,13.61329 0.80949,0.33219 1.60939,0.68881 2.42848,0.99659 0.53704,0.20179 1.10164,0.32514 1.63711,0.53107 0.14991,0.0577 0.42679,0.0961 0.40845,0.25561 -0.0559,0.48639 -0.51953,0.8599 -0.59228,1.34404 -0.0292,0.19416 0.28573,0.69136 0.31558,0.49732 0.0403,-0.26181 -0.18503,-0.49642 -0.27754,-0.74461 -3.67928,-4.83387 -8.79452,-8.32242 -13.40432,-12.19398 -5.33439,-4.21633 -10.82115,-8.29468 -15.66848,-13.07911 -0.59221,-0.67707 -2.04738,-2.15991 -2.30721,-3.12779 -0.89762,-3.34374 1.57509,-4.19672 4.20415,-3.67938 4.77604,1.2834 9.18213,3.58748 13.57312,5.81688 4.95348,2.56983 9.86918,5.21989 14.91259,7.61043 0.51615,0.20773 1.02778,0.42705 1.54844,0.62318 0.37113,0.1398 1.25186,0.16902 1.06952,0.5212 -0.20034,0.38693 -0.59238,0.67272 -0.72471,1.08786 -0.0332,0.10419 0.29939,1.30034 0.13173,0.30044 -1.67465,-3.32657 -4.53195,-5.86324 -7.07349,-8.51613 -2.7602,-2.74214 -5.62772,-5.38785 -8.21401,-8.29763 -1.07412,-1.68207 -1.54785,-1.6904 0.9655,-4.0099 0.5942,-0.54838 3.49056,1.72867 3.90466,2.01639 3.33616,2.46499 6.67606,4.9259 10.07361,7.30604 1.47842,1.01917 1.72741,1.21496 3.19356,2.13804 0.41065,0.25855 0.82398,0.51312 1.24379,0.7565 0.28367,0.16446 0.58386,0.29951 0.86597,0.46662 0.0683,0.0405 0.24049,0.10054 0.18178,0.15402 -0.29445,0.26827 -0.68336,0.40951 -1.02504,0.61426 -0.10219,0.34783 -0.22751,0.68968 -0.30657,1.04349 -0.006,0.0287 0.0832,-0.005 0.0811,-0.0346 -0.0147,-0.20771 -0.0729,-0.41053 -0.1267,-0.61169 -0.31982,-1.19673 -0.79634,-2.34623 -1.24918,-3.49612 -1.0355,-2.75607 -2.0831,-5.53166 -2.55974,-8.45062 0,0 3.62451,-0.52784 3.62451,-0.52784 z"
       inkscape:connector-curvature="0" />
    <path
       style="opacity:1;fill:#000000;fill-opacity:1;stroke:none;stroke-width:0.2;stroke-linejoin:miter;stroke-miterlimit:4;stroke-dasharray:none;stroke-opacity:1"
       id="path6634"
       d="m 139.83957,249.92383 c 0.0626,3.67892 0.19761,7.35668 0.30025,11.03487 0.20386,4.46146 -0.27897,8.99277 -1.89288,13.17606 -0.18753,0.30146 -0.37506,0.60292 -0.56259,0.90438 0,0 -0.10979,-0.021 -0.10979,-0.021 v 0 c -0.0689,-0.31853 -0.13787,-0.63707 -0.20681,-0.9556 -0.9635,-4.25282 -1.95941,-8.5299 -2.03874,-12.91087 -0.19824,-3.7913 -0.43173,-7.58629 -0.36441,-11.3847 0,0 4.87497,0.15687 4.87497,0.15687 z"
       inkscape:connector-curvature="0" />
    <path
       style="opacity:1;fill:#000000;fill-opacity:1;stroke:none;stroke-width:0.2;stroke-linejoin:miter;stroke-miterlimit:4;stroke-dasharray:none;stroke-opacity:1"
       id="path6636"
       d="m 128.92196,252.57336 c 0.37161,-3.75757 2.36065,-5.89397 5.30281,-8.01288 2.72366,-1.53233 5.91939,-2.45387 9.02574,-1.56002 0.57309,0.1649 1.10255,0.45484 1.65383,0.68227 2.54496,1.55833 4.07882,4.12241 3.88283,7.15685 -0.0358,0.55475 -0.185,1.09631 -0.2775,1.64446 -0.88517,2.93395 -3.01407,4.89116 -5.57144,6.4003 -2.75974,1.34032 -2.95693,1.77408 -3.96259,-3.58345 -0.0346,-0.18444 1.65881,-0.64936 1.77846,-0.68525 2.82978,-0.6715 4.81033,-0.40303 7.42035,0.85701 2.41689,1.64404 3.87231,4.20163 4.02749,7.13705 0.0323,0.61189 -0.0423,1.22477 -0.0635,1.83715 -0.52927,3.26955 -2.40822,5.99713 -5.29328,7.64974 -0.55382,0.31725 -1.15701,0.53925 -1.73552,0.80887 -2.8577,0.99258 -5.71466,0.88783 -8.02314,-1.30088 -0.32241,-0.30569 -0.55262,-0.69585 -0.82894,-1.04377 -0.13199,-0.37074 -0.26398,-0.74148 -0.39597,-1.11222 0,0 0.0837,-0.074 0.0837,-0.074 v 0 c 0.2918,0.10856 0.58361,0.21712 0.87542,0.32568 2.34049,0.27527 3.9962,-0.60915 6.19079,-1.27268 1.92946,-0.91203 3.59713,-2.0979 4.10974,-4.2943 0.18953,-1.5985 -0.0128,-3.18499 -1.27458,-4.31668 -1.14187,-0.77815 -2.42997,-0.8607 -3.75989,-0.52318 -1.32322,0.3345 -1.07722,-1.45827 -2.48395,-4.23727 -0.0105,-0.0207 0.0464,0.0146 0.069,0.009 0.12993,-0.0299 0.25812,-0.0683 0.38352,-0.1136 0.18822,-0.068 0.37085,-0.15056 0.55628,-0.22585 1.43112,-0.73303 2.73244,-1.67992 3.3909,-3.20234 0.4571,-1.43353 0.31933,-2.80863 -0.91553,-3.81067 -2.07994,-1.1199 -4.31349,-0.67027 -6.31999,0.45531 -1.6161,1.10153 -3.11893,2.4026 -3.34923,4.46734 0,0 -4.49585,-0.0624 -4.49585,-0.0624 z"
       inkscape:connector-curvature="0" />
    <path
       style="opacity:1;fill:#000000;fill-opacity:1;stroke:none;stroke-width:0.2;stroke-linejoin:miter;stroke-miterlimit:4;stroke-dasharray:none;stroke-opacity:1"
       id="path6638"
       d="m 165.66182,251.2697 c -2.30732,0.0964 -4.1553,1.36825 -5.78849,2.88494 -2.02482,2.38286 -2.4966,4.37866 -1.60924,7.35283 1.18103,2.73786 3.5344,4.11594 6.25395,4.9892 2.19926,1.21589 4.4849,1.14705 6.88549,0.82508 0,0 0.0587,0.0951 0.0587,0.0951 v 0 c -0.3294,0.4302 -0.59962,0.91299 -0.9882,1.29059 -1.92865,1.87413 -4.7019,2.42887 -7.27926,2.52315 -0.71733,-0.18193 -1.45432,-0.29898 -2.152,-0.5458 -3.74197,-1.32381 -6.46852,-4.26178 -7.83095,-7.93648 -0.16358,-0.75359 -0.40358,-1.49458 -0.49075,-2.26077 -0.43965,-3.86406 1.19109,-7.40889 3.84589,-10.12492 2.97868,-2.49022 5.58157,-3.98215 9.57279,-3.83057 0,0 -0.47797,4.73764 -0.47797,4.73764 z"
       inkscape:connector-curvature="0" />
    <path
       style="opacity:1;fill:#000000;fill-opacity:1;stroke:none;stroke-width:0.2;stroke-linejoin:miter;stroke-miterlimit:4;stroke-dasharray:none;stroke-opacity:1"
       id="path6640"
       d="m 183.92211,251.92399 c -2.29991,1.36182 -4.02953,3.33129 -5.18099,5.72071 -0.88113,2.4192 0.16597,4.24944 1.80494,5.98963 1.05275,1.09915 2.47116,1.60739 3.75242,2.34446 0.44061,0.25347 0.83233,0.58557 1.26959,0.84479 1.11953,0.66371 1.41031,0.72313 2.59805,1.1867 1.64427,0.45957 0.82945,0.21469 2.44463,0.73403 0,0 0.0236,0.10927 0.0236,0.10927 v 0 c -1.52257,1.21741 -0.66965,0.71365 -2.58283,1.46975 -5.08702,1.02537 -7.49123,0.25108 -11.39442,-3.22853 -0.48347,-0.56181 -1.02064,-1.08155 -1.45042,-1.68543 -2.19319,-3.08163 -2.45599,-6.71915 -0.99755,-10.16226 0.33158,-0.59149 0.62381,-1.20684 0.99474,-1.77449 1.6078,-2.46049 3.91777,-4.40462 6.43001,-5.88509 0,0 2.28828,4.33646 2.28828,4.33646 z"
       inkscape:connector-curvature="0" />
    <path
       style="opacity:1;fill:#0000ff;fill-opacity:1;stroke:none;stroke-width:0.2;stroke-linejoin:miter;stroke-miterlimit:4;stroke-dasharray:none;stroke-opacity:1"
       id="path6663"
       d="m 268.56605,246.05203 c 1.14771,4.65251 2.59831,9.22441 4.03355,13.79435 1.80702,5.62518 3.57941,11.26293 5.55638,16.83135 0.16348,0.41841 0.59521,1.65762 0.93236,2.16689 0.0791,0.11956 -0.008,-0.40566 -0.15089,-0.40281 -1.30799,0.0259 -2.589,0.40445 -3.89488,0.48332 -0.16248,0.01 -0.13991,-0.87569 -0.18203,-1.7208 -0.50803,-6.29771 -1.55898,-12.53207 -2.6865,-18.74315 -0.98594,-5.40026 -2.31113,-10.72871 -3.79068,-16.01229 -0.73695,-2.59907 -0.85831,-3.01875 4.25807,-2.61022 0.47228,0.0377 0.4137,0.85252 0.62113,1.27849 0.53107,1.09052 1.50575,3.08505 1.99406,4.08485 3.40585,6.88918 7.27676,13.5317 11.3356,20.05265 0.66159,1.00656 1.30741,2.02365 1.98474,3.01968 0.96592,1.42034 2.23923,3.22176 3.38392,4.54993 0.27434,0.31833 1.36308,1.6195 2.07023,1.77758 0.13565,0.0303 -0.15605,-0.23012 -0.23405,-0.34519 -0.44304,0.0144 -0.89408,0.12823 -1.32911,0.0432 -0.3316,-0.0648 -0.0472,-1.07095 -0.005,-1.90915 0.1493,-2.94201 -0.10268,-5.85171 -0.34536,-8.78067 -0.5783,-6.30956 -1.76419,-12.53701 -3.04422,-18.73488 -0.82367,-3.40575 -0.75761,-6.93904 4.46485,-3.84295 0.54938,0.32571 0.61248,1.12138 0.89484,1.69426 0.36328,0.73698 0.69427,1.48942 1.0414,2.23413 3.20371,7.22617 6.39064,14.45765 9.79628,21.5915 1.9699,3.55769 3.47477,7.54926 6.19488,10.64683 0.87579,0.99732 0.6074,1.02267 1.22592,0.74427 0.57245,-1.07473 -1.43259,0.0518 -1.49622,-0.46675 -0.0534,-0.43556 0.19769,-0.85598 0.26297,-1.28992 0.11215,-0.74557 0.20814,-1.49434 0.26889,-2.24585 0.20595,-2.54697 0.14685,-3.63673 0.14404,-6.2599 -0.10808,-6.40485 -0.99621,-12.75281 -1.60261,-19.11921 -0.0906,-1.99525 -0.39539,-4.82517 2.91148,-4.89472 2.29645,-0.0483 4.04537,4.65382 4.76102,6.18073 3.05797,6.94039 5.69648,14.05519 8.42843,21.1276 1.24026,2.47546 1.74937,5.49982 3.51089,7.71092 0.16121,0.20235 -0.17627,-0.63011 -0.43468,-0.64304 -0.99391,-0.0498 -1.96512,0.31578 -2.9477,0.47365 -0.0337,-5.63189 -0.49477,-11.26429 -0.9633,-16.87944 -0.36163,-6.37753 -1.56765,-12.72417 -1.50701,-19.12275 0.12716,-0.47163 -0.054,-1.19366 0.38148,-1.41487 1.19451,-0.60676 2.63795,-1.08631 3.94261,-0.78156 0.79703,0.18617 0.99906,1.30551 1.38665,2.02638 0.37695,0.70111 0.61455,1.46907 0.89358,2.21459 0.57973,1.54881 1.54763,4.4886 2.04946,5.98658 2.12786,6.44827 3.99963,12.97804 6.22477,19.39409 0.22987,0.57122 0.73856,2.01482 1.19002,2.65094 0.0383,0.054 0.0868,-0.18111 0.0225,-0.19723 -0.91887,-0.23093 -1.8506,-0.48774 -2.79794,-0.50027 -0.25908,-0.003 -0.45437,0.64516 -0.63029,0.45493 -0.23141,-0.25025 0.074,-0.67767 0.11096,-1.0165 0.31869,-3.73978 0.37889,-7.49394 0.83722,-11.22199 0.32097,-1.97702 0.85101,-4.71791 3.65361,-4.49427 1.69074,0.13492 2.19318,1.48731 2.87745,2.63257 1.98183,4.86687 3.02744,10.05961 4.15144,15.17554 1.19108,4.78111 1.60314,9.73186 2.78506,14.51108 -0.0706,-1.81676 0.13287,0.86101 -4.33014,-0.19746 -0.36034,-0.0855 0.0515,-0.73901 0.0654,-1.10908 0.10919,-2.90065 0.0787,-5.80363 0.0672,-8.7055 -0.0177,-8.12855 -0.39653,-16.25 -1.15697,-24.3419 -0.41135,-3.42439 -0.79975,-6.8969 -1.89592,-10.18369 1.26164,0.64809 0.69421,0.60382 2.43083,0.007 0.11904,-0.0409 -0.27644,-0.0484 -0.37658,0.0279 -0.59158,0.45032 -0.7888,1.12368 -1.08291,1.76427 0,0 -0.11089,-0.0142 -0.11089,-0.0142 v 0 c -0.0793,-0.48058 -0.73787,-3.16671 -0.42651,-3.49927 1.57213,-1.67906 2.0098,-0.9871 3.42606,-0.26107 1.99075,3.506 1.69783,7.92312 2.35138,11.7787 0.67535,8.20701 1.01743,16.43318 1.19605,24.66561 0.0649,2.97378 0.16801,5.95278 0.16023,8.92776 -0.003,0.5721 0.44408,1.40607 -0.0369,1.7159 -4.30115,2.77095 -4.10356,2.38286 -4.80846,0.32078 -0.74949,-4.83516 -1.43616,-9.68288 -2.51894,-14.45931 -1.05558,-4.688 -2.11452,-9.42607 -3.97772,-13.87177 -0.054,-0.13824 -0.30901,-0.39508 -0.16193,-0.41471 0.38815,-0.0518 0.75798,0.37063 1.13991,0.28416 0.58848,-0.13323 1.08849,-0.53665 1.5717,-0.89804 0.0857,-0.0641 0.12505,-0.39562 0.0526,-0.3168 -0.23448,0.25517 -0.42445,1.43497 -0.44691,1.53675 -0.48416,3.7145 -0.57388,7.45755 -0.79049,11.19405 -0.12044,0.96279 -0.22315,3.33383 -1.29911,3.83626 -3.90588,1.82387 -4.64531,-1.88443 -5.51653,-4.35218 -2.07868,-6.45046 -3.95386,-12.96606 -6.15395,-19.37761 -0.84299,-2.38786 -1.1643,-3.39753 -2.08547,-5.66049 -1.24606,-3.06116 -1.16517,-1.52075 2.39191,-3.42986 0.0684,-0.0367 -0.0791,-0.13358 -0.11869,-0.20037 -0.17754,2.2236 -0.008,4.40831 0.15407,6.63274 0.28969,3.98129 0.67794,7.95419 1.03325,11.9299 0.35078,3.90785 0.73236,7.81483 0.99753,11.72978 0.0627,0.92559 0.28236,4.30913 0.21294,5.41122 -0.0473,0.75031 -0.2218,1.48717 -0.33272,2.23076 -1.17361,0.53956 -2.23586,1.48741 -3.52089,1.61869 -0.57891,0.0591 -0.95906,-0.68003 -1.3371,-1.12244 -0.31855,-0.3728 -0.50575,-0.84188 -0.71879,-1.28352 -1.13837,-2.36006 -1.88952,-4.89098 -2.88909,-7.30721 -2.62287,-6.96974 -5.21129,-13.96642 -8.36824,-20.71686 -0.37232,-0.72821 -0.72959,-1.46429 -1.11691,-2.18463 -0.23159,-0.43072 -0.86921,-0.79589 -0.73914,-1.26731 0.0955,-0.34594 0.76806,0.23323 1.0755,0.0481 0.74573,-0.4489 1.23952,-1.22244 1.87074,-1.82174 0.0634,-0.0602 -0.11065,0.13547 -0.166,0.20321 -0.008,0.46404 -0.0161,0.92808 -0.0241,1.39212 0.43302,6.48651 1.34125,12.939 1.50929,19.44451 0.0564,3.19278 0.23564,6.48796 -0.34115,9.6523 -0.29163,1.59991 -0.78132,3.71612 -2.37882,4.64447 -0.7865,0.45706 -1.7994,0.26842 -2.69912,0.40261 -0.58478,-0.31509 -1.22809,-0.53996 -1.75437,-0.9453 -1.05212,-0.81034 -2.18268,-2.52166 -2.84816,-3.57746 -1.889,-2.99685 -3.41408,-6.20614 -4.96377,-9.38439 -3.37585,-7.13142 -6.59601,-14.33462 -9.97807,-21.46288 -0.34089,-0.67224 -0.67202,-1.34953 -1.02272,-2.01671 -0.1931,-0.36734 -0.97542,-0.89262 -0.60836,-1.08625 0.86241,-0.45494 2.07558,0.34965 2.92208,-0.13428 1.33091,-0.76088 0.51951,-3.07018 0.69864,-1.26947 0.0516,0.51921 0.14726,1.03308 0.22092,1.54962 1.14687,6.37938 2.32831,12.75803 3.00308,19.20977 0.29593,3.19444 0.69037,6.43945 0.53237,9.65566 -0.0628,1.27756 -0.25993,3.82705 -1.26664,4.84934 -0.67972,0.69025 -1.73578,0.86072 -2.60369,1.29106 -0.6608,-0.186 -1.36848,-0.25077 -1.98236,-0.558 -0.95319,-0.47705 -2.32053,-2.07754 -2.92415,-2.82095 -2.04946,-2.52413 -3.75195,-5.30946 -5.51619,-8.03168 -4.09565,-6.65043 -8.01119,-13.41023 -11.61476,-20.3418 -0.40561,-0.7753 -0.81124,-1.55059 -1.21685,-2.32589 -0.28736,-0.56509 -0.56888,-1.13319 -0.86212,-1.69526 -0.15258,-0.29244 -0.74562,-0.67914 -0.47519,-0.86799 1.21402,-0.84777 2.78315,-1.02616 4.1148,-1.67364 0.0887,-0.0431 -0.10969,-0.37691 -0.0993,-0.27881 0.0316,0.29722 0.10893,0.58779 0.16341,0.88168 1.29577,5.43662 2.56553,10.88017 3.61307,16.37138 1.20107,6.36191 2.33225,12.74426 3.07668,19.1781 0.0217,0.2245 0.41915,3.36606 0.074,3.61117 -4.4549,3.16412 -4.70035,0.65791 -5.72942,-2.33648 -1.79517,-5.65437 -3.57259,-11.31445 -5.41716,-16.95305 -1.51275,-4.69807 -3.09039,-9.38727 -4.24789,-14.18876 0,0 4.39177,-0.93418 4.39177,-0.93418 z"
       inkscape:connector-curvature="0" />
    <path
       style="opacity:1;fill:#000000;fill-opacity:1;stroke:none;stroke-width:0.2;stroke-linejoin:miter;stroke-miterlimit:4;stroke-dasharray:none;stroke-opacity:1"
       id="path6665"
       d="m 295.25399,248.6335 c -2.44089,-0.33737 -4.89088,-0.12278 -7.31213,0.24309 -1.84267,0.37886 -3.78603,0.83255 -5.16575,2.18949 -0.62937,0.995 -0.24919,2.30393 -0.071,3.38373 0.68376,3.12554 1.7232,6.15436 2.44372,9.27088 0.13012,2.08132 0.2323,4.23214 -0.48734,6.2177 0,0 -0.10861,0.0265 -0.10861,0.0265 v 0 c -1.51871,-1.36961 -2.56701,-3.16692 -3.64001,-4.88937 -1.31201,-3.16949 -2.47049,-6.42044 -3.27789,-9.75709 -0.5275,-3.00523 -0.51827,-5.92262 1.85409,-8.1738 2.2701,-1.77622 4.92429,-2.7188 7.77386,-3.12956 2.86996,-0.37308 5.76445,-0.52321 8.64663,-0.16092 0,0 -0.65558,4.77937 -0.65558,4.77937 z"
       inkscape:connector-curvature="0" />
    <path
       style="opacity:1;fill:#000000;fill-opacity:1;stroke:none;stroke-width:0.2;stroke-linejoin:miter;stroke-miterlimit:4;stroke-dasharray:none;stroke-opacity:1"
       id="path6667"
       d="m 294.64621,259.24561 c -2.57566,0.0259 -5.1059,-0.0152 -7.63754,-0.51795 -1.78644,-0.26281 -3.53531,-0.7379 -5.34315,-0.76248 0,0 -0.0175,-0.11043 -0.0175,-0.11043 v 0 c 1.75384,-0.58953 3.34356,-1.56382 5.12151,-2.10967 2.71724,-0.96676 5.25973,-1.22958 8.13273,-1.06301 0,0 -0.25619,4.56354 -0.25619,4.56354 z"
       inkscape:connector-curvature="0" />
    <path
       style="opacity:1;fill:#000000;fill-opacity:1;stroke:none;stroke-width:0.2;stroke-linejoin:miter;stroke-miterlimit:4;stroke-dasharray:none;stroke-opacity:1"
       id="path6669"
       d="m 310.69481,251.81349 c -2.31487,-0.35008 -4.4858,0.42998 -6.50828,1.4765 -2.07306,1.26378 -3.4327,3.04888 -3.64598,5.47937 0.18021,2.23682 1.85658,3.48639 3.65233,4.53929 0.41757,0.18695 0.84675,0.34981 1.25265,0.56086 0.44227,0.22996 0.84272,0.53577 1.28788,0.76011 1.84619,0.93038 3.82096,1.29727 5.84769,1.56696 0,0 0.0225,0.10949 0.0225,0.10949 v 0 c -2.13138,1.2044 -4.29903,1.92189 -6.77505,1.99707 -0.6975,0.0212 -1.40658,0.0576 -2.09217,-0.0724 -0.67778,-0.12854 -1.29984,-0.46275 -1.94974,-0.69413 -0.59984,-0.33503 -1.23089,-0.61941 -1.79946,-1.0051 -2.8938,-1.96302 -4.52916,-4.98019 -4.41722,-8.48002 0.10872,-0.63153 0.15444,-1.27721 0.32613,-1.8946 0.89821,-3.22978 3.35518,-5.61383 6.1863,-7.23115 3.08393,-1.41274 6.33037,-2.28994 9.72828,-1.53652 0,0 -1.11591,4.4243 -1.11591,4.4243 z"
       inkscape:connector-curvature="0" />
    <path
       style="opacity:1;fill:#000000;fill-opacity:1;stroke:none;stroke-width:0.2;stroke-linejoin:miter;stroke-miterlimit:4;stroke-dasharray:none;stroke-opacity:1"
       id="path6671"
       d="m 327.49532,251.4666 c -2.17628,0.15877 -4.04387,1.25675 -5.68767,2.61267 -1.39409,1.34299 -2.29002,2.94716 -1.4809,4.81712 1.00259,1.65281 2.67198,2.02838 4.29636,2.77499 0.4509,0.20724 0.86953,0.47851 1.30429,0.71777 1.79559,0.8624 3.70774,1.43322 5.58035,2.09753 0,0 0.003,0.11173 0.003,0.11173 v 0 c -2.04867,0.84333 -4.16351,1.44068 -6.39479,1.53691 -0.66339,0.002 -1.33438,0.10451 -1.9902,0.005 -0.65423,-0.0998 -1.27987,-0.34917 -1.89365,-0.5967 -2.51624,-1.01479 -4.50249,-2.73674 -5.62253,-5.22688 -0.15912,-0.61998 -0.39735,-1.22488 -0.4773,-1.85993 -0.41093,-3.26293 1.41205,-6.10045 3.72118,-8.1997 2.62498,-1.93964 5.50978,-3.42911 8.86221,-3.37739 0,0 -0.22074,4.58736 -0.22074,4.58736 z"
       inkscape:connector-curvature="0" />
  </g>
</svg>
