<?xml version="1.0" encoding="UTF-8" standalone="no"?>
<!-- Created with Inkscape (http://www.inkscape.org/) -->

<svg
   xmlns:dc="http://purl.org/dc/elements/1.1/"
   xmlns:cc="http://creativecommons.org/ns#"
   xmlns:rdf="http://www.w3.org/1999/02/22-rdf-syntax-ns#"
   xmlns:svg="http://www.w3.org/2000/svg"
   xmlns="http://www.w3.org/2000/svg"
   xmlns:sodipodi="http://sodipodi.sourceforge.net/DTD/sodipodi-0.dtd"
   xmlns:inkscape="http://www.inkscape.org/namespaces/inkscape"
   width="1920"
   height="1080"
   viewBox="0 0 507.99999 285.75001"
   version="1.1"
   id="svg8"
   inkscape:version="0.92.2 2405546, 2018-03-11"
   sodipodi:docname="chemicals-2.svg">
  <defs
     id="defs2" />
  <sodipodi:namedview
     id="base"
     pagecolor="#ffffff"
     bordercolor="#666666"
     borderopacity="1.0"
     inkscape:pageopacity="0.0"
     inkscape:pageshadow="2"
     inkscape:zoom="0.37871094"
     inkscape:cx="943.27248"
     inkscape:cy="622.44636"
     inkscape:document-units="mm"
     inkscape:current-layer="layer1"
     showgrid="false"
     units="px"
     inkscape:window-width="1348"
     inkscape:window-height="730"
     inkscape:window-x="5"
     inkscape:window-y="25"
     inkscape:window-maximized="0" />
  <metadata
     id="metadata5">
    <rdf:RDF>
      <cc:Work
         rdf:about="">
        <dc:format>image/svg+xml</dc:format>
        <dc:type
           rdf:resource="http://purl.org/dc/dcmitype/StillImage" />
        <dc:title />
      </cc:Work>
    </rdf:RDF>
  </metadata>
  <g
     inkscape:label="Layer 1"
     inkscape:groupmode="layer"
     id="layer1"
     transform="translate(0,-11.249983)">
    <path
       style="fill:#000000;fill-opacity:1;stroke:none;stroke-width:0.2;stroke-linejoin:miter;stroke-miterlimit:4;stroke-dasharray:none;stroke-opacity:1"
       id="path3862"
       d="m 160.76989,60.506734 c 0.23623,4.331015 -0.24662,8.657325 -0.71967,12.955688 -1.06832,8.131955 -1.99938,16.276505 -2.64963,24.452796 -0.73093,9.751592 -0.5129,19.526292 0.19183,29.268742 0.71486,9.26708 2.26743,18.435 4.28107,27.5001 1.35759,6.119 3.16434,12.13086 5.79046,17.82663 1.21296,2.54535 2.80288,4.74736 5.31967,6.06844 3.06401,1.18472 6.39541,1.45748 9.63222,1.84249 7.3812,0.79071 14.75736,1.62188 22.12522,2.52865 11.72307,1.49791 23.42159,3.17695 35.14065,4.70511 13.27937,1.77063 26.62649,2.9244 39.99657,3.71675 11.11092,0.60275 22.23926,0.77197 33.36436,0.67312 7.28572,-0.0981 14.56727,-0.38985 21.83437,-0.91741 3.46697,-0.34842 7.06951,-0.43316 10.36396,-1.67953 1.5584,-0.74083 1.65397,-2.36635 1.89357,-3.9073 0.49348,-5.19687 0.64987,-10.42097 0.95904,-15.63171 0.489,-8.29701 1.42999,-16.55473 2.57532,-24.78373 1.24682,-8.58649 2.71031,-17.1373 3.89652,-25.73279 1.0165,-7.68065 1.40896,-15.42139 1.56112,-23.161415 0.0679,-5.406903 -0.11216,-10.814944 -0.53697,-16.204967 -0.25773,-2.329833 -0.33351,-4.745963 -1.27053,-6.927678 -0.51313,-0.947705 -1.4873,-1.072769 -2.46433,-1.249934 -3.24027,-0.293989 -6.50724,-0.06131 -9.75402,0.02037 -7.59204,0.139994 -15.18547,0.04071 -22.7769,-0.08285 -11.38748,-0.178972 -22.77464,-0.373272 -34.15998,-0.657974 -13.94447,-0.328663 -27.86412,-1.221385 -41.76668,-2.313686 -14.81287,-1.256099 -29.6012,-2.78139 -44.39677,-4.223096 -12.17252,-1.205476 -24.3761,-2.028627 -36.5845,-2.761901 -5.80253,-0.634198 -11.60726,-1.408287 -17.45139,-1.449462 0,0 -0.0138,-0.110934 -0.0138,-0.110934 v 0 c 5.77378,-1.481278 11.69084,-1.992072 17.64658,-2.082446 12.28343,0.487022 24.52891,1.568707 36.7562,2.823049 14.76993,1.473301 29.52732,3.082266 44.31784,4.340556 13.8392,1.103667 27.6963,1.998286 41.5787,2.321245 11.37091,0.283003 22.74368,0.47612 34.11714,0.62544 7.53703,0.06471 15.07847,0.151784 22.61172,-0.160271 3.52837,-0.141605 7.0835,-0.461293 10.60712,-0.126693 2.33407,0.458152 4.34599,1.331677 5.37326,3.634036 0.98888,2.593523 1.23854,5.3569 1.43563,8.110075 0.35481,5.509265 0.5796,11.026663 0.47527,16.549052 -0.14811,7.885784 -0.5321,15.771854 -1.60007,23.593994 -1.1557,8.60006 -2.68007,17.1423 -3.95401,25.725 -1.08283,8.13066 -2.04399,16.2835 -2.38564,24.4848 -0.23408,5.35493 -0.29821,10.71928 -0.68522,16.06569 -0.5102,3.34892 -1.24772,5.82657 -4.58586,7.28618 -3.71171,1.24923 -7.62231,1.50788 -11.50819,1.7845 -7.35414,0.4469 -14.71993,0.70125 -22.08786,0.74485 -11.21003,0.0184 -22.42064,-0.17987 -33.61365,-0.84144 -13.45306,-0.83187 -26.88611,-1.961 -40.25336,-3.72141 -11.71029,-1.48833 -23.40477,-3.10023 -35.12497,-4.50949 -7.36824,-0.83845 -14.74486,-1.59226 -22.12888,-2.27828 -3.80707,-0.40282 -7.73189,-0.65497 -11.26806,-2.24875 -3.55776,-2.03491 -5.31257,-4.45099 -7.05677,-8.14515 -2.64907,-6.00565 -4.46394,-12.31331 -5.83384,-18.72902 -1.9032,-9.27441 -3.48146,-18.62012 -4.12903,-28.07764 -0.6276,-9.92526 -0.91409,-19.8775 -0.0941,-29.804755 0.62352,-8.214662 1.54101,-16.395904 2.56001,-24.570518 0.42712,-4.080116 0.9016,-8.182994 0.68508,-12.292288 0,0 3.76411,-0.262847 3.76411,-0.262847 z"
       inkscape:connector-curvature="0" />
    <path
       style="fill:#000000;fill-opacity:1;stroke:none;stroke-width:0.2;stroke-linejoin:miter;stroke-miterlimit:4;stroke-dasharray:none;stroke-opacity:1"
       id="path3880"
       d="m 192.87025,109.83923 c -2.68594,-0.0873 -4.94665,1.07189 -7.11463,2.52735 -3.21174,2.41673 -5.21932,5.78497 -6.58794,9.49421 -0.84612,3.15799 -1.03164,5.67345 0.9058,8.41569 1.91769,1.8413 4.80748,2.93255 7.35334,3.5395 2.33463,0.27384 1.16117,0.19547 3.52046,0.23376 0,0 0.0279,0.10826 0.0279,0.10826 v 0 c -2.22821,1.22891 -1.06491,0.68028 -3.49539,1.63419 -4.98479,1.23017 -7.75021,1.07442 -11.391,-2.91055 -0.37112,-0.59262 -0.80505,-1.15027 -1.11338,-1.77786 -1.69246,-3.445 -1.30384,-7.36327 -0.22254,-10.91436 0.29509,-0.764 0.54804,-1.54564 0.88529,-2.29199 1.6997,-3.76159 4.35979,-6.96849 7.72502,-9.34976 3.23338,-1.91993 6.26752,-3.21278 10.09973,-2.54309 0,0 -0.59263,3.83465 -0.59263,3.83465 z"
       inkscape:connector-curvature="0" />
    <path
       style="fill:#000000;fill-opacity:1;stroke:none;stroke-width:0.2;stroke-linejoin:miter;stroke-miterlimit:4;stroke-dasharray:none;stroke-opacity:1"
       id="path3882"
       d="m 199.80826,112.42451 c -0.3495,3.29481 -0.61808,6.59689 -0.84565,9.9022 -0.20097,2.05021 -0.13953,4.14302 -0.51552,6.17625 -0.28876,1.56155 -0.85909,3.09501 -1.38623,4.58814 -0.48895,1.11934 -0.32853,0.60342 -0.54979,1.52477 0,0 -0.11142,0.009 -0.11142,0.009 v 0 c -0.36745,-0.92513 -0.15389,-0.40136 -0.6497,-1.56759 -0.44695,-1.53376 -0.91579,-3.11885 -1.07908,-4.7143 -0.21322,-2.0834 0.0482,-4.19144 0.0751,-6.27491 0.18432,-3.41142 0.39665,-6.82951 0.95314,-10.20432 0,0 4.10912,0.56076 4.10912,0.56076 z"
       inkscape:connector-curvature="0" />
    <path
       style="fill:#000000;fill-opacity:1;stroke:none;stroke-width:0.2;stroke-linejoin:miter;stroke-miterlimit:4;stroke-dasharray:none;stroke-opacity:1"
       id="path3884"
       d="m 205.89476,122.92375 c -1.33228,0.26421 -2.64826,0.72036 -4.00093,0.87939 -1.54944,0.18217 -3.15683,0.0131 -4.70809,-0.0574 -1.6863,-0.14569 -0.87725,-0.0618 -2.42779,-0.24533 0,0 -0.0255,-0.10884 -0.0255,-0.10884 v 0 c 1.30307,-0.85208 0.61866,-0.41375 2.05551,-1.3114 1.34808,-0.7625 2.6991,-1.63806 4.15485,-2.18577 1.25614,-0.47261 2.61456,-0.67274 3.89071,-1.08287 0,0 1.06121,4.11223 1.06121,4.11223 z"
       inkscape:connector-curvature="0" />
    <path
       style="fill:#000000;fill-opacity:1;stroke:none;stroke-width:0.2;stroke-linejoin:miter;stroke-miterlimit:4;stroke-dasharray:none;stroke-opacity:1"
       id="path3886"
       d="m 208.70166,109.03195 c 0.13527,3.41272 -0.18416,6.82178 -0.48501,10.2174 -0.15943,3.75473 -1.33069,7.3165 -2.65085,10.80102 -0.077,0.32273 -0.15399,0.64545 -0.23098,0.96817 0,0 -0.11177,0.002 -0.11177,0.002 v 0 c -0.0882,-0.33075 -0.17649,-0.6615 -0.26474,-0.99226 -1.04926,-3.61918 -1.5888,-7.37013 -1.14944,-11.13537 0.23512,-3.21915 0.48983,-6.44127 0.52921,-9.6701 0,0 4.36358,-0.19078 4.36358,-0.19078 z"
       inkscape:connector-curvature="0" />
    <path
       style="fill:#000000;fill-opacity:1;stroke:none;stroke-width:0.2;stroke-linejoin:miter;stroke-miterlimit:4;stroke-dasharray:none;stroke-opacity:1"
       id="path3888"
       d="m 215.34817,114.72835 c 0.16084,2.62291 -0.25737,5.2275 -0.70965,7.80126 -0.38454,2.2512 -0.87569,4.51048 -0.56292,6.79625 0.2534,1.25309 1.0879,1.7984 2.17803,2.28723 1.61942,0.80163 3.14361,1.92334 4.98429,2.20373 0.35751,0.0545 0.72324,0.008 1.08486,0.0117 0,0 0.0215,0.10969 0.0215,0.10969 v 0 c -2.48642,1.02029 -4.98482,2.45957 -7.76706,1.86658 -3.06085,-1.1561 -4.578,-2.67093 -5.22441,-5.95232 -0.26598,-2.75587 0.13088,-5.46221 0.75331,-8.15247 0.41916,-2.19665 0.89681,-4.4086 0.88016,-6.65588 0,0 4.36185,-0.31579 4.36185,-0.31579 z"
       inkscape:connector-curvature="0" />
    <path
       style="fill:#000000;fill-opacity:1;stroke:none;stroke-width:0.2;stroke-linejoin:miter;stroke-miterlimit:4;stroke-dasharray:none;stroke-opacity:1"
       id="path3890"
       d="m 211.52695,124.46092 c 2.02139,0.0299 4.37143,0.6808 6.37883,0.33593 0.39255,-0.0674 0.75143,-0.26449 1.12714,-0.39673 0,0 0.0443,0.10264 0.0443,0.10264 v 0 c -2.34626,1.2069 -4.31747,3.09474 -6.77584,4.12124 0,0 -0.77441,-4.16308 -0.77441,-4.16308 z"
       inkscape:connector-curvature="0" />
    <path
       style="fill:#000000;fill-opacity:1;stroke:none;stroke-width:0.2;stroke-linejoin:miter;stroke-miterlimit:4;stroke-dasharray:none;stroke-opacity:1"
       id="path3892"
       d="m 210.16064,115.54718 c 2.17305,-0.26553 4.28658,-1.06591 6.47429,-1.21898 0.51751,-0.0362 1.03748,0.0115 1.55622,0.0172 1.84047,0.0256 3.67354,0.17062 5.51045,0.0416 0,0 0.032,0.10712 0.032,0.10712 v 0 c -1.62709,0.90922 -3.09953,2.05316 -4.70656,3.00049 -0.46298,0.26629 -0.90402,0.57498 -1.38892,0.79887 -2.03186,0.93811 -4.3341,1.16954 -6.45388,1.83549 0,0 -1.02356,-4.58182 -1.02356,-4.58182 z"
       inkscape:connector-curvature="0" />
    <path
       style="fill:#000000;fill-opacity:1;stroke:none;stroke-width:0.2;stroke-linejoin:miter;stroke-miterlimit:4;stroke-dasharray:none;stroke-opacity:1"
       id="path3894"
       d="m 231.93858,117.32938 c -0.82328,2.83902 -1.44901,5.7245 -1.95557,8.63502 -0.39316,2.57657 -0.67961,5.1825 -0.56663,7.79145 0.0246,0.11769 0.0951,0.47141 0.0738,0.35307 -0.24487,-1.36109 -0.36047,-1.21242 -3.08685,-1.55249 -0.33919,-0.0423 -0.45692,0.58724 -0.79286,0.65032 -0.18391,0.0345 0.11948,-0.35474 0.17322,-0.53397 0.10556,-0.35207 0.20309,-0.70649 0.30464,-1.05973 0.93554,-3.80619 1.78803,-7.63264 2.6583,-11.45425 0.39095,-1.63764 0.74126,-3.28721 1.20743,-4.90607 0.0755,-0.26221 0.47379,-1.62052 0.70291,-1.8876 0.38099,-0.44411 0.88844,-0.76173 1.33265,-1.1426 1.0141,0.40077 2.16481,0.555 3.04229,1.20233 0.3262,0.24063 0.56043,2.13392 0.60983,2.53833 0.16986,1.39032 0.28026,2.79187 0.4189,4.18562 0.3003,2.20836 0.38255,4.53398 1.29899,6.59943 0.0408,0.0311 0.14926,0.13706 0.12247,0.0933 -0.75312,-1.23084 -1.34179,-0.51276 -1.88878,-0.67197 -0.0197,-0.006 0.27701,-0.4081 0.56524,-0.80838 1.41195,-2.23878 2.48728,-4.66828 3.54578,-7.08799 0.35185,-0.71974 1.47789,-4.22568 2.51486,-4.22091 1.06129,0.005 2.02934,0.62226 3.04401,0.93339 0.15904,0.44254 0.36303,0.87141 0.47713,1.32761 0.0856,0.34224 0.16034,1.82402 0.17784,2.13882 0.078,1.40415 0.1378,2.80785 0.22883,4.21134 -0.0463,1.54202 0.40768,3.10057 0.33418,4.64054 -0.0596,1.24866 -0.4367,2.60082 -0.67631,3.83057 -0.25084,1.1214 -0.14602,0.59684 -0.3237,1.57182 0,0 -0.10352,0.0422 -0.10352,0.0422 v 0 c -0.85671,-0.68945 -0.42091,-0.28799 -1.27867,-1.23484 -0.75067,-1.12671 -1.59894,-2.40717 -1.98477,-3.71927 -0.45669,-1.55303 -0.29072,-3.26604 -0.55179,-4.84835 -0.10063,-1.71911 -0.17911,-3.44065 -0.29712,-5.15864 -0.0123,-0.17953 -0.17606,-0.41617 -0.0437,-0.53808 0.10447,-0.0962 0.18022,0.21956 0.27033,0.32934 2.88895,0.55085 2.20216,1.23414 3.42596,-0.19946 0.0478,-0.056 -0.12391,0.0855 -0.16571,0.1461 -0.12123,0.17581 -0.21854,0.36716 -0.31837,0.55593 -0.32524,0.61505 -0.63021,1.28699 -0.9245,1.91352 -1.21584,2.60167 -2.37256,5.23773 -3.77218,7.74771 -0.42713,0.67235 -0.92625,1.59565 -1.59456,2.07944 -1.92416,1.39289 -4.01677,0.7176 -5.03678,-1.31449 -1.00163,-2.51612 -1.2865,-5.21597 -1.57621,-7.89254 -0.10114,-0.95213 -0.18961,-1.90557 -0.29165,-2.8576 -0.0689,-0.6432 -0.25972,-1.27846 -0.24469,-1.92517 0.001,-0.0433 0.0844,0.0196 0.12667,0.0294 0.88801,0.19835 1.77602,0.3967 2.66403,0.59505 0.2925,-0.31657 0.58696,-0.63134 0.87749,-0.94971 0.0559,-0.0613 -0.13634,0.10416 -0.17353,0.17828 -0.12704,0.25316 -0.21983,0.52253 -0.31246,0.7902 -0.52712,1.52311 -0.88381,3.09914 -1.29231,4.65581 -0.92927,3.83121 -1.7211,7.69243 -2.51779,11.55299 -0.19179,0.87181 -0.57526,3.77821 -1.80332,3.94033 -2.99488,0.39536 -3.56372,-0.71527 -3.74088,-2.70584 -0.0862,-2.92483 0.26449,-5.8419 0.70326,-8.72938 0.52972,-3.04999 1.20538,-6.06929 2.09876,-9.0351 0,0 4.31537,1.17523 4.31537,1.17523 z"
       inkscape:connector-curvature="0" />
    <path
       style="fill:#000000;fill-opacity:1;stroke:none;stroke-width:0.2;stroke-linejoin:miter;stroke-miterlimit:4;stroke-dasharray:none;stroke-opacity:1"
       id="path3896"
       d="m 259.82302,115.84353 c 0.12696,2.77597 0.11543,5.55693 0.15674,8.33536 -0.18701,2.43816 0.43187,5.54788 -0.0306,7.92613 -0.0771,0.39631 -0.26092,0.76415 -0.39139,1.14623 -0.24838,0.89858 -0.81308,1.53787 -1.39825,2.21644 0,0 -0.10808,0.0285 -0.10808,0.0285 v 0 c -0.80411,-0.52038 -1.34024,-1.22843 -1.7248,-2.11139 -0.16163,-0.37189 -0.37631,-0.72497 -0.48489,-1.11565 -0.65453,-2.35516 -0.24897,-5.57031 -0.52186,-8.01087 -0.0538,-2.80361 -0.11437,-5.61287 0.0202,-8.41477 0,0 4.483,0 4.483,0 z"
       inkscape:connector-curvature="0" />
    <path
       style="fill:#000000;fill-opacity:1;stroke:none;stroke-width:0.2;stroke-linejoin:miter;stroke-miterlimit:4;stroke-dasharray:none;stroke-opacity:1"
       id="path3898"
       d="m 265.66693,138.77655 c -2.769,0.41971 -5.57549,0.53177 -8.37245,0.55509 -3.00329,0.14466 -5.44662,-0.78786 -7.68895,-2.74703 -0.22483,-0.19423 -0.44966,-0.38845 -0.67449,-0.58267 0,0 0.0501,-0.1 0.0501,-0.1 v 0 c 0.26511,0.0512 0.53022,0.10236 0.79533,0.15354 2.48623,-0.39868 4.82125,-1.46221 7.38372,-1.33586 2.59221,-0.13185 5.19012,-0.22113 7.7684,-0.53934 0,0 0.73837,4.59622 0.73837,4.59622 z"
       inkscape:connector-curvature="0" />
    <path
       style="fill:#000000;fill-opacity:1;stroke:none;stroke-width:0.2;stroke-linejoin:miter;stroke-miterlimit:4;stroke-dasharray:none;stroke-opacity:1"
       id="path3900"
       d="m 265.72266,116.83181 c -3.00555,0.11346 -6.00177,0.3845 -8.99807,0.63581 -2.42915,0.33597 -4.88936,0.0412 -7.1366,-0.94599 -0.13658,-0.018 -0.27317,-0.036 -0.40975,-0.054 0,0 -0.0361,-0.1058 -0.0361,-0.1058 v 0 c 0.11313,-0.10311 0.22626,-0.20621 0.33939,-0.30931 1.77433,-1.88667 4.23528,-2.82844 6.78034,-3.09335 3.12176,-0.3772 6.25721,-0.65162 9.40377,-0.68264 0,0 0.057,4.55525 0.057,4.55525 z"
       inkscape:connector-curvature="0" />
    <path
       style="fill:#000000;fill-opacity:1;stroke:none;stroke-width:0.2;stroke-linejoin:miter;stroke-miterlimit:4;stroke-dasharray:none;stroke-opacity:1"
       id="path3902"
       d="m 279.44709,118.2359 c -2.38953,1.11823 -4.27535,2.8885 -5.86925,4.95323 -1.70302,2.50242 -2.21618,4.90823 -1.60068,7.84728 0.7048,2.44081 2.42697,3.92776 4.6455,4.97279 2.02068,0.98898 4.28268,2.14673 6.60969,2.077 0.46757,-0.014 0.91855,-0.17754 1.37782,-0.2663 0,0 0.0319,0.10712 0.0319,0.10712 v 0 c -4.06413,1.65345 1.6174,-0.71615 -2.76219,1.32147 -2.24468,1.04434 -4.69924,1.55676 -7.1378,0.97582 -0.58769,-0.25351 -1.20058,-0.45514 -1.76305,-0.76051 -2.9591,-1.60653 -4.84276,-4.41504 -5.71194,-7.60901 -0.10096,-0.66512 -0.25569,-1.32429 -0.30287,-1.99538 -0.24558,-3.49306 0.98585,-6.7854 2.98998,-9.59533 2.18575,-2.61902 4.69112,-4.91842 7.95179,-6.11082 0,0 1.54107,4.08264 1.54107,4.08264 z"
       inkscape:connector-curvature="0" />
    <path
       style="fill:#000000;fill-opacity:1;stroke:none;stroke-width:0.2;stroke-linejoin:miter;stroke-miterlimit:4;stroke-dasharray:none;stroke-opacity:1"
       id="path3904"
       d="m 292.89057,118.78426 c -0.60344,3.2247 -1.38851,6.41077 -2.11633,9.60855 -0.63254,2.74788 -1.07471,5.5341 -1.40014,8.33364 -0.38082,-0.87862 0.11464,1.0258 -0.10375,0.84473 -0.18809,-0.15595 -0.16867,-0.54605 -0.40404,-0.61158 -0.8395,-0.23371 -1.7331,-0.21533 -2.60446,-0.22599 -0.12054,-0.002 0.18717,0.23219 0.30271,0.19782 0.24083,-0.0716 0.39579,-0.30963 0.5937,-0.46444 0.85326,-1.06324 0.55968,-0.45159 0.83693,-1.85534 0,0 0.11018,0.019 0.11018,0.019 v 0 c -0.21257,1.44166 -0.24501,0.73443 0.0795,2.12243 0.036,0.14665 0.52086,1.79765 0.19841,1.91889 -2.83916,1.06748 -3.581,-0.25544 -3.50935,-2.37219 0.22966,-3.00878 0.8174,-5.97176 1.47571,-8.91339 0.71247,-3.1342 1.4913,-6.25517 2.10349,-9.41087 0,0 4.43749,0.80876 4.43749,0.80876 z"
       inkscape:connector-curvature="0" />
    <path
       style="fill:#000000;fill-opacity:1;stroke:none;stroke-width:0.2;stroke-linejoin:miter;stroke-miterlimit:4;stroke-dasharray:none;stroke-opacity:1"
       id="path3906"
       d="m 292.95666,114.51113 c 0.9733,2.44487 2.08425,4.82948 3.27858,7.17324 1.40732,2.71003 3.22551,5.17531 4.66016,7.86692 0.75002,1.75771 0.69768,3.67076 1.05252,5.49964 0,0 -0.10039,0.0492 -0.10039,0.0492 v 0 c -1.19716,-1.33789 -3.02262,-1.98764 -4.31641,-3.2449 -2.11587,-2.46257 -3.84749,-5.22479 -5.3621,-8.09302 -1.2736,-2.48604 -2.41316,-5.03404 -3.33036,-7.67506 0,0 4.118,-1.576 4.118,-1.576 z"
       inkscape:connector-curvature="0" />
    <path
       style="fill:#000000;fill-opacity:1;stroke:none;stroke-width:0.2;stroke-linejoin:miter;stroke-miterlimit:4;stroke-dasharray:none;stroke-opacity:1"
       id="path3908"
       d="m 299.19519,133.2427 c -1.44616,0.11527 -2.88282,0.50162 -4.34247,0.41996 -0.40595,-0.0227 -2.42634,-0.35382 -2.82671,-0.41737 -1.2406,-0.26225 -2.36447,-0.68151 -3.62587,-0.80594 0,0 0.005,-0.11167 0.005,-0.11167 v 0 c 0.34703,-0.004 0.70226,0.0642 1.04106,-0.011 0.30787,-0.0683 2.04213,-0.8974 2.29513,-1.01548 0.81018,-0.40934 1.58364,-0.89217 2.40961,-1.26865 1.43637,-0.65469 3.03202,-0.89822 4.57057,-1.17927 0,0 0.47374,4.38939 0.47374,4.38939 z"
       inkscape:connector-curvature="0" />
    <path
       style="fill:#000000;fill-opacity:1;stroke:none;stroke-width:0.2;stroke-linejoin:miter;stroke-miterlimit:4;stroke-dasharray:none;stroke-opacity:1"
       id="path3910"
       d="m 309.81477,113.09994 c 0.94472,2.77978 1.18047,5.7183 1.36327,8.62772 0.14359,3.13797 0.12012,6.28055 0.4314,9.40858 0.23008,1.53734 0.34811,3.36408 1.59475,4.45709 0.84497,0.60104 1.95752,0.49259 2.88875,0.8297 0.32959,0.11932 0.62312,0.32125 0.93466,0.48187 1.3226,0.63158 2.68965,1.12478 4.11568,1.45316 0,0 0.0159,0.11065 0.0159,0.11065 v 0 c -1.39763,0.75675 -2.78273,1.55734 -4.3058,2.04247 -0.41696,0.12542 -0.81883,0.32207 -1.25087,0.37625 -2.02599,0.25409 -4.39955,-0.80164 -5.91201,-2.0593 -1.93648,-2.2524 -2.45203,-4.36845 -2.73404,-7.28789 -0.24019,-3.1795 -0.25318,-6.36458 -0.33343,-9.55092 -0.12936,-2.50755 -0.29605,-5.03449 -0.94041,-7.47212 0,0 4.13221,-1.41726 4.13221,-1.41726 z"
       inkscape:connector-curvature="0" />
    <path
       style="fill:#000000;fill-opacity:1;stroke:none;stroke-width:0.2;stroke-linejoin:miter;stroke-miterlimit:4;stroke-dasharray:none;stroke-opacity:1"
       id="path3912"
       d="m 333.06789,118.81355 c -1.60121,-0.96965 -3.3016,-0.99039 -5.02076,-0.3768 -1.51561,0.7413 -2.2702,2.02408 -2.46848,3.65173 0.0436,1.63752 1.20237,2.56641 2.41427,3.47721 2.33537,1.42561 4.76004,2.64719 6.94584,4.30535 1.95799,1.78837 3.19619,4.22231 2.4978,6.92032 -0.13542,0.52305 -0.40169,1.00314 -0.60256,1.50472 -2.18599,3.54211 -4.14941,4.02277 -8.10557,3.8262 -1.79697,-0.32282 -0.92588,-0.16781 -2.61318,-0.46557 0,0 -0.006,-0.11162 -0.006,-0.11162 v 0 c 1.53284,-0.46541 0.78685,-0.14856 2.23039,-0.96825 0.81939,-0.56983 1.21801,-0.78794 1.91428,-1.50029 0.25609,-0.26199 0.44519,-0.58481 0.70462,-0.8435 0.5792,-0.57759 1.34294,-0.98331 1.76051,-1.72502 0.72144,-1.34891 0.6028,-2.06033 -0.52457,-3.19446 -2.06835,-1.76401 -4.58684,-2.81891 -6.8222,-4.34531 -2.60498,-2.03872 -4.25259,-4.14388 -3.99658,-7.62376 0.71834,-3.53132 2.16784,-5.43058 5.54008,-6.84733 3.24647,-0.81211 5.50291,-0.60646 8.37817,1.188 0,0 -2.22605,3.12838 -2.22605,3.12838 z"
       inkscape:connector-curvature="0" />
    <path
       style="fill:#000000;fill-opacity:1;stroke:none;stroke-width:0.2;stroke-linejoin:miter;stroke-miterlimit:4;stroke-dasharray:none;stroke-opacity:1"
       id="path3914"
       d="m 338.38467,263.35624 c -1.92122,-3.96451 -3.56476,-8.05942 -5.22547,-12.13811 -3.166,-7.91102 -6.058,-15.9261 -8.85444,-23.97383 -2.64914,-7.73312 -5.10961,-15.52835 -7.60129,-23.31296 -0.80807,-2.52699 -1.64711,-5.04354 -2.51812,-7.54946 -0.0488,-0.14031 -1.06643,-3.01372 -1.13588,-3.33456 -0.0947,-0.43771 -0.0787,-0.89221 -0.11806,-1.33832 -0.10568,-1.06527 -0.0241,-2.10162 0.29609,-3.11831 0,0 0.0976,-0.0544 0.0976,-0.0544 v 0 c 1.09638,0.35525 1.92574,1.05273 2.64961,1.95138 0.28962,0.37365 0.63344,0.71098 0.86887,1.12094 0.34716,0.60447 1.14646,2.84924 1.34178,3.40607 0.88955,2.53606 1.68611,5.10428 2.48412,7.67007 2.40014,7.77772 4.74057,15.57543 7.33943,23.28998 2.7077,8.0115 5.54178,15.98094 8.66278,23.84212 1.60126,4.09831 3.27096,8.17597 4.69834,12.33861 0,0 -2.9854,1.20079 -2.9854,1.20079 z"
       inkscape:connector-curvature="0" />
    <path
       style="fill:#000000;fill-opacity:1;stroke:none;stroke-width:0.2;stroke-linejoin:miter;stroke-miterlimit:4;stroke-dasharray:none;stroke-opacity:1"
       id="path3916"
       d="m 184.31734,261.97928 c -0.0467,-5.11673 0.8463,-10.1791 1.71701,-15.202 1.80587,-9.34606 3.93094,-18.62691 5.91946,-27.93528 1.72137,-8.12927 3.01186,-16.33749 4.21544,-24.55614 0.63405,-2.63093 0.44036,-5.6496 1.64922,-8.1404 0.36097,-0.74377 0.79797,-1.10419 1.35246,-1.66099 0.77571,-0.46399 1.04425,-0.66556 1.7661,-0.0802 0,0 -0.0543,0.0977 -0.0543,0.0977 v 0 c 0.11622,0.3191 0.55028,0.38998 0.54276,0.80401 0.12706,0.55232 0.29253,1.15921 0.28754,1.72728 -0.0234,2.66165 -1.07027,5.27126 -1.21786,7.92031 -1.3425,8.27524 -2.76798,16.53859 -4.54169,24.73424 -1.93672,9.25213 -4.1044,18.46065 -5.69217,27.78209 -0.74239,4.81696 -1.42973,9.65276 -1.52771,14.53434 0,0 -4.41621,-0.0249 -4.41621,-0.0249 z"
       inkscape:connector-curvature="0" />
    <path
       style="fill:#ffff00;fill-opacity:1;stroke:none;stroke-width:1.995996;stroke-linejoin:miter;stroke-miterlimit:4;stroke-dasharray:none;stroke-opacity:1"
       d="m 1057.8718,679.66204 c -47.8995,-2.74473 -123.26073,-10.54839 -199.36054,-20.64382 -47.92573,-6.35783 -109.12016,-14.08074 -135.98762,-17.16203 -56.57189,-6.4879 -67.64451,-8.91701 -76.27203,-16.73258 -17.28608,-15.6592 -39.5045,-94.44573 -47.71974,-169.21423 -5.24993,-47.78061 -3.73871,-115.36482 4.30002,-192.30313 l 7.38007,-70.63435 10.60659,5.3e-4 c 16.72935,8.3e-4 106.25215,7.32564 194.12386,15.88333 162.90171,15.86476 267.42369,20.92102 434.70509,21.02893 69.9056,0.0451 85.38,0.71275 87.9374,3.79414 4.1264,4.97207 8.0103,43.4574 8.0166,79.43747 0.01,41.8707 -3.7744,81.63093 -14.4533,151.95477 -8.7763,57.79479 -14.7428,113.74601 -18.6215,174.62476 -0.8955,14.05714 -3.009,27.37883 -4.6965,29.60377 -3.9411,5.19621 -28.038,8.83822 -73.0425,11.03971 l -35.6472,1.74379 -6.4015,-6.90733 c -8.0125,-8.64559 -10.762,-8.72378 -10.762,-0.30598 v 6.60134 l -54.7912,-0.48845 c -30.1351,-0.26865 -61.3264,-0.86295 -69.314,-1.32064 z m 211.903,-193.46922 c 14.6653,-16.41194 7.3788,-34.34847 -20.2992,-49.969 -15.1456,-8.54767 -19.3736,-15.33218 -14.837,-23.80883 3.4008,-6.35444 10.7642,-8.95025 19.3067,-6.80621 4.9523,1.24295 7.3975,0.091 10.7867,-5.0815 4.147,-6.32909 4.108,-6.83581 -0.7248,-9.42225 -7.4808,-4.00357 -25.6794,-3.33425 -34.587,1.27206 -4.2602,2.20303 -9.5483,7.49111 -11.7513,11.75129 -9.1821,17.75627 -1.9381,34.44668 20.5299,47.3016 19.931,11.40336 22.1005,14.4188 16.5109,22.94956 -2.4571,3.75006 -8.7134,9.32339 -13.9027,12.38519 -8.3688,4.9377 -8.8692,5.80425 -4.4266,7.66649 10.0414,4.20917 25.73,0.3388 33.3944,-8.2384 z m -65.4429,0.70983 c 5.1323,-2.44743 9.3315,-5.22504 9.3315,-6.17246 0,-0.94743 -6.6452,-3.98138 -14.7671,-6.74209 -8.1219,-2.76073 -15.7424,-6.84181 -16.9344,-9.06908 -1.192,-2.22726 -3.3693,-20.33054 -4.8384,-40.22952 -1.4692,-19.89897 -3.3809,-37.32826 -4.2483,-38.73176 -1.0072,-1.62966 -4.4042,-1.56629 -9.4003,0.17536 l -7.8231,2.72717 1.3694,28.14143 c 2.5738,52.88922 5.2423,62.72659 19.0477,70.21734 9.5324,5.17218 16.9269,5.0894 28.263,-0.31639 z m -138.7516,-2.04132 c 4.6618,-2.4107 10.9818,-3.27693 16.9007,-2.31641 8.7571,1.42108 9.5778,0.97475 11.1269,-6.05137 0.9198,-4.17207 2.1225,-9.05131 2.6726,-10.84273 1.4317,-4.66247 36.2059,-2.97097 42.2993,2.05756 4.3597,3.59784 4.5357,3.10076 2.7903,-7.87907 -1.0247,-6.44554 -5.9757,-18.4894 -11.0024,-26.76413 -5.0266,-8.27473 -12.181,-21.68882 -15.8986,-29.8091 l -6.7592,-14.76415 -8.1782,3.33704 c -4.498,1.83537 -8.5282,5.07596 -8.9561,7.20131 -0.4278,2.12534 -3.781,16.34079 -7.4515,31.58989 -3.6704,15.2491 -6.6949,32.18154 -6.7211,37.62765 -0.042,8.80064 -0.7849,9.90201 -6.6776,9.90201 -9.4673,0 -29.5404,-10.03618 -35.6773,-17.83804 -6.177,-7.85282 -6.7611,-21.69701 -1.3563,-32.14875 3.7464,-7.24466 16.7834,-19.82913 22.525,-21.74297 4.0182,-1.33941 -2.129,-18.04848 -6.64,-18.04848 -7.7586,0 -26.5791,17.647 -33.6138,31.51793 -12.0387,23.73791 -8.7903,44.13455 9.6006,60.28195 7.8924,6.92959 11.9758,8.5405 21.6488,8.5405 6.5569,0 15.2725,-1.7328 19.3679,-3.85064 z m -61.2253,-2.48472 c 0.5756,-0.57563 0.2949,-5.05348 -0.6239,-9.95078 -1.6156,-8.61224 -2.0241,-8.87046 -12.45636,-7.87558 -9.28674,0.88563 -10.54633,0.40413 -9.06198,-3.46402 0.94819,-2.47093 1.72398,-16.87197 1.72398,-32.00229 v -27.50967 h 10.56214 10.56212 V 390.7373 379.90032 l -21.7844,1.86342 c -20.57329,1.75982 -37.13193,6.81439 -40.57519,12.38568 -2.17834,3.52462 0.085,5.13649 10.07502,7.17495 l 8.71575,1.77846 2.78785,30.26202 c 1.95677,21.24074 1.95677,30.82943 0,32.16538 -1.53331,1.04684 -7.82576,2.66525 -13.98317,3.59643 -13.04037,1.97214 -12.33339,4.87293 2.93934,12.06079 8.88918,4.18353 14.50497,4.86183 30.48433,3.68201 10.77331,-0.79546 20.05877,-1.91724 20.63447,-2.49285 z M 713.9419,469.8347 c 10.96732,-3.39507 11.0626,-7.52809 0.17354,-7.52809 -13.66609,0 -31.23386,-9.9986 -35.49765,-20.2033 -4.12041,-9.86152 -2.95359,-17.83803 4.963,-33.9277 9.14298,-18.58217 26.0363,-33.0067 38.65588,-33.0067 5.93521,0 6.77667,-1.02486 9.21408,-11.22228 1.6631,-6.95793 1.31369,-7.26148 -8.35835,-7.26148 -14.19597,0 -35.8905,11.62571 -47.00447,25.18886 -23.86222,29.12069 -26.10885,69.81482 -4.69336,85.01282 12.45626,8.83988 21.49158,9.4659 42.54733,2.94787 z m 153.23972,2.37392 c 1.49362,-1.81537 4.21055,-10.9323 6.03761,-20.25986 2.42185,-12.36392 3.84003,-15.55874 5.23392,-11.79074 5.12763,13.86132 19.13765,14.98653 27.4916,2.20798 l 5.26805,-8.05819 5.87432,12.67913 c 11.04687,23.84356 15.67624,13.84659 14.52261,-31.36124 -0.52679,-20.64346 -4.64127,-28.17386 -14.60721,-26.7345 -3.88095,0.56052 -8.0398,5.94838 -13.86638,17.96414 l -8.32276,17.16349 -1.9141,-17.43868 c -2.1829,-19.88775 -3.17593,-22.10239 -11.00509,-24.54364 -6.04569,-1.88513 -14.14105,3.94065 -14.14105,10.17652 0,1.90533 -2.13197,4.02175 -4.7377,4.70317 -5.9659,1.56011 -10.99789,21.55084 -13.03683,51.79167 -1.1618,17.2314 -0.68054,22.55887 2.20276,24.38454 5.27418,3.33948 11.84399,2.95241 15.00025,-0.88379 z m -32.43519,-4.70393 c 5.39502,-2.17052 6.65831,-3.59419 3.96081,-4.46356 -8.18453,-2.63777 -25.15776,-11.98711 -27.02506,-14.88615 -3.2521,-5.04897 -2.39079,-6.53089 7.834,-13.47881 l 9.85483,-6.69653 h -8.70187 c -8.19493,0 -8.65366,-0.49025 -7.87443,-8.4154 0.68812,-6.99851 3.14373,-9.77715 14.58478,-16.50335 22.71577,-13.35462 22.90316,-14.73352 1.95384,-14.37688 -10.09345,0.17182 -21.91645,1.07292 -26.27333,2.00245 -7.62299,1.62632 -7.99808,2.38599 -9.95006,20.15174 -4.50623,41.01289 -3.1527,49.12042 9.52569,57.05792 8.79784,5.50803 17.71759,5.39929 32.1108,-0.39143 z m -83.99324,-26.4212 c 0.85357,-7.20712 2.87175,-13.12008 4.48482,-13.13991 1.61308,-0.0198 5.4407,-0.7092 8.50582,-1.53193 4.98442,-1.33791 5.75934,-0.0907 7.33802,11.80994 0.9708,7.3182 2.71876,13.89523 3.88436,14.61561 6.00423,3.71082 20.04856,-77.79521 14.31991,-83.10532 -1.13814,-1.05499 -5.93112,-1.31662 -10.65108,-0.5814 l -8.58175,1.33676 v 17.60515 c 0,17.29254 -0.14649,17.66044 -8.25078,20.71947 l -8.25079,3.11432 1.78057,-15.7381 1.78056,-15.7381 h -9.1409 c -8.5189,0 -9.24943,0.67378 -10.73589,9.90201 -3.18767,19.78962 -2.68579,57.37312 0.90511,67.78048 l 3.5707,10.34882 3.74468,-7.14698 c 2.05957,-3.93083 4.44306,-13.0437 5.29664,-20.25082 z"
       id="path3932"
       inkscape:connector-curvature="0"
       transform="matrix(0.26458333,0,0,0.26458333,0,11.249983)" />
    <path
       style="fill:#ffff00;fill-opacity:1;stroke:none;stroke-width:1.995996;stroke-linejoin:miter;stroke-miterlimit:4;stroke-dasharray:none;stroke-opacity:1"
       d="m 1099.1836,447.10225 c 5.0747,-20.48296 4.3174,-19.75962 10.613,-10.13728 l 5.7155,8.7356 -9.0611,4.32094 -9.0611,4.32094 z"
       id="path3936"
       inkscape:connector-curvature="0"
       transform="matrix(0.26458333,0,0,0.26458333,0,11.249983)" />
    <path
       style="fill:#000000;fill-opacity:1;stroke:none;stroke-width:0.2;stroke-linejoin:miter;stroke-miterlimit:4;stroke-dasharray:none;stroke-opacity:1"
       id="path3978"
       d="m 300.54999,256.62641 c -0.44674,-1.91179 -1.41464,-3.60458 -2.42006,-5.2665 -1.45942,-2.23474 -3.02406,-4.39824 -4.50186,-6.62075 -1.63965,-2.48487 -3.15799,-5.04677 -4.55927,-7.67278 -1.28183,-2.32027 -2.28875,-4.76873 -3.00109,-7.31914 -0.65466,-2.32345 -0.50255,-4.58369 0.25823,-6.84481 0.90361,-2.18649 2.5091,-3.94594 4.00648,-5.73718 1.32578,-1.48474 2.42239,-3.11672 3.20522,-4.94529 0.52596,-1.25853 0.56851,-2.49187 0.1852,-3.78041 -0.67056,-1.57581 -1.89349,-2.819 -3.04413,-4.054 -1.75445,-1.75722 -3.41268,-3.59767 -4.74329,-5.69836 -1.14589,-2.01605 -0.77682,-4.34662 0.19576,-6.35028 0,0 0.1111,-0.0123 0.1111,-0.0123 v 0 c 0.57917,0.66442 1.12612,1.35569 1.76586,1.96424 0.15274,0.1453 1.11942,0.98373 1.26121,1.15128 0.18659,0.22047 0.32007,0.48087 0.48011,0.72131 1.2785,1.82283 2.74389,3.48314 4.31496,5.06071 1.66759,1.78021 3.34942,3.6108 4.14981,5.96654 0.6337,2.35067 0.55925,4.64298 -0.4222,6.90495 -0.99086,2.20598 -2.30709,4.21536 -3.89832,6.04101 -1.13763,1.368 -2.35463,2.71754 -3.1297,4.33444 -0.51202,1.3259 -0.56729,2.66549 -0.1973,4.04904 0.59206,2.22999 1.48108,4.35053 2.55034,6.39497 1.32917,2.50742 2.71029,4.98836 4.2503,7.37396 1.49272,2.30951 3.06673,4.56677 4.48548,6.92295 1.17324,2.11442 2.15275,4.34092 2.50499,6.75426 0,0 -3.80783,0.66216 -3.80783,0.66216 z"
       inkscape:connector-curvature="0" />
    <path
       style="fill:#000000;fill-opacity:1;stroke:none;stroke-width:0.2;stroke-linejoin:miter;stroke-miterlimit:4;stroke-dasharray:none;stroke-opacity:1"
       id="path3980"
       d="m 286.82772,195.65693 c -1.29468,1.63998 -2.43575,3.389 -3.48411,5.19397 -0.92649,1.64669 -1.75763,3.34929 -2.5064,5.08398 -0.63767,1.42544 -1.06333,2.9225 -1.33482,4.45632 -0.21836,1.53413 -0.23146,3.08628 -0.35057,4.62959 -0.12703,1.94173 -0.7525,3.73561 -1.66082,5.4375 -1.00899,1.73652 -2.45245,3.1418 -3.78719,4.62011 -1.03547,1.09775 -1.76795,2.33558 -2.07865,3.80999 -0.19679,1.62851 0.2807,3.22647 0.60817,4.80597 0.38749,1.93512 -0.004,4.05129 -0.80015,5.8453 0,0 -0.11038,0.0176 -0.11038,0.0176 v 0 c -1.32631,-1.38205 -2.70248,-2.91272 -3.34619,-4.73227 -0.72181,-2.26614 -1.23367,-4.61496 -0.79888,-6.99648 0.56205,-2.2199 1.58559,-4.17022 3.21868,-5.80473 1.11276,-1.17898 2.28994,-2.32617 3.16481,-3.70036 0.63336,-1.13318 1.06014,-2.34457 1.15171,-3.64995 0.13451,-1.69277 0.15817,-3.39654 0.43415,-5.07595 0.35034,-1.88176 0.90705,-3.70707 1.71974,-5.44427 0.86683,-1.86648 1.77353,-3.71464 2.83337,-5.48095 1.19023,-1.93927 2.44602,-3.84063 3.8712,-5.61736 0,0 3.25633,2.60199 3.25633,2.60199 z"
       inkscape:connector-curvature="0" />
    <path
       style="fill:#000000;fill-opacity:1;stroke:none;stroke-width:0.2;stroke-linejoin:miter;stroke-miterlimit:4;stroke-dasharray:none;stroke-opacity:1"
       id="path3982"
       d="m 268.43566,240.76832 c -1.87888,-1.63673 -3.72234,-3.3125 -5.50867,-5.04995 -1.97177,-1.90476 -3.65661,-4.06678 -5.23757,-6.29831 -1.56721,-2.22855 -2.85662,-4.62506 -3.87792,-7.14719 -0.99903,-2.42575 -1.39398,-4.96534 -1.39013,-7.57081 0.0887,-2.44223 1.05922,-4.62278 2.22139,-6.72201 0.84257,-1.39204 1.66553,-2.79057 1.99808,-4.39668 0.14742,-1.27678 -0.4202,-2.38215 -1.01812,-3.46368 -1.30881,-1.5998 -1.91069,-3.53696 -2.73958,-5.39438 -0.59884,-1.38854 -0.27582,-0.71823 -0.96406,-2.01333 0,0 0.0784,-0.0797 0.0784,-0.0797 v 0 c 1.30888,0.66541 0.63006,0.3535 2.03924,0.92969 1.07047,0.48066 2.31808,0.90775 3.29349,1.56673 0.98751,0.66715 1.66813,1.70034 2.34176,2.65251 1.2455,2.09834 2.04209,4.33116 1.61295,6.80677 -0.45665,2.06436 -1.34552,3.92851 -2.48212,5.7094 -0.78891,1.40535 -1.53007,2.85559 -1.64932,4.49368 -0.0877,1.96837 0.28266,3.90594 0.95036,5.75815 0.87791,2.20839 1.92566,4.34158 3.2701,6.30887 1.39558,2.04908 2.90849,4.01031 4.62335,5.80584 1.70198,1.77177 3.47488,3.47136 5.21316,5.20698 0,0 -2.77474,2.89745 -2.77474,2.89745 z"
       inkscape:connector-curvature="0" />
    <path
       style="fill:#000000;fill-opacity:1;stroke:none;stroke-width:0.2;stroke-linejoin:miter;stroke-miterlimit:4;stroke-dasharray:none;stroke-opacity:1"
       id="path3984"
       d="m 253.88154,194.34463 c -0.59334,2.15504 -0.7003,4.38579 -0.6917,6.60786 0.10259,2.5413 0.30569,5.07268 0.20452,7.61694 -0.19311,2.76808 -1.22448,4.6807 -3.22065,6.54972 -1.98634,1.55328 -4.34389,2.48391 -6.63427,3.48297 -1.4215,0.63743 -2.81201,1.37518 -3.64257,2.73488 -0.60953,1.23564 -0.64506,2.6202 -0.63023,3.96965 0.0502,2.32617 0.53264,4.60782 0.95957,6.88567 0.57829,2.69394 1.17725,5.38246 1.59016,8.10768 0.44591,2.4521 -0.0603,4.43929 -1.79646,6.23303 -0.23639,0.12167 -0.47278,0.24333 -0.70917,0.365 0,0 -0.0971,-0.0554 -0.0971,-0.0554 v 0 c -0.0498,-0.20511 -0.0995,-0.41022 -0.14932,-0.61533 -0.64923,-1.7177 -1.79357,-3.21246 -1.86397,-5.12232 -0.53047,-2.66756 -1.09248,-5.32814 -1.64965,-7.99007 -0.53311,-2.57914 -0.97957,-5.18941 -1.06308,-7.82709 0.0351,-2.34174 0.2523,-4.68749 1.56315,-6.70627 1.49375,-1.95197 3.40567,-3.29308 5.72206,-4.14328 1.8625,-0.76792 3.79997,-1.45533 5.46417,-2.61177 1.13318,-0.91867 1.77998,-1.99338 1.87655,-3.48901 0.17764,-2.46945 -0.0226,-4.93742 -0.0349,-7.40986 0.038,-2.58455 0.25576,-5.16337 0.95791,-7.66323 0,0 3.84491,1.08027 3.84491,1.08027 z"
       inkscape:connector-curvature="0" />
    <path
       style="fill:#000000;fill-opacity:1;stroke:none;stroke-width:0.2;stroke-linejoin:miter;stroke-miterlimit:4;stroke-dasharray:none;stroke-opacity:1"
       id="path3986"
       d="m 235.89354,244.09267 c -1.46767,-2.36179 -3.07664,-4.63069 -4.76052,-6.84215 -1.9008,-2.5092 -4.03384,-4.82414 -6.2163,-7.0873 -2.25653,-2.28487 -4.4495,-4.62749 -6.39084,-7.1878 -1.88522,-2.63829 -2.75228,-4.75305 -2.68132,-8.00805 0.36971,-2.97399 2.21559,-5.2223 4.18645,-7.33516 1.52516,-1.5641 3.17583,-3.00574 4.40089,-4.82823 0.64588,-1.07936 0.57314,-2.13559 0.24373,-3.29292 -0.0733,-0.21212 -0.17648,-0.41618 -0.21991,-0.63637 -0.0539,-0.2731 -0.0242,-0.55756 -0.0697,-0.83218 -0.21922,-1.32339 -0.88633,-2.47373 -1.57821,-3.59763 0,0 0.0617,-0.0932 0.0617,-0.0932 v 0 c 1.91662,0.35148 4.2083,1.00311 5.55021,2.54113 0.29067,0.33315 0.44697,0.76297 0.67045,1.14446 0.96373,2.70772 0.87154,4.98072 -0.64447,7.48252 -1.37795,2.02801 -3.12125,3.72241 -4.8942,5.40643 -1.17643,1.25258 -2.43851,2.55717 -2.86787,4.27298 -0.20182,1.83307 0.67613,3.45417 1.66626,4.94446 1.76537,2.45221 3.81868,4.66205 5.91915,6.82974 2.27436,2.42139 4.54261,4.85704 6.5497,7.50934 1.75032,2.36173 3.45572,4.75926 4.92871,7.30719 0,0 -3.85394,2.30273 -3.85394,2.30273 z"
       inkscape:connector-curvature="0" />
    <path
       style="fill:#000000;fill-opacity:1;stroke:none;stroke-width:0.2;stroke-linejoin:miter;stroke-miterlimit:4;stroke-dasharray:none;stroke-opacity:1"
       id="path3988"
       d="m 225.12199,195.2161 c 1.44519,2.54502 1.54808,4.17923 0.15487,6.77025 -1.34897,1.88288 -3.40634,2.94297 -5.36422,4.06911 -1.72241,0.90236 -3.34173,1.97735 -4.9463,3.07064 -1.61341,1.1522 -3.19168,2.35392 -4.72929,3.6055 -1.23511,0.98494 -2.30079,2.11027 -2.78239,3.63374 -0.40702,1.87838 0.13678,3.74627 0.64472,5.54688 0.76851,2.45588 1.80747,4.81121 2.92576,7.12441 1.0164,2.09575 2.16224,4.12439 3.28013,6.16667 1.13929,2.03756 2.15026,4.14076 3.08346,6.27935 0.95511,2.17226 1.65678,4.43385 2.20666,6.73829 0.57804,2.30581 0.66986,4.65726 0.48566,7.01447 -0.27141,2.28903 -1.20429,4.30879 -2.60271,6.11232 -0.23735,0.23494 -0.43202,0.52282 -0.71204,0.70482 -1.06242,0.69053 -2.95641,0.91173 -4.18927,0.76433 0,0 -0.0753,-0.0827 -0.0753,-0.0827 v 0 c 0.007,-1.05217 0.28862,-1.99695 0.5079,-3.02099 0.0543,-0.25374 0.0563,-0.52207 0.15094,-0.76371 0.0789,-0.20152 0.23979,-0.36035 0.35969,-0.54052 0.76642,-1.11244 1.41666,-2.27776 1.55755,-3.6502 0.2179,-1.80521 0.0283,-3.61094 -0.33848,-5.38776 -0.47342,-2.0167 -1.07602,-4.00303 -1.90491,-5.90495 -0.87088,-2.0039 -1.81761,-3.97325 -2.88415,-5.8814 -1.1644,-2.13155 -2.35503,-4.25066 -3.40452,-6.44239 -1.18111,-2.57978 -2.30575,-5.19371 -3.11921,-7.9165 -0.78793,-2.81087 -1.39423,-5.70522 -0.52919,-8.58078 0.92995,-2.28043 2.32314,-4.1548 4.29742,-5.65636 1.64497,-1.33529 3.33928,-2.606 5.09281,-3.79597 1.73212,-1.17908 3.52675,-2.25566 5.38009,-3.23442 1.31484,-0.68331 2.66608,-1.35573 3.80076,-2.32183 0.65015,-0.62703 0.63154,-1.29797 0.1852,-2.0953 0,0 3.46833,-2.32505 3.46833,-2.32505 z"
       inkscape:connector-curvature="0" />
    <path
       style="fill:#000000;fill-opacity:1;stroke:none;stroke-width:0.2;stroke-linejoin:miter;stroke-miterlimit:4;stroke-dasharray:none;stroke-opacity:1"
       id="path3990"
       d="m 215.3093,261.02917 c 1.96235,0.41654 3.96844,0.54164 5.96938,0.49096 2.20434,-0.0605 4.30818,-0.67196 6.36399,-1.41705 2.59756,-1.10032 5.15863,-2.27499 7.80021,-3.26847 3.16978,-1.16034 6.49399,-1.66341 9.84044,-1.94425 3.2364,-0.27571 6.48262,-0.2087 9.71543,0.0581 3.07779,0.24934 6.09839,0.90234 9.10468,1.57834 2.97886,0.72231 5.96352,1.41759 8.97443,1.99329 2.80299,0.56791 5.63314,0.97311 8.47963,1.23969 2.75037,0.31295 5.48502,0.004 8.19208,-0.4804 3.17077,-0.64361 6.26314,-1.61686 9.31915,-2.66775 1.19619,-0.42639 2.37776,-0.90136 3.50393,-1.49094 0.25538,-0.1337 0.48062,-0.32999 0.75219,-0.42671 0.45423,-0.1618 0.95348,-0.14522 1.42883,-0.22618 0.7058,-0.14024 1.20787,-0.56527 1.74709,-1.00654 0,0 0.11002,0.0199 0.11002,0.0199 v 0 c 0.40783,0.99291 0.58015,1.81902 0.2622,2.89211 -0.30043,0.7681 -0.52792,1.5731 -1.13504,2.18318 -1.20628,1.21216 -3.61055,1.78323 -5.12257,2.48963 -3.27345,1.1569 -6.58564,2.22043 -9.98233,2.95729 -3.14859,0.61052 -6.32944,0.9771 -9.53939,0.64859 -3.00064,-0.2877 -5.9843,-0.71623 -8.94652,-1.27707 -3.06109,-0.58835 -6.1133,-1.2156 -9.14689,-1.93401 -2.77047,-0.62089 -5.55765,-1.19904 -8.39043,-1.44982 -2.95347,-0.21001 -5.91582,-0.24811 -8.86998,-0.007 -2.88924,0.27734 -5.78578,0.65163 -8.53352,1.63718 -2.66674,0.95932 -5.22688,2.16333 -7.85472,3.21984 -2.61496,0.93927 -5.30577,1.64961 -8.11011,1.59251 -2.35641,-0.0805 -4.69442,-0.33729 -6.97684,-0.95792 0,0 1.04466,-4.44695 1.04466,-4.44695 z"
       inkscape:connector-curvature="0" />
    <path
       style="fill:#ff0000;fill-opacity:1;stroke:none;stroke-width:1.995996;stroke-linejoin:miter;stroke-miterlimit:4;stroke-dasharray:none;stroke-opacity:1"
       d="m 825.50456,944.88588 c 0,-0.74619 1.78236,-5.6225 3.9608,-10.83625 8.52486,-20.40286 4.16632,-41.01283 -18.51377,-87.54498 -22.16269,-45.47061 -25.05508,-52.95251 -25.05508,-64.81144 0,-8.87632 1.60127,-11.37232 13.86282,-21.60891 13.86323,-11.57377 26.83356,-20.52137 29.74751,-20.52137 0.85115,0 -1.63034,4.16642 -5.51443,9.25873 -9.6542,12.6573 -11.26477,28.85892 -4.23802,42.63249 2.96666,5.81513 15.1168,21.17453 27.00031,34.132 11.88351,12.95747 26.45647,30.39142 32.38437,38.74212 5.97723,8.4202 12.80074,15.18308 15.3192,15.18308 2.58131,0 5.56211,3.0627 6.9067,7.09644 l 2.36548,7.09645 5.77617,-5.77618 c 7.21271,-7.2127 7.23766,-12.62694 0.23955,-51.98556 -6.99614,-39.3476 -6.04891,-42.62386 15.21559,-52.62768 8.47336,-3.98627 17.93418,-9.59044 21.02403,-12.45371 l 5.61791,-5.20595 1.83466,12.69911 c 3.73494,25.85251 25.14423,60.59654 49.77784,80.78195 10.1526,8.31927 12.308,9.1531 15.0669,5.82879 1.7707,-2.1336 4.2753,-3.22672 5.5658,-2.42918 4.3925,2.71468 7.4363,-11.88092 5.944,-28.50194 -1.4292,-15.91744 -1.1357,-16.99424 7.3957,-27.13729 4.8862,-5.80918 10.4273,-12.55868 12.3135,-14.99889 1.8862,-2.44022 5.1225,-14.91675 7.1917,-27.72563 2.3384,-14.4751 6.8745,-29.6179 11.9857,-40.0122 l 8.2235,-16.72331 13.5891,15.12784 c 24.3148,27.06817 24.5526,30.2365 4.2382,56.48425 -7.1576,9.24806 -13.7705,20.84885 -14.6955,25.77953 -3.7518,19.99855 5.1963,42.3617 35.5632,88.88001 10.3114,15.7959 18.1891,29.62422 17.506,30.72961 -0.6832,1.10539 -11.0575,4.66754 -23.0541,7.9159 -27.2385,7.37546 -57.9264,6.13099 -101.0281,-4.09693 -33.57214,-7.9666 -75.32965,-10.96673 -96.71216,-6.94843 -8.17057,1.53545 -25.74732,7.04778 -39.05946,12.24961 -22.01773,8.60361 -47.74562,14.7077 -47.74562,11.32792 z"
       id="path3992"
       inkscape:connector-curvature="0"
       transform="matrix(0.26458333,0,0,0.26458333,0,11.249983)" />
    <path
       style="fill:#ff0000;fill-opacity:1;stroke:none;stroke-width:1.995996;stroke-linejoin:miter;stroke-miterlimit:4;stroke-dasharray:none;stroke-opacity:1"
       d=""
       id="path3994"
       inkscape:connector-curvature="0"
       transform="matrix(0.26458333,0,0,0.26458333,0,11.249983)" />
    <path
       style="fill:#ff0000;fill-opacity:1;stroke:none;stroke-width:1.995996;stroke-linejoin:miter;stroke-miterlimit:4;stroke-dasharray:none;stroke-opacity:1"
       d="m 959.25305,738.33654 c -0.94692,-2.46764 -1.71385,-11.22182 -1.70428,-19.45373 l 0.0174,-14.96712 5.24628,7.9216 c 6.06256,9.15417 6.5087,15.93205 1.6281,24.73481 -3.00913,5.42734 -3.6927,5.65984 -5.1875,1.76444 z"
       id="path3996"
       inkscape:connector-curvature="0"
       transform="matrix(0.26458333,0,0,0.26458333,0,11.249983)" />
  </g>
</svg>
