<?xml version="1.0" encoding="UTF-8" standalone="no"?>
<!-- Created with Inkscape (http://www.inkscape.org/) -->

<svg
   xmlns:dc="http://purl.org/dc/elements/1.1/"
   xmlns:cc="http://creativecommons.org/ns#"
   xmlns:rdf="http://www.w3.org/1999/02/22-rdf-syntax-ns#"
   xmlns:svg="http://www.w3.org/2000/svg"
   xmlns="http://www.w3.org/2000/svg"
   xmlns:sodipodi="http://sodipodi.sourceforge.net/DTD/sodipodi-0.dtd"
   xmlns:inkscape="http://www.inkscape.org/namespaces/inkscape"
   width="1920"
   height="1080"
   viewBox="0 0 507.99999 285.75001"
   version="1.1"
   id="svg8"
   inkscape:version="0.92.2 2405546, 2018-03-11"
   sodipodi:docname="chemicals-3.svg">
  <defs
     id="defs2" />
  <sodipodi:namedview
     id="base"
     pagecolor="#ffffff"
     bordercolor="#666666"
     borderopacity="1.0"
     inkscape:pageopacity="0.0"
     inkscape:pageshadow="2"
     inkscape:zoom="0.37871094"
     inkscape:cx="943.27248"
     inkscape:cy="622.44636"
     inkscape:document-units="mm"
     inkscape:current-layer="layer1"
     showgrid="false"
     units="px"
     inkscape:window-width="1348"
     inkscape:window-height="730"
     inkscape:window-x="5"
     inkscape:window-y="25"
     inkscape:window-maximized="0" />
  <metadata
     id="metadata5">
    <rdf:RDF>
      <cc:Work
         rdf:about="">
        <dc:format>image/svg+xml</dc:format>
        <dc:type
           rdf:resource="http://purl.org/dc/dcmitype/StillImage" />
        <dc:title></dc:title>
      </cc:Work>
    </rdf:RDF>
  </metadata>
  <g
     inkscape:label="Layer 1"
     inkscape:groupmode="layer"
     id="layer1"
     transform="translate(0,-11.249983)">
    <path
       style="fill:#000000;fill-opacity:1;stroke:none;stroke-width:0.2;stroke-linejoin:miter;stroke-miterlimit:4;stroke-dasharray:none;stroke-opacity:1"
       id="path3862"
       d="m 160.76989,60.506734 c 0.23623,4.331015 -0.24662,8.657325 -0.71967,12.955688 -1.06832,8.131955 -1.99938,16.276505 -2.64963,24.452796 -0.73093,9.751592 -0.5129,19.526292 0.19183,29.268742 0.71486,9.26708 2.26743,18.435 4.28107,27.5001 1.35759,6.119 3.16434,12.13086 5.79046,17.82663 1.21296,2.54535 2.80288,4.74736 5.31967,6.06844 3.06401,1.18472 6.39541,1.45748 9.63222,1.84249 7.3812,0.79071 14.75736,1.62188 22.12522,2.52865 11.72307,1.49791 23.42159,3.17695 35.14065,4.70511 13.27937,1.77063 26.62649,2.9244 39.99657,3.71675 11.11092,0.60275 22.23926,0.77197 33.36436,0.67312 7.28572,-0.0981 14.56727,-0.38985 21.83437,-0.91741 3.46697,-0.34842 7.06951,-0.43316 10.36396,-1.67953 1.5584,-0.74083 1.65397,-2.36635 1.89357,-3.9073 0.49348,-5.19687 0.64987,-10.42097 0.95904,-15.63171 0.489,-8.29701 1.42999,-16.55473 2.57532,-24.78373 1.24682,-8.58649 2.71031,-17.1373 3.89652,-25.73279 1.0165,-7.68065 1.40896,-15.42139 1.56112,-23.161415 0.0679,-5.406903 -0.11216,-10.814944 -0.53697,-16.204967 -0.25773,-2.329833 -0.33351,-4.745963 -1.27053,-6.927678 -0.51313,-0.947705 -1.4873,-1.072769 -2.46433,-1.249934 -3.24027,-0.293989 -6.50724,-0.06131 -9.75402,0.02037 -7.59204,0.139994 -15.18547,0.04071 -22.7769,-0.08285 -11.38748,-0.178972 -22.77464,-0.373272 -34.15998,-0.657974 -13.94447,-0.328663 -27.86412,-1.221385 -41.76668,-2.313686 -14.81287,-1.256099 -29.6012,-2.78139 -44.39677,-4.223096 -12.17252,-1.205476 -24.3761,-2.028627 -36.5845,-2.761901 -5.80253,-0.634198 -11.60726,-1.408287 -17.45139,-1.449462 0,0 -0.0138,-0.110934 -0.0138,-0.110934 v 0 c 5.77378,-1.481278 11.69084,-1.992072 17.64658,-2.082446 12.28343,0.487022 24.52891,1.568707 36.7562,2.823049 14.76993,1.473301 29.52732,3.082266 44.31784,4.340556 13.8392,1.103667 27.6963,1.998286 41.5787,2.321245 11.37091,0.283003 22.74368,0.47612 34.11714,0.62544 7.53703,0.06471 15.07847,0.151784 22.61172,-0.160271 3.52837,-0.141605 7.0835,-0.461293 10.60712,-0.126693 2.33407,0.458152 4.34599,1.331677 5.37326,3.634036 0.98888,2.593523 1.23854,5.3569 1.43563,8.110075 0.35481,5.509265 0.5796,11.026663 0.47527,16.549052 -0.14811,7.885784 -0.5321,15.771854 -1.60007,23.593994 -1.1557,8.60006 -2.68007,17.1423 -3.95401,25.725 -1.08283,8.13066 -2.04399,16.2835 -2.38564,24.4848 -0.23408,5.35493 -0.29821,10.71928 -0.68522,16.06569 -0.5102,3.34892 -1.24772,5.82657 -4.58586,7.28618 -3.71171,1.24923 -7.62231,1.50788 -11.50819,1.7845 -7.35414,0.4469 -14.71993,0.70125 -22.08786,0.74485 -11.21003,0.0184 -22.42064,-0.17987 -33.61365,-0.84144 -13.45306,-0.83187 -26.88611,-1.961 -40.25336,-3.72141 -11.71029,-1.48833 -23.40477,-3.10023 -35.12497,-4.50949 -7.36824,-0.83845 -14.74486,-1.59226 -22.12888,-2.27828 -3.80707,-0.40282 -7.73189,-0.65497 -11.26806,-2.24875 -3.55776,-2.03491 -5.31257,-4.45099 -7.05677,-8.14515 -2.64907,-6.00565 -4.46394,-12.31331 -5.83384,-18.72902 -1.9032,-9.27441 -3.48146,-18.62012 -4.12903,-28.07764 -0.6276,-9.92526 -0.91409,-19.8775 -0.0941,-29.804755 0.62352,-8.214662 1.54101,-16.395904 2.56001,-24.570518 0.42712,-4.080116 0.9016,-8.182994 0.68508,-12.292288 0,0 3.76411,-0.262847 3.76411,-0.262847 z"
       inkscape:connector-curvature="0" />
    <path
       style="fill:#000000;fill-opacity:1;stroke:none;stroke-width:0.2;stroke-linejoin:miter;stroke-miterlimit:4;stroke-dasharray:none;stroke-opacity:1"
       id="path3880"
       d="m 192.87025,109.83923 c -2.68594,-0.0873 -4.94665,1.07189 -7.11463,2.52735 -3.21174,2.41673 -5.21932,5.78497 -6.58794,9.49421 -0.84612,3.15799 -1.03164,5.67345 0.9058,8.41569 1.91769,1.8413 4.80748,2.93255 7.35334,3.5395 2.33463,0.27384 1.16117,0.19547 3.52046,0.23376 0,0 0.0279,0.10826 0.0279,0.10826 v 0 c -2.22821,1.22891 -1.06491,0.68028 -3.49539,1.63419 -4.98479,1.23017 -7.75021,1.07442 -11.391,-2.91055 -0.37112,-0.59262 -0.80505,-1.15027 -1.11338,-1.77786 -1.69246,-3.445 -1.30384,-7.36327 -0.22254,-10.91436 0.29509,-0.764 0.54804,-1.54564 0.88529,-2.29199 1.6997,-3.76159 4.35979,-6.96849 7.72502,-9.34976 3.23338,-1.91993 6.26752,-3.21278 10.09973,-2.54309 0,0 -0.59263,3.83465 -0.59263,3.83465 z"
       inkscape:connector-curvature="0" />
    <path
       style="fill:#000000;fill-opacity:1;stroke:none;stroke-width:0.2;stroke-linejoin:miter;stroke-miterlimit:4;stroke-dasharray:none;stroke-opacity:1"
       id="path3882"
       d="m 199.80826,112.42451 c -0.3495,3.29481 -0.61808,6.59689 -0.84565,9.9022 -0.20097,2.05021 -0.13953,4.14302 -0.51552,6.17625 -0.28876,1.56155 -0.85909,3.09501 -1.38623,4.58814 -0.48895,1.11934 -0.32853,0.60342 -0.54979,1.52477 0,0 -0.11142,0.009 -0.11142,0.009 v 0 c -0.36745,-0.92513 -0.15389,-0.40136 -0.6497,-1.56759 -0.44695,-1.53376 -0.91579,-3.11885 -1.07908,-4.7143 -0.21322,-2.0834 0.0482,-4.19144 0.0751,-6.27491 0.18432,-3.41142 0.39665,-6.82951 0.95314,-10.20432 0,0 4.10912,0.56076 4.10912,0.56076 z"
       inkscape:connector-curvature="0" />
    <path
       style="fill:#000000;fill-opacity:1;stroke:none;stroke-width:0.2;stroke-linejoin:miter;stroke-miterlimit:4;stroke-dasharray:none;stroke-opacity:1"
       id="path3884"
       d="m 205.89476,122.92375 c -1.33228,0.26421 -2.64826,0.72036 -4.00093,0.87939 -1.54944,0.18217 -3.15683,0.0131 -4.70809,-0.0574 -1.6863,-0.14569 -0.87725,-0.0618 -2.42779,-0.24533 0,0 -0.0255,-0.10884 -0.0255,-0.10884 v 0 c 1.30307,-0.85208 0.61866,-0.41375 2.05551,-1.3114 1.34808,-0.7625 2.6991,-1.63806 4.15485,-2.18577 1.25614,-0.47261 2.61456,-0.67274 3.89071,-1.08287 0,0 1.06121,4.11223 1.06121,4.11223 z"
       inkscape:connector-curvature="0" />
    <path
       style="fill:#000000;fill-opacity:1;stroke:none;stroke-width:0.2;stroke-linejoin:miter;stroke-miterlimit:4;stroke-dasharray:none;stroke-opacity:1"
       id="path3886"
       d="m 208.70166,109.03195 c 0.13527,3.41272 -0.18416,6.82178 -0.48501,10.2174 -0.15943,3.75473 -1.33069,7.3165 -2.65085,10.80102 -0.077,0.32273 -0.15399,0.64545 -0.23098,0.96817 0,0 -0.11177,0.002 -0.11177,0.002 v 0 c -0.0882,-0.33075 -0.17649,-0.6615 -0.26474,-0.99226 -1.04926,-3.61918 -1.5888,-7.37013 -1.14944,-11.13537 0.23512,-3.21915 0.48983,-6.44127 0.52921,-9.6701 0,0 4.36358,-0.19078 4.36358,-0.19078 z"
       inkscape:connector-curvature="0" />
    <path
       style="fill:#000000;fill-opacity:1;stroke:none;stroke-width:0.2;stroke-linejoin:miter;stroke-miterlimit:4;stroke-dasharray:none;stroke-opacity:1"
       id="path3888"
       d="m 215.34817,114.72835 c 0.16084,2.62291 -0.25737,5.2275 -0.70965,7.80126 -0.38454,2.2512 -0.87569,4.51048 -0.56292,6.79625 0.2534,1.25309 1.0879,1.7984 2.17803,2.28723 1.61942,0.80163 3.14361,1.92334 4.98429,2.20373 0.35751,0.0545 0.72324,0.008 1.08486,0.0117 0,0 0.0215,0.10969 0.0215,0.10969 v 0 c -2.48642,1.02029 -4.98482,2.45957 -7.76706,1.86658 -3.06085,-1.1561 -4.578,-2.67093 -5.22441,-5.95232 -0.26598,-2.75587 0.13088,-5.46221 0.75331,-8.15247 0.41916,-2.19665 0.89681,-4.4086 0.88016,-6.65588 0,0 4.36185,-0.31579 4.36185,-0.31579 z"
       inkscape:connector-curvature="0" />
    <path
       style="fill:#000000;fill-opacity:1;stroke:none;stroke-width:0.2;stroke-linejoin:miter;stroke-miterlimit:4;stroke-dasharray:none;stroke-opacity:1"
       id="path3890"
       d="m 211.52695,124.46092 c 2.02139,0.0299 4.37143,0.6808 6.37883,0.33593 0.39255,-0.0674 0.75143,-0.26449 1.12714,-0.39673 0,0 0.0443,0.10264 0.0443,0.10264 v 0 c -2.34626,1.2069 -4.31747,3.09474 -6.77584,4.12124 0,0 -0.77441,-4.16308 -0.77441,-4.16308 z"
       inkscape:connector-curvature="0" />
    <path
       style="fill:#000000;fill-opacity:1;stroke:none;stroke-width:0.2;stroke-linejoin:miter;stroke-miterlimit:4;stroke-dasharray:none;stroke-opacity:1"
       id="path3892"
       d="m 210.16064,115.54718 c 2.17305,-0.26553 4.28658,-1.06591 6.47429,-1.21898 0.51751,-0.0362 1.03748,0.0115 1.55622,0.0172 1.84047,0.0256 3.67354,0.17062 5.51045,0.0416 0,0 0.032,0.10712 0.032,0.10712 v 0 c -1.62709,0.90922 -3.09953,2.05316 -4.70656,3.00049 -0.46298,0.26629 -0.90402,0.57498 -1.38892,0.79887 -2.03186,0.93811 -4.3341,1.16954 -6.45388,1.83549 0,0 -1.02356,-4.58182 -1.02356,-4.58182 z"
       inkscape:connector-curvature="0" />
    <path
       style="fill:#000000;fill-opacity:1;stroke:none;stroke-width:0.2;stroke-linejoin:miter;stroke-miterlimit:4;stroke-dasharray:none;stroke-opacity:1"
       id="path3894"
       d="m 231.93858,117.32938 c -0.82328,2.83902 -1.44901,5.7245 -1.95557,8.63502 -0.39316,2.57657 -0.67961,5.1825 -0.56663,7.79145 0.0246,0.11769 0.0951,0.47141 0.0738,0.35307 -0.24487,-1.36109 -0.36047,-1.21242 -3.08685,-1.55249 -0.33919,-0.0423 -0.45692,0.58724 -0.79286,0.65032 -0.18391,0.0345 0.11948,-0.35474 0.17322,-0.53397 0.10556,-0.35207 0.20309,-0.70649 0.30464,-1.05973 0.93554,-3.80619 1.78803,-7.63264 2.6583,-11.45425 0.39095,-1.63764 0.74126,-3.28721 1.20743,-4.90607 0.0755,-0.26221 0.47379,-1.62052 0.70291,-1.8876 0.38099,-0.44411 0.88844,-0.76173 1.33265,-1.1426 1.0141,0.40077 2.16481,0.555 3.04229,1.20233 0.3262,0.24063 0.56043,2.13392 0.60983,2.53833 0.16986,1.39032 0.28026,2.79187 0.4189,4.18562 0.3003,2.20836 0.38255,4.53398 1.29899,6.59943 0.0408,0.0311 0.14926,0.13706 0.12247,0.0933 -0.75312,-1.23084 -1.34179,-0.51276 -1.88878,-0.67197 -0.0197,-0.006 0.27701,-0.4081 0.56524,-0.80838 1.41195,-2.23878 2.48728,-4.66828 3.54578,-7.08799 0.35185,-0.71974 1.47789,-4.22568 2.51486,-4.22091 1.06129,0.005 2.02934,0.62226 3.04401,0.93339 0.15904,0.44254 0.36303,0.87141 0.47713,1.32761 0.0856,0.34224 0.16034,1.82402 0.17784,2.13882 0.078,1.40415 0.1378,2.80785 0.22883,4.21134 -0.0463,1.54202 0.40768,3.10057 0.33418,4.64054 -0.0596,1.24866 -0.4367,2.60082 -0.67631,3.83057 -0.25084,1.1214 -0.14602,0.59684 -0.3237,1.57182 0,0 -0.10352,0.0422 -0.10352,0.0422 v 0 c -0.85671,-0.68945 -0.42091,-0.28799 -1.27867,-1.23484 -0.75067,-1.12671 -1.59894,-2.40717 -1.98477,-3.71927 -0.45669,-1.55303 -0.29072,-3.26604 -0.55179,-4.84835 -0.10063,-1.71911 -0.17911,-3.44065 -0.29712,-5.15864 -0.0123,-0.17953 -0.17606,-0.41617 -0.0437,-0.53808 0.10447,-0.0962 0.18022,0.21956 0.27033,0.32934 2.88895,0.55085 2.20216,1.23414 3.42596,-0.19946 0.0478,-0.056 -0.12391,0.0855 -0.16571,0.1461 -0.12123,0.17581 -0.21854,0.36716 -0.31837,0.55593 -0.32524,0.61505 -0.63021,1.28699 -0.9245,1.91352 -1.21584,2.60167 -2.37256,5.23773 -3.77218,7.74771 -0.42713,0.67235 -0.92625,1.59565 -1.59456,2.07944 -1.92416,1.39289 -4.01677,0.7176 -5.03678,-1.31449 -1.00163,-2.51612 -1.2865,-5.21597 -1.57621,-7.89254 -0.10114,-0.95213 -0.18961,-1.90557 -0.29165,-2.8576 -0.0689,-0.6432 -0.25972,-1.27846 -0.24469,-1.92517 0.001,-0.0433 0.0844,0.0196 0.12667,0.0294 0.88801,0.19835 1.77602,0.3967 2.66403,0.59505 0.2925,-0.31657 0.58696,-0.63134 0.87749,-0.94971 0.0559,-0.0613 -0.13634,0.10416 -0.17353,0.17828 -0.12704,0.25316 -0.21983,0.52253 -0.31246,0.7902 -0.52712,1.52311 -0.88381,3.09914 -1.29231,4.65581 -0.92927,3.83121 -1.7211,7.69243 -2.51779,11.55299 -0.19179,0.87181 -0.57526,3.77821 -1.80332,3.94033 -2.99488,0.39536 -3.56372,-0.71527 -3.74088,-2.70584 -0.0862,-2.92483 0.26449,-5.8419 0.70326,-8.72938 0.52972,-3.04999 1.20538,-6.06929 2.09876,-9.0351 0,0 4.31537,1.17523 4.31537,1.17523 z"
       inkscape:connector-curvature="0" />
    <path
       style="fill:#000000;fill-opacity:1;stroke:none;stroke-width:0.2;stroke-linejoin:miter;stroke-miterlimit:4;stroke-dasharray:none;stroke-opacity:1"
       id="path3896"
       d="m 259.82302,115.84353 c 0.12696,2.77597 0.11543,5.55693 0.15674,8.33536 -0.18701,2.43816 0.43187,5.54788 -0.0306,7.92613 -0.0771,0.39631 -0.26092,0.76415 -0.39139,1.14623 -0.24838,0.89858 -0.81308,1.53787 -1.39825,2.21644 0,0 -0.10808,0.0285 -0.10808,0.0285 v 0 c -0.80411,-0.52038 -1.34024,-1.22843 -1.7248,-2.11139 -0.16163,-0.37189 -0.37631,-0.72497 -0.48489,-1.11565 -0.65453,-2.35516 -0.24897,-5.57031 -0.52186,-8.01087 -0.0538,-2.80361 -0.11437,-5.61287 0.0202,-8.41477 0,0 4.483,0 4.483,0 z"
       inkscape:connector-curvature="0" />
    <path
       style="fill:#000000;fill-opacity:1;stroke:none;stroke-width:0.2;stroke-linejoin:miter;stroke-miterlimit:4;stroke-dasharray:none;stroke-opacity:1"
       id="path3898"
       d="m 265.66693,138.77655 c -2.769,0.41971 -5.57549,0.53177 -8.37245,0.55509 -3.00329,0.14466 -5.44662,-0.78786 -7.68895,-2.74703 -0.22483,-0.19423 -0.44966,-0.38845 -0.67449,-0.58267 0,0 0.0501,-0.1 0.0501,-0.1 v 0 c 0.26511,0.0512 0.53022,0.10236 0.79533,0.15354 2.48623,-0.39868 4.82125,-1.46221 7.38372,-1.33586 2.59221,-0.13185 5.19012,-0.22113 7.7684,-0.53934 0,0 0.73837,4.59622 0.73837,4.59622 z"
       inkscape:connector-curvature="0" />
    <path
       style="fill:#000000;fill-opacity:1;stroke:none;stroke-width:0.2;stroke-linejoin:miter;stroke-miterlimit:4;stroke-dasharray:none;stroke-opacity:1"
       id="path3900"
       d="m 265.72266,116.83181 c -3.00555,0.11346 -6.00177,0.3845 -8.99807,0.63581 -2.42915,0.33597 -4.88936,0.0412 -7.1366,-0.94599 -0.13658,-0.018 -0.27317,-0.036 -0.40975,-0.054 0,0 -0.0361,-0.1058 -0.0361,-0.1058 v 0 c 0.11313,-0.10311 0.22626,-0.20621 0.33939,-0.30931 1.77433,-1.88667 4.23528,-2.82844 6.78034,-3.09335 3.12176,-0.3772 6.25721,-0.65162 9.40377,-0.68264 0,0 0.057,4.55525 0.057,4.55525 z"
       inkscape:connector-curvature="0" />
    <path
       style="fill:#000000;fill-opacity:1;stroke:none;stroke-width:0.2;stroke-linejoin:miter;stroke-miterlimit:4;stroke-dasharray:none;stroke-opacity:1"
       id="path3902"
       d="m 279.44709,118.2359 c -2.38953,1.11823 -4.27535,2.8885 -5.86925,4.95323 -1.70302,2.50242 -2.21618,4.90823 -1.60068,7.84728 0.7048,2.44081 2.42697,3.92776 4.6455,4.97279 2.02068,0.98898 4.28268,2.14673 6.60969,2.077 0.46757,-0.014 0.91855,-0.17754 1.37782,-0.2663 0,0 0.0319,0.10712 0.0319,0.10712 v 0 c -4.06413,1.65345 1.6174,-0.71615 -2.76219,1.32147 -2.24468,1.04434 -4.69924,1.55676 -7.1378,0.97582 -0.58769,-0.25351 -1.20058,-0.45514 -1.76305,-0.76051 -2.9591,-1.60653 -4.84276,-4.41504 -5.71194,-7.60901 -0.10096,-0.66512 -0.25569,-1.32429 -0.30287,-1.99538 -0.24558,-3.49306 0.98585,-6.7854 2.98998,-9.59533 2.18575,-2.61902 4.69112,-4.91842 7.95179,-6.11082 0,0 1.54107,4.08264 1.54107,4.08264 z"
       inkscape:connector-curvature="0" />
    <path
       style="fill:#000000;fill-opacity:1;stroke:none;stroke-width:0.2;stroke-linejoin:miter;stroke-miterlimit:4;stroke-dasharray:none;stroke-opacity:1"
       id="path3904"
       d="m 292.89057,118.78426 c -0.60344,3.2247 -1.38851,6.41077 -2.11633,9.60855 -0.63254,2.74788 -1.07471,5.5341 -1.40014,8.33364 -0.38082,-0.87862 0.11464,1.0258 -0.10375,0.84473 -0.18809,-0.15595 -0.16867,-0.54605 -0.40404,-0.61158 -0.8395,-0.23371 -1.7331,-0.21533 -2.60446,-0.22599 -0.12054,-0.002 0.18717,0.23219 0.30271,0.19782 0.24083,-0.0716 0.39579,-0.30963 0.5937,-0.46444 0.85326,-1.06324 0.55968,-0.45159 0.83693,-1.85534 0,0 0.11018,0.019 0.11018,0.019 v 0 c -0.21257,1.44166 -0.24501,0.73443 0.0795,2.12243 0.036,0.14665 0.52086,1.79765 0.19841,1.91889 -2.83916,1.06748 -3.581,-0.25544 -3.50935,-2.37219 0.22966,-3.00878 0.8174,-5.97176 1.47571,-8.91339 0.71247,-3.1342 1.4913,-6.25517 2.10349,-9.41087 0,0 4.43749,0.80876 4.43749,0.80876 z"
       inkscape:connector-curvature="0" />
    <path
       style="fill:#000000;fill-opacity:1;stroke:none;stroke-width:0.2;stroke-linejoin:miter;stroke-miterlimit:4;stroke-dasharray:none;stroke-opacity:1"
       id="path3906"
       d="m 292.95666,114.51113 c 0.9733,2.44487 2.08425,4.82948 3.27858,7.17324 1.40732,2.71003 3.22551,5.17531 4.66016,7.86692 0.75002,1.75771 0.69768,3.67076 1.05252,5.49964 0,0 -0.10039,0.0492 -0.10039,0.0492 v 0 c -1.19716,-1.33789 -3.02262,-1.98764 -4.31641,-3.2449 -2.11587,-2.46257 -3.84749,-5.22479 -5.3621,-8.09302 -1.2736,-2.48604 -2.41316,-5.03404 -3.33036,-7.67506 0,0 4.118,-1.576 4.118,-1.576 z"
       inkscape:connector-curvature="0" />
    <path
       style="fill:#000000;fill-opacity:1;stroke:none;stroke-width:0.2;stroke-linejoin:miter;stroke-miterlimit:4;stroke-dasharray:none;stroke-opacity:1"
       id="path3908"
       d="m 299.19519,133.2427 c -1.44616,0.11527 -2.88282,0.50162 -4.34247,0.41996 -0.40595,-0.0227 -2.42634,-0.35382 -2.82671,-0.41737 -1.2406,-0.26225 -2.36447,-0.68151 -3.62587,-0.80594 0,0 0.005,-0.11167 0.005,-0.11167 v 0 c 0.34703,-0.004 0.70226,0.0642 1.04106,-0.011 0.30787,-0.0683 2.04213,-0.8974 2.29513,-1.01548 0.81018,-0.40934 1.58364,-0.89217 2.40961,-1.26865 1.43637,-0.65469 3.03202,-0.89822 4.57057,-1.17927 0,0 0.47374,4.38939 0.47374,4.38939 z"
       inkscape:connector-curvature="0" />
    <path
       style="fill:#000000;fill-opacity:1;stroke:none;stroke-width:0.2;stroke-linejoin:miter;stroke-miterlimit:4;stroke-dasharray:none;stroke-opacity:1"
       id="path3910"
       d="m 309.81477,113.09994 c 0.94472,2.77978 1.18047,5.7183 1.36327,8.62772 0.14359,3.13797 0.12012,6.28055 0.4314,9.40858 0.23008,1.53734 0.34811,3.36408 1.59475,4.45709 0.84497,0.60104 1.95752,0.49259 2.88875,0.8297 0.32959,0.11932 0.62312,0.32125 0.93466,0.48187 1.3226,0.63158 2.68965,1.12478 4.11568,1.45316 0,0 0.0159,0.11065 0.0159,0.11065 v 0 c -1.39763,0.75675 -2.78273,1.55734 -4.3058,2.04247 -0.41696,0.12542 -0.81883,0.32207 -1.25087,0.37625 -2.02599,0.25409 -4.39955,-0.80164 -5.91201,-2.0593 -1.93648,-2.2524 -2.45203,-4.36845 -2.73404,-7.28789 -0.24019,-3.1795 -0.25318,-6.36458 -0.33343,-9.55092 -0.12936,-2.50755 -0.29605,-5.03449 -0.94041,-7.47212 0,0 4.13221,-1.41726 4.13221,-1.41726 z"
       inkscape:connector-curvature="0" />
    <path
       style="fill:#000000;fill-opacity:1;stroke:none;stroke-width:0.2;stroke-linejoin:miter;stroke-miterlimit:4;stroke-dasharray:none;stroke-opacity:1"
       id="path3912"
       d="m 333.06789,118.81355 c -1.60121,-0.96965 -3.3016,-0.99039 -5.02076,-0.3768 -1.51561,0.7413 -2.2702,2.02408 -2.46848,3.65173 0.0436,1.63752 1.20237,2.56641 2.41427,3.47721 2.33537,1.42561 4.76004,2.64719 6.94584,4.30535 1.95799,1.78837 3.19619,4.22231 2.4978,6.92032 -0.13542,0.52305 -0.40169,1.00314 -0.60256,1.50472 -2.18599,3.54211 -4.14941,4.02277 -8.10557,3.8262 -1.79697,-0.32282 -0.92588,-0.16781 -2.61318,-0.46557 0,0 -0.006,-0.11162 -0.006,-0.11162 v 0 c 1.53284,-0.46541 0.78685,-0.14856 2.23039,-0.96825 0.81939,-0.56983 1.21801,-0.78794 1.91428,-1.50029 0.25609,-0.26199 0.44519,-0.58481 0.70462,-0.8435 0.5792,-0.57759 1.34294,-0.98331 1.76051,-1.72502 0.72144,-1.34891 0.6028,-2.06033 -0.52457,-3.19446 -2.06835,-1.76401 -4.58684,-2.81891 -6.8222,-4.34531 -2.60498,-2.03872 -4.25259,-4.14388 -3.99658,-7.62376 0.71834,-3.53132 2.16784,-5.43058 5.54008,-6.84733 3.24647,-0.81211 5.50291,-0.60646 8.37817,1.188 0,0 -2.22605,3.12838 -2.22605,3.12838 z"
       inkscape:connector-curvature="0" />
    <path
       style="fill:#000000;fill-opacity:1;stroke:none;stroke-width:0.2;stroke-linejoin:miter;stroke-miterlimit:4;stroke-dasharray:none;stroke-opacity:1"
       id="path3914"
       d="m 338.38467,263.35624 c -1.92122,-3.96451 -3.56476,-8.05942 -5.22547,-12.13811 -3.166,-7.91102 -6.058,-15.9261 -8.85444,-23.97383 -2.64914,-7.73312 -5.10961,-15.52835 -7.60129,-23.31296 -0.80807,-2.52699 -1.64711,-5.04354 -2.51812,-7.54946 -0.0488,-0.14031 -1.06643,-3.01372 -1.13588,-3.33456 -0.0947,-0.43771 -0.0787,-0.89221 -0.11806,-1.33832 -0.10568,-1.06527 -0.0241,-2.10162 0.29609,-3.11831 0,0 0.0976,-0.0544 0.0976,-0.0544 v 0 c 1.09638,0.35525 1.92574,1.05273 2.64961,1.95138 0.28962,0.37365 0.63344,0.71098 0.86887,1.12094 0.34716,0.60447 1.14646,2.84924 1.34178,3.40607 0.88955,2.53606 1.68611,5.10428 2.48412,7.67007 2.40014,7.77772 4.74057,15.57543 7.33943,23.28998 2.7077,8.0115 5.54178,15.98094 8.66278,23.84212 1.60126,4.09831 3.27096,8.17597 4.69834,12.33861 0,0 -2.9854,1.20079 -2.9854,1.20079 z"
       inkscape:connector-curvature="0" />
    <path
       style="fill:#000000;fill-opacity:1;stroke:none;stroke-width:0.2;stroke-linejoin:miter;stroke-miterlimit:4;stroke-dasharray:none;stroke-opacity:1"
       id="path3916"
       d="m 184.31734,261.97928 c -0.0467,-5.11673 0.8463,-10.1791 1.71701,-15.202 1.80587,-9.34606 3.93094,-18.62691 5.91946,-27.93528 1.72137,-8.12927 3.01186,-16.33749 4.21544,-24.55614 0.63405,-2.63093 0.44036,-5.6496 1.64922,-8.1404 0.36097,-0.74377 0.79797,-1.10419 1.35246,-1.66099 0.77571,-0.46399 1.04425,-0.66556 1.7661,-0.0802 0,0 -0.0543,0.0977 -0.0543,0.0977 v 0 c 0.11622,0.3191 0.55028,0.38998 0.54276,0.80401 0.12706,0.55232 0.29253,1.15921 0.28754,1.72728 -0.0234,2.66165 -1.07027,5.27126 -1.21786,7.92031 -1.3425,8.27524 -2.76798,16.53859 -4.54169,24.73424 -1.93672,9.25213 -4.1044,18.46065 -5.69217,27.78209 -0.74239,4.81696 -1.42973,9.65276 -1.52771,14.53434 0,0 -4.41621,-0.0249 -4.41621,-0.0249 z"
       inkscape:connector-curvature="0" />
    <path
       style="fill:#ffff00;fill-opacity:1;stroke:none;stroke-width:1.995996;stroke-linejoin:miter;stroke-miterlimit:4;stroke-dasharray:none;stroke-opacity:1"
       d="m 1057.8718,679.66204 c -47.8995,-2.74473 -123.26073,-10.54839 -199.36054,-20.64382 -47.92573,-6.35783 -109.12016,-14.08074 -135.98762,-17.16203 -56.57189,-6.4879 -67.64451,-8.91701 -76.27203,-16.73258 -17.28608,-15.6592 -39.5045,-94.44573 -47.71974,-169.21423 -5.24993,-47.78061 -3.73871,-115.36482 4.30002,-192.30313 l 7.38007,-70.63435 10.60659,5.3e-4 c 16.72935,8.3e-4 106.25215,7.32564 194.12386,15.88333 162.90171,15.86476 267.42369,20.92102 434.70509,21.02893 69.9056,0.0451 85.38,0.71275 87.9374,3.79414 4.1264,4.97207 8.0103,43.4574 8.0166,79.43747 0.01,41.8707 -3.7744,81.63093 -14.4533,151.95477 -8.7763,57.79479 -14.7428,113.74601 -18.6215,174.62476 -0.8955,14.05714 -3.009,27.37883 -4.6965,29.60377 -3.9411,5.19621 -28.038,8.83822 -73.0425,11.03971 l -35.6472,1.74379 -6.4015,-6.90733 c -8.0125,-8.64559 -10.762,-8.72378 -10.762,-0.30598 v 6.60134 l -54.7912,-0.48845 c -30.1351,-0.26865 -61.3264,-0.86295 -69.314,-1.32064 z m 211.903,-193.46922 c 14.6653,-16.41194 7.3788,-34.34847 -20.2992,-49.969 -15.1456,-8.54767 -19.3736,-15.33218 -14.837,-23.80883 3.4008,-6.35444 10.7642,-8.95025 19.3067,-6.80621 4.9523,1.24295 7.3975,0.091 10.7867,-5.0815 4.147,-6.32909 4.108,-6.83581 -0.7248,-9.42225 -7.4808,-4.00357 -25.6794,-3.33425 -34.587,1.27206 -4.2602,2.20303 -9.5483,7.49111 -11.7513,11.75129 -9.1821,17.75627 -1.9381,34.44668 20.5299,47.3016 19.931,11.40336 22.1005,14.4188 16.5109,22.94956 -2.4571,3.75006 -8.7134,9.32339 -13.9027,12.38519 -8.3688,4.9377 -8.8692,5.80425 -4.4266,7.66649 10.0414,4.20917 25.73,0.3388 33.3944,-8.2384 z m -65.4429,0.70983 c 5.1323,-2.44743 9.3315,-5.22504 9.3315,-6.17246 0,-0.94743 -6.6452,-3.98138 -14.7671,-6.74209 -8.1219,-2.76073 -15.7424,-6.84181 -16.9344,-9.06908 -1.192,-2.22726 -3.3693,-20.33054 -4.8384,-40.22952 -1.4692,-19.89897 -3.3809,-37.32826 -4.2483,-38.73176 -1.0072,-1.62966 -4.4042,-1.56629 -9.4003,0.17536 l -7.8231,2.72717 1.3694,28.14143 c 2.5738,52.88922 5.2423,62.72659 19.0477,70.21734 9.5324,5.17218 16.9269,5.0894 28.263,-0.31639 z m -138.7516,-2.04132 c 4.6618,-2.4107 10.9818,-3.27693 16.9007,-2.31641 8.7571,1.42108 9.5778,0.97475 11.1269,-6.05137 0.9198,-4.17207 2.1225,-9.05131 2.6726,-10.84273 1.4317,-4.66247 36.2059,-2.97097 42.2993,2.05756 4.3597,3.59784 4.5357,3.10076 2.7903,-7.87907 -1.0247,-6.44554 -5.9757,-18.4894 -11.0024,-26.76413 -5.0266,-8.27473 -12.181,-21.68882 -15.8986,-29.8091 l -6.7592,-14.76415 -8.1782,3.33704 c -4.498,1.83537 -8.5282,5.07596 -8.9561,7.20131 -0.4278,2.12534 -3.781,16.34079 -7.4515,31.58989 -3.6704,15.2491 -6.6949,32.18154 -6.7211,37.62765 -0.042,8.80064 -0.7849,9.90201 -6.6776,9.90201 -9.4673,0 -29.5404,-10.03618 -35.6773,-17.83804 -6.177,-7.85282 -6.7611,-21.69701 -1.3563,-32.14875 3.7464,-7.24466 16.7834,-19.82913 22.525,-21.74297 4.0182,-1.33941 -2.129,-18.04848 -6.64,-18.04848 -7.7586,0 -26.5791,17.647 -33.6138,31.51793 -12.0387,23.73791 -8.7903,44.13455 9.6006,60.28195 7.8924,6.92959 11.9758,8.5405 21.6488,8.5405 6.5569,0 15.2725,-1.7328 19.3679,-3.85064 z m -61.2253,-2.48472 c 0.5756,-0.57563 0.2949,-5.05348 -0.6239,-9.95078 -1.6156,-8.61224 -2.0241,-8.87046 -12.45636,-7.87558 -9.28674,0.88563 -10.54633,0.40413 -9.06198,-3.46402 0.94819,-2.47093 1.72398,-16.87197 1.72398,-32.00229 v -27.50967 h 10.56214 10.56212 V 390.7373 379.90032 l -21.7844,1.86342 c -20.57329,1.75982 -37.13193,6.81439 -40.57519,12.38568 -2.17834,3.52462 0.085,5.13649 10.07502,7.17495 l 8.71575,1.77846 2.78785,30.26202 c 1.95677,21.24074 1.95677,30.82943 0,32.16538 -1.53331,1.04684 -7.82576,2.66525 -13.98317,3.59643 -13.04037,1.97214 -12.33339,4.87293 2.93934,12.06079 8.88918,4.18353 14.50497,4.86183 30.48433,3.68201 10.77331,-0.79546 20.05877,-1.91724 20.63447,-2.49285 z M 713.9419,469.8347 c 10.96732,-3.39507 11.0626,-7.52809 0.17354,-7.52809 -13.66609,0 -31.23386,-9.9986 -35.49765,-20.2033 -4.12041,-9.86152 -2.95359,-17.83803 4.963,-33.9277 9.14298,-18.58217 26.0363,-33.0067 38.65588,-33.0067 5.93521,0 6.77667,-1.02486 9.21408,-11.22228 1.6631,-6.95793 1.31369,-7.26148 -8.35835,-7.26148 -14.19597,0 -35.8905,11.62571 -47.00447,25.18886 -23.86222,29.12069 -26.10885,69.81482 -4.69336,85.01282 12.45626,8.83988 21.49158,9.4659 42.54733,2.94787 z m 153.23972,2.37392 c 1.49362,-1.81537 4.21055,-10.9323 6.03761,-20.25986 2.42185,-12.36392 3.84003,-15.55874 5.23392,-11.79074 5.12763,13.86132 19.13765,14.98653 27.4916,2.20798 l 5.26805,-8.05819 5.87432,12.67913 c 11.04687,23.84356 15.67624,13.84659 14.52261,-31.36124 -0.52679,-20.64346 -4.64127,-28.17386 -14.60721,-26.7345 -3.88095,0.56052 -8.0398,5.94838 -13.86638,17.96414 l -8.32276,17.16349 -1.9141,-17.43868 c -2.1829,-19.88775 -3.17593,-22.10239 -11.00509,-24.54364 -6.04569,-1.88513 -14.14105,3.94065 -14.14105,10.17652 0,1.90533 -2.13197,4.02175 -4.7377,4.70317 -5.9659,1.56011 -10.99789,21.55084 -13.03683,51.79167 -1.1618,17.2314 -0.68054,22.55887 2.20276,24.38454 5.27418,3.33948 11.84399,2.95241 15.00025,-0.88379 z m -32.43519,-4.70393 c 5.39502,-2.17052 6.65831,-3.59419 3.96081,-4.46356 -8.18453,-2.63777 -25.15776,-11.98711 -27.02506,-14.88615 -3.2521,-5.04897 -2.39079,-6.53089 7.834,-13.47881 l 9.85483,-6.69653 h -8.70187 c -8.19493,0 -8.65366,-0.49025 -7.87443,-8.4154 0.68812,-6.99851 3.14373,-9.77715 14.58478,-16.50335 22.71577,-13.35462 22.90316,-14.73352 1.95384,-14.37688 -10.09345,0.17182 -21.91645,1.07292 -26.27333,2.00245 -7.62299,1.62632 -7.99808,2.38599 -9.95006,20.15174 -4.50623,41.01289 -3.1527,49.12042 9.52569,57.05792 8.79784,5.50803 17.71759,5.39929 32.1108,-0.39143 z m -83.99324,-26.4212 c 0.85357,-7.20712 2.87175,-13.12008 4.48482,-13.13991 1.61308,-0.0198 5.4407,-0.7092 8.50582,-1.53193 4.98442,-1.33791 5.75934,-0.0907 7.33802,11.80994 0.9708,7.3182 2.71876,13.89523 3.88436,14.61561 6.00423,3.71082 20.04856,-77.79521 14.31991,-83.10532 -1.13814,-1.05499 -5.93112,-1.31662 -10.65108,-0.5814 l -8.58175,1.33676 v 17.60515 c 0,17.29254 -0.14649,17.66044 -8.25078,20.71947 l -8.25079,3.11432 1.78057,-15.7381 1.78056,-15.7381 h -9.1409 c -8.5189,0 -9.24943,0.67378 -10.73589,9.90201 -3.18767,19.78962 -2.68579,57.37312 0.90511,67.78048 l 3.5707,10.34882 3.74468,-7.14698 c 2.05957,-3.93083 4.44306,-13.0437 5.29664,-20.25082 z"
       id="path3932"
       inkscape:connector-curvature="0"
       transform="matrix(0.26458333,0,0,0.26458333,0,11.249983)" />
    <path
       style="fill:#ffff00;fill-opacity:1;stroke:none;stroke-width:1.995996;stroke-linejoin:miter;stroke-miterlimit:4;stroke-dasharray:none;stroke-opacity:1"
       d="m 1099.1836,447.10225 c 5.0747,-20.48296 4.3174,-19.75962 10.613,-10.13728 l 5.7155,8.7356 -9.0611,4.32094 -9.0611,4.32094 z"
       id="path3936"
       inkscape:connector-curvature="0"
       transform="matrix(0.26458333,0,0,0.26458333,0,11.249983)" />
    <path
       style="fill:#ff0000;fill-opacity:1;stroke:none;stroke-width:1.995996;stroke-linejoin:miter;stroke-miterlimit:4;stroke-dasharray:none;stroke-opacity:1"
       d=""
       id="path3994"
       inkscape:connector-curvature="0"
       transform="matrix(0.26458333,0,0,0.26458333,0,11.249983)" />
    <path
       style="fill:#000000;fill-opacity:1;stroke:none;stroke-width:0.2;stroke-linejoin:miter;stroke-miterlimit:4;stroke-dasharray:none;stroke-opacity:1"
       id="path4019"
       d="m 114.17814,76.308817 c 2.32566,-1.835073 5.06036,-2.93996 7.87933,-3.755792 3.32902,-0.880475 6.77304,-1.136242 10.19597,-1.358421 2.72305,-0.130228 5.44731,-0.232754 8.17018,-0.366895 1.6656,-0.07914 3.32728,-0.161986 4.98734,0.0259 1.21789,0.149 2.40104,0.469011 3.53307,0.936424 0.6243,0.325744 1.25097,0.639172 1.93336,0.819605 0.55005,0.123941 1.11655,0.143666 1.67825,0.135887 2.09795,0.03143 2.85978,1.531183 3.05802,3.391045 0.071,2.545313 -0.0438,5.095815 -0.13411,7.640109 -0.15277,4.29973 -0.31935,8.598937 -0.49169,12.897921 -0.2203,4.89979 -0.49617,9.79658 -0.79797,14.69192 -0.30633,4.42577 -0.46097,8.85769 -0.50007,13.29313 0.0445,4.4077 0.29702,8.81027 0.51015,13.21218 0.21019,4.35154 0.29468,8.70657 0.34434,13.06237 0.0547,3.49191 0.0399,6.98429 0.0671,10.47639 0.004,2.44984 0.0238,4.9001 0.11467,7.34842 0.0553,1.4654 0.22135,2.92304 0.3262,4.38487 0.16583,1.76577 0.0806,2.45313 -1.25391,3.78732 -1.33473,0.79777 -2.91576,0.84332 -4.42724,0.96558 -2.35789,0.15427 -4.71585,0.30057 -7.07095,0.49421 -2.99299,0.2816 -5.98068,0.61342 -8.956,1.04443 -2.32508,0.3182 -4.63937,0.70724 -6.96215,1.04064 -1.41825,0.23433 -2.83862,0.31738 -4.26793,0.17761 -1.50979,-0.24063 -2.54031,-1.14503 -3.21235,-2.47441 -0.47131,-1.33284 -0.42648,-2.76811 -0.41683,-4.16244 0.0103,-3.05817 -0.004,-6.11615 -0.0147,-9.17427 -0.048,-5.59154 -0.0585,-11.18275 0.005,-16.77414 0.0378,-6.68985 0.40403,-13.37038 0.77594,-20.048 0.35343,-5.7754 0.68372,-11.55152 0.91313,-17.33318 0.17077,-4.62066 0.1975,-9.24581 0.10868,-13.868421 -0.093,-4.091271 -0.26747,-8.180311 -0.42627,-12.26946 -0.13949,-2.986569 -0.19103,-5.976765 -0.20987,-8.966305 0.18291,-0.934009 -0.30726,-3.12565 0.14624,-3.954217 0.0916,-0.167328 0.27596,-0.263424 0.41394,-0.395139 0.56069,-0.34203 0.2737,-0.209643 0.85516,-0.409469 0,0 1.97435,0.147738 1.97435,0.147738 v 0 c 0.55484,0.182814 0.28277,0.05517 0.80882,0.39829 0.12819,0.128879 0.30164,0.224883 0.38459,0.386636 0.40385,0.787519 -0.15132,2.936729 0.0495,3.82333 -0.0154,2.93539 0.0479,5.86909 0.13076,8.803258 0.14032,4.124558 0.30735,8.248415 0.37323,12.375097 0.0361,4.705732 0.0139,9.411702 -0.19813,14.113892 -0.25688,5.80211 -0.64531,11.5965 -1.00768,17.39275 -0.38127,6.60381 -0.72998,13.21166 -0.7604,19.82836 -0.001,5.56136 0.0524,11.12275 0.19781,16.68235 0.0789,3.05657 0.14595,6.11341 0.19263,9.17065 0.0268,0.70192 0.09,1.70201 0.0633,2.29999 -0.11008,-0.12688 -0.52452,-0.43322 -0.50258,-0.28421 0.96198,0.25128 2.01872,-0.0901 2.98518,-0.1234 2.32984,-0.30702 4.65655,-0.63579 6.98389,-0.96111 3.05702,-0.38571 6.11508,-0.77439 9.18369,-1.05607 2.34957,-0.2069 4.70222,-0.37007 7.05344,-0.55582 0.0101,-0.001 2.88269,-0.47145 2.0079,-0.0724 -0.70321,0.88916 -0.48116,1.85602 -0.58103,0.339 -0.14633,-1.53681 -0.24226,-3.07871 -0.30901,-4.62088 -0.0722,-2.50348 -0.0758,-5.00749 -0.044,-7.51176 0.0433,-3.47434 0.0573,-6.94899 0.0742,-10.42355 -0.0328,-4.30538 -0.0891,-8.61183 -0.27241,-12.91379 -0.17472,-4.47247 -0.41046,-8.94381 -0.43616,-13.42064 -0.002,-4.5196 0.23826,-9.0325 0.55398,-13.5404 0.30905,-4.86076 0.63727,-9.72155 0.79083,-14.590399 0.15875,-4.287467 0.30964,-8.575263 0.4198,-12.864304 0.0583,-2.363634 0.14533,-4.728892 0.0738,-7.093262 -0.0514,-0.828556 0.5153,0.841364 1.30857,0.57 0.0433,-0.01482 -0.0892,-0.0204 -0.13388,-0.03062 -0.90464,-0.0614 -1.81576,-0.111247 -2.69705,-0.344032 -0.85774,-0.246647 -1.67284,-0.584269 -2.46951,-0.986023 -0.72652,-0.329962 -1.5066,-0.518745 -2.29356,-0.639411 -1.44716,-0.139332 -2.89875,-0.08888 -4.34869,-0.0067 -2.69454,0.09929 -5.39101,0.160909 -8.08282,0.321659 -3.10728,0.196326 -6.23511,0.419571 -9.25964,1.20664 -2.25936,0.683075 -4.48627,1.492205 -6.33204,3.017843 0,0 -2.75551,-3.354126 -2.75551,-3.354126 z"
       inkscape:connector-curvature="0" />
    <path
       style="fill:#000000;fill-opacity:1;stroke:none;stroke-width:0.2;stroke-linejoin:miter;stroke-miterlimit:4;stroke-dasharray:none;stroke-opacity:1"
       id="path4021"
       d="m 358.32293,85.176674 c 0.33112,4.405765 0.58751,8.816829 0.89495,13.224362 0.513,7.783944 0.97041,15.571644 1.35464,23.363004 0.5002,9.19644 0.72261,18.40437 0.81741,27.61291 0.099,7.96928 -0.13346,15.93587 -0.33827,23.90138 -0.17603,5.18136 -0.311,10.36385 -0.46549,15.54582 0.044,1.82543 -0.26725,3.72452 -0.0947,5.52129 -0.33578,-1.09396 -0.1484,-1.05752 -1.52342,-1.75089 -0.47799,-0.24104 -1.26875,0.10269 0.20021,-0.34991 1.49704,-0.41944 3.0634,-0.38819 4.60391,-0.41114 2.95444,-0.011 5.90336,-0.19644 8.8501,-0.39096 4.47419,-0.31914 8.95326,-0.55294 13.43697,-0.67792 4.37875,-0.12137 8.75858,0.0122 13.13754,0.051 2.07389,-0.14689 4.53687,0.248 6.40803,-0.88712 0.37068,-0.80405 0.25119,-1.89394 0.23376,-2.757 -0.28332,-4.17005 -0.78008,-8.32203 -1.14838,-12.48524 -0.65024,-7.19138 -1.02359,-14.40315 -1.30722,-21.61701 -0.29626,-7.74484 -0.33991,-15.4955 -0.23699,-23.24436 0.10292,-6.76802 0.25945,-13.53484 0.36325,-20.30286 0.07,-4.74328 0.0967,-9.48726 0.0276,-14.230624 -0.0316,-2.699716 -0.24104,-5.390449 -0.64802,-8.058615 -0.22569,-1.224698 -0.43683,-2.48039 -0.98687,-3.609425 -0.20048,-0.246145 -0.57854,-0.210008 -0.90691,-0.280403 -2.23772,-0.344622 -4.51385,-0.343889 -6.77265,-0.357322 -4.23124,0.01572 -8.4624,0.01696 -12.69375,-0.0011 -4.30925,-0.07297 -8.61767,-0.176823 -12.92731,-0.22693 -2.32203,-0.364747 -4.65693,-0.723895 -7.00024,-0.422159 0,0 -0.0413,-0.103864 -0.0413,-0.103864 v 0 c 2.12847,-1.512205 4.30527,-2.872902 6.91666,-3.394747 4.35864,-0.315593 8.71961,-0.02466 13.08428,0.01143 4.23077,0.04776 8.46095,-0.0013 12.69175,-0.02859 2.56928,0.02172 5.16112,-0.02495 7.7054,0.384257 1.636,0.394571 3.07332,1.080371 3.79995,2.700121 0.64299,1.508405 0.97792,3.11459 1.22523,4.731834 0.39891,2.855876 0.60225,5.73233 0.60526,8.617202 0.0209,4.780445 -0.0523,9.560465 -0.15052,14.339835 -0.14036,6.75472 -0.3266,13.50855 -0.41032,20.26439 -0.0262,7.68129 0.009,15.36433 0.36452,23.03918 0.3343,7.1311 0.76277,14.2598 1.55789,21.35672 0.49112,4.27038 1.05588,8.53522 1.4277,12.81747 0.0643,2.71887 -0.14383,5.36931 -2.66134,6.97213 -2.68827,1.29477 -5.63198,1.36919 -8.57756,1.30369 -4.31776,-0.0722 -8.63523,-0.24482 -12.95452,-0.14004 -4.42156,0.12543 -8.83791,0.36152 -13.24581,0.73608 -3.01821,0.22454 -6.03806,0.44504 -9.0651,0.50415 -1.10826,0.0325 -2.23573,0.0268 -3.3214,0.27913 -2.13339,0.66076 -3.74364,1.07141 -4.70757,-1.72696 -0.191,-2.11203 0.25278,-4.22829 0.23521,-6.34392 0.23448,-5.17595 0.4911,-10.35088 0.71652,-15.52725 0.35663,-7.90273 0.63064,-15.81155 0.62286,-23.7234 -0.0316,-9.15211 -0.19254,-18.30344 -0.65307,-27.44527 -0.41286,-7.76895 -0.85278,-15.53616 -1.42299,-23.295456 -0.29098,-4.425686 -0.6455,-8.848667 -0.82153,-13.280882 0,0 3.80167,-0.206015 3.80167,-0.206015 z"
       inkscape:connector-curvature="0" />
    <path
       style="fill:#000000;fill-opacity:1;stroke:none;stroke-width:0.2;stroke-linejoin:miter;stroke-miterlimit:4;stroke-dasharray:none;stroke-opacity:1"
       id="path4029"
       d="m 119.16657,141.03929 c -2.67185,0.22205 -5.35144,0.32551 -8.0315,0.37228 -2.55879,0.0462 -5.10935,-0.1577 -7.64789,-0.45665 -1.4545,-0.19748 -2.92535,-0.35446 -4.346224,-0.73446 -1.954358,-0.5873 -2.58136,-2.25353 -2.709497,-4.1161 -0.0656,-2.21619 -0.05411,-4.43427 -0.122854,-6.6512 -0.08935,-3.00503 -0.402466,-5.99505 -0.783797,-8.97497 -0.302866,-2.27303 -0.71747,-4.52878 -1.170799,-6.77594 -0.36761,-1.58868 -0.398206,-3.15264 1.061217,-4.263 0.311234,-0.2368 0.725403,-0.29248 1.088104,-0.43871 1.082701,-0.12335 2.170771,-0.0238 3.25878,-0.066 2.05742,-0.14413 4.10628,-0.37544 6.16555,-0.50331 3.32768,-0.22368 6.64764,0.0748 9.95026,0.45853 2.48595,0.14338 4.67992,1.25454 6.85286,2.36302 0.16519,0.0449 0.33039,0.0897 0.49559,0.13455 0,0 0.0449,0.10236 0.0449,0.10236 v 0 c -0.13797,0.17791 -0.27593,0.35581 -0.4139,0.53372 -2.1371,1.61438 -4.90156,1.87222 -7.49443,1.52811 -3.02927,-0.3164 -6.07452,-0.60538 -9.12268,-0.38306 -2.09269,0.14701 -4.1736,0.39936 -6.261373,0.60056 -0.171003,0.008 -2.457577,0.0901 -2.510139,0.0316 -0.0371,-0.0413 0.10641,-0.0317 0.159615,-0.0476 0.721254,-0.38385 0.836663,-0.33033 1.272982,-1.23528 0.307753,-0.63831 -0.100571,-1.20829 0.190617,0.28086 0.423793,2.35403 0.83585,4.71104 1.144078,7.08354 0.39092,3.12403 0.7167,6.25739 0.83132,9.40552 0.0823,2.14371 0.11052,4.28863 0.19589,6.43213 0.10622,1.03792 -0.18534,-0.17142 -0.77952,-0.17599 1.15577,0.38521 2.38811,0.48722 3.57962,0.71068 2.33173,0.29804 4.67487,0.51056 7.02799,0.50894 2.57088,-0.002 5.14204,-0.0758 7.70618,-0.26977 0,0 0.36903,4.54566 0.36903,4.54566 z"
       inkscape:connector-curvature="0" />
    <path
       style="fill:#000000;fill-opacity:1;stroke:none;stroke-width:0.2;stroke-linejoin:miter;stroke-miterlimit:4;stroke-dasharray:none;stroke-opacity:1"
       id="path4043"
       d="m 99.264672,17.764637 c -1.528476,1.705369 -2.524826,3.752644 -3.379128,5.853986 -1.129155,3.056036 -1.461085,6.281745 -1.551982,9.51322 0.01074,3.361248 0.592007,6.67527 1.273077,9.954666 0.519951,2.06964 0.440232,4.222036 -0.444749,6.173968 -0.04331,0.133987 -0.08661,0.267978 -0.129924,0.401968 0,0 -0.102687,0.04416 -0.102687,0.04416 v 0 c -0.134221,-0.0774 -0.268444,-0.154789 -0.402664,-0.232185 -1.934636,-1.203579 -3.101727,-3.163102 -3.594,-5.367827 -0.832313,-3.650197 -1.472112,-7.359592 -1.419775,-11.118225 0.118779,-3.811161 0.585666,-7.617077 2.011034,-11.18586 1.09714,-2.584873 2.413339,-5.069222 4.335778,-7.147351 0,0 3.40502,3.109476 3.40502,3.109476 z"
       inkscape:connector-curvature="0" />
    <path
       style="fill:#000000;fill-opacity:1;stroke:none;stroke-width:0.2;stroke-linejoin:miter;stroke-miterlimit:4;stroke-dasharray:none;stroke-opacity:1"
       id="path4045"
       d="m 94.755747,48.570663 c 1.95164,0.03729 3.90381,0.0438 5.855773,0.04549 1.46056,-0.0085 2.91971,-0.04922 4.37651,-0.157046 1.35635,-0.07521 2.7097,-0.193694 4.06214,-0.319278 1.53527,-0.160343 3.04737,-0.462257 4.55749,-0.772607 1.69781,-0.358156 3.39177,-0.733439 5.10185,-1.028817 1.7478,-0.327229 3.5095,-0.568761 5.26989,-0.816155 2.10348,-0.288533 4.21622,-0.500464 6.33012,-0.694994 2.68875,-0.249857 5.38388,-0.417735 8.08074,-0.548754 3.09722,-0.169759 6.19442,-0.05965 9.2779,0.249894 3.54829,0.397325 7.04549,1.13126 10.54799,1.80594 3.51815,0.693438 7.0626,1.2359 10.60501,1.78667 3.91835,0.583047 7.84363,1.112131 11.7791,1.56464 4.1219,0.470728 8.26046,0.763617 12.39863,1.04485 4.59363,0.326456 9.18158,0.724014 13.77009,1.114253 4.92419,0.422156 9.86246,0.6506 14.80088,0.82241 5.21671,0.131236 10.42932,0.359786 15.64029,0.630997 5.40612,0.311073 10.81152,0.62702 16.22084,0.877662 5.42034,0.25095 10.84353,0.423532 16.26734,0.577202 5.36478,0.163351 10.73142,0.257855 16.09815,0.326165 5.31744,0.06397 10.63538,0.06009 15.95308,0.06108 5.37189,0.0013 10.74375,-0.0016 16.11559,-0.01527 5.23144,-0.01802 10.46234,-0.104621 15.6932,-0.178075 5.1127,-0.09261 10.22596,-0.09156 15.33919,-0.06222 4.85871,0.01582 9.71717,0.05775 14.57585,0.0218 4.34771,-0.0092 8.69516,-0.05471 13.04234,-0.117996 3.57219,-0.0578 7.13854,-0.252539 10.69509,-0.585973 2.91315,-0.275688 5.81785,-0.628409 8.72961,-0.918321 2.39615,-0.218577 4.78896,-0.472368 7.17246,-0.801994 1.84798,-0.294802 3.69059,-0.623025 5.54207,-0.895149 1.30897,-0.04446 2.86951,-0.551704 4.14721,-0.02506 0.259,0.106754 0.47093,0.303493 0.70641,0.455239 0.77986,0.475316 1.27304,1.225135 1.83139,1.918438 0,0 -0.0347,0.106247 -0.0347,0.106247 v 0 c -0.73165,0.248152 -1.28307,0.76047 -1.89714,1.217594 -1.15284,0.892339 -2.61752,0.793387 -4.00251,1.08686 -1.87992,0.317699 -3.75653,0.661136 -5.64721,0.909405 -2.44385,0.32336 -4.89649,0.554402 -7.35198,0.769929 -2.93328,0.28442 -5.86555,0.579382 -8.79983,0.853107 -3.67088,0.278225 -7.34671,0.516192 -11.03024,0.514115 -4.36494,0.05139 -8.73014,0.05358 -13.09534,0.06666 -4.87016,-0.01969 -9.7405,-0.01823 -14.61032,-0.08557 -5.08362,-0.03171 -10.16754,-0.03222 -15.25095,0.03404 -5.24783,0.07068 -10.4956,0.155157 -15.74411,0.146709 -5.37538,0.0117 -10.75076,0.01355 -16.12617,0.01548 -5.3367,7.94e-4 -10.67361,0.0051 -16.00999,-0.06118 -5.38985,-0.07022 -10.7795,-0.149942 -16.16813,-0.288359 -5.45032,-0.155451 -10.90106,-0.311378 -16.34812,-0.559178 -5.41687,-0.250894 -10.83133,-0.549164 -16.2456,-0.850406 -5.1856,-0.264525 -10.37361,-0.460626 -15.56434,-0.592566 -5.0079,-0.170428 -10.0144,-0.374163 -15.0102,-0.776483 -4.57328,-0.339169 -9.14419,-0.712131 -13.72145,-0.995093 -4.21261,-0.280508 -8.4253,-0.576304 -12.62091,-1.056396 -3.98762,-0.456118 -7.97053,-0.951183 -11.94067,-1.542563 -3.61804,-0.51122 -7.22601,-1.092301 -10.81268,-1.792851 -3.34775,-0.644078 -6.69901,-1.302052 -10.08712,-1.697316 -2.85802,-0.241083 -5.72234,-0.359142 -8.58877,-0.170024 -2.62275,0.130353 -5.24089,0.329999 -7.8552,0.578081 -2.03611,0.19763 -4.07064,0.414483 -6.09701,0.696796 -1.68932,0.241271 -3.37521,0.507912 -5.05869,0.786116 -1.66944,0.332193 -3.34401,0.63812 -5.00528,1.010579 -1.68541,0.347832 -3.38353,0.658786 -5.09801,0.820777 -1.41573,0.136049 -2.8345,0.23459 -4.25424,0.318715 -1.57511,0.06084 -3.15193,0.107304 -4.72764,0.02858 -1.948485,-0.05973 -3.897073,-0.131562 -5.846644,-0.140036 0,0 0.06701,-4.716807 0.06701,-4.716807 z"
       inkscape:connector-curvature="0" />
    <path
       style="fill:#000000;fill-opacity:1;stroke:none;stroke-width:0.2;stroke-linejoin:miter;stroke-miterlimit:4;stroke-dasharray:none;stroke-opacity:1"
       id="path4047"
       d="m 410.12186,54.848096 c -1.71667,-2.568025 -3.11647,-5.318205 -4.39938,-8.121952 -1.76742,-3.96453 -2.8166,-8.169936 -3.63498,-12.415834 -0.72533,-4.011701 -1.06646,-8.080389 -1.01743,-12.154577 0.0172,-2.756117 0.60555,-5.388443 1.87558,-7.826683 1.21187,-1.958313 3.04937,-3.03897 5.18916,-3.71309 2.49577,-0.6480918 4.51485,-0.28781 6.74402,0.941836 2.89875,2.108531 3.93354,5.474452 4.73499,8.806333 0.88863,4.427646 0.94096,8.953253 0.93556,13.45071 -0.0783,4.80416 -0.49384,9.592173 -1.11246,14.354311 -0.43855,1.996789 -0.51121,4.160554 -1.26643,6.085001 -0.57351,1.461455 -1.61864,2.715813 -2.63859,3.877791 -1.09622,0.84155 -0.53334,0.537737 -1.65139,0.977295 0,0 -0.0862,-0.07123 -0.0862,-0.07123 v 0 c 0.0723,-1.002879 0.042,-0.461939 0.082,-1.623295 0.0627,-1.359945 -0.0286,-2.788262 0.12975,-4.136652 0.224,-1.907583 0.90477,-3.762994 1.03952,-5.688256 0.61333,-4.57499 1.01137,-9.178057 1.03648,-13.797334 0.0372,-4.136627 -0.0138,-8.305838 -0.8214,-12.378878 -0.51019,-2.110392 -1.02804,-4.392421 -2.68047,-5.93153 -0.9625,-0.653104 -1.99321,-0.801618 -3.1307,-0.520863 -1.00193,0.280206 -1.92461,0.676639 -2.52373,1.576066 -1.05828,1.709587 -1.30395,3.721568 -1.4287,5.696908 -0.0909,3.773126 0.16915,7.540819 0.8183,11.262534 0.75163,3.912753 1.72451,7.790116 3.34492,11.445763 1.17377,2.620405 2.48637,5.17361 4.05164,7.584864 0,0 -3.59013,2.320761 -3.59013,2.320761 z"
       inkscape:connector-curvature="0" />
    <path
       style="fill:#000000;fill-opacity:1;stroke:none;stroke-width:0.2;stroke-linejoin:miter;stroke-miterlimit:4;stroke-dasharray:none;stroke-opacity:1"
       id="path4049"
       d="m 411.42229,18.584238 c -1.77448,0.177355 -3.53946,0.43511 -5.30614,0.675722 -1.91365,0.275189 -3.84403,0.382172 -5.7748,0.435558 -2.39704,0.06398 -4.79507,0.05473 -7.19251,0.100201 -2.68774,0.02739 -5.37154,0.184696 -8.05037,0.396226 -3.09047,0.235611 -6.18421,0.415283 -9.28097,0.540435 -3.17514,0.116507 -6.35175,0.196209 -9.52887,0.227516 -3.28038,0.07633 -6.561,0.04951 -9.84088,-0.03006 -3.26885,-0.119117 -6.53603,-0.26417 -9.80726,-0.296121 -2.99074,-0.01459 -5.97154,0.251862 -8.94474,0.544725 -3.23395,0.319655 -6.46618,0.653016 -9.69158,1.050124 -3.28745,0.409646 -6.56223,0.911191 -9.84666,1.343115 -3.6051,0.488484 -7.23693,0.698896 -10.86773,0.877883 -3.5251,0.161528 -7.05393,0.208556 -10.58154,0.285177 -3.31983,0.02501 -6.63887,0.0842 -9.95545,0.235635 -2.99024,0.169729 -5.97638,0.392816 -8.97009,0.494498 -3.11605,0.09811 -6.22429,-0.144309 -9.32539,-0.414174 -2.95405,-0.273147 -5.91152,-0.488152 -8.87241,-0.668751 -2.62546,-0.153572 -5.25466,-0.23544 -7.8844,-0.251968 -2.50887,-0.04323 -5.0168,0.03908 -7.52244,0.157208 -2.39971,0.146438 -4.79932,0.302677 -7.20101,0.413088 -2.50882,0.117439 -5.02026,0.13073 -7.53126,0.134086 -2.89379,-0.04699 -5.78439,-0.199124 -8.67624,-0.306617 -3.18986,-0.144565 -6.38248,-0.214249 -9.5747,-0.283103 -3.56914,-0.05473 -7.13804,-0.121663 -10.70705,-0.184831 -3.70779,-0.06464 -7.40873,-0.280476 -11.1022,-0.603674 -3.56471,-0.346837 -7.12824,-0.705531 -10.6911,-1.070853 -3.39217,-0.325755 -6.77914,-0.697295 -10.16418,-1.089284 -3.08256,-0.358937 -6.16974,-0.665971 -9.26428,-0.899294 -2.73414,-0.189479 -5.47456,-0.266622 -8.21377,-0.341497 -2.64629,-0.06469 -5.29085,-0.172093 -7.93508,-0.292517 -2.79195,-0.147454 -5.58706,-0.198581 -8.3822,-0.237292 -2.86637,-0.01822 -5.73114,-0.06835 -8.59372,-0.219366 -2.89258,-0.172329 -5.76808,-0.53678 -8.64839,-0.841033 -2.66483,-0.298723 -5.33283,-0.570346 -8.00208,-0.826238 -2.25069,-0.222991 -4.49235,-0.527811 -6.73373,-0.828409 -1.89629,-0.277232 -3.799801,-0.495063 -5.709704,-0.651526 -1.484738,-0.10409 -2.971286,-0.117584 -4.458398,-0.08027 -1.168342,0.107191 -1.658041,-0.08272 -1.815415,-1.326454 0,0 -0.593892,-1.778561 -0.593892,-1.778561 v 0 c 0.355595,-1.504008 0.580621,-1.705513 2.143207,-1.837869 1.711831,-0.131502 3.428992,-0.08059 5.138389,0.07564 1.993294,0.169887 3.975893,0.431012 5.956343,0.712474 2.18077,0.297102 4.36076,0.602479 6.55266,0.807856 2.69378,0.268153 5.39066,0.507091 8.07871,0.830713 2.77769,0.336765 5.55896,0.658755 8.35215,0.836839 2.79872,0.148799 5.59973,0.19462 8.40217,0.214034 2.84568,0.03972 5.69022,0.123808 8.53319,0.25657 2.61745,0.115407 5.23502,0.232061 7.85399,0.306617 2.81694,0.08255 5.63423,0.172962 8.44434,0.395889 3.15737,0.244538 6.31041,0.546124 9.45119,0.954715 3.36305,0.394301 6.72673,0.78515 10.09672,1.115973 3.53879,0.365803 7.07667,0.739521 10.61689,1.0909 3.5921,0.315548 7.19099,0.561874 10.79721,0.633789 3.56398,0.102694 7.12908,0.15015 10.69351,0.233224 3.22798,0.06313 6.45521,0.144586 9.68069,0.290914 2.83207,0.140876 5.66492,0.288088 8.50072,0.324252 2.43207,0.03126 4.86419,-0.01422 7.29421,-0.120826 2.40076,-0.109738 4.80035,-0.235838 7.20033,-0.361305 2.59938,-0.119295 5.20108,-0.201838 7.80361,-0.156782 2.6998,0.0648 5.40065,0.118564 8.09621,0.294336 2.99633,0.190775 5.98869,0.443871 8.97686,0.735153 2.92246,0.252908 5.85317,0.497921 8.78959,0.41138 2.97794,-0.09996 5.94884,-0.319409 8.924,-0.476572 3.35984,-0.144475 6.72187,-0.20298 10.08468,-0.227488 3.4789,-0.0297 6.95666,-0.120908 10.43254,-0.27046 3.50877,-0.171061 7.01641,-0.419226 10.50065,-0.878464 3.29724,-0.439029 6.58519,-0.944329 9.88346,-1.375065 3.2602,-0.401124 6.52375,-0.773247 9.79305,-1.092638 3.13769,-0.313798 6.28195,-0.6264 9.43978,-0.587649 3.29006,0.04072 6.57651,0.190599 9.86525,0.285764 3.21845,0.0755 6.4375,0.09465 9.65631,0.01829 3.13995,-0.07476 6.28082,-0.118318 9.41938,-0.243681 3.04901,-0.12521 6.09685,-0.277239 9.13858,-0.527375 2.77294,-0.181725 5.54707,-0.346253 8.32715,-0.358181 2.37032,-0.0095 4.74075,0.0053 7.11084,-0.03682 1.79548,-0.05809 3.59111,-0.131792 5.37747,-0.333865 1.81612,-0.196144 3.63217,-0.392477 5.45205,-0.550886 0,0 0.38455,4.22129 0.38455,4.22129 z"
       inkscape:connector-curvature="0" />
    <path
       style="fill:#000000;fill-opacity:1;stroke:none;stroke-width:0.2;stroke-linejoin:miter;stroke-miterlimit:4;stroke-dasharray:none;stroke-opacity:1"
       id="path4051"
       d="m 108.31951,19.798506 c -0.83421,1.008006 -1.37215,2.175089 -1.65886,3.443073 -0.24118,1.23118 -0.25421,2.493391 -0.2408,3.743639 0.0281,1.24813 0.15324,2.493053 0.41778,3.713265 0.26244,1.255642 0.76208,2.435855 1.31455,3.586858 0.64995,1.328598 1.50311,2.534889 2.4125,3.695213 1.01027,1.285531 2.22091,2.382062 3.46023,3.439258 1.38747,1.058407 1.90759,1.310169 2.27447,3.061147 0.0716,0.461663 0.053,0.925597 0.0208,1.388803 0,0 -0.0392,0.104674 -0.0392,0.104674 v 0 c -0.43438,0.283874 -0.86771,0.518036 -1.39364,0.590889 -1.99287,0.323652 -2.41058,-0.236762 -3.96584,-1.431639 -1.52261,-1.250569 -2.95515,-2.61048 -4.18435,-4.155988 -1.12668,-1.439918 -2.17862,-2.940209 -2.9798,-4.59018 -0.728,-1.526211 -1.37337,-3.095301 -1.7093,-4.760448 -0.26979,-1.521275 -0.43893,-3.054376 -0.44088,-4.601801 -0.0106,-1.676945 0.0488,-3.361807 0.42834,-5.003049 0.54896,-1.917246 1.36569,-3.713628 2.65962,-5.254447 0,0 3.62443,3.030733 3.62443,3.030733 z"
       inkscape:connector-curvature="0" />
    <path
       style="fill:#000000;fill-opacity:1;stroke:none;stroke-width:0.2;stroke-linejoin:miter;stroke-miterlimit:4;stroke-dasharray:none;stroke-opacity:1"
       id="path4053"
       d="m 122.65843,17.201982 c -0.0553,2.321559 0.22002,4.619322 0.66283,6.892852 0.47858,2.350584 1.35705,4.577224 2.38339,6.735143 0.95951,2.044294 2.20759,3.927025 3.48529,5.781438 1.16811,1.654571 2.50207,3.17419 3.97858,4.55723 1.1504,1.143537 2.62062,1.864948 3.87944,2.860985 0.66605,0.977267 1.31974,1.965214 2.10419,2.852235 0,0 -0.001,0.111773 -0.001,0.111773 v 0 c -1.20299,0.884801 -2.63403,1.054124 -4.1059,1.033243 -2.00163,-0.638755 -3.67477,-1.916716 -5.2172,-3.319854 -1.70422,-1.619671 -3.28597,-3.359478 -4.62829,-5.295757 -1.4774,-2.072114 -2.82284,-4.239524 -3.9119,-6.543527 -1.14272,-2.544296 -2.10971,-5.16572 -2.61391,-7.919474 -0.44918,-2.580347 -0.72396,-5.185242 -0.66264,-7.809017 0,0 4.64756,0.06273 4.64756,0.06273 z"
       inkscape:connector-curvature="0" />
    <path
       style="fill:#000000;fill-opacity:1;stroke:none;stroke-width:0.2;stroke-linejoin:miter;stroke-miterlimit:4;stroke-dasharray:none;stroke-opacity:1"
       id="path4055"
       d="m 146.90857,21.720593 c -0.31418,2.015469 -0.13511,4.036782 0.21977,6.030487 0.51936,2.465964 1.55747,4.758468 2.72065,6.977686 1.30123,2.447811 2.92467,4.699241 4.69362,6.826324 1.51556,1.953255 3.48091,3.470953 5.17514,5.249048 0.71566,1.141862 1.35605,2.390613 2.51337,3.131346 0,0 -0.005,0.111676 -0.005,0.111676 v 0 c -1.67035,0.676206 -3.30298,0.651623 -5.02603,0.08871 -2.47516,-1.397431 -4.41831,-3.500313 -6.25481,-5.643467 -1.93649,-2.41118 -3.77938,-4.901353 -5.21462,-7.652176 -1.33688,-2.658693 -2.53903,-5.404084 -3.05269,-8.356278 -0.38501,-2.495758 -0.49359,-5.011512 0.0106,-7.504259 0,0 4.21993,0.740904 4.21993,0.740904 z"
       inkscape:connector-curvature="0" />
    <path
       style="fill:#000000;fill-opacity:1;stroke:none;stroke-width:0.2;stroke-linejoin:miter;stroke-miterlimit:4;stroke-dasharray:none;stroke-opacity:1"
       id="path4057"
       d="m 170.98328,24.851348 c -0.39113,2.31989 5.3e-4,4.653861 0.42584,6.937251 0.53751,2.71652 1.52109,5.286887 2.84911,7.707546 1.19228,2.091894 2.93385,3.72395 4.80765,5.193583 0.86353,0.72017 1.91592,1.200939 2.70665,2.01344 0.66728,0.685659 1.23152,1.553514 1.82933,2.303499 0.60174,0.729904 0.26734,0.444124 0.96894,0.895848 0,0 -0.0118,0.111162 -0.0118,0.111162 v 0 c -0.9522,0.276058 -0.44014,0.149203 -1.54026,0.363653 -2.9741,0.09854 -4.32129,-0.341465 -6.70722,-2.202063 -2.3388,-1.859695 -4.48386,-3.929803 -5.97109,-6.557007 -1.52205,-2.839257 -2.66082,-5.85091 -3.25041,-9.029089 -0.53921,-2.921223 -0.91148,-5.932941 -0.23878,-8.867964 0,0 4.132,1.130141 4.132,1.130141 z"
       inkscape:connector-curvature="0" />
    <path
       style="fill:#000000;fill-opacity:1;stroke:none;stroke-width:0.2;stroke-linejoin:miter;stroke-miterlimit:4;stroke-dasharray:none;stroke-opacity:1"
       id="path4059"
       d="m 197.39855,23.427036 c -0.66843,2.363492 -0.57779,4.795279 -0.26703,7.202591 0.56224,3.523625 2.18513,6.678552 4.0325,9.681734 1.83642,2.851102 4.1486,5.337617 6.45015,7.810979 0.80005,1.405599 1.54869,2.839717 2.33592,4.252103 0,0 -0.0387,0.10487 -0.0387,0.10487 v 0 c -1.92674,0.435245 -3.69842,-0.340175 -5.3975,-1.231154 -2.75619,-2.542111 -5.19327,-5.405477 -7.22403,-8.56347 -2.17818,-3.568491 -4.05987,-7.325668 -4.66132,-11.515678 -0.3384,-3.011395 -0.35936,-6.039207 0.51106,-8.974842 0,0 4.25895,1.232867 4.25895,1.232867 z"
       inkscape:connector-curvature="0" />
    <path
       style="fill:#000000;fill-opacity:1;stroke:none;stroke-width:0.2;stroke-linejoin:miter;stroke-miterlimit:4;stroke-dasharray:none;stroke-opacity:1"
       id="path4061"
       d="m 222.23198,22.015982 c -1.0096,2.526778 -1.12891,5.206627 -1.00858,7.888267 0.3349,3.868333 1.71514,7.470334 3.42471,10.916086 1.56444,3.050799 3.70329,5.710441 6.11541,8.123234 0.32786,0.305261 0.69528,0.572913 0.98358,0.915781 0.2792,0.332037 0.46396,0.733296 0.70587,1.093407 0.77942,1.160285 1.58705,2.285905 2.55793,3.292229 0,0 -0.0372,0.105402 -0.0372,0.105402 v 0 c -1.90176,0.145179 -4.42823,-0.217869 -6.08746,-1.200163 -0.45421,-0.268899 -0.81641,-0.669269 -1.22462,-1.003904 -2.86717,-2.701946 -5.30494,-5.787223 -7.09966,-9.312608 -1.97199,-4.026543 -3.58416,-8.238336 -3.85119,-12.76413 -0.10102,-3.370839 0.15575,-6.734372 1.59054,-9.842331 0,0 3.9307,1.78873 3.9307,1.78873 z"
       inkscape:connector-curvature="0" />
    <path
       style="fill:#000000;fill-opacity:1;stroke:none;stroke-width:0.2;stroke-linejoin:miter;stroke-miterlimit:4;stroke-dasharray:none;stroke-opacity:1"
       id="path4063"
       d="m 248.81133,23.443356 c -0.35715,2.442576 -0.32182,4.897937 -0.0435,7.343324 0.46518,3.71113 1.99706,7.087583 3.78313,10.326961 1.26053,2.384332 3.07908,4.388485 4.63047,6.570882 0.94447,1.328618 1.08052,1.684293 1.84028,3.096985 0.81984,1.093909 1.16999,2.596896 2.07034,3.637447 0.19908,0.230076 0.49324,0.356354 0.73986,0.534532 0,0 -0.0574,0.09594 -0.0574,0.09594 v 0 c -1.61475,-0.790498 -3.39239,-1.229677 -4.8475,-2.351833 -1.40526,-0.956503 -1.81226,-1.128594 -3.01368,-2.385949 -2.02289,-2.117085 -3.5337,-4.692772 -5.11908,-7.13082 -2.05829,-3.747093 -3.79601,-7.674394 -4.29948,-11.966633 -0.25112,-2.838585 -0.30629,-5.689223 0.29255,-8.494562 0,0 4.02393,0.723723 4.02393,0.723723 z"
       inkscape:connector-curvature="0" />
    <path
       style="fill:#000000;fill-opacity:1;stroke:none;stroke-width:0.2;stroke-linejoin:miter;stroke-miterlimit:4;stroke-dasharray:none;stroke-opacity:1"
       id="path4065"
       d="m 272.07998,26.486752 c -0.99642,2.46443 -0.71191,5.128871 -0.33351,7.687303 0.70298,3.931845 2.40798,7.509049 4.50398,10.869249 1.53588,1.899917 2.63816,4.099819 4.11387,6.037937 0.80661,1.059373 1.27003,1.510517 2.16858,2.475693 0.42402,0.230899 0.84804,0.461799 1.27206,0.692701 0,0 -0.0481,0.100917 -0.0481,0.100917 v 0 c -0.45447,-0.187598 -0.90898,-0.375195 -1.36345,-0.562793 -4.05588,-1.174107 -7.24173,-2.93656 -9.6774,-6.503204 -2.46647,-3.834887 -4.40092,-7.964254 -5.20954,-12.487586 -0.50988,-3.489963 -0.73496,-7.074204 0.8781,-10.334318 0,0 3.69538,2.024101 3.69538,2.024101 z"
       inkscape:connector-curvature="0" />
    <path
       style="fill:#000000;fill-opacity:1;stroke:none;stroke-width:0.2;stroke-linejoin:miter;stroke-miterlimit:4;stroke-dasharray:none;stroke-opacity:1"
       id="path4067"
       d="m 302.87603,26.982663 c -0.70821,2.88102 -0.5125,5.822104 -0.11875,8.728806 0.56208,3.816326 2.05169,7.332307 4.00434,10.625626 0.85444,1.540947 2.15172,2.760589 3.18873,4.16164 0.32962,0.445362 0.58811,0.93954 0.8999,1.397587 0.77576,1.139719 0.99777,1.373505 1.84618,2.426745 1.13086,1.259493 0.51229,0.746284 1.81885,1.582991 0,0 -0.0412,0.103921 -0.0412,0.103921 v 0 c -1.62875,-0.323392 -0.76973,-0.152567 -2.57707,-0.512654 -1.65775,-0.572979 -3.44152,-1.186106 -4.85609,-2.265304 -1.63883,-1.250302 -2.80132,-3.071802 -3.96983,-4.726528 -2.21816,-3.804769 -3.92205,-7.854219 -4.56494,-12.244605 -0.42963,-3.468206 -0.62505,-6.997203 0.27528,-10.415898 0,0 4.09456,1.137673 4.09456,1.137673 z"
       inkscape:connector-curvature="0" />
    <path
       style="fill:#000000;fill-opacity:1;stroke:none;stroke-width:0.2;stroke-linejoin:miter;stroke-miterlimit:4;stroke-dasharray:none;stroke-opacity:1"
       id="path4069"
       d="m 327.34787,20.466163 c -0.98161,2.585313 -1.10771,5.33927 -1.06408,8.071407 0.17907,4.047297 1.4442,7.855898 3.17683,11.478138 1.08701,2.385136 2.85652,4.300495 4.42685,6.351883 0.76353,0.997442 1.45163,2.050667 2.19972,3.059758 1.06233,1.398868 2.30391,2.602685 3.6282,3.74404 0,0 -0.053,0.09844 -0.053,0.09844 v 0 c -1.7808,-0.519594 -3.56928,-1.032513 -5.20716,-1.931702 -1.25124,-0.69124 -2.51814,-1.308126 -3.6119,-2.252908 -2.26261,-1.954438 -3.81969,-4.6682 -5.2945,-7.214616 -1.97654,-4.199926 -3.43427,-8.603419 -3.57248,-13.289483 -0.0175,-3.372183 0.21132,-6.779375 1.70658,-9.866959 0,0 3.66491,1.752004 3.66491,1.752004 z"
       inkscape:connector-curvature="0" />
    <path
       style="fill:#000000;fill-opacity:1;stroke:none;stroke-width:0.2;stroke-linejoin:miter;stroke-miterlimit:4;stroke-dasharray:none;stroke-opacity:1"
       id="path4071"
       d="m 350.68052,22.611232 c -0.42151,2.938434 -0.18796,5.885801 0.19989,8.810714 0.66913,4.587608 2.60676,8.748678 4.98311,12.674867 0.45768,0.656159 0.91535,1.312315 1.37303,1.968473 0.47831,0.624787 0.97671,1.234697 1.43491,1.874367 0.44895,0.626713 0.83556,1.296585 1.28516,1.922819 1.22,1.699268 2.60044,3.184962 4.09097,4.643015 0.46407,0.321781 0.92818,0.643559 1.39229,0.965337 0,0 -0.0477,0.101082 -0.0477,0.101082 v 0 c -0.56542,-0.164357 -1.13083,-0.328713 -1.69625,-0.493067 -2.92132,-1.037103 -5.82824,-2.409413 -8.15014,-4.525587 -1.3193,-1.202428 -2.35583,-2.745303 -3.40924,-4.164896 -2.76675,-4.438351 -4.94834,-9.163089 -5.68881,-14.394109 -0.42508,-3.372239 -0.6477,-6.796962 0.043,-10.154868 0,0 4.18978,0.771853 4.18978,0.771853 z"
       inkscape:connector-curvature="0" />
    <path
       style="fill:#000000;fill-opacity:1;stroke:none;stroke-width:0.2;stroke-linejoin:miter;stroke-miterlimit:4;stroke-dasharray:none;stroke-opacity:1"
       id="path4073"
       d="m 374.66703,21.344554 c -1.01525,3.065481 -1.20702,6.25266 -1.03798,9.45162 0.35409,4.553898 2.09833,8.739431 4.30702,12.677487 0.39753,0.607351 0.79507,1.214705 1.19261,1.822056 0.4097,0.56135 0.84375,1.105712 1.22912,1.684051 0.37134,0.557308 0.67193,1.159397 1.03881,1.71966 0.97866,1.49457 2.11661,2.818307 3.32874,4.122589 0.37566,0.322382 0.75134,0.644766 1.12702,0.967147 0,0 -0.0502,0.0999 -0.0502,0.0999 v 0 c -0.50779,-0.121205 -1.0156,-0.242414 -1.52339,-0.363619 -2.56553,-0.879732 -5.17321,-2.064316 -7.18209,-3.950452 -1.14734,-1.077261 -2.12894,-2.635853 -3.01527,-3.910025 -2.61713,-4.550164 -4.6042,-9.380884 -4.97385,-14.681518 -0.11935,-3.750068 0.10216,-7.487902 1.43362,-11.039759 0,0 4.1258,1.400867 4.1258,1.400867 z"
       inkscape:connector-curvature="0" />
    <path
       style="fill:#000000;fill-opacity:1;stroke:none;stroke-width:0.2;stroke-linejoin:miter;stroke-miterlimit:4;stroke-dasharray:none;stroke-opacity:1"
       id="path4075"
       d="m 394.09211,19.873942 c -0.69686,3.187483 -0.43794,6.363804 0.17933,9.532878 1.11305,4.808481 4.04487,8.807692 6.55206,12.957485 1.54792,2.398591 3.34677,4.582491 5.54239,6.401007 0,0 -0.0572,0.09602 -0.0572,0.09602 v 0 c -2.81599,-1.152417 -5.56133,-2.420308 -7.89998,-4.421794 -0.71252,-0.615185 -1.47775,-1.174176 -2.1376,-1.845556 -3.31173,-3.369656 -5.24179,-7.876477 -6.41903,-12.377364 -0.65796,-3.787857 -0.92112,-7.631422 0.22686,-11.364997 0,0 4.0132,1.022321 4.0132,1.022321 z"
       inkscape:connector-curvature="0" />
    <path
       style="fill:#000000;fill-opacity:1;stroke:none;stroke-width:0.2;stroke-linejoin:miter;stroke-miterlimit:4;stroke-dasharray:none;stroke-opacity:1"
       id="path4077"
       d="m 413.65884,27.951107 c 1.98477,0.681323 4.0872,0.828048 6.16712,0.919537 2.70777,0.06304 5.41536,-0.06102 8.12062,-0.163852 2.13767,-0.09443 4.27537,-0.181645 6.41059,-0.323425 1.31646,-0.104465 2.62493,-0.241557 3.93959,-0.07506 1.64216,0.272477 2.50118,1.42217 2.96865,2.920419 0.3469,1.651932 0.41661,3.347725 0.53102,5.027735 0.27747,3.889734 0.52361,7.781472 0.71734,11.676276 0.32797,5.877459 0.55028,11.759702 0.70059,17.644176 0.16637,6.045975 -0.0352,12.088058 -0.32724,18.12608 -0.35018,5.382448 -0.63452,10.767115 -0.65132,16.161657 -0.009,4.86503 0.50895,9.70592 1.10397,14.52745 0.59854,4.46548 1.13213,8.93865 1.61383,13.4181 0.0888,2.66243 0.7095,5.37673 0.49172,8.04982 -0.0688,0.8446 -0.53988,2.6589 -0.74295,3.49835 -0.32652,1.33063 -0.88352,2.58158 -1.41126,3.83956 0,0 -0.11136,-0.01 -0.11136,-0.01 v 0 c -0.29779,-1.28321 -0.64712,-2.55108 -0.97875,-3.82601 -0.0374,-0.14469 -0.83627,-3.22402 -0.84867,-3.29867 -0.42781,-2.57445 -0.21302,-5.24566 -0.62193,-7.82511 -0.42395,-4.4561 -0.98066,-8.89724 -1.55708,-13.33594 -0.6078,-4.99899 -1.17665,-10.01093 -1.17747,-15.05507 0.0273,-5.458132 0.27448,-10.907691 0.59764,-16.356052 0.29787,-5.928514 0.45095,-11.866351 0.28062,-17.801937 -0.15346,-5.837009 -0.38987,-11.671842 -0.73721,-17.500713 -0.26006,-3.863935 -0.51983,-7.728201 -0.89292,-11.58323 -0.1212,-1.420636 -0.22111,-2.843506 -0.38023,-4.260133 0.0167,-0.235834 0.47601,0.456169 0.76017,0.318654 -0.96438,-0.265251 -2.02835,0.09843 -3.00498,0.04802 -2.17101,0.118959 -4.34382,0.206567 -6.51756,0.256588 -2.81844,0.09764 -5.63877,0.224003 -8.45947,0.162892 -2.49467,-0.106014 -4.99234,-0.317695 -7.38478,-1.086085 0,0 1.40171,-4.094264 1.40171,-4.094264 z"
       inkscape:connector-curvature="0" />
    <path
       style="fill:#000000;fill-opacity:1;stroke:none;stroke-width:0.2;stroke-linejoin:miter;stroke-miterlimit:4;stroke-dasharray:none;stroke-opacity:1"
       id="path4079"
       d="m 443.02695,132.95787 c -2.16857,0.33483 -4.35493,0.53288 -6.53531,0.77245 -2.6843,0.29408 -5.36025,0.65564 -8.02992,1.06034 -2.88975,0.42951 -5.78112,0.84866 -8.66362,1.32468 -2.35202,0.35401 -4.68204,0.83258 -6.99868,1.36788 -1.64108,0.39357 -3.28075,0.79338 -4.95848,0.99215 -0.97226,0.009 -2.36021,0.25113 -3.21524,-0.39521 -0.16108,-0.12177 -0.2539,-0.31408 -0.38087,-0.47112 -0.31533,-0.68389 -0.35398,-1.33208 -0.20534,-2.0543 0,0 0.0598,-0.0945 0.0598,-0.0945 v 0 c 0.45582,-0.41463 0.90932,-0.82941 1.33638,-1.27414 0.49983,-0.46351 1.17504,-0.21739 1.82036,-0.31738 1.52368,-0.2106 3.02377,-0.54038 4.52001,-0.89505 2.42382,-0.54061 4.86222,-1.00386 7.31959,-1.36647 2.90658,-0.42612 5.80919,-0.87902 8.71554,-1.30697 2.73626,-0.37835 5.47176,-0.77052 8.22383,-1.01913 2.10092,-0.20074 4.20626,-0.36805 6.29941,-0.64093 0,0 0.69257,4.31767 0.69257,4.31767 z"
       inkscape:connector-curvature="0" />
    <path
       style="fill:#000000;fill-opacity:1;stroke:none;stroke-width:0.2;stroke-linejoin:miter;stroke-miterlimit:4;stroke-dasharray:none;stroke-opacity:1"
       id="path4081"
       d="m 406.98192,135.61951 c 0.71289,2.63688 1.12281,5.34327 1.50805,8.04362 0.42558,3.23368 0.80425,6.47347 1.1889,9.71224 0.1266,0.5549 0.36457,3.9531 0.94411,4.1465 -0.31461,-0.68384 -0.65024,-0.42666 0.50393,-0.55587 1.51953,-0.21237 3.05228,-0.2545 4.58409,-0.26342 2.32071,0.0135 4.64079,0.0795 6.9615,0.0885 2.84486,-0.003 5.68934,-0.0572 8.53382,-0.0981 2.66981,0.006 5.33125,-0.12728 7.96904,-0.54439 1.69466,-0.28477 3.30774,-0.83224 4.71109,-1.83065 0.85283,-0.63494 1.27416,-1.5263 1.59486,-2.50783 0.50898,-1.88184 0.49479,-3.85525 0.4481,-5.78892 -0.0555,-1.86744 -0.30729,-3.71963 -0.48168,-5.57734 -0.0429,-0.45724 -0.13295,-0.91438 -0.11234,-1.37317 0.0198,-0.44322 0.1552,-0.87364 0.23281,-1.31046 0.28445,-1.40301 0.56144,-2.80206 0.64016,-4.23223 0,0 0.10321,-0.0429 0.10321,-0.0429 v 0 c 1.15115,1.10398 2.12706,2.31267 2.78844,3.78276 0.19802,0.42692 0.45718,0.8305 0.5941,1.28075 0.13676,0.44975 0.15489,0.92744 0.21902,1.39313 0.27213,1.97617 0.42926,3.96878 0.54099,5.95957 0.071,2.48357 0.0928,4.99351 -0.59375,7.40668 -0.67767,1.93179 -1.66494,3.63979 -3.38087,4.83825 -2.00919,1.32204 -4.22145,2.17009 -6.60958,2.52698 -2.84739,0.42589 -5.71857,0.58853 -8.59748,0.59908 -2.86909,0.0417 -5.73807,0.099 -8.60748,0.11367 -2.30346,10e-4 -4.60592,-0.0222 -6.90917,-0.0433 -1.37244,0.0191 -2.74529,0.0664 -4.10501,0.27056 -1.85869,0.21055 -3.59891,0.11977 -4.88735,-1.45012 -1.16346,-1.91369 -1.4128,-4.06699 -1.61645,-6.26959 -0.35242,-3.20665 -0.66876,-6.41742 -1.08712,-9.61652 -0.34263,-2.55117 -0.6863,-5.10522 -1.21526,-7.62597 0,0 4.13732,-1.03147 4.13732,-1.03147 z"
       inkscape:connector-curvature="0" />
    <path
       style="fill:#000000;fill-opacity:1;stroke:none;stroke-width:0.2;stroke-linejoin:miter;stroke-miterlimit:4;stroke-dasharray:none;stroke-opacity:1"
       id="path4083"
       d="m 99.952608,128.86773 c -2.450471,0.46166 -4.942523,0.59335 -7.428275,0.70526 -2.062306,0.0408 -4.126003,0.0713 -6.188639,0.0375 -2.044046,-0.0129 -3.26467,-0.5814 -4.405884,-2.30661 -0.786045,-1.98257 -0.87852,-4.15839 -1.101127,-6.25872 -0.455858,-4.66649 -0.803896,-9.34243 -1.171805,-14.01639 C 79.09122,99.2644 78.480223,91.503147 77.807121,83.747369 77.100466,75.834642 76.352248,67.926024 75.75914,60.003772 75.400894,55.595943 75.165505,51.178579 75.052557,46.757815 c -0.03781,-1.856074 -0.03213,-3.713565 0.08196,-5.566847 0.07002,-0.960236 0.196913,-1.917475 0.3845,-2.861656 0.112387,-0.684187 0.167526,-1.375652 0.157893,-2.068884 -0.04075,-0.9596 -0.07707,-1.918966 -0.0709,-2.88029 0.03005,-0.76601 0.192984,-1.518507 0.21907,-2.284318 -0.03512,-0.73748 -0.08215,-1.470316 -0.06164,-2.20921 0.03435,-1.306844 0.514945,-2.41118 1.290029,-3.440099 0.906526,-0.997294 2.108594,-1.459386 3.385037,-1.764462 1.049679,-0.07035 2.216007,-0.606832 3.277089,-0.418191 0.305552,0.05432 0.580904,0.218632 0.871355,0.327947 1.26976,0.425012 2.460083,1.007212 3.602149,1.698846 0,0 -0.0046,0.111691 -0.0046,0.111691 v 0 c -1.091105,0.581907 -2.17705,1.177623 -3.199786,1.875452 -0.239194,0.16648 -0.452451,0.378461 -0.717579,0.49944 -0.834168,0.380631 -1.893914,0.184284 -2.75654,0.489787 -0.283639,0.06344 -0.580978,0.169457 -0.862087,0.201963 -0.173471,0.05429 -0.21409,0.353622 -0.239154,0.579357 -0.03752,0.753422 0.09499,1.502599 0.06243,2.25688 -0.0382,0.75015 -0.143094,1.490794 -0.221975,2.237051 -0.07451,0.88596 0.08203,1.771673 0.0893,2.65845 0.01177,0.976192 0.0067,1.954634 -0.192138,2.915365 -0.113527,0.798193 -0.281487,1.589791 -0.332533,2.397022 -0.132964,1.719334 -0.162767,3.444436 -0.160369,5.168477 0.03158,4.338071 0.203903,8.673142 0.472678,13.002984 0.563343,7.902853 1.269616,15.793733 2.007936,23.681976 0.692734,7.765579 1.369065,15.532311 1.985108,23.304434 0.378166,4.63319 0.786405,9.26443 1.314579,13.88332 0.160571,1.4981 0.337558,3.00494 0.600607,4.48505 -0.852382,-0.5264 -0.403164,0.0424 0.412877,-0.0405 1.969826,0.0655 3.942159,0.058 5.912533,0.0249 2.244833,-0.0592 4.49781,-0.18232 6.709351,-0.59453 0,0 0.882806,4.43854 0.882806,4.43854 z"
       inkscape:connector-curvature="0" />
    <path
       style="fill:#000000;fill-opacity:1;stroke:none;stroke-width:0.2;stroke-linejoin:miter;stroke-miterlimit:4;stroke-dasharray:none;stroke-opacity:1"
       id="path4085"
       d="m 395.47117,98.044642 c -2.76262,-0.426014 -5.47653,-1.114629 -8.18499,-1.795457 -2.88552,-0.718632 -5.80073,-1.302475 -8.73895,-1.756484 -1.96477,-0.305419 -3.94481,-0.487389 -5.91799,-0.726083 -1.7545,-0.22565 -1.83216,-0.731353 -0.65416,-3.084105 0.0921,-0.183946 0.31033,0.270121 0.46551,0.405183 0.17058,0.0639 0.34118,0.127804 0.51176,0.191706 0,0 0,0.111782 0,0.111782 v 0 c -0.16579,0.06607 -0.33158,0.132148 -0.49739,0.198223 -0.13512,0.143798 -0.35732,0.622781 -0.40537,0.431395 -0.20801,-0.828953 -0.0902,-1.706951 -0.12898,-2.560727 -0.0228,-0.499478 0.86672,-0.205891 1.16035,-0.244859 2.08071,0.164859 4.14594,0.478501 6.20464,0.817009 3.04591,0.537284 6.08187,1.132994 9.07119,1.934721 2.51904,0.627168 5.03092,1.329486 7.60555,1.692077 0,0 -0.49189,4.385619 -0.49189,4.385619 z"
       inkscape:connector-curvature="0" />
    <path
       style="fill:#000000;fill-opacity:1;stroke:none;stroke-width:0.2;stroke-linejoin:miter;stroke-miterlimit:4;stroke-dasharray:none;stroke-opacity:1"
       id="path4087"
       d="m 393.65351,97.171157 c -2.46039,1.821053 -4.95893,3.589373 -7.45197,5.365193 -2.74962,1.90708 -5.48798,3.84645 -8.43594,5.43809 -0.85347,0.48298 -3.82942,1.13892 -4.18852,-0.40876 -0.0451,-0.19425 0.12944,-0.37722 0.19415,-0.56583 0,0 0.11047,0.0171 0.11047,0.0171 v 0 c 0.17663,-0.0647 -0.0303,-0.50626 0.0773,-0.76048 0.33097,-0.78176 1.00883,-1.32684 1.69278,-1.78329 2.68806,-1.81942 5.40501,-3.59671 8.04437,-5.487514 2.48229,-1.734857 4.94424,-3.499146 7.37637,-5.303789 0,0 2.58101,3.489277 2.58101,3.489277 z"
       inkscape:connector-curvature="0" />
    <path
       style="fill:#000000;fill-opacity:1;stroke:none;stroke-width:0.2;stroke-linejoin:miter;stroke-miterlimit:4;stroke-dasharray:none;stroke-opacity:1"
       id="path4089"
       d="m 383.05491,104.12498 c -0.99126,-2.52604 -1.8678,-5.094225 -2.75426,-7.65822 -0.83344,-1.871655 -0.83238,-3.671697 -0.61357,-5.659086 0.006,-0.161488 0.0122,-0.322974 0.018,-0.484463 0,0 0.0872,-0.06994 0.0872,-0.06994 v 0 c 0.17722,0.05194 0.35443,0.103873 0.53165,0.15581 2.14585,0.975921 3.24972,2.418136 3.99368,4.643941 0.90175,2.51847 1.73193,5.061258 2.62395,7.583078 0,0 -3.88676,1.48888 -3.88676,1.48888 z"
       inkscape:connector-curvature="0" />
    <path
       style="fill:#000000;fill-opacity:1;stroke:none;stroke-width:0.2;stroke-linejoin:miter;stroke-miterlimit:4;stroke-dasharray:none;stroke-opacity:1"
       id="path4091"
       d="m 390.30663,114.36758 c -0.23185,-1.468 -0.9956,-2.58867 -2.219,-3.39331 -1.23958,-0.6567 -2.40933,-0.42336 -3.54582,0.288 -1.74585,1.36546 -2.50647,3.45574 -3.13827,5.50172 -0.4285,1.2269 -0.41804,2.5591 -0.73882,3.80658 -0.28438,1.10587 -0.71819,2.15843 -0.97812,3.2786 -0.23841,1.22811 -0.20042,0.63154 -0.14737,1.7873 0,0 -0.10369,0.0418 -0.10369,0.0418 v 0 c -0.81354,-0.98368 -0.39275,-0.46067 -1.2577,-1.57275 -0.64542,-1.18397 -1.33905,-2.47443 -1.51878,-3.83678 -0.21096,-1.59887 0.25408,-3.23606 0.55684,-4.78356 0.9711,-3.20756 2.34,-6.24776 5.24862,-8.14874 3.12682,-1.52711 5.23398,-1.61117 8.27143,0.22571 2.08711,1.75015 3.31716,3.67729 3.6173,6.43273 0,0 -4.04662,0.37274 -4.04662,0.37274 z"
       inkscape:connector-curvature="0" />
    <path
       style="fill:#000000;fill-opacity:1;stroke:none;stroke-width:0.2;stroke-linejoin:miter;stroke-miterlimit:4;stroke-dasharray:none;stroke-opacity:1"
       id="path4093"
       d="m 391.43371,127.83591 c -2.41578,0.84186 -4.7906,1.79497 -7.15114,2.7795 -0.36716,0.1519 -0.7354,0.30115 -1.10146,0.45572 -0.50421,0.21291 -1.23846,0.53384 -1.75058,0.76906 -0.18561,0.0853 -0.37185,0.16948 -0.55349,0.26288 -0.09,0.0463 -0.36187,0.14999 -0.26077,0.15578 0.10864,0.006 0.19182,-0.10283 0.28773,-0.15424 -0.39483,-1.31548 -0.87521,-2.60826 -1.18448,-3.94645 -0.0198,-0.0862 0.17396,-0.0329 0.2604,-0.052 0.21355,-0.0472 0.42728,-0.0939 0.63947,-0.14686 1.0767,-0.26876 2.14215,-0.58564 3.21009,-0.88659 2.62524,-0.76007 5.29566,-1.35404 7.99491,-1.77879 1.31839,-0.0896 3.4898,-0.72529 4.60187,0.3869 0.41545,0.41551 0.63992,0.98566 0.95988,1.47849 -0.0641,0.55086 -0.0282,1.12287 -0.19243,1.6526 -0.41312,1.33297 -2.61122,2.60512 -3.70819,3.34075 -1.68603,1.08126 -3.43691,2.05774 -5.09677,3.17958 -1.04891,0.80938 -0.37534,0.70844 -0.26522,0.0252 0.12388,-0.76864 -0.0132,-0.82658 -0.33536,-1.39 -0.0225,-0.0388 -0.10911,-0.10059 -0.0672,-0.1163 0.21707,-0.0813 0.45204,0.10557 0.68149,0.13854 0.6949,0.0999 1.3984,0.13225 2.09857,0.16637 1.76133,0.0754 3.51264,0.22817 5.23251,0.62206 1.70566,0.47456 3.53816,1.6538 3.26257,3.7287 -0.0648,0.48775 -0.381,0.90731 -0.57152,1.36096 -1.55086,1.6716 -3.82244,2.25502 -5.91685,2.96445 -2.38432,0.6565 -4.56608,1.92876 -6.97971,2.45548 -1.15128,0.3719 -2.62393,-0.0651 -3.7351,0.30394 0,0 -0.074,-0.0838 -0.074,-0.0838 v 0 c 0.51652,-1.0179 -0.27112,0.59356 0.36415,-1.03782 0.37941,-0.97433 1.05087,-1.79847 1.74974,-2.55822 0.33269,-0.27087 0.6373,-0.58046 0.99806,-0.81261 1.89114,-1.21689 4.19791,-1.69068 6.26025,-2.51368 0.95893,-0.31478 1.92712,-0.61596 2.87039,-0.97642 0.18719,-0.0715 0.3702,-0.15356 0.55467,-0.23187 0.0954,-0.0405 0.1836,-0.14663 0.2848,-0.1245 0.0595,0.013 -0.0318,0.11758 -0.0477,0.17637 -0.13578,0.71655 -0.26215,0.78172 0.11978,1.50574 0.24873,0.47155 0.80441,0.3421 -0.13092,-0.01 -1.45198,-0.36959 -2.9491,-0.45553 -4.44315,-0.47828 -1.84964,-0.0844 -3.77301,-0.0855 -5.37916,-1.13198 -0.29633,-0.34178 -0.69363,-0.61732 -0.88897,-1.02532 -0.92792,-1.93803 0.41386,-3.59054 1.93426,-4.60683 1.68,-1.09899 3.44424,-2.05737 5.13638,-3.13707 0.11166,-0.0726 2.07944,-1.48756 2.08251,-1.48749 0.0659,0.002 -0.018,0.13062 -0.0269,0.19593 0.0148,0.3462 0.0297,0.6924 0.0446,1.0386 0.65667,0.78806 0.52202,1.00832 1.31328,1.13083 0.0246,0.004 -0.01,-0.0612 -0.0343,-0.0665 -0.13507,-0.0292 -0.27527,-0.031 -0.41346,-0.0305 -0.55867,0.002 -1.01243,0.0717 -1.57544,0.13501 -2.51703,0.41068 -5.01682,0.91913 -7.45344,1.68453 -1.40084,0.43701 -2.80162,0.958 -4.23241,1.29087 -0.29856,0.0695 -0.71766,0.4136 -0.90374,0.17001 -0.88558,-1.15931 -1.30455,-2.60982 -1.95683,-3.91474 1.42028,-0.99802 3.13082,-1.41992 4.70675,-2.11489 2.44036,-0.95368 4.88159,-1.90484 7.34058,-2.80984 0,0 1.44108,4.06862 1.44108,4.06862 z"
       inkscape:connector-curvature="0" />
    <path
       style="fill:#000000;fill-opacity:1;stroke:none;stroke-width:0.2;stroke-linejoin:miter;stroke-miterlimit:4;stroke-dasharray:none;stroke-opacity:1"
       id="path4095"
       d="m 395.35761,150.39965 c -1.78856,1.73555 -3.99822,2.79516 -6.31939,3.61159 -2.08796,0.63193 -4.24984,0.95599 -6.38127,1.40157 -0.46683,0.14409 -1.02066,0.19689 -1.43224,0.49326 -0.19627,0.14134 0.28408,-0.1348 0.29178,-0.14222 0.0346,-0.0593 0.0474,-0.13889 0.1039,-0.17806 0.0351,-0.0243 0.0866,0.31396 0.23683,0.99824 0.13113,0.59723 0.24879,1.08304 0.39108,1.68513 0.54475,2.40592 0.90085,4.85268 0.80613,7.32083 -0.20508,1.53175 -0.98266,2.8652 -1.50307,4.28174 0,0 -0.10909,0.0244 -0.10909,0.0244 v 0 c -1.02034,-1.15825 -1.73527,-2.49247 -2.33775,-3.91312 -0.54909,-2.20689 -0.75176,-4.48047 -1.28752,-6.69239 -0.40396,-1.79828 -1.04637,-3.59898 -0.46606,-5.43485 1.11474,-1.95634 2.28545,-2.39644 4.4082,-2.86143 1.95429,-0.38658 3.93782,-0.64746 5.85311,-1.20986 1.70513,-0.54278 3.33192,-1.28229 4.63505,-2.545 0,0 3.11031,3.16016 3.11031,3.16016 z"
       inkscape:connector-curvature="0" />
    <path
       style="fill:#000000;fill-opacity:1;stroke:none;stroke-width:0.2;stroke-linejoin:miter;stroke-miterlimit:4;stroke-dasharray:none;stroke-opacity:1"
       id="path4097"
       d="m 390.67467,153.69716 c 0.25813,1.56196 1.2056,2.98432 1.44989,4.5427 0.0513,0.32719 0.01,0.6623 0.0146,0.99345 0.0265,1.11776 0.007,2.23459 0.18836,3.33918 0,0 -0.091,0.065 -0.091,0.065 v 0 c -1.06175,-0.61779 -2.09476,-1.26946 -2.94069,-2.17759 -0.25376,-0.26831 -0.55181,-0.50078 -0.76126,-0.80493 -0.96448,-1.40056 -1.13323,-3.26164 -1.77831,-4.80071 0,0 3.91848,-1.15705 3.91848,-1.15705 z"
       inkscape:connector-curvature="0" />
    <path
       style="fill:#000000;fill-opacity:1;stroke:none;stroke-width:0.2;stroke-linejoin:miter;stroke-miterlimit:4;stroke-dasharray:none;stroke-opacity:1"
       id="path4099"
       d="m 397.2347,150.00764 c 0.59594,2.75153 1.13506,5.51512 1.56776,8.29718 -0.0571,2.4456 -0.27546,4.89021 -0.15137,7.33531 0,0 -0.10634,0.0345 -0.10634,0.0345 v 0 c -1.35905,-2.11866 -2.65186,-4.27294 -3.63844,-6.59705 -0.65228,-2.69867 -1.15604,-5.4275 -1.7562,-8.13782 0,0 4.08459,-0.93214 4.08459,-0.93214 z"
       inkscape:connector-curvature="0" />
    <path
       style="fill:#ff5555;fill-opacity:1;stroke:none;stroke-width:1.995996;stroke-linejoin:miter;stroke-miterlimit:4;stroke-dasharray:none;stroke-opacity:1"
       d="m 467.44781,526.33962 c 0.85744,-51.91955 2.27284,-136.12733 3.14534,-187.12841 l 1.58636,-92.72923 15.97715,-1.66995 c 25.50891,-2.66621 59.90177,-1.9388 71.41421,1.51041 l 10.61507,3.18036 -2.38711,64.81345 c -1.31291,35.64741 -1.96202,116.72116 -1.44247,180.16391 l 0.94463,115.35044 -8.86624,1.27155 c -13.35925,1.91592 -84.92587,9.68274 -88.99386,9.65813 -2.93833,-0.0178 -3.28269,-16.33182 -1.99308,-94.42066 z"
       id="path4101"
       inkscape:connector-curvature="0"
       transform="matrix(0.26458333,0,0,0.26458333,0,11.249983)" />
    <path
       style="fill:#000000;fill-opacity:1;stroke:none;stroke-width:0.2;stroke-linejoin:miter;stroke-miterlimit:4;stroke-dasharray:none;stroke-opacity:1"
       id="path4103"
       d="m 365.88993,82.329234 c -1.70667,-0.07532 -3.40474,-0.252818 -5.09825,-0.470792 -0.67363,0.02069 -1.39153,-0.285422 -2.06322,-0.124463 -0.0122,0.0089 -0.0782,0.04156 -0.0792,0.05762 -0.003,0.05527 0.11573,-0.0047 0.16254,-0.03433 0.5611,-0.354748 0.43137,-0.432911 0.84595,-1.209881 -0.0366,-0.427181 0.007,-0.868969 -0.10991,-1.281544 -0.15592,-0.551516 -1.05968,-0.909376 -0.0116,-0.514691 0.70188,0.185184 1.4079,0.347522 2.11823,0.496469 0.39841,0.05322 0.84158,0.240345 1.24227,0.100327 0.4364,-0.157503 0.85979,-0.349353 1.28487,-0.534762 0.43915,-0.197062 0.87611,-0.398799 1.31974,-0.58564 1.02579,-0.440478 1.25865,0.11211 1.82999,0.918634 0.30266,0.520448 0.16446,0.271764 0.41759,0.744365 0,0 0.0225,0.109482 0.0225,0.109482 v 0 c -0.13949,0.536784 -0.0807,0.257485 -0.1714,0.838925 -0.0501,0.48654 0.15367,1.300792 -0.37242,1.512552 -0.42895,0.17804 -0.85006,0.373967 -1.27627,0.558284 -0.76047,0.325363 -1.51842,0.676076 -2.33514,0.83702 -0.97282,0.134355 -1.93238,0.107394 -2.88734,-0.143434 -0.87337,-0.187957 -1.75644,-0.346286 -2.60602,-0.628703 -0.92755,-0.289755 -2.23573,-0.761386 -2.63017,-1.756973 -0.19026,-0.480261 -0.15377,-1.021649 -0.23069,-1.532472 0.18664,-0.403643 0.31674,-0.838594 0.55989,-1.210934 0.50215,-0.768964 1.6125,-0.988103 2.433,-1.154719 1.04648,-0.08753 2.0909,0.0051 3.11875,0.222118 1.51958,0.214656 3.04448,0.429474 4.58303,0.417115 0,0 -0.0669,4.370428 -0.0669,4.370428 z"
       inkscape:connector-curvature="0" />
    <path
       style="fill:#ff2a2a;fill-opacity:1;stroke:none;stroke-width:1.995996;stroke-linejoin:miter;stroke-miterlimit:4;stroke-dasharray:none;stroke-opacity:1"
       d="m 1365.1306,567.64898 c 0.2,-63.02133 -0.7156,-154.54466 -2.0346,-203.38515 l -2.3983,-88.8009 11.6401,-1.45979 c 15.2162,-1.90825 138.5631,-2.08807 143.4595,-0.20914 2.0757,0.79653 4.6156,6.40518 5.6442,12.46366 1.0287,6.05848 2.1047,75.18046 2.3912,153.60439 0.409,111.91633 1.4805,151.94787 4.9812,186.09605 2.4531,23.92891 3.9522,44.83079 3.3314,46.44862 -0.7494,1.95299 -19.6236,3.51814 -56.1643,4.65751 -30.2695,0.94381 -67.6757,2.49293 -83.1247,3.44252 l -28.0893,1.72649 z m 82.0479,20.45236 c 1.5556,-6.17125 1.5096,-15.58801 -0.1244,-25.46776 -2.7418,-16.57853 -1.7642,-18.47034 9.5448,-18.47034 3.238,0 5.4296,2.61495 6.5795,7.85023 0.9483,4.31762 5.4986,11.03734 10.1118,14.93271 l 8.3876,7.08247 0.834,-9.89393 c 0.4587,-5.44167 -0.4467,-13.56779 -2.012,-18.05802 -2.1531,-6.17629 -2.0533,-8.65396 0.4098,-10.17626 4.279,-2.64455 4.2116,-2.75505 8.5998,14.09239 2.0845,8.00283 6.5082,19.15764 9.8304,24.78848 l 6.0405,10.23791 1.9659,-13.65999 c 2.6147,-18.16826 -3.0907,-47.14446 -9.1873,-46.65988 -2.3536,0.18707 -6.8367,-2.38207 -9.9624,-5.70919 -5.6145,-5.97637 -5.7836,-5.99132 -14.0224,-1.2392 -4.5867,2.64556 -15.4689,6.22947 -24.1827,7.96424 -26.2729,5.2305 -28.48,9.88573 -21.1677,44.64712 6.2749,29.82966 13.5379,36.84898 18.3548,17.73902 z m 33.0498,-88.34495 c 20.9542,-7.26888 29.1752,-13.2661 29.1752,-21.28324 0,-7.06599 -6.6792,-11.68277 -19.3724,-13.39059 l -10.9938,-1.47915 10.0945,-6.26378 c 5.5519,-3.44508 11.274,-9.36635 12.7158,-13.15838 2.2013,-5.78982 1.6683,-7.66629 -3.3262,-11.71058 -3.7472,-3.0343 -8.1954,-4.25179 -12.0238,-3.29094 -3.3419,0.83877 -8.17,0.23152 -10.7291,-1.34947 -3.6276,-2.24113 -9.4529,-1.03585 -26.4372,5.46991 -11.9815,4.58944 -21.7845,9.37275 -21.7845,10.62958 0,1.25683 1.4251,5.41283 3.1669,9.23555 3.2431,7.11783 7.6032,7.57082 21.9182,2.27714 5.0758,-1.87702 5.1015,-1.74784 0.6602,3.32367 -2.5415,2.90213 -4.621,7.19508 -4.621,9.53989 0,5.62906 10.0414,12.46963 18.4112,12.54235 5.7044,0.0496 5.1095,0.76855 -4.0958,4.94934 -9.8777,4.48625 -22.237,16.48487 -22.237,21.58812 0,3.3133 17.9136,-0.14858 39.4788,-7.62942 z M 1439.422,413.871 c 5.4592,-24.53788 12.18,-36.06156 21.0319,-36.06156 4.1399,0 8.2163,2.49853 10.9946,6.73874 3.199,4.88219 6.3075,6.51902 11.2832,5.94121 14.6943,-1.70641 3.9643,-25.15027 -14.2645,-31.16632 -20.5781,-6.79138 -41.9303,14.19636 -45.1834,44.4122 -1.0249,9.51892 -0.089,14.3356 4.0678,20.9437 2.9693,4.71995 5.9292,8.58174 6.5777,8.58174 0.6484,0 3.1201,-8.72537 5.4927,-19.38971 z m 2.5423,-55.39238 c 7.2034,-4.61714 15.0538,-9.58305 17.4453,-11.03534 2.3915,-1.4523 9.543,-6.5699 15.8921,-11.37244 6.6185,-5.00627 13.5397,-8.20999 16.2215,-7.50868 3.6841,0.96341 4.6776,-0.40683 4.6776,-6.45119 0,-4.22092 0.069,-8.56558 0.1526,-9.6548 0.187,-2.4271 -55.2639,-15.33242 -76.4396,-17.79013 l -15.3853,-1.78565 -1.7118,8.55931 c -0.9415,4.70762 -1.2201,9.05113 -0.6189,9.65224 0.6011,0.60112 7.7378,1.99468 15.8593,3.09679 16.9518,2.30041 15.6953,1.45114 19.7069,13.31925 2.424,7.17136 2.367,9.51402 -0.2681,11.00582 -20.0288,11.33881 -29.9504,23.69517 -23.8914,29.75421 3.0826,3.08259 14.3403,-0.8034 28.3598,-9.78939 z"
       id="path4105"
       inkscape:connector-curvature="0"
       transform="matrix(0.26458333,0,0,0.26458333,0,11.249983)" />
    <path
       style="fill:#ff2a2a;fill-opacity:1;stroke:none;stroke-width:1.995996;stroke-linejoin:miter;stroke-miterlimit:4;stroke-dasharray:none;stroke-opacity:1"
       d=""
       id="path4109"
       inkscape:connector-curvature="0"
       transform="matrix(0.26458333,0,0,0.26458333,0,11.249983)" />
    <path
       style="fill:#ff2a2a;fill-opacity:1;stroke:none;stroke-width:1.995996;stroke-linejoin:miter;stroke-miterlimit:4;stroke-dasharray:none;stroke-opacity:1"
       d="m 470.1655,442.67221 c 1.05349,-97.42741 2.75998,-181.28717 3.79219,-186.35503 l 1.87674,-9.21428 22.34409,-1.7706 c 23.82732,-1.88813 64.94728,0.97272 68.49786,4.76562 1.177,1.25733 1.20661,35.55681 0.0658,76.22107 -1.14082,40.66426 -1.56428,120.96973 -0.94104,178.45661 l 1.13318,104.52159 -29.80719,3.24638 c -16.39396,1.7855 -38.59791,4.15156 -49.34213,5.25789 l -19.53493,2.01151 z"
       id="path4113"
       inkscape:connector-curvature="0"
       transform="matrix(0.26458333,0,0,0.26458333,0,11.249983)" />
  </g>
</svg>
