<?xml version="1.0" encoding="UTF-8" standalone="no"?>
<!-- Created with Inkscape (http://www.inkscape.org/) -->

<svg
   xmlns:dc="http://purl.org/dc/elements/1.1/"
   xmlns:cc="http://creativecommons.org/ns#"
   xmlns:rdf="http://www.w3.org/1999/02/22-rdf-syntax-ns#"
   xmlns:svg="http://www.w3.org/2000/svg"
   xmlns="http://www.w3.org/2000/svg"
   xmlns:sodipodi="http://sodipodi.sourceforge.net/DTD/sodipodi-0.dtd"
   xmlns:inkscape="http://www.inkscape.org/namespaces/inkscape"
   width="1920"
   height="1080"
   viewBox="0 0 507.99999 285.75001"
   version="1.1"
   id="svg8"
   inkscape:version="0.92.2 2405546, 2018-03-11"
   sodipodi:docname="cold-3.svg">
  <defs
     id="defs2" />
  <sodipodi:namedview
     id="base"
     pagecolor="#ffffff"
     bordercolor="#666666"
     borderopacity="1.0"
     inkscape:pageopacity="0.0"
     inkscape:pageshadow="2"
     inkscape:zoom="0.26778907"
     inkscape:cx="1139.674"
     inkscape:cy="497.52081"
     inkscape:document-units="mm"
     inkscape:current-layer="layer1"
     showgrid="false"
     units="px"
     inkscape:window-width="1348"
     inkscape:window-height="730"
     inkscape:window-x="5"
     inkscape:window-y="25"
     inkscape:window-maximized="0" />
  <metadata
     id="metadata5">
    <rdf:RDF>
      <cc:Work
         rdf:about="">
        <dc:format>image/svg+xml</dc:format>
        <dc:type
           rdf:resource="http://purl.org/dc/dcmitype/StillImage" />
        <dc:title></dc:title>
      </cc:Work>
    </rdf:RDF>
  </metadata>
  <g
     inkscape:label="Layer 1"
     inkscape:groupmode="layer"
     id="layer1"
     transform="translate(0,-11.249983)">
    <path
       style="opacity:1;fill:#000000;fill-opacity:1;stroke:none;stroke-width:0.2;stroke-linejoin:miter;stroke-miterlimit:4;stroke-dasharray:none;stroke-opacity:1"
       id="path4473"
       d="m 117.9147,192.43777 c 0.30305,-3.42289 0.32011,-6.86152 0.31064,-10.29504 -0.0646,-5.386 -0.3235,-10.76893 -0.56519,-16.14958 -0.27243,-6.04025 -0.56151,-12.07975 -0.91862,-18.11566 -0.34826,-5.67584 -0.768,-11.34713 -1.1053,-17.0236 -0.32018,-5.28383 -0.53998,-10.57187 -0.68537,-15.86313 -0.13499,-5.05243 -0.15079,-10.10604 -0.0471,-15.158892 0.11924,-4.864179 0.33245,-9.725154 0.47226,-14.588707 0.11994,-4.303508 0.0805,-8.608607 0.0482,-12.912936 -0.0434,-3.409836 -0.11457,-6.81912 -0.17102,-10.228702 -0.0171,-2.437969 -0.16028,-4.872347 -0.451,-7.29261 -0.23293,-1.809911 -0.77621,-3.553531 -1.44544,-5.244385 -0.81617,-1.998136 -1.80024,-3.923313 -2.84123,-5.812316 -0.96573,-1.770235 -1.98671,-3.509717 -3.18097,-5.135669 -1.15367,-1.5881 -2.64248,-2.839683 -4.19597,-4.013801 -1.69856,-1.182085 -3.552168,-2.042035 -5.548926,-2.562848 -1.502534,-0.391282 -3.023121,-0.35853 -4.519734,0.0092 -1.436275,0.360428 -2.694972,1.092395 -3.872984,1.964856 -1.461479,1.141652 -2.22531,2.78719 -2.873925,4.475134 -1.122474,3.368003 -1.426684,6.931195 -1.739638,10.44661 -0.403625,4.849757 -0.505413,9.715942 -0.598287,14.579335 -0.0892,5.930546 -0.07969,11.861925 -0.104526,17.79293 0.0145,6.356721 0.131072,12.712536 0.294222,19.066991 0.09404,5.40984 0.381519,10.81327 0.807802,16.20632 0.382685,4.6849 0.934172,9.35342 1.436254,14.02639 0.484359,4.52902 0.800361,9.07258 1.145651,13.61348 0.250131,3.91474 0.589714,7.82284 0.894715,11.73342 0.2628,3.68142 0.566189,7.36043 0.793152,11.04425 0.254203,3.3053 0.48211,6.6126 0.742497,9.91723 0.170532,2.5907 0.320138,5.18347 0.521126,7.77217 0.110908,1.71379 0.387461,3.40933 0.566597,5.1156 0.174226,1.17741 0.237906,2.34171 0.12218,3.52575 -0.395296,1.87008 -1.713696,3.06217 -3.385852,3.81766 -0.82255,0.32297 -1.59372,0.73396 -2.307037,1.25419 -0.81208,0.6121 -1.398598,1.44569 -1.94963,2.28697 -0.741971,1.2074 -1.289881,2.51992 -1.757034,3.85404 -0.512742,1.49119 -0.681025,3.05099 -0.630674,4.61886 0.03033,1.81657 0.474736,3.5811 0.985207,5.31272 0.50854,1.77382 1.407248,3.35774 2.441242,4.86883 1.031798,1.48382 2.408656,2.63958 3.800419,3.76593 1.581108,1.16017 3.297751,2.10857 5.024163,3.03024 1.937377,1.03487 3.951679,1.89918 6.015267,2.64512 1.980373,0.72704 4.058383,1.00483 6.152553,1.11187 2.21346,0.0925 4.3718,-0.34653 6.48385,-0.95919 2.0049,-0.63554 3.90654,-1.5553 5.7038,-2.6404 1.55516,-0.96754 2.96035,-2.14404 4.2371,-3.45231 1.32062,-1.36348 2.36463,-2.94836 3.3832,-4.5402 1.00269,-1.6229 1.79622,-3.35586 2.49309,-5.12788 0.63003,-1.73309 0.8768,-3.54745 1.01809,-5.37537 0.16313,-1.99701 -0.0739,-3.96809 -0.55195,-5.90386 -0.46724,-1.75113 -1.29963,-3.35031 -2.24917,-4.881 -0.52065,-0.87627 -1.21364,-1.59087 -2.01317,-2.20483 -0.10352,-0.0888 -0.37807,-0.31049 -0.4166,-0.42019 -0.0793,-0.22576 -0.0554,-0.47606 -0.10522,-0.71011 -0.17753,-0.83409 -0.47183,-1.65427 -0.68977,-2.47888 -0.0365,-0.30614 -0.073,-0.61227 -0.10956,-0.9184 0,0 0.093,-0.12785 0.093,-0.12785 v 0 c 0.26052,-0.0901 0.52103,-0.18018 0.78154,-0.27028 0.84092,-0.38994 1.99763,-1.25906 2.93053,-1.33144 0.36146,-0.028 1.17422,0.43292 1.4312,0.55967 1.67146,1.10468 2.97836,2.57799 4.01759,4.29053 1.30156,2.16006 2.4586,4.41729 3.08205,6.87669 0.62001,2.64895 0.95044,5.34262 0.72562,8.06771 -0.19913,2.47453 -0.5423,4.95457 -1.43594,7.28691 -0.81092,2.21343 -1.8136,4.34784 -3.03946,6.36432 -1.2474,2.06599 -2.63816,4.04746 -4.3198,5.78812 -1.71103,1.72906 -3.53447,3.33445 -5.63689,4.58093 -2.33951,1.38488 -4.76458,2.60842 -7.39347,3.3527 -2.87013,0.80855 -5.80433,1.36359 -8.80311,1.22168 -2.78653,-0.15852 -5.552074,-0.54492 -8.184924,-1.51907 -2.37091,-0.86717 -4.670899,-1.90615 -6.896299,-3.09976 -2.091832,-1.1134 -4.185401,-2.25441 -6.052372,-3.72614 -1.98668,-1.53415 -3.805428,-3.28664 -5.258438,-5.34451 -1.420627,-2.11841 -2.609667,-4.37944 -3.335292,-6.83638 -0.6775,-2.3508 -1.162849,-4.75888 -1.26623,-7.20975 0.02429,-2.37049 0.21155,-4.73792 1.01705,-6.99046 0.666557,-1.86998 1.45569,-3.69252 2.530557,-5.36941 1.033939,-1.5499 2.197233,-2.99972 3.724363,-4.09729 1.05088,-0.73916 2.14491,-1.41036 3.340936,-1.89208 0.544128,-0.29675 -0.654199,0.86783 -0.508368,1.3519 0.05796,0.50214 -0.01125,-1.46314 -0.120282,-1.57421 -0.249344,-1.80505 -0.453531,-3.61736 -0.611397,-5.43255 -0.185997,-2.60852 -0.303998,-5.22104 -0.4865,-7.82953 -0.177752,-3.30276 -0.459904,-6.59939 -0.67886,-9.89972 -0.284117,-3.66232 -0.48074,-7.33131 -0.782476,-10.99257 -0.300056,-3.91736 -0.547436,-7.83875 -0.868656,-11.75456 -0.325692,-4.46741 -0.69033,-8.93323 -1.195208,-13.38441 -0.509219,-4.74141 -1.072004,-9.47822 -1.441743,-14.23339 -0.414811,-5.515 -0.707459,-11.03659 -0.823445,-16.56667 -0.148425,-6.406678 -0.260781,-12.814334 -0.289057,-19.222788 -0.04531,-5.975098 -0.03518,-11.950753 0.02339,-17.92574 0.0798,-5.039736 0.233911,-10.081398 0.702096,-15.102456 0.411282,-4.147418 0.822849,-8.338484 2.167763,-12.309345 1.159912,-2.929606 2.651755,-5.641093 5.238173,-7.559262 1.987606,-1.416635 4.14814,-2.554696 6.544469,-3.106681 2.605823,-0.470746 5.203401,-0.533231 7.771609,0.231466 2.717801,0.841015 5.341391,1.965547 7.639501,3.672842 2.15733,1.563842 4.15228,3.345274 5.68084,5.54835 1.29364,1.894432 2.43596,3.877139 3.50047,5.908911 1.11474,2.165361 2.25953,4.319609 3.1352,6.59701 0.79982,2.20713 1.52222,4.44428 1.7573,6.794254 0.29395,2.616969 0.41912,5.244068 0.47773,7.876479 0.10993,3.432111 0.15776,6.866083 0.21557,10.29935 0.0828,4.396179 0.0638,8.792599 -0.0594,13.188207 -0.14636,4.844952 -0.35811,9.687393 -0.51343,14.531884 -0.1043,4.951169 -0.13419,9.903659 0.007,14.854669 0.13747,5.22391 0.32295,10.44715 0.6247,15.66441 0.32914,5.67743 0.68214,11.35311 1.05156,17.02809 0.3511,6.07248 0.63232,12.14836 0.85932,18.22675 0.2039,5.46798 0.41737,10.9363 0.46862,16.40835 -0.0149,3.63346 -0.0922,7.27009 -0.46688,10.88728 0,0 -5.93459,-0.59675 -5.93459,-0.59675 z"
       inkscape:connector-curvature="0" />
    <path
       style="opacity:1;fill:#ff0000;fill-opacity:1;stroke:none;stroke-width:0.2;stroke-linejoin:miter;stroke-miterlimit:4;stroke-dasharray:none;stroke-opacity:1"
       id="path4475"
       d="m 109.02719,208.23453 c -1.66974,-0.47841 -3.38134,-0.44436 -4.82492,0.56855 -1.06726,0.95838 -1.43381,2.26002 -1.52318,3.64557 0.0314,1.30201 0.60381,2.26245 1.60928,3.03821 1.49996,0.91936 3.16997,0.93511 4.85006,0.65255 1.92681,-0.49795 3.2804,-1.75588 4.31279,-3.39742 0.23198,-0.63216 0.95119,-2.11501 0.0562,-2.56894 -1.13783,-0.55191 -2.35521,-0.77864 -3.5979,-0.94796 -1.35691,-0.0752 -2.95112,-0.13484 -3.98855,0.89316 -0.40126,0.6422 -0.45102,1.43128 -0.39684,2.16834 0.0885,0.41047 0.1404,0.94998 0.60452,0.83632 0.92361,0.12177 1.76828,-0.15184 2.61385,-0.4911 0.87382,-0.48397 1.70797,-1.18786 1.90543,-2.20997 -0.13723,-0.63242 -0.16227,0.15397 -0.18704,0.34713 -0.4662,0.19129 -0.87108,0.44096 -1.21979,0.82401 -0.43491,0.13858 -0.31499,1.45381 -0.10351,0.79924 -0.097,-0.57678 -0.0908,-0.5734 0.43472,-0.76161 0.3235,0.0393 0.77985,-0.84357 0.35808,-0.42075 -0.66812,1.44099 0.45815,1.76919 0.72238,2.55045 -0.29787,0.44453 0.1016,0.23013 0.33594,-0.0237 0.5028,-0.96343 0.14163,-1.97055 -0.77127,-2.48778 -0.88099,-0.32315 -1.62588,0.0323 -2.05796,0.81178 -0.47617,1.57507 0.51019,2.8705 2.02952,3.20068 -0.0345,0.0782 -0.73559,0.77268 -0.46418,0.5785 0.0902,-0.15461 0.22917,-0.28971 0.27064,-0.46385 0.1173,-0.49257 0.3039,-1.01078 0.19844,-1.50602 -0.11694,-0.54916 -1.5197,-3.58896 -2.79683,-2.30196 -0.14571,0.14684 -0.10237,0.40087 -0.15356,0.60131 0.29213,0.94256 1.00224,1.25433 1.92255,1.09001 0,0 0.12477,0.0971 0.12477,0.0971 v 0 c -0.0646,1.23807 0.005,2.38786 -0.84102,3.42155 -0.29896,0.26529 -0.53374,0.62888 -0.89688,0.79586 -3.22892,1.48476 -5.54618,-3.33229 -3.71261,-5.73591 1.26156,-1.67459 2.88848,-2.89501 4.93386,-3.469 3.96875,-0.48259 6.54898,1.23415 6.12727,5.52143 -1.09073,3.06012 -3.12521,4.61961 -6.47476,4.20225 -3.4613,-1.1742 -4.86178,-3.3416 -4.02256,-7.00668 1.44023,-2.88622 3.46691,-4.2435 6.73172,-4.36303 3.76471,0.50193 6.10881,2.45382 5.48967,6.53774 -1.06002,2.77755 -3.00504,4.66745 -5.97575,5.32539 -3.42706,0.43145 -6.489,-0.48515 -8.15512,-3.74821 -1.08679,-3.81133 -0.33803,-6.01618 2.44821,-8.80174 2.91105,-2.08644 5.69169,-2.80342 9.09263,-1.30244 3.13855,2.125 4.11658,4.38585 3.18126,8.119 -1.17378,2.86167 -3.06037,5.08089 -5.95782,6.32827 -2.8618,1.07901 -5.81036,1.47988 -8.66723,0.10781 -2.715132,-1.73239 -3.997031,-3.73885 -4.193381,-6.99635 0.06989,-3.11233 0.930257,-5.91772 3.430501,-7.95939 2.77395,-1.8122 5.79862,-2.48296 9.10981,-2.05695 3.35745,0.52179 6.55652,1.50553 8.62855,4.40086 1.90387,3.76121 1.62425,6.1927 -0.33692,9.88155 -2.20584,3.26392 -5.12144,5.63437 -9.06523,6.45056 -3.76324,0.52772 -7.41151,0.13323 -10.526868,-2.24165 -2.78039,-2.55162 -4.156906,-5.27597 -3.945525,-9.12506 0.504156,-3.68309 1.956856,-6.90352 5.205053,-8.9662 3.52502,-1.72367 6.72017,-2.06656 10.48327,-0.78661 0,0 -2.35379,6.34517 -2.35379,6.34517 z"
       inkscape:connector-curvature="0" />
    <path
       style="opacity:1;fill:#ff0000;fill-opacity:1;stroke:none;stroke-width:0.02966123;stroke-linejoin:miter;stroke-miterlimit:4;stroke-dasharray:none;stroke-opacity:1"
       id="path4477"
       d="m 104.31548,207.57778 c 0.38227,0.0734 0.45346,0.14726 0.50572,0.22103 0.10644,0.104 -0.14055,0.20792 -0.55379,0.31148 -0.43465,0.10853 -1.08625,0.21661 -1.77504,0.32449 -0.59701,0.0953 -1.23499,0.19037 -1.89112,0.28544 -0.54563,0.0809 -1.053711,0.16197 -1.491036,0.24322 -0.45267,0.0766 -0.609169,0.15373 -0.705736,0.23084 -0.07102,0.069 -0.05995,0.1381 0.05089,0.20709 0.04226,0.0611 0.125881,0.12218 0.226828,0.18325 0.12624,0.0643 0.255087,0.12852 0.335645,0.19282 0.07504,0.0642 0.0281,0.12844 -0.08199,0.1926 -0.123081,0.0571 -0.285998,0.11423 -0.518345,0.17118 -0.235992,0.0518 -0.617873,0.10326 -0.962753,0.15476 -0.347252,0.0533 -0.707612,0.1066 -1.095372,0.1598 -0.439139,0.0552 -0.862579,0.11041 -1.247211,0.16579 -0.422532,0.0535 -0.679995,0.10743 -0.981507,0.16126 -0.211552,0.045 -0.319386,0.0902 -0.341878,0.13551 0.104203,0.0162 -0.05952,0.0646 0.564914,0.0762 0.175131,0.003 0.423942,0.004 0.635913,0.006 0.649486,0.004 1.304954,0.005 1.961758,0.008 0,0 1.384594,-0.0164 1.384594,-0.0164 v 0 c 0.686385,6.2e-4 1.159354,-0.002 1.756856,-0.0103 0.17856,-0.002 0.39132,-0.004 0.5357,-0.007 0.50048,-0.0115 -0.10854,-0.0414 0.10869,-0.0548 0.002,-0.0401 0.0966,-0.0802 0.30063,-0.12008 0.21408,-0.0512 0.59621,-0.10195 0.97736,-0.1527 0.44527,-0.0554 0.93243,-0.11053 1.34302,-0.16601 0.3953,-0.0539 0.72879,-0.10795 1.05437,-0.16203 0.36452,-0.0545 0.76614,-0.10883 0.9741,-0.16373 0.23699,-0.0596 0.43514,-0.11931 0.52158,-0.17917 0.10742,-0.0674 0.12703,-0.13485 0.0443,-0.20231 -0.0782,-0.0647 -0.19895,-0.12945 -0.32301,-0.19415 -0.0967,-0.0606 -0.15762,-0.12119 -0.26262,-0.18176 -0.0505,-0.0663 -0.18022,-0.13269 -0.0724,-0.19906 0.0857,-0.0726 0.24766,-0.14511 0.61831,-0.2173 0.42547,-0.0801 0.92123,-0.15993 1.41383,-0.23981 0.57616,-0.0958 1.18572,-0.19141 1.73294,-0.28726 0.63007,-0.11052 1.31455,-0.2209 1.76906,-0.33187 0.37591,-0.10854 0.68155,-0.21726 0.55326,-0.32619 -0.0877,-0.0792 -0.2307,-0.15861 -0.72428,-0.23721 0,0 -6.34218,0.0191 -6.34218,0.0191 z"
       inkscape:connector-curvature="0" />
    <path
       style="opacity:1;fill:#000000;fill-opacity:1;stroke:none;stroke-width:0.2;stroke-linejoin:miter;stroke-miterlimit:4;stroke-dasharray:none;stroke-opacity:1"
       id="path4479"
       d="m 98.793275,179.59913 c -2.453709,-0.13062 -4.909468,-0.21453 -7.366698,-0.18311 -0.817931,-0.13671 -2.775387,0.50285 -3.465304,-0.0226 -0.191355,-0.14573 -0.302741,-0.37385 -0.454112,-0.56078 -1.227963,-1.30005 -1.154996,-0.83156 -0.955075,-2.82757 0,0 0.15738,0.0149 0.15738,0.0149 v 0 c 0.135538,-1.3156 -0.173569,-1.16573 -0.05332,-2.27944 0.127026,-0.23346 0.196077,-0.50956 0.381085,-0.70037 0.826804,-0.85277 3.380335,-0.52951 4.439541,-0.63143 2.56885,0.0643 5.135216,0.20404 7.699669,0.36517 0,0 -0.383167,6.8252 -0.383167,6.8252 z"
       inkscape:connector-curvature="0" />
    <path
       style="opacity:1;fill:#000000;fill-opacity:1;stroke:none;stroke-width:0.2;stroke-linejoin:miter;stroke-miterlimit:4;stroke-dasharray:none;stroke-opacity:1"
       id="path4481"
       d="m 98.313104,158.9823 c -2.425862,-0.42909 -4.881377,-0.64207 -7.333192,-0.85794 -1.809935,-0.0972 -2.197393,-0.11817 -2.522513,-1.96436 -0.08658,-0.21843 -0.173157,-0.43686 -0.259734,-0.65529 0,0 0.413232,-2.02554 0.413232,-2.02554 v 0 c -0.0278,-0.20644 -0.0556,-0.41288 -0.08341,-0.61932 0.568666,-1.91346 1.132369,-1.81466 3.015824,-1.66991 2.658044,0.19963 5.297797,0.57025 7.927202,1.00332 0,0 -1.157409,6.78904 -1.157409,6.78904 z"
       inkscape:connector-curvature="0" />
    <path
       style="opacity:1;fill:#000000;fill-opacity:1;stroke:none;stroke-width:0.2;stroke-linejoin:miter;stroke-miterlimit:4;stroke-dasharray:none;stroke-opacity:1"
       id="path4483"
       d="m 96.588526,137.01673 c -2.264788,-0.28293 -4.542044,-0.45113 -6.810494,-0.70182 -2.031362,-0.20829 -2.742274,-0.75754 -3.52443,-2.63263 -0.223155,-0.6869 -0.14958,-1.39529 -0.230788,-2.10028 0,0 0.121721,-0.10087 0.121721,-0.10087 v 0 c 0.629119,0.0947 1.007761,-0.18616 1.48267,-0.59859 0.986554,-1.17213 1.044744,-1.48387 2.719885,-1.33147 2.333511,0.13611 4.655746,0.39322 6.98179,0.61659 0,0 -0.740354,6.84907 -0.740354,6.84907 z"
       inkscape:connector-curvature="0" />
    <path
       style="opacity:1;fill:#000000;fill-opacity:1;stroke:none;stroke-width:0.2;stroke-linejoin:miter;stroke-miterlimit:4;stroke-dasharray:none;stroke-opacity:1"
       id="path4485"
       d="m 95.73358,114.42826 c -2.200664,-0.49745 -4.427783,-0.85797 -6.64796,-1.25195 -1.886789,-0.25472 -2.201807,-0.19634 -3.068368,-1.92233 -0.250512,-0.56553 -0.447124,-1.13879 -0.577498,-1.74192 0,0 0.04454,-0.15168 0.04454,-0.15168 v 0 c 0.224502,-0.53933 0.340992,-1.11413 0.687782,-1.59783 1.323522,-1.73074 1.959652,-1.48534 4.02032,-1.17871 2.320943,0.36924 4.610711,0.90381 6.913453,1.36959 0,0 -1.372264,6.47483 -1.372264,6.47483 z"
       inkscape:connector-curvature="0" />
    <path
       style="opacity:1;fill:#000000;fill-opacity:1;stroke:none;stroke-width:0.2;stroke-linejoin:miter;stroke-miterlimit:4;stroke-dasharray:none;stroke-opacity:1"
       id="path4487"
       d="M 94.198772,91.453318 C 91.648848,90.788669 89.090454,90.157715 86.553338,89.444917 85.555457,88.982936 84.012343,89.028682 83.179273,88.211815 82.997634,88.033708 82.47818,87.000751 82.357946,86.77108 82.025923,86.092601 81.843911,85.381123 81.69327,84.646941 c 0,0 0.03377,-0.154434 0.03377,-0.154434 v 0 c 0.497496,-0.627949 1.012407,-1.152689 1.733079,-1.534883 0.276411,-0.155112 1.199849,-0.698965 1.506146,-0.763764 1.121267,-0.237215 2.373342,0.615153 3.446135,0.754081 2.462424,0.717661 4.915299,1.472363 7.412577,2.063578 0,0 -1.626201,6.441799 -1.626201,6.441799 z"
       inkscape:connector-curvature="0" />
    <path
       style="opacity:1;fill:#000000;fill-opacity:1;stroke:none;stroke-width:0.2;stroke-linejoin:miter;stroke-miterlimit:4;stroke-dasharray:none;stroke-opacity:1"
       id="path4489"
       d="m 92.47594,66.133284 c -2.380146,-0.181237 -4.766987,-0.35578 -7.127695,-0.717958 -2.238777,-0.291494 -2.97761,-1.484368 -3.683584,-3.49382 -0.01542,-0.299725 -0.03083,-0.599451 -0.04625,-0.899176 0,0 0.08202,-0.135141 0.08202,-0.135141 v 0 c 0.230079,-0.150728 0.460159,-0.301456 0.690238,-0.452181 1.506209,-0.993434 1.950571,-1.829303 3.88703,-1.449152 2.245995,0.30258 4.489172,0.621297 6.746494,0.832586 0,0 -0.548254,6.314842 -0.548254,6.314842 z"
       inkscape:connector-curvature="0" />
    <path
       style="opacity:1;fill:#000000;fill-opacity:1;stroke:none;stroke-width:0.2;stroke-linejoin:miter;stroke-miterlimit:4;stroke-dasharray:none;stroke-opacity:1"
       id="path4712"
       d="m 376.62277,83.709795 c -4.40115,-0.908232 -8.82851,-1.34839 -13.3179,-1.285057 -4.70972,0.33293 -9.25285,1.802402 -13.00983,4.723987 -0.80558,0.62643 -1.52707,1.354034 -2.2906,2.031053 -5.50868,5.617368 -8.08705,12.948712 -9.97868,20.409292 -1.5275,7.49251 -1.96917,15.2769 -0.39048,22.80616 0.3088,1.47275 0.77079,2.90919 1.15618,4.36379 2.38599,7.16816 6.64776,13.4312 12.41189,18.31558 1.18526,1.00435 2.46891,1.88647 3.70335,2.8297 6.76841,4.54865 14.43479,7.67713 22.53716,8.79719 1.6574,0.22912 3.33346,0.29295 5.0002,0.43943 8.76305,0.2294 17.33066,-1.84888 25.02937,-6.04662 1.58644,-0.86502 3.08271,-1.88609 4.62407,-2.82913 7.27879,-5.15576 13.44795,-11.7451 17.6744,-19.63391 0.77552,-1.44752 1.40529,-2.96851 2.10794,-4.45276 2.56233,-6.643 3.86609,-13.94017 1.59866,-20.87653 -0.40341,-1.234 -1.01203,-2.39117 -1.51804,-3.58675 -4.82225,-8.63843 -13.42144,-13.397323 -21.97926,-17.658747 -9.21117,-4.511569 -19.27,-6.776884 -28.74486,-10.582679 -2.6039,-0.696921 -5.50677,-2.507375 -8.20708,-2.894293 -0.5506,-0.0789 -1.10993,0.07499 -1.66492,0.112479 0,0 -0.0292,-0.155368 -0.0292,-0.155368 v 0 c 3.65041,-1.113497 7.04882,-1.579055 10.89827,-1.086811 1.42568,0.156094 2.86517,0.216247 4.27707,0.468284 2.78678,0.497467 7.1025,1.811861 9.73778,2.666989 5.54405,1.799016 11.00328,3.873791 16.30587,6.296417 10.04078,4.985019 19.41497,10.337937 24.88364,20.584089 1.61914,4.03951 2.27454,4.93539 2.84046,9.28847 0.88768,6.82816 -0.65717,13.59261 -3.18519,19.90318 -0.79028,1.65562 -1.49584,3.3544 -2.3708,4.96687 -4.69995,8.66167 -11.56993,15.92523 -19.6212,21.54457 -1.70987,1.04846 -3.36685,2.18851 -5.12961,3.14539 -8.62476,4.68181 -18.25482,6.91782 -28.0507,6.6278 -1.85889,-0.17155 -3.72854,-0.25122 -5.57665,-0.51467 -8.99928,-1.28288 -17.50545,-4.7878 -25.00739,-9.87422 -1.3889,-1.07139 -2.83456,-2.07295 -4.16671,-3.21415 -6.57691,-5.63421 -11.39423,-12.86251 -14.06491,-21.09667 -0.42505,-1.65259 -0.93538,-3.28556 -1.27513,-4.95778 -1.69103,-8.3229 -1.22015,-16.90831 0.54832,-25.17003 2.36107,-8.80963 5.30093,-16.666133 11.98452,-23.17446 0.97107,-0.81281 1.8906,-1.691478 2.91319,-2.438426 4.68998,-3.425807 10.28616,-5.028494 16.04772,-5.166379 4.93565,0.09514 9.86899,0.675328 14.4599,2.613441 0,0 -1.16086,3.761279 -1.16086,3.761279 z"
       inkscape:connector-curvature="0" />
    <path
       style="opacity:1;fill:#000000;fill-opacity:1;stroke:none;stroke-width:0.2;stroke-linejoin:miter;stroke-miterlimit:4;stroke-dasharray:none;stroke-opacity:1"
       id="path4730"
       d="m 403.05296,96.278175 c -2.12979,0.361495 -3.86615,1.355538 -5.25545,2.983143 -1.53696,2.147932 -1.83547,4.718162 -1.81829,7.285292 0.11101,3.04978 1.16929,5.81246 2.88393,8.29904 1.61073,2.03724 3.60309,2.70454 6.11494,2.52804 3.58034,-0.6353 6.33878,-2.8374 8.74234,-5.43287 1.89963,-2.3003 2.95695,-4.84696 2.10386,-7.76667 -1.27984,-2.79302 -3.87062,-4.52083 -6.42776,-6.036335 -2.26365,-0.916104 -3.76547,-3.268831 -6.12566,-4.012959 -0.3265,-0.102941 -0.68175,-0.06347 -1.02262,-0.0952 0,0 -0.0271,-0.155739 -0.0271,-0.155739 v 0 c 3.5801,-1.555065 6.11282,-2.114994 9.8779,-0.417182 3.96049,2.239629 7.4981,5.016228 9.04621,9.473175 0.15055,0.73236 0.37806,1.45304 0.45161,2.1971 0.39222,3.96802 -1.50225,7.55757 -3.94202,10.52787 -3.42908,3.57996 -7.41813,6.51759 -12.47966,7.14174 -5.00062,0.0885 -7.63886,-1.00034 -10.8041,-4.94939 -2.24681,-3.43719 -3.6526,-7.20633 -3.7543,-11.35856 0.0936,-3.94968 0.70855,-7.799609 3.36034,-10.909691 2.40233,-2.330129 5.17353,-3.867679 8.57273,-4.126513 0,0 0.50314,4.825714 0.50314,4.825714 z"
       inkscape:connector-curvature="0" />
    <path
       style="opacity:1;fill:#000000;fill-opacity:1;stroke:none;stroke-width:0.2;stroke-linejoin:miter;stroke-miterlimit:4;stroke-dasharray:none;stroke-opacity:1"
       id="path4732"
       d="m 366.32413,99.552164 c -2.54516,-0.277789 -5.06166,-0.103621 -7.53565,0.527266 -2.13347,0.6567 -3.56679,1.9838 -4.63857,3.8886 -1.13868,2.37001 -1.18062,4.9021 -0.78031,7.44536 0.58934,2.8634 2.19941,5.09234 4.44918,6.87892 2.1997,1.4961 4.37296,1.48735 6.65785,0.28006 2.90256,-2.00013 4.25757,-5.15541 5.05383,-8.46826 0.56198,-3.11588 -0.10967,-5.87471 -2.13722,-8.26759 -1.05963,-1.26873 -2.62663,-1.59335 -4.01797,-2.290727 -0.3457,-0.173278 -0.65257,-0.415076 -0.97888,-0.622615 -0.36935,-0.169267 -0.73874,-0.338534 -1.1081,-0.507804 -1.3476,-0.515218 -2.44469,-0.477541 -3.79301,-0.09293 0,0 -0.0741,-0.139621 -0.0741,-0.139621 v 0 c 1.21015,-0.986729 2.28994,-2.13328 3.72557,-2.806401 1.24595,-0.45938 2.29553,-0.982376 3.67681,-0.923409 2.73818,0.116896 5.13083,2.111211 6.97778,3.905705 3.27297,4.322072 3.95396,7.742742 3.09547,13.106282 -1.29858,4.93241 -3.52328,9.4276 -8.0454,12.15341 -0.71985,0.31817 -1.41124,0.71078 -2.15956,0.95453 -3.67011,1.19544 -7.35314,0.1722 -10.42582,-1.97695 -3.25835,-2.75769 -5.63314,-6.09223 -6.42557,-10.3725 -0.53401,-3.84337 -0.38907,-7.63693 1.46185,-11.14713 1.95061,-3.16579 4.52496,-5.532118 8.23394,-6.4319 3.13584,-0.668295 6.31357,-0.831365 9.4838,-0.237381 0,0 -0.69588,5.14509 -0.69588,5.14509 z"
       inkscape:connector-curvature="0" />
    <path
       style="opacity:1;fill:#000000;fill-opacity:1;stroke:none;stroke-width:0.2;stroke-linejoin:miter;stroke-miterlimit:4;stroke-dasharray:none;stroke-opacity:1"
       id="path4734"
       d="m 363.12802,106.39471 c -0.80849,1.22386 -1.89092,2.76052 -1.49371,4.3115 0.24911,0.23999 0.17225,-0.2179 0.38264,-0.37278 0.86072,-0.37982 1.3489,-1.13823 1.67852,-1.98283 0.12653,-0.48532 0.23479,-1.21806 -0.41423,-1.31217 -0.83682,0.0259 -1.19404,-0.572 -1.77088,-1.09197 -0.52483,-0.41523 -1.05254,-0.80321 -1.65233,-1.09917 0,0 -0.0274,-0.15569 -0.0274,-0.15569 v 0 c 0.4677,-0.53318 0.70313,-1.18143 1.19298,-1.70623 2.24263,-2.02589 3.79775,-1.37371 6.04785,0.32098 1.83401,2.11954 2.35746,4.53193 1.32693,7.20268 -1.20361,2.46998 -2.96217,4.39218 -5.73801,5.03467 -3.32608,0.23004 -5.50059,-0.95957 -6.27396,-4.36639 -0.14203,-2.98057 0.84566,-5.61552 2.66141,-7.98669 0,0 4.08017,3.20409 4.08017,3.20409 z"
       inkscape:connector-curvature="0" />
    <path
       style="opacity:1;fill:#000000;fill-opacity:1;stroke:none;stroke-width:0.2;stroke-linejoin:miter;stroke-miterlimit:4;stroke-dasharray:none;stroke-opacity:1"
       id="path4736"
       d="m 407.94206,105.12656 c -0.34589,0.47513 -1.46418,1.4369 -1.16832,2.17244 0.0567,0.14102 0.1407,-0.27762 0.15467,-0.42897 -0.36314,-0.79662 -0.27619,-0.62466 0.25501,-1.13184 0.37629,-0.29356 0.0292,-0.54976 0.11829,-0.82076 0.66085,-0.95126 0.57016,-2.28547 -0.28328,-3.058 0,0 0.0639,-0.1446 0.0639,-0.1446 v 0 c 1.93185,0.24068 -0.93076,-0.0649 1.64584,-0.0192 1.31148,0.0233 2.40202,0.56984 3.3733,1.42418 0.20026,0.42935 0.47969,0.83003 0.60076,1.28806 0.66628,2.52048 -0.80319,4.8625 -2.77831,6.26622 -3.14589,1.56914 -5.93976,1.59512 -8.18496,-1.46119 -0.17378,-0.54034 -0.43463,-1.0601 -0.52136,-1.62104 -0.38568,-2.49408 1.22872,-4.73452 2.75841,-6.49775 0,0 3.96608,4.0324 3.96608,4.0324 z"
       inkscape:connector-curvature="0" />
    <path
       style="opacity:1;fill:#000000;fill-opacity:1;stroke:none;stroke-width:0.2;stroke-linejoin:miter;stroke-miterlimit:4;stroke-dasharray:none;stroke-opacity:1"
       id="path4780"
       d="m 391.86656,132.59081 c -0.60177,-2.46029 -1.70826,-4.71594 -3.22458,-6.73239 -1.04857,-1.32233 -2.39829,-2.1267 -4.00834,-2.54635 -1.31953,-0.32062 -2.47216,0.0445 -3.57954,0.74983 -1.34208,1.15666 -1.9549,2.83688 -2.50783,4.46886 -0.48334,1.05227 -0.47154,2.32299 -0.9851,3.36052 -0.48175,0.97328 -1.38057,1.90461 -2.06581,2.74224 -0.78835,0.80059 -0.46569,0.40333 -1.00372,1.16183 0,0 -0.15751,-0.0134 -0.15751,-0.0134 v 0 c -0.40235,-0.84905 -0.15446,-0.39375 -0.77975,-1.34561 -0.5184,-1.03666 -1.19873,-2.26372 -1.33456,-3.43279 -0.16822,-1.44759 0.41616,-2.95345 0.66503,-4.34835 1.00735,-3.08946 2.40636,-5.97154 5.27857,-7.73764 2.59622,-1.38403 5.29632,-1.86271 8.18218,-1.06373 2.75752,0.94332 5.09569,2.47112 6.76984,4.91523 1.73305,2.67026 3.02107,5.56414 3.71364,8.68431 0,0 -4.96252,1.13744 -4.96252,1.13744 z"
       inkscape:connector-curvature="0" />
    <path
       style="opacity:1;fill:#000000;fill-opacity:1;stroke:none;stroke-width:0.2;stroke-linejoin:miter;stroke-miterlimit:4;stroke-dasharray:none;stroke-opacity:1"
       id="path4796"
       d="m 391.09104,130.24844 c 0.38872,1.985 0.81833,3.96651 0.97324,5.98623 0.0885,1.62811 -0.79862,1.5086 -2.00472,2.10217 0,0 -1.38552,-0.30376 -1.38552,-0.30376 v 0 c -1.04579,0.28401 -2.04679,0.13144 -2.25687,-1.06357 -0.35041,-1.81725 -0.59891,-3.6546 -1.05881,-5.45016 0,0 5.73268,-1.27091 5.73268,-1.27091 z"
       inkscape:connector-curvature="0" />
    <path
       style="opacity:1;fill:#000000;fill-opacity:1;stroke:none;stroke-width:0.2;stroke-linejoin:miter;stroke-miterlimit:4;stroke-dasharray:none;stroke-opacity:1"
       id="path4798"
       d="m 382.99714,132.2765 c 0.0873,1.64644 0.19831,3.29229 0.36984,4.93228 0.0967,0.59703 0.11795,1.20816 -0.0369,1.79668 -0.22058,0.19967 -0.6495,0.15114 -0.92199,0.16977 0,0 -4.32806,-0.56662 -4.32806,-0.56662 v 0 c -0.64135,-0.0724 -0.88693,-0.13318 -0.79004,-0.79445 0,0.41226 0.0308,-0.002 0.0268,-0.29431 0.003,-1.64189 -0.0577,-3.28361 -0.15282,-4.92258 0,0 5.83321,-0.32077 5.83321,-0.32077 z"
       inkscape:connector-curvature="0" />
    <path
       style="opacity:1;fill:#000000;fill-opacity:1;stroke:none;stroke-width:0.2;stroke-linejoin:miter;stroke-miterlimit:4;stroke-dasharray:none;stroke-opacity:1"
       id="path4800"
       d="m 401.66971,159.51056 c -2.6018,-1.9289 -5.43057,-3.41991 -8.44139,-4.58905 -3.51129,-1.31529 -7.14791,-1.46043 -10.81326,-0.90234 -3.05469,0.55192 -5.4492,2.2104 -7.63736,4.30682 -1.2614,0.984 -2.58582,1.85565 -3.81066,2.88965 -0.25442,0.2148 -0.57978,0.36715 -0.76218,0.64574 -0.12063,0.18424 -0.0594,0.43639 -0.0891,0.65458 0,0 -0.15663,-0.0214 -0.15663,-0.0214 v 0 c 0.17695,-1.28802 0.10808,-0.043 -0.26424,-1.71365 -0.47443,-2.12905 -0.0938,-4.33259 0.97753,-6.21113 2.85625,-3.40641 6.55208,-5.55937 10.97414,-6.2962 4.67773,-0.56101 9.29757,-0.20354 13.69788,1.61487 3.43458,1.53708 6.73952,3.40031 9.35397,6.16139 0,0 -3.02866,3.46075 -3.02866,3.46075 z"
       inkscape:connector-curvature="0" />
    <path
       style="opacity:1;fill:#000000;fill-opacity:1;stroke:none;stroke-width:0.2;stroke-linejoin:miter;stroke-miterlimit:4;stroke-dasharray:none;stroke-opacity:1"
       id="path4802"
       d="m 343.70226,154.97815 c -2.83337,0.10989 -5.4641,1.05797 -7.99079,2.27206 -2.80765,1.53154 -5.36125,3.46854 -7.90056,5.39985 -2.57286,1.92601 -5.21293,3.75778 -7.76222,5.71543 -2.27113,1.72137 -4.2663,3.73663 -6.02694,5.96941 -1.43917,1.79964 -2.4402,3.86537 -3.23413,6.01335 -0.61878,1.8104 -0.8296,3.70266 -0.97695,5.59741 -0.0917,1.48883 0,2.98239 0.26739,4.44842 0.22537,0.98117 0.76348,1.83945 1.38578,2.61587 0.50826,0.61554 1.19957,0.98484 1.93013,1.26982 1.15891,0.39963 2.31754,0.79598 3.45618,1.25104 1.3612,0.56982 2.70399,1.18186 4.06363,1.75546 1.29611,0.55263 2.64091,0.97491 3.98793,1.38236 1.32154,0.42564 2.6748,0.73759 4.01947,1.07861 1.36059,0.31584 2.67875,0.78273 3.96023,1.33355 1.26831,0.57313 2.46025,1.29945 3.63188,2.04672 0.99952,0.61581 2.0188,1.19748 3.01138,1.82464 1.09612,0.73296 2.13416,1.55072 3.17617,2.35814 0.67445,0.54831 1.45335,0.78241 2.27989,0.98346 1.46478,0.24731 2.92827,0.4857 4.28119,1.11622 0.88562,0.55348 1.41534,1.59547 2.43943,1.83627 0,0 -0.0151,0.15735 -0.0151,0.15735 v 0 c -1.04751,0.041 -1.76427,0.96976 -2.73375,1.34906 -1.62134,0.39568 -3.29213,0.3039 -4.92599,-0.01 -1.41973,-0.27811 -2.79839,-0.72919 -4.01905,-1.52628 -1.06076,-0.65955 -2.05321,-1.42022 -3.10353,-2.09642 -1.00502,-0.62837 -2.03936,-1.2077 -3.04112,-1.84143 -0.95184,-0.60842 -1.88333,-1.25777 -2.9259,-1.70781 -1.04253,-0.45618 -2.12301,-0.80315 -3.21643,-1.11644 -1.41248,-0.3625 -2.83289,-0.69825 -4.22233,-1.14453 -1.51082,-0.45678 -3.01723,-0.93563 -4.47095,-1.55498 -1.32967,-0.56175 -2.6442,-1.15813 -3.97645,-1.71367 -1.15925,-0.46147 -2.34836,-0.83525 -3.52007,-1.2626 -1.50186,-0.64056 -2.85314,-1.50774 -3.87818,-2.80644 -1.06723,-1.39851 -1.9748,-2.89808 -2.36623,-4.63613 -0.38721,-1.87883 -0.49257,-3.79149 -0.41214,-5.70795 0.12557,-2.3622 0.45969,-4.71638 1.21608,-6.96677 0.942,-2.68477 2.22385,-5.21672 3.97534,-7.47346 2.03337,-2.53788 4.29805,-4.87797 6.89795,-6.84585 2.57011,-1.96823 5.2124,-3.83899 7.80357,-5.77928 2.85451,-2.08196 5.66401,-4.27456 8.86081,-5.81914 3.22202,-1.44368 6.5975,-2.47111 10.17318,-2.29878 0,0 -0.0987,4.53324 -0.0987,4.53324 z"
       inkscape:connector-curvature="0" />
    <path
       style="opacity:1;fill:#000000;fill-opacity:1;stroke:none;stroke-width:0.2;stroke-linejoin:miter;stroke-miterlimit:4;stroke-dasharray:none;stroke-opacity:1"
       id="path4804"
       d="m 352.78501,208.8468 c 1.50746,1.8406 3.17587,3.55153 5.23555,4.76379 0.70117,0.3299 1.64488,0.80799 2.35167,0.32448 -0.17566,-0.16882 -0.2643,0.164 -0.42149,-0.0105 -0.44016,-0.5476 -0.94117,-0.67706 0.30584,-0.004 3.03254,-4.97674 1.24597,-4.08382 4.81356,-3.13812 1.53681,0.2765 3.18064,0.61446 4.71718,0.17758 0.0634,-0.0469 0.16034,-0.0678 0.19013,-0.14085 0.0596,-0.14614 -0.3278,0.074 -0.43299,0.19168 -0.13907,0.15549 -0.11719,0.57042 -0.32293,0.53602 -0.0802,-0.0134 -0.10467,-0.12453 -0.15697,-0.18679 -0.99201,-1.31962 -2.38747,-2.21048 -3.81019,-2.99877 -0.19439,-0.42612 -3.53491,-1.09471 -2.29381,-0.87617 2.06214,-1.18031 1.96274,-0.5148 1.86368,-3.28834 -0.022,-0.61298 -0.81807,-0.5762 0.61738,-0.24147 1.7128,0.38652 3.46284,0.36589 5.19705,0.174 1.33059,-0.21197 2.75926,-0.49418 3.82246,-1.37673 0.008,-0.0335 0.0541,-0.11498 0.023,-0.10039 -0.84,0.39419 -0.15923,1.32559 -0.3334,1.69308 -0.0246,0.0519 -0.10721,-0.0414 -0.16079,-0.062 -1.3585,-0.68445 -2.84618,-1.05379 -4.31853,-1.40255 -3.55865,-0.78958 -2.51177,0.74335 -1.12527,-5.00964 1.22687,0.29426 2.43826,0.11584 3.6341,-0.2142 0.79097,-0.31875 1.97594,-0.69439 2.36538,-1.54874 -0.74258,0.73579 0.32043,1.74666 -0.14052,1.65522 -1.40079,-0.32913 -2.85414,-0.3333 -4.28527,-0.38571 -1.46987,-0.0316 -2.94611,-0.0691 -4.4113,0.0733 -1.16657,0.17429 -2.29081,0.54983 -3.41553,0.89389 -1.13215,0.34547 -2.25758,0.71265 -3.39222,1.04984 -1.21275,0.3406 -2.45393,0.51394 -3.71187,0.45392 -1.13659,-0.0173 -1.98043,-0.59384 -2.83112,-1.27572 -0.4644,-0.37777 -0.81087,-0.84052 -1.1399,-1.33298 0,0 0.0654,-0.14394 0.0654,-0.14394 v 0 c 0.47508,-0.11713 0.90058,-0.24586 1.27809,-0.57792 0.70493,-0.58803 1.41645,-1.10636 2.35643,-1.22781 0.87072,-0.17671 1.76409,-0.25324 2.61208,-0.53206 1.12511,-0.33064 2.22726,-0.72983 3.35079,-1.06538 1.44486,-0.4354 2.89192,-0.90194 4.39689,-1.0781 1.67241,-0.13971 3.34465,-0.091 5.02055,-0.0344 1.94866,0.0734 3.92518,0.17082 5.80636,0.72487 2.58419,1.07825 3.80725,2.9921 2.28058,5.64427 -1.30347,1.62698 -2.98106,2.74271 -4.98729,3.3517 -1.99739,0.50659 -4.04257,0.74911 -6.07822,0.2795 -0.003,-1.65168 -0.18066,-3.31222 -0.01,-4.95502 0.0127,-0.12105 3.29488,0.53172 3.47718,0.62096 2.05613,0.50185 4.1425,1.03044 5.97768,2.12256 2.38302,1.82717 2.9202,4.12475 0.51422,6.26368 -1.84402,1.27 -3.91393,1.99613 -6.13805,2.28346 -2.335,0.23496 -4.70379,0.27546 -7.00492,-0.2613 -2.08351,-0.62735 -4.99015,-1.78271 -3.58881,-4.8016 0.30742,-0.66225 1.22074,-0.80133 1.8311,-1.202 1.87667,-2.7e-4 3.55243,0.71527 5.19338,1.59578 2.21549,1.26333 4.33649,2.73606 5.71894,4.93565 1.37054,2.95395 0.79732,5.30344 -2.46192,6.41167 -2.30076,0.45869 -4.60047,0.34936 -6.88853,-0.18275 -0.4331,-0.0992 -4.54478,-1.31034 -4.41802,-1.79084 0.40701,-1.54262 1.2995,-2.91421 1.94924,-4.37131 1.40153,0.68478 2.32283,1.69202 2.88745,3.17588 0.67133,2.28736 0.20675,4.36024 -1.88362,5.72194 -2.38003,1.06444 -4.68736,0.8209 -6.97304,-0.44272 -2.48126,-1.57086 -4.57081,-3.59045 -6.38955,-5.89678 0,0 3.67244,-2.9609 3.67244,-2.9609 z"
       inkscape:connector-curvature="0" />
    <path
       style="opacity:1;fill:#000000;fill-opacity:1;stroke:none;stroke-width:0.2;stroke-linejoin:miter;stroke-miterlimit:4;stroke-dasharray:none;stroke-opacity:1"
       id="path4806"
       d="m 353.24321,199.18611 c -3.1977,-1.39728 -6.20014,-3.16898 -9.16191,-5.00144 -2.99588,-1.92259 -5.74794,-4.1792 -8.49095,-6.43837 -1.2268,-1.28967 -3.10751,-2.15195 -4.09893,-3.67484 -0.27786,-0.42682 -0.63476,-1.64393 -0.79528,-2.14591 -0.30483,-0.6979 -0.15108,-1.42123 -0.268,-2.14219 0,0 0.12692,-0.0942 0.12692,-0.0942 v 0 c 0.65812,0.22854 1.26913,-0.15245 1.95924,0.0427 0.4848,0.0583 1.8043,0.1886 2.23832,0.36404 1.69574,0.68546 2.89296,2.37504 4.38402,3.36156 2.56225,2.12724 5.16255,4.21828 7.93757,6.065 2.70405,1.80561 5.51175,3.45532 8.41418,4.92262 0,0 -2.24518,4.74103 -2.24518,4.74103 z"
       inkscape:connector-curvature="0" />
    <path
       style="opacity:1;fill:#000000;fill-opacity:1;stroke:none;stroke-width:0.2;stroke-linejoin:miter;stroke-miterlimit:4;stroke-dasharray:none;stroke-opacity:1"
       id="path4808"
       d="m 364.78976,197.80133 c -0.0148,-2.46735 -0.023,-4.93739 -0.11856,-7.40318 -0.0122,-1.63452 -0.15412,-3.25527 -0.49776,-4.8531 -0.27575,-1.1701 -0.66397,-2.30625 -1.16313,-3.39851 -0.47922,-1.03553 -1.16891,-1.95798 -1.89982,-2.82779 -0.67143,-0.75278 -1.4184,-1.43903 -2.2688,-1.98315 -0.50652,-0.28249 -1.06947,-0.47905 -1.65428,-0.41086 -0.40349,0.0838 -0.70043,0.30626 -0.98909,0.58218 -0.50446,0.51298 -0.80423,1.17151 -1.08548,1.82291 -0.391,1.05826 -0.71046,2.14209 -1.04865,3.21828 -0.2979,0.97306 -0.59886,1.94741 -0.78356,2.94929 -0.15709,0.97977 -0.2181,1.97203 -0.29422,2.96055 -0.0992,1.10539 -0.16365,2.21319 -0.22733,3.32106 0.0814,1.18317 -0.48771,1.54304 -1.38449,2.17882 -0.17433,0.24709 -1.05222,0.42867 -1.00414,0.7645 0,0 -0.15666,0.0211 -0.15666,0.0211 v 0 c -0.0636,-0.0105 -1.07458,-0.18378 -1.24966,-0.20727 -1.65272,-0.56317 -1.91838,-1.23369 -1.93968,-2.92808 0.01,-1.20023 0.11408,-2.3943 0.24185,-3.58705 0.0913,-1.20414 0.16796,-2.4127 0.37836,-3.60341 0.23907,-1.21882 0.57181,-2.41074 0.98155,-3.5834 0.40256,-1.27334 0.77859,-2.55665 1.29741,-3.78946 0.66236,-1.48625 1.46579,-2.88502 2.73754,-3.94101 1.39319,-1.0718 2.96322,-1.75606 4.75321,-1.72806 1.64851,0.1336 3.21019,0.55473 4.5707,1.54024 1.21047,0.91331 2.32651,1.93069 3.22723,3.15988 0.96581,1.28244 1.87992,2.59928 2.50373,4.0898 0.57353,1.45296 1.05838,2.93979 1.31606,4.48494 0.30443,1.88981 0.42019,3.79931 0.38642,5.71383 -0.06,2.47808 -0.0734,4.95827 -0.0909,7.43701 0,0 -4.53787,0 -4.53787,0 z"
       inkscape:connector-curvature="0" />
    <path
       style="opacity:1;fill:#000000;fill-opacity:1;stroke:none;stroke-width:0.2;stroke-linejoin:miter;stroke-miterlimit:4;stroke-dasharray:none;stroke-opacity:1"
       id="path4810"
       d="m 351.127,212.2886 c -0.37653,2.87468 -0.68636,5.75863 -0.96407,8.64447 -0.29395,2.84862 -0.56769,5.7012 -0.71966,8.5613 -0.165,2.13261 -0.14113,4.27361 -0.1133,6.41062 0.14695,1.5245 -0.73983,2.3878 -1.8837,3.22823 -0.0572,0.0744 -0.11432,0.14875 -0.1715,0.22312 0,0 -0.15412,0.0352 -0.15412,0.0352 v 0 c -0.0845,-0.0453 -0.16904,-0.0905 -0.25358,-0.13579 -1.6184,-0.42702 -2.6489,-1.27439 -2.79355,-3.03156 -0.24032,-2.38297 -0.13904,-4.76141 0.0739,-7.14502 0.29732,-2.89822 0.61363,-5.79412 0.93901,-8.68928 0.34724,-2.95038 0.65209,-5.90678 1.12197,-8.84126 0,0 4.91863,0.73994 4.91863,0.73994 z"
       inkscape:connector-curvature="0" />
    <path
       style="opacity:1;fill:#000000;fill-opacity:1;stroke:none;stroke-width:0.2;stroke-linejoin:miter;stroke-miterlimit:4;stroke-dasharray:none;stroke-opacity:1"
       id="path4812"
       d="m 346.88358,242.48185 c -2.54674,-0.19717 -5.09812,-0.39364 -7.65384,-0.35891 -1.65513,-0.008 -3.26747,0.29193 -4.82002,0.84782 -0.68699,0.2994 -1.37533,0.63487 -1.80686,1.25185 0.42182,-0.30231 0.27675,-1.04562 0.24519,-1.47095 0.65259,0.38173 1.31249,0.76122 2.01384,1.04705 0.7741,0.31495 1.53493,0.64721 2.34231,0.86848 0.74935,0.24679 1.52691,0.33297 2.30592,0.41259 0.80727,0.0473 1.59269,-0.13447 2.37831,-0.28923 1.26717,-0.31165 2.53918,-0.57351 3.83641,-0.71488 1.25812,-0.10317 2.52,-0.16746 3.78185,-0.20144 1.12421,-0.0788 2.24919,-0.16276 3.36537,-0.3209 1.04597,-0.10962 2.08047,-0.30583 3.11351,-0.49972 1.03274,-0.21356 2.0692,-0.41901 3.08887,-0.68795 0.93541,-0.2133 1.86939,-0.43263 2.79705,-0.67762 0.22595,0.0371 1.22137,-0.4775 1.01364,-0.39773 -0.34753,0.22349 -0.44344,0.71738 -0.48466,0.12032 -8e-5,-0.12394 -0.12168,-0.99941 -0.2272,-0.71202 -0.21161,0.0911 -0.6201,-0.001 -0.8967,0.01 -1.23359,0.13624 -2.4249,0.5162 -3.61286,0.85973 -1.88309,0.62991 -3.81238,1.09432 -5.77712,1.37429 -2.24523,0.25614 -4.00201,0.40184 -5.56885,-1.42257 -0.50212,-0.70097 -0.65944,-1.33554 -0.59277,-2.16835 0,0 0.11158,-0.11198 0.11158,-0.11198 v 0 c 0.48455,-0.33192 0.94768,-0.68941 1.40017,-1.06433 1.16724,-1.0146 2.28129,-0.82895 3.75425,-1.01731 1.70598,-0.29151 3.38138,-0.69784 5.0342,-1.21436 1.78369,-0.52318 3.58868,-1.08049 5.46794,-1.05482 1.9854,0.11471 3.825,0.65369 5.20956,2.17234 0.90583,1.2836 1.45185,2.63983 1.47799,4.23047 0.0116,1.7007 -0.32517,3.27073 -1.62771,4.47981 -0.97417,0.72463 -2.03563,1.229 -3.23001,1.47918 -0.98076,0.25318 -1.96689,0.48418 -2.95471,0.70805 -1.1117,0.22237 -2.21213,0.50191 -3.32893,0.70376 -1.17174,0.22035 -2.34749,0.41064 -3.5346,0.52858 -1.23293,0.10591 -2.46303,0.24641 -3.69903,0.31549 -1.15782,0.0904 -2.31963,0.10838 -3.477,0.20686 -1.07474,0.11235 -2.14267,0.26073 -3.18706,0.54834 -1.31638,0.3353 -2.66372,0.58958 -4.02905,0.51585 -1.25235,-0.0654 -2.47857,-0.32193 -3.67165,-0.7083 -1.06294,-0.38092 -2.10614,-0.82836 -3.09108,-1.38276 -1.10236,-0.64595 -2.18416,-1.3314 -3.15941,-2.162 -1.44317,-1.61961 -1.98811,-3.5871 -0.58552,-5.46043 1.11842,-1.31246 2.53195,-2.26443 4.17449,-2.81681 2.09462,-0.70459 4.2569,-1.115 6.47713,-1.07932 2.68062,0.059 5.35329,0.25411 8.02179,0.51491 0,0 -0.39473,4.79927 -0.39473,4.79927 z"
       inkscape:connector-curvature="0" />
    <path
       style="opacity:1;fill:#000000;fill-opacity:1;stroke:none;stroke-width:0.2;stroke-linejoin:miter;stroke-miterlimit:4;stroke-dasharray:none;stroke-opacity:1"
       id="path4814"
       d="m 357.87649,237.13171 c 0.47207,-2.78728 0.65471,-5.61317 0.83497,-8.43123 0.0942,-2.21782 0.15402,-4.43732 0.27154,-6.6541 0.0557,-1.45591 0.0945,-2.92125 0.26816,-4.36903 0.10636,-0.64884 0.008,-1.46522 0.49448,-1.97199 0.71985,-0.30705 1.91569,-0.0535 2.471,-0.64365 0,0 0.15808,0.001 0.15808,0.001 v 0 c 0.56283,0.63108 1.76523,0.44715 2.41602,1.02624 0.32494,0.67687 0.14499,1.42956 0.0791,2.15085 -0.10269,1.34362 -0.20349,2.6862 -0.25535,4.03386 -0.063,2.26863 -0.19124,4.53545 -0.36068,6.79853 -0.21037,3.00421 -0.56793,5.99166 -1.05519,8.96392 0,0 -5.32209,-0.90451 -5.32209,-0.90451 z"
       inkscape:connector-curvature="0" />
    <path
       style="opacity:1;fill:#000000;fill-opacity:1;stroke:none;stroke-width:0.2;stroke-linejoin:miter;stroke-miterlimit:4;stroke-dasharray:none;stroke-opacity:1"
       id="path4816"
       d="m 426.62304,154.01989 c 3.17736,0.45963 6.05269,1.71221 8.76332,3.37872 2.77056,1.79224 4.98697,4.23062 6.98035,6.82768 2.11449,2.79292 3.5593,5.9543 4.66026,9.25822 1.0392,3.16099 1.29638,6.43091 1.06736,9.72851 -0.32306,2.90397 -1.17293,5.72044 -2.12339,8.47329 -0.87572,2.70944 -2.1041,5.26033 -3.63384,7.65584 -1.54488,2.32586 -3.5991,4.21043 -5.68431,6.03608 -1.8057,1.50537 -3.66845,2.94551 -5.67148,4.17873 -1.91211,1.18246 -4.05257,1.7905 -6.22733,2.26313 -1.79314,0.3133 -3.57103,0.69904 -5.3485,1.0894 -1.67048,0.37406 -3.33862,0.75691 -5.01161,1.11986 -1.3094,0.26194 -2.61951,0.52466 -3.88906,0.94379 -0.92577,0.32646 -1.81954,0.74841 -2.67054,1.23618 -0.96192,0.44933 -0.36021,0.60313 0.0709,-0.24362 0.73713,-1.44776 0.60904,-1.35441 0.35951,-2.53208 0.57206,1.12233 0.44125,2.404 0.24535,3.6 -0.41645,1.93285 -1.64833,3.3042 -3.2099,4.42392 -1.3835,0.84802 -2.91041,1.25914 -4.50461,1.43983 -2.18755,0.1603 -3.77597,-0.99513 -4.85807,-2.79642 -0.52961,-0.98722 -0.68733,-2.07206 -0.67302,-3.17667 0.003,-0.10438 0.006,-0.41704 0.0127,-0.3129 0.0153,0.22642 0.008,0.45382 0.0124,0.68073 3.03186,2.14307 4.49318,2.02493 2.64448,2.49924 -0.77451,0.19872 -1.54612,0.30328 -2.33897,0.40075 -2.09071,0.22713 -4.12805,-0.17926 -6.08975,-0.87436 -2.36794,-0.98322 -3.54026,-2.35381 -3.87517,-4.91335 0.12287,-2.07206 1.33628,-3.56417 2.819,-4.88313 1.20545,-1.05357 2.5699,-1.59934 4.15618,-1.69257 3.84332,0.69609 3.06454,2.36003 1.11623,5.85749 -0.3053,0.54804 -2.26939,0.28881 -2.75881,0.2402 -1.31382,-0.16356 -2.53408,-0.61771 -3.69332,-1.23807 -2.46594,-1.80174 -2.04703,-4.23152 0.0265,-6.09508 1.4043,-1.08669 3.08231,-1.71042 4.75546,-2.24996 0.23646,0.0457 4.18383,-1.18472 2.3123,-0.46082 -0.37632,0.50386 -0.91924,0.91869 -1.12895,1.51157 -0.54073,1.52863 1.0632,2.70597 -0.59915,1.24841 -1.25585,-1.01009 -2.31386,-2.23553 -2.18784,-3.98659 0.0355,-0.49255 0.27789,-0.94775 0.41685,-1.42163 0.87045,-1.50361 2.32664,-2.45093 3.73462,-3.39828 1.38705,-0.96519 2.91944,-1.61692 4.55028,-2.02898 1.50497,-0.34905 3.01739,-0.15473 4.51884,0.0778 0.68895,0.13644 1.37062,0.14634 2.05494,0.004 0.80973,-0.22883 1.61486,-0.47275 2.41351,-0.73798 0.90053,-0.30282 1.77188,-0.68154 2.66446,-1.00657 1.05994,-0.40611 2.18236,-0.56392 3.29538,-0.74501 0.95083,-0.15055 1.90582,-0.25476 2.86486,-0.33419 0.68812,-0.0987 1.46441,0.13576 2.11018,-0.17371 0.79883,-0.48913 1.56427,-1.02726 2.28502,-1.6261 0.76187,-0.65694 1.45389,-1.3966 1.96189,-2.26759 0.38629,-0.62953 0.65021,-1.3427 0.84606,-2.05377 0.26931,-0.84691 0.43968,-1.71914 0.58308,-2.59518 0.1133,-0.86939 0.19701,-1.74147 0.15838,-2.61923 -0.0233,-0.39227 -0.16621,-0.68074 -0.46632,-0.92113 -0.37764,-0.25439 -0.83244,-0.32105 -1.2604,-0.44849 -1.00796,-0.73059 -1.87854,-1.6491 -2.96693,-2.34102 -0.17944,0.044 -0.35888,0.0881 -0.5383,0.1321 0,0 -0.0377,-0.15353 -0.0377,-0.15353 v 0 c 0.17986,-0.0441 0.35975,-0.0883 0.53961,-0.13243 0.90856,-1.43899 1.82275,-3.13776 3.73113,-3.16234 1.89434,0.1394 3.60088,0.81007 4.94337,2.19679 1.13303,1.35119 1.89151,2.85455 1.9499,4.6523 0.0288,1.25521 -0.0537,2.5088 -0.26707,3.747 -0.19132,1.1624 -0.40095,2.32237 -0.75142,3.44919 -0.42486,1.20289 -0.86775,2.39405 -1.56837,3.47242 -0.9118,1.29888 -1.92365,2.5202 -3.1601,3.52779 -1.31755,1.08062 -2.66645,2.17906 -4.30303,2.73447 -1.14527,0.31342 -2.29438,0.40833 -3.48006,0.38416 -0.81174,0.005 -1.61028,0.15989 -2.41416,0.25877 -0.71393,0.0676 -1.42476,0.17938 -2.1027,0.42253 -0.94557,0.33794 -1.86092,0.7517 -2.80625,1.08913 -1.05164,0.34522 -2.10847,0.69412 -3.19627,0.90593 -1.31726,0.22539 -2.63996,0.26034 -3.9601,0.0116 -0.76348,-0.11805 -1.53567,-0.29404 -2.31034,-0.17397 -0.97711,0.20274 -1.86238,0.64252 -2.68581,1.20338 -0.14341,0.0965 -2.11821,1.71667 -1.66706,1.05853 0.2605,-1.8041 -1.18081,-2.65766 0.27741,-1.32289 1.29519,1.12403 2.93658,2.42905 2.43599,4.45854 -0.18102,0.73391 -0.81777,1.27154 -1.22668,1.90731 -1.22193,0.62272 -2.47291,0.87056 -3.7985,1.18998 -0.96636,0.30343 -1.9124,0.6586 -2.78913,1.17307 0.57971,-1.13909 0.52853,-2.65862 -0.71437,-3.36294 0.28678,0.26761 0.83605,0.34826 1.23367,0.46263 0.37462,0.0413 -0.17079,0.0638 -0.20868,0.18639 -0.41566,1.3448 -1.1535,2.69495 -1.02438,4.09659 0.10038,1.0898 1.47513,1.13717 2.20596,1.22564 0.89673,-0.16835 0.0455,-0.0792 -0.24694,0.26643 -0.3181,0.26134 -0.84661,1.11247 -0.8034,0.2705 -0.28147,-0.79504 -0.92541,-0.90438 0.0432,-0.32796 1.08799,0.42869 2.21133,0.64689 3.38635,0.52215 3.3075,-0.38042 1.70365,-1.49888 6.19599,1.65334 0.0447,0.63058 0.19528,0.88588 -0.0589,1.20828 -0.24358,-0.14505 -0.68554,-0.33648 -0.80442,-0.19902 0.60227,-0.0276 1.22841,-0.18847 1.76422,-0.46147 0.32644,-0.17091 0.61886,-0.34621 0.72525,-0.71896 0.19838,-0.5795 0.19171,0.2379 0.1461,-0.20063 -0.64196,-2.4663 0.21021,-3.63573 2.29727,-4.57999 1.17883,-0.5653 2.33693,-1.18457 3.59222,-1.57354 1.45312,-0.45632 2.93735,-0.78681 4.43386,-1.06787 1.66852,-0.35787 3.33711,-0.71419 5.00386,-1.07999 1.81258,-0.39472 3.63365,-0.7389 5.46348,-1.04358 1.54975,-0.27389 3.08647,-0.66563 4.45747,-1.46736 1.76918,-1.06639 3.42659,-2.29243 5.00382,-3.62747 1.72813,-1.42708 3.40815,-2.94829 4.69173,-4.80132 1.30513,-2.00778 2.35415,-4.14821 3.0907,-6.43334 0.75578,-2.3554 1.56361,-4.712 1.83655,-7.18523 0.21461,-2.58692 0.014,-5.16936 -0.76242,-7.66062 -0.89189,-2.74332 -2.06812,-5.38554 -3.8113,-7.7053 -1.60369,-2.10078 -3.3274,-4.11727 -5.52976,-5.62009 -2.07034,-1.3074 -4.30985,-2.3116 -6.76476,-2.61229 0,0 0.75377,-5.19194 0.75377,-5.19194 z"
       inkscape:connector-curvature="0" />
    <path
       style="opacity:1;fill:#000000;fill-opacity:1;stroke:none;stroke-width:0.2;stroke-linejoin:miter;stroke-miterlimit:4;stroke-dasharray:none;stroke-opacity:1"
       id="path4818"
       d="m 401.42154,198.51908 c 0.35467,-2.22364 0.52429,-4.46593 0.44442,-6.716 -0.0524,-1.4695 -0.46014,-2.8718 -0.92967,-4.25236 -0.42825,-1.13714 -0.9466,-2.24206 -1.51059,-3.318 -0.28691,-0.62786 -0.67161,-1.14519 -1.24383,-1.52881 -0.54221,-0.0779 0.39579,0.101 0.58634,0.0883 -0.36287,0.62886 -0.78157,1.34036 -1.11315,2.02675 -0.4722,0.92969 -0.74308,1.93628 -0.79521,2.97484 0.0392,1.31032 0.3914,2.58379 0.61056,3.87075 0.40452,1.80108 -0.60188,3.22716 -1.9349,4.33827 -0.0704,0.11968 -0.14084,0.23935 -0.21127,0.35903 0,0 -0.15558,-0.028 -0.15558,-0.028 v 0 c -0.0275,-0.11821 -0.0551,-0.23643 -0.0827,-0.35464 -1.24383,-0.85441 -2.65062,-1.47109 -2.96812,-3.08532 -0.51629,-1.791 -0.92837,-3.63076 -0.8722,-5.5069 0.14668,-1.76272 0.56491,-3.44274 1.35159,-5.03678 0.80479,-1.63687 1.69286,-3.26301 3.19813,-4.36364 1.99467,-1.07266 3.9824,-1.12144 5.85777,0.26385 1.1938,0.97009 2.17739,2.12747 2.82183,3.53724 0.59608,1.32795 1.23767,2.63746 1.70842,4.01806 0.62891,1.9226 1.01793,3.91127 1.02385,5.94189 -0.023,2.55085 -0.34996,5.07799 -0.75612,7.59478 0,0 -5.02962,-0.82332 -5.02962,-0.82332 z"
       inkscape:connector-curvature="0" />
    <path
       style="opacity:1;fill:#000000;fill-opacity:1;stroke:none;stroke-width:0.2;stroke-linejoin:miter;stroke-miterlimit:4;stroke-dasharray:none;stroke-opacity:1"
       id="path4820"
       d="m 401.00273,223.47769 c 0.50151,3.21839 1.01478,6.43491 1.515,9.65354 0.50713,2.97298 1.07775,5.9352 1.67323,8.89162 0.25619,1.83005 1.15943,3.8896 -0.13375,5.46721 -0.6386,0.54246 -0.29602,0.32327 -1.02026,0.66906 0,0 -1.12138,0.29741 -1.12138,0.29741 v 0 c -0.84067,-0.0968 -0.42426,0.004 -1.2459,-0.31546 -1.75533,-1.0621 -1.65759,-3.25033 -2.06865,-5.0789 -0.51649,-3.0286 -1.08585,-6.0487 -1.511,-9.0924 -0.4939,-3.21583 -0.89292,-6.44479 -1.39063,-9.66002 0,0 5.30334,-0.83206 5.30334,-0.83206 z"
       inkscape:connector-curvature="0" />
    <path
       style="opacity:1;fill:#000000;fill-opacity:1;stroke:none;stroke-width:0.2;stroke-linejoin:miter;stroke-miterlimit:4;stroke-dasharray:none;stroke-opacity:1"
       id="path4822"
       d="m 403.61784,245.08978 c 2.71637,0.35976 5.45248,0.45838 8.1888,0.39111 2.2859,-0.0653 4.56227,-0.37034 6.78572,-0.8993 1.79641,-0.40117 3.5583,-0.96843 5.2147,-1.77346 0.82367,-0.38817 1.61406,-0.83413 2.21972,-1.52419 0.0653,-0.11631 0.28101,-0.62614 0.031,-0.48159 -0.0509,0.23845 -0.0648,0.2802 -0.3025,0.33831 -1.09289,0.003 -2.16427,0.25515 -3.23803,0.42845 -1.74376,0.30466 -3.5112,0.38941 -5.27761,0.41582 -1.83267,-0.009 -3.66446,-0.0732 -5.49685,-0.104 -1.66606,-0.0572 -3.32502,0.079 -4.98528,0.19014 -1.28612,0.0142 -2.75979,0.44346 -3.89713,-0.29347 -0.57769,-0.6812 -0.8663,-1.59956 -1.15938,-2.37249 0,0 0,-0.15808 0,-0.15808 v 0 c 0.26599,-0.76856 0.51544,-1.6901 1.01174,-2.41062 1.00169,-0.803 2.44933,-0.51023 3.65975,-0.679 1.8217,-0.11587 3.64611,-0.23211 5.47256,-0.19282 1.76868,0.0308 3.53695,0.0886 5.3059,0.0974 1.47905,-0.0228 2.95912,-0.0899 4.41896,-0.34787 1.79637,-0.29205 3.61921,-0.64378 5.44018,-0.35639 2.3259,0.62962 4.15557,1.87305 4.8332,4.31052 0.29218,2.05997 -0.0667,3.93546 -1.43997,5.56319 -1.16869,1.28599 -2.58133,2.23312 -4.16883,2.9436 -2.07174,0.88236 -4.16814,1.70467 -6.37516,2.1915 -2.63795,0.53597 -5.29458,0.95266 -7.99632,0.94765 -3.02397,-0.0117 -6.04549,-0.18558 -9.04279,-0.60241 0,0 0.79872,-5.62205 0.79872,-5.62205 z"
       inkscape:connector-curvature="0" />
    <path
       style="opacity:1;fill:#000000;fill-opacity:1;stroke:none;stroke-width:0.2;stroke-linejoin:miter;stroke-miterlimit:4;stroke-dasharray:none;stroke-opacity:1"
       id="path4824"
       d="m 415.25514,238.44384 c -0.4191,-2.86988 -1.03891,-5.70207 -1.70976,-8.52175 -0.76991,-3.00214 -1.71413,-5.95414 -2.66547,-8.90255 -0.79348,-2.50102 -1.7055,-4.96092 -2.66401,-7.40263 -0.94773,-2.06413 -0.81272,-2.72036 0.0629,-4.71724 0.40608,-0.68925 0.37806,-0.37114 0.32689,-0.90051 0,0 0.13843,-0.0763 0.13843,-0.0763 v 0 c 0.42434,0.33306 0.13738,0.17887 0.947,0.24174 2.32746,0.57967 2.88891,1.16366 3.73179,3.4369 0.9742,2.55084 1.86166,5.13339 2.70206,7.73134 0.99382,3.10053 1.95506,6.21777 2.66464,9.39754 0.64865,2.98532 1.1738,5.99697 1.48738,9.03751 0,0 -5.02187,0.67595 -5.02187,0.67595 z"
       inkscape:connector-curvature="0" />
    <path
       style="opacity:1;fill:#000000;fill-opacity:1;stroke:none;stroke-width:0.2;stroke-linejoin:miter;stroke-miterlimit:4;stroke-dasharray:none;stroke-opacity:1"
       id="path4828"
       d="m 341.20872,212.41014 c -0.87048,1.88158 -1.5481,3.84652 -2.17802,5.81965 -0.39,1.21699 -0.7951,2.42891 -1.14509,3.65819 -0.34198,1.08782 -0.59555,2.20214 -0.85088,3.31297 -0.23773,0.95653 -0.41907,1.92309 -0.49106,2.90625 -0.0841,0.40112 0.0145,0.46368 0.19579,0.66221 0.57573,0.69295 1.33551,1.18796 2.07094,1.6923 1.4953,0.98103 3.09462,1.78681 4.68249,2.60397 1.923,0.81845 2.87894,2.66418 4.08297,4.26628 0.19913,0.11527 0.39826,0.23055 0.59741,0.34582 0,0 -0.0279,0.1556 -0.0279,0.1556 v 0 c -0.24485,0.0356 -0.48969,0.0711 -0.73454,0.10665 -2.12542,0.72436 -4.31668,1.24948 -6.41204,0.1673 -1.85248,-0.8834 -3.67414,-1.84075 -5.39869,-2.95662 -1.40171,-0.95854 -2.76659,-2.01513 -3.72407,-3.44113 -0.76734,-1.34761 -1.15435,-2.73187 -0.91225,-4.29011 0.19028,-1.20988 0.465,-2.40192 0.82139,-3.57424 0.33902,-1.19176 0.69485,-2.37836 1.07808,-3.55667 0.43569,-1.25113 0.92453,-2.482 1.39573,-3.72001 0.79517,-2.11919 1.65978,-4.20856 2.67062,-6.23567 0,0 4.27916,2.07726 4.27916,2.07726 z"
       inkscape:connector-curvature="0" />
    <path
       style="opacity:1;fill:#000000;fill-opacity:1;stroke:none;stroke-width:0.2;stroke-linejoin:miter;stroke-miterlimit:4;stroke-dasharray:none;stroke-opacity:1"
       id="path4830"
       d="m 365.03532,235.23115 c 2.3364,0.97715 4.75271,1.73029 7.19738,2.38006 2.60292,0.69252 5.28013,0.98059 7.95078,1.2623 2.77207,0.27017 5.55932,0.33766 8.34279,0.29977 2.52034,-0.0169 4.9955,-0.48071 7.43826,-1.05795 1.15004,-0.16778 2.30198,-0.80401 3.48321,-0.79313 1.08323,0.01 2.33961,0.47123 3.37535,0.76329 1.15612,0.42953 0.59875,0.28014 1.66208,0.48426 0,0 0.0445,0.1517 0.0445,0.1517 v 0 c -0.76758,0.73995 -0.39563,0.31244 -1.0823,1.31091 -0.66874,0.85482 -1.43026,1.98318 -2.32807,2.61039 -1.06701,0.74541 -2.51883,0.89012 -3.70872,1.32464 -2.88568,0.73965 -5.82149,1.24374 -8.81065,1.25442 -3.02024,0.0329 -6.03888,-0.0864 -9.04454,-0.39758 -2.99876,-0.31677 -5.99202,-0.76025 -8.9036,-1.56414 -2.66978,-0.78033 -5.28281,-1.73041 -7.82818,-2.85462 0,0 2.21176,-5.17432 2.21176,-5.17432 z"
       inkscape:connector-curvature="0" />
    <path
       style="opacity:1;fill:#000000;fill-opacity:1;stroke:none;stroke-width:0.2;stroke-linejoin:miter;stroke-miterlimit:4;stroke-dasharray:none;stroke-opacity:1"
       id="path4832"
       d="m 418.74661,231.96689 c 2.51992,-0.80006 4.94816,-1.86516 7.23508,-3.18893 1.59166,-0.89044 2.85462,-2.09795 3.6966,-3.70969 0.65895,-1.53139 0.2589,-3.09208 -0.17396,-4.62361 -0.94075,-2.82853 -2.39495,-5.44653 -3.73893,-8.09589 -1.61507,-2.81279 -1.97305,-4.69271 -1.34046,-7.83301 0.3883,-1.05092 0.40153,-0.57564 0.18754,-1.41401 0,0 0.15134,-0.0456 0.15134,-0.0456 v 0 c 0.27794,0.79446 0.0209,0.42632 0.96067,0.94431 2.56178,1.65283 3.79119,2.87631 5.06122,5.74585 1.57554,2.9764 3.14796,5.98149 4.19973,9.1907 0.8165,3.02353 1.13215,6.03097 -0.35378,8.92314 -1.44573,2.47142 -3.41008,4.42575 -5.93968,5.80812 -2.6425,1.41228 -5.38356,2.60633 -8.24026,3.52213 0,0 -1.70511,-5.22347 -1.70511,-5.22347 z"
       inkscape:connector-curvature="0" />
    <path
       style="opacity:1;fill:#000000;fill-opacity:1;stroke:none;stroke-width:0.2;stroke-linejoin:miter;stroke-miterlimit:4;stroke-dasharray:none;stroke-opacity:1"
       id="path4834"
       d="m 397.56775,186.96818 c -0.12378,2.74149 -0.26406,5.48261 -0.42757,8.22209 0.28263,2.15087 -1.94598,3.72136 -2.01403,5.70803 0,0 -0.15635,0.0233 -0.15635,0.0233 v 0 c -0.35803,-1.06008 0.0124,-0.20933 -0.8247,-1.33148 -0.99428,-1.33279 -1.72826,-2.84646 -1.75514,-4.53345 -0.006,-2.80322 0.13255,-5.60475 0.36679,-8.39805 0,0 4.811,0.30961 4.811,0.30961 z"
       inkscape:connector-curvature="0" />
    <path
       style="opacity:1;fill:#000000;fill-opacity:1;stroke:none;stroke-width:0.2;stroke-linejoin:miter;stroke-miterlimit:4;stroke-dasharray:none;stroke-opacity:1"
       id="path4836"
       d="m 338.94479,151.54561 c -2.71042,2.41003 -5.92948,3.7052 -9.4655,4.27755 -5.0219,0.39778 -9.47878,-1.55727 -13.59974,-4.21817 -4.75372,-3.54788 -7.06776,-6.99164 -8.49643,-12.71188 -0.55653,-3.8604 -0.008,-7.9243 2.62988,-10.96755 0.46458,-0.53589 1.03298,-0.97215 1.54947,-1.45823 3.042,-2.15237 6.52111,-2.42981 9.8673,-0.91213 2.31161,1.60214 2.80434,3.41943 0.0821,5.73252 -1.18915,1.01041 -4.33555,-0.53713 -5.4306,-0.96945 -4.6336,-2.1117 -8.75607,-5.13641 -12.57914,-8.46463 -2.73614,-2.65464 -5.56218,-5.73121 -6.05946,-9.69296 -0.0901,-0.71795 -0.0177,-1.44707 -0.0265,-2.17061 0.67352,-4.4982 3.76248,-7.55168 7.19928,-10.211735 2.7155,-1.99976 5.81266,-3.16462 9.05031,-3.972459 1.2477,-0.405281 -0.75483,0.205607 -0.93945,0.75643 -0.31409,0.93703 0.13332,1.979549 0.0509,2.964371 -0.009,0.107497 -0.19537,-0.09276 -0.28652,-0.150469 -0.72818,-0.461087 -1.7586,-1.187482 -2.42964,-1.651719 -3.93234,-2.677409 -7.14621,-6.071886 -9.60504,-10.124816 -2.51354,-5.568855 -1.57035,-8.727821 2.05251,-13.374386 3.49451,-3.67145 7.86564,-6.299447 12.31998,-8.63394 2.82035,-1.416534 5.74688,-2.762906 8.93442,-2.08713 2.65811,1.436035 2.44496,4.2955 -0.32083,5.439 -1.34678,0.556805 -2.92272,-0.0413 -4.17399,-0.486884 -2.62194,-1.307979 -4.73914,-3.68989 -4.81499,-6.766878 -0.0169,-0.68306 0.15888,-1.357267 0.23833,-2.0359 1.6959,-4.881378 6.27687,-6.78126 10.87213,-8.135815 5.75831,-1.385169 10.73788,-0.788726 16.2501,1.152923 4.14152,1.760902 7.45053,4.651705 9.99527,8.315584 0.1987,0.274286 0.3974,0.548573 0.59608,0.822859 0.0706,0.05254 0.27935,0.213883 0.21172,0.157623 -0.27072,-0.225155 -0.4876,-0.551633 -0.82113,-0.664494 -1.18735,-0.401783 -1.89704,0.38754 -0.39122,-0.938711 3.23379,-3.125413 7.16561,-5.179536 11.29144,-6.853185 5.69397,-1.986792 10.43096,-2.131782 16.23915,-0.686977 4.69923,1.585529 7.85325,4.281389 10.09962,8.65149 0.56658,1.620416 1.21698,3.514108 0.65651,5.243894 -0.12594,0.388722 -0.11727,1.178566 -0.52009,1.110044 -1.70953,-0.290796 -3.19762,-1.342933 -4.79645,-2.0144 0.62029,-3.780788 3.4354,-6.494205 6.13542,-8.978163 4.08385,-3.464562 8.62243,-5.159358 13.85168,-5.936704 5.4678,-0.248807 8.95482,1.021604 12.82324,4.845388 2.5372,2.920983 3.42059,6.492762 3.38188,10.272391 -0.0384,0.410484 -0.0757,0.821066 -0.11507,1.231452 -0.0259,0.269146 -0.0676,0.537063 -0.0806,0.807136 -0.004,0.08237 0.0428,0.327023 0.0301,0.24554 -0.0482,-0.310605 0.0519,-0.681684 -0.1369,-0.932997 -1.00311,-1.335274 -1.05005,-1.255683 -2.04681,-1.405351 2.85295,-1.275264 5.84049,-2.110429 8.89322,-2.738063 5.16695,-0.962157 9.8547,-0.340696 14.701,1.567644 5.20154,2.650752 7.58539,6.180647 9.20051,11.653576 0.95239,4.237424 0.19807,8.314801 -1.62481,12.17807 0.41524,-1.794404 -0.8083,1.975077 -0.68937,1.452507 0.0642,-0.282152 0.39299,-0.561597 0.27191,-0.82441 -0.44484,-0.965576 -1.16043,-1.788679 -1.84893,-2.598724 -0.103,-0.121156 -0.57581,-0.009 -0.46172,-0.119825 0.19745,-0.191772 0.53279,-0.13861 0.7992,-0.207912 3.52983,-1.198388 7.1461,-1.588243 10.83725,-1.186294 5.20285,1.157015 7.66122,3.526658 9.84067,8.270058 1.53641,4.627581 0.72819,8.429411 -1.73553,12.496531 -1.64656,2.5395 -4.23725,4.1021 -6.50057,6.00201 -0.0809,0.10655 -0.20405,0.19159 -0.24279,0.31966 -0.0663,0.21905 0.33896,-0.32864 0.42111,-0.54225 0.0446,-0.11599 -0.0274,-0.29127 0.072,-0.36582 0.0359,-0.0269 0.28305,0.28315 0.68072,0.7521 2.28616,2.33317 4.21187,4.92059 5.69574,7.82689 1.8062,4.6915 1.5078,7.43139 -1.33538,11.55233 -3.07703,3.46152 -7.33804,4.74532 -11.74126,5.53992 -2.462,0.82177 -6.27491,-0.0253 -8.57697,1.00301 0.31941,0.24467 0.96938,-0.55547 1.02785,-0.48552 0.27655,0.33086 0.89337,2.97786 1.01108,3.34341 1.49495,4.00527 2.68957,7.73204 2.55934,12.04612 -1.18401,5.78121 -4.86775,6.7055 -10.14703,6.81354 -5.28646,-0.21449 -8.92596,-2.15879 -13.00218,-5.3178 -1.7389,-1.55561 -0.85834,-0.88644 -2.61102,-2.0472 0,0 0.0873,-0.13176 0.0873,-0.13176 v 0 c 1.71096,1.13505 0.74375,0.72321 2.94296,1.13359 4.17248,0.35662 8.35711,0.40968 12.51228,0.96463 1.68913,-0.003 4.18285,0.28492 4.84566,-1.65327 0.24212,-3.51983 -1.1883,-6.798 -2.35302,-10.05394 -1.31289,-3.69931 -2.84739,-7.64345 1.57739,-9.8999 3.00765,-0.72769 6.1105,-0.47017 9.16324,-0.93595 2.99487,-0.56699 6.11436,-1.24287 8.34919,-3.47511 1.47939,-1.85528 1.85716,-3.74355 0.91263,-6.00161 -1.25807,-2.57755 -3.05258,-4.7359 -5.04844,-6.78473 -2.18165,-2.65 -3.02876,-5.14289 -0.17714,-7.75415 1.86849,-1.48242 3.97746,-2.70028 5.45706,-4.61815 1.55112,-2.34666 2.247,-4.857547 1.39425,-7.63487 -1.07331,-2.63973 -2.77188,-4.539576 -5.66497,-5.161346 -3.00254,-0.354841 -5.8843,0.132593 -8.7395,1.114951 -0.60682,0.193307 -2.41126,0.859409 -2.94873,0.537726 -3.17238,-1.898743 -2.82654,-3.412376 -1.38224,-5.756987 1.4378,-2.609871 2.04301,-5.42808 1.46122,-8.397822 -0.96282,-3.607458 -2.75566,-6.580472 -6.19578,-8.321292 -3.77698,-1.57461 -7.70543,-2.062579 -11.75792,-1.282988 -2.97119,0.619284 -5.81023,1.565627 -8.58642,2.789731 -0.55634,0.08099 -1.13109,0.406356 -1.66902,0.242956 -2.97235,-0.902864 -2.89496,-2.974115 -2.49674,-5.377715 0.11332,-2.38138 -0.35367,-4.615844 -1.84031,-6.545928 -2.41818,-2.522535 -4.98371,-3.487394 -8.50783,-3.333119 -4.10456,0.47207 -7.87186,1.974368 -11.05884,4.658092 -1.57748,1.408307 -3.49306,3.12096 -4.33674,5.095424 -1.59546,-0.327141 -3.15992,-0.897488 -4.78642,-0.981423 -0.53848,-0.02779 -0.15086,1.40897 -0.10795,0.417412 0.009,-0.213821 0.004,-0.430328 -0.032,-0.641266 -0.0506,-0.294768 -0.15132,-0.578692 -0.22699,-0.868038 -1.32397,-2.966094 -3.76169,-4.923036 -6.8263,-5.976803 -4.39328,-1.191042 -8.7997,-1.09048 -13.11318,0.479739 -3.57023,1.387164 -6.92748,3.180698 -9.64813,5.935056 -2.73669,2.663514 -5.05352,3.543975 -7.30269,-0.254642 -1.92101,-2.835568 -4.29289,-5.162229 -7.5171,-6.498278 -4.25725,-1.635827 -8.64807,-2.211677 -13.13781,-1.095409 -2.6938,0.775385 -5.71354,1.682933 -7.26374,4.222971 -0.49818,1.360361 0.17309,2.454168 1.35695,3.203972 1.44073,0.618246 0.0553,0.06365 -0.16502,1.194305 -0.53549,2.748063 -0.2675,2.456767 1.33799,3.490232 0.0829,-0.01469 0.29409,0.02678 0.24863,-0.04408 -0.19444,-0.303298 -0.72744,-0.03446 -1.08013,0.03905 -1.49847,0.312293 -2.89248,0.981205 -4.26903,1.623865 -3.85987,1.975619 -7.67403,4.162203 -10.6858,7.340672 -2.10085,2.555914 -3.00567,4.41906 -1.5819,7.643024 1.98594,3.453106 4.78018,6.25339 8.08218,8.483351 0.3534,0.232952 3.46501,2.076881 3.57859,2.352627 1.17954,2.86322 1.14351,4.30181 -1.66523,5.07084 -2.53804,0.53302 -4.96083,1.46173 -7.07051,3.00297 -2.15527,1.62956 -4.38457,3.4769 -5.10196,6.19992 -0.31697,3.26133 2.07491,5.70156 4.24817,7.84641 3.35505,2.95912 6.95608,5.65067 11.08575,7.44433 0.40341,0.15569 0.80315,0.32125 1.21023,0.46707 0.214,0.0767 0.61376,-0.0241 0.65194,0.19997 0.0351,0.20617 -0.47234,0.0686 -0.57513,0.25076 -0.64542,1.14386 -2.23419,3.29127 -0.24749,4.08722 -1.2401,-0.813 -2.74283,-0.60244 -4.00521,0.0517 -2.34836,1.75266 -3.00643,4.41646 -2.69264,7.26568 0.90551,4.13501 2.82906,7.15164 6.25332,9.70823 3.09282,2.03657 6.40356,3.74619 10.21623,3.60772 2.76878,-0.28674 5.26796,-1.19842 7.54509,-2.83241 0,0 2.58094,3.34571 2.58094,3.34571 z"
       inkscape:connector-curvature="0" />
    <path
       style="opacity:1;fill:#0000ff;fill-opacity:1;stroke:none;stroke-width:0.74685645;stroke-linejoin:miter;stroke-miterlimit:4;stroke-dasharray:none;stroke-opacity:1"
       d="m 432.36458,153.42202 -5.14241,-0.36133 3.46921,-4.54491 c 13.57882,-17.78921 13.37763,-38.46109 -0.49524,-50.884724 -8.09091,-7.245691 -27.43637,-16.497726 -40.72065,-19.474793 -7.04516,-1.578859 -30.26942,-1.259507 -35.62543,0.489878 -6.82831,2.230263 -13.01723,8.209357 -17.11277,16.532561 -7.65358,15.554058 -8.4513,33.761898 -2.08815,47.660858 l 2.35212,5.13773 -3.78309,1.24853 c -7.88154,2.60114 -16.87624,-1.8122 -19.6429,-9.63798 -1.2713,-3.59603 -1.2455,-4.26603 0.25241,-6.55213 1.44714,-2.20861 2.01152,-2.41609 4.25339,-1.56374 1.81006,0.68819 2.99304,0.64399 3.94671,-0.14749 2.88967,-2.39822 0.87225,-6.81646 -3.11248,-6.81646 -1.15671,0 -4.1815,-1.37669 -6.72179,-3.0593 -9.32088,-6.17389 -11.0906,-11.70984 -5.18367,-16.21527 1.85941,-1.41826 4.97171,-3.01793 6.91621,-3.55483 5.27328,-1.45602 4.8582,-4.687072 -1.15774,-9.012129 -2.58122,-1.855732 -5.55926,-4.985536 -6.61791,-6.95512 -1.6994,-3.161761 -1.7652,-3.87926 -0.56182,-6.127771 1.78506,-3.335444 10.98553,-9.397405 15.33371,-10.103017 1.88304,-0.305577 3.88314,-1.109142 4.44463,-1.785699 1.55978,-1.879424 0.0725,-4.444651 -2.57701,-4.444651 -3.70829,0 -3.00395,-3.28113 1.12726,-5.251164 4.21891,-2.011856 11.2269,-2.154325 15.55967,-0.31632 1.74865,0.741795 4.81412,3.187167 6.81217,5.434159 1.99805,2.246992 4.01077,4.08544 4.47273,4.08544 0.46193,0 3.18876,-1.7649 6.05959,-3.922 7.73909,-5.815035 14.74653,-7.321545 21.3065,-4.580614 3.43059,1.433381 6.81307,5.252347 5.92492,6.689423 -0.28175,0.455875 0.65498,1.272644 2.08158,1.815042 3.45083,1.312003 3.36794,1.339159 4.42873,-1.450893 1.2672,-3.332988 8.15787,-8.131362 12.8043,-8.916371 6.48301,-1.095301 12.37708,3.531936 11.83061,9.287871 -0.55637,5.8603 1.03475,6.574623 8.66407,3.889687 9.6162,-3.384168 17.50711,-1.235501 20.79672,5.662862 1.61441,3.385494 1.31157,6.664592 -1.14456,12.39321 -1.18779,2.770317 1.87595,4.830307 5.59684,3.763177 5.36969,-1.540013 10.13912,-1.118915 12.12017,1.070107 3.13896,3.468526 2.29809,7.295791 -2.80049,12.746601 -5.15969,5.51612 -5.1589,5.9628 0.023,12.75807 1.79295,2.35114 3.25988,5.11265 3.25988,6.13669 0,1.65804 -3.44472,5.8397 -4.87942,5.92331 -5.27045,0.30714 -14.30443,2.04313 -15.41084,2.96138 -1.97374,1.63806 -1.82234,4.09694 0.74258,12.06077 1.88963,5.86713 1.99096,6.92164 0.74102,7.71219 -0.79635,0.50367 -2.33715,0.84033 -3.42398,0.74813 -1.08682,-0.0922 -4.29013,-0.33024 -7.11845,-0.52897 z"
       id="path4838"
       inkscape:connector-curvature="0" />
    <path
       style="opacity:1;fill:#00ffff;fill-opacity:1;stroke:none;stroke-width:0.2;stroke-linejoin:miter;stroke-miterlimit:4;stroke-dasharray:none;stroke-opacity:1"
       id="path4840"
       d="m 304.42164,118.48474 c -0.69504,3.38505 -1.1805,6.81037 -1.59269,10.24005 -0.52848,4.49362 -0.80391,9.01247 -1.04074,13.52933 -0.19254,4.39837 -0.33607,8.79864 -0.49456,13.1983 -0.0848,2.61662 -0.27927,5.22731 -0.65127,7.81881 -0.12502,1.07309 -0.45059,2.10469 -0.68122,3.15436 -0.19085,0.58774 0.12507,0.34017 -0.0647,-0.25325 -0.15444,-0.48287 -0.41304,-0.92599 -0.61957,-1.38899 -1.08564,-0.30725 -2.14329,-0.74079 -3.25697,-0.92176 -0.4666,-0.0758 -1.12498,1.12926 -0.23363,-0.49194 0.84032,-1.63279 1.69426,-3.25936 2.51714,-4.90127 0.9801,-1.8802 1.88412,-3.80048 2.73389,-5.74287 0.64333,-1.58494 1.33416,-3.15008 2.04306,-4.70663 0.59965,-1.34753 1.25597,-2.67007 1.91947,-3.98718 0.5788,-1.10966 1.0867,-2.25042 1.49437,-3.43343 0.40714,-1.26901 0.64304,-2.58384 0.87952,-3.8928 0.23802,-1.60488 0.54139,-3.2014 0.89366,-4.78503 0.36378,-1.48783 0.7574,-2.96304 1.27296,-4.40642 0.42352,-1.16048 0.89215,-2.39395 1.822,-3.24617 0.76753,-0.46408 1.2667,0.46209 1.73522,0.93192 0,0 1.86603,0.74683 1.86603,0.74683 v 0 c 0.43087,0.55497 0.7538,1.18307 1.17975,1.70881 -0.0837,0.60259 -0.57491,1.09691 -0.68816,1.70166 -0.33763,1.31232 -0.67955,2.62459 -0.94623,3.95267 -0.33419,1.50041 -0.65328,3.00209 -0.90178,4.51978 -0.29432,1.6351 -0.59864,3.27498 -1.12357,4.85506 -0.50668,1.44352 -1.10924,2.84715 -1.82039,4.20284 -0.62886,1.24597 -1.28514,2.47783 -1.87828,3.74187 -0.70273,1.52812 -1.36826,3.07237 -2.05888,4.60584 -0.91273,2.05339 -1.89976,4.06928 -2.96193,6.04985 -0.87953,1.65835 -1.74284,3.32495 -2.61035,4.98959 -0.42799,0.80035 -1.76282,3.22467 -2.77112,3.22082 -1.27188,-0.005 -2.49862,-0.47726 -3.7479,-0.71589 -0.82783,-1.68246 -1.05913,-2.2891 -0.55674,-3.99148 0.27962,-0.78401 0.40196,-1.6229 0.58659,-2.43193 0.38862,-2.36451 0.58771,-4.75296 0.69455,-7.14627 0.20249,-4.41975 0.27528,-8.84422 0.4953,-13.26333 0.23913,-4.66444 0.5301,-9.32768 1.06778,-13.96887 0.47612,-3.59436 1.08805,-7.16151 1.92112,-10.6921 0,0 5.57829,1.19922 5.57829,1.19922 z"
       inkscape:connector-curvature="0" />
    <path
       style="opacity:1;fill:#00ffff;fill-opacity:1;stroke:none;stroke-width:0.2;stroke-linejoin:miter;stroke-miterlimit:4;stroke-dasharray:none;stroke-opacity:1"
       id="path4842"
       d="m 457.76852,112.37015 c 0.76433,3.23807 2.10651,6.29613 3.44401,9.32909 1.84546,4.12034 3.78597,8.19714 5.67282,12.29851 1.68788,3.62886 3.28435,7.29637 4.7235,11.03085 0.79418,2.01858 1.43902,4.09249 2.24317,6.1068 0.42153,1.01801 0.83521,2.04201 1.33749,3.02358 0.83556,1.36983 1.17904,2.27625 1.18779,3.93694 -0.31062,0.55637 -0.49821,1.20225 -0.93186,1.66914 -1.34882,1.45216 -3.56311,1.00713 -5.20163,0.54766 -2.2175,-0.71871 -4.15721,-2.00639 -5.93386,-3.48511 -2.49611,-2.16338 -4.52617,-4.79292 -6.50468,-7.42065 -2.42847,-3.30468 -4.72487,-6.7032 -7.11914,-10.03226 -2.18861,-3.05723 -4.42994,-6.08002 -6.77005,-9.02346 -1.51548,-1.96752 -3.07763,-3.90146 -4.73189,-5.75448 -0.65476,-0.79476 -1.53141,-1.66537 -1.48092,-2.76515 0.62187,-1.23699 1.21626,-2.39413 2.72041,-1.53995 0,0 0.0507,0.14974 0.0507,0.14974 v 0 c -0.0524,1.3891 1.8587,-0.13078 2.0928,-0.66882 0.51136,-0.1678 0.77187,0.84092 1.11646,1.06342 1.57753,2.0072 3.12979,4.03404 4.7149,6.03517 2.32328,3.06373 4.70239,6.08531 6.91854,9.22906 2.30563,3.31617 4.58563,6.6518 6.97931,9.9052 1.7236,2.26135 3.46319,4.53003 5.59972,6.42478 1.20682,0.95655 2.446,1.89441 3.92885,2.38085 1.64545,0.49788 -0.319,-0.0825 -1.04325,2.31791 0.0375,0.37466 -0.0696,0.84079 0.18997,1.11351 0.0942,0.099 -0.93128,-1.69626 -0.81941,-1.53146 -0.59391,-1.18085 -1.13723,-2.38347 -1.57417,-3.63243 -0.69297,-2.03746 -1.37707,-4.07805 -2.08438,-6.11049 -1.35406,-3.63364 -2.85438,-7.21035 -4.48562,-10.72862 -1.90484,-4.14811 -3.81984,-8.29227 -5.6392,-12.47883 -1.39057,-3.38261 -2.75431,-6.79697 -3.5361,-10.38173 0,0 4.93572,-1.00877 4.93572,-1.00877 z"
       inkscape:connector-curvature="0" />
    <path
       style="opacity:1;fill:#00ffff;fill-opacity:1;stroke:none;stroke-width:0.2;stroke-linejoin:miter;stroke-miterlimit:4;stroke-dasharray:none;stroke-opacity:1"
       id="path4844"
       d="m 453.12429,115.60791 c 2.3911,4.12029 4.44188,8.42685 6.4099,12.76134 2.22481,4.86357 4.40593,9.74618 6.79996,14.5298 0.25063,0.4796 0.49159,0.9644 0.75194,1.4388 0.11726,0.21364 0.69715,1.22813 0.95147,1.54495 0.0238,0.0298 0.0164,-0.12554 -0.0196,-0.11288 -1.69056,0.59407 -3.28157,1.5101 -5.03306,1.88841 -0.25882,0.0559 -0.19664,-0.49171 -0.29496,-0.73757 -1.58687,-3.60806 -3.46162,-7.07837 -5.36789,-10.52494 -1.98938,-3.7014 -4.18553,-7.28429 -6.44078,-10.82792 -0.45792,-0.67866 -0.90287,-1.36597 -1.35901,-2.04581 -0.1991,-0.29677 -0.85013,-1.14913 -0.63153,-0.8664 0.15303,0.19791 0.23593,0.66219 0.47313,0.58264 1.79022,-0.6004 3.40378,-1.63577 5.10566,-2.45366 0.95419,2.71886 2.21978,5.31276 3.41209,7.93158 1.47384,3.16798 3.04176,6.29258 4.46675,9.48318 0.87953,2.63117 0.93589,1.91807 -5.45679,3.46384 -0.45289,0.1095 -0.61815,-0.69766 -0.91295,-1.05847 -1.02258,-1.25158 -2.0012,-2.54416 -3.01228,-3.80561 -1.98638,-2.43216 -4.1271,-4.74044 -6.52962,-6.76604 -0.23289,-0.1788 -0.71843,-0.59996 -1.05445,-0.72627 -0.36589,-0.13754 0.72986,0.49099 1.10684,0.38758 0.92964,-0.25504 1.96675,-0.57031 2.57344,-1.31944 0.50371,-0.62196 0.274,-1.57707 0.411,-2.36561 -0.7367,-2.02945 -2.31656,-2.24241 -3.90231,-1.56218 0.70964,-1.45753 1.57644,-2.79436 2.63493,-4.02003 1.03762,-1.33858 2.72849,-1.81047 4.00767,-2.81211 -0.35528,0.18093 -0.53726,0.24573 -0.6886,0.85863 -0.13393,0.54253 -0.23699,1.14531 -0.0601,1.67538 0.0927,0.27789 1.00801,1.26994 1.28511,0.39907 0.0676,-0.21269 -0.0633,-0.44187 -0.095,-0.66281 -0.52898,-0.98938 -0.23596,-0.49689 -0.88535,-1.4737 0,0 0.0288,-0.15545 0.0288,-0.15545 v 0 c 1.06876,-0.68462 0.51332,-0.36916 1.66796,-0.94351 4.31099,-1.3447 5.23407,3.05734 2.28738,5.42993 -0.95417,0.63022 -2.00676,1.09885 -2.90296,1.81024 -0.93342,0.98558 -1.44198,2.2402 -2.12529,3.39776 -1.50442,2.1373 -4.24902,3.62766 -6.47406,1.26211 -0.38614,-0.41053 -0.57404,-0.97009 -0.86106,-1.45513 0.0931,-0.94125 -0.25522,-2.04345 0.27932,-2.82375 2.10753,-3.07642 4.99578,-1.23494 6.90107,0.4464 2.53368,2.35308 4.9248,4.8496 7.12859,7.51693 3.28311,3.87616 -0.77486,-0.92855 2.20337,2.63802 0.27268,0.32654 0.55097,0.64838 0.82746,0.97168 0.15044,0.17587 0.62029,0.36558 0.45334,0.52584 -1.41756,1.36067 -6.7078,3.21502 -4.67202,3.5945 -1.2052,-3.18231 -2.88017,-6.16846 -4.26347,-9.27315 -1.50788,-3.13437 -3.10224,-6.27753 -4.06291,-9.63064 1.64364,-1.20768 3.09507,-2.73446 4.93098,-3.62305 0.35243,-0.17057 0.56809,0.54087 0.82291,0.83813 0.87731,1.02347 1.29323,2.40077 2.07889,3.48399 2.18747,3.71195 4.32289,7.4548 6.37344,11.24422 1.93733,3.69685 3.91115,7.38553 5.54207,11.23095 1.07926,2.85798 1.14628,1.78919 -4.18378,4.50695 -0.16888,0.0861 -1.45603,-2.50176 -1.51199,-2.61466 -0.25699,-0.51837 -0.50937,-1.039 -0.76406,-1.55851 -2.2497,-4.88828 -4.4046,-9.81945 -6.59128,-14.73607 -1.93024,-4.19455 -3.81209,-8.4148 -5.96426,-12.50255 0,0 4.20595,-2.38493 4.20595,-2.38493 z"
       inkscape:connector-curvature="0" />
    <path
       style="opacity:1;fill:#00ffff;fill-opacity:1;stroke:none;stroke-width:0.2;stroke-linejoin:miter;stroke-miterlimit:4;stroke-dasharray:none;stroke-opacity:1"
       id="path4846"
       d="m 311.15951,125.45345 c -0.96797,4.36449 -1.92547,8.73095 -2.80323,13.11456 -0.84032,4.083 -1.34747,8.21974 -1.95718,12.33965 -0.64277,4.02069 -1.95894,5.12834 -6.34624,1.78626 -0.2001,-0.15243 -0.32734,-2.95468 -0.33771,-3.12039 -0.10547,-4.89146 -0.0702,-9.78571 -0.014,-14.67775 -0.0369,-2.12212 0.0488,-4.24655 -0.0593,-6.36753 -0.0122,-0.23676 -0.008,-1.95308 -0.37362,-2.2266 1.26643,2.34708 0.4431,1.75717 4.62865,1.5515 0.20082,-0.01 0.29805,-0.52085 0.45535,-0.39561 0.0393,0.0313 -0.5652,2.30468 -0.74898,3.20168 -0.63757,3.44608 -0.98259,6.93914 -1.13769,10.43803 -0.0633,3.84203 1.15695,0.18405 -2.90872,-0.7768 -1.80782,-0.42725 -2.41644,1.92866 -2.05523,0.69294 0.85839,-2.38974 1.37607,-4.88117 2.23509,-7.26976 0.90649,-1.14916 2.10688,-1.70891 3.43443,-2.18806 0,0 0.15653,0.0222 0.15653,0.0222 v 0 c 1.05333,1.01435 1.8112,2.13044 2.08322,3.60852 -0.44037,2.81462 -1.21891,5.57505 -2.11386,8.27657 -0.60587,1.34278 -1.2147,3.31006 -3.32873,3.20617 -4.01809,-0.19747 -3.80431,-3.34179 -3.7143,-5.89969 0.22911,-3.78811 0.6022,-7.57051 1.25222,-11.31158 0.73769,-3.87411 0.83418,-8.01607 6.54691,-6.52706 0.67021,0.17469 0.77115,1.15069 1.15673,1.72603 0.63884,3.37891 0.10123,6.86536 0.19603,10.27922 -0.0122,4.75248 -0.0814,9.50967 0.19566,14.25676 0.21741,3.21467 0.31303,-0.1067 -4.00844,0.22629 -1.31868,0.10161 -1.45463,2.99367 -0.85225,0.51135 0.82376,-4.14016 1.52726,-8.30421 2.42192,-12.43025 0.9285,-4.40172 1.92574,-8.78748 3.00725,-13.1543 0,0 4.98959,1.10771 4.98959,1.10771 z"
       inkscape:connector-curvature="0" />
    <path
       style="opacity:1;fill:#00ffff;fill-opacity:1;stroke:none;stroke-width:0.2;stroke-linejoin:miter;stroke-miterlimit:4;stroke-dasharray:none;stroke-opacity:1"
       id="path4848"
       d="m 334.89907,71.857718 c -0.52448,2.588692 -0.71162,5.222407 -0.82301,7.855533 -0.0774,3.15785 0.006,6.317747 0.049,9.475779 0.0406,3.467135 0.0646,6.93393 0.14573,10.400453 0.0361,2.970117 0.2321,5.933667 0.35661,8.900217 0.10356,2.10915 0.22619,4.21697 0.42868,6.3191 0.0951,0.97551 0.18483,1.98154 0.46093,2.91819 -0.64699,-1.94693 -0.0972,-0.71163 -4.95835,-1.28568 -0.24212,-0.0286 -0.35515,0.69612 -0.14015,-0.20701 0.0516,-0.21676 0.10123,-0.43398 0.15187,-0.65096 0.58042,-2.67158 1.24122,-5.32384 1.93985,-7.96664 1.10866,-4.13202 2.49388,-8.183016 3.94642,-12.204778 1.28598,-3.526102 2.76939,-6.974398 4.22187,-10.43369 0.80489,-2.016012 1.63865,-4.027562 2.18395,-6.132505 0.3124,-1.66498 -0.17216,-0.722416 0.49401,0.289121 -0.60259,-0.210942 -1.54258,-0.677701 -2.23446,-1.016953 -1.099,-0.526407 -0.29218,0.07273 0.63704,-0.162906 0.95014,-0.240943 1.05865,-0.455208 1.55112,-1.003528 -0.5474,2.136386 -1.02378,4.290063 -1.4917,6.445023 -0.67818,3.040382 -1.13588,6.117698 -1.56146,9.201023 -0.55333,3.753363 -0.47244,4.053509 -6.56744,1.972833 -0.18015,-0.0615 -0.36367,-2.576203 -0.37285,-2.678215 -0.14097,-2.823025 -0.14182,-5.663885 0.12827,-8.479086 0.55518,-4.298469 2.1213,-4.728729 6.42348,-1.750232 0.23553,0.163078 0.28082,2.230633 0.29315,2.492298 0.0484,2.981404 -0.13753,5.95939 -0.34967,8.931521 -0.0326,0.258217 -0.28355,3.980733 -0.63018,3.932724 -6.34246,-0.878414 -5.89492,1.24e-4 -5.99594,-3.172431 -0.0106,-3.327363 0.13534,-6.654072 0.3383,-9.974622 0.36115,-3.751389 -0.32152,-3.808166 6.29504,-1.159595 0.64027,0.256289 -0.55705,1.283227 -1.00213,1.810031 -0.75592,0.985385 -1.83968,1.421072 -2.86737,2.015485 0,0 -0.14322,-0.06695 -0.14322,-0.06695 v 0 c -0.23712,-0.9658 -0.91951,-1.769051 -1.37755,-2.642433 -0.55605,-0.782672 -0.84868,-1.144439 -0.62794,-1.151827 2.00483,-0.06711 4.00611,0.236922 6.01176,0.271294 0.0561,0.0011 0.01,-0.222565 -0.005,-0.168352 -0.0465,0.172765 -0.0703,0.351203 -0.092,0.528801 -0.0402,0.329375 -0.0623,0.660707 -0.0934,0.991061 -0.2464,3.092132 -0.42293,6.195943 -0.33316,9.298924 0.15888,3.016551 0.34266,0.327165 -5.73828,0.799888 -0.21977,0.01709 -0.0979,0.430469 -0.16611,0.64008 -0.0429,0.131683 0.0681,-0.268851 0.0898,-0.405606 0.0452,-0.283985 0.0809,-0.569526 0.11094,-0.85552 0.0403,-0.384079 0.0666,-0.769498 0.0999,-1.15425 0.21696,-2.709524 0.42783,-5.428469 0.35311,-8.148505 -0.14012,-2.295419 0.55298,1.020493 4.2775,0.729001 0.75499,-0.05909 0.92964,-1.195871 1.38252,-1.802836 0.0109,-0.01469 -0.0344,0.01267 -0.0515,0.01902 -0.0364,0.189302 -0.0727,0.378603 -0.10911,0.567905 -0.22513,2.437204 -0.3356,4.887042 -0.13568,7.331426 0.0415,0.414288 0.12576,1.242791 0.12192,1.243241 -6.37238,0.748321 -5.87383,2.146776 -5.35945,-0.858415 0.49678,-3.203241 1.05127,-6.398553 1.73029,-9.568505 0.53954,-2.585577 1.01137,-5.200335 1.78562,-7.726899 0.25443,-0.435114 0.4059,-0.949909 0.7633,-1.305339 1.60126,-1.592465 3.58026,-1.543271 5.41848,-0.548649 1.22076,0.604431 2.49338,1.135791 3.59439,1.9477 1.77163,1.85655 1.99861,3.540832 1.32996,5.954956 -0.66363,2.357348 -1.56327,4.639019 -2.55516,6.87673 -1.43571,3.34953 -2.90142,6.688582 -4.15849,10.110912 -1.3952,3.844949 -2.69705,7.724849 -3.71477,11.689299 -0.65762,2.58418 -1.27048,5.17905 -1.7865,7.79569 -0.1167,0.53687 -0.78761,3.49829 -1.33588,3.56651 -5.19297,0.64622 -4.68238,1.19089 -5.64607,-1.07778 -0.33459,-1.32906 -0.45022,-2.69696 -0.61392,-4.05552 -0.18904,-2.18541 -0.30562,-4.37538 -0.3997,-6.56681 -0.17931,-3.02129 -0.2662,-6.04711 -0.35491,-9.07225 -0.0741,-3.499802 -0.0748,-6.999973 -0.0528,-10.500445 0.007,-3.252692 -0.007,-6.506061 0.0867,-9.757788 0.12422,-2.912779 0.4137,-5.813283 0.96522,-8.678924 0,0 5.67873,1.070671 5.67873,1.070671 z"
       inkscape:connector-curvature="0" />
    <path
       style="opacity:1;fill:#00ffff;fill-opacity:1;stroke:none;stroke-width:0.2;stroke-linejoin:miter;stroke-miterlimit:4;stroke-dasharray:none;stroke-opacity:1"
       id="path4850"
       d="m 419.69628,70.19771 c 1.71675,5.202655 3.16595,10.487808 4.60637,15.771955 1.70841,6.386684 3.31753,12.799634 4.90265,19.217895 0.18875,0.77966 0.37793,1.55921 0.56626,2.33897 0.36698,1.51948 0.67831,3.06846 1.14996,4.56085 0.21458,0.67903 0.18992,0.74858 0.2204,0.44451 -1.90619,-1.77971 -1.08464,-1.71053 -4.36251,-0.59634 -0.17571,0.0597 -0.17981,0.33172 -0.31448,0.45941 -0.0453,0.0429 0.014,-0.12403 0.0254,-0.18533 0.0508,-0.27242 0.11128,-0.54296 0.16333,-0.81514 0.16848,-1.02133 0.16928,-2.04689 0.0663,-3.07363 -0.35795,-2.53405 -0.62153,-5.076 -0.79909,-7.62908 -0.26157,-4.74095 -0.0225,-9.481071 0.23807,-14.21506 0.22225,-3.765674 0.52141,-7.526123 0.81523,-11.286725 0.0212,-0.362418 0.0424,-0.724837 0.0636,-1.087254 0.0214,-0.279465 0.0468,-0.558654 0.0642,-0.838396 0.0145,-0.235094 -0.19839,-0.745855 0.0337,-0.705841 0.0612,0.01055 0.038,0.119339 0.0699,0.172656 0.10636,0.178274 0.22878,0.346453 0.34319,0.519679 0.25654,0.03601 0.52136,0.181957 0.76965,0.108034 0.63179,-0.188106 0.64008,-1.698203 0.66693,-2.187518 0,0 0.11457,-0.108943 0.11457,-0.108943 v 0 c 1.26973,-0.21731 1.79345,-1.544398 3.2444,-0.553446 1.08799,1.749536 0.90625,3.216158 0.63571,5.20591 -0.35827,3.705381 -0.71162,7.411399 -0.98407,11.124281 -0.31062,4.478772 -0.56911,8.978778 -0.32408,13.467273 0.16327,2.54072 0.42748,5.06634 0.78007,7.58775 0.0869,1.52494 0.0944,3.0599 -0.22143,4.56315 -0.14155,0.74455 -0.36452,2.74236 -1.06646,3.13612 -3.26993,1.83431 -2.87189,1.37242 -4.99811,-0.36693 -1.25238,-2.76875 -1.33305,-5.91853 -2.14069,-8.82331 -1.42192,-6.39668 -2.98278,-12.761472 -4.66408,-19.095026 -1.39924,-5.19897 -2.84514,-10.386584 -4.48463,-15.515821 0,0 4.81973,-1.594653 4.81973,-1.594653 z"
       inkscape:connector-curvature="0" />
    <path
       style="opacity:1;fill:#00ffff;fill-opacity:1;stroke:none;stroke-width:0.2;stroke-linejoin:miter;stroke-miterlimit:4;stroke-dasharray:none;stroke-opacity:1"
       id="path4852"
       d="m 430.35158,73.450866 c -1.8324,3.005277 -1.81401,6.602202 -1.77014,10.005432 0.17745,3.750498 0.72922,7.474352 1.63343,11.116506 0.0665,0.141795 0.27305,0.563634 0.19947,0.425386 -0.17645,-0.33151 -0.13346,-0.981337 -0.50824,-1.005477 -1.58673,-0.102209 -4.68752,2.203661 -4.73041,0.614198 -0.0222,-0.821042 0.0727,-1.641089 0.10245,-2.46189 0.0617,-3.955896 0.0797,-7.912713 0.0193,-11.868713 -0.006,-0.526931 -0.007,-1.053949 -0.0188,-1.580793 -0.009,-0.406233 -0.0196,-0.812559 -0.0423,-1.218255 -0.1288,-2.304204 -0.49382,0.713327 0.95252,1.043366 1.43809,0.32816 2.91055,-0.481489 4.36584,-0.722234 -0.4613,1.852134 -0.92824,3.739539 -1.37689,5.607953 -0.28689,0.937731 -0.78843,4.482377 -2.296,4.426802 -4.61865,-0.17027 -4.31843,-0.722665 -4.80436,-3.191471 -0.14301,-2.358226 -0.0721,-4.72209 -0.27781,-7.076881 -0.3886,-2.190044 -0.8364,-0.703639 1.15858,-0.06629 1.04182,-0.174072 0.82899,0.205163 -0.0984,0.16246 -1.50328,0.518258 -2.47081,-1.717466 -1.5017,-2.729275 0,0 0.13992,0.07357 0.13992,0.07357 v 0 c -0.29303,1.479801 -0.73285,-2.008613 -2.12979,-1.304092 -0.74679,-1.086414 2.86483,-2.383858 3.61262,-2.388544 0.54763,0.08648 1.12305,0.06675 1.64293,0.259431 2.3082,0.855471 3.02426,3.319315 3.26707,5.509099 0.16402,2.245538 0.15071,4.496684 0.29602,6.742967 -2.54437,-3.631845 -4.17626,-1.631907 -5.53223,0.0095 -0.0357,0.04329 0.0792,-0.08357 0.0995,-0.135922 0.18137,-0.467537 0.3814,-1.287073 0.49882,-1.727538 0.58777,-2.401994 1.04309,-4.853123 1.88634,-7.180435 1.56337,-0.435314 3.08264,-1.52874 4.69014,-1.305938 2.16712,0.300371 1.27722,5.670925 1.34938,6.833174 -0.11581,3.987808 -0.14121,7.976941 -0.175,11.966061 -0.005,0.408975 -0.014,4.263427 -0.33509,4.437134 -3.89943,2.109719 -5.18444,2.324534 -5.93038,-0.921498 -0.82235,-4.041029 -1.27751,-8.165563 -1.53334,-12.277731 -0.0526,-4.664911 0.13322,-9.507253 2.79443,-13.529359 0,0 4.35208,3.459305 4.35208,3.459305 z"
       inkscape:connector-curvature="0" />
    <path
       style="opacity:1;fill:#000000;fill-opacity:1;stroke:none;stroke-width:0.2;stroke-linejoin:miter;stroke-miterlimit:4;stroke-dasharray:none;stroke-opacity:1"
       id="path4858"
       d="m 350.56896,198.28931 c -2.05356,0.75787 -3.82291,1.92061 -4.9911,3.78571 -0.97668,1.80892 -1.02941,3.83116 -0.91702,5.83196 0.25959,2.19941 0.65138,2.92037 -0.9761,4.5936 -0.46191,0.4329 -0.39989,0.19291 -0.40388,0.62435 0,0 0.0148,0.15739 0.0148,0.15739 v 0 c -0.78427,0.44804 -0.31961,0.29543 -1.43613,0.30057 -2.7831,-1.1899 -2.9836,-2.52774 -3.19519,-5.40364 -0.127,-3.34632 0.25683,-6.63806 2.07667,-9.53918 2.05488,-2.72322 4.64608,-4.68834 7.91575,-5.76983 0,0 1.91227,5.41907 1.91227,5.41907 z"
       inkscape:connector-curvature="0" />
    <path
       style="opacity:1;fill:#000000;fill-opacity:1;stroke:none;stroke-width:0.2;stroke-linejoin:miter;stroke-miterlimit:4;stroke-dasharray:none;stroke-opacity:1"
       id="path4860"
       d="m 416.51054,209.9053 c -0.82693,-2.54768 -1.88167,-5.01463 -3.23025,-7.32893 -0.0525,-0.83179 -1.82996,-1.87174 -1.93577,-2.61802 -0.0233,-0.16425 0.0644,-0.32549 0.0966,-0.48823 0.20156,-0.68336 0.31689,-1.41605 -0.027,-2.06487 0,0 0.028,-0.15558 0.028,-0.15558 v 0 c 0.74662,-0.54447 1.31238,-1.21164 2.3197,-1.2773 0.28948,0.008 0.58981,-0.0551 0.86845,0.0239 1.47785,0.41864 2.70025,2.76646 3.52433,3.88734 1.41425,2.67387 2.54656,5.47577 3.45847,8.36066 0,0 -5.10254,1.66106 -5.10254,1.66106 z"
       inkscape:connector-curvature="0" />
    <path
       style="opacity:1;fill:#ffff00;fill-opacity:1;stroke:none;stroke-width:0.74685645;stroke-linejoin:miter;stroke-miterlimit:4;stroke-dasharray:none;stroke-opacity:1"
       d="m 380.69529,238.50549 c -1.90193,-0.22111 -6.3819,-1.12832 -9.95545,-2.01602 l -6.49734,-1.61399 0.39243,-8.00535 c 0.49913,-10.18219 0.61166,-10.47542 4.01989,-10.47542 3.57836,0 6.52777,-3.06268 5.64079,-5.85737 -0.38018,-1.1978 -0.2122,-2.04687 0.40494,-2.04687 0.58005,0 1.93588,-0.88125 3.01294,-1.95834 1.52408,-1.52407 1.75919,-2.48218 1.06019,-4.32067 -0.57267,-1.50621 -0.53068,-2.72983 0.11586,-3.37636 0.55771,-0.55771 0.72483,-1.92527 0.37134,-3.039 -0.63121,-1.98876 -1.26336,-2.32146 -6.71682,-3.53509 -2.37894,-0.52943 -2.71708,-1.07001 -2.71708,-4.34397 0,-7.68831 -6.90116,-16.97166 -12.61655,-16.97166 -4.54515,0 -9.12815,6.92019 -10.3011,15.55426 -0.28448,2.09417 -0.60304,1.97562 -5.79988,-2.15848 -3.02435,-2.4059 -6.69243,-4.67393 -8.15123,-5.04007 -2.34635,-0.58889 -2.65237,-0.38161 -2.65237,1.79651 0,2.43071 3.66517,6.41034 10.36092,11.24986 2.78408,2.01227 2.85771,2.23547 1.30379,3.95252 -0.9058,1.00089 -2.12921,3.08839 -2.7187,4.63888 -1.006,2.64596 -1.2074,2.73051 -3.27988,1.37684 -1.21441,-0.79322 -5.32035,-2.42947 -9.12424,-3.6361 -3.80391,-1.20664 -8.91696,-3.16087 -11.36234,-4.34274 -4.16976,-2.01528 -4.46556,-2.42106 -4.75872,-6.52772 -0.46011,-6.445 2.14194,-12.15244 7.90086,-17.33022 6.73658,-6.05677 19.29445,-14.35397 21.7248,-14.35397 1.0872,0 4.4957,1.95534 7.57444,4.3452 11.13658,8.6447 22.11634,12.45129 35.91465,12.45129 13.93542,0 25.4939,-4.20032 36.7176,-13.34308 5.07302,-4.13246 5.60351,-4.36279 5.05989,-2.19688 -0.52236,2.08132 -0.20203,2.50063 2.29135,2.9993 4.18325,0.83665 8.82115,5.13459 11.72543,10.86591 4.87715,9.62458 1.59721,23.06276 -7.28424,29.84426 -3.433,2.62128 -4.85325,3.18379 -6.20805,2.45872 -1.37171,-0.73411 -1.86862,-0.51225 -2.2673,1.01229 -0.74874,2.8632 -2.25255,2.38539 -3.73173,-1.18568 -1.1615,-2.80405 -1.10757,-3.25108 0.50649,-4.19912 7.09189,-4.1655 10.4339,-9.36538 10.4339,-16.23424 0,-6.87566 -5.91789,-11.01978 -9.96175,-6.97591 l -2.15863,2.15862 2.6021,1.57887 c 2.81807,1.7099 3.3057,4.42406 1.50492,8.37634 -1.26362,2.77336 -3.87226,4.2383 -8.78313,4.93235 -1.90194,0.26881 -4.23617,0.79644 -5.18713,1.17251 -1.46783,0.58048 -1.72906,0.10233 -1.72906,-3.16468 0,-4.16632 -3.47831,-11.95744 -6.02226,-13.48934 -3.14507,-1.8939 -6.84466,0.12968 -8.95368,4.89744 -1.7122,3.87075 -1.85291,5.26979 -1.01473,10.09044 0.5352,3.07814 0.61507,6.04122 0.17753,6.58464 -0.43756,0.54341 -0.94898,1.87726 -1.13649,2.96409 -0.18748,1.08683 -1.34125,2.7864 -2.56394,3.77682 -1.75464,1.42132 -2.22306,2.81477 -2.22306,6.61317 0,5.34065 2.19215,7.86086 6.88904,7.91996 1.37348,0.0173 3.36028,0.6842 4.41513,1.48204 1.67237,1.26494 1.70399,1.45063 0.24698,1.45063 -1.85859,0 -2.00559,1.69892 -0.78713,9.09617 0.59756,3.62761 0.45749,4.76842 -0.63696,5.1884 -2.12939,0.81712 -11.16968,1.36312 -15.06723,0.91001 z"
       id="path4862"
       inkscape:connector-curvature="0" />
    <path
       style="opacity:1;fill:#ffff00;fill-opacity:1;stroke:none;stroke-width:0.74685645;stroke-linejoin:miter;stroke-miterlimit:4;stroke-dasharray:none;stroke-opacity:1"
       d="m 339.93912,230.60421 c -3.15013,-1.65588 -3.26544,-2.6328 -1.16399,-9.86158 1.34282,-4.61911 3.501,-7.31201 5.86008,-7.31201 0.7534,0 -0.4798,15.81254 -1.36107,17.45215 -0.45681,0.84986 -1.32652,0.77721 -3.33502,-0.27856 z"
       id="path4864"
       inkscape:connector-curvature="0" />
    <path
       style="opacity:1;fill:#ffff00;fill-opacity:1;stroke:none;stroke-width:0.74685645;stroke-linejoin:miter;stroke-miterlimit:4;stroke-dasharray:none;stroke-opacity:1"
       d="m 418.04975,224.43232 c -0.90628,-3.60556 -1.9368,-7.30287 -2.29007,-8.21624 -0.50057,-1.2942 0.19285,-1.89257 3.14227,-2.71157 5.60985,-1.55774 6.03726,-1.40934 8.21063,2.85083 3.70607,7.26447 2.32777,10.92832 -5.18565,13.78492 -2.09349,0.79595 -2.3299,0.44793 -3.87718,-5.70794 z"
       id="path4866"
       inkscape:connector-curvature="0" />
    <path
       style="opacity:1;fill:#ff00ff;fill-opacity:1;stroke:none;stroke-width:0.74685645;stroke-linejoin:miter;stroke-miterlimit:4;stroke-dasharray:none;stroke-opacity:1"
       d="m 350.06641,230.75397 c 0,-3.39858 0.27382,-8.1769 0.60847,-10.61849 l 0.60846,-4.43925 3.88903,2.07829 c 3.44768,1.84244 3.82712,2.40064 3.34364,4.91887 -0.29995,1.56232 -0.54535,4.95399 -0.54535,7.53704 0,4.65332 -0.0363,4.70567 -3.95214,5.69961 l -3.95211,1.00316 z"
       id="path4868"
       inkscape:connector-curvature="0" />
    <path
       style="opacity:1;fill:#ff00ff;fill-opacity:1;stroke:none;stroke-width:0.74685645;stroke-linejoin:miter;stroke-miterlimit:4;stroke-dasharray:none;stroke-opacity:1"
       d="m 354.59158,193.35599 c -1.49264,-1.09143 -1.71127,-2.0756 -1.15721,-5.20895 1.12067,-6.33769 2.63547,-10.28546 3.94666,-10.28546 2.67489,0 5.81136,4.85214 6.2784,9.71265 0.43392,4.51581 0.29938,4.87851 -2.0262,5.46219 -1.37004,0.34386 -3.10081,0.85921 -3.84614,1.14522 -0.74536,0.28602 -2.18334,-0.0855 -3.19551,-0.82565 z"
       id="path4870"
       inkscape:connector-curvature="0" />
    <path
       style="opacity:1;fill:#ff00ff;fill-opacity:1;stroke:none;stroke-width:0.74685645;stroke-linejoin:miter;stroke-miterlimit:4;stroke-dasharray:none;stroke-opacity:1"
       d="m 397.62191,190.65366 c 0.27331,-5.98981 1.26426,-6.98997 2.73772,-2.76318 1.73831,4.98649 1.40245,7.75562 -0.94062,7.75562 -1.80409,0 -2.00007,-0.54444 -1.7971,-4.99244 z"
       id="path4872"
       inkscape:connector-curvature="0" />
    <path
       style="opacity:1;fill:#ff00ff;fill-opacity:1;stroke:none;stroke-width:0.74685645;stroke-linejoin:miter;stroke-miterlimit:4;stroke-dasharray:none;stroke-opacity:1"
       d="m 402.92484,232.56058 c -0.34432,-2.09853 -0.84529,-4.99971 -1.11323,-6.44706 -0.37491,-2.0254 -0.0241,-2.77849 1.52286,-3.26949 1.10551,-0.35087 2.88846,-1.75473 3.96214,-3.11967 l 1.95209,-2.48171 2.11762,7.23325 c 1.1647,3.97829 2.32857,8.01132 2.58638,8.9623 0.35317,1.30271 -0.12628,1.72905 -1.94439,1.72905 -1.32723,0 -3.77312,0.27199 -5.43526,0.60442 -2.88298,0.5766 -3.05094,0.42875 -3.64821,-3.21109 z"
       id="path4874"
       inkscape:connector-curvature="0" />
  </g>
</svg>
