<?xml version="1.0" encoding="UTF-8" standalone="no"?>
<!-- Created with Inkscape (http://www.inkscape.org/) -->

<svg
   xmlns:dc="http://purl.org/dc/elements/1.1/"
   xmlns:cc="http://creativecommons.org/ns#"
   xmlns:rdf="http://www.w3.org/1999/02/22-rdf-syntax-ns#"
   xmlns:svg="http://www.w3.org/2000/svg"
   xmlns="http://www.w3.org/2000/svg"
   xmlns:sodipodi="http://sodipodi.sourceforge.net/DTD/sodipodi-0.dtd"
   xmlns:inkscape="http://www.inkscape.org/namespaces/inkscape"
   width="1920"
   height="1080"
   viewBox="0 0 507.99999 285.75001"
   version="1.1"
   id="svg8"
   inkscape:version="0.92.2 2405546, 2018-03-11"
   sodipodi:docname="cold-1.svg">
  <defs
     id="defs2" />
  <sodipodi:namedview
     id="base"
     pagecolor="#ffffff"
     bordercolor="#666666"
     borderopacity="1.0"
     inkscape:pageopacity="0.0"
     inkscape:pageshadow="2"
     inkscape:zoom="0.26778907"
     inkscape:cx="1139.674"
     inkscape:cy="497.52081"
     inkscape:document-units="mm"
     inkscape:current-layer="layer1"
     showgrid="false"
     units="px"
     inkscape:window-width="1348"
     inkscape:window-height="730"
     inkscape:window-x="5"
     inkscape:window-y="25"
     inkscape:window-maximized="0" />
  <metadata
     id="metadata5">
    <rdf:RDF>
      <cc:Work
         rdf:about="">
        <dc:format>image/svg+xml</dc:format>
        <dc:type
           rdf:resource="http://purl.org/dc/dcmitype/StillImage" />
        <dc:title></dc:title>
      </cc:Work>
    </rdf:RDF>
  </metadata>
  <g
     inkscape:label="Layer 1"
     inkscape:groupmode="layer"
     id="layer1"
     transform="translate(0,-11.249983)">
    <path
       style="opacity:1;fill:#000000;fill-opacity:1;stroke:none;stroke-width:0.2;stroke-linejoin:miter;stroke-miterlimit:4;stroke-dasharray:none;stroke-opacity:1"
       id="path4473"
       d="m 117.9147,192.43777 c 0.30305,-3.42289 0.32011,-6.86152 0.31064,-10.29504 -0.0646,-5.386 -0.3235,-10.76893 -0.56519,-16.14958 -0.27243,-6.04025 -0.56151,-12.07975 -0.91862,-18.11566 -0.34826,-5.67584 -0.768,-11.34713 -1.1053,-17.0236 -0.32018,-5.28383 -0.53998,-10.57187 -0.68537,-15.86313 -0.13499,-5.05243 -0.15079,-10.10604 -0.0471,-15.158892 0.11924,-4.864179 0.33245,-9.725154 0.47226,-14.588707 0.11994,-4.303508 0.0805,-8.608607 0.0482,-12.912936 -0.0434,-3.409836 -0.11457,-6.81912 -0.17102,-10.228702 -0.0171,-2.437969 -0.16028,-4.872347 -0.451,-7.29261 -0.23293,-1.809911 -0.77621,-3.553531 -1.44544,-5.244385 -0.81617,-1.998136 -1.80024,-3.923313 -2.84123,-5.812316 -0.96573,-1.770235 -1.98671,-3.509717 -3.18097,-5.135669 -1.15367,-1.5881 -2.64248,-2.839683 -4.19597,-4.013801 -1.69856,-1.182085 -3.552168,-2.042035 -5.548926,-2.562848 -1.502534,-0.391282 -3.023121,-0.35853 -4.519734,0.0092 -1.436275,0.360428 -2.694972,1.092395 -3.872984,1.964856 -1.461479,1.141652 -2.22531,2.78719 -2.873925,4.475134 -1.122474,3.368003 -1.426684,6.931195 -1.739638,10.44661 -0.403625,4.849757 -0.505413,9.715942 -0.598287,14.579335 -0.0892,5.930546 -0.07969,11.861925 -0.104526,17.79293 0.0145,6.356721 0.131072,12.712536 0.294222,19.066991 0.09404,5.40984 0.381519,10.81327 0.807802,16.20632 0.382685,4.6849 0.934172,9.35342 1.436254,14.02639 0.484359,4.52902 0.800361,9.07258 1.145651,13.61348 0.250131,3.91474 0.589714,7.82284 0.894715,11.73342 0.2628,3.68142 0.566189,7.36043 0.793152,11.04425 0.254203,3.3053 0.48211,6.6126 0.742497,9.91723 0.170532,2.5907 0.320138,5.18347 0.521126,7.77217 0.110908,1.71379 0.387461,3.40933 0.566597,5.1156 0.174226,1.17741 0.237906,2.34171 0.12218,3.52575 -0.395296,1.87008 -1.713696,3.06217 -3.385852,3.81766 -0.82255,0.32297 -1.59372,0.73396 -2.307037,1.25419 -0.81208,0.6121 -1.398598,1.44569 -1.94963,2.28697 -0.741971,1.2074 -1.289881,2.51992 -1.757034,3.85404 -0.512742,1.49119 -0.681025,3.05099 -0.630674,4.61886 0.03033,1.81657 0.474736,3.5811 0.985207,5.31272 0.50854,1.77382 1.407248,3.35774 2.441242,4.86883 1.031798,1.48382 2.408656,2.63958 3.800419,3.76593 1.581108,1.16017 3.297751,2.10857 5.024163,3.03024 1.937377,1.03487 3.951679,1.89918 6.015267,2.64512 1.980373,0.72704 4.058383,1.00483 6.152553,1.11187 2.21346,0.0925 4.3718,-0.34653 6.48385,-0.95919 2.0049,-0.63554 3.90654,-1.5553 5.7038,-2.6404 1.55516,-0.96754 2.96035,-2.14404 4.2371,-3.45231 1.32062,-1.36348 2.36463,-2.94836 3.3832,-4.5402 1.00269,-1.6229 1.79622,-3.35586 2.49309,-5.12788 0.63003,-1.73309 0.8768,-3.54745 1.01809,-5.37537 0.16313,-1.99701 -0.0739,-3.96809 -0.55195,-5.90386 -0.46724,-1.75113 -1.29963,-3.35031 -2.24917,-4.881 -0.52065,-0.87627 -1.21364,-1.59087 -2.01317,-2.20483 -0.10352,-0.0888 -0.37807,-0.31049 -0.4166,-0.42019 -0.0793,-0.22576 -0.0554,-0.47606 -0.10522,-0.71011 -0.17753,-0.83409 -0.47183,-1.65427 -0.68977,-2.47888 -0.0365,-0.30614 -0.073,-0.61227 -0.10956,-0.9184 0,0 0.093,-0.12785 0.093,-0.12785 v 0 c 0.26052,-0.0901 0.52103,-0.18018 0.78154,-0.27028 0.84092,-0.38994 1.99763,-1.25906 2.93053,-1.33144 0.36146,-0.028 1.17422,0.43292 1.4312,0.55967 1.67146,1.10468 2.97836,2.57799 4.01759,4.29053 1.30156,2.16006 2.4586,4.41729 3.08205,6.87669 0.62001,2.64895 0.95044,5.34262 0.72562,8.06771 -0.19913,2.47453 -0.5423,4.95457 -1.43594,7.28691 -0.81092,2.21343 -1.8136,4.34784 -3.03946,6.36432 -1.2474,2.06599 -2.63816,4.04746 -4.3198,5.78812 -1.71103,1.72906 -3.53447,3.33445 -5.63689,4.58093 -2.33951,1.38488 -4.76458,2.60842 -7.39347,3.3527 -2.87013,0.80855 -5.80433,1.36359 -8.80311,1.22168 -2.78653,-0.15852 -5.552074,-0.54492 -8.184924,-1.51907 -2.37091,-0.86717 -4.670899,-1.90615 -6.896299,-3.09976 -2.091832,-1.1134 -4.185401,-2.25441 -6.052372,-3.72614 -1.98668,-1.53415 -3.805428,-3.28664 -5.258438,-5.34451 -1.420627,-2.11841 -2.609667,-4.37944 -3.335292,-6.83638 -0.6775,-2.3508 -1.162849,-4.75888 -1.26623,-7.20975 0.02429,-2.37049 0.21155,-4.73792 1.01705,-6.99046 0.666557,-1.86998 1.45569,-3.69252 2.530557,-5.36941 1.033939,-1.5499 2.197233,-2.99972 3.724363,-4.09729 1.05088,-0.73916 2.14491,-1.41036 3.340936,-1.89208 0.544128,-0.29675 -0.654199,0.86783 -0.508368,1.3519 0.05796,0.50214 -0.01125,-1.46314 -0.120282,-1.57421 -0.249344,-1.80505 -0.453531,-3.61736 -0.611397,-5.43255 -0.185997,-2.60852 -0.303998,-5.22104 -0.4865,-7.82953 -0.177752,-3.30276 -0.459904,-6.59939 -0.67886,-9.89972 -0.284117,-3.66232 -0.48074,-7.33131 -0.782476,-10.99257 -0.300056,-3.91736 -0.547436,-7.83875 -0.868656,-11.75456 -0.325692,-4.46741 -0.69033,-8.93323 -1.195208,-13.38441 -0.509219,-4.74141 -1.072004,-9.47822 -1.441743,-14.23339 -0.414811,-5.515 -0.707459,-11.03659 -0.823445,-16.56667 -0.148425,-6.406678 -0.260781,-12.814334 -0.289057,-19.222788 -0.04531,-5.975098 -0.03518,-11.950753 0.02339,-17.92574 0.0798,-5.039736 0.233911,-10.081398 0.702096,-15.102456 0.411282,-4.147418 0.822849,-8.338484 2.167763,-12.309345 1.159912,-2.929606 2.651755,-5.641093 5.238173,-7.559262 1.987606,-1.416635 4.14814,-2.554696 6.544469,-3.106681 2.605823,-0.470746 5.203401,-0.533231 7.771609,0.231466 2.717801,0.841015 5.341391,1.965547 7.639501,3.672842 2.15733,1.563842 4.15228,3.345274 5.68084,5.54835 1.29364,1.894432 2.43596,3.877139 3.50047,5.908911 1.11474,2.165361 2.25953,4.319609 3.1352,6.59701 0.79982,2.20713 1.52222,4.44428 1.7573,6.794254 0.29395,2.616969 0.41912,5.244068 0.47773,7.876479 0.10993,3.432111 0.15776,6.866083 0.21557,10.29935 0.0828,4.396179 0.0638,8.792599 -0.0594,13.188207 -0.14636,4.844952 -0.35811,9.687393 -0.51343,14.531884 -0.1043,4.951169 -0.13419,9.903659 0.007,14.854669 0.13747,5.22391 0.32295,10.44715 0.6247,15.66441 0.32914,5.67743 0.68214,11.35311 1.05156,17.02809 0.3511,6.07248 0.63232,12.14836 0.85932,18.22675 0.2039,5.46798 0.41737,10.9363 0.46862,16.40835 -0.0149,3.63346 -0.0922,7.27009 -0.46688,10.88728 0,0 -5.93459,-0.59675 -5.93459,-0.59675 z"
       inkscape:connector-curvature="0" />
    <path
       style="opacity:1;fill:#ff0000;fill-opacity:1;stroke:none;stroke-width:0.2;stroke-linejoin:miter;stroke-miterlimit:4;stroke-dasharray:none;stroke-opacity:1"
       id="path4475"
       d="m 109.02719,208.23453 c -1.66974,-0.47841 -3.38134,-0.44436 -4.82492,0.56855 -1.06726,0.95838 -1.43381,2.26002 -1.52318,3.64557 0.0314,1.30201 0.60381,2.26245 1.60928,3.03821 1.49996,0.91936 3.16997,0.93511 4.85006,0.65255 1.92681,-0.49795 3.2804,-1.75588 4.31279,-3.39742 0.23198,-0.63216 0.95119,-2.11501 0.0562,-2.56894 -1.13783,-0.55191 -2.35521,-0.77864 -3.5979,-0.94796 -1.35691,-0.0752 -2.95112,-0.13484 -3.98855,0.89316 -0.40126,0.6422 -0.45102,1.43128 -0.39684,2.16834 0.0885,0.41047 0.1404,0.94998 0.60452,0.83632 0.92361,0.12177 1.76828,-0.15184 2.61385,-0.4911 0.87382,-0.48397 1.70797,-1.18786 1.90543,-2.20997 -0.13723,-0.63242 -0.16227,0.15397 -0.18704,0.34713 -0.4662,0.19129 -0.87108,0.44096 -1.21979,0.82401 -0.43491,0.13858 -0.31499,1.45381 -0.10351,0.79924 -0.097,-0.57678 -0.0908,-0.5734 0.43472,-0.76161 0.3235,0.0393 0.77985,-0.84357 0.35808,-0.42075 -0.66812,1.44099 0.45815,1.76919 0.72238,2.55045 -0.29787,0.44453 0.1016,0.23013 0.33594,-0.0237 0.5028,-0.96343 0.14163,-1.97055 -0.77127,-2.48778 -0.88099,-0.32315 -1.62588,0.0323 -2.05796,0.81178 -0.47617,1.57507 0.51019,2.8705 2.02952,3.20068 -0.0345,0.0782 -0.73559,0.77268 -0.46418,0.5785 0.0902,-0.15461 0.22917,-0.28971 0.27064,-0.46385 0.1173,-0.49257 0.3039,-1.01078 0.19844,-1.50602 -0.11694,-0.54916 -1.5197,-3.58896 -2.79683,-2.30196 -0.14571,0.14684 -0.10237,0.40087 -0.15356,0.60131 0.29213,0.94256 1.00224,1.25433 1.92255,1.09001 0,0 0.12477,0.0971 0.12477,0.0971 v 0 c -0.0646,1.23807 0.005,2.38786 -0.84102,3.42155 -0.29896,0.26529 -0.53374,0.62888 -0.89688,0.79586 -3.22892,1.48476 -5.54618,-3.33229 -3.71261,-5.73591 1.26156,-1.67459 2.88848,-2.89501 4.93386,-3.469 3.96875,-0.48259 6.54898,1.23415 6.12727,5.52143 -1.09073,3.06012 -3.12521,4.61961 -6.47476,4.20225 -3.4613,-1.1742 -4.86178,-3.3416 -4.02256,-7.00668 1.44023,-2.88622 3.46691,-4.2435 6.73172,-4.36303 3.76471,0.50193 6.10881,2.45382 5.48967,6.53774 -1.06002,2.77755 -3.00504,4.66745 -5.97575,5.32539 -3.42706,0.43145 -6.489,-0.48515 -8.15512,-3.74821 -1.08679,-3.81133 -0.33803,-6.01618 2.44821,-8.80174 2.91105,-2.08644 5.69169,-2.80342 9.09263,-1.30244 3.13855,2.125 4.11658,4.38585 3.18126,8.119 -1.17378,2.86167 -3.06037,5.08089 -5.95782,6.32827 -2.8618,1.07901 -5.81036,1.47988 -8.66723,0.10781 -2.715132,-1.73239 -3.997031,-3.73885 -4.193381,-6.99635 0.06989,-3.11233 0.930257,-5.91772 3.430501,-7.95939 2.77395,-1.8122 5.79862,-2.48296 9.10981,-2.05695 3.35745,0.52179 6.55652,1.50553 8.62855,4.40086 1.90387,3.76121 1.62425,6.1927 -0.33692,9.88155 -2.20584,3.26392 -5.12144,5.63437 -9.06523,6.45056 -3.76324,0.52772 -7.41151,0.13323 -10.526868,-2.24165 -2.78039,-2.55162 -4.156906,-5.27597 -3.945525,-9.12506 0.504156,-3.68309 1.956856,-6.90352 5.205053,-8.9662 3.52502,-1.72367 6.72017,-2.06656 10.48327,-0.78661 0,0 -2.35379,6.34517 -2.35379,6.34517 z"
       inkscape:connector-curvature="0" />
    <path
       style="opacity:1;fill:#ff0000;fill-opacity:1;stroke:none;stroke-width:0.2;stroke-linejoin:miter;stroke-miterlimit:4;stroke-dasharray:none;stroke-opacity:1"
       id="path4477"
       d="m 104.31548,206.69137 c 0.38227,-3.33606 0.45346,-6.69519 0.50572,-10.04931 0.10644,-4.7283 -0.14055,-9.45326 -0.55379,-14.16159 -0.43465,-4.93444 -1.08625,-9.8484 -1.77504,-14.75309 -0.59701,-4.33081 -1.23499,-8.65554 -1.89112,-12.97774 -0.54563,-3.67944 -1.053711,-7.36408 -1.491036,-11.05802 -0.45267,-3.48097 -0.609169,-6.98958 -0.705736,-10.49546 -0.07102,-3.13793 -0.05995,-6.27843 0.05089,-9.41518 0.04226,-2.77796 0.125881,-5.55517 0.226828,-8.33156 0.12624,-2.9218 0.255087,-5.84331 0.335645,-8.76678 0.07504,-2.91909 0.0281,-5.83936 -0.08199,-8.756785 -0.123081,-2.596843 -0.285998,-5.193284 -0.518345,-7.782774 -0.235992,-2.355845 -0.617873,-4.694447 -0.962753,-7.036187 -0.347252,-2.424774 -0.707612,-4.846582 -1.095372,-7.265267 -0.439139,-2.508938 -0.862579,-5.019916 -1.247211,-7.537839 -0.422532,-2.430838 -0.679995,-4.884232 -0.981507,-7.331686 -0.211552,-2.047881 -0.319386,-4.102698 -0.341878,-6.16104 0.104203,-0.734044 -0.05952,-2.93501 0.564914,-3.464727 0.175131,-0.148566 0.423942,-0.176763 0.635913,-0.265144 0.649486,-0.170236 1.304954,-0.214511 1.961758,-0.353552 0,0 1.384594,0.747543 1.384594,0.747543 v 0 c 0.686385,-0.02806 1.159354,0.106654 1.756856,0.469101 0.17856,0.109125 0.39132,0.175887 0.5357,0.327374 0.50048,0.525121 -0.10854,1.88445 0.10869,2.493852 0.002,1.82359 0.0966,3.647178 0.30063,5.459547 0.21408,2.329286 0.59621,4.635497 0.97736,6.94255 0.44527,2.516452 0.93243,5.025443 1.34302,7.548031 0.3953,2.448822 0.72879,4.907737 1.05437,7.366709 0.36452,2.475888 0.76614,4.94806 0.9741,7.443742 0.23699,2.711738 0.43514,5.424726 0.52158,8.146338 0.10742,3.065524 0.12703,6.131074 0.0443,9.197814 -0.0782,2.94358 -0.19895,5.88553 -0.32301,8.82749 -0.0967,2.75428 -0.15762,5.50958 -0.26262,8.26348 -0.0505,3.01647 -0.18022,6.03287 -0.0724,9.05042 0.0857,3.30015 0.24766,6.59742 0.61831,9.87964 0.42547,3.64003 0.92123,7.27154 1.41383,10.90293 0.57616,4.35374 1.18572,8.70297 1.73294,13.0605 0.63007,5.0249 1.31455,10.04365 1.76906,15.08877 0.37591,4.93478 0.68155,9.8778 0.55326,14.83022 -0.0877,3.60249 -0.2307,7.21157 -0.72428,10.78501 0,0 -6.34218,-0.86733 -6.34218,-0.86733 z"
       inkscape:connector-curvature="0" />
    <path
       style="opacity:1;fill:#000000;fill-opacity:1;stroke:none;stroke-width:0.2;stroke-linejoin:miter;stroke-miterlimit:4;stroke-dasharray:none;stroke-opacity:1"
       id="path4479"
       d="m 98.793275,179.59913 c -2.453709,-0.13062 -4.909468,-0.21453 -7.366698,-0.18311 -0.817931,-0.13671 -2.775387,0.50285 -3.465304,-0.0226 -0.191355,-0.14573 -0.302741,-0.37385 -0.454112,-0.56078 -1.227963,-1.30005 -1.154996,-0.83156 -0.955075,-2.82757 0,0 0.15738,0.0149 0.15738,0.0149 v 0 c 0.135538,-1.3156 -0.173569,-1.16573 -0.05332,-2.27944 0.127026,-0.23346 0.196077,-0.50956 0.381085,-0.70037 0.826804,-0.85277 3.380335,-0.52951 4.439541,-0.63143 2.56885,0.0643 5.135216,0.20404 7.699669,0.36517 0,0 -0.383167,6.8252 -0.383167,6.8252 z"
       inkscape:connector-curvature="0" />
    <path
       style="opacity:1;fill:#000000;fill-opacity:1;stroke:none;stroke-width:0.2;stroke-linejoin:miter;stroke-miterlimit:4;stroke-dasharray:none;stroke-opacity:1"
       id="path4481"
       d="m 98.313104,158.9823 c -2.425862,-0.42909 -4.881377,-0.64207 -7.333192,-0.85794 -1.809935,-0.0972 -2.197393,-0.11817 -2.522513,-1.96436 -0.08658,-0.21843 -0.173157,-0.43686 -0.259734,-0.65529 0,0 0.413232,-2.02554 0.413232,-2.02554 v 0 c -0.0278,-0.20644 -0.0556,-0.41288 -0.08341,-0.61932 0.568666,-1.91346 1.132369,-1.81466 3.015824,-1.66991 2.658044,0.19963 5.297797,0.57025 7.927202,1.00332 0,0 -1.157409,6.78904 -1.157409,6.78904 z"
       inkscape:connector-curvature="0" />
    <path
       style="opacity:1;fill:#000000;fill-opacity:1;stroke:none;stroke-width:0.2;stroke-linejoin:miter;stroke-miterlimit:4;stroke-dasharray:none;stroke-opacity:1"
       id="path4483"
       d="m 96.588526,137.01673 c -2.264788,-0.28293 -4.542044,-0.45113 -6.810494,-0.70182 -2.031362,-0.20829 -2.742274,-0.75754 -3.52443,-2.63263 -0.223155,-0.6869 -0.14958,-1.39529 -0.230788,-2.10028 0,0 0.121721,-0.10087 0.121721,-0.10087 v 0 c 0.629119,0.0947 1.007761,-0.18616 1.48267,-0.59859 0.986554,-1.17213 1.044744,-1.48387 2.719885,-1.33147 2.333511,0.13611 4.655746,0.39322 6.98179,0.61659 0,0 -0.740354,6.84907 -0.740354,6.84907 z"
       inkscape:connector-curvature="0" />
    <path
       style="opacity:1;fill:#000000;fill-opacity:1;stroke:none;stroke-width:0.2;stroke-linejoin:miter;stroke-miterlimit:4;stroke-dasharray:none;stroke-opacity:1"
       id="path4485"
       d="m 95.73358,114.42826 c -2.200664,-0.49745 -4.427783,-0.85797 -6.64796,-1.25195 -1.886789,-0.25472 -2.201807,-0.19634 -3.068368,-1.92233 -0.250512,-0.56553 -0.447124,-1.13879 -0.577498,-1.74192 0,0 0.04454,-0.15168 0.04454,-0.15168 v 0 c 0.224502,-0.53933 0.340992,-1.11413 0.687782,-1.59783 1.323522,-1.73074 1.959652,-1.48534 4.02032,-1.17871 2.320943,0.36924 4.610711,0.90381 6.913453,1.36959 0,0 -1.372264,6.47483 -1.372264,6.47483 z"
       inkscape:connector-curvature="0" />
    <path
       style="opacity:1;fill:#000000;fill-opacity:1;stroke:none;stroke-width:0.2;stroke-linejoin:miter;stroke-miterlimit:4;stroke-dasharray:none;stroke-opacity:1"
       id="path4487"
       d="M 94.198772,91.453318 C 91.648848,90.788669 89.090454,90.157715 86.553338,89.444917 85.555457,88.982936 84.012343,89.028682 83.179273,88.211815 82.997634,88.033708 82.47818,87.000751 82.357946,86.77108 82.025923,86.092601 81.843911,85.381123 81.69327,84.646941 c 0,0 0.03377,-0.154434 0.03377,-0.154434 v 0 c 0.497496,-0.627949 1.012407,-1.152689 1.733079,-1.534883 0.276411,-0.155112 1.199849,-0.698965 1.506146,-0.763764 1.121267,-0.237215 2.373342,0.615153 3.446135,0.754081 2.462424,0.717661 4.915299,1.472363 7.412577,2.063578 0,0 -1.626201,6.441799 -1.626201,6.441799 z"
       inkscape:connector-curvature="0" />
    <path
       style="opacity:1;fill:#000000;fill-opacity:1;stroke:none;stroke-width:0.2;stroke-linejoin:miter;stroke-miterlimit:4;stroke-dasharray:none;stroke-opacity:1"
       id="path4489"
       d="m 92.47594,66.133284 c -2.380146,-0.181237 -4.766987,-0.35578 -7.127695,-0.717958 -2.238777,-0.291494 -2.97761,-1.484368 -3.683584,-3.49382 -0.01542,-0.299725 -0.03083,-0.599451 -0.04625,-0.899176 0,0 0.08202,-0.135141 0.08202,-0.135141 v 0 c 0.230079,-0.150728 0.460159,-0.301456 0.690238,-0.452181 1.506209,-0.993434 1.950571,-1.829303 3.88703,-1.449152 2.245995,0.30258 4.489172,0.621297 6.746494,0.832586 0,0 -0.548254,6.314842 -0.548254,6.314842 z"
       inkscape:connector-curvature="0" />
    <path
       style="opacity:1;fill:#000000;fill-opacity:1;stroke:none;stroke-width:0.2;stroke-linejoin:miter;stroke-miterlimit:4;stroke-dasharray:none;stroke-opacity:1"
       id="path4510"
       d="m 402.74345,56.67384 c -3.82193,-0.3232 -7.65273,-0.43511 -11.48641,-0.367533 -5.19935,0.08026 -10.2707,1.026948 -15.20915,2.600486 -4.8143,1.614348 -8.81692,4.548296 -12.38371,8.081489 -3.36122,3.478162 -5.62417,7.657013 -7.00614,12.255987 -0.95433,3.799927 -0.5207,6.876584 1.22256,10.321266 2.40548,4.035303 6.31002,6.605328 10.34648,8.795271 5.2946,2.727234 11.10554,3.678154 16.98122,4.021564 5.99794,0.21046 11.89876,-0.86392 17.69414,-2.2883 5.29728,-1.372912 10.39127,-3.36551 15.16729,-6.02792 3.42681,-2.018183 5.71344,-4.013541 6.95913,-7.831624 0.74067,-3.836641 -0.74282,-7.321682 -2.54961,-10.619491 -2.7569,-4.644986 -6.7995,-8.144767 -11.18314,-11.18715 -4.47897,-3.047034 -9.56516,-4.741563 -14.79984,-5.918763 -3.88906,-0.507143 -7.60717,-1.751891 -11.50207,-2.202709 -0.3951,0.100115 -0.79023,0.200231 -1.18534,0.300347 0,0 -0.0557,-0.147961 -0.0557,-0.147961 v 0 c 0.37859,-0.190976 0.75715,-0.381952 1.13575,-0.572928 3.86503,-2.488666 8.14855,-3.27673 12.681,-2.344082 5.9272,1.235306 11.61153,3.257971 16.68275,6.642619 5.0492,3.530155 9.73338,7.546589 12.88065,12.939413 2.44187,4.649542 4.25434,9.533475 2.89179,14.833002 -0.264,0.741114 -0.46191,1.509207 -0.792,2.223342 -1.75466,3.796186 -5.10167,6.445731 -8.57179,8.585443 -5.21388,2.847762 -10.69213,5.151022 -16.47383,6.585302 -6.3247,1.53835 -12.76419,2.67684 -19.30487,2.42037 -6.67594,-0.41528 -13.26655,-1.54676 -19.274,-4.65887 -5.01877,-2.80273 -9.79773,-6.044014 -12.67602,-11.187906 -2.33897,-5.118174 -2.6411,-8.791588 -1.10702,-14.250797 1.82742,-5.290759 4.56152,-10.115769 8.55546,-14.099137 4.18991,-3.926859 8.81356,-7.228176 14.38436,-8.906222 5.37462,-1.549352 10.90033,-2.435182 16.51199,-2.314636 4.04368,0.108194 8.12517,0.293712 12.04481,1.386909 0,0 -0.57878,2.933219 -0.57878,2.933219 z"
       inkscape:connector-curvature="0" />
    <path
       style="opacity:1;fill:#000000;fill-opacity:1;stroke:none;stroke-width:0.2;stroke-linejoin:miter;stroke-miterlimit:4;stroke-dasharray:none;stroke-opacity:1"
       id="path4524"
       d="m 378.14914,73.925631 c -1.39071,0.228433 -3.05978,0.513468 -3.91621,1.758516 -0.15721,0.378129 -0.11591,0.720452 0.26141,0.913074 0.4296,0.176948 0.85966,0.123912 1.29265,-0.0047 0.82082,-0.315151 1.31635,-0.975193 1.61732,-1.772708 0.0942,-0.34902 0.10644,-0.69336 -0.19026,-0.921134 -0.0312,-1.005028 0.003,-2.061684 -0.023,-3.090063 -0.0579,-0.07075 -0.11584,-0.141492 -0.17375,-0.212239 0,0 0.0742,-0.139567 0.0742,-0.139567 v 0 c 0.0866,0.0061 0.17314,0.01222 0.25971,0.01834 1.45167,-0.976272 3.09684,-1.4377 4.45024,-0.01675 1.56057,2.09717 1.89439,4.447032 0.88461,6.902154 -1.31678,2.554377 -3.24641,4.446772 -6.15228,5.043617 -2.92767,0.269655 -5.51315,-0.447358 -7.21106,-3.021812 -1.27405,-2.683171 -1.19599,-5.372227 0.78611,-7.723124 2.14987,-2.004615 4.69442,-3.053971 7.64518,-3.252837 0,0 0.39519,5.519269 0.39519,5.519269 z"
       inkscape:connector-curvature="0" />
    <path
       style="opacity:1;fill:#000000;fill-opacity:1;stroke:none;stroke-width:0.2;stroke-linejoin:miter;stroke-miterlimit:4;stroke-dasharray:none;stroke-opacity:1"
       id="path4526"
       d="m 404.17152,69.791151 c -0.50589,0.485381 -2.36863,1.945735 -1.61976,2.825588 0.37246,-0.188539 0.8014,-0.139628 1.22082,-0.191854 0.7706,-0.167728 1.47007,-0.581581 1.75373,-1.342136 0.0343,-0.403156 -0.14628,-0.449705 0.0704,-0.82541 0.48432,-0.68502 1.08238,-2.069185 -0.0918,-2.339922 0,0 -0.006,-0.157972 -0.006,-0.157972 v 0 c 2.25163,-0.59721 -1.89518,0.549499 1.31353,-0.571839 1.04783,-0.366186 2.11394,-0.128389 3.10314,0.276267 2.14064,1.991646 1.89224,4.324557 0.74951,6.816241 -1.68865,2.493206 -4.01333,4.040801 -7.09724,4.177683 -3.66138,-0.260508 -6.20577,-1.70625 -6.98804,-5.52242 0.005,-0.554654 -0.0599,-1.114322 0.0148,-1.663959 0.35078,-2.585223 2.18773,-4.648234 4.1435,-6.209803 0,0 3.4335,4.729536 3.4335,4.729536 z"
       inkscape:connector-curvature="0" />
    <path
       style="opacity:1;fill:#000000;fill-opacity:1;stroke:none;stroke-width:0.2;stroke-linejoin:miter;stroke-miterlimit:4;stroke-dasharray:none;stroke-opacity:1"
       id="path4528"
       d="m 393.07174,75.32984 c -0.54284,1.351275 -2.18384,3.128071 -1.72439,4.703414 0.61518,-0.555387 -0.73327,-1.067319 0.48498,-0.983451 0.84283,0.161475 1.8425,-0.236538 2.65959,0.07433 0.13967,0.05314 1.33453,0.880618 1.48468,0.983351 0.54539,0.422351 1.04447,0.860964 1.66145,1.169836 0,0 0.0684,0.142529 0.0684,0.142529 v 0 c -0.3052,0.72794 -0.60457,1.455526 -1.12919,2.062101 -0.2667,0.279998 -1.16126,1.259682 -1.49625,1.442276 -1.21462,0.66208 -2.93671,0.270764 -4.22732,0.256722 -2.96479,-0.56729 -5.35395,-2.11392 -5.42809,-5.430612 0.30747,-2.674623 1.48082,-5.03985 2.94973,-7.278844 0,0 4.69641,2.858344 4.69641,2.858344 z"
       inkscape:connector-curvature="0" />
    <path
       style="opacity:1;fill:#000000;fill-opacity:1;stroke:none;stroke-width:0.2;stroke-linejoin:miter;stroke-miterlimit:4;stroke-dasharray:none;stroke-opacity:1"
       id="path4530"
       d="m 406.35129,90.394395 c -2.97265,2.818897 -6.67729,4.234468 -10.61578,5.061855 -4.36176,0.668422 -8.64205,-0.109895 -12.75159,-1.562547 -1.88423,-0.993042 -3.45906,-2.556648 -4.37594,-4.498211 -1.01299,-2.145083 0.18849,-0.173265 -0.7991,-1.707308 0,0 0.11578,-0.107641 0.11578,-0.107641 v 0 c 1.74112,1.271045 4.82677,0.131239 6.84676,0.965282 3.21151,0.996675 6.51909,1.698009 9.90052,1.293773 2.93087,-0.472816 5.70376,-1.398032 7.98608,-3.379578 0,0 3.69327,3.934375 3.69327,3.934375 z"
       inkscape:connector-curvature="0" />
    <path
       style="opacity:1;fill:#000000;fill-opacity:1;stroke:none;stroke-width:0.2;stroke-linejoin:miter;stroke-miterlimit:4;stroke-dasharray:none;stroke-opacity:1"
       id="path4532"
       d="m 372.72552,105.51423 c -0.78806,2.36799 -1.49251,4.76487 -2.00795,7.20742 -0.3633,1.5898 -0.55255,3.20004 -0.48228,4.8288 0.11028,1.18205 0.54134,2.22349 1.24473,3.16837 0.78179,1.02268 1.87407,1.70396 2.97932,2.32599 1.49177,0.81294 3.11245,1.33517 4.74368,1.7843 1.70019,0.4427 3.4476,0.60783 5.19846,0.65002 1.75056,0.007 3.4857,-0.25144 5.2183,-0.47007 1.82996,-0.20776 3.64487,-0.50785 5.42843,-0.96799 1.55863,-0.40384 2.94465,-1.19359 4.23473,-2.13475 1.72003,-1.30963 3.1418,-2.95027 4.60002,-4.53279 1.20764,-1.41209 2.46018,-2.80861 3.42254,-4.40498 0.52666,-0.87189 0.53116,-1.79169 0.4684,-2.77234 -0.20455,-1.70391 -0.80791,-3.31824 -1.33247,-4.94105 -0.48522,-1.49107 0.45408,-2.9378 1.12652,-4.23747 0,0 0.1362,-0.0802 0.1362,-0.0802 v 0 c 1.69421,0.11938 3.49084,0.67653 4.18807,2.36946 0.82565,2.12703 1.49799,4.33183 1.73373,6.60975 0.0854,2.16798 -0.2054,4.26352 -1.37112,6.14336 -1.18592,1.85704 -2.61086,3.53184 -4.08898,5.16266 -1.71236,1.94981 -3.51128,3.84666 -5.59816,5.40269 -1.89225,1.2738 -3.88808,2.3736 -6.11873,2.93576 -2.01221,0.50402 -4.05744,0.81916 -6.11653,1.06642 -2.01882,0.25735 -4.04709,0.49922 -6.08592,0.48232 -2.20556,-0.0667 -4.40595,-0.2872 -6.54502,-0.85623 -2.08431,-0.57948 -4.13181,-1.28382 -6.02946,-2.34075 -1.84941,-1.0708 -3.56375,-2.35759 -4.81708,-4.11756 -1.16316,-1.85355 -2.01338,-3.85537 -2.10606,-6.07488 -0.0497,-2.12289 0.21616,-4.22781 0.75906,-6.28316 0.70504,-2.5263 1.47577,-5.03176 2.28759,-7.52581 0,0 4.92998,1.60275 4.92998,1.60275 z"
       inkscape:connector-curvature="0" />
    <path
       style="opacity:1;fill:#000000;fill-opacity:1;stroke:none;stroke-width:0.2;stroke-linejoin:miter;stroke-miterlimit:4;stroke-dasharray:none;stroke-opacity:1"
       id="path4534"
       d="m 367.99697,114.95857 c -2.10302,0.0292 -4.20061,0.19912 -6.29746,0.35009 -1.50352,0.11046 -3.01101,0.15087 -4.51765,0.19542 -1.28423,-0.0107 -2.5504,0.14965 -3.80905,0.38781 -1.75781,0.39315 -3.52205,0.74133 -5.29579,1.05497 -2.63777,0.3492 -5.26643,0.74696 -7.87241,1.28609 -3.32592,0.65933 -6.54828,1.71921 -9.76564,2.76893 -3.35111,1.1398 -6.65052,2.42339 -9.92487,3.76582 -2.72124,1.1089 -5.36834,2.38556 -7.99428,3.70119 -1.92955,1.07875 -4.15276,0.78612 -6.22077,0.31925 0,0 -0.0457,-0.15133 -0.0457,-0.15133 v 0 c 1.31212,-1.59983 1.86849,-3.81909 3.95782,-4.67865 2.73288,-1.42681 5.53493,-2.71013 8.39108,-3.87233 3.37653,-1.37353 6.77764,-2.68834 10.22852,-3.86473 3.4044,-1.17843 6.85467,-2.23413 10.38583,-2.96568 2.66647,-0.50858 5.34516,-0.92856 8.03325,-1.30652 1.74575,-0.26743 3.47125,-0.63959 5.19819,-1.00759 1.54903,-0.28666 3.12031,-0.43257 4.69733,-0.38426 1.44082,0.0223 2.88089,0.0223 4.32149,-0.0165 2.15326,-0.0547 4.30604,-0.12625 6.45922,-0.1827 0,0 0.0709,4.60068 0.0709,4.60068 z"
       inkscape:connector-curvature="0" />
    <path
       style="opacity:1;fill:#000000;fill-opacity:1;stroke:none;stroke-width:0.2;stroke-linejoin:miter;stroke-miterlimit:4;stroke-dasharray:none;stroke-opacity:1"
       id="path4536"
       d="m 312.92493,128.12405 c 1.80697,2.52522 3.26887,5.25131 4.5594,8.06803 0.51816,1.64404 1.59764,3.28183 1.65473,5.05605 0.0156,0.48205 -0.25635,1.57447 -0.36539,2.06252 -0.11541,0.71728 -0.58951,1.20253 -0.42844,1.91837 0,0 -0.13059,0.0891 -0.13059,0.0891 v 0 c -0.6127,-0.44946 -1.34697,-0.48311 -1.96115,-0.95837 -0.50244,-0.36348 -1.35998,-0.93558 -1.74755,-1.42207 -1.03428,-1.2982 -1.22211,-3.11334 -2.01117,-4.53767 -1.07268,-2.52743 -2.36165,-4.96751 -3.94444,-7.21584 0,0 4.3746,-3.06009 4.3746,-3.06009 z"
       inkscape:connector-curvature="0" />
    <path
       style="opacity:1;fill:#000000;fill-opacity:1;stroke:none;stroke-width:0.2;stroke-linejoin:miter;stroke-miterlimit:4;stroke-dasharray:none;stroke-opacity:1"
       id="path4538"
       d="m 316.84261,142.88438 c 2.94749,-0.75185 5.88947,-1.52433 8.85592,-2.19867 3.61675,-0.87836 7.31616,-1.22621 11.0249,-1.37633 3.95756,-0.0867 7.90927,0.17273 11.85722,0.40849 1.7407,0.23935 3.62188,0.0395 5.32953,0.53444 1.40407,0.4069 2.74802,1.32918 3.95372,2.12581 1.06469,0.93638 0.54936,0.53256 1.52657,1.23592 0,0 -0.0383,0.15337 -0.0383,0.15337 v 0 c -1.11887,0.17949 -0.5279,0.0208 -1.75242,0.54697 -1.29463,0.4592 -2.73206,1.06638 -4.10191,1.23124 -1.73292,0.20854 -3.52684,-0.22661 -5.25785,-0.21218 -3.77235,-0.2325 -7.5501,-0.48001 -11.33158,-0.42975 -3.37846,0.0843 -6.75484,0.30767 -10.07065,1.00323 -2.91581,0.60871 -5.82647,1.24096 -8.71432,1.97313 0,0 -1.28082,-4.99567 -1.28082,-4.99567 z"
       inkscape:connector-curvature="0" />
    <path
       style="opacity:1;fill:#000000;fill-opacity:1;stroke:none;stroke-width:0.2;stroke-linejoin:miter;stroke-miterlimit:4;stroke-dasharray:none;stroke-opacity:1"
       id="path4540"
       d="m 361.20683,144.48762 c 0.0784,3.57886 -0.36623,7.13893 -0.87484,10.67345 -0.65209,3.76305 -1.10368,7.56759 -1.92646,11.29837 -0.41087,1.97728 -2.13669,3.43585 -2.61456,5.34023 0,0 -0.15793,0.007 -0.15793,0.007 v 0 c -0.64111,-1.97186 -1.82885,-3.77691 -1.84354,-5.94371 0.17032,-3.85827 0.99963,-7.63869 1.63338,-11.44055 0.51861,-3.29369 1.02735,-6.59732 1.15189,-9.93456 0,0 4.63206,0 4.63206,0 z"
       inkscape:connector-curvature="0" />
    <path
       style="opacity:1;fill:#000000;fill-opacity:1;stroke:none;stroke-width:0.2;stroke-linejoin:miter;stroke-miterlimit:4;stroke-dasharray:none;stroke-opacity:1"
       id="path4542"
       d="m 357.93809,169.20791 c 3.61543,0.0341 7.22971,0.14189 10.84279,0.27293 4.42356,0.19004 8.84848,0.31435 13.27615,0.32342 5.34789,0.007 10.69192,-0.2347 16.03415,-0.4534 5.53334,-0.19076 11.09281,-0.15914 16.50389,1.09704 1.94061,0.75092 3.86088,1.58194 5.66637,2.623 1.70489,0.98307 0.62272,0.68603 2.20263,0.92661 0,0 -0.013,0.15754 -0.013,0.15754 v 0 c -1.75286,-0.027 -0.28379,-0.10156 -2.4157,0.39581 -1.98622,0.46337 -4.03098,0.61405 -6.04856,0.86991 -5.22965,-0.0457 -10.45249,-0.69836 -15.69069,-0.35685 -5.42525,0.16684 -10.84776,0.46247 -16.27701,0.46553 -4.50985,-0.05 -9.01882,-0.16944 -13.51777,-0.5053 -3.59185,-0.23236 -7.18349,-0.46573 -10.77513,-0.70173 0,0 0.21193,-5.11451 0.21193,-5.11451 z"
       inkscape:connector-curvature="0" />
    <path
       style="opacity:1;fill:#000000;fill-opacity:1;stroke:none;stroke-width:0.2;stroke-linejoin:miter;stroke-miterlimit:4;stroke-dasharray:none;stroke-opacity:1"
       id="path4544"
       d="m 417.97443,166.13795 c 0.46662,-4.14762 0.57126,-8.3222 0.70223,-12.49017 0.13846,-3.77932 0.0954,-7.56619 0.39047,-11.33818 -0.54771,-1.45595 2.23981,-3.1546 2.37885,-4.06294 0,0 0.15671,-0.0208 0.15671,-0.0208 v 0 c 0.25318,0.5876 -0.0446,0.044 0.73009,0.67338 1.07871,0.87636 1.79639,2.13053 1.91902,3.51095 0.14701,3.80343 -0.10755,7.60521 -0.18764,11.40786 -0.13742,4.32557 -0.28342,8.65678 -0.73967,12.9628 0,0 -5.35006,-0.64287 -5.35006,-0.64287 z"
       inkscape:connector-curvature="0" />
    <path
       style="opacity:1;fill:#000000;fill-opacity:1;stroke:none;stroke-width:0.2;stroke-linejoin:miter;stroke-miterlimit:4;stroke-dasharray:none;stroke-opacity:1"
       id="path4546"
       d="m 424.79139,141.65766 c -0.41775,3.84644 -0.59555,7.71412 -0.73318,11.5791 -0.0882,3.99724 -0.171,7.99452 -0.24329,11.9921 -0.28323,1.58013 0.23704,4.82878 -0.61955,6.21912 -0.16877,0.27396 -0.46212,0.44788 -0.69318,0.67181 -1.4837,0.92566 -1.31902,1.10782 -2.56894,-0.21811 0,0 0.13216,-0.0867 0.13216,-0.0867 v 0 c -0.52827,-0.30218 -0.9969,-0.18512 -1.50413,-0.53215 -0.14883,-0.16333 -0.35828,-0.28738 -0.44646,-0.48997 -0.47514,-1.09144 0.4359,-4.47865 0.1828,-5.73581 0.17798,-4.01404 0.25172,-8.03215 0.44995,-12.04524 0.19717,-4.03022 0.44162,-8.06452 1.07532,-12.05418 0,0 4.9685,0.70008 4.9685,0.70008 z"
       inkscape:connector-curvature="0" />
    <path
       style="opacity:1;fill:#000000;fill-opacity:1;stroke:none;stroke-width:0.2;stroke-linejoin:miter;stroke-miterlimit:4;stroke-dasharray:none;stroke-opacity:1"
       id="path4548"
       d="m 423.42665,138.49405 c 3.11689,0.0238 6.19617,0.35262 9.24636,0.97878 3.25136,0.89473 5.44142,1.43808 7.45625,4.29143 0.90594,0.88215 0.77875,2.57681 1.85878,3.17899 0,0 -0.0713,0.14107 -0.0713,0.14107 v 0 c -1.11779,-0.51143 -2.45684,0.13871 -3.66557,-0.18007 -0.87529,-0.0576 -1.50365,-0.0459 -2.34844,-0.30753 -1.49738,-0.46381 -2.86514,-1.37491 -4.43497,-1.64174 -2.67205,-0.63605 -5.40861,-0.92581 -8.15483,-0.9712 0,0 0.11375,-5.48973 0.11375,-5.48973 z"
       inkscape:connector-curvature="0" />
    <path
       style="opacity:1;fill:#000000;fill-opacity:1;stroke:none;stroke-width:0.2;stroke-linejoin:miter;stroke-miterlimit:4;stroke-dasharray:none;stroke-opacity:1"
       id="path4550"
       d="m 441.25096,144.57869 c 0.56407,-3.4034 1.6282,-6.67288 2.89256,-9.8718 1.41888,-3.41389 3.1596,-6.68548 5.03796,-9.86621 0.23193,-0.40278 0.45924,-0.80825 0.69577,-1.20833 0.41691,-0.70509 1.63351,-2.2156 1.84082,-2.9451 0.0196,-0.0687 -0.0875,0.11287 -0.13121,0.1693 -0.032,0.48105 -0.23191,0.98062 -0.0959,1.44316 0.15986,0.54385 0.59611,0.96629 0.93726,1.41899 0.0607,0.0806 0.34748,0.12278 0.25498,0.16304 -0.14896,0.0648 -2.48846,-0.3815 -2.59845,-0.39797 -4.05122,-0.71888 -8.08802,-1.51473 -12.14305,-2.21235 -5.90314,-1.00881 -11.83772,-1.81149 -17.73862,-2.83303 -5.19247,-0.74504 -9.53717,-3.81539 -14.21617,-5.90727 0,0 0.0424,-0.15229 0.0424,-0.15229 v 0 c 4.99438,0.60881 10.07943,-0.43095 15.06273,0.44149 5.96784,0.85498 11.93363,1.73418 17.87255,2.77358 4.01619,0.75565 8.01838,1.58706 12.04262,2.29624 2.17522,0.39383 4.86217,0.2768 5.90616,2.73636 0.25569,0.60238 0.0428,1.30809 0.0642,1.96213 -0.73961,1.8243 -2.00123,3.36309 -2.98503,5.06132 -1.70677,2.95781 -3.43691,5.91095 -4.75609,9.06962 -1.11869,2.83117 -2.10675,5.72605 -2.58874,8.74253 0,0 -5.39671,-0.88341 -5.39671,-0.88341 z"
       inkscape:connector-curvature="0" />
    <path
       style="opacity:1;fill:#000000;fill-opacity:1;stroke:none;stroke-width:0.2;stroke-linejoin:miter;stroke-miterlimit:4;stroke-dasharray:none;stroke-opacity:1"
       id="path4552"
       d="m 311.89527,134.38892 c -3.60934,1.17587 -7.18441,2.4319 -10.69747,3.87163 -3.86056,1.5259 -7.38553,3.71985 -10.99315,5.73814 -2.33701,0.95034 -4.9757,1.26422 -7.12319,2.61428 0,0 -0.10573,-0.11752 -0.10573,-0.11752 v 0 c 1.65188,-2.0906 2.54461,-4.7414 4.51631,-6.62573 3.6073,-2.71781 7.65646,-4.7483 11.87169,-6.35759 3.75082,-1.36736 7.57026,-2.60565 11.51941,-3.25585 0,0 1.01213,4.13264 1.01213,4.13264 z"
       inkscape:connector-curvature="0" />
    <path
       style="opacity:1;fill:#000000;fill-opacity:1;stroke:none;stroke-width:0.2;stroke-linejoin:miter;stroke-miterlimit:4;stroke-dasharray:none;stroke-opacity:1"
       id="path4554"
       d="m 280.19676,142.96304 c -0.37306,-3.5712 -1.04418,-7.1019 -1.7712,-10.61533 -0.70046,-3.45463 -1.49386,-6.88946 -2.51878,-10.26296 -0.58547,-1.46215 -0.95051,-3.37037 -2.29589,-4.3662 -0.37195,-0.20383 -0.49877,0.0921 -0.80323,0.28938 -1.13659,0.72222 -1.87981,1.82664 -2.48131,3.00214 -0.75338,1.60365 -0.79941,3.35078 -0.64371,5.08156 0.33539,2.57063 1.14007,5.0414 1.9489,7.49359 0.85278,2.48051 1.70331,4.96073 2.46626,7.47049 0.56457,1.83464 0.62894,2.78607 -0.83939,4.10175 -0.5492,0.3574 -0.33129,0.19213 -0.67331,0.46884 0,0 -0.15494,0.0315 -0.15494,0.0315 v 0 c -0.41968,-0.0989 -0.15608,-0.0488 -0.79809,-0.10473 -1.80383,-0.41361 -2.2493,-1.10589 -2.75201,-2.86548 -0.79486,-2.46918 -1.62177,-4.92789 -2.45811,-7.38329 -0.94499,-2.8627 -1.8963,-5.75083 -2.26274,-8.75586 -0.21955,-2.8228 -0.0569,-5.58666 1.2035,-8.18227 1.23852,-2.27223 2.80202,-4.30721 5.15006,-5.5235 2.49487,-1.01063 4.91287,-0.98461 7.03453,0.86257 1.81478,1.93976 2.89558,4.26312 3.6121,6.8158 1.03605,3.54535 1.83552,7.15199 2.55611,10.77378 0.70805,3.69866 1.41385,7.40347 1.82256,11.1497 0,0 -5.34131,0.51857 -5.34131,0.51857 z"
       inkscape:connector-curvature="0" />
    <path
       style="opacity:1;fill:#000000;fill-opacity:1;stroke:none;stroke-width:0.2;stroke-linejoin:miter;stroke-miterlimit:4;stroke-dasharray:none;stroke-opacity:1"
       id="path4556"
       d="m 273.72474,149.19925 c -1.97379,0.42569 -3.9288,1.01344 -5.58419,2.19764 -0.3777,0.38281 -0.90885,0.9108 -0.66554,1.49751 0.32245,0.36167 0.75023,0.59393 1.18034,0.80205 1.24745,0.5378 2.61514,0.6342 3.95488,0.70367 1.52032,0.0471 3.03972,-0.0557 4.55552,0.0818 3.83696,0.84249 4.24593,4.05222 1.39859,6.47576 -1.21187,0.83192 -2.5277,1.47262 -3.67866,2.39408 -0.86297,0.74115 -0.4631,1.27882 -0.35343,0.11381 -0.10568,-0.69545 -0.6028,-0.8303 0.14464,-0.9165 0.70583,-0.0964 1.37282,-0.37517 2.05441,-0.57329 3.66398,-0.45033 4.34401,2.21612 3.63363,5.03077 -0.0633,0.77558 -0.60589,1.7992 -0.27265,2.57062 0.18595,-1.00242 -1.18933,-1.42004 -1.93829,-1.44903 1.0857,-0.99871 2.01941,-2.14468 3.01512,-3.22966 2.07777,-2.09874 3.52351,-2.78764 6.43683,-1.75829 1.55308,0.84373 2.48455,2.33059 3.56693,3.66114 0.0514,0.0326 0.16814,0.15688 0.15407,0.0977 -0.17669,-0.74111 -1.60711,-0.59593 -2.03671,-0.53679 -0.44715,0.0615 -0.49409,0.341 -0.3728,-0.0135 1.22849,-2.07062 2.46655,-4.12958 3.82209,-6.12048 2.02181,-2.97229 4.62148,-5.45061 7.40585,-7.6939 3.2304,-2.52432 6.91089,-4.34747 10.85731,-5.41472 2.98661,-0.37658 5.9073,0.705 8.85925,0.53692 0,0 0.0372,0.15365 0.0372,0.15365 v 0 c -2.55376,1.12715 -4.75544,2.94159 -7.0993,4.44306 -3.11772,1.39916 -6.31616,2.6559 -9.04068,4.77713 -2.34755,1.88152 -4.50885,3.96339 -6.22697,6.45137 -1.41621,2.09324 -2.63644,4.29707 -3.95611,6.44959 -2.12952,2.52269 -4.55795,3.14171 -6.91171,0.46147 -0.48045,-0.6119 -1.14575,-1.47453 -1.4891,-2.01631 1.17819,0.0912 1.48458,-0.77647 0.22344,0.43677 -1.45349,1.55451 -2.75066,3.30295 -4.57411,4.45461 -0.42553,0.19036 -0.824,0.45951 -1.27662,0.57109 -2.57077,0.63373 -4.6959,-0.99261 -5.20179,-3.46957 -0.1633,-1.59865 -0.006,-3.17541 0.44106,-4.72399 0.006,-0.0256 0.14124,-0.62648 0.14814,-0.59823 0.38857,1.59065 1.3788,2.9695 3.27978,2.49865 -1.20759,0.20811 -2.34259,0.89988 -3.61998,0.79422 -2.55217,-0.10621 -4.7703,-0.95447 -5.74288,-3.52145 -0.35674,-2.79979 0.4065,-4.20174 2.50708,-6.00275 1.16697,-0.89165 2.4206,-1.6456 3.69845,-2.36797 -0.65455,1.49682 -0.30146,3.29524 1.46823,3.67461 -1.38623,-0.25236 -2.83673,0.12328 -4.23341,-0.0611 -2.20779,-0.13103 -4.42577,-0.39598 -6.42538,-1.41595 -2.20253,-1.30356 -3.82743,-3.049 -4.05553,-5.71694 0.0965,-2.56546 1.08243,-4.68133 3.22743,-6.19309 2.29881,-1.47125 4.84934,-2.33195 7.5124,-2.9059 0,0 1.17319,5.36971 1.17319,5.36971 z"
       inkscape:connector-curvature="0" />
    <path
       style="opacity:1;fill:#000000;fill-opacity:1;stroke:none;stroke-width:0.2;stroke-linejoin:miter;stroke-miterlimit:4;stroke-dasharray:none;stroke-opacity:1"
       id="path4558"
       d="m 455.02485,121.62237 c 2.657,1.89102 5.47325,3.53653 8.24902,5.24222 2.81208,1.67016 5.52972,3.49089 8.1111,5.49857 1.74262,1.30502 3.28075,2.84172 4.66989,4.51146 1.00008,1.24591 1.85894,2.59445 2.72085,3.93694 0.60393,0.98537 1.21771,1.96796 1.87515,2.91872 0.63037,0.27378 -1.77784,-0.96873 -2.78551,-0.731 -0.0472,0.0143 -0.18584,0.065 -0.14173,0.0429 0.81145,-0.40773 1.68502,-0.45263 2.57381,-0.48129 1.6601,-0.0627 3.26972,0.33099 4.83997,0.82534 2.14683,0.68967 4.118,1.77016 5.91902,3.11289 1.39891,1.18182 2.91447,2.77642 2.85089,4.76619 -0.0167,0.52454 -0.19437,1.03146 -0.29155,1.5472 -1.44968,2.62509 -4.13099,3.00082 -6.87231,2.8957 -1.88775,-0.0705 -3.68514,-0.60231 -5.45468,-1.21048 -1.69479,-0.69545 -1.8148,0.68995 2.86478,-4.47223 0.13292,-0.14665 0.29998,0.2583 0.45164,0.3855 0.40899,0.34308 0.82238,0.68091 1.23315,1.02186 1.80789,1.41563 3.29062,3.11598 4.53445,5.03476 1.35604,2.43596 1.88323,4.31642 1.02346,7.01767 -2.18749,3.05685 -4.81102,2.31438 -7.42886,0.42893 0.009,-0.0776 -1.46638,-1.2162 -1.44971,-1.20717 1.871,1.01333 2.88229,0.42687 3.87943,-1.22086 0.11681,1.89675 -0.14677,3.76901 -0.61553,5.60047 -0.85315,2.49566 -2.70727,4.51513 -5.49645,4.65657 -0.56785,0.0288 -1.13234,-0.10471 -1.69852,-0.15706 -3.12375,-0.83906 -5.35369,-3.10262 -7.34737,-5.52082 -1.7847,-2.37298 0.19772,0.28662 -1.29043,-1.77326 -0.18468,-0.25564 -0.81108,-0.96606 -0.60394,-0.72827 0.81074,0.93065 0.57867,0.39752 2.69843,0.64766 0.4508,-0.40389 0.90162,-0.80779 1.35245,-1.21169 0.0254,-0.0474 0.0653,-0.19472 0.0757,-0.14208 0.17973,0.90217 -0.0183,2.09135 -0.004,3.01286 0.10792,2.23868 0.0939,4.09266 -0.97163,6.1048 -0.45996,0.36336 -0.83212,0.88144 -1.37989,1.09009 -2.77786,1.05812 -4.62409,-1.24833 -5.96728,-3.23957 -1.3531,-2.11013 -2.23438,-4.45168 -2.96108,-6.83614 -0.66852,-2.25244 -0.87529,-4.60264 -1.13131,-6.92824 -0.22912,-2.41125 -1.02269,-4.61558 -2.24932,-6.68548 -1.65553,-2.66467 -4.44728,-4.19345 -6.6221,-6.35137 -1.87854,-1.6871 -3.46983,-2.96211 -5.86219,-3.80643 0,0 0.0325,-0.1547 0.0325,-0.1547 v 0 c 2.56384,0.19682 5.12924,-0.23735 7.68395,0.26105 0.71678,0.15467 1.46085,0.21446 2.15035,0.46403 3.23808,1.17204 5.68936,4.04253 7.59658,6.76182 1.52596,2.77386 2.65235,5.69242 2.90867,8.87985 0.22934,2.01573 0.36621,4.04687 0.83577,6.02699 0.49218,1.86261 1.15432,3.67955 2.14387,5.34117 1.61686,2.45116 0.11236,-0.12025 -1.69342,2.14601 -0.32152,1.34574 0.4495,-2.65858 0.10581,-2.97617 -0.0236,-1.11227 -0.34002,-4.09461 0.22098,-5.01273 0.41823,-0.68449 1.06066,-1.20364 1.59102,-1.80546 0.89958,0.0423 1.82065,-0.0731 2.69875,0.12679 1.04296,0.23747 2.13847,2.63213 2.8485,3.36935 1.1108,1.39259 2.31521,2.7695 3.95171,3.55406 0.67419,0.42135 0.64545,0.40267 1.1017,-0.53795 0.49766,-1.68876 0.39764,-3.40897 0.44919,-5.15162 0.23852,-0.58659 0.21828,-1.3677 0.71551,-1.75978 2.41067,-1.90083 3.90736,-0.89821 5.59908,0.72411 1.34438,1.07113 -0.40857,0.14815 -1.00002,1.80763 0.006,1.02372 0.0161,-1.5441 -0.56496,-1.85058 -0.88315,-1.44575 -2.08881,-2.62846 -3.40447,-3.68777 -0.15666,-0.12757 -1.95832,-1.4287 -1.91649,-1.57366 1.73766,-6.02286 0.62519,-5.78878 2.95461,-4.93881 1.13572,0.51684 2.3614,0.82566 3.59933,0.96839 0.44355,0.0117 0.82976,0.0316 1.2713,0.007 0.18164,-0.01 0.55526,-0.2136 0.5448,-0.032 -0.0175,0.30628 -0.70524,0.39432 -0.39182,0.83278 0.0233,1.61772 0.5125,0.84669 -0.616,-0.0273 -1.28426,-0.93923 -2.70309,-1.67207 -4.22201,-2.15492 -0.98015,-0.26852 -1.97252,-0.52772 -2.99879,-0.48653 -1.27439,0.0603 0.62939,-0.28026 -0.41965,-0.007 -1.75845,0.56966 -3.44519,-0.11486 -4.20764,-1.65337 -0.54407,-0.98833 -1.15528,-1.93895 -1.77422,-2.88171 -0.74189,-1.15978 -1.48066,-2.32452 -2.32923,-3.41068 -1.12017,-1.38044 -2.3775,-2.62999 -3.76164,-3.74872 -2.3999,-1.90768 -4.9272,-3.63606 -7.5429,-5.2356 -2.91396,-1.7937 -5.81551,-3.6237 -8.56207,-5.66743 0,0 3.1038,-4.11241 3.1038,-4.11241 z"
       inkscape:connector-curvature="0" />
    <path
       style="opacity:1;fill:#000000;fill-opacity:1;stroke:none;stroke-width:0.2;stroke-linejoin:miter;stroke-miterlimit:4;stroke-dasharray:none;stroke-opacity:1"
       id="path4560"
       d="m 417.88971,174.14317 c -0.18264,4.44403 0.0907,8.88144 0.53377,13.30117 0.5156,5.04045 1.64478,9.98498 2.74011,14.92266 0.79592,3.01204 1.36808,5.48597 -0.33092,8.25445 -0.68519,0.5549 -0.39947,0.32794 -0.85336,0.68562 0,0 -0.1179,-0.10532 -0.1179,-0.10532 v 0 c 0.1016,-0.31907 0.0799,-0.10602 -0.47217,-0.43565 -2.50241,-1.93294 -3.04948,-4.10628 -3.70324,-7.13203 -1.24119,-5.15979 -2.24552,-10.37702 -2.80726,-15.6584 -0.42876,-4.67716 -0.6767,-9.36959 -0.37076,-14.0649 0,0 5.38173,0.2324 5.38173,0.2324 z"
       inkscape:connector-curvature="0" />
    <path
       style="opacity:1;fill:#000000;fill-opacity:1;stroke:none;stroke-width:0.2;stroke-linejoin:miter;stroke-miterlimit:4;stroke-dasharray:none;stroke-opacity:1"
       id="path4562"
       d="m 417.32803,199.59519 c -3.32055,1.20463 -6.7531,2.043 -10.19816,2.79992 -3.38283,0.73023 -6.80415,1.23394 -10.24577,1.5785 -1.89791,-0.0886 -4.24389,0.84611 -6.07931,0.0207 -0.28289,-0.12722 -0.50839,-0.35546 -0.76258,-0.53319 -0.82987,-0.33957 -0.95247,-1.44978 -1.62473,-1.89046 0,0 0.0394,-0.1531 0.0394,-0.1531 v 0 c 0.66898,-0.11333 0.76322,-1.52179 1.504,-1.7533 1.77311,-1.44572 4.23439,-0.93893 6.38381,-1.23647 3.24033,-0.30527 6.47057,-0.72555 9.65756,-1.39738 3.20797,-0.64217 6.41673,-1.33319 9.51884,-2.38734 0,0 1.80697,4.95216 1.80697,4.95216 z"
       inkscape:connector-curvature="0" />
    <path
       style="opacity:1;fill:#000000;fill-opacity:1;stroke:none;stroke-width:0.2;stroke-linejoin:miter;stroke-miterlimit:4;stroke-dasharray:none;stroke-opacity:1"
       id="path4564"
       d="m 385.47084,201.44337 c -0.032,-2.82481 -0.0801,-5.64849 -0.074,-8.47341 0.18754,-0.96801 -0.29358,-3.3699 0.49133,-4.11146 0.15955,-0.15074 0.38174,-0.2168 0.57261,-0.32521 0.56412,-0.27434 1.12438,-0.32936 1.73755,-0.32515 0,0 0.45302,-0.0532 0.45302,-0.0532 v 0 c 0.58269,0.16668 1.1738,0.31543 1.70116,0.62718 0.17603,0.12378 0.38582,0.20988 0.52809,0.37133 0.81269,0.92231 -0.0969,2.86267 0.14668,3.92531 -0.10406,2.77375 -0.10279,5.5502 -0.0943,8.32563 0,0 -5.46212,0.039 -5.46212,0.039 z"
       inkscape:connector-curvature="0" />
    <path
       style="opacity:1;fill:#000000;fill-opacity:1;stroke:none;stroke-width:0.2;stroke-linejoin:miter;stroke-miterlimit:4;stroke-dasharray:none;stroke-opacity:1"
       id="path4566"
       d="m 392.62322,188.56604 c -2.6303,2.44186 -5.82015,3.9108 -9.21025,4.94919 -2.9142,0.79089 -5.90619,0.80019 -8.88942,0.56524 -1.73979,-0.18575 -3.49268,-0.45372 -4.99303,-1.3952 -0.74689,-1.06433 -0.55446,-2.28522 0.22349,-3.25658 0,0 0.13928,-0.0748 0.13928,-0.0748 v 0 c 0.81566,-0.31429 1.4895,-0.83649 2.05298,-1.50695 1.03534,0.0239 2.06412,0.69346 3.13082,0.61078 2.2829,0.2825 4.59859,0.27079 6.85686,-0.21354 2.62834,-0.64909 5.11789,-1.6949 7.16349,-3.51892 0,0 3.52578,3.84078 3.52578,3.84078 z"
       inkscape:connector-curvature="0" />
    <path
       style="opacity:1;fill:#000000;fill-opacity:1;stroke:none;stroke-width:0.2;stroke-linejoin:miter;stroke-miterlimit:4;stroke-dasharray:none;stroke-opacity:1"
       id="path4568"
       d="m 375.47184,189.84484 c -0.24471,3.2752 -0.0747,6.04783 -1.40295,9.12336 -0.16764,1.31283 -1.74133,2.02525 -1.9214,3.23323 0,0 -0.15735,-0.0154 -0.15735,-0.0154 v 0 c 0.055,-1.19222 -1.49752,-2.03925 -1.61737,-3.29224 -1.25013,-3.27904 -0.89493,-6.15012 -0.61058,-9.57777 0,0 5.70965,0.5288 5.70965,0.5288 z"
       inkscape:connector-curvature="0" />
    <path
       style="opacity:1;fill:#000000;fill-opacity:1;stroke:none;stroke-width:0.2;stroke-linejoin:miter;stroke-miterlimit:4;stroke-dasharray:none;stroke-opacity:1"
       id="path4570"
       d="m 371.1431,198.9939 c -3.678,0.23707 -7.35642,0.036 -11.01029,-0.39801 -2.43139,-0.48072 -5.14794,-0.55798 -7.39405,-1.73902 -0.78009,-0.41017 -1.66155,-1.25624 -2.32245,-1.8435 -0.69057,-0.59523 -1.01958,-1.4207 -1.60655,-2.09125 0,0 0.0613,-0.14572 0.0613,-0.14572 v 0 c 0.84797,-0.0638 1.55964,-0.4709 2.40298,-0.61117 0.54255,-0.0987 2.16802,-0.4136 2.67517,-0.42147 2.29907,-0.0357 4.55819,0.81795 6.84448,0.93227 3.3183,0.34426 6.65292,0.63832 9.99167,0.42701 0,0 0.35777,5.89086 0.35777,5.89086 z"
       inkscape:connector-curvature="0" />
    <path
       style="opacity:1;fill:#000000;fill-opacity:1;stroke:none;stroke-width:0.2;stroke-linejoin:miter;stroke-miterlimit:4;stroke-dasharray:none;stroke-opacity:1"
       id="path4572"
       d="m 346.21083,197.07917 c -0.61148,-4.66212 0.44239,-9.21533 1.77382,-13.651 1.81653,-5.20061 4.14856,-10.2062 6.66464,-15.10087 1.05831,-1.31262 2.07262,-2.6755 3.27465,-3.86474 0.99425,-0.98366 0.47379,-0.26132 0.98962,-1.05442 0,0 0.15809,-0.002 0.15809,-0.002 v 0 c 1.12212,2.25504 0.78832,4.67414 0.31429,7.07978 -1.95299,4.87541 -4.38742,9.55417 -6.05356,14.54348 -1.10937,3.71441 -1.94595,7.49567 -1.61282,11.40206 0,0 -5.50873,0.64745 -5.50873,0.64745 z"
       inkscape:connector-curvature="0" />
    <path
       style="opacity:1;fill:#000000;fill-opacity:1;stroke:none;stroke-width:0.2;stroke-linejoin:miter;stroke-miterlimit:4;stroke-dasharray:none;stroke-opacity:1"
       id="path4574"
       d="m 355.2558,193.85326 c -0.33404,5.36373 -0.88421,10.71111 -1.40332,16.05922 -0.76592,7.16324 -1.52334,14.32806 -2.41348,21.47711 -0.35467,2.55647 -1.16382,5.00853 -2.15196,7.38257 -0.46331,1.11311 -1.17327,2.10717 -1.51823,3.25358 0,0 -0.15711,0.0175 -0.15711,0.0175 v 0 c -1.75546,-3.49204 -2.25388,-7.37906 -2.08749,-11.27086 0.60659,-7.18514 1.50905,-14.33824 2.34672,-21.49924 0.62074,-5.31414 1.14986,-10.63792 1.74239,-15.95514 0,0 5.64248,0.53526 5.64248,0.53526 z"
       inkscape:connector-curvature="0" />
    <path
       style="opacity:1;fill:#000000;fill-opacity:1;stroke:none;stroke-width:0.2;stroke-linejoin:miter;stroke-miterlimit:4;stroke-dasharray:none;stroke-opacity:1"
       id="path4576"
       d="m 366.48654,201.04227 c -0.45013,4.92323 -1.32138,9.79665 -2.07222,14.68006 -1.30685,7.40381 -1.58911,14.965 -3.24926,22.299 -0.95713,3.56385 -1.90029,7.1296 -3.54098,10.44207 0,0 -0.15753,-0.0133 -0.15753,-0.0133 v 0 c -1.06714,-3.56421 -1.37991,-7.26139 -1.62827,-10.96744 -0.0241,-1.21551 -0.11787,-2.43164 -0.0722,-3.64652 0.24098,-6.40738 1.61385,-12.75476 2.38715,-19.10296 0.76065,-4.69039 1.64391,-9.36311 2.28627,-14.07095 0,0 6.04702,0.38003 6.04702,0.38003 z"
       inkscape:connector-curvature="0" />
    <path
       style="opacity:1;fill:#000000;fill-opacity:1;stroke:none;stroke-width:0.2;stroke-linejoin:miter;stroke-miterlimit:4;stroke-dasharray:none;stroke-opacity:1"
       id="path4578"
       d="m 346.67766,244.38498 c -3.11856,0.1419 -6.21043,0.59606 -9.27713,1.15938 -2.3412,0.47386 -4.60114,1.22169 -6.67147,2.41796 -0.94835,0.30015 -1.41121,1.85007 -0.97634,0.92005 0.11099,-1.15914 -0.38354,-1.03314 0.94184,-0.7193 1.84925,0.36031 3.74808,0.32038 5.62311,0.28603 2.59651,-0.10448 5.19268,-0.19544 7.791,-0.23883 2.7583,0.01 5.51127,0.19331 8.26804,0.26247 1.2845,0.26596 2.67224,-0.48529 3.9439,-0.24409 0.58516,0.11098 1.113,0.42551 1.6781,0.61368 0.80044,0.27297 1.62277,0.39929 2.45964,0.47971 0,0 0.0895,0.13031 0.0895,0.13031 v 0 c -0.28146,0.92324 -0.4976,1.86809 -1.03743,2.68784 -0.4223,0.55094 -1.14448,1.58336 -1.7336,1.96561 -1.56287,1.01408 -3.74677,0.75759 -5.49601,0.88821 -2.71335,-0.0149 -5.4202,-0.22609 -8.13411,-0.22953 -2.57077,-0.0155 -5.13672,0.12679 -7.70522,0.21851 -2.56596,0.05 -5.15861,0.0288 -7.65207,-0.66234 -2.78111,-0.94327 -5.08934,-2.47659 -5.35755,-5.66311 0.37108,-3.06982 1.68807,-4.54093 4.2675,-6.14522 2.71266,-1.46987 5.6275,-2.46516 8.6842,-2.93881 3.33232,-0.52822 6.6906,-0.78794 10.06269,-0.88983 0,0 0.2314,5.7013 0.2314,5.7013 z"
       inkscape:connector-curvature="0" />
    <path
       style="opacity:1;fill:#000000;fill-opacity:1;stroke:none;stroke-width:0.2;stroke-linejoin:miter;stroke-miterlimit:4;stroke-dasharray:none;stroke-opacity:1"
       id="path4580"
       d="m 400.45827,200.10667 c 0.55502,6.02484 1.10676,12.0497 1.72054,18.06893 0.64312,6.96027 1.7272,13.88164 2.02469,20.86953 -0.18319,1.76858 -0.25548,3.58467 -0.76615,5.3025 -0.36288,1.22065 -0.3188,0.42234 -0.32888,1.08204 0,0 -0.1121,0.11145 -0.1121,0.11145 v 0 c -2.30217,-0.92982 -2.98918,-3.76963 -3.8867,-5.81877 -1.54086,-6.89828 -1.96946,-13.97218 -2.72214,-20.98687 -0.55857,-6.10882 -1.15113,-12.22495 -1.26728,-18.36191 0,0 5.33802,-0.2669 5.33802,-0.2669 z"
       inkscape:connector-curvature="0" />
    <path
       style="opacity:1;fill:#000000;fill-opacity:1;stroke:none;stroke-width:0.2;stroke-linejoin:miter;stroke-miterlimit:4;stroke-dasharray:none;stroke-opacity:1"
       id="path4582"
       d="m 409.99772,200.36122 c 1.4016,5.68191 2.44888,11.44424 3.54306,17.19116 0.72065,4.75996 2.18853,9.41751 2.74442,14.20483 0.13875,1.19502 0.20955,4.56736 0.24574,5.85671 0.0885,1.86877 -0.0989,3.72921 -0.2227,5.59055 0,0 -0.15322,0.0389 -0.15322,0.0389 v 0 c -1.00049,-1.58639 -2.05158,-3.14571 -2.84204,-4.85375 -0.67705,-1.42913 -1.92853,-3.9802 -2.42502,-5.42877 -1.58461,-4.62349 -2.07168,-9.56863 -3.14809,-14.31303 -1.05587,-5.6382 -2.04473,-11.29143 -3.28861,-16.89227 0,0 5.54646,-1.3943 5.54646,-1.3943 z"
       inkscape:connector-curvature="0" />
    <path
       style="opacity:1;fill:#000000;fill-opacity:1;stroke:none;stroke-width:0.2;stroke-linejoin:miter;stroke-miterlimit:4;stroke-dasharray:none;stroke-opacity:1"
       id="path4584"
       d="m 413.28469,241.96535 c 2.91444,-1.98764 6.13683,-3.39253 9.49386,-4.43005 3.00215,-0.8791 6.0933,-1.26636 9.168,-0.62305 3.20156,0.97216 4.54842,4.14483 2.65975,7.0465 -0.30131,0.46291 -0.73581,0.82394 -1.10371,1.23592 -2.99424,2.63202 -6.69978,4.2236 -10.38873,5.61941 -4.41963,1.64199 -9.01126,2.18848 -13.68693,1.83018 -0.70551,-0.1327 -1.43716,-0.16618 -2.11656,-0.3981 -2.62339,-0.89554 -4.95517,-3.04963 -6.90411,-4.94325 0,0 0.0526,-0.14908 0.0526,-0.14908 v 0 c 2.00702,-0.208 4.01571,-0.40054 6.02202,-0.61475 0.57261,-0.0611 1.14088,-0.1893 1.71672,-0.19347 0.55476,-0.004 1.10379,0.11274 1.65569,0.16911 3.7756,0.22752 7.49723,-0.16273 11.06807,-1.49306 2.83369,-1.07305 5.67762,-2.24127 8.08652,-4.12209 0.0958,-0.0733 0.18269,-0.27972 0.28736,-0.21981 0.16571,0.0949 -0.0807,2.16659 1.27685,2.29175 0.046,0.004 -0.0395,-0.0836 -0.0592,-0.12536 -1.94365,-0.65929 -4.08059,-0.0576 -6.01546,0.33302 -2.80821,0.83957 -5.52317,1.93201 -7.96081,3.59012 0,0 -3.25186,-4.80394 -3.25186,-4.80394 z"
       inkscape:connector-curvature="0" />
    <path
       style="opacity:1;fill:#00ff00;fill-opacity:1;stroke:none;stroke-width:0.2;stroke-linejoin:miter;stroke-miterlimit:4;stroke-dasharray:none;stroke-opacity:1"
       id="path4586"
       d="m 410.18182,179.58258 c -0.10655,2.27039 -0.16717,4.54298 -0.16936,6.81587 0.0609,1.97893 0.49696,1.1395 -5.21277,-0.6011 -0.17865,-0.0545 0.0824,-0.36458 0.11276,-0.54887 0.0214,-0.12969 0.19371,-1.4808 0.2018,-1.5438 0.21159,-1.52653 0.17608,-3.07955 0.49975,-4.58787 1.79252,0.29659 3.65146,0.32265 5.37757,0.88979 0.0703,0.0231 0.14402,4.75581 0.14494,5.18179 -0.0475,1.83207 0.15571,3.67317 -0.13483,5.48962 -1.85116,-0.19975 -3.75549,-0.11558 -5.55347,-0.59924 -0.30395,-0.0818 -0.1062,-0.62075 -0.14354,-0.93327 -0.17362,-1.45326 -0.20992,-2.92298 -0.28358,-4.3833 -0.0577,-1.77789 -0.092,-3.55993 -0.27617,-5.33038 -0.26218,-0.65067 0.30036,1.28347 1.31247,1.5553 0.92961,-0.12219 1.8592,-0.24439 2.78878,-0.36658 0.12174,-0.10522 0.2059,-0.29287 0.36518,-0.31567 0.0957,-0.0137 -0.0589,0.18404 -0.0884,0.27606 -0.57772,2.08506 -0.97692,4.21458 -1.40346,6.33426 -0.41222,1.89916 -0.67212,3.83442 -1.28955,5.68188 -1.28013,2.62484 -3.07404,2.49528 -5.49656,0.84584 -0.70601,-0.4807 -0.76473,-2.49077 -0.86752,-3.25036 -0.25812,-2.62261 -0.42431,-5.25287 -0.5757,-7.88345 -0.0665,-0.73396 -0.0876,-1.2415 -0.22567,-1.9381 -0.0185,-0.0934 -0.12403,-0.35969 -0.0872,-0.27192 0.80256,1.91225 1.23204,4.22592 5.29402,0.6256 -0.29733,2.57781 -0.43648,5.17171 -0.63306,7.75876 -0.21045,2.41965 -0.39378,4.86203 -1.17237,7.17584 -1.34139,2.62302 -3.07377,2.74381 -5.49762,1.00309 -0.86117,-0.61844 -0.99317,-2.61862 -1.15226,-3.55773 -0.3792,-2.73307 -0.47509,-5.49273 -0.57396,-8.24668 -0.065,-1.0809 -0.0106,-2.16447 -0.0849,-3.24491 -0.14661,-2.13416 -2.39408,-1.18896 4.90355,0.91243 0.0866,-0.11715 0.14126,-0.43618 0.25977,-0.35145 0.041,0.0293 -0.52263,3.68105 -0.66702,4.94811 -0.29056,2.05487 -0.32977,4.14681 -0.7384,6.18361 -1.48518,2.78072 -0.69559,2.39008 -5.88369,-0.82925 -0.0731,-0.0454 -0.0916,-4.30657 -0.088,-4.7247 -0.0468,-2.25273 0.1107,-4.51765 -0.062,-6.76638 -0.13427,-0.76808 -0.56202,-0.13733 5.01891,0.87523 0.0989,0.0179 -0.11507,0.98125 -0.23384,1.92247 -0.35859,2.8335 -0.47466,5.68897 -0.68368,8.53532 -0.29287,3.37829 -1.20147,6.13766 -5.70968,4.10345 -0.54827,-0.24739 -0.63339,-1.02278 -0.9501,-1.53417 -0.78028,-2.59607 -0.97244,-5.33375 -1.22094,-8.0226 -0.23045,-1.84996 -0.22125,-3.78808 -1.01082,-5.51182 -1.97225,-2.97285 -1.62147,-1.78148 2.22441,-5.47578 1.33689,0.17998 2.66597,0.41129 4.00944,0.53947 -0.74506,0.19311 0.76941,-0.0215 0.57703,-0.0174 -2.37434,0.0497 -2.70084,2.93551 -1.57985,4.46413 -1.77401,-0.54832 -3.63233,-0.65477 -5.47717,-0.75079 -3.25977,-0.10803 -6.49422,0.33736 -9.69449,0.90551 -2.08145,0.48731 -4.25685,0.86908 -6.13685,1.93876 0.7257,-0.45888 1.17872,-0.88919 0.98343,-2.53877 -0.0624,-0.52768 -0.53224,-0.92 -0.81169,-1.37194 -0.0375,-0.0607 -0.20751,-0.1479 -0.13793,-0.16391 0.16407,-0.0377 0.33235,0.054 0.4985,0.081 2.50534,0.40193 5.05582,0.1718 7.56481,-0.0706 2.48746,-0.18635 4.94755,-0.70093 7.4431,-0.76613 3.42524,0.15769 3.16331,1.46399 1.96922,5.85528 -0.12452,0.45791 -3.28552,1.10053 -3.75994,1.1964 -2.79414,0.43936 -5.60531,0.74696 -8.40121,1.17605 -0.32668,-0.27429 -5.09786,1.37584 -3.23086,0.63967 0.0935,-1.57248 0.39778,-3.14655 0.28049,-4.71743 -0.0196,-0.26141 -0.45289,-0.26595 -0.66413,-0.42118 -0.14883,-0.10937 0.366,-0.0506 0.5498,-0.0686 0.5678,-0.0556 1.11334,-0.1351 1.68016,-0.21131 2.23922,-0.30742 4.48371,-0.558 6.74052,-0.68804 -0.0214,0.0173 1.58547,-0.15964 1.53435,-0.13377 -1.73329,0.87745 -4.18452,1.58721 -1.4401,4.90243 -2.1739,-1.06289 -4.50112,-1.77678 -6.81863,-2.45186 -2.32968,-0.7007 -4.75919,-0.91529 -7.132,-1.404 -3.41054,-0.76084 -4.25554,-3.91424 -1.8137,-6.35367 2.24526,-1.83142 2.98567,-2.06346 5.97673,1.17491 0.35028,0.37924 -0.11605,1.02598 -0.1741,1.53897 -0.64563,1.65858 -1.54757,3.20373 -2.36042,4.78462 -0.44892,1.16193 -1.40701,2.21113 -1.65209,3.4515 1.03399,-2.49356 -2.60204,-2.63575 -4.07704,-3.10238 -0.22059,-0.0698 -0.43805,0.4961 -0.0918,-0.21499 0.41243,-0.98574 0.68204,-2.01257 0.89762,-3.05537 0.0344,-0.12263 -0.023,-0.3849 0.10314,-0.3679 5.711,0.76923 5.72902,-0.72131 5.70955,2.04574 -0.007,0.93514 -0.0749,1.86516 -0.13947,2.79755 -0.0204,0.33565 -0.24728,3.87072 -0.55649,3.85658 -1.90424,-0.087 -3.74087,-0.7353 -5.61129,-1.10296 -0.16332,-1.10657 -0.0459,-2.27907 -0.46691,-3.33373 0.1319,0.9429 1.53252,1.21455 2.53992,1.15283 -0.87241,0.95634 -1.65764,1.98885 -2.43221,3.02475 -1.23637,1.5903 -2.83175,3.29849 -5.19948,2.10036 -0.74642,-0.3777 -1.02849,-1.31964 -1.54271,-1.97945 -0.32308,-2.10945 0.21238,-4.233 0.68027,-6.28597 0.17394,-0.90452 0.39558,-1.7991 0.53274,-2.71052 0.0175,-0.11614 0.0489,-0.4672 0.0392,-0.35016 -0.0188,0.22485 -0.2662,0.5693 -0.0662,0.67363 1.53977,0.80302 3.25065,1.22319 4.87598,1.83479 -0.89244,1.51406 -1.77816,3.0316 -2.70827,4.52371 -0.85432,1.42688 -1.89278,2.73669 -2.70796,4.18671 0.60687,-1.45602 0.279,-1.10607 -2.92177,-3.94852 -0.13978,-0.12412 -0.3628,0.10538 -0.54962,0.11145 -0.0188,5.3e-4 0.42842,-0.43133 0.45932,-0.46173 1.13551,-1.11336 1.99136,-2.45472 2.71661,-3.85979 -0.0458,1.30154 0.24318,-0.78235 0.17338,-0.58972 -0.56703,1.56455 0.7901,2.7956 2.19128,3.08734 -1.21431,0.57052 -2.38646,1.22853 -3.48652,2.00173 -1.64947,1.29151 -0.38844,1.0474 -0.41796,-0.16914 -0.0109,-0.44267 -0.20709,-0.86105 -0.31065,-1.29158 -1.49339,-1.56589 -1.22775,-0.74545 0.66836,-1.81941 1.53488,-1.01822 2.69661,-2.42718 3.59707,-4.01461 0.4899,-1.22715 -0.24628,-0.275 0.22682,0.67287 0.55322,1.10842 0.85072,1.04162 1.83079,1.41419 0.9911,-0.078 0.022,0.77179 -0.21368,1.24904 -0.23781,0.70519 -0.54039,1.60754 -0.0793,2.28308 0.22971,0.16461 0.37388,0.0736 0.54864,-0.0887 -0.11972,-0.21367 -0.0271,-0.4205 -0.0227,-0.65483 -0.16285,-0.55871 -0.17373,0.18722 0.15107,0.47896 0.21328,0.19156 0.48657,0.3033 0.72986,0.45495 2.36214,0.33804 2.05692,-1.2429 1.9949,0.8513 -0.34867,0.81197 0.81193,1.97229 0.82415,2.60477 0.003,0.18191 -0.11186,0.34626 -0.1678,0.51939 -0.27966,0.75545 -0.51993,1.3777 0.35,1.7188 0,0 0.0814,0.13551 0.0814,0.13551 v 0 c -0.81846,1.4934 -2.00134,1.85769 -3.66967,1.50024 -0.41886,-0.17721 -0.89492,-0.25584 -1.25656,-0.53163 -1.69574,-1.2932 -2.08311,-4.44802 -2.14982,-6.38546 0.21366,-2.35182 0.81815,-5.28353 3.46327,-6.09934 0.61685,-0.19025 1.2873,-0.098 1.93098,-0.14705 0.51956,0.218 1.08707,0.34568 1.55869,0.65399 1.92656,1.25951 2.19898,3.77285 1.88198,5.82781 -0.86974,2.73078 -2.53037,4.73728 -5.52429,5.13349 -2.86176,-0.0644 -5.20615,-1.21135 -6.40006,-3.94791 -0.77025,-2.47109 -0.6877,-4.87679 0.54954,-7.20295 1.27034,-2.18866 2.9604,-3.97254 5.61335,-4.22895 0.5824,0.13014 1.22494,0.1017 1.7472,0.39043 2.49923,1.3817 2.18818,4.16192 1.05857,6.27728 -1.41142,2.47351 -3.26766,4.63143 -5.64451,6.23376 -2.01679,1.21635 -4.80944,2.6291 -7.19275,1.42456 -0.58362,-0.29497 -1.03299,-0.80214 -1.54948,-1.2032 -0.25845,-0.65466 -0.67149,-1.26784 -0.77539,-1.96396 -0.33817,-2.26571 1.61933,-3.94697 3.2453,-5.07987 1.84827,-1.17604 3.76679,-2.32063 5.91098,-2.8571 0.51305,-0.0157 1.0464,-0.19094 1.53916,-0.0472 3.01553,0.87951 3.39415,3.58727 2.14309,6.01378 -0.99716,1.99865 -2.21011,3.88533 -3.74459,5.51927 -0.45725,0.43816 -2.31328,2.41127 -3.06721,2.01762 -3.74253,-1.95413 -4.49662,-2.48217 -3.17963,-5.04638 0.89506,-1.45009 1.95546,-2.79069 2.86438,-4.23236 1.04457,-1.67175 2.00009,-3.3975 3.08319,-5.04501 1.83957,0.33973 3.7655,0.36672 5.51865,1.01921 0.26181,0.0974 -0.64296,3.9019 -0.71464,4.26245 -0.14925,0.9149 -0.31726,1.82649 -0.44005,2.74544 -0.0279,0.2091 -0.0567,0.4182 -0.0773,0.62815 -0.0103,0.10579 0.0767,0.3712 -0.0156,0.31851 -0.11806,-0.0674 -0.0753,-0.26126 -0.1129,-0.39189 -0.45469,-0.48264 -0.74578,-1.20829 -1.36404,-1.44791 -2.52322,-0.97793 -3.82793,1.6318 -2.14971,-0.42654 1.15308,-1.40242 2.18445,-2.92519 3.56674,-4.11951 2.73262,-1.72455 5.3167,-1.25458 6.49462,1.9329 0.33925,1.30776 0.55735,2.63523 0.66988,3.98216 -1.82441,-0.10429 -3.6481,-0.40345 -5.47325,-0.31285 -0.2049,0.0102 -0.1074,0.39602 -0.16553,0.59275 -0.0214,0.0728 0.0431,-0.14607 0.0557,-0.22097 0.12276,-0.72892 0.14025,-1.47033 0.21106,-2.20474 0.2759,-4.19134 -0.92941,-2.93806 5.7038,-2.62742 -0.44241,1.35194 -0.67045,2.77232 -1.2641,4.07445 -0.24384,0.51682 -1.15604,2.68912 -1.8861,2.65979 -3.94727,-0.15856 -5.43767,-0.38478 -4.76052,-3.63348 0.54504,-1.53477 1.34911,-2.95195 2.1046,-4.39096 0.66162,-1.19407 1.29799,-2.40952 1.98194,-3.58675 0.0816,2.20083 -0.19642,1.03315 3.88131,2.85958 0.14465,0.0648 0.57187,-0.49813 -0.13124,0.15698 0.61889,-1.38808 0.37206,-3.14744 -1.30497,-3.64764 -0.0934,-0.0279 0.17975,0.0755 0.26961,0.11328 2.53039,0.50586 5.08751,0.89367 7.56809,1.62668 2.72581,0.7921 5.43978,1.65045 8.03722,2.8056 5.07013,3.2599 1.13048,6.40588 -2.51241,6.26681 -2.1119,0.16612 -4.22153,0.37288 -6.3106,0.73438 -0.94215,0.13552 -5.62724,0.83086 -6.00901,-0.36246 -0.5195,-1.62389 -0.16523,-3.40594 -0.24786,-5.10891 1.83828,-1.00721 3.87419,-1.25949 5.93217,-1.55838 2.69399,-0.39596 5.40862,-0.64631 8.09197,-1.11508 3.25651,-0.68045 0.63042,-0.50984 2.18583,4.37473 0.0971,0.30493 1.39133,0.50516 0.93511,0.2174 -2.35923,0.0489 -4.68267,0.47982 -7.02659,0.7186 -3.07287,0.29427 -6.16979,0.55658 -9.24949,0.18455 -0.75475,-0.15266 -2.07465,-0.33513 -2.68674,-0.84453 -2.59731,-2.16165 -2.11497,-4.85203 0.58656,-6.41572 2.47166,-1.17463 5.17424,-1.71688 7.85061,-2.21947 3.61907,-0.62106 7.27866,-1.05244 10.95838,-0.95572 2.89967,0.138 5.92103,0.32265 8.53178,1.71337 0.39888,0.37805 1.01909,0.61404 1.19668,1.13413 1.29157,3.78266 -1.02121,5.09013 -4.1081,4.89318 -1.26667,-0.13214 -2.52323,-0.32172 -3.78074,-0.52033 0.88191,-1.11286 2.05856,-2.04573 2.6457,-3.33858 0.18844,-0.41492 -0.39052,-0.82396 -0.56393,-1.24538 -0.0266,-0.0647 0.0814,0.11385 0.12181,0.17096 0.44561,0.62957 0.86172,1.2765 1.16213,1.99142 0.86207,2.261 1.19475,4.64808 1.38809,7.05299 0.24069,2.09732 0.42973,4.21295 0.94355,6.26574 -1.06619,-1.07996 -1.11453,-1.35834 -3.71684,-0.65467 -1.26034,0.34079 -1.04436,2.16665 -0.8224,0.88926 0.0534,-0.30761 0.0804,-0.61925 0.12052,-0.92887 0.26,-2.94133 0.37827,-5.89471 0.71135,-8.82989 0.0573,-0.41592 0.31197,-3.76139 0.84323,-3.87998 5.07257,-1.13228 5.51569,-1.36587 5.75897,1.62139 0.0156,2.31411 0.0367,4.62814 0.0455,6.94238 0.0191,0.79443 0.0246,1.58927 0.0563,2.38329 0.0434,1.09263 0.13274,1.5764 0.10345,1.5749 -5.72161,-0.29442 -4.16748,-2.59225 -5.5299,0.27088 0.65559,-1.69344 0.31774,-3.70723 0.73573,-5.45383 0.27369,-2.48126 0.34499,-5.07708 1.40399,-7.37227 1.78207,0.33032 3.61455,0.45596 5.34619,0.99097 0.21813,0.0674 0.055,0.4536 0.0673,0.68156 0.07,1.29176 -0.0538,2.59307 0.0454,3.8852 0.0774,2.4947 0.20973,4.99361 0.59589,7.46231 0.0441,0.24683 0.0827,0.49471 0.13242,0.74048 0.0238,0.11788 0.20739,0.36527 0.0881,0.3499 -0.16457,-0.0212 -0.16787,-0.31755 -0.32162,-0.37999 -1.44246,-0.58579 -3.58672,-1.47505 -4.26241,0.79793 0.84952,-1.67931 0.57734,-3.79484 0.92498,-5.58929 0.2127,-2.76774 0.34404,-5.5416 0.60193,-8.30542 0.62079,-2.56474 0.21341,-2.61453 5.29195,-2.16043 0.97857,0.0875 0.83984,3.81371 0.92732,4.35463 0.18912,2.48449 0.36181,4.974 0.70106,7.44328 0.0373,0.24225 0.07,0.48526 0.112,0.72676 0.0188,0.10857 0.16994,0.37046 0.0705,0.32302 -0.15402,-0.0735 -0.12716,-0.36016 -0.28486,-0.42527 -1.54267,-0.63699 -3.79764,-1.84322 -4.57901,0.62821 0.67183,-1.5109 0.72287,-3.25817 1.17089,-4.83435 0.48802,-2.41384 0.89051,-4.85708 1.6492,-7.20486 0.20696,-0.52785 0.6313,-1.84316 1.18282,-2.09853 3.10412,-1.43726 4.79774,-0.68169 5.17165,2.4445 0.14349,1.84306 0.1624,3.69146 0.26898,5.53657 0.0543,1.02093 0.11274,2.04378 0.22643,3.06032 0.0932,0.83304 0.20484,1.21761 0.17817,1.22193 -1.75377,0.28367 -3.54412,0.25302 -5.31617,0.37953 -0.005,0.12478 -0.13673,0.3544 -0.0135,0.37433 0.0259,0.004 0.0514,-0.32468 0.0742,-1.09516 0.0316,-1.06946 0.0265,-2.1391 0.0236,-3.20889 -0.007,-1.04971 -0.014,-2.09982 -0.0325,-3.1494 -0.005,-0.25078 -0.009,-0.50162 -0.0204,-0.75219 -0.006,-0.14364 -0.17611,-0.41785 -0.0329,-0.4301 1.7377,-0.14855 3.48808,-0.01 5.23211,-0.0144 0.0103,-0.11516 0.14663,-0.34164 0.0311,-0.34549 -0.0782,-0.003 -0.33197,3.45219 -0.3501,3.75743 -0.0214,0.2439 -0.15676,2.82872 -0.36507,2.87221 -5.35911,1.11908 -5.66555,1.82668 -5.58774,-0.93651 0.15008,-2.27329 0.28004,-4.54863 0.35407,-6.82574 0,0 5.30609,0.19473 5.30609,0.19473 z"
       inkscape:connector-curvature="0" />
    <path
       style="opacity:1;fill:#ff00ff;fill-opacity:1;stroke:none;stroke-width:0.2;stroke-linejoin:miter;stroke-miterlimit:4;stroke-dasharray:none;stroke-opacity:1"
       id="path4588"
       d="m 445.48546,123.98293 c -1.02436,2.41459 -1.99811,4.84959 -2.8943,7.31484 -0.24024,0.6961 -0.34425,0.97116 -0.54605,1.64455 -0.0655,0.21856 -0.19714,0.89099 -0.14174,0.66966 0.0464,-0.18514 0.24697,-0.4385 0.10258,-0.56329 -1.01288,-0.87538 -2.22543,-1.48871 -3.33814,-2.23307 0.87342,-1.19489 1.9549,-2.63442 2.8525,-3.94503 0.83979,-1.65794 2.42155,-3.19156 2.77566,-5.07014 -0.32818,1.0159 -0.57528,1.4226 1.01262,2.62964 0.5547,0.42167 2.46282,-0.32115 2.07444,0.25736 -0.27242,0.40574 -0.63992,0.73948 -0.93867,1.12625 -1.60739,2.2694 -2.75087,4.80072 -3.74938,7.38276 -0.46098,1.79892 -1.42221,3.60774 -1.44589,5.50087 0.19454,-2.03197 0.16473,-0.15407 -4.28599,-2.15892 -0.0479,-0.0216 0.22812,-0.55762 0.36986,-0.89485 0.41196,-0.98013 0.42011,-1.06767 0.78137,-2.12518 0.81365,-2.41374 1.47487,-4.87796 1.915,-7.38695 0.29395,-2.29776 -0.34036,-0.48315 0.6273,0.18396 1.58186,1.09052 1.77144,0.85393 2.92545,0.42735 -1.05313,1.62255 -1.79772,3.41879 -2.54596,5.19501 -0.87979,2.05558 -1.45902,4.26498 -2.78066,6.09238 -0.62815,0.32315 -1.18637,1.07775 -1.88442,0.96945 -3.99563,-0.61996 -3.28194,-3.96986 -2.99966,-6.74033 0.12954,-1.51151 0.40002,-3.01517 0.45501,-4.53327 0.0249,-0.68466 0.038,-0.67058 -0.0613,-0.39889 0.34004,0.51977 0.46529,1.2802 1.02018,1.55932 0.71736,0.36085 1.60097,0.13567 2.40353,0.16287 0.0751,0.003 0.23294,-0.14668 0.21296,-0.0742 -0.13547,0.4921 -1.12437,1.73491 -1.39705,2.184 -1.22931,2.04442 -2.28092,4.19148 -3.59786,6.18228 -1.9064,2.58525 -4.35729,2.67353 -5.86214,-0.64207 -0.24794,-0.54627 -0.0209,-2.09448 0.0378,-2.67188 0.44461,-2.72434 1.23092,-5.37349 1.93291,-8.0377 0.10399,-0.34555 0.21321,-0.68957 0.31195,-1.03665 0.0262,-0.0923 0.27379,-0.99419 0.30004,-1.23097 0.0536,-0.48366 -0.10526,1.11531 0.26035,1.43648 0.74784,0.65696 1.80713,0.8354 2.71068,1.2531 0.23283,-0.0902 0.45072,-0.23973 0.69847,-0.27048 0.0538,-0.007 -0.10755,0.10255 -0.55803,0.73059 -0.62958,0.87768 -1.16446,1.80941 -1.70244,2.74443 -1.23801,2.1445 -2.18582,4.43655 -3.41532,6.5844 -1.19991,1.72779 -2.50023,2.67899 -4.95821,1.18945 -1.53524,-0.93035 -0.95779,-3.43407 -0.77107,-4.78024 0.55771,-2.90821 1.4039,-5.74955 2.0665,-8.63367 0.0599,-0.35282 0.13409,-0.70351 0.1797,-1.05846 0.21487,-1.67179 -0.62664,0.21426 0.71745,0.97308 1.49084,0.84168 2.06499,0.64361 3.10451,0.34573 -1.44581,2.38448 -2.44776,5.00868 -3.44948,7.60197 -1.07222,2.16439 -1.29556,4.88576 -2.75055,6.8699 -0.28173,0.3842 -0.65122,0.69559 -0.97684,1.04338 -0.97465,0.12878 -1.98994,0.6931 -2.92397,0.38633 -3.13092,-1.02831 -2.27481,-6.10441 -2.09198,-8.40979 0.30671,-3.13036 1.05185,-6.18488 1.66203,-9.26164 0.17992,1.43898 0.14494,-1.46215 0.19238,-1.09471 0.0566,0.43819 -0.30456,1.14646 0.10107,1.32162 4.45109,1.92209 5.35316,-0.85085 4.16523,1.74038 -1.28188,2.95053 -2.37418,5.97833 -3.43,9.01552 -0.98748,2.62183 -1.49278,5.41978 -2.70325,7.95419 -0.40378,0.40079 -0.64286,1.22468 -1.21137,1.20237 -1.41295,-0.0555 -2.85782,-0.57608 -4.00201,-1.40697 -0.748,-0.5432 0.0625,-5.43827 0.18736,-6.28658 0.59182,-3.65882 1.18779,-7.3151 1.55834,-11.00423 0.0238,-0.43909 0.0531,-0.87793 0.0715,-1.31728 0.0132,-0.31448 0.0337,-0.62942 0.023,-0.94399 -0.005,-0.13405 -0.0828,-0.52984 -0.0687,-0.39646 0.25829,2.44848 2.86592,2.76357 4.56163,1.36741 -1.01738,3.12148 -1.44153,6.39822 -1.89159,9.63838 -0.60616,4.596 -0.93927,9.22165 -1.18895,13.84893 -0.0512,1.4651 -0.11616,2.9297 -0.14968,4.39538 -0.006,0.25919 -0.0116,0.51841 -0.0132,0.77766 0,0.1206 0.12679,0.37215 0.007,0.36173 -1.81637,-0.1575 -3.60413,-0.55329 -5.40618,-0.82993 0.30834,-3.20241 0.51234,-6.41392 0.72565,-9.62373 0.27175,-3.12778 0.30038,-6.2765 0.63174,-9.39906 1.79702,0.13807 3.66649,-0.10945 5.39104,0.4142 0.39347,0.11947 0.0305,0.82193 0.0341,1.23311 0.0225,2.60478 -0.0562,5.21403 -0.081,7.81869 -0.0781,4.88205 0.0478,9.76235 0.34764,14.63495 0.1923,1.40313 0.13147,2.87426 0.47709,4.25883 0.019,0.0766 0.18487,0.25568 0.13248,0.19653 -2.21779,-2.50465 -0.6609,-1.91031 -4.64759,-0.68768 0.60939,-3.14866 0.9997,-6.33355 1.45698,-9.50654 0.47905,-3.81472 0.94567,-7.63068 1.33551,-11.45561 0.36139,-2.77852 0.0172,-2.50546 5.48862,-0.31344 0.0698,0.028 -0.19277,2.83324 -0.28379,4.09536 -0.31824,4.72772 -0.62143,9.45743 -0.83214,14.19125 -0.24619,3.39187 -0.25321,6.80905 -0.70728,10.18335 -0.874,3.67884 -2.73053,2.97209 -5.52736,0.84723 -0.27816,-0.21133 -0.60082,-3.48305 -0.64934,-3.88042 -0.52562,-4.65981 -1.18452,-9.30238 -1.80848,-13.94949 -0.71144,-4.59451 -1.24815,-9.23041 -2.27952,-13.7684 -0.60669,-1.70174 -0.47252,0.19544 3.67292,0.32114 0.26395,0.008 0.3683,-0.74697 0.55753,-0.56278 0.23524,0.229 -0.0971,0.64956 -0.13314,0.97588 -0.06,0.54245 -0.10324,1.08661 -0.15483,1.62992 -0.35592,5.23374 -0.48107,10.48142 -0.54396,15.72594 -0.0985,4.21876 0.0644,8.44498 -0.17298,12.65984 -0.42112,3.25495 -1.80335,3.56037 -5.45709,1.64171 -0.45357,-0.23818 -0.94744,-4.60121 -1.01298,-5.10488 -0.62786,-5.70726 -1.0568,-11.4336 -1.60862,-17.14846 -0.71948,-3.78595 -0.35298,-7.98873 -1.80366,-11.62328 0.005,2.21215 4.5403,0.34381 4.54858,0.64708 0.0457,1.67028 -0.18473,3.42654 -0.20291,5.10355 0.0431,5.5972 0.30205,11.19186 0.59508,16.7809 0.0336,3.66795 0.52504,7.34279 0.29279,11.01085 -0.15418,0.44927 0,1.24212 -0.46252,1.34781 -1.54914,0.35355 -3.25004,0.32637 -4.76435,-0.15489 -0.49025,-0.15581 -1.51289,-6.64874 -1.61809,-7.29438 -0.87947,-6.00966 -1.87113,-11.99857 -2.99445,-17.96707 -0.5104,-2.22238 -0.92424,-4.47768 -1.59927,-6.6597 -0.11816,-0.38192 -0.24789,-0.76171 -0.411,-1.1267 -0.052,-0.11637 -0.32428,-0.39099 -0.22924,-0.30604 0.45011,0.40238 0.86598,0.84153 1.29897,1.26229 1.01762,-0.34915 2.00406,-0.80773 3.05287,-1.04745 0.11155,-0.0255 0.0376,0.22694 0.0362,0.34136 -0.005,0.44523 -0.0498,0.88938 -0.0562,1.33459 -0.0312,2.19116 0.11002,4.38492 0.19627,6.57332 0.27517,4.79858 0.53039,9.59872 0.72726,14.40126 0.029,2.69012 0.85254,6.90961 -3.6299,6.7855 -0.9058,-0.0251 -1.39149,-1.1611 -2.08724,-1.74165 -1.54853,-3.85282 -2.33868,-7.9813 -3.26512,-12.0193 -1.0632,-4.38968 -2.07431,-8.80051 -3.47673,-13.09733 -0.11448,-0.27277 -0.22897,-0.54553 -0.34345,-0.81829 -0.0296,-0.002 -0.11846,-0.005 -0.0888,-0.006 6.18782,-0.17305 4.61214,-1.17384 5.14948,3.61225 0.6744,5.03232 1.30935,10.0695 1.8396,15.11926 0.0753,1.03318 1.09985,8.1647 -0.7252,8.51891 -1.446,0.28065 -2.89626,-0.53882 -4.3444,-0.80823 -1.82666,-4.36186 -2.70838,-9.08406 -3.7941,-13.67542 -1.22222,-5.09834 -2.36149,-10.21976 -3.77441,-15.26987 -0.1079,-0.32696 -0.2158,-0.65391 -0.3237,-0.98087 -0.03,-0.0356 -0.13644,-0.10373 -0.0899,-0.10696 1.72399,-0.11991 3.4807,-0.56902 5.17858,-0.24699 0.41264,0.0783 0.0788,0.83635 0.128,1.25346 0.13735,1.16476 0.39069,2.95668 0.54449,4.07408 0.76174,5.19433 1.3131,10.41357 1.74583,15.64451 0.006,1.39739 0.81208,7.11642 -0.6296,8.08244 -0.93748,0.62816 -2.12138,0.77031 -3.1821,1.15546 -0.67995,-0.52972 -1.46547,-0.94652 -2.03988,-1.58917 -1.37943,-1.54332 -2.65314,-8.26475 -3.12362,-10.34458 -1.09704,-5.12643 -2.1195,-10.26864 -3.26713,-15.38415 -0.12488,-0.43203 -0.24061,-0.8668 -0.37462,-1.29609 -0.51435,-1.64786 -0.0196,0.42188 0.29461,0.39913 1.59949,-0.11582 3.01911,-1.1785 4.61095,-1.37307 0.26615,-0.0325 0.0342,0.53528 0.0588,0.8023 0.0487,0.52863 0.10745,1.05628 0.16119,1.58443 0.64992,5.34848 1.23722,10.70314 1.72418,16.06893 0.30726,4.23563 0.77841,8.47398 0.74197,12.72564 -0.29315,2.95679 -1.40345,3.82274 -5.15048,2.63518 -0.80584,-0.25541 -1.72945,-4.27673 -1.9176,-5.00138 -1.17355,-5.14078 -2.15101,-10.32416 -3.2372,-15.48381 -0.48027,-2.12893 -0.90173,-4.27229 -1.48005,-6.37797 -0.17232,-0.62747 -0.17201,-1.39239 -0.64037,-1.84412 -0.14492,-0.13975 0.14803,0.37442 0.22204,0.56162 1.54503,-0.20059 3.09004,-0.40119 4.63505,-0.60179 0.0376,0.003 0.10713,-0.0286 0.11295,0.009 0.34004,2.18602 0.3783,4.66199 0.59586,6.88508 0.45853,4.31565 0.68655,8.64571 0.63254,12.9844 -0.1329,2.71959 -0.56628,6.61265 -4.52405,5.98471 -0.78198,-0.12407 -1.28543,-0.92477 -1.92813,-1.38717 -1.9609,-3.40701 -2.43903,-7.44672 -3.0286,-11.27552 -0.58013,-4.05439 -1.02511,-8.126 -1.52276,-12.19097 -0.41394,-2.50813 -1.17192,-2.18367 5.17996,-0.81092 0.31223,0.0675 -0.014,0.6389 -0.009,0.9583 0.0177,1.05229 0.0679,2.10379 0.0975,3.15582 0.16081,4.24726 0.19727,8.49504 0.0599,12.74296 -0.15166,2.75433 -0.0763,5.59052 -1.40105,8.07057 -1.02214,0.35354 -1.99602,1.21542 -3.06644,1.06061 -3.04472,-0.44032 -2.79707,-5.58906 -2.90147,-7.64046 -0.11669,-3.59928 0.13763,-7.18969 0.48545,-10.76898 0.50956,-3.68282 0.58248,-4.68308 5.88071,-1.38062 0.1225,0.0763 0.0881,2.8707 0.088,2.89647 -0.15365,3.55582 -0.67704,7.07381 -1.32522,10.56842 -0.30361,1.34769 -1.10281,6.08392 -2.79749,6.50151 -1.06133,0.26152 -2.18594,-0.0313 -3.27888,-0.047 -0.45511,-0.64919 -1.0314,-1.2285 -1.36533,-1.94757 -0.82857,-1.78419 0.031,-6.54283 0.31893,-8.46231 0.5696,-3.53757 1.42978,-7.01706 2.154,-10.52349 0.0617,-0.34172 0.12938,-0.68243 0.18524,-1.02516 0.0353,-0.21703 0.071,-0.43453 0.0882,-0.65374 0.003,-0.0286 -0.0577,-0.089 -0.0303,-0.0805 4.64908,1.44988 5.21677,-0.003 4.69413,2.30496 -0.26326,1.35159 -0.35792,2.72459 -0.45323,4.09534 0.19876,1.94126 0.17539,1.2761 -5.36347,-1.09524 -0.31912,-0.13662 0.0478,-0.6927 0.0641,-1.03946 0.0787,-1.67549 0.11314,-3.35358 0.14912,-5.03033 0.0881,-4.5348 -0.2531,-9.05333 -0.68466,-13.56254 -0.42913,-3.60908 -1.81658,-4.59813 5.15101,-3.02298 0.46286,0.10464 0.23556,0.9194 0.35753,1.37801 0.14327,0.53878 0.29213,1.07607 0.43818,1.6141 0.96414,2.66152 1.14734,5.97431 2.92449,8.28232 -0.6527,-1.14587 -0.48823,-1.14877 -3.0399,-0.84015 -0.41585,0.0503 -0.55587,0.6876 -0.9539,0.81812 -0.16346,0.0536 0.0233,-0.3433 0.03,-0.51519 0.055,-1.41302 0.0373,-1.00975 -0.0156,-2.59549 -0.20328,-3.27986 -0.99319,-6.43741 -2.35966,-9.41644 -0.35824,-0.47145 -0.7875,-1.70665 -1.5181,-1.87232 -0.33189,-0.0753 0.57227,0.45343 0.91258,0.45784 0.3343,0.004 0.64711,-0.16833 0.97067,-0.2525 0.0542,0.0231 0.1618,0.0104 0.16251,0.0692 0.009,0.73573 -0.2331,1.45464 -0.28998,2.18822 -0.15666,2.02092 -0.11957,4.02597 -0.0729,6.05028 -0.006,3.40685 0.61566,6.84034 0.29856,10.24263 -0.50223,0.70701 -0.64749,2.00322 -1.5067,2.12103 -1.40779,0.19305 -2.8222,-0.62821 -4.03997,-1.36045 -0.55679,-0.33479 -2.03095,-6.20989 -2.25066,-6.98354 -1.17789,-4.25834 -2.42189,-8.49644 -3.73507,-12.71488 -0.0724,-0.19559 -0.60113,-1.67402 -0.78525,-2.02185 -0.0334,-0.063 -0.21027,-0.19226 -0.16225,-0.13951 1.31374,1.4436 2.70074,2.40157 4.5053,-0.0361 -0.21714,3.04845 -0.0413,6.10982 0.15836,9.15436 -0.11436,1.62978 0.79666,6.60647 0.0312,7.97884 -0.3986,0.71465 -1.02219,1.27811 -1.53332,1.91717 -1.26854,-0.28316 -2.6458,-0.26288 -3.80568,-0.84949 -1.03976,-0.52585 -2.60948,-7.11174 -2.95516,-8.34123 -0.93504,-2.66245 -1.2191,-5.63801 -2.53032,-8.1625 1.08244,4.98972 4.55147,-2.7605 4.13758,1.1396 -0.0437,0.41166 -0.0738,0.82465 -0.11065,1.23699 -0.22889,3.18487 -0.24421,6.37886 -0.41097,9.56671 -0.14738,3.31639 -1.72472,6.38868 -5.70079,4.05773 -0.45218,-0.2651 -0.65231,-0.82068 -0.97849,-1.23101 -1.45237,-2.57378 -2.53349,-5.33316 -3.79973,-7.99919 -0.30843,-0.59526 -0.61958,-1.25393 -1.00505,-1.8123 -0.0754,-0.10926 -0.32477,-0.41511 -0.26701,-0.29556 1.14625,2.37217 3.0844,0.51961 4.05765,-0.38288 -0.005,1.96731 0.0784,3.94843 0.14967,5.91965 0.0569,2.42318 0.22013,5.7128 -3.23466,6.02155 -0.83283,0.0744 -1.54128,-0.64892 -2.31191,-0.97338 -1.9064,-2.32249 -3.03942,-5.17657 -4.357,-7.85641 -0.52906,-0.79509 -0.80052,-1.88027 -1.51328,-2.56249 -0.0522,-0.05 0.0109,0.17616 0.0782,0.20222 0.69038,0.2669 1.39494,0.77925 2.12355,0.64899 0.75358,-0.13472 1.23396,-0.90636 1.85092,-1.35954 0.0324,-0.0269 0.0899,-0.12224 0.0973,-0.0807 0.21735,1.22405 0.0952,3.59119 0.10837,4.90659 -0.0915,1.75313 -0.049,4.30951 -1.75342,5.4225 -0.57457,0.37519 -1.28164,0.49086 -1.92246,0.73628 -0.6431,-0.15072 -1.32435,-0.18692 -1.92926,-0.45216 -1.90106,-0.83357 -3.06131,-3.48963 -4.02977,-5.16851 -0.73183,-1.19603 -1.31794,-2.4988 -2.20154,-3.59671 -0.0731,-0.0908 -0.26413,-0.3682 -0.24011,-0.25415 0.0276,0.13111 0.1683,0.20853 0.25247,0.31279 0.64325,0.13685 1.28042,0.51481 1.92973,0.41054 0.5819,-0.0934 0.99296,-0.63517 1.4854,-0.95897 0.0409,-0.0269 0.11002,-0.14148 0.11393,-0.0927 0.0592,0.7373 -0.23381,1.72854 -0.32586,2.45305 -0.27935,2.17288 -0.61026,4.3392 -1.57252,6.32162 -2.76053,3.36508 -5.30228,1.56089 -6.93111,-1.47385 -0.77205,-1.21513 -0.8863,-2.77419 -1.60874,-4.00101 1.35617,2.11605 -0.11187,0.31835 5.02933,-0.52363 0.003,-2.3e-4 0.0201,0.51747 0.11163,1.30851 0.076,0.65662 0.21899,1.62443 0.31014,2.26329 -0.0405,1.35316 1.04995,4.15915 0.60624,5.40983 -0.24683,0.69573 -0.65812,1.32163 -0.98719,1.98244 -1.30095,-0.0498 -2.64184,0.17421 -3.90287,-0.14948 -0.57046,-0.14644 -2.49957,-4.21788 -2.87202,-4.91377 -0.0483,0.001 -1.29675,-2.42852 -1.4088,-2.20355 -0.0949,0.19063 0.50432,0.38579 1.31932,0.76081 0.7222,-0.22868 1.54149,-0.25819 2.16667,-0.68604 0.83799,-0.5735 0.9606,-1.94743 0.44437,-2.73324 0.44474,-0.0502 1.49296,-0.0832 2.10026,-0.15926 2.57754,-0.41501 4.93154,-1.5335 7.22559,-2.72518 3.09586,-1.75079 5.99871,-3.8291 8.83311,-5.9718 1.58522,-1.25635 3.27398,-2.37618 4.88807,-3.59247 0.049,-0.0334 0.11396,-0.1495 0.14706,-0.10026 3.66471,5.45175 3.9901,4.09086 0.35359,6.4043 -1.86685,1.17157 -3.74947,2.31667 -5.59991,3.51429 -0.24762,0.16548 -0.74311,0.46188 -0.97967,0.71567 -0.44244,0.47466 1.19737,-1.04723 1.00518,-1.66698 -0.98074,-3.16283 -1.2499,-3.11645 -2.79538,-3.2824 2.46401,-0.80471 4.84701,-1.84352 7.22852,-2.86215 3.85255,-1.58837 7.53507,-3.69143 11.64828,-4.49973 1.88204,-0.26546 3.76878,-0.23638 5.64224,0.0435 0,0 0.0604,0.14608 0.0604,0.14608 v 0 c -1.12004,1.5103 -2.42674,2.85279 -3.9102,4.01548 -3.40577,2.40916 -7.42201,3.74652 -11.16693,5.54298 -2.70396,1.18603 -5.40072,2.4235 -8.22272,3.30648 -2.23586,0.32894 -2.81754,0.78734 -4.29,-3.08412 -0.54364,-1.42942 1.97982,-2.62521 2.84797,-3.14839 1.86804,-1.09057 3.76465,-2.13384 5.57742,-3.31631 0.32745,-0.21488 11.05289,-7.99247 5.65399,2.82548 -1.65574,1.09278 -3.26618,2.24831 -4.87035,3.41534 -3.11409,2.22782 -6.20316,4.50956 -9.57183,6.34817 -2.86279,1.49806 -5.83065,2.863 -9.04862,3.37783 -2.10706,0.25065 -4.24844,0.29146 -6.09727,-0.9113 -1.35395,-1.19057 -2.91306,-3.83465 -1.02187,-5.41641 0.65823,-0.55052 1.60099,-0.61817 2.40149,-0.92725 0.50633,0.19037 1.04373,0.31282 1.51905,0.57112 1.33443,0.72517 1.88381,2.58886 2.68256,3.75115 0.49728,0.92931 0.97734,1.86879 1.49005,2.78973 0.80259,1.44161 -0.22643,0.41152 -3.21344,0.79039 -1.01857,2.49641 -0.59436,2.05943 -0.68834,0.91309 -0.0962,-1.17292 -0.32822,-2.33084 -0.49146,-3.49474 -0.0669,-0.44174 -0.66874,-4.59233 -0.54039,-4.68863 4.41526,-3.31283 3.74677,-3.58987 5.32278,-1.43799 0.53123,1.23785 0.91332,2.53301 1.50694,3.74494 0.2482,0.48464 0.30787,0.60005 0.30496,0.59961 -0.15251,-0.0226 -0.26366,-0.17711 -0.41567,-0.20283 -1.07534,-0.18189 -2.13299,-0.11653 -2.64144,0.99998 0.81492,-0.72441 0.68035,-3.34413 0.9947,-4.35063 0.24501,-2.10028 0.13415,-5.2768 2.71373,-6.10038 0.78663,-0.25115 1.64185,0.17826 2.46277,0.26739 1.8211,1.4422 2.86409,3.45719 3.97539,5.46996 0.19846,0.33965 1.79207,2.6513 1.83473,2.90267 0.0108,0.0645 -0.13007,-0.0149 -0.19508,-0.0223 -0.35047,-0.0143 -0.70091,-0.0286 -1.05138,-0.0429 -0.38491,0.21621 -0.81478,0.36698 -1.15474,0.64865 -0.17315,0.14344 -0.36889,0.81741 -0.25041,0.62631 0.3237,-0.52215 0.14399,-1.30068 0.24628,-1.85907 -0.0109,-2.26679 -0.31586,-4.5545 0.0728,-6.79882 0.71255,-0.70983 1.18369,-1.81081 2.13762,-2.1295 2.95642,-0.98765 4.43452,2.91121 5.40035,4.73196 0.98005,1.99939 1.95837,4.04174 3.01615,5.98095 -1.35655,-0.28569 -3.54629,-0.78434 -3.58264,1.62368 -0.003,0.11439 0.0779,-0.21708 0.0922,-0.33059 0.074,-0.58646 0.0489,-1.3072 0.0476,-1.88187 -0.0823,-2.62962 -0.37677,-5.29777 0.0661,-7.90541 0.50347,-0.67927 0.73681,-1.6966 1.51042,-2.03782 3.34915,-1.47724 4.74131,1.78848 5.83793,4.01986 1.11633,2.39181 2.16786,4.81957 3.42111,7.14354 -0.64415,-0.0684 -1.31265,-0.39352 -1.93246,-0.20527 -2.03467,0.61799 -1.74326,3.10126 -1.37451,0.21716 0.22064,-3.22162 0.28067,-6.4505 0.44924,-9.67485 0.0614,-0.8413 0.12993,-3.65489 0.66468,-4.29772 2.04153,-2.45426 4.00243,-2.72532 5.75667,0.0747 1.2132,2.88597 1.81952,5.97177 2.72937,8.95836 0.47492,1.65199 0.9307,3.31544 1.51011,4.93509 0.1271,0.35524 0.68855,1.08962 0.31125,1.08825 -1.04976,-0.004 -2.09746,-0.093 -3.14621,-0.13949 -0.34544,0.54036 -0.69456,1.07838 -1.03632,1.62107 -0.0385,0.0612 0.11403,-0.10507 0.1265,-0.17633 0.0562,-0.32203 0.0657,-0.65106 0.0751,-0.97783 0.0503,-1.75236 -0.10832,-3.50341 -0.1933,-5.25156 -0.18614,-3.53553 -0.54076,-7.1005 -0.18765,-10.63407 0.76989,-2.31354 0.44739,-2.89683 4.29221,-2.85458 1.68555,0.0185 2.32714,3.55781 2.74666,4.60203 1.32107,4.24899 2.46589,8.55069 3.74814,12.81155 0.54348,1.81359 0.61061,2.0768 1.16692,3.79444 0.13626,0.42071 0.27874,0.83938 0.41976,1.25852 0.0531,0.15787 0.32922,0.47308 0.16267,0.4725 -4.56256,-0.0158 -2.66417,-1.85044 -4.63132,1.42536 0.27707,-0.86043 0.14182,-2.03601 0.11824,-2.89969 -0.0585,-2.1418 -0.19611,-4.28051 -0.2381,-6.42288 -0.086,-3.20089 -0.5107,-7.54115 0.69295,-10.57491 0.24802,-0.62511 0.65018,-1.17743 0.97528,-1.76614 0.66474,-0.41993 1.23891,-1.0414 1.99427,-1.25981 3.08462,-0.8919 5.18879,2.38707 6.40067,4.58088 1.64496,3.61691 2.59389,7.48262 2.83879,11.45564 0.0626,1.47758 0.411,3.71805 -0.2164,5.13185 -1.33948,3.01833 -3.60029,3.73857 -5.89016,1.05307 -1.65356,-3.04406 -2.43109,-6.42113 -3.39399,-9.72719 -0.14491,-0.53327 -0.28559,-1.06771 -0.43471,-1.59982 -0.11803,-0.42116 -0.72819,-1.01361 -0.36674,-1.25989 5.90592,-4.02397 4.83663,-2.50062 5.31286,0.93721 0.52956,4.70902 0.70892,9.45075 0.68564,14.18852 -0.0106,1.7368 -0.0283,3.47032 -0.0845,5.20617 -0.0116,0.35793 0.31409,0.98858 -0.0337,1.07383 -1.76882,0.43354 -3.63786,0.18126 -5.45679,0.27189 0.0114,-0.007 0.023,-0.0135 0.0344,-0.0202 0.2165,-1.55674 0.41719,-3.11721 0.74088,-4.65644 0.0172,-0.0792 0.36682,-1.85412 0.50901,-1.85351 6.03676,0.0259 5.33934,0.17048 4.65987,3.51176 -0.75907,3.36713 -1.52713,6.73708 -2.04259,10.15196 -0.19224,1.52253 -0.38462,3.0339 -0.38296,4.57164 0,1.07323 0.11587,1.27792 0.0413,1.23649 -0.36433,-0.20236 -0.62524,-0.55124 -0.93784,-0.82686 -2.28907,0.24211 -2.39879,-0.44562 -3.15056,0.931 -0.0521,0.0955 0.16743,-0.14678 0.21744,-0.24341 0.13134,-0.25377 0.22947,-0.52424 0.32007,-0.79524 0.28773,-0.8608 0.47019,-1.7293 0.6799,-2.61191 0.60833,-3.17279 1.09352,-6.38403 1.16382,-9.61929 0.005,-0.3805 0.0198,-0.76099 0.0153,-1.1415 -0.003,-0.24426 -0.27998,-0.70699 -0.037,-0.7319 1.58101,-0.16204 3.1792,0.39722 4.76144,0.24768 0.21129,-0.02 0.35258,-1.48581 0.10456,-0.27126 -0.066,0.32344 -0.10642,0.65159 -0.15962,0.97738 -0.38397,3.28266 -0.52996,6.60101 -0.38791,9.9039 0.0773,1.23009 0.0686,1.47283 0.22421,2.63193 0.003,0.0131 0.18267,0.95846 0.13118,0.93129 -0.57351,-0.30251 -1.00849,-1.03987 -1.65658,-1.0196 -0.95872,0.03 -1.75739,0.76925 -2.6361,1.15388 -0.0495,0.15738 -0.14076,0.30735 -0.14835,0.47214 -0.006,0.12381 0.10988,-0.22388 0.14245,-0.34346 0.073,-0.2681 0.12713,-0.54138 0.1732,-0.81539 0.24394,-1.4509 0.34586,-2.92445 0.42992,-4.39125 0.16494,-4.11605 0.15653,-8.23781 -0.0536,-12.35262 -0.059,-1.28149 -0.25006,-4.41448 -0.20252,-4.43569 5.70738,-2.54501 5.274,-2.54897 5.60221,0.30391 0.45485,3.9889 0.81174,7.99199 1.47942,11.95363 0.50046,2.86604 0.98819,5.75283 1.95678,8.50325 -1.57824,-0.63266 -2.83787,-0.86166 -3.59481,1.11636 -0.0303,0.0792 0.11519,-0.13074 0.14155,-0.21133 0.23095,-0.70693 0.23505,-1.26051 0.31342,-2.02107 0.20021,-4.10328 -0.0868,-8.20309 -0.52096,-12.28469 -0.26212,-2.43036 -0.75592,-4.95639 -0.76946,-7.40493 -0.003,-0.54603 -0.36619,-1.36151 0.10662,-1.63465 1.43558,-0.82929 3.21562,-0.80886 4.82341,-1.21329 1.75755,2.99944 1.78438,6.73292 2.73802,10.01891 1.04732,5.06142 2.02398,10.14141 3.29723,15.15225 0.14661,0.51669 0.28393,1.03613 0.43987,1.55009 0.0969,0.31927 0.28782,0.6167 0.3184,0.94894 0.008,0.086 -0.15414,-0.10678 -0.24008,-0.0977 -1.23224,0.12965 -2.52997,0.054 -3.68189,0.51039 -0.3602,0.1427 -0.23857,0.73773 -0.37962,1.09858 -0.0503,0.12861 0.0711,-0.26686 0.10665,-0.40029 0.21164,-4.03999 -0.30948,-8.08513 -0.54634,-12.11253 -0.47231,-5.31625 -1.05362,-10.62178 -1.83475,-15.90246 -0.0783,-0.57699 -0.16582,-1.15282 -0.235,-1.73098 -0.0568,-0.47445 -0.50668,-1.11669 -0.14277,-1.42638 4.96734,-4.22742 5.13138,-2.46054 6.02403,1.28189 1.10421,5.10528 2.02859,10.24885 3.21463,15.33644 0.5175,2.17507 1.01598,4.35487 1.71347,6.48155 0.13748,0.41917 0.29861,0.83023 0.45085,1.24426 0.0643,0.17497 0.38513,0.5149 0.19889,0.52271 -0.43013,0.018 -0.79912,-0.32054 -1.19867,-0.48081 -0.83039,0.43141 -1.73011,0.74974 -2.49113,1.29424 -0.14743,0.10547 -0.24056,0.47444 -0.0712,0.53908 0.16592,0.0633 0.10838,-0.34042 0.12984,-0.5167 0.0471,-0.38707 0.0645,-0.77759 0.0752,-1.16738 0.0416,-1.5092 -0.0193,-2.06543 -0.0965,-3.63992 -0.37378,-5.11757 -0.91933,-10.22302 -1.71326,-15.29365 -0.0545,-0.35108 -0.8912,-5.82764 -0.86286,-5.8496 5.01886,-3.88667 4.88027,-3.21766 5.68714,-0.23587 1.25746,5.12708 2.4171,10.27766 3.66395,15.40734 0.95874,3.92497 1.89841,7.86258 3.1713,11.69945 -4.74494,0.0339 -3.057,-1.12551 -4.34912,1.50075 -0.0668,0.13564 0.0926,-0.29075 0.10361,-0.44152 0.0294,-0.4027 0.0254,-0.8075 0.0169,-1.21118 -0.029,-1.36568 -0.13676,-2.48026 -0.24275,-3.85822 -0.49107,-5.01793 -1.14387,-10.01563 -1.87314,-15.00436 -0.066,-0.49744 -0.79254,-5.41108 -0.41395,-5.64812 4.782,-2.99436 4.92499,-2.2781 5.95993,0.65739 1.30352,4.44447 2.35185,8.95783 3.45387,13.45521 0.86545,3.47085 1.64547,6.97795 2.83517,10.35606 -0.4898,-0.24987 -0.93229,-0.86743 -1.46936,-0.74962 -1.06416,0.23342 -1.92106,1.04226 -2.79996,1.68607 -0.096,0.0704 -0.0414,0.46411 0.0109,0.35708 0.1506,-0.3087 0.1538,-1.65071 0.15536,-1.74881 0.008,-0.51537 -0.003,-1.03087 -0.003,-1.54631 -0.12242,-4.77667 -0.37936,-9.54664 -0.66093,-14.31624 -0.14182,-2.32608 -0.29173,-4.65758 -0.30141,-6.98922 -0.003,-0.36821 -0.005,-3.23903 0.31773,-3.5692 0.94028,-0.96361 2.31506,-1.37521 3.47255,-2.06281 0.62511,0.47906 1.33681,0.86247 1.87529,1.43719 1.21875,1.30082 1.98379,7.85408 2.51241,9.59749 1.15628,5.99088 2.10333,12.01837 3.11835,18.03428 0.28826,1.57141 0.42738,2.4247 0.76202,3.92977 0.0903,0.40621 0.62868,1.18074 0.21545,1.22966 -4.69259,0.55553 -4.06765,-1.0272 -4.55834,1.30631 0.55684,-3.36431 -0.18944,-6.87957 -0.0966,-10.25871 -0.2104,-5.6733 -0.57473,-11.34136 -0.65757,-17.0192 -0.005,-0.82383 -0.12391,-7.37306 0.57523,-7.76261 1.30744,-0.72851 2.90512,-1.02586 4.39724,-0.90859 0.5298,0.0416 0.59211,0.88266 0.88818,1.32399 1.14718,4.14375 1.24963,8.50219 1.79427,12.74612 0.53819,5.63742 1.0195,11.28319 1.74305,16.9006 0.0891,0.57836 0.1683,1.15834 0.26739,1.73507 0.12965,0.75452 0.32232,1.39472 0.21751,1.39362 -1.31836,-0.0138 -2.66276,-0.55699 -3.94686,-0.25807 -0.17979,0.0419 -0.89054,2.17175 -0.46644,0.92603 0.41074,-4.09154 0.19217,-8.22054 0.33584,-12.32437 0.0692,-5.36405 0.0898,-10.73107 0.38169,-16.08915 0.0677,-0.96751 -0.005,-5.11289 1.2579,-5.54601 3.92409,-1.34595 4.5144,0.0314 5.14469,2.53953 0.89729,4.67987 1.53842,9.40211 2.23057,14.11559 0.69752,4.65059 1.30834,9.31351 1.96369,13.97019 0.0652,0.44366 0.12607,0.88796 0.19547,1.33098 0.009,0.0565 0.21569,1.09772 0.15449,1.08089 -1.12773,-0.31012 -2.17294,-1.23339 -3.33412,-1.09331 -0.68495,0.0826 -1.92156,2.30464 -1.33794,1.57918 0.60872,-3.16079 0.55411,-6.41936 0.81814,-9.61709 0.28501,-4.74306 0.48924,-9.49081 0.7557,-14.23501 0.0427,-0.89699 0.1029,-2.04017 0.12764,-2.9608 0.006,-0.22692 -0.22135,-0.66745 0.005,-0.68098 6.02067,-0.35956 5.42719,-0.85736 5.1544,0.80364 -0.53004,3.83269 -0.89619,7.68652 -1.45682,11.51551 -0.45979,3.68698 -0.84944,7.41266 -1.69693,11.03146 -1.20081,0.61801 -2.25198,1.84294 -3.60244,1.85402 -2.72139,0.0223 -2.2648,-6.2012 -2.47314,-7.54201 -0.25709,-4.97991 -0.37089,-9.96473 -0.33382,-14.95155 -0.003,-2.09982 0.007,-4.20064 -0.0356,-6.30018 -0.009,-0.44048 -0.0249,-0.8808 -0.0401,-1.32111 -0.006,-0.17133 -0.19304,-0.49137 -0.023,-0.51378 1.74972,-0.23067 3.52767,-0.12051 5.29151,-0.18077 -0.5112,2.72363 -0.4431,5.77066 -0.71665,8.60399 -0.19592,3.23727 -0.38843,6.47483 -0.55748,9.71363 -1.82821,0.0584 -3.65659,0.23778 -5.48468,0.17511 -0.12118,-0.004 0.0276,-0.24098 0.0373,-0.36186 0.0206,-0.25843 0.037,-0.51718 0.0532,-0.77593 0.093,-1.49273 0.15682,-2.98725 0.27657,-4.4783 0.30832,-4.75521 0.69689,-9.50628 1.265,-14.23818 0.50147,-3.79866 0.96422,-7.65545 2.16892,-11.30693 1.72858,-2.39049 1.18552,-2.7045 5.40787,-0.67108 0.69475,0.33458 0.30536,4.29269 0.22728,4.90057 -0.42283,3.73902 -1.00269,7.45709 -1.57676,11.17535 -0.0257,0.19524 -0.26231,3.31857 -0.35589,3.46084 -0.0762,0.11596 -0.083,-0.31589 -0.21592,-0.35603 -1.21508,-0.36712 -2.44698,-0.86141 -3.71595,-0.83194 -0.40338,0.009 -0.51165,0.62404 -0.76747,0.93606 1.21023,-1.64781 1.56437,-5.26527 2.52333,-7.13653 1.09945,-3.16851 2.23128,-6.32706 3.49075,-9.43612 0.003,-0.003 0.75412,-1.84556 0.84294,-1.85625 5.33016,-0.64104 5.628,-0.36568 4.84309,3.21157 -0.70839,2.80476 -1.20166,5.67339 -1.53987,8.5446 -0.1405,1.49974 -0.15505,1.23179 -0.14709,2.64228 0.003,0.35194 0.27631,1.21573 -0.0369,1.0552 -2.42617,-1.24343 -0.1888,-1.2146 -3.63259,-0.31263 -0.0665,0.13252 -0.33748,0.45206 -0.19958,0.39755 0.64376,-0.2545 2.09212,-5.26027 2.48698,-6.02649 1.18898,-3.08746 2.36284,-6.21508 4.10207,-9.04395 0.37063,-0.39809 0.58534,-1.05802 1.11192,-1.19427 5.12384,-1.32572 5.08508,2.07845 4.35747,5.43382 -0.60052,2.7626 -1.378,5.48403 -1.89889,8.26353 -0.3194,1.98051 0.13169,0.22842 -1.03071,-0.17943 -2.29732,-0.80607 -2.52402,-0.71231 -3.44728,0.40758 -0.0556,0.0674 0.12576,-0.12139 0.18862,-0.18208 1.28992,-2.0731 2.24346,-4.33915 3.46424,-6.45255 1.26363,-2.23051 2.45965,-4.64717 4.8345,-5.85247 1.05989,0.37859 2.29094,0.4452 3.17965,1.13575 1.38724,1.07792 0.006,3.94406 -0.259,5.17452 -0.71451,2.36447 -1.36856,4.75761 -1.77022,7.19727 -0.23897,1.63877 -0.0846,-0.24552 -1.49175,-0.6582 -1.86483,-0.5469 -3.12298,0.92661 -2.41276,0.36266 1.32199,-1.86268 2.35463,-3.90742 3.51208,-5.8725 1.27098,-2.14786 2.64253,-5.35451 5.93201,-4.17364 0.72364,0.25978 0.95816,1.20268 1.43725,1.80402 0.34906,2.2252 -0.0625,4.43061 -0.29031,6.65349 -0.0525,0.57532 -0.0666,2.39553 -0.17827,2.46616 -0.11827,0.0748 -0.0802,-0.30055 -0.20315,-0.36739 -2.85877,-1.55407 -1.95453,-1.5576 -4.06016,-0.24522 -0.0335,0.47762 0.34359,-0.44969 0.63291,-1.10814 0.51818,-1.1792 0.98766,-2.3801 1.47889,-3.57052 1.03497,-2.46911 2.03575,-5.02668 3.75348,-7.11358 0.48943,-0.31465 0.88903,-0.88877 1.46823,-0.94396 3.69792,-0.35238 4.2011,2.48111 3.73911,5.21038 -0.53326,2.76797 -1.26436,5.48945 -2.17466,8.15823 -0.17489,0.48982 -1.68481,4.65367 -2.0502,4.65991 -5.23589,0.0894 -4.91726,0.52974 -4.97663,-1.89013 0.41397,-2.27885 1.14747,-4.48835 1.95067,-6.65657 1.18269,-3.01727 2.51687,-5.99793 4.43187,-8.63258 0.58436,-0.76555 1.59973,-2.46498 2.63234,-2.71769 2.86581,-0.70133 4.58555,0.26002 4.05458,3.39015 -0.87267,2.23661 -2.15421,4.2734 -3.45987,6.28079 -1.35327,1.99743 -2.66991,4.12244 -4.62852,5.5831 -1.34678,-0.62035 -2.83228,-1.00127 -4.04034,-1.86106 -0.39804,-0.28329 1.05399,-3.50663 1.23261,-3.87194 1.07619,-2.43788 2.16032,-4.87247 3.24668,-7.30567 0,0 4.01859,1.75106 4.01859,1.75106 z"
       inkscape:connector-curvature="0" />
  </g>
</svg>
