<?xml version="1.0" encoding="UTF-8" standalone="no"?>
<!-- Created with Inkscape (http://www.inkscape.org/) -->

<svg
   xmlns:dc="http://purl.org/dc/elements/1.1/"
   xmlns:cc="http://creativecommons.org/ns#"
   xmlns:rdf="http://www.w3.org/1999/02/22-rdf-syntax-ns#"
   xmlns:svg="http://www.w3.org/2000/svg"
   xmlns="http://www.w3.org/2000/svg"
   xmlns:sodipodi="http://sodipodi.sourceforge.net/DTD/sodipodi-0.dtd"
   xmlns:inkscape="http://www.inkscape.org/namespaces/inkscape"
   width="1920"
   height="1080"
   viewBox="0 0 507.99999 285.75001"
   version="1.1"
   id="svg8"
   inkscape:version="0.92.2 2405546, 2018-03-11"
   sodipodi:docname="dft-1.svg">
  <defs
     id="defs2" />
  <sodipodi:namedview
     id="base"
     pagecolor="#ffffff"
     bordercolor="#666666"
     borderopacity="1.0"
     inkscape:pageopacity="0.0"
     inkscape:pageshadow="2"
     inkscape:zoom="0.37871094"
     inkscape:cx="912.17111"
     inkscape:cy="513.28447"
     inkscape:document-units="mm"
     inkscape:current-layer="layer1"
     showgrid="false"
     units="px"
     inkscape:window-width="1348"
     inkscape:window-height="730"
     inkscape:window-x="5"
     inkscape:window-y="25"
     inkscape:window-maximized="0" />
  <metadata
     id="metadata5">
    <rdf:RDF>
      <cc:Work
         rdf:about="">
        <dc:format>image/svg+xml</dc:format>
        <dc:type
           rdf:resource="http://purl.org/dc/dcmitype/StillImage" />
        <dc:title></dc:title>
      </cc:Work>
    </rdf:RDF>
  </metadata>
  <g
     inkscape:label="Layer 1"
     inkscape:groupmode="layer"
     id="layer1"
     transform="translate(0,-11.249983)">
    <path
       style="opacity:1;fill:#000000;fill-opacity:1;stroke:none;stroke-width:0.2;stroke-linejoin:miter;stroke-miterlimit:4;stroke-dasharray:none;stroke-opacity:1"
       id="path4946"
       d="m 70.883311,35.398539 c 0.889881,5.701584 1.510937,11.441429 2.208535,17.168761 0.990886,8.389644 2.152489,16.757666 3.223403,25.137086 0.206647,2.401866 0.379709,4.84814 0.127918,7.257076 -0.06178,0.591079 -0.194802,1.385501 -0.487355,1.353037 -0.147288,-0.01635 -0.162999,-0.247539 -0.244498,-0.371308 0,0 0.111709,-0.0041 0.111709,-0.0041 v 0 c -0.07097,0.164515 -0.04751,0.42468 -0.212915,0.493546 -0.477012,0.198604 -0.825722,-0.67128 -1.058185,-1.13274 -1.103326,-2.190173 -1.696435,-4.614735 -2.25769,-6.98279 -1.478984,-8.359519 -2.549377,-16.780978 -3.601455,-25.203301 -0.718135,-5.669169 -1.440389,-11.338115 -2.250879,-16.994955 0,0 4.441412,-0.720332 4.441412,-0.720332 z"
       inkscape:connector-curvature="0" />
    <path
       style="opacity:1;fill:#000000;fill-opacity:1;stroke:none;stroke-width:0.2;stroke-linejoin:miter;stroke-miterlimit:4;stroke-dasharray:none;stroke-opacity:1"
       id="path4948"
       d="M 61.148658,52.100305 C 59.520155,50.61808 58.041,48.647927 58.178871,46.311841 c 0.03441,-0.582975 0.244409,-1.142122 0.366615,-1.71318 0.300318,-0.552169 0.533426,-1.146601 0.900954,-1.656511 2.517793,-3.493222 7.026013,-5.09874 10.873372,-6.533006 5.674143,-1.797662 11.686389,-2.730473 17.625218,-1.87626 1.246204,0.179248 2.467356,0.502768 3.701034,0.754151 6.371717,1.883523 11.815516,5.757227 15.503536,11.320943 0.75312,1.136161 1.34239,2.37281 2.01358,3.559215 2.3147,5.043159 3.40723,10.511303 2.6273,16.0498 -0.51221,3.637401 -1.04492,4.384529 -2.39286,7.759509 -3.15998,5.954853 -8.1978,10.434812 -14.466349,12.928798 -1.119015,0.445209 -2.293329,0.736396 -3.439993,1.104596 -3.670549,0.527209 -7.525327,0.739045 -11.085727,-0.5173 -0.530384,-0.187156 -1.019876,-0.474544 -1.529815,-0.711814 0,0 0.02238,-0.109522 0.02238,-0.109522 v 0 c 3.864182,-0.195728 7.605181,-1.229198 11.141718,-2.793584 6.687833,-2.588718 11.351026,-5.277387 15.061596,-11.683222 0.44077,-1.01591 0.96601,-1.999205 1.32231,-3.047725 1.90028,-5.592101 1.21957,-11.508269 -1.06711,-16.861597 -0.55672,-1.020524 -1.04606,-2.080813 -1.67017,-3.061573 -3.03822,-4.774334 -7.544768,-8.173029 -12.919117,-9.887995 -1.062876,-0.247078 -2.111748,-0.564925 -3.188626,-0.741235 -5.333743,-0.873263 -10.788565,-0.08134 -15.913169,1.470887 -3.37173,1.223434 -7.173835,2.499437 -9.362598,5.533962 -0.68647,1.577123 0.25074,2.572057 1.316762,3.708966 0,0 -2.471052,2.792161 -2.471052,2.792161 z"
       inkscape:connector-curvature="0" />
    <path
       style="opacity:1;fill:#000000;fill-opacity:1;stroke:none;stroke-width:0.2;stroke-linejoin:miter;stroke-miterlimit:4;stroke-dasharray:none;stroke-opacity:1"
       id="path4950"
       d="m 122.41677,67.340651 c 2.31319,-0.108759 4.44222,-0.797554 6.40038,-2.00824 1.05644,-0.884081 2.83352,-2.388664 2.31485,-3.983884 -0.0529,0.01206 -0.13656,-0.01336 -0.15873,0.03616 -0.24875,0.55575 0.20964,0.0628 0.0867,0.568286 -0.0116,0.04753 -1.26778,0.781518 -1.53425,0.95482 -2.37698,1.822815 -3.35803,4.121348 -3.70971,7.023036 -0.0661,2.921757 1.14807,5.354442 3.35775,7.196693 2.24043,1.378202 3.74597,0.797761 5.68876,-0.695266 2.39868,-2.191915 3.6977,-5.165635 4.73554,-8.177689 0.22846,-0.667983 0.94835,-4.19223 1.90439,-4.254037 3.4427,-0.222565 3.1782,0.210846 3.88858,2.175285 0.60742,3.009641 1.07727,6.044528 1.66311,9.0586 0.32846,0.905598 0.26046,2.08596 0.83734,2.911338 0.0428,0.06117 0.0353,-0.179769 -0.026,-0.222404 -0.47155,-0.328149 -0.93977,-0.732589 -1.50372,-0.842115 -0.39601,-0.07691 -0.77744,0.21572 -1.16617,0.32358 1.13241,-2.618383 2.00319,-5.338522 2.98579,-8.014817 0.92427,-2.032484 1.9418,-5.858499 4.77912,-6.032624 0.70589,-0.04332 1.38224,0.30009 2.07336,0.450136 0.44856,0.411162 0.94859,0.772427 1.34568,1.233492 1.55384,1.804168 2.98635,5.756095 3.97633,8.002006 0.24129,0.53971 0.48424,1.078682 0.72388,1.619128 0.21354,0.481605 0.45677,0.951489 0.63566,1.447014 0.40459,1.120741 0.48949,2.315207 1.15094,3.329067 0.18172,0.03234 0.36346,0.06467 0.54519,0.097 0,0 0.0413,0.103857 0.0413,0.103857 v 0 c -0.2474,0.203168 -0.4948,0.406334 -0.74219,0.609502 -0.36747,0.04729 -0.73425,0.183544 -1.1024,0.14188 -2.69323,-0.3048 -4.3023,-3.403875 -5.31058,-5.526048 -0.73779,-1.614929 -1.4319,-3.2567 -2.21159,-4.851992 -0.31931,-0.653331 -0.77221,-1.241134 -1.04339,-1.915864 -0.0221,-0.05506 0.0427,-0.110747 0.064,-0.166119 0.43565,-0.07525 1.00683,-0.0092 1.20345,-0.548145 0.0365,-0.100047 -0.21721,0.05442 -0.29154,0.130691 -0.20702,0.212447 -0.37833,0.459724 -0.53139,0.713817 -0.521,0.864907 -0.83971,1.732282 -1.23137,2.664187 -1.18091,3.19455 -2.04127,6.552372 -3.68218,9.545135 -0.65833,0.408318 -1.20415,1.147934 -1.97499,1.224954 -3.14615,0.314357 -3.5058,-3.555836 -3.92643,-5.619101 -0.50146,-2.873436 -0.93468,-5.763041 -1.58287,-8.607965 0.90192,-0.713528 -1.1015,0.843449 3.0871,0.197117 0.31319,-0.04833 0.32154,-0.547854 0.51273,-0.800581 0.0926,-0.12246 -0.15855,0.264588 -0.21521,0.407305 -0.20453,0.515135 -0.67622,2.052388 -0.8032,2.454716 -1.38107,3.831903 -3.11648,7.56239 -6.24706,10.295888 -0.57772,0.400396 -1.11705,0.862859 -1.73318,1.201192 -3.15866,1.734497 -6.58057,1.279488 -9.45936,-0.748138 -0.49221,-0.454091 -1.0261,-0.866804 -1.47663,-1.362268 -2.43527,-2.678131 -3.45141,-6.199431 -3.309,-9.763199 0.10872,-0.706803 0.16017,-1.424824 0.32616,-2.120411 0.79006,-3.3108 2.81019,-6.108882 5.55813,-8.069691 0.50971,-0.277416 0.99503,-0.605293 1.52912,-0.832247 2.13562,-0.907505 4.74825,-0.829167 6.03049,1.416511 0.24854,0.435295 0.2937,0.958519 0.44055,1.437777 -0.008,0.476721 0.0426,0.957919 -0.023,1.430163 -0.36898,2.655295 -2.33203,4.732732 -4.39139,6.251937 -2.56821,1.508345 -5.32189,2.502244 -8.33438,2.563895 0,0 -0.16453,-4.053322 -0.16453,-4.053322 z"
       inkscape:connector-curvature="0" />
    <path
       style="opacity:1;fill:#000000;fill-opacity:1;stroke:none;stroke-width:0.2;stroke-linejoin:miter;stroke-miterlimit:4;stroke-dasharray:none;stroke-opacity:1"
       id="path4952"
       d="m 176.14267,62.948013 c -2.31803,0.09671 -4.44785,0.864414 -6.34179,2.173753 -0.72328,0.62611 -1.58051,1.433885 -0.84132,2.313932 1.32477,1.424847 3.04812,2.414256 4.65704,3.482604 1.87823,1.350119 3.8322,2.981891 4.39762,5.346531 0.11617,0.485873 0.11362,0.992656 0.17042,1.488982 -0.40022,3.428069 -2.46133,4.986761 -5.6319,5.77492 -2.07266,0.243319 -4.3509,-0.749069 -4.46322,-3.127914 -0.0157,-0.332619 0.10803,-0.657162 0.16204,-0.985743 0.0884,-0.265882 0.1769,-0.531764 0.26535,-0.79765 0,0 0.11154,0.0073 0.11154,0.0073 v 0 c 0.0568,0.217577 0.11353,0.435155 0.17029,0.652735 1.2256,0.811453 1.44267,-0.07586 2.71036,-0.127876 0.80413,-0.172079 1.66273,-0.427524 2.13001,-1.16164 0.37815,-1.496266 -1.58408,-2.602269 -2.52213,-3.370617 -2.29578,-1.57979 -4.87552,-2.917377 -6.3071,-5.420698 -0.17169,-0.477229 -0.41251,-0.934993 -0.51507,-1.431687 -0.55273,-2.676853 1.07315,-4.854787 3.08392,-6.389762 2.68366,-1.658379 5.62766,-2.696204 8.81695,-2.718577 0,0 -0.053,4.291396 -0.053,4.291396 z"
       inkscape:connector-curvature="0" />
    <path
       style="opacity:1;fill:#000000;fill-opacity:1;stroke:none;stroke-width:0.2;stroke-linejoin:miter;stroke-miterlimit:4;stroke-dasharray:none;stroke-opacity:1"
       id="path4954"
       d="m 187.25697,65.465515 c 0.42514,2.815127 0.79135,5.639133 1.12048,8.467045 0.16534,1.209117 0.18867,4.876406 -1.11132,5.558131 0,0 -0.0977,0.05437 -0.0977,0.05437 v 0 c -0.14243,-0.0071 -0.29712,0.03705 -0.42728,-0.02122 -0.93909,-0.420317 -1.98556,-2.620052 -2.26364,-3.499948 -0.15557,-0.492249 -0.1967,-1.013587 -0.29504,-1.52038 -0.43576,-2.795966 -0.78605,-5.602156 -1.11907,-8.412068 0,0 4.19354,-0.625935 4.19354,-0.625935 z"
       inkscape:connector-curvature="0" />
    <path
       style="opacity:1;fill:#000000;fill-opacity:1;stroke:none;stroke-width:0.2;stroke-linejoin:miter;stroke-miterlimit:4;stroke-dasharray:none;stroke-opacity:1"
       id="path4956"
       d="m 200.57353,40.727545 c 0.0875,4.710483 0.39277,9.411637 0.71528,14.110594 0.40829,6.548356 1.39875,13.060169 1.51589,19.623233 -0.15481,1.85602 -0.16334,3.764473 -0.65242,5.577776 -0.10164,0.376841 -0.28452,0.727491 -0.40305,1.099365 0,0 -0.11077,0.01503 -0.11077,0.01503 v 0 c -1.21675,-1.936872 -1.87075,-4.107064 -2.42676,-6.321325 -1.23347,-6.490313 -1.61889,-13.109053 -2.23128,-19.679033 -0.37276,-4.80677 -0.71944,-9.626343 -0.65163,-14.450909 0,0 4.24474,0.02527 4.24474,0.02527 z"
       inkscape:connector-curvature="0" />
    <path
       style="opacity:1;fill:#000000;fill-opacity:1;stroke:none;stroke-width:0.2;stroke-linejoin:miter;stroke-miterlimit:4;stroke-dasharray:none;stroke-opacity:1"
       id="path4958"
       d="m 208.82248,66.464457 c -3.21673,0.173088 -6.44148,0.110779 -9.65718,-0.04644 -2.7381,-0.478976 -5.41576,-1.229776 -8.12846,-1.819585 0,0 -0.005,-0.111678 -0.005,-0.111678 v 0 c 2.67956,-0.827283 5.34966,-1.679609 8.12266,-2.155555 3.17757,-0.17158 6.3601,-0.214193 9.54204,-0.167465 0,0 0.12579,4.300722 0.12579,4.300722 z"
       inkscape:connector-curvature="0" />
    <path
       style="opacity:1;fill:#000000;fill-opacity:1;stroke:none;stroke-width:0.2;stroke-linejoin:miter;stroke-miterlimit:4;stroke-dasharray:none;stroke-opacity:1"
       id="path4960"
       d="m 216.36835,67.017757 c 0.53278,1.272026 1.31271,2.542799 2.73633,2.850224 1.31966,0.02948 2.10334,-1.008761 2.71065,-2.042769 0.6158,-1.148945 0.58279,-2.44448 0.81138,-3.686299 0.36022,-0.403773 0.54291,-1.151298 1.08068,-1.211318 0.90839,-0.101386 1.82826,0.347178 2.62343,0.797898 0.64384,0.364943 1.68698,4.73092 1.86541,5.387793 1.21843,4.749456 2.21224,9.607079 2.42789,14.519753 0.0489,1.114822 0.0114,2.231761 0.0171,3.347641 -0.23517,3.971089 -0.96023,8.289756 -4.74413,10.463133 -2.11667,1.215763 -2.97091,0.946351 -5.31109,1.007451 -3.78516,-0.907319 -1.87631,-0.406905 -5.7247,-1.508212 0,0 0.0305,-0.107545 0.0305,-0.107545 v 0 c 3.7516,1.053719 1.90329,0.89323 5.53166,0.615529 1.65739,-0.569042 2.35361,-0.565377 3.56617,-1.847927 2.11833,-2.240581 2.43235,-5.741804 2.75926,-8.612449 0.001,-5.750502 -0.72259,-11.273001 -2.32639,-16.806145 -0.52938,-1.782794 -0.41879,-1.459997 -0.9354,-3.038314 -0.20106,-0.614272 -0.36503,-1.024826 -0.30244,-1.021641 2.86658,0.145884 1.69299,1.045867 3.06679,-0.77293 -0.50105,0.439722 -1.06485,3.737142 -1.83139,4.192501 -1.49578,2.11443 -3.40591,3.674001 -6.15072,3.384534 -2.75688,-0.815425 -3.85677,-2.070333 -5.113,-4.604163 0,0 3.21205,-1.306745 3.21205,-1.306745 z"
       inkscape:connector-curvature="0" />
    <path
       style="opacity:1;fill:#000000;fill-opacity:1;stroke:none;stroke-width:0.2;stroke-linejoin:miter;stroke-miterlimit:4;stroke-dasharray:none;stroke-opacity:1"
       id="path4962"
       d="m 188.63629,51.719752 c -0.31113,-0.252222 -1.79761,1.111539 -1.14031,1.240057 0.28746,-0.04969 0.46938,-0.25827 0.66879,-0.452781 0.58388,-0.717518 0.45793,-1.582806 0.1592,-2.388508 -0.68472,-1.541867 -1.07737,-2.583748 -2.36712,-3.751265 -0.22321,-0.05293 -0.44642,-0.105852 -0.66963,-0.158779 0,0 0.005,-0.111675 0.005,-0.111675 v 0 c 0.24744,-0.03212 0.49488,-0.06425 0.74232,-0.09637 2.67608,-0.607518 5.22771,0.310425 6.31887,2.976219 0.12253,0.484822 0.30333,0.958545 0.36758,1.454467 0.3342,2.579632 -0.92349,4.858385 -3.18399,6.057855 -0.45303,0.125039 -0.89243,0.319445 -1.35908,0.375121 -2.52774,0.301575 -4.44954,-1.429996 -4.90264,-3.815379 0.0282,-0.46087 -0.0162,-0.932027 0.0846,-1.382609 0.48099,-2.148941 2.40877,-3.396054 4.38704,-3.955442 0,0 0.8894,4.009091 0.8894,4.009091 z"
       inkscape:connector-curvature="0" />
    <path
       style="opacity:1;fill:#000000;fill-opacity:1;stroke:none;stroke-width:0.2;stroke-linejoin:miter;stroke-miterlimit:4;stroke-dasharray:none;stroke-opacity:1"
       id="path4964"
       d="m 109.86186,118.51437 c -3.24535,0.5594 -6.55214,0.64844 -9.83673,0.76204 -5.183275,0.12334 -10.359874,0.40596 -15.516111,0.95005 -3.65153,0.47822 -7.502604,0.88824 -10.628,2.98743 -1.830554,1.74106 -1.497592,4.39391 -1.361353,6.70148 0.627205,5.57901 1.732217,11.09107 2.682632,16.62104 0.511923,2.94032 0.989761,5.88782 1.364152,8.84924 0.165541,1.30942 0.433821,3.43347 0.406146,4.79445 -0.01304,0.64204 -0.132525,1.27749 -0.19879,1.91624 -0.236558,1.09475 -0.228753,2.55093 -1.105045,3.3937 0,0 -0.09675,0.056 -0.09675,0.056 v 0 c -1.228307,-0.43074 -1.566119,-2.00318 -2.062557,-3.05045 -0.216667,-0.591 -0.478147,-1.16744 -0.649999,-1.77298 -0.35805,-1.26164 -0.673499,-3.39923 -0.878199,-4.65166 -0.474891,-2.90549 -0.940576,-5.81251 -1.437238,-8.71442 -1.0281,-5.70283 -2.1926,-11.3904 -2.90076,-17.14387 -0.278894,-4.4612 -0.213579,-8.23058 3.603842,-11.20959 0.544764,-0.32588 1.067157,-0.69246 1.634289,-0.97763 3.442205,-1.73086 7.395782,-2.08134 11.148293,-2.6016 5.272685,-0.49737 10.557539,-0.80088 15.85455,-0.86536 3.105178,-0.0778 6.213528,-0.12803 9.310268,-0.38842 0,0 0.66736,4.34431 0.66736,4.34431 z"
       inkscape:connector-curvature="0" />
    <path
       style="opacity:1;fill:#000000;fill-opacity:1;stroke:none;stroke-width:0.2;stroke-linejoin:miter;stroke-miterlimit:4;stroke-dasharray:none;stroke-opacity:1"
       id="path4966"
       d="m 93.368303,148.80035 c -4.006021,0.11518 -8.014888,0.12708 -12.022166,0.0875 -3.264924,-0.47642 -6.528676,-0.97274 -9.716987,-1.83295 0,0 -0.0056,-0.11164 -0.0056,-0.11164 v 0 c 3.115439,-1.18002 6.367941,-1.89185 9.64149,-2.48841 3.996302,-0.18477 7.995397,-0.23527 11.995777,-0.24791 0,0 0.107485,4.59339 0.107485,4.59339 z"
       inkscape:connector-curvature="0" />
    <path
       style="opacity:1;fill:#000000;fill-opacity:1;stroke:none;stroke-width:0.2;stroke-linejoin:miter;stroke-miterlimit:4;stroke-dasharray:none;stroke-opacity:1"
       id="path4988"
       d="m 82.183043,194.09035 c 0.780299,4.60201 1.155285,9.26501 1.608635,13.90812 0.418727,5.82007 1.495166,11.5912 1.624116,17.42818 -0.06109,2.2533 -0.260631,4.47303 -0.963769,6.61706 0,0 -0.110715,0.0154 -0.110715,0.0154 v 0 c -1.291132,-1.87646 -2.21887,-3.90856 -2.862471,-6.10604 -1.412989,-5.72589 -1.692424,-11.65413 -2.383729,-17.49646 -0.439209,-4.50623 -0.817978,-9.02158 -1.444787,-13.50679 0,0 4.53272,-0.85949 4.53272,-0.85949 z"
       inkscape:connector-curvature="0" />
    <path
       style="opacity:1;fill:#000000;fill-opacity:1;stroke:none;stroke-width:0.2;stroke-linejoin:miter;stroke-miterlimit:4;stroke-dasharray:none;stroke-opacity:1"
       id="path4990"
       d="m 100.65206,196.80352 c -3.695784,-0.18672 -7.387563,0.0639 -11.0671,0.39075 -5.746543,0.52524 -11.395834,1.71799 -16.980582,3.132 -3.444113,1.02357 -7.057824,1.83325 -10.654967,1.23636 -0.210206,-0.0938 -0.420412,-0.18757 -0.630616,-0.28136 0,0 -0.0218,-0.10964 -0.0218,-0.10964 v 0 c 0.134556,-0.1623 0.269115,-0.32461 0.403672,-0.48691 2.807113,-2.5609 6.033804,-4.05281 9.717042,-4.95684 5.832155,-1.53222 11.747921,-2.73753 17.763355,-3.27327 3.947057,-0.32279 7.928496,-0.62932 11.883016,-0.24314 0,0 -0.41203,4.59205 -0.41203,4.59205 z"
       inkscape:connector-curvature="0" />
  </g>
</svg>
