<?xml version="1.0" encoding="UTF-8" standalone="no"?>
<!-- Created with Inkscape (http://www.inkscape.org/) -->

<svg
   xmlns:dc="http://purl.org/dc/elements/1.1/"
   xmlns:cc="http://creativecommons.org/ns#"
   xmlns:rdf="http://www.w3.org/1999/02/22-rdf-syntax-ns#"
   xmlns:svg="http://www.w3.org/2000/svg"
   xmlns="http://www.w3.org/2000/svg"
   xmlns:sodipodi="http://sodipodi.sourceforge.net/DTD/sodipodi-0.dtd"
   xmlns:inkscape="http://www.inkscape.org/namespaces/inkscape"
   width="1920"
   height="1080"
   viewBox="0 0 507.99999 285.75001"
   version="1.1"
   id="svg8"
   inkscape:version="0.92.2 2405546, 2018-03-11"
   sodipodi:docname="dft-0.svg">
  <defs
     id="defs2" />
  <sodipodi:namedview
     id="base"
     pagecolor="#ffffff"
     bordercolor="#666666"
     borderopacity="1.0"
     inkscape:pageopacity="0.0"
     inkscape:pageshadow="2"
     inkscape:zoom="0.37871094"
     inkscape:cx="912.17111"
     inkscape:cy="513.28447"
     inkscape:document-units="mm"
     inkscape:current-layer="layer1"
     showgrid="false"
     units="px"
     inkscape:window-width="1348"
     inkscape:window-height="730"
     inkscape:window-x="5"
     inkscape:window-y="25"
     inkscape:window-maximized="0" />
  <metadata
     id="metadata5">
    <rdf:RDF>
      <cc:Work
         rdf:about="">
        <dc:format>image/svg+xml</dc:format>
        <dc:type
           rdf:resource="http://purl.org/dc/dcmitype/StillImage" />
        <dc:title></dc:title>
      </cc:Work>
    </rdf:RDF>
  </metadata>
  <g
     inkscape:label="Layer 1"
     inkscape:groupmode="layer"
     id="layer1"
     transform="translate(0,-11.249983)">
    <path
       style="opacity:1;fill:#000000;fill-opacity:1;stroke:none;stroke-width:0.2;stroke-linejoin:miter;stroke-miterlimit:4;stroke-dasharray:none;stroke-opacity:1"
       id="path4946"
       d="m 70.883311,35.398539 c 0.889881,5.701584 1.510937,11.441429 2.208535,17.168761 0.990886,8.389644 2.152489,16.757666 3.223403,25.137086 0.206647,2.401866 0.379709,4.84814 0.127918,7.257076 -0.06178,0.591079 -0.194802,1.385501 -0.487355,1.353037 -0.147288,-0.01635 -0.162999,-0.247539 -0.244498,-0.371308 0,0 0.111709,-0.0041 0.111709,-0.0041 v 0 c -0.07097,0.164515 -0.04751,0.42468 -0.212915,0.493546 -0.477012,0.198604 -0.825722,-0.67128 -1.058185,-1.13274 -1.103326,-2.190173 -1.696435,-4.614735 -2.25769,-6.98279 -1.478984,-8.359519 -2.549377,-16.780978 -3.601455,-25.203301 -0.718135,-5.669169 -1.440389,-11.338115 -2.250879,-16.994955 0,0 4.441412,-0.720332 4.441412,-0.720332 z"
       inkscape:connector-curvature="0" />
    <path
       style="opacity:1;fill:#000000;fill-opacity:1;stroke:none;stroke-width:0.2;stroke-linejoin:miter;stroke-miterlimit:4;stroke-dasharray:none;stroke-opacity:1"
       id="path4948"
       d="M 61.148658,52.100305 C 59.520155,50.61808 58.041,48.647927 58.178871,46.311841 c 0.03441,-0.582975 0.244409,-1.142122 0.366615,-1.71318 0.300318,-0.552169 0.533426,-1.146601 0.900954,-1.656511 2.517793,-3.493222 7.026013,-5.09874 10.873372,-6.533006 5.674143,-1.797662 11.686389,-2.730473 17.625218,-1.87626 1.246204,0.179248 2.467356,0.502768 3.701034,0.754151 6.371717,1.883523 11.815516,5.757227 15.503536,11.320943 0.75312,1.136161 1.34239,2.37281 2.01358,3.559215 2.3147,5.043159 3.40723,10.511303 2.6273,16.0498 -0.51221,3.637401 -1.04492,4.384529 -2.39286,7.759509 -3.15998,5.954853 -8.1978,10.434812 -14.466349,12.928798 -1.119015,0.445209 -2.293329,0.736396 -3.439993,1.104596 -3.670549,0.527209 -7.525327,0.739045 -11.085727,-0.5173 -0.530384,-0.187156 -1.019876,-0.474544 -1.529815,-0.711814 0,0 0.02238,-0.109522 0.02238,-0.109522 v 0 c 3.864182,-0.195728 7.605181,-1.229198 11.141718,-2.793584 6.687833,-2.588718 11.351026,-5.277387 15.061596,-11.683222 0.44077,-1.01591 0.96601,-1.999205 1.32231,-3.047725 1.90028,-5.592101 1.21957,-11.508269 -1.06711,-16.861597 -0.55672,-1.020524 -1.04606,-2.080813 -1.67017,-3.061573 -3.03822,-4.774334 -7.544768,-8.173029 -12.919117,-9.887995 -1.062876,-0.247078 -2.111748,-0.564925 -3.188626,-0.741235 -5.333743,-0.873263 -10.788565,-0.08134 -15.913169,1.470887 -3.37173,1.223434 -7.173835,2.499437 -9.362598,5.533962 -0.68647,1.577123 0.25074,2.572057 1.316762,3.708966 0,0 -2.471052,2.792161 -2.471052,2.792161 z"
       inkscape:connector-curvature="0" />
    <path
       style="opacity:1;fill:#000000;fill-opacity:1;stroke:none;stroke-width:0.2;stroke-linejoin:miter;stroke-miterlimit:4;stroke-dasharray:none;stroke-opacity:1"
       id="path4964"
       d="m 109.86186,118.51437 c -3.24535,0.5594 -6.55214,0.64844 -9.83673,0.76204 -5.183275,0.12334 -10.359874,0.40596 -15.516111,0.95005 -3.65153,0.47822 -7.502604,0.88824 -10.628,2.98743 -1.830554,1.74106 -1.497592,4.39391 -1.361353,6.70148 0.627205,5.57901 1.732217,11.09107 2.682632,16.62104 0.511923,2.94032 0.989761,5.88782 1.364152,8.84924 0.165541,1.30942 0.433821,3.43347 0.406146,4.79445 -0.01304,0.64204 -0.132525,1.27749 -0.19879,1.91624 -0.236558,1.09475 -0.228753,2.55093 -1.105045,3.3937 0,0 -0.09675,0.056 -0.09675,0.056 v 0 c -1.228307,-0.43074 -1.566119,-2.00318 -2.062557,-3.05045 -0.216667,-0.591 -0.478147,-1.16744 -0.649999,-1.77298 -0.35805,-1.26164 -0.673499,-3.39923 -0.878199,-4.65166 -0.474891,-2.90549 -0.940576,-5.81251 -1.437238,-8.71442 -1.0281,-5.70283 -2.1926,-11.3904 -2.90076,-17.14387 -0.278894,-4.4612 -0.213579,-8.23058 3.603842,-11.20959 0.544764,-0.32588 1.067157,-0.69246 1.634289,-0.97763 3.442205,-1.73086 7.395782,-2.08134 11.148293,-2.6016 5.272685,-0.49737 10.557539,-0.80088 15.85455,-0.86536 3.105178,-0.0778 6.213528,-0.12803 9.310268,-0.38842 0,0 0.66736,4.34431 0.66736,4.34431 z"
       inkscape:connector-curvature="0" />
    <path
       style="opacity:1;fill:#000000;fill-opacity:1;stroke:none;stroke-width:0.2;stroke-linejoin:miter;stroke-miterlimit:4;stroke-dasharray:none;stroke-opacity:1"
       id="path4966"
       d="m 93.368303,148.80035 c -4.006021,0.11518 -8.014888,0.12708 -12.022166,0.0875 -3.264924,-0.47642 -6.528676,-0.97274 -9.716987,-1.83295 0,0 -0.0056,-0.11164 -0.0056,-0.11164 v 0 c 3.115439,-1.18002 6.367941,-1.89185 9.64149,-2.48841 3.996302,-0.18477 7.995397,-0.23527 11.995777,-0.24791 0,0 0.107485,4.59339 0.107485,4.59339 z"
       inkscape:connector-curvature="0" />
    <path
       style="opacity:1;fill:#000000;fill-opacity:1;stroke:none;stroke-width:0.2;stroke-linejoin:miter;stroke-miterlimit:4;stroke-dasharray:none;stroke-opacity:1"
       id="path4988"
       d="m 82.183043,194.09035 c 0.780299,4.60201 1.155285,9.26501 1.608635,13.90812 0.418727,5.82007 1.495166,11.5912 1.624116,17.42818 -0.06109,2.2533 -0.260631,4.47303 -0.963769,6.61706 0,0 -0.110715,0.0154 -0.110715,0.0154 v 0 c -1.291132,-1.87646 -2.21887,-3.90856 -2.862471,-6.10604 -1.412989,-5.72589 -1.692424,-11.65413 -2.383729,-17.49646 -0.439209,-4.50623 -0.817978,-9.02158 -1.444787,-13.50679 0,0 4.53272,-0.85949 4.53272,-0.85949 z"
       inkscape:connector-curvature="0" />
    <path
       style="opacity:1;fill:#000000;fill-opacity:1;stroke:none;stroke-width:0.2;stroke-linejoin:miter;stroke-miterlimit:4;stroke-dasharray:none;stroke-opacity:1"
       id="path4990"
       d="m 100.65206,196.80352 c -3.695784,-0.18672 -7.387563,0.0639 -11.0671,0.39075 -5.746543,0.52524 -11.395834,1.71799 -16.980582,3.132 -3.444113,1.02357 -7.057824,1.83325 -10.654967,1.23636 -0.210206,-0.0938 -0.420412,-0.18757 -0.630616,-0.28136 0,0 -0.0218,-0.10964 -0.0218,-0.10964 v 0 c 0.134556,-0.1623 0.269115,-0.32461 0.403672,-0.48691 2.807113,-2.5609 6.033804,-4.05281 9.717042,-4.95684 5.832155,-1.53222 11.747921,-2.73753 17.763355,-3.27327 3.947057,-0.32279 7.928496,-0.62932 11.883016,-0.24314 0,0 -0.41203,4.59205 -0.41203,4.59205 z"
       inkscape:connector-curvature="0" />
  </g>
</svg>
