<?xml version="1.0" encoding="UTF-8" standalone="no"?>
<!-- Created with Inkscape (http://www.inkscape.org/) -->

<svg
   xmlns:dc="http://purl.org/dc/elements/1.1/"
   xmlns:cc="http://creativecommons.org/ns#"
   xmlns:rdf="http://www.w3.org/1999/02/22-rdf-syntax-ns#"
   xmlns:svg="http://www.w3.org/2000/svg"
   xmlns="http://www.w3.org/2000/svg"
   xmlns:sodipodi="http://sodipodi.sourceforge.net/DTD/sodipodi-0.dtd"
   xmlns:inkscape="http://www.inkscape.org/namespaces/inkscape"
   width="1920"
   height="1080"
   viewBox="0 0 507.99999 285.75001"
   version="1.1"
   id="svg8"
   inkscape:version="0.92.2 2405546, 2018-03-11"
   sodipodi:docname="dft-2.svg">
  <defs
     id="defs2" />
  <sodipodi:namedview
     id="base"
     pagecolor="#ffffff"
     bordercolor="#666666"
     borderopacity="1.0"
     inkscape:pageopacity="0.0"
     inkscape:pageshadow="2"
     inkscape:zoom="0.37871094"
     inkscape:cx="912.17111"
     inkscape:cy="513.28447"
     inkscape:document-units="mm"
     inkscape:current-layer="layer1"
     showgrid="false"
     units="px"
     inkscape:window-width="1348"
     inkscape:window-height="730"
     inkscape:window-x="5"
     inkscape:window-y="25"
     inkscape:window-maximized="0" />
  <metadata
     id="metadata5">
    <rdf:RDF>
      <cc:Work
         rdf:about="">
        <dc:format>image/svg+xml</dc:format>
        <dc:type
           rdf:resource="http://purl.org/dc/dcmitype/StillImage" />
        <dc:title></dc:title>
      </cc:Work>
    </rdf:RDF>
  </metadata>
  <g
     inkscape:label="Layer 1"
     inkscape:groupmode="layer"
     id="layer1"
     transform="translate(0,-11.249983)">
    <path
       style="opacity:1;fill:#000000;fill-opacity:1;stroke:none;stroke-width:0.2;stroke-linejoin:miter;stroke-miterlimit:4;stroke-dasharray:none;stroke-opacity:1"
       id="path4946"
       d="m 70.883311,35.398539 c 0.889881,5.701584 1.510937,11.441429 2.208535,17.168761 0.990886,8.389644 2.152489,16.757666 3.223403,25.137086 0.206647,2.401866 0.379709,4.84814 0.127918,7.257076 -0.06178,0.591079 -0.194802,1.385501 -0.487355,1.353037 -0.147288,-0.01635 -0.162999,-0.247539 -0.244498,-0.371308 0,0 0.111709,-0.0041 0.111709,-0.0041 v 0 c -0.07097,0.164515 -0.04751,0.42468 -0.212915,0.493546 -0.477012,0.198604 -0.825722,-0.67128 -1.058185,-1.13274 -1.103326,-2.190173 -1.696435,-4.614735 -2.25769,-6.98279 -1.478984,-8.359519 -2.549377,-16.780978 -3.601455,-25.203301 -0.718135,-5.669169 -1.440389,-11.338115 -2.250879,-16.994955 0,0 4.441412,-0.720332 4.441412,-0.720332 z"
       inkscape:connector-curvature="0" />
    <path
       style="opacity:1;fill:#000000;fill-opacity:1;stroke:none;stroke-width:0.2;stroke-linejoin:miter;stroke-miterlimit:4;stroke-dasharray:none;stroke-opacity:1"
       id="path4948"
       d="M 61.148658,52.100305 C 59.520155,50.61808 58.041,48.647927 58.178871,46.311841 c 0.03441,-0.582975 0.244409,-1.142122 0.366615,-1.71318 0.300318,-0.552169 0.533426,-1.146601 0.900954,-1.656511 2.517793,-3.493222 7.026013,-5.09874 10.873372,-6.533006 5.674143,-1.797662 11.686389,-2.730473 17.625218,-1.87626 1.246204,0.179248 2.467356,0.502768 3.701034,0.754151 6.371717,1.883523 11.815516,5.757227 15.503536,11.320943 0.75312,1.136161 1.34239,2.37281 2.01358,3.559215 2.3147,5.043159 3.40723,10.511303 2.6273,16.0498 -0.51221,3.637401 -1.04492,4.384529 -2.39286,7.759509 -3.15998,5.954853 -8.1978,10.434812 -14.466349,12.928798 -1.119015,0.445209 -2.293329,0.736396 -3.439993,1.104596 -3.670549,0.527209 -7.525327,0.739045 -11.085727,-0.5173 -0.530384,-0.187156 -1.019876,-0.474544 -1.529815,-0.711814 0,0 0.02238,-0.109522 0.02238,-0.109522 v 0 c 3.864182,-0.195728 7.605181,-1.229198 11.141718,-2.793584 6.687833,-2.588718 11.351026,-5.277387 15.061596,-11.683222 0.44077,-1.01591 0.96601,-1.999205 1.32231,-3.047725 1.90028,-5.592101 1.21957,-11.508269 -1.06711,-16.861597 -0.55672,-1.020524 -1.04606,-2.080813 -1.67017,-3.061573 -3.03822,-4.774334 -7.544768,-8.173029 -12.919117,-9.887995 -1.062876,-0.247078 -2.111748,-0.564925 -3.188626,-0.741235 -5.333743,-0.873263 -10.788565,-0.08134 -15.913169,1.470887 -3.37173,1.223434 -7.173835,2.499437 -9.362598,5.533962 -0.68647,1.577123 0.25074,2.572057 1.316762,3.708966 0,0 -2.471052,2.792161 -2.471052,2.792161 z"
       inkscape:connector-curvature="0" />
    <path
       style="opacity:1;fill:#000000;fill-opacity:1;stroke:none;stroke-width:0.2;stroke-linejoin:miter;stroke-miterlimit:4;stroke-dasharray:none;stroke-opacity:1"
       id="path4950"
       d="m 122.41677,67.340651 c 2.31319,-0.108759 4.44222,-0.797554 6.40038,-2.00824 1.05644,-0.884081 2.83352,-2.388664 2.31485,-3.983884 -0.0529,0.01206 -0.13656,-0.01336 -0.15873,0.03616 -0.24875,0.55575 0.20964,0.0628 0.0867,0.568286 -0.0116,0.04753 -1.26778,0.781518 -1.53425,0.95482 -2.37698,1.822815 -3.35803,4.121348 -3.70971,7.023036 -0.0661,2.921757 1.14807,5.354442 3.35775,7.196693 2.24043,1.378202 3.74597,0.797761 5.68876,-0.695266 2.39868,-2.191915 3.6977,-5.165635 4.73554,-8.177689 0.22846,-0.667983 0.94835,-4.19223 1.90439,-4.254037 3.4427,-0.222565 3.1782,0.210846 3.88858,2.175285 0.60742,3.009641 1.07727,6.044528 1.66311,9.0586 0.32846,0.905598 0.26046,2.08596 0.83734,2.911338 0.0428,0.06117 0.0353,-0.179769 -0.026,-0.222404 -0.47155,-0.328149 -0.93977,-0.732589 -1.50372,-0.842115 -0.39601,-0.07691 -0.77744,0.21572 -1.16617,0.32358 1.13241,-2.618383 2.00319,-5.338522 2.98579,-8.014817 0.92427,-2.032484 1.9418,-5.858499 4.77912,-6.032624 0.70589,-0.04332 1.38224,0.30009 2.07336,0.450136 0.44856,0.411162 0.94859,0.772427 1.34568,1.233492 1.55384,1.804168 2.98635,5.756095 3.97633,8.002006 0.24129,0.53971 0.48424,1.078682 0.72388,1.619128 0.21354,0.481605 0.45677,0.951489 0.63566,1.447014 0.40459,1.120741 0.48949,2.315207 1.15094,3.329067 0.18172,0.03234 0.36346,0.06467 0.54519,0.097 0,0 0.0413,0.103857 0.0413,0.103857 v 0 c -0.2474,0.203168 -0.4948,0.406334 -0.74219,0.609502 -0.36747,0.04729 -0.73425,0.183544 -1.1024,0.14188 -2.69323,-0.3048 -4.3023,-3.403875 -5.31058,-5.526048 -0.73779,-1.614929 -1.4319,-3.2567 -2.21159,-4.851992 -0.31931,-0.653331 -0.77221,-1.241134 -1.04339,-1.915864 -0.0221,-0.05506 0.0427,-0.110747 0.064,-0.166119 0.43565,-0.07525 1.00683,-0.0092 1.20345,-0.548145 0.0365,-0.100047 -0.21721,0.05442 -0.29154,0.130691 -0.20702,0.212447 -0.37833,0.459724 -0.53139,0.713817 -0.521,0.864907 -0.83971,1.732282 -1.23137,2.664187 -1.18091,3.19455 -2.04127,6.552372 -3.68218,9.545135 -0.65833,0.408318 -1.20415,1.147934 -1.97499,1.224954 -3.14615,0.314357 -3.5058,-3.555836 -3.92643,-5.619101 -0.50146,-2.873436 -0.93468,-5.763041 -1.58287,-8.607965 0.90192,-0.713528 -1.1015,0.843449 3.0871,0.197117 0.31319,-0.04833 0.32154,-0.547854 0.51273,-0.800581 0.0926,-0.12246 -0.15855,0.264588 -0.21521,0.407305 -0.20453,0.515135 -0.67622,2.052388 -0.8032,2.454716 -1.38107,3.831903 -3.11648,7.56239 -6.24706,10.295888 -0.57772,0.400396 -1.11705,0.862859 -1.73318,1.201192 -3.15866,1.734497 -6.58057,1.279488 -9.45936,-0.748138 -0.49221,-0.454091 -1.0261,-0.866804 -1.47663,-1.362268 -2.43527,-2.678131 -3.45141,-6.199431 -3.309,-9.763199 0.10872,-0.706803 0.16017,-1.424824 0.32616,-2.120411 0.79006,-3.3108 2.81019,-6.108882 5.55813,-8.069691 0.50971,-0.277416 0.99503,-0.605293 1.52912,-0.832247 2.13562,-0.907505 4.74825,-0.829167 6.03049,1.416511 0.24854,0.435295 0.2937,0.958519 0.44055,1.437777 -0.008,0.476721 0.0426,0.957919 -0.023,1.430163 -0.36898,2.655295 -2.33203,4.732732 -4.39139,6.251937 -2.56821,1.508345 -5.32189,2.502244 -8.33438,2.563895 0,0 -0.16453,-4.053322 -0.16453,-4.053322 z"
       inkscape:connector-curvature="0" />
    <path
       style="opacity:1;fill:#000000;fill-opacity:1;stroke:none;stroke-width:0.2;stroke-linejoin:miter;stroke-miterlimit:4;stroke-dasharray:none;stroke-opacity:1"
       id="path4952"
       d="m 176.14267,62.948013 c -2.31803,0.09671 -4.44785,0.864414 -6.34179,2.173753 -0.72328,0.62611 -1.58051,1.433885 -0.84132,2.313932 1.32477,1.424847 3.04812,2.414256 4.65704,3.482604 1.87823,1.350119 3.8322,2.981891 4.39762,5.346531 0.11617,0.485873 0.11362,0.992656 0.17042,1.488982 -0.40022,3.428069 -2.46133,4.986761 -5.6319,5.77492 -2.07266,0.243319 -4.3509,-0.749069 -4.46322,-3.127914 -0.0157,-0.332619 0.10803,-0.657162 0.16204,-0.985743 0.0884,-0.265882 0.1769,-0.531764 0.26535,-0.79765 0,0 0.11154,0.0073 0.11154,0.0073 v 0 c 0.0568,0.217577 0.11353,0.435155 0.17029,0.652735 1.2256,0.811453 1.44267,-0.07586 2.71036,-0.127876 0.80413,-0.172079 1.66273,-0.427524 2.13001,-1.16164 0.37815,-1.496266 -1.58408,-2.602269 -2.52213,-3.370617 -2.29578,-1.57979 -4.87552,-2.917377 -6.3071,-5.420698 -0.17169,-0.477229 -0.41251,-0.934993 -0.51507,-1.431687 -0.55273,-2.676853 1.07315,-4.854787 3.08392,-6.389762 2.68366,-1.658379 5.62766,-2.696204 8.81695,-2.718577 0,0 -0.053,4.291396 -0.053,4.291396 z"
       inkscape:connector-curvature="0" />
    <path
       style="opacity:1;fill:#000000;fill-opacity:1;stroke:none;stroke-width:0.2;stroke-linejoin:miter;stroke-miterlimit:4;stroke-dasharray:none;stroke-opacity:1"
       id="path4954"
       d="m 187.25697,65.465515 c 0.42514,2.815127 0.79135,5.639133 1.12048,8.467045 0.16534,1.209117 0.18867,4.876406 -1.11132,5.558131 0,0 -0.0977,0.05437 -0.0977,0.05437 v 0 c -0.14243,-0.0071 -0.29712,0.03705 -0.42728,-0.02122 -0.93909,-0.420317 -1.98556,-2.620052 -2.26364,-3.499948 -0.15557,-0.492249 -0.1967,-1.013587 -0.29504,-1.52038 -0.43576,-2.795966 -0.78605,-5.602156 -1.11907,-8.412068 0,0 4.19354,-0.625935 4.19354,-0.625935 z"
       inkscape:connector-curvature="0" />
    <path
       style="opacity:1;fill:#000000;fill-opacity:1;stroke:none;stroke-width:0.2;stroke-linejoin:miter;stroke-miterlimit:4;stroke-dasharray:none;stroke-opacity:1"
       id="path4956"
       d="m 200.57353,40.727545 c 0.0875,4.710483 0.39277,9.411637 0.71528,14.110594 0.40829,6.548356 1.39875,13.060169 1.51589,19.623233 -0.15481,1.85602 -0.16334,3.764473 -0.65242,5.577776 -0.10164,0.376841 -0.28452,0.727491 -0.40305,1.099365 0,0 -0.11077,0.01503 -0.11077,0.01503 v 0 c -1.21675,-1.936872 -1.87075,-4.107064 -2.42676,-6.321325 -1.23347,-6.490313 -1.61889,-13.109053 -2.23128,-19.679033 -0.37276,-4.80677 -0.71944,-9.626343 -0.65163,-14.450909 0,0 4.24474,0.02527 4.24474,0.02527 z"
       inkscape:connector-curvature="0" />
    <path
       style="opacity:1;fill:#000000;fill-opacity:1;stroke:none;stroke-width:0.2;stroke-linejoin:miter;stroke-miterlimit:4;stroke-dasharray:none;stroke-opacity:1"
       id="path4958"
       d="m 208.82248,66.464457 c -3.21673,0.173088 -6.44148,0.110779 -9.65718,-0.04644 -2.7381,-0.478976 -5.41576,-1.229776 -8.12846,-1.819585 0,0 -0.005,-0.111678 -0.005,-0.111678 v 0 c 2.67956,-0.827283 5.34966,-1.679609 8.12266,-2.155555 3.17757,-0.17158 6.3601,-0.214193 9.54204,-0.167465 0,0 0.12579,4.300722 0.12579,4.300722 z"
       inkscape:connector-curvature="0" />
    <path
       style="opacity:1;fill:#000000;fill-opacity:1;stroke:none;stroke-width:0.2;stroke-linejoin:miter;stroke-miterlimit:4;stroke-dasharray:none;stroke-opacity:1"
       id="path4960"
       d="m 216.36835,67.017757 c 0.53278,1.272026 1.31271,2.542799 2.73633,2.850224 1.31966,0.02948 2.10334,-1.008761 2.71065,-2.042769 0.6158,-1.148945 0.58279,-2.44448 0.81138,-3.686299 0.36022,-0.403773 0.54291,-1.151298 1.08068,-1.211318 0.90839,-0.101386 1.82826,0.347178 2.62343,0.797898 0.64384,0.364943 1.68698,4.73092 1.86541,5.387793 1.21843,4.749456 2.21224,9.607079 2.42789,14.519753 0.0489,1.114822 0.0114,2.231761 0.0171,3.347641 -0.23517,3.971089 -0.96023,8.289756 -4.74413,10.463133 -2.11667,1.215763 -2.97091,0.946351 -5.31109,1.007451 -3.78516,-0.907319 -1.87631,-0.406905 -5.7247,-1.508212 0,0 0.0305,-0.107545 0.0305,-0.107545 v 0 c 3.7516,1.053719 1.90329,0.89323 5.53166,0.615529 1.65739,-0.569042 2.35361,-0.565377 3.56617,-1.847927 2.11833,-2.240581 2.43235,-5.741804 2.75926,-8.612449 0.001,-5.750502 -0.72259,-11.273001 -2.32639,-16.806145 -0.52938,-1.782794 -0.41879,-1.459997 -0.9354,-3.038314 -0.20106,-0.614272 -0.36503,-1.024826 -0.30244,-1.021641 2.86658,0.145884 1.69299,1.045867 3.06679,-0.77293 -0.50105,0.439722 -1.06485,3.737142 -1.83139,4.192501 -1.49578,2.11443 -3.40591,3.674001 -6.15072,3.384534 -2.75688,-0.815425 -3.85677,-2.070333 -5.113,-4.604163 0,0 3.21205,-1.306745 3.21205,-1.306745 z"
       inkscape:connector-curvature="0" />
    <path
       style="opacity:1;fill:#000000;fill-opacity:1;stroke:none;stroke-width:0.2;stroke-linejoin:miter;stroke-miterlimit:4;stroke-dasharray:none;stroke-opacity:1"
       id="path4962"
       d="m 188.63629,51.719752 c -0.31113,-0.252222 -1.79761,1.111539 -1.14031,1.240057 0.28746,-0.04969 0.46938,-0.25827 0.66879,-0.452781 0.58388,-0.717518 0.45793,-1.582806 0.1592,-2.388508 -0.68472,-1.541867 -1.07737,-2.583748 -2.36712,-3.751265 -0.22321,-0.05293 -0.44642,-0.105852 -0.66963,-0.158779 0,0 0.005,-0.111675 0.005,-0.111675 v 0 c 0.24744,-0.03212 0.49488,-0.06425 0.74232,-0.09637 2.67608,-0.607518 5.22771,0.310425 6.31887,2.976219 0.12253,0.484822 0.30333,0.958545 0.36758,1.454467 0.3342,2.579632 -0.92349,4.858385 -3.18399,6.057855 -0.45303,0.125039 -0.89243,0.319445 -1.35908,0.375121 -2.52774,0.301575 -4.44954,-1.429996 -4.90264,-3.815379 0.0282,-0.46087 -0.0162,-0.932027 0.0846,-1.382609 0.48099,-2.148941 2.40877,-3.396054 4.38704,-3.955442 0,0 0.8894,4.009091 0.8894,4.009091 z"
       inkscape:connector-curvature="0" />
    <path
       style="opacity:1;fill:#000000;fill-opacity:1;stroke:none;stroke-width:0.2;stroke-linejoin:miter;stroke-miterlimit:4;stroke-dasharray:none;stroke-opacity:1"
       id="path4964"
       d="m 109.86186,118.51437 c -3.24535,0.5594 -6.55214,0.64844 -9.83673,0.76204 -5.183275,0.12334 -10.359874,0.40596 -15.516111,0.95005 -3.65153,0.47822 -7.502604,0.88824 -10.628,2.98743 -1.830554,1.74106 -1.497592,4.39391 -1.361353,6.70148 0.627205,5.57901 1.732217,11.09107 2.682632,16.62104 0.511923,2.94032 0.989761,5.88782 1.364152,8.84924 0.165541,1.30942 0.433821,3.43347 0.406146,4.79445 -0.01304,0.64204 -0.132525,1.27749 -0.19879,1.91624 -0.236558,1.09475 -0.228753,2.55093 -1.105045,3.3937 0,0 -0.09675,0.056 -0.09675,0.056 v 0 c -1.228307,-0.43074 -1.566119,-2.00318 -2.062557,-3.05045 -0.216667,-0.591 -0.478147,-1.16744 -0.649999,-1.77298 -0.35805,-1.26164 -0.673499,-3.39923 -0.878199,-4.65166 -0.474891,-2.90549 -0.940576,-5.81251 -1.437238,-8.71442 -1.0281,-5.70283 -2.1926,-11.3904 -2.90076,-17.14387 -0.278894,-4.4612 -0.213579,-8.23058 3.603842,-11.20959 0.544764,-0.32588 1.067157,-0.69246 1.634289,-0.97763 3.442205,-1.73086 7.395782,-2.08134 11.148293,-2.6016 5.272685,-0.49737 10.557539,-0.80088 15.85455,-0.86536 3.105178,-0.0778 6.213528,-0.12803 9.310268,-0.38842 0,0 0.66736,4.34431 0.66736,4.34431 z"
       inkscape:connector-curvature="0" />
    <path
       style="opacity:1;fill:#000000;fill-opacity:1;stroke:none;stroke-width:0.2;stroke-linejoin:miter;stroke-miterlimit:4;stroke-dasharray:none;stroke-opacity:1"
       id="path4966"
       d="m 93.368303,148.80035 c -4.006021,0.11518 -8.014888,0.12708 -12.022166,0.0875 -3.264924,-0.47642 -6.528676,-0.97274 -9.716987,-1.83295 0,0 -0.0056,-0.11164 -0.0056,-0.11164 v 0 c 3.115439,-1.18002 6.367941,-1.89185 9.64149,-2.48841 3.996302,-0.18477 7.995397,-0.23527 11.995777,-0.24791 0,0 0.107485,4.59339 0.107485,4.59339 z"
       inkscape:connector-curvature="0" />
    <path
       style="opacity:1;fill:#000000;fill-opacity:1;stroke:none;stroke-width:0.2;stroke-linejoin:miter;stroke-miterlimit:4;stroke-dasharray:none;stroke-opacity:1"
       id="path4968"
       d="m 126.3851,149.59227 c -0.32835,1.74673 -0.0906,3.47837 0.7182,5.05202 0.81442,1.05159 0.83585,0.8081 1.59941,0.16174 1.47991,-1.40574 2.20232,-3.33523 2.88483,-5.20921 0.66694,-2.2112 1.15107,-3.27545 4.32885,-2.41795 0.50957,0.13751 0.9532,1.53979 1.13889,2.04198 0.65371,1.83076 1.55823,3.5275 2.82063,5.00587 0.047,0.0121 0.84769,0.86651 1.07695,0.60103 0.0163,-0.0189 -0.17028,-0.23446 -0.12785,-0.35711 0.93105,-1.2461 1.46387,-2.73338 2.07403,-4.1511 0.7603,-1.67562 1.89483,-3.50703 4.03399,-3.37664 0.50509,0.0308 0.96615,0.30137 1.44921,0.45206 2.22202,1.51314 3.20552,4.007 4.02493,6.46222 0.46411,1.04921 0.46696,2.26359 0.90903,3.31671 0.0223,0.0531 0.0339,-0.16494 -0.0233,-0.17103 -1.35809,-0.14454 -2.72572,-0.17772 -4.08858,-0.26658 0.52834,-2.10617 1.222,-4.14772 2.12145,-6.1233 1.01628,-1.91841 2.49238,-4.10496 4.9071,-4.26149 0.51943,-0.0337 1.03405,0.12057 1.55107,0.18085 2.76845,1.11428 4.15551,3.73049 5.4181,6.26811 0.77778,0.88517 0.27366,3.8721 0.74026,4.76515 0.0702,0.13435 0.2451,0.17845 0.36765,0.26768 0,0 -0.0309,0.10742 -0.0309,0.10742 v 0 c -2.2643,-0.0667 -3.62818,-1.36744 -4.97205,-3.08418 -0.7637,-1.35667 -1.53786,-2.74618 -2.4832,-3.96883 0.12288,-0.13016 0.27351,-0.44544 -0.13807,-0.21869 -0.66863,0.36836 -1.01032,1.11643 -1.38157,1.73753 -0.83977,1.88647 -1.38719,3.8528 -1.81436,5.87109 -1.46647,0.19924 -2.91948,0.59332 -4.39943,0.59771 -0.20657,5.3e-4 -0.151,-0.38527 -0.20729,-0.58403 -0.28244,-0.99729 -0.3679,-2.05312 -0.71103,-3.03676 -0.42538,-1.3083 -0.91747,-2.70146 -1.69162,-3.82862 0.3269,-0.012 1.16684,-0.038 1.19951,-0.52386 0.0297,-0.44115 -1.07049,1.66691 -0.75045,1.16838 -0.91201,2.07932 -1.68761,4.27863 -3.34901,5.90308 -0.38061,0.26304 -0.72466,0.5891 -1.14185,0.78913 -2.23905,1.07359 -4.40314,0.003 -5.97317,-1.64914 -1.56396,-1.85837 -2.77109,-3.94926 -3.60081,-6.23836 -0.0746,-0.1717 -0.3844,-0.41903 -0.22373,-0.51509 0.16725,-0.1 0.24345,0.38655 0.43831,0.3868 0.98698,0.001 1.98465,-0.12015 2.93615,-0.38242 0.17295,-0.0477 0.15174,-0.32516 0.22503,-0.48891 0.18127,-0.40499 -1.13837,2.46016 -0.49939,1.23391 -1.02898,2.82567 -2.31761,5.61262 -4.73101,7.5256 -0.48635,0.26617 -0.93791,0.6093 -1.45905,0.7985 -2.75268,0.99941 -5.19831,-0.51638 -6.56846,-2.86457 -1.13634,-2.5666 -1.58639,-5.25096 -0.95178,-8.0289 0,0 4.35434,1.0522 4.35434,1.0522 z"
       inkscape:connector-curvature="0" />
    <path
       style="opacity:1;fill:#000000;fill-opacity:1;stroke:none;stroke-width:0.2;stroke-linejoin:miter;stroke-miterlimit:4;stroke-dasharray:none;stroke-opacity:1"
       id="path4970"
       d="m 176.49638,147.42533 c -1.58677,-0.30918 -3.15871,-0.0697 -4.32117,1.09646 -0.78678,1.27003 0.0784,2.50262 0.85,3.5443 2.19578,2.20228 -0.75579,-0.70102 1.72747,1.54379 0.33746,0.30505 0.61807,0.67055 0.96383,0.96615 1.20948,1.03402 2.54754,1.59726 4.01783,2.14688 0.52728,0.0737 1.05456,0.14733 1.58183,0.221 0,0 0.007,0.11153 0.007,0.11153 v 0 c -0.54562,0.14535 -1.09124,0.29071 -1.63686,0.43606 -2.43779,0.48659 -5.16354,0.77219 -7.52161,-0.30588 -1.28267,-0.58642 -2.01225,-1.49048 -2.97878,-2.45851 -0.3517,-0.52508 -0.76113,-1.0158 -1.05509,-1.57525 -1.5682,-2.98452 -1.0997,-5.87713 1.19087,-8.28055 0.45656,-0.32241 0.88223,-0.69375 1.36967,-0.96722 2.18689,-1.22692 4.79439,-1.27914 7.15989,-0.62926 0,0 -1.35533,4.1505 -1.35533,4.1505 z"
       inkscape:connector-curvature="0" />
    <path
       style="opacity:1;fill:#000000;fill-opacity:1;stroke:none;stroke-width:0.2;stroke-linejoin:miter;stroke-miterlimit:4;stroke-dasharray:none;stroke-opacity:1"
       id="path4972"
       d="m 190.02443,115.7357 c 0.0516,4.12426 0.22717,8.246 0.45858,12.3637 0.30168,5.74111 0.81857,11.46751 1.16051,17.20599 -0.0103,2.20835 -0.41334,4.35359 -0.91148,6.48854 0,0 -0.1011,0.0477 -0.1011,0.0477 v 0 c -1.9451,-1.36326 -2.36106,-4.0262 -3.04916,-6.13509 -0.79136,-5.76281 -1.12209,-11.57252 -1.47863,-17.37563 -0.21059,-4.24915 -0.49241,-8.50899 -0.30597,-12.76412 0,0 4.22725,0.16891 4.22725,0.16891 z"
       inkscape:connector-curvature="0" />
    <path
       style="opacity:1;fill:#000000;fill-opacity:1;stroke:none;stroke-width:0.2;stroke-linejoin:miter;stroke-miterlimit:4;stroke-dasharray:none;stroke-opacity:1"
       id="path4974"
       d="m 200.87373,138.45453 c -3.26459,0.29207 -6.54188,0.40614 -9.81595,0.53632 -3.64999,0.29427 -6.50019,0.12037 -9.94444,-1.10459 -0.96231,-0.49797 -0.52137,-0.31839 -1.30098,-0.58952 0,0 0.006,-0.1116 0.006,-0.1116 v 0 c 0.76994,-0.18388 0.33943,-0.0352 1.25406,-0.5426 1.27637,-0.5712 2.59933,-1.15964 3.96278,-1.49159 1.90232,-0.46314 3.87479,-0.44568 5.81267,-0.60726 3.20636,-0.17473 6.41424,-0.32168 9.61995,-0.50705 0,0 0.40555,4.41789 0.40555,4.41789 z"
       inkscape:connector-curvature="0" />
    <path
       style="opacity:1;fill:#000000;fill-opacity:1;stroke:none;stroke-width:0.2;stroke-linejoin:miter;stroke-miterlimit:4;stroke-dasharray:none;stroke-opacity:1"
       id="path4976"
       d="m 210.36824,144.08391 c 0.25077,2.11721 0.58986,4.22391 0.74713,6.35097 -0.0278,1.12356 -0.64157,2.26704 -2.06261,1.69854 -0.1487,-0.0595 0.097,-0.30529 0.1455,-0.45794 0,0 0.1117,-0.004 0.1117,-0.004 v 0 c 0.80171,2.16586 -2.86034,0.46059 -2.45155,-0.60919 -0.46898,-2.13411 -0.69697,-4.30795 -0.94082,-6.47732 0,0 4.45065,-0.50098 4.45065,-0.50098 z"
       inkscape:connector-curvature="0" />
    <path
       style="opacity:1;fill:#000000;fill-opacity:1;stroke:none;stroke-width:0.2;stroke-linejoin:miter;stroke-miterlimit:4;stroke-dasharray:none;stroke-opacity:1"
       id="path4978"
       d="m 224.55918,142.80413 c -1.1417,0.95336 -1.98184,2.22539 -1.78594,3.7489 0.30098,0.98427 1.05441,1.44517 2.04455,1.46822 0.99033,-0.20522 1.2393,-1.0153 1.31847,-1.91771 -0.0453,-1.43717 -0.81309,-2.61223 -1.69604,-3.68574 -0.73897,-0.71169 -0.84149,-1.14987 -0.27592,-2.01079 0,0 0.3176,-1.41583 0.3176,-1.41583 v 0 c 1.38779,-0.67581 2.16776,-0.43718 3.21167,0.6937 1.76051,2.06878 2.90147,4.44734 2.66226,7.23444 -0.11364,0.49123 -0.16999,0.99935 -0.34092,1.4737 -0.90748,2.51838 -3.18932,3.92499 -5.8033,3.9136 -0.477,-0.0845 -0.96784,-0.11157 -1.431,-0.25351 -2.51837,-0.77176 -4.04315,-2.92792 -4.39153,-5.45961 0.0173,-0.50247 -0.0168,-1.00937 0.0521,-1.50741 0.32367,-2.34121 1.77953,-4.27438 3.54475,-5.75163 0,0 2.57327,3.46967 2.57327,3.46967 z"
       inkscape:connector-curvature="0" />
    <path
       style="opacity:1;fill:#000000;fill-opacity:1;stroke:none;stroke-width:0.2;stroke-linejoin:miter;stroke-miterlimit:4;stroke-dasharray:none;stroke-opacity:1"
       id="path4980"
       d="m 233.67778,140.90337 c 1.58998,1.85131 2.73729,4.01643 3.76848,6.21319 0.24732,0.45598 0.3973,0.96004 0.63917,1.41896 0.0342,0.0649 0.1812,0.23071 0.13354,0.17494 -1.01352,-1.18618 -1.98719,-1.85329 -3.48859,-0.19906 0.56445,-2.08846 1.44371,-4.04041 2.48342,-5.92973 1.20851,-1.84729 2.70269,-3.99302 4.98981,-4.57474 0.47981,-0.12204 0.98461,-0.10467 1.47693,-0.15701 0.50478,0.12869 1.03829,0.17455 1.51434,0.38608 2.30963,1.02625 3.33355,3.65913 4.20899,5.82517 0.42463,1.5414 1.21384,3.14592 1.05575,4.79097 -0.0585,0.60861 -0.28602,1.10666 -0.49855,1.66484 -0.0217,0.48538 -0.59382,0.63073 -0.6507,1.07297 0,0 -0.0868,0.0704 -0.0868,0.0704 v 0 c -0.45209,-0.21599 -0.92359,-0.32787 -1.27577,-0.72222 -0.39412,-0.38537 -0.82357,-0.76564 -1.12244,-1.23676 -0.77597,-1.22318 -0.83949,-2.76008 -1.43544,-4.06107 -0.36336,-0.95643 -0.38577,-1.09692 -0.83589,-1.98152 -0.16542,-0.32509 -0.72851,-0.95885 -0.80394,-1.34876 -0.009,-0.0467 0.0238,-0.0922 0.0357,-0.13829 -0.52484,-0.75403 -2.61242,2.06 -2.83453,2.4786 -0.96331,1.72773 -1.65754,3.55467 -2.14583,5.47261 -0.8812,1.6228 -0.65189,1.90586 -3.53951,1.58622 -0.97583,-0.10802 -1.37284,-2.17982 -1.71633,-2.84007 -0.7796,-1.82476 -1.65944,-3.62615 -2.95127,-5.1507 0,0 3.07944,-2.81503 3.07944,-2.81503 z"
       inkscape:connector-curvature="0" />
    <path
       style="opacity:1;fill:#000000;fill-opacity:1;stroke:none;stroke-width:0.2;stroke-linejoin:miter;stroke-miterlimit:4;stroke-dasharray:none;stroke-opacity:1"
       id="path4982"
       d="m 261.8413,145.72321 c -1.00578,-0.66214 -1.95208,-0.61168 -2.87021,0.12501 -0.98362,1.04308 -1.1079,2.37379 -0.82679,3.71797 0.26571,0.72208 0.69525,1.69512 1.59475,1.3324 1.42745,-0.65887 2.30556,-1.95501 3.01749,-3.29974 0.37065,-0.98778 1.01869,-2.29973 0.56357,-3.37337 -0.0347,2.71726 3.92585,-0.28327 4.03777,-0.32897 0.01,-0.004 0.30417,0.67163 0.54203,1.14998 0.90204,1.69296 2.23713,3.06847 3.52256,4.467 0.66807,0.55753 1.63271,2.84907 2.54971,2.94761 0.19515,0.021 0.35874,-0.15941 0.5381,-0.23912 0,0 0.0461,0.10182 0.0461,0.10182 v 0 c -0.45331,0.209 -0.85886,0.52285 -1.32956,0.68905 -1.42814,0.50426 -3.00548,0.058 -4.28371,-0.60941 -2.02406,-1.43574 -3.67786,-3.28064 -4.8714,-5.46648 -0.15529,-0.31584 -1.2828,-2.63941 -1.02835,-2.9208 2.31542,-2.56052 3.5511,-3.35365 4.43275,-0.55434 0.27746,2.13653 -0.21498,4.2032 -1.17634,6.12462 -1.47429,2.52786 -3.29572,4.83216 -6.30589,5.48733 -0.50035,0.006 -1.00588,0.0885 -1.50103,0.0165 -2.53338,-0.36866 -4.02556,-2.56765 -4.63263,-4.86099 -0.44062,-3.40233 0.18541,-5.85141 2.94971,-8.07076 0.45423,-0.23756 0.88279,-0.5325 1.36267,-0.71268 2.23207,-0.83805 4.58116,-0.21204 6.3766,1.24849 0,0 -2.70792,3.0289 -2.70792,3.0289 z"
       inkscape:connector-curvature="0" />
    <path
       style="opacity:1;fill:#000000;fill-opacity:1;stroke:none;stroke-width:0.2;stroke-linejoin:miter;stroke-miterlimit:4;stroke-dasharray:none;stroke-opacity:1"
       id="path4984"
       d="m 275.24458,129.61688 c -0.3175,-2.98466 -0.29855,-6.00369 -0.17822,-9.00015 0.21077,-2.76568 -0.27564,-4.03366 4.30059,-2.00509 0.15523,0.0688 0.11253,2.49168 0.1125,2.50405 -0.21016,4.00813 -0.34856,8.01174 -0.18621,12.02349 0.1203,4.72812 1.59546,9.23911 2.38024,13.86068 0.49284,1.64447 0.59314,3.49001 1.3139,5.07007 0.15935,0.34933 0.43066,0.63579 0.646,0.95368 0,0 -0.0837,0.0741 -0.0837,0.0741 v 0 c -1.73472,-1.53119 -3.5007,-2.99308 -4.63283,-5.07164 -0.40021,-0.68767 -0.86418,-1.34199 -1.20057,-2.06303 -1.8297,-3.92186 -2.14966,-8.43209 -2.54646,-12.66808 -0.14367,-4.07517 -0.0571,-8.14055 0.20243,-12.21032 0.006,-0.3401 0.0103,-0.68021 0.0167,-1.02029 0.003,-0.14972 -0.1357,-0.41947 0.0111,-0.4491 4.8261,-0.97418 3.74001,-1.12261 3.30054,1.32073 -0.40243,2.90435 -0.65897,5.82444 -1.06952,8.72678 0,0 -2.38655,-0.0459 -2.38655,-0.0459 z"
       inkscape:connector-curvature="0" />
    <path
       style="opacity:1;fill:#000000;fill-opacity:1;stroke:none;stroke-width:0.2;stroke-linejoin:miter;stroke-miterlimit:4;stroke-dasharray:none;stroke-opacity:1"
       id="path4986"
       d="m 213.66607,134.61133 c -1.15623,-0.11514 -2.43465,-0.0658 -3.31903,0.77317 -0.21737,0.66703 0.21085,0.12368 0.057,-0.41464 -0.009,-0.0404 -0.0397,-0.082 -0.0266,-0.12122 0.0327,-0.0982 0.67049,-0.22836 0.70228,-0.24142 0.40271,-0.16546 0.44633,-0.22609 0.80362,-0.47672 0.33204,0.15396 0.87119,-1.43697 0.55468,-1.09664 0.008,0.0239 5.2e-4,0.083 0.0229,0.0716 0.68789,-0.35185 0.44665,-1.28351 0.13455,-1.77994 0,0 -0.004,-0.11169 -0.004,-0.11169 v 0 c 0.94252,-0.86513 2.57746,-1.12613 3.56283,-0.0612 0.24253,0.26212 0.32603,0.63548 0.48905,0.95321 0.41226,2.64628 -0.41511,4.06746 -2.48349,5.69551 -2.14159,1.25971 -4.48447,1.87135 -6.6973,0.37189 -0.28382,-0.31948 -0.62829,-0.59401 -0.85146,-0.95845 -1.16166,-1.89704 -0.2587,-4.00857 1.27256,-5.33065 2.01015,-1.28192 4.21265,-1.75391 6.58018,-1.28138 0,0 -0.79729,4.0086 -0.79729,4.0086 z"
       inkscape:connector-curvature="0" />
    <path
       style="opacity:1;fill:#000000;fill-opacity:1;stroke:none;stroke-width:0.2;stroke-linejoin:miter;stroke-miterlimit:4;stroke-dasharray:none;stroke-opacity:1"
       id="path4988"
       d="m 82.183043,194.09035 c 0.780299,4.60201 1.155285,9.26501 1.608635,13.90812 0.418727,5.82007 1.495166,11.5912 1.624116,17.42818 -0.06109,2.2533 -0.260631,4.47303 -0.963769,6.61706 0,0 -0.110715,0.0154 -0.110715,0.0154 v 0 c -1.291132,-1.87646 -2.21887,-3.90856 -2.862471,-6.10604 -1.412989,-5.72589 -1.692424,-11.65413 -2.383729,-17.49646 -0.439209,-4.50623 -0.817978,-9.02158 -1.444787,-13.50679 0,0 4.53272,-0.85949 4.53272,-0.85949 z"
       inkscape:connector-curvature="0" />
    <path
       style="opacity:1;fill:#000000;fill-opacity:1;stroke:none;stroke-width:0.2;stroke-linejoin:miter;stroke-miterlimit:4;stroke-dasharray:none;stroke-opacity:1"
       id="path4990"
       d="m 100.65206,196.80352 c -3.695784,-0.18672 -7.387563,0.0639 -11.0671,0.39075 -5.746543,0.52524 -11.395834,1.71799 -16.980582,3.132 -3.444113,1.02357 -7.057824,1.83325 -10.654967,1.23636 -0.210206,-0.0938 -0.420412,-0.18757 -0.630616,-0.28136 0,0 -0.0218,-0.10964 -0.0218,-0.10964 v 0 c 0.134556,-0.1623 0.269115,-0.32461 0.403672,-0.48691 2.807113,-2.5609 6.033804,-4.05281 9.717042,-4.95684 5.832155,-1.53222 11.747921,-2.73753 17.763355,-3.27327 3.947057,-0.32279 7.928496,-0.62932 11.883016,-0.24314 0,0 -0.41203,4.59205 -0.41203,4.59205 z"
       inkscape:connector-curvature="0" />
  </g>
</svg>
