<?xml version="1.0" encoding="UTF-8" standalone="no"?>
<!-- Created with Inkscape (http://www.inkscape.org/) -->

<svg
   xmlns:dc="http://purl.org/dc/elements/1.1/"
   xmlns:cc="http://creativecommons.org/ns#"
   xmlns:rdf="http://www.w3.org/1999/02/22-rdf-syntax-ns#"
   xmlns:svg="http://www.w3.org/2000/svg"
   xmlns="http://www.w3.org/2000/svg"
   xmlns:sodipodi="http://sodipodi.sourceforge.net/DTD/sodipodi-0.dtd"
   xmlns:inkscape="http://www.inkscape.org/namespaces/inkscape"
   width="1920"
   height="1080"
   viewBox="0 0 507.99999 285.75001"
   version="1.1"
   id="svg8"
   inkscape:version="0.92.2 2405546, 2018-03-11"
   sodipodi:docname="energy-5.svg">
  <defs
     id="defs2" />
  <sodipodi:namedview
     id="base"
     pagecolor="#ffffff"
     bordercolor="#666666"
     borderopacity="1.0"
     inkscape:pageopacity="0.0"
     inkscape:pageshadow="2"
     inkscape:zoom="0.37871094"
     inkscape:cx="1106.7818"
     inkscape:cy="550.22693"
     inkscape:document-units="mm"
     inkscape:current-layer="layer1"
     showgrid="false"
     units="px"
     inkscape:window-width="1348"
     inkscape:window-height="730"
     inkscape:window-x="5"
     inkscape:window-y="25"
     inkscape:window-maximized="0" />
  <metadata
     id="metadata5">
    <rdf:RDF>
      <cc:Work
         rdf:about="">
        <dc:format>image/svg+xml</dc:format>
        <dc:type
           rdf:resource="http://purl.org/dc/dcmitype/StillImage" />
        <dc:title></dc:title>
      </cc:Work>
    </rdf:RDF>
  </metadata>
  <g
     inkscape:label="Layer 1"
     inkscape:groupmode="layer"
     id="layer1"
     transform="translate(0,-11.249983)">
    <path
       style="fill:#000000;stroke-width:1.43800008;stroke-linejoin:miter;stroke-miterlimit:4;stroke-dasharray:none"
       id="path41"
       d="m 84.224721,54.595355 c 1.194988,-1.635752 2.631446,-3.021005 4.317892,-4.13472 1.893893,-1.165416 4.035462,-1.562656 6.216862,-1.729595 2.609752,-0.154686 5.146955,0.463899 7.639245,1.154255 3.07365,0.939491 6.02883,2.209882 8.93347,3.574971 3.62178,1.652648 7.00735,3.735144 10.26181,6.014728 4.00272,2.842712 7.76711,5.999845 11.50456,9.177634 4.51032,3.760657 8.67941,7.891745 12.7029,12.161623 4.30168,4.626554 8.29548,9.524005 12.13977,14.53316 3.68575,4.712989 6.95127,9.724649 9.97126,14.883319 2.81025,4.88041 5.16721,9.99928 7.39369,15.16609 2.45447,5.7549 4.65042,11.61355 6.77983,17.49478 2.41341,6.70944 4.59312,13.49922 6.76018,20.29117 2.24731,7.2082 4.57244,14.39086 7.05808,21.52048 2.4962,7.15085 5.41027,14.14174 8.66634,20.9772 3.14175,6.67072 7.02021,12.93357 11.29516,18.92716 4.04908,5.57655 8.77789,10.58555 13.82055,15.26303 4.52186,4.19621 9.70567,7.48354 15.14622,10.33417 5.56331,2.79128 11.54794,4.4989 17.57973,5.92209 6.63614,1.51278 13.41183,2.16003 20.19167,2.56888 7.08406,0.4333 14.17233,0.10397 21.23252,-0.51038 6.9296,-0.64981 13.7504,-2.02322 20.47513,-3.78146 6.30449,-1.70144 12.33048,-4.20792 18.15264,-7.13601 5.56146,-2.78225 10.64664,-6.35177 15.49495,-10.21881 4.75824,-3.82724 8.82187,-8.37731 12.6606,-13.09906 4.00196,-5.01616 7.20498,-10.5751 10.09036,-16.28667 2.99644,-6.14923 5.28267,-12.6047 7.61498,-19.02475 2.32558,-6.58276 4.79427,-13.11221 7.28054,-19.63544 2.36902,-6.12219 4.5475,-12.31213 6.51303,-18.57494 1.92786,-6.19812 3.61273,-12.4673 5.32445,-18.72733 1.76959,-6.54715 3.52761,-13.09716 5.35583,-19.62825 1.77816,-6.4485 3.93906,-12.777466 6.29793,-19.033632 2.35027,-6.023144 5.05902,-11.896907 7.97623,-17.663998 2.93934,-5.874041 6.55027,-11.341894 10.69774,-16.422902 3.92602,-4.793329 8.7543,-8.645707 13.87359,-12.075522 3.09703,-1.752299 6.12431,-3.875246 9.52119,-5.039929 1.11964,-0.383892 3.36103,-0.77035 4.54387,-0.995537 1.77396,-0.308144 3.57492,-0.337137 5.36782,-0.426157 0,0 0.0272,0.108427 0.0272,0.108427 v 0 c -1.56708,0.749281 -3.05883,1.607119 -4.50483,2.57452 -1.23568,0.79779 -2.41694,1.682176 -3.68651,2.424851 -2.91886,1.707475 -6.13405,2.921349 -8.90368,4.898247 -4.78248,3.177293 -9.29045,6.740604 -12.99359,11.168623 -3.93673,4.865764 -7.44989,10.039577 -10.23511,15.660692 -2.85245,5.640084 -5.56757,11.353856 -7.86612,17.245711 -2.3654,6.122276 -4.46259,12.341526 -6.19879,18.673606 -1.82747,6.52192 -3.5638,13.06865 -5.33841,19.6051 -1.72067,6.31559 -3.45869,12.62839 -5.38666,18.88445 -2.03448,6.3201 -4.1979,12.59774 -6.64734,18.77093 -2.48385,6.49582 -4.93865,13.00329 -7.2436,19.56519 -2.34294,6.5892 -4.69514,13.19175 -7.70821,19.51201 -2.98109,6.00121 -6.2946,11.84095 -10.46729,17.10948 -4.00055,4.99256 -8.34041,9.71032 -13.33074,13.74053 -5.08709,4.0449 -10.41992,7.7796 -16.232,10.72411 -6.10418,3.00592 -12.3652,5.70106 -18.96316,7.44109 -6.95061,1.85062 -14.00218,3.30872 -21.17463,3.97747 -7.27546,0.67288 -14.57984,0.99639 -21.88417,0.5917 -7.03088,-0.42124 -14.06369,-1.07576 -20.94792,-2.63195 -6.39357,-1.50321 -12.73401,-3.31833 -18.62491,-6.28713 -5.81503,-3.00916 -11.30746,-6.58075 -16.08922,-11.08963 -5.20958,-4.92443 -10.1158,-10.16717 -14.28777,-16.01602 -4.3708,-6.2253 -8.3743,-12.6976 -11.61706,-19.59218 -3.27615,-6.98966 -6.34726,-14.07385 -8.85328,-21.38195 -2.50048,-7.16803 -4.81299,-14.39727 -7.04861,-21.65215 -2.11878,-6.75146 -4.25051,-13.50035 -6.6422,-20.16146 -2.07649,-5.80983 -4.25937,-11.58355 -6.6714,-17.26344 -2.16982,-5.01304 -4.42205,-9.99787 -7.15574,-14.73509 -2.92105,-5.01619 -6.09032,-9.87922 -9.63375,-14.482491 -3.79341,-4.880295 -7.68063,-9.693042 -11.90554,-14.210543 -3.93008,-4.158845 -8.01747,-8.164917 -12.37211,-11.88211 -3.61949,-3.107589 -7.26534,-6.194501 -11.13785,-8.986183 -3.09326,-2.106153 -6.27421,-4.082235 -9.69503,-5.621081 -2.73583,-1.232189 -5.4931,-2.433915 -8.37147,-3.299521 -2.025708,-0.593214 -4.100901,-1.076232 -6.226889,-1.019434 -1.493414,0.105365 -2.990376,0.333324 -4.314396,1.079897 -1.304309,0.820554 -2.426388,1.853583 -3.327588,3.111452 0,0 -3.192246,-2.375371 -3.192246,-2.375371 z"
       inkscape:connector-curvature="0" />
    <path
       style="fill:#000000;stroke-width:1.43800008;stroke-linejoin:miter;stroke-miterlimit:4;stroke-dasharray:none"
       id="path43"
       d="m 285.80939,217.06346 c -1.90865,-0.6512 -3.88514,-1.00899 -5.88138,-1.24977 -2.17426,-0.24834 -4.32811,0.028 -6.45292,0.48028 -2.27166,0.55735 -4.40521,1.51168 -6.48109,2.56855 -1.92661,1.01599 -3.67811,2.30252 -5.25775,3.79549 -1.26422,1.19283 -2.27771,2.59906 -3.15278,4.09231 -0.76944,1.29786 -1.29641,2.70895 -1.69565,4.15826 -0.36627,1.36355 -0.50808,2.76723 -0.49201,4.17505 0.0448,1.37724 0.4119,2.70951 0.83773,4.01078 0.51197,1.53963 1.15415,3.02855 1.80141,4.51435 0.65075,1.44449 1.44693,2.81173 2.37365,4.0948 0.91637,1.3017 2.15953,2.2669 3.45475,3.16098 1.65128,1.055 3.44571,1.84901 5.25496,2.58752 1.82717,0.76212 3.73553,1.2503 5.6779,1.60256 2.15231,0.3285 4.33007,0.25377 6.48796,0.0406 2.52195,-0.26362 4.97444,-0.88884 7.36151,-1.72469 2.26639,-0.84579 4.15426,-2.28789 5.80919,-4.01961 1.87939,-1.99293 3.14384,-4.41893 4.23277,-6.9056 1.15515,-2.68732 1.70013,-5.5503 2.0887,-8.43169 0.34413,-2.78518 0.0669,-5.52763 -0.76355,-8.19476 -0.88194,-2.6402 -2.62175,-4.71322 -4.65038,-6.55136 -2.08226,-1.81576 -4.53822,-3.03079 -7.1211,-3.94869 -1.37152,-0.71983 -3.62191,-0.5598 -4.96692,-1.09609 -0.2535,-0.10108 -0.46382,-0.28772 -0.69573,-0.43158 -0.7807,-0.45377 -1.51117,-0.98492 -2.25125,-1.50025 0,0 -0.0204,-0.10991 -0.0204,-0.10991 v 0 c 0.62081,-0.83772 1.32295,-1.55821 2.28788,-2.00581 0.3243,-0.14136 0.62777,-0.34633 0.97289,-0.42409 1.9576,-0.44109 4.4419,0.61819 6.31072,1.05159 3.17289,1.16861 6.17484,2.72337 8.72786,4.97656 2.60117,2.46903 4.82622,5.23312 5.93953,8.7042 0.93522,3.31731 1.34171,6.68734 0.87032,10.12852 -0.41228,3.33051 -1.092,6.63019 -2.40388,9.7358 -1.32927,3.01006 -2.9001,5.91119 -5.16099,8.33792 -2.20808,2.20262 -4.62957,4.11376 -7.60667,5.17539 -2.74481,0.99076 -5.58555,1.66658 -8.49035,1.98397 -2.58773,0.25658 -5.1925,0.38115 -7.77321,-0.0426 -2.29526,-0.37595 -4.54845,-0.96341 -6.70321,-1.85126 -2.11639,-0.8674 -4.21468,-1.8072 -6.15257,-3.03166 -1.80018,-1.19509 -3.46396,-2.56995 -4.75683,-4.32055 -1.1088,-1.55639 -2.08438,-3.19877 -2.86536,-4.94608 -0.75978,-1.63386 -1.43705,-3.30738 -2.02174,-5.01211 -0.58206,-1.79696 -1.09037,-3.62345 -1.10678,-5.52928 -0.003,-1.90103 0.1722,-3.79043 0.70111,-5.62516 0.57522,-1.84845 1.29381,-3.64293 2.30522,-5.30217 1.16669,-1.85008 2.46273,-3.61654 4.07517,-5.10975 1.94706,-1.73658 4.03098,-3.3064 6.37863,-4.4706 2.45037,-1.23789 4.98871,-2.30998 7.68069,-2.902 2.6686,-0.54943 5.3814,-0.77749 8.08731,-0.31302 2.31061,0.41512 4.60014,0.98694 6.70367,2.06189 0,0 -1.49704,3.61283 -1.49704,3.61283 z"
       inkscape:connector-curvature="0" />
    <path
       style="fill:#ff0000;stroke-width:1.43800008;stroke-linejoin:miter;stroke-miterlimit:4;stroke-dasharray:none"
       id="path45"
       d="m 291.13705,215.74353 c 2.08293,1.30444 4.13069,2.66245 6.10423,4.12756 0.85592,0.65929 3.36599,2.42002 2.74708,3.82993 -0.33201,0.75633 -1.14569,1.19014 -1.71853,1.78521 -2.09509,0.0667 -3.98214,-1.02507 -5.85259,-1.85158 -2.0995,-0.93384 -4.23215,-1.7877 -6.41552,-2.50397 -0.57188,-0.17319 -1.02262,-0.32058 -1.59679,-0.45676 -0.16852,-0.04 -0.33804,-0.0782 -0.50982,-0.10023 -0.0566,-0.007 -0.22754,0.0175 -0.17068,0.0128 0.33379,-0.0277 0.80398,0.18881 1.00148,-0.0817 0.58557,-0.80198 0.72275,-1.84983 1.08413,-2.77474 -0.0243,-0.0668 -0.13817,-0.22846 -0.0729,-0.2004 0.50175,0.21556 0.87886,0.6486 1.32546,0.96285 1.21789,0.85697 2.45371,1.68605 3.68202,2.5281 2.60672,1.73675 5.17167,3.53419 7.69411,5.39091 1.1116,0.87547 3.19768,2.27922 1.83618,4.15593 -1.13528,1.5649 -2.24153,0.96496 -3.39008,0.57619 -2.57155,-1.18933 -5.08979,-2.49106 -7.63163,-3.74238 -3.06507,-1.49933 -6.15653,-2.94302 -9.27143,-4.33554 -0.88867,-0.35333 -1.74586,-0.81825 -2.67166,-1.07693 -0.1022,-0.0286 -0.4184,-0.0702 -0.31487,-0.0469 1.25459,0.28218 0.65067,-0.0453 2.35803,-1.54722 -0.0332,-0.34567 -0.16078,-0.6952 -0.0995,-1.03702 0.0198,-0.11041 0.16214,0.15503 0.24381,0.23191 0.20674,0.19462 0.40863,0.39459 0.6214,0.5826 1.0986,0.9707 2.28409,1.83206 3.45727,2.7086 3.20687,2.31943 6.48651,4.53559 9.69516,6.85251 1.74548,1.36177 3.73246,2.55842 5.04254,4.38165 -0.0655,0.81754 0.31322,1.81001 -0.1964,2.45263 -1.56447,1.97277 -5.09558,-0.47545 -6.60285,-1.24165 -3.39,-1.73789 -6.78653,-3.4638 -10.1935,-5.16837 -2.95399,-1.49373 -5.88428,-3.03415 -8.85006,-4.50437 -0.51035,-0.24473 -1.22481,-0.59446 -1.75853,-0.82603 -0.18221,-0.0791 -0.36623,-0.15441 -0.55328,-0.22123 -0.0747,-0.0267 -0.30849,-0.0745 -0.2307,-0.0588 1.84436,0.37224 0.40794,0.50538 2.51338,-3.02454 1.89155,1.62999 3.98548,3.0198 6.03875,4.43658 3.67367,2.44311 7.29183,4.96355 10.83275,7.59522 2.24212,1.80569 4.62612,3.53678 6.41049,5.82366 0.14608,0.36249 0.6088,0.73584 0.43823,1.08747 -0.49195,1.01417 -1.23558,1.99121 -2.20807,2.56112 -0.6661,0.39035 -4.38038,-2.11501 -4.97398,-2.4889 -3.74826,-2.36066 -7.60819,-4.5324 -11.51014,-6.62624 -3.54704,-1.88531 -7.17068,-3.62529 -10.88487,-5.15555 -0.384,-0.14307 -0.76451,-0.29591 -1.15201,-0.42921 -0.27445,-0.0944 -0.55181,-0.18148 -0.83294,-0.25361 -0.12924,-0.0332 -0.52819,-0.0758 -0.39552,-0.0616 1.6783,0.18015 2.73233,-0.37428 2.3171,-2.89309 2.88706,2.23134 5.86699,4.34016 8.79003,6.52438 4.17639,3.16326 8.27585,6.42677 12.29158,9.79138 1.20514,1.0511 2.46285,2.05388 3.58624,3.19591 0.19762,0.2009 0.42921,0.38215 0.56447,0.62937 0.23184,0.42371 0.81071,0.96685 0.51989,1.35248 -0.74966,0.99406 -2.07017,1.38384 -3.10525,2.07576 -2.99791,-1.65114 -5.76039,-3.71854 -8.58117,-5.65499 -3.76386,-2.61291 -7.66008,-5.0282 -11.67219,-7.23943 -2.61289,-1.47794 -5.3348,-2.74356 -8.11322,-3.874 -0.0787,-0.0295 -0.97954,-0.37642 -1.1799,-0.42387 -0.0409,-0.01 -0.16714,0.0143 -0.12513,0.0161 1.56382,0.0662 3.63729,-0.0182 2.37588,-3.13487 2.19178,1.76976 4.39613,3.5238 6.58151,5.30201 3.50793,2.88102 6.84073,5.96427 10.19678,9.0181 1.97829,1.85444 4.02561,3.63129 6.06006,5.42285 1.68855,1.62719 1.16343,1.77088 -2.14044,3.91594 -0.12952,0.0841 -2.56447,-1.44326 -2.76431,-1.5687 -2.98906,-1.94324 -5.88956,-4.01754 -8.83509,-6.02529 -2.94858,-2.03076 -5.96053,-3.97149 -9.07901,-5.73133 -2.21444,-1.20033 -2.5183,-0.18104 1.32022,-3.44547 0.0937,-0.0797 0.1799,0.16799 0.26774,0.25418 0.2378,0.23332 0.47275,0.46953 0.70913,0.7043 2.67567,2.52667 5.44455,4.9518 8.18026,7.41269 2.06681,1.91654 4.28265,3.67845 6.28374,5.66516 1.61004,1.74729 1.17317,2.01271 -1.89724,4.15076 -0.1927,0.13419 -2.58082,-1.11706 -2.84442,-1.25298 -2.43703,-1.30468 -4.8379,-2.67511 -7.27441,-3.98078 -1.72646,-0.83474 -3.35407,-1.96362 -5.18627,-2.56723 0.38639,0.42526 0.70677,0.81104 1.66388,-0.21042 0.58064,-0.61968 0.62775,-1.57983 0.88159,-2.39021 0.0233,-0.0744 -0.13622,-0.25007 -0.0623,-0.22535 0.134,0.0448 0.19521,0.20441 0.29595,0.30349 0.17382,0.17098 0.35175,0.33774 0.52762,0.5066 0.91923,1.00614 2.16704,1.71478 3.01973,2.78457 0.2651,0.33261 0.87996,1.45531 1.09695,1.84004 0.39041,0.63989 0.63127,1.34675 0.94617,2.02263 0,0 -0.0545,0.0976 -0.0545,0.0976 v 0 c -0.79079,0.0343 -1.56995,0.0225 -2.33818,-0.20964 -0.55074,-0.14284 -1.62524,-0.39531 -2.13173,-0.6379 -1.33938,-0.64152 -2.37798,-1.82052 -3.54351,-2.70599 -0.43397,-0.40243 -1.92968,-1.53351 -1.91262,-2.19737 0.0684,-2.66095 0.71329,-3.80594 3.2509,-3.07515 1.92318,0.85711 3.73703,1.9318 5.58698,2.93282 2.37382,1.32427 4.7514,2.6438 7.1642,3.89596 1.99544,0.98692 -0.11926,-0.048 1.43956,0.68874 0.0673,0.0318 0.23321,0.038 0.19793,0.10361 -0.93373,1.73569 -2.79429,2.31157 -1.65937,3.4111 0.0796,0.0772 -0.13368,-0.177 -0.20051,-0.2655 -1.91696,-1.95411 -4.01642,-3.71407 -6.04004,-5.55492 -2.80367,-2.47677 -5.62379,-4.93488 -8.41881,-7.42126 -0.0607,-0.0579 -1.84789,-1.69767 -1.78842,-1.89266 1.4759,-4.83955 2.12457,-3.91312 4.71644,-2.47022 3.1361,1.9222 6.19434,3.96526 9.2276,6.04537 2.87339,1.9883 5.74538,3.98274 8.6902,5.86412 0.76516,0.46024 0.86162,0.53215 1.58029,0.92007 0.11861,0.064 0.42259,0.0638 0.3604,0.18337 -0.70602,1.35754 -3.13581,2.4545 -1.86453,3.48906 0.0861,0.0701 -0.14607,-0.16732 -0.21911,-0.25098 -1.96204,-1.87099 -4.04309,-3.61531 -5.99417,-5.49881 -3.27098,-3.01565 -6.58402,-5.99085 -10.06911,-8.75927 -2.32727,-1.85405 -4.73843,-3.60009 -7.03885,-5.4862 -1.26632,-1.50763 -1.62735,-1.40316 0.50126,-4.18089 0.54779,-0.71484 2.63791,0.49792 3.19296,0.69153 2.89277,1.26091 5.69636,2.71201 8.46223,4.22926 4.07749,2.33317 8.10787,4.74488 11.97866,7.41189 2.49782,1.68581 4.97108,3.41231 7.52978,5.00435 -3.13304,3.00591 -2.73338,1.15805 -1.90335,3.27489 0.0528,0.13463 -0.15204,-0.24761 -0.24716,-0.35653 -0.2276,-0.2606 -0.47153,-0.50679 -0.71847,-0.74915 -0.91909,-0.90203 -1.54094,-1.42571 -2.53389,-2.30406 -3.94509,-3.31298 -7.95453,-6.55226 -12.14683,-9.55022 -3.11946,-2.24931 -6.31618,-4.39559 -9.37331,-6.72715 -1.44541,-1.73318 -1.88332,-1.53646 0.47891,-4.41006 0.47938,-0.58315 3.76254,0.88526 4.25251,1.09909 3.77246,1.69013 7.49535,3.48604 11.13362,5.45102 3.96494,2.12654 7.9071,4.29629 11.75273,6.63373 0.089,0.0519 2.93893,1.60587 2.984,1.69479 0.0656,0.12932 -0.33965,-0.0681 -0.43281,0.043 -2.02614,2.4161 -2.20312,1.71535 -1.38344,3.10893 -1.21515,-2.05701 -3.728,-3.42191 -5.4389,-5.00177 -3.47972,-2.61453 -7.09531,-5.03609 -10.7252,-7.4363 -2.38161,-1.60439 -4.82565,-3.15837 -6.95729,-5.09392 0.40398,-1.31763 0.53003,-2.75525 1.21195,-3.95288 0.16093,-0.28263 0.65032,0.0537 0.96769,0.12487 1.0876,0.24377 1.9946,1.09406 3.01975,1.48224 2.9114,1.55829 5.8156,3.13088 8.75315,4.63955 3.37605,1.7399 6.77141,3.44347 10.18102,5.11636 1.08877,0.5285 1.23046,0.60898 2.26461,1.07143 0.23225,0.10386 0.46744,0.20102 0.70068,0.30264 0.0637,0.0278 0.24919,0.0487 0.19022,0.0855 -2.35449,1.47062 -1.67074,-0.12165 -1.71686,3.08335 0.18736,0.1178 0.27673,0.18969 -0.15952,-0.24995 -0.73974,-0.7455 -1.58576,-1.3982 -2.41525,-2.03714 -0.41908,-0.3228 -0.8435,-0.63859 -1.26525,-0.95789 -3.22955,-2.3157 -6.51775,-4.54645 -9.76255,-6.84055 -1.12907,-0.82219 -4.8512,-3.36242 -5.45944,-4.57411 -0.27816,-0.55414 -0.37581,-1.18175 -0.56372,-1.77263 0.63692,-0.67677 1.14152,-1.5088 1.91075,-2.03029 0.76598,-0.51929 3.9281,1.23185 4.66187,1.50236 3.13176,1.44589 6.23322,2.95728 9.34958,4.43598 2.4238,1.1742 4.82803,2.39484 7.29083,3.48494 0.8486,0.46866 -0.80894,-0.50606 -1.62233,1.09014 -0.96762,1.89885 1.40491,3.15996 -0.73302,1.37003 -2.42574,-1.86247 -4.96464,-3.56955 -7.5067,-5.26798 -2.1808,-1.42448 -4.52948,-2.73842 -6.35638,-4.60708 0.28726,-1.0562 0.27282,-2.24598 0.86177,-3.16859 0.50928,-0.79781 3.72917,0.4638 4.34647,0.67081 2.25924,0.81666 4.48882,1.71081 6.68454,2.68603 0.90736,0.39179 1.81221,0.79221 2.73425,1.14882 0.1952,0.0755 0.39214,0.14647 0.58957,0.21593 0.10219,0.036 0.35641,0.003 0.30916,0.10028 -0.0605,0.12482 -0.26981,0.0646 -0.40471,0.0969 -0.42399,0.55555 -1.04675,1.00508 -1.27196,1.66665 -0.31668,0.93025 0.82631,1.51328 0.1417,0.83978 -0.16132,-0.1587 -0.33144,-0.30846 -0.50444,-0.45432 -0.22927,-0.1933 -0.46792,-0.37518 -0.70189,-0.56277 -1.88135,-1.3738 -3.79594,-2.70827 -5.81464,-3.87458 0,0 2.05823,-3.4408 2.05823,-3.4408 z"
       inkscape:connector-curvature="0" />
    <path
       style="fill:#ff8080;stroke-width:1.43800008;stroke-linejoin:miter;stroke-miterlimit:4;stroke-dasharray:none"
       id="path49"
       d="m 274.73555,225.47899 c 1.38572,3.24886 2.54323,6.58699 3.69549,9.9237 1.35436,3.99301 2.68288,7.99436 4.05428,11.98152 0.16251,0.45158 0.31686,0.90618 0.48754,1.35474 0.0681,0.17901 0.47628,1.24205 0.68426,1.53481 0.0357,0.0503 0.0358,-0.17415 -0.0252,-0.18341 -1.02321,-0.15538 -2.06681,-0.43687 -3.09125,-0.28983 -0.32051,0.046 -0.35706,0.54026 -0.53559,0.81039 -0.22145,-3.19941 -0.74244,-6.36973 -1.24922,-9.53363 -0.70822,-4.43423 -1.62495,-8.82776 -2.75729,-13.17216 -0.69883,-2.16909 -1.19695,-4.45862 -2.26394,-6.4907 0.003,0.0459 -0.0349,0.14739 0.0101,0.13767 5.10356,-1.10345 3.83328,-2.26943 4.825,0.66728 0.31743,0.94 0.8253,2.27921 1.16064,3.18013 1.78637,4.61852 3.79247,9.14614 5.859,13.64472 1.59032,3.23253 2.99155,6.59186 4.9642,9.61875 0.11323,0.13169 0.19265,0.30267 0.3397,0.39508 0.10501,0.066 -0.0826,-0.29056 -0.20504,-0.31045 -0.81566,-0.13256 -1.67325,-0.32165 -2.47594,-0.12523 -0.40372,0.0988 -0.46301,0.73232 -0.82678,0.93339 -0.13642,0.0754 -0.006,-0.31182 -0.0164,-0.46736 -0.0242,-0.36326 -0.0582,-0.7258 -0.0872,-1.0887 -0.44545,-4.14571 -1.44274,-8.20659 -2.54159,-12.22025 -1.13857,-4.02065 -2.64407,-7.91593 -4.25044,-11.76805 -0.46581,-1.07428 -0.9226,-2.15481 -1.43191,-3.20968 -0.0817,-0.16922 -0.16946,-0.33552 -0.25937,-0.50052 -0.0291,-0.0534 -0.15478,-0.13397 -0.0974,-0.15433 1.49063,-0.5292 3.01886,-0.94581 4.5283,-1.41872 1.50885,3.3567 3.15112,6.65139 4.76364,9.95899 2.27303,4.6401 4.53056,9.28849 6.89341,13.88376 0.7101,1.0592 1.09861,2.4327 2.02704,3.35349 0.0328,0.0326 0.0475,-0.12876 0.002,-0.13876 -0.78937,-0.17484 -1.60169,-0.55293 -2.3938,-0.39093 -0.50628,0.10355 -0.72607,0.73552 -1.0891,1.10327 -0.27491,-3.29258 -1.10211,-6.51312 -1.93555,-9.70032 -1.15924,-4.26878 -2.58413,-8.45816 -4.03005,-12.63638 -0.40944,-1.67615 -1.35013,-3.23803 -1.67758,-4.93799 -0.0587,-0.30476 -0.36929,-0.78424 -0.0934,-0.92639 1.33437,-0.68753 2.88342,-0.83599 4.32514,-1.25399 1.68888,2.88759 2.99252,5.99609 4.41526,9.02343 1.62518,3.50362 3.33241,6.96705 5.13776,10.38109 0.38178,0.65702 0.59917,1.09339 1.0457,1.67132 0.0608,0.0787 0.28609,0.27664 0.21327,0.20884 -1.43698,-1.33782 -2.51804,-0.95112 -3.55704,0.54064 -0.16904,-2.92382 -0.82512,-5.79989 -1.45137,-8.65303 -0.78948,-3.43917 -1.77356,-6.82869 -2.87542,-10.17957 -0.11015,-0.3104 -0.2176,-0.62177 -0.33045,-0.9312 -0.0235,-0.0645 -0.26093,-0.72915 -0.36615,-0.90155 -0.0226,-0.0371 -0.008,0.13844 0.0339,0.12579 1.50076,-0.45703 2.92778,-1.17049 4.46264,-1.49511 0.1782,-0.0377 0.1316,0.33968 0.19741,0.50952 0.6277,1.52745 1.43259,2.97027 2.30639,4.36822 0.85567,1.22482 1.30086,1.35239 0.67737,2.83316 -0.25885,0.46964 -0.22961,0.23022 -0.13462,0.71097 0,0 0.0555,0.097 0.0555,0.097 v 0 c -0.29074,0.70616 -0.0499,0.40998 -0.78418,0.83472 -2.11939,0.4003 -2.67127,-0.31311 -3.75918,-2.03297 -1.00155,-1.63085 -1.96021,-3.2923 -2.71152,-5.05617 -0.85345,-2.05064 -0.62006,-0.89527 3.88318,-2.98562 0.008,-0.004 0.9215,2.45324 0.85306,2.53484 1.06826,3.50067 2.06647,7.02335 2.89776,10.58875 0.75906,3.37482 1.5992,6.78601 1.69881,10.25697 -0.19859,0.59466 -0.0928,1.40965 -0.59576,1.78397 -3.20837,2.38795 -4.59314,-0.37811 -5.82581,-2.68584 -1.82692,-3.47611 -3.49818,-7.02988 -5.18365,-10.57604 -1.25248,-2.62152 -2.50464,-5.24764 -3.83179,-7.83015 1.31081,-0.56502 2.69187,-0.98902 3.93241,-1.69508 0.14264,-0.0812 -0.13552,-0.64192 -0.11162,-0.47955 0.23805,1.61713 1.0714,3.10784 1.46276,4.68257 1.44031,4.29177 2.87757,8.58757 4.07933,12.95376 1.01378,3.80228 2.13887,7.66088 2.25055,11.61703 -0.42899,0.77035 -0.5063,1.90116 -1.28699,2.31104 -3.38873,1.77917 -4.93324,-2.98978 -6.01107,-4.94045 -2.30957,-4.63948 -4.55783,-9.30935 -6.89377,-13.93582 -1.67576,-3.36037 -3.37688,-6.70891 -5.00697,-10.09161 1.34531,-0.85052 2.63653,-1.79331 4.03591,-2.55157 0.0147,-0.008 0.0791,0.20037 0.35944,0.87802 0.46328,1.11974 0.92676,2.23932 1.38306,3.36199 1.62041,4.03757 3.13204,8.12489 4.30561,12.31749 1.17532,4.27192 2.27637,8.57612 2.87012,12.97401 0.13034,1.33604 0.66591,4.00705 -0.90097,4.88306 -2.22665,1.24486 -3.34862,0.0926 -4.36858,-1.39577 -1.88725,-3.28689 -3.45666,-6.74127 -5.05946,-10.17254 -2.09442,-4.59075 -4.1596,-9.19774 -6.01558,-13.89117 -0.60101,-1.53326 -1.22393,-3.06806 -1.71382,-4.64214 -0.11186,-0.3594 -0.58469,-0.84274 -0.29976,-1.08869 1.17322,-1.01266 2.65323,-1.63717 4.10039,-2.19185 0.18097,-0.0694 0.17045,0.34814 0.25567,0.52221 0.91041,2.36685 1.52607,4.84026 2.16527,7.28981 1.07062,4.47344 1.97946,8.98342 2.73381,13.52124 0.58418,3.48185 1.28275,6.96789 1.4964,10.49585 -0.20445,0.6304 -0.0141,1.60814 -0.61337,1.89119 -3.89117,1.83807 -4.21108,-1.7629 -5.05344,-4.11168 -1.31464,-3.99099 -2.61404,-7.98723 -3.99234,-11.95698 -1.14387,-3.2527 -2.29938,-6.50322 -3.62092,-9.68896 0,0 3.76095,-1.57132 3.76095,-1.57132 z"
       inkscape:connector-curvature="0" />
    <path
       style="fill:#ffd5d5;stroke-width:1.43800008;stroke-linejoin:miter;stroke-miterlimit:4;stroke-dasharray:none"
       id="path51"
       d="m 286.80825,219.84237 c 1.30672,3.37135 2.45379,6.80103 3.59997,10.2293 1.26602,3.80373 2.51929,7.61195 3.74743,11.42814 0.13525,0.39428 0.26458,0.79065 0.40574,1.18286 0.15007,0.41698 0.18982,0.92208 0.5111,1.22732 0.10215,0.0971 -0.0371,-0.3615 -0.17615,-0.38424 -3.33579,-0.54575 -2.73346,-1.00201 -3.76503,0.51959 0.1612,-2.70469 -0.17648,-5.41248 -0.48487,-8.09513 -0.48973,-3.61662 -1.22498,-7.19485 -2.04968,-10.74829 -0.20936,-1.23213 -0.67437,-2.42187 -0.87222,-3.65593 -0.0341,-0.21291 -0.27772,-0.59382 -0.0678,-0.64332 1.5162,-0.35763 3.1019,-0.2921 4.65285,-0.43815 1.23292,2.9598 2.2612,6.00231 3.33825,9.02168 1.20498,3.18189 2.1543,6.48355 3.64837,9.54864 1.06411,0.69098 -1.36235,-0.90327 -2.86039,-0.70804 -0.55985,0.073 -0.54977,1.08511 -1.06425,1.31766 -0.24641,0.11137 -0.0346,-0.53983 -0.0613,-0.80891 -0.12014,-1.2095 -0.22428,-1.88696 -0.39247,-3.13374 -0.5478,-3.814 -1.1839,-7.61525 -1.84133,-11.41176 -0.0796,-0.42894 -0.15731,-0.85825 -0.23895,-1.28681 -0.14144,-0.74243 -0.16782,-0.90637 -0.33558,-1.56461 -0.0233,-0.0914 -0.17017,-0.25365 -0.0777,-0.2722 4.7656,-0.95562 4.35139,-2.14805 4.75273,-0.13467 0.58873,2.50991 1.41762,4.95113 2.25563,7.38594 0.55981,1.0909 1.45968,4.92027 2.38577,5.60764 -1.24334,-1.16077 -0.73838,-1.05513 -3.32012,-0.19274 -0.19431,0.0649 -0.15712,0.4628 -0.35876,0.49903 -0.14411,0.0259 0.0222,-0.29223 0.0228,-0.43865 0.002,-0.61745 -0.0419,-1.28862 -0.0728,-1.89941 -0.17948,-2.22302 -0.51054,-4.43009 -0.88306,-6.6279 -0.26615,-2.50015 0.16379,-2.10381 4.44863,-1.99071 0.12165,0.003 0.67831,1.45213 0.68944,1.52975 0.043,0.29969 -0.0351,0.60448 -0.0527,0.90672 -0.0572,0.93469 -0.31002,1.82128 -0.63515,2.69185 0,0 -0.0936,0.0611 -0.0936,0.0611 v 0 c -0.9733,-0.19956 -1.79459,-0.66942 -2.58202,-1.27523 -0.80513,-0.55168 -0.52907,-0.23502 -0.97581,-0.95257 -0.0586,-0.0941 -0.27408,-0.24085 -0.17219,-0.28451 1.2876,-0.55169 2.69582,-0.78908 3.98061,-1.34727 0.11325,-0.0492 -0.0379,-0.49244 -0.0297,-0.36923 0.009,0.12983 0.0207,0.25942 0.031,0.38913 0.24808,2.32422 0.69562,4.62508 0.8521,6.96032 0.0905,1.10695 0.33946,2.48635 0.0777,3.58847 -0.62786,2.64352 -2.65934,3.52652 -4.72255,1.56 -1.39575,-2.10311 -2.03685,-4.5794 -2.94583,-6.91195 -0.89683,-2.59023 -1.76656,-5.19511 -2.45304,-7.85014 -0.53259,-2.12446 -0.48348,-0.99463 4.37134,-1.89792 0.12657,-0.0236 0.0441,0.25367 0.0642,0.38084 0.0897,0.56804 0.18219,1.13564 0.26927,1.70409 0.0662,0.43241 0.12655,0.86571 0.18983,1.29857 0.60231,3.83627 1.18819,7.67532 1.8321,11.50488 0.11062,0.72073 0.79027,4.0539 0.62379,4.7162 -0.22439,0.89269 -0.25693,2.16256 -1.09955,2.53302 -2.55226,1.12212 -3.01191,-0.11794 -3.75114,-1.38267 -1.38722,-3.24676 -2.44392,-6.62204 -3.70444,-9.91818 -1.03498,-2.84281 -2.0349,-5.70224 -3.22429,-8.48534 1.36329,-0.52085 2.76483,-0.9509 4.08987,-1.56255 0.091,-0.042 -0.0713,-0.39221 -0.0724,-0.29195 -0.0127,1.20649 0.64105,2.394 0.70128,3.59092 0.7556,3.70375 1.54389,7.40391 2.0316,11.15554 0.41274,3.1091 0.81719,6.24877 0.69454,9.3913 -0.91275,2.39244 -0.34081,2.44932 -4.19423,1.78368 -0.53332,-0.0921 -1.42681,-3.272 -1.57874,-3.71795 -1.21136,-3.79847 -2.40676,-7.60168 -3.6815,-11.3796 -1.13577,-3.34629 -2.27481,-6.69353 -3.54546,-9.99151 0,0 4.16881,-1.66045 4.16881,-1.66045 z"
       inkscape:connector-curvature="0" />
  </g>
</svg>
