<?xml version="1.0" encoding="UTF-8" standalone="no"?>
<!-- Created with Inkscape (http://www.inkscape.org/) -->

<svg
   xmlns:dc="http://purl.org/dc/elements/1.1/"
   xmlns:cc="http://creativecommons.org/ns#"
   xmlns:rdf="http://www.w3.org/1999/02/22-rdf-syntax-ns#"
   xmlns:svg="http://www.w3.org/2000/svg"
   xmlns="http://www.w3.org/2000/svg"
   xmlns:sodipodi="http://sodipodi.sourceforge.net/DTD/sodipodi-0.dtd"
   xmlns:inkscape="http://www.inkscape.org/namespaces/inkscape"
   width="1920"
   height="1080"
   viewBox="0 0 507.99999 285.75001"
   version="1.1"
   id="svg8"
   inkscape:version="0.92.2 2405546, 2018-03-11"
   sodipodi:docname="energy-1.svg">
  <defs
     id="defs2" />
  <sodipodi:namedview
     id="base"
     pagecolor="#ffffff"
     bordercolor="#666666"
     borderopacity="1.0"
     inkscape:pageopacity="0.0"
     inkscape:pageshadow="2"
     inkscape:zoom="0.37871094"
     inkscape:cx="1106.7818"
     inkscape:cy="550.22693"
     inkscape:document-units="mm"
     inkscape:current-layer="layer1"
     showgrid="false"
     units="px"
     inkscape:window-width="1348"
     inkscape:window-height="730"
     inkscape:window-x="5"
     inkscape:window-y="25"
     inkscape:window-maximized="0" />
  <metadata
     id="metadata5">
    <rdf:RDF>
      <cc:Work
         rdf:about="">
        <dc:format>image/svg+xml</dc:format>
        <dc:type
           rdf:resource="http://purl.org/dc/dcmitype/StillImage" />
        <dc:title></dc:title>
      </cc:Work>
    </rdf:RDF>
  </metadata>
  <g
     inkscape:label="Layer 1"
     inkscape:groupmode="layer"
     id="layer1"
     transform="translate(0,-11.249983)">
    <path
       style="fill:#000000;stroke-width:1.43800008;stroke-linejoin:miter;stroke-miterlimit:4;stroke-dasharray:none"
       id="path41"
       d="m 84.224721,54.595355 c 1.194988,-1.635752 2.631446,-3.021005 4.317892,-4.13472 1.893893,-1.165416 4.035462,-1.562656 6.216862,-1.729595 2.609752,-0.154686 5.146955,0.463899 7.639245,1.154255 3.07365,0.939491 6.02883,2.209882 8.93347,3.574971 3.62178,1.652648 7.00735,3.735144 10.26181,6.014728 4.00272,2.842712 7.76711,5.999845 11.50456,9.177634 4.51032,3.760657 8.67941,7.891745 12.7029,12.161623 4.30168,4.626554 8.29548,9.524005 12.13977,14.53316 3.68575,4.712989 6.95127,9.724649 9.97126,14.883319 2.81025,4.88041 5.16721,9.99928 7.39369,15.16609 2.45447,5.7549 4.65042,11.61355 6.77983,17.49478 2.41341,6.70944 4.59312,13.49922 6.76018,20.29117 2.24731,7.2082 4.57244,14.39086 7.05808,21.52048 2.4962,7.15085 5.41027,14.14174 8.66634,20.9772 3.14175,6.67072 7.02021,12.93357 11.29516,18.92716 4.04908,5.57655 8.77789,10.58555 13.82055,15.26303 4.52186,4.19621 9.70567,7.48354 15.14622,10.33417 5.56331,2.79128 11.54794,4.4989 17.57973,5.92209 6.63614,1.51278 13.41183,2.16003 20.19167,2.56888 7.08406,0.4333 14.17233,0.10397 21.23252,-0.51038 6.9296,-0.64981 13.7504,-2.02322 20.47513,-3.78146 6.30449,-1.70144 12.33048,-4.20792 18.15264,-7.13601 5.56146,-2.78225 10.64664,-6.35177 15.49495,-10.21881 4.75824,-3.82724 8.82187,-8.37731 12.6606,-13.09906 4.00196,-5.01616 7.20498,-10.5751 10.09036,-16.28667 2.99644,-6.14923 5.28267,-12.6047 7.61498,-19.02475 2.32558,-6.58276 4.79427,-13.11221 7.28054,-19.63544 2.36902,-6.12219 4.5475,-12.31213 6.51303,-18.57494 1.92786,-6.19812 3.61273,-12.4673 5.32445,-18.72733 1.76959,-6.54715 3.52761,-13.09716 5.35583,-19.62825 1.77816,-6.4485 3.93906,-12.777466 6.29793,-19.033632 2.35027,-6.023144 5.05902,-11.896907 7.97623,-17.663998 2.93934,-5.874041 6.55027,-11.341894 10.69774,-16.422902 3.92602,-4.793329 8.7543,-8.645707 13.87359,-12.075522 3.09703,-1.752299 6.12431,-3.875246 9.52119,-5.039929 1.11964,-0.383892 3.36103,-0.77035 4.54387,-0.995537 1.77396,-0.308144 3.57492,-0.337137 5.36782,-0.426157 0,0 0.0272,0.108427 0.0272,0.108427 v 0 c -1.56708,0.749281 -3.05883,1.607119 -4.50483,2.57452 -1.23568,0.79779 -2.41694,1.682176 -3.68651,2.424851 -2.91886,1.707475 -6.13405,2.921349 -8.90368,4.898247 -4.78248,3.177293 -9.29045,6.740604 -12.99359,11.168623 -3.93673,4.865764 -7.44989,10.039577 -10.23511,15.660692 -2.85245,5.640084 -5.56757,11.353856 -7.86612,17.245711 -2.3654,6.122276 -4.46259,12.341526 -6.19879,18.673606 -1.82747,6.52192 -3.5638,13.06865 -5.33841,19.6051 -1.72067,6.31559 -3.45869,12.62839 -5.38666,18.88445 -2.03448,6.3201 -4.1979,12.59774 -6.64734,18.77093 -2.48385,6.49582 -4.93865,13.00329 -7.2436,19.56519 -2.34294,6.5892 -4.69514,13.19175 -7.70821,19.51201 -2.98109,6.00121 -6.2946,11.84095 -10.46729,17.10948 -4.00055,4.99256 -8.34041,9.71032 -13.33074,13.74053 -5.08709,4.0449 -10.41992,7.7796 -16.232,10.72411 -6.10418,3.00592 -12.3652,5.70106 -18.96316,7.44109 -6.95061,1.85062 -14.00218,3.30872 -21.17463,3.97747 -7.27546,0.67288 -14.57984,0.99639 -21.88417,0.5917 -7.03088,-0.42124 -14.06369,-1.07576 -20.94792,-2.63195 -6.39357,-1.50321 -12.73401,-3.31833 -18.62491,-6.28713 -5.81503,-3.00916 -11.30746,-6.58075 -16.08922,-11.08963 -5.20958,-4.92443 -10.1158,-10.16717 -14.28777,-16.01602 -4.3708,-6.2253 -8.3743,-12.6976 -11.61706,-19.59218 -3.27615,-6.98966 -6.34726,-14.07385 -8.85328,-21.38195 -2.50048,-7.16803 -4.81299,-14.39727 -7.04861,-21.65215 -2.11878,-6.75146 -4.25051,-13.50035 -6.6422,-20.16146 -2.07649,-5.80983 -4.25937,-11.58355 -6.6714,-17.26344 -2.16982,-5.01304 -4.42205,-9.99787 -7.15574,-14.73509 -2.92105,-5.01619 -6.09032,-9.87922 -9.63375,-14.482491 -3.79341,-4.880295 -7.68063,-9.693042 -11.90554,-14.210543 -3.93008,-4.158845 -8.01747,-8.164917 -12.37211,-11.88211 -3.61949,-3.107589 -7.26534,-6.194501 -11.13785,-8.986183 -3.09326,-2.106153 -6.27421,-4.082235 -9.69503,-5.621081 -2.73583,-1.232189 -5.4931,-2.433915 -8.37147,-3.299521 -2.025708,-0.593214 -4.100901,-1.076232 -6.226889,-1.019434 -1.493414,0.105365 -2.990376,0.333324 -4.314396,1.079897 -1.304309,0.820554 -2.426388,1.853583 -3.327588,3.111452 0,0 -3.192246,-2.375371 -3.192246,-2.375371 z"
       inkscape:connector-curvature="0" />
    <path
       style="fill:#000000;stroke-width:1.43800008;stroke-linejoin:miter;stroke-miterlimit:4;stroke-dasharray:none"
       id="path43"
       d="m 176.82124,61.964953 c -1.90865,-0.651203 -3.88514,-1.008986 -5.88138,-1.249772 -2.17426,-0.248341 -4.32811,0.02795 -6.45292,0.480282 -2.27166,0.557353 -4.40521,1.511683 -6.48109,2.568554 -1.92661,1.015989 -3.67811,2.302515 -5.25775,3.795482 -1.26422,1.192834 -2.27771,2.599068 -3.15278,4.09231 -0.76944,1.297864 -1.29641,2.70895 -1.69565,4.158263 -0.36627,1.363552 -0.50808,2.767227 -0.49201,4.175051 0.0448,1.377244 0.4119,2.709511 0.83773,4.010777 0.51197,1.539631 1.15415,3.028558 1.80141,4.514357 0.65075,1.44449 1.44693,2.811722 2.37365,4.0948 0.91637,1.301698 2.15953,2.266898 3.45475,3.160972 1.65128,1.055 3.44571,1.849017 5.25496,2.587522 1.82717,0.762127 3.73553,1.250304 5.6779,1.602565 2.15231,0.328494 4.33007,0.253764 6.48796,0.04058 2.52195,-0.263623 4.97444,-0.888844 7.36151,-1.724694 2.26639,-0.845789 4.15426,-2.28789 5.80919,-4.019609 1.87939,-1.992934 3.14384,-4.418928 4.23277,-6.905601 1.15515,-2.687317 1.70013,-5.550294 2.0887,-8.431691 0.34413,-2.785179 0.0669,-5.527627 -0.76355,-8.194762 -0.88194,-2.640193 -2.62175,-4.713219 -4.65038,-6.551359 -2.08226,-1.815761 -4.53822,-3.030783 -7.1211,-3.948689 -1.37152,-0.719825 -3.62191,-0.559797 -4.96692,-1.096089 -0.2535,-0.101079 -0.46382,-0.287721 -0.69573,-0.431583 -0.7807,-0.453766 -1.51117,-0.984912 -2.25125,-1.500249 0,0 -0.0204,-0.109908 -0.0204,-0.109908 v 0 c 0.62081,-0.837723 1.32295,-1.558208 2.28788,-2.005811 0.3243,-0.141362 0.62777,-0.346326 0.97289,-0.424087 1.9576,-0.441087 4.4419,0.618191 6.31072,1.051586 3.17289,1.168609 6.17484,2.723372 8.72786,4.976566 2.60117,2.469031 4.82622,5.233112 5.93953,8.704199 0.93522,3.317309 1.34171,6.687339 0.87032,10.12852 -0.41228,3.330506 -1.092,6.630188 -2.40388,9.735801 -1.32927,3.010062 -2.9001,5.911184 -5.16099,8.337918 -2.20808,2.202624 -4.62957,4.113756 -7.60667,5.175386 -2.74481,0.99076 -5.58555,1.66658 -8.49035,1.98397 -2.58773,0.25658 -5.1925,0.38115 -7.77321,-0.0426 -2.29526,-0.37595 -4.54845,-0.96341 -6.70321,-1.85126 -2.11639,-0.8674 -4.21468,-1.8072 -6.15257,-3.031661 -1.80018,-1.195088 -3.46396,-2.569948 -4.75683,-4.320545 -1.1088,-1.556393 -2.08438,-3.19877 -2.86536,-4.946081 -0.75978,-1.633855 -1.43705,-3.307379 -2.02174,-5.012105 -0.58206,-1.796963 -1.09037,-3.623456 -1.10678,-5.529284 -0.003,-1.901026 0.1722,-3.790434 0.70111,-5.625161 0.57522,-1.848453 1.29381,-3.642926 2.30522,-5.302168 1.16669,-1.85008 2.46273,-3.616539 4.07517,-5.109749 1.94706,-1.73658 4.03098,-3.306408 6.37863,-4.470607 2.45037,-1.237882 4.98871,-2.309981 7.68069,-2.901997 2.6686,-0.549426 5.3814,-0.777492 8.08731,-0.313021 2.31061,0.415123 4.60014,0.986946 6.70367,2.06189 0,0 -1.49704,3.612835 -1.49704,3.612835 z"
       inkscape:connector-curvature="0" />
    <path
       style="fill:#ff0000;stroke-width:1.43800008;stroke-linejoin:miter;stroke-miterlimit:4;stroke-dasharray:none"
       id="path45"
       d="m 182.1489,60.645024 c 2.08293,1.304443 4.13069,2.662444 6.10423,4.127558 0.85592,0.659289 3.36599,2.420022 2.74708,3.829934 -0.33201,0.756327 -1.14569,1.190135 -1.71853,1.785204 -2.09509,0.06675 -3.98214,-1.02507 -5.85259,-1.851578 -2.0995,-0.933836 -4.23215,-1.787697 -6.41552,-2.503974 -0.57188,-0.173181 -1.02262,-0.320577 -1.59679,-0.456753 -0.16852,-0.03997 -0.33804,-0.07816 -0.50982,-0.100237 -0.0566,-0.0073 -0.22754,0.01749 -0.17068,0.01275 0.33379,-0.02769 0.80398,0.188819 1.00148,-0.08169 0.58557,-0.801979 0.72275,-1.849821 1.08413,-2.774731 -0.0243,-0.0668 -0.13817,-0.228462 -0.0729,-0.200406 0.50175,0.215562 0.87886,0.648597 1.32546,0.962851 1.21789,0.856969 2.45371,1.686049 3.68202,2.528096 2.60672,1.736752 5.17167,3.534193 7.69411,5.390915 1.1116,0.875472 3.19768,2.279224 1.83618,4.155932 -1.13528,1.564894 -2.24153,0.964954 -3.39008,0.576185 -2.57155,-1.189325 -5.08979,-2.491062 -7.63163,-3.74238 -3.06507,-1.49933 -6.15653,-2.943018 -9.27143,-4.335536 -0.88867,-0.353328 -1.74586,-0.818256 -2.67166,-1.076931 -0.1022,-0.02855 -0.4184,-0.07016 -0.31487,-0.04687 1.25459,0.282181 0.65067,-0.04533 2.35803,-1.547217 -0.0332,-0.345676 -0.16078,-0.695206 -0.0995,-1.037027 0.0198,-0.110405 0.16214,0.15503 0.24381,0.231913 0.20674,0.194622 0.40863,0.394594 0.6214,0.582596 1.0986,0.970701 2.28409,1.832063 3.45727,2.708601 3.20687,2.31943 6.48651,4.53559 9.69516,6.852515 1.74548,1.361765 3.73246,2.558423 5.04254,4.381651 -0.0655,0.817541 0.31322,1.810009 -0.1964,2.452624 -1.56447,1.972778 -5.09558,-0.475443 -6.60285,-1.241645 -3.39,-1.737892 -6.78653,-3.463798 -10.1935,-5.168371 -2.95399,-1.493734 -5.88428,-3.034149 -8.85006,-4.50437 -0.51035,-0.244731 -1.22481,-0.59446 -1.75853,-0.826026 -0.18221,-0.07906 -0.36623,-0.154414 -0.55328,-0.221231 -0.0747,-0.0267 -0.30849,-0.07452 -0.2307,-0.05882 1.84436,0.372237 0.40794,0.505381 2.51338,-3.024545 1.89155,1.629987 3.98548,3.019806 6.03875,4.436579 3.67367,2.443117 7.29183,4.963556 10.83275,7.595221 2.24212,1.805697 4.62612,3.536781 6.41049,5.823662 0.14608,0.36249 0.6088,0.735841 0.43823,1.087472 -0.49195,1.014166 -1.23558,1.991209 -2.20807,2.561116 -0.6661,0.390351 -4.38038,-2.115005 -4.97398,-2.488893 -3.74826,-2.360665 -7.60819,-4.532405 -11.51014,-6.626241 -3.54704,-1.885315 -7.17068,-3.625294 -10.88487,-5.155551 -0.384,-0.143071 -0.76451,-0.29591 -1.15201,-0.429213 -0.27445,-0.09441 -0.55181,-0.181485 -0.83294,-0.253608 -0.12924,-0.03316 -0.52819,-0.07579 -0.39552,-0.06155 1.6783,0.180152 2.73233,-0.374282 2.3171,-2.893089 2.88706,2.231332 5.86699,4.340159 8.79003,6.524382 4.17639,3.163255 8.27585,6.426761 12.29158,9.791379 1.20514,1.051097 2.46285,2.053876 3.58624,3.19591 0.19762,0.200899 0.42921,0.382143 0.56447,0.629362 0.23184,0.423712 0.81071,0.966859 0.51989,1.352484 -0.74966,0.994063 -2.07017,1.383837 -3.10525,2.075757 -2.99791,-1.651133 -5.76039,-3.718536 -8.58117,-5.654987 -3.76386,-2.612914 -7.66008,-5.028203 -11.67219,-7.239426 -2.61289,-1.477942 -5.3348,-2.743565 -8.11322,-3.874006 -0.0787,-0.02947 -0.97954,-0.376414 -1.1799,-0.42387 -0.0409,-0.0097 -0.16714,0.01426 -0.12513,0.01606 1.56382,0.06621 3.63729,-0.01823 2.37588,-3.134865 2.19178,1.769761 4.39613,3.5238 6.58151,5.302012 3.50793,2.881018 6.84073,5.964261 10.19678,9.018098 1.97829,1.854435 4.02561,3.631292 6.06006,5.422847 1.68855,1.62719 1.16343,1.770885 -2.14044,3.915944 -0.12952,0.08409 -2.56447,-1.443268 -2.76431,-1.568701 -2.98906,-1.943243 -5.88956,-4.017545 -8.83509,-6.025293 -2.94858,-2.030756 -5.96053,-3.971488 -9.07901,-5.731333 -2.21444,-1.20033 -2.5183,-0.181033 1.32022,-3.44547 0.0937,-0.07972 0.1799,0.167995 0.26774,0.254183 0.2378,0.233325 0.47275,0.469534 0.70913,0.704302 2.67567,2.526673 5.44455,4.951801 8.18026,7.412693 2.06681,1.916536 4.28265,3.67845 6.28374,5.665158 1.61004,1.747287 1.17317,2.012712 -1.89724,4.150757 -0.1927,0.134186 -2.58082,-1.117058 -2.84442,-1.252977 -2.43703,-1.304687 -4.8379,-2.675112 -7.27441,-3.980778 -1.72646,-0.834749 -3.35407,-1.963626 -5.18627,-2.567236 0.38639,0.42526 0.70677,0.811038 1.66388,-0.210423 0.58064,-0.619675 0.62775,-1.579827 0.88159,-2.390201 0.0233,-0.07437 -0.13622,-0.250073 -0.0623,-0.225356 0.134,0.04481 0.19521,0.204407 0.29595,0.303496 0.17382,0.170976 0.35175,0.337732 0.52762,0.5066 0.91923,1.006134 2.16704,1.71478 3.01973,2.78457 0.2651,0.332605 0.87996,1.455306 1.09695,1.840032 0.39041,0.639892 0.63127,1.346753 0.94617,2.022636 0,0 -0.0545,0.09759 -0.0545,0.09759 v 0 c -0.79079,0.03434 -1.56995,0.02249 -2.33818,-0.209638 -0.55074,-0.142845 -1.62524,-0.395314 -2.13173,-0.637907 -1.33938,-0.641517 -2.37798,-1.820516 -3.54351,-2.705984 -0.43397,-0.402437 -1.92968,-1.533509 -1.91262,-2.197378 0.0684,-2.660946 0.71329,-3.805938 3.2509,-3.075141 1.92318,0.857102 3.73703,1.931797 5.58698,2.932819 2.37382,1.324269 4.7514,2.643801 7.1642,3.895955 1.99544,0.98692 -0.11926,-0.04797 1.43956,0.688742 0.0673,0.03182 0.23321,0.03803 0.19793,0.103609 -0.93373,1.73569 -2.79429,2.311566 -1.65937,3.411103 0.0796,0.07717 -0.13368,-0.177003 -0.20051,-0.265507 -1.91696,-1.954106 -4.01642,-3.714064 -6.04004,-5.554919 -2.80367,-2.476762 -5.62379,-4.934873 -8.41881,-7.421258 -0.0607,-0.05788 -1.84789,-1.69767 -1.78842,-1.892657 1.4759,-4.839549 2.12457,-3.913124 4.71644,-2.470224 3.1361,1.922206 6.19434,3.965263 9.2276,6.045375 2.87339,1.988298 5.74538,3.982733 8.6902,5.864121 0.76516,0.460232 0.86162,0.532146 1.58029,0.92007 0.11861,0.06403 0.42259,0.06378 0.3604,0.183367 -0.70602,1.357543 -3.13581,2.454497 -1.86453,3.489061 0.0861,0.0701 -0.14607,-0.167323 -0.21911,-0.250984 -1.96204,-1.870988 -4.04309,-3.615304 -5.99417,-5.498812 -3.27098,-3.015646 -6.58402,-5.990841 -10.06911,-8.759269 -2.32727,-1.854047 -4.73843,-3.600085 -7.03885,-5.486199 -1.26632,-1.50763 -1.62735,-1.403157 0.50126,-4.180885 0.54779,-0.714843 2.63791,0.497912 3.19296,0.691526 2.89277,1.260906 5.69636,2.712008 8.46223,4.229266 4.07749,2.333168 8.10787,4.744876 11.97866,7.411884 2.49782,1.685809 4.97108,3.412313 7.52978,5.004348 -3.13304,3.00591 -2.73338,1.158049 -1.90335,3.274896 0.0528,0.134628 -0.15204,-0.24761 -0.24716,-0.356529 -0.2276,-0.260604 -0.47153,-0.506793 -0.71847,-0.749149 -0.91909,-0.902038 -1.54094,-1.425712 -2.53389,-2.304068 -3.94509,-3.312978 -7.95453,-6.552261 -12.14683,-9.550215 -3.11946,-2.249313 -6.31618,-4.395597 -9.37331,-6.727153 -1.44541,-1.733177 -1.88332,-1.536462 0.47891,-4.410056 0.47938,-0.583158 3.76254,0.885261 4.25251,1.09909 3.77246,1.690131 7.49535,3.486036 11.13362,5.451019 3.96494,2.126536 7.9071,4.296291 11.75273,6.633732 0.089,0.05187 2.93893,1.60587 2.984,1.694785 0.0656,0.129318 -0.33965,-0.06808 -0.43281,0.04301 -2.02614,2.416104 -2.20312,1.715349 -1.38344,3.108936 -1.21515,-2.057016 -3.728,-3.421919 -5.4389,-5.001778 -3.47972,-2.614531 -7.09531,-5.036085 -10.7252,-7.436295 -2.38161,-1.604391 -4.82565,-3.158376 -6.95729,-5.093922 0.40398,-1.317628 0.53003,-2.755249 1.21195,-3.952883 0.16093,-0.28263 0.65032,0.05374 0.96769,0.124876 1.0876,0.243771 1.9946,1.09406 3.01975,1.482232 2.9114,1.558296 5.8156,3.130881 8.75315,4.639556 3.37605,1.739903 6.77141,3.443468 10.18102,5.116357 1.08877,0.528505 1.23046,0.608983 2.26461,1.071435 0.23225,0.103857 0.46744,0.20102 0.70068,0.302641 0.0637,0.02777 0.24919,0.04869 0.19022,0.08551 -2.35449,1.470615 -1.67074,-0.121653 -1.71686,3.08335 0.18736,0.117798 0.27673,0.189691 -0.15952,-0.249954 -0.73974,-0.745501 -1.58576,-1.398204 -2.41525,-2.037141 -0.41908,-0.322802 -0.8435,-0.638593 -1.26525,-0.957889 -3.22955,-2.315697 -6.51775,-4.54645 -9.76255,-6.840551 -1.12907,-0.82219 -4.8512,-3.362418 -5.45944,-4.574111 -0.27816,-0.554136 -0.37581,-1.181751 -0.56372,-1.772629 0.63692,-0.676765 1.14152,-1.508797 1.91075,-2.030291 0.76598,-0.519287 3.9281,1.231852 4.66187,1.50236 3.13176,1.445889 6.23322,2.957279 9.34958,4.435983 2.4238,1.174194 4.82803,2.394841 7.29083,3.48494 0.8486,0.468654 -0.80894,-0.50606 -1.62233,1.090137 -0.96762,1.898856 1.40491,3.159958 -0.73302,1.370033 -2.42574,-1.862468 -4.96464,-3.569552 -7.5067,-5.267981 -2.1808,-1.424482 -4.52948,-2.738421 -6.35638,-4.607081 0.28726,-1.056198 0.27282,-2.245984 0.86177,-3.168592 0.50928,-0.797811 3.72917,0.463807 4.34647,0.670809 2.25924,0.816666 4.48882,1.710817 6.68454,2.686034 0.90736,0.391787 1.81221,0.792208 2.73425,1.148821 0.1952,0.07549 0.39214,0.146468 0.58957,0.215929 0.10219,0.03596 0.35641,0.0028 0.30916,0.10028 -0.0605,0.124822 -0.26981,0.06457 -0.40471,0.09685 -0.42399,0.555548 -1.04675,1.005075 -1.27196,1.666647 -0.31668,0.930257 0.82631,1.513279 0.1417,0.83978 -0.16132,-0.158697 -0.33144,-0.308454 -0.50444,-0.454319 -0.22927,-0.193302 -0.46792,-0.375179 -0.70189,-0.562769 -1.88135,-1.373801 -3.79594,-2.708272 -5.81464,-3.874584 0,0 2.05823,-3.440798 2.05823,-3.440798 z"
       inkscape:connector-curvature="0" />
    <path
       style="fill:#ff8080;stroke-width:1.43800008;stroke-linejoin:miter;stroke-miterlimit:4;stroke-dasharray:none"
       id="path49"
       d="m 165.7474,70.380481 c 1.38572,3.248861 2.54323,6.586995 3.69549,9.923701 1.35436,3.993007 2.68288,7.994364 4.05428,11.981518 0.16251,0.45158 0.31686,0.906182 0.48754,1.354741 0.0681,0.179009 0.47628,1.242049 0.68426,1.534811 0.0357,0.05031 0.0358,-0.174146 -0.0252,-0.183409 -1.02321,-0.155377 -2.06681,-0.436867 -3.09125,-0.28983 -0.32051,0.046 -0.35706,0.54026 -0.53559,0.810392 -0.22145,-3.19941 -0.74244,-6.369735 -1.24922,-9.533636 -0.70822,-4.434223 -1.62495,-8.827754 -2.75729,-13.172154 -0.69883,-2.169091 -1.19695,-4.458618 -2.26394,-6.490703 0.003,0.04589 -0.0349,0.147389 0.0101,0.137666 5.10356,-1.103445 3.83328,-2.269424 4.825,0.667287 0.31743,0.940001 0.8253,2.279211 1.16064,3.180127 1.78637,4.618525 3.79247,9.146146 5.859,13.644719 1.59032,3.232531 2.99155,6.591858 4.9642,9.618752 0.11323,0.131694 0.19265,0.302668 0.3397,0.395084 0.10501,0.06599 -0.0826,-0.290563 -0.20504,-0.310457 -0.81566,-0.132554 -1.67325,-0.321643 -2.47594,-0.12523 -0.40372,0.09879 -0.46301,0.732322 -0.82678,0.933392 -0.13642,0.07541 -0.006,-0.311822 -0.0164,-0.467357 -0.0242,-0.36326 -0.0582,-0.7258 -0.0872,-1.0887 -0.44545,-4.145709 -1.44274,-8.206592 -2.54159,-12.220255 -1.13857,-4.020642 -2.64407,-7.915931 -4.25044,-11.768047 -0.46581,-1.07428 -0.9226,-2.154814 -1.43191,-3.209679 -0.0817,-0.16922 -0.16946,-0.335518 -0.25937,-0.500523 -0.0291,-0.05342 -0.15478,-0.133972 -0.0974,-0.154326 1.49063,-0.529206 3.01886,-0.945814 4.5283,-1.41872 1.50885,3.3567 3.15112,6.651392 4.76364,9.958991 2.27303,4.640101 4.53056,9.288489 6.89341,13.883754 0.7101,1.059201 1.09861,2.4327 2.02704,3.353493 0.0328,0.03257 0.0475,-0.128757 0.002,-0.138758 -0.78937,-0.174837 -1.60169,-0.552934 -2.3938,-0.390927 -0.50628,0.103544 -0.72607,0.735512 -1.0891,1.10327 -0.27491,-3.292584 -1.10211,-6.513124 -1.93555,-9.700324 -1.15924,-4.268785 -2.58413,-8.458157 -4.03005,-12.63638 -0.40944,-1.676154 -1.35013,-3.238027 -1.67758,-4.937993 -0.0587,-0.304758 -0.36929,-0.784238 -0.0934,-0.926391 1.33437,-0.687528 2.88342,-0.835991 4.32514,-1.253988 1.68888,2.887594 2.99252,5.996094 4.41526,9.023435 1.62518,3.503615 3.33241,6.967051 5.13776,10.381091 0.38178,0.657016 0.59917,1.093388 1.0457,1.671315 0.0608,0.07873 0.28609,0.27664 0.21327,0.208843 -1.43698,-1.33782 -2.51804,-0.951121 -3.55704,0.540642 -0.16904,-2.923828 -0.82512,-5.799892 -1.45137,-8.653031 -0.78948,-3.439179 -1.77356,-6.828695 -2.87542,-10.179571 -0.11015,-0.310402 -0.2176,-0.621774 -0.33045,-0.931204 -0.0235,-0.06445 -0.26093,-0.729147 -0.36615,-0.901549 -0.0226,-0.03707 -0.008,0.138438 0.0339,0.125788 1.50076,-0.457025 2.92778,-1.17049 4.46264,-1.495107 0.1782,-0.03769 0.1316,0.33968 0.19741,0.509521 0.6277,1.52745 1.43259,2.970271 2.30639,4.36822 0.85567,1.224817 1.30086,1.352392 0.67737,2.833153 -0.25885,0.469649 -0.22961,0.230228 -0.13462,0.71097 0,0 0.0555,0.09702 0.0555,0.09702 v 0 c -0.29074,0.706165 -0.0499,0.409985 -0.78418,0.834721 -2.11939,0.400301 -2.67127,-0.313103 -3.75918,-2.032968 -1.00155,-1.630852 -1.96021,-3.292295 -2.71152,-5.056169 -0.85345,-2.050638 -0.62006,-0.895274 3.88318,-2.985619 0.008,-0.0035 0.9215,2.453237 0.85306,2.534843 1.06826,3.500665 2.06647,7.023346 2.89776,10.588744 0.75906,3.374826 1.5992,6.786014 1.69881,10.256977 -0.19859,0.594654 -0.0928,1.409642 -0.59576,1.783964 -3.20837,2.387955 -4.59314,-0.378111 -5.82581,-2.685838 -1.82692,-3.476112 -3.49818,-7.029876 -5.18365,-10.576044 -1.25248,-2.621518 -2.50464,-5.247638 -3.83179,-7.830143 1.31081,-0.565025 2.69187,-0.98902 3.93241,-1.695082 0.14264,-0.08118 -0.13552,-0.641924 -0.11162,-0.479552 0.23805,1.617128 1.0714,3.107841 1.46276,4.682567 1.44031,4.291777 2.87757,8.587573 4.07933,12.953764 1.01378,3.802282 2.13887,7.660881 2.25055,11.617034 -0.42899,0.770342 -0.5063,1.901153 -1.28699,2.311032 -3.38873,1.779172 -4.93324,-2.989776 -6.01107,-4.940443 -2.30957,-4.639484 -4.55783,-9.309354 -6.89377,-13.935818 -1.67576,-3.360378 -3.37688,-6.708913 -5.00697,-10.091616 1.34531,-0.850521 2.63653,-1.793308 4.03591,-2.551565 0.0147,-0.008 0.0791,0.200361 0.35944,0.878012 0.46328,1.119741 0.92676,2.239328 1.38306,3.361997 1.62041,4.037568 3.13204,8.124888 4.30561,12.317487 1.17532,4.271922 2.27637,8.576116 2.87012,12.974007 0.13034,1.336043 0.66591,4.007056 -0.90097,4.88306 -2.22665,1.244867 -3.34862,0.09255 -4.36858,-1.39577 -1.88725,-3.286889 -3.45666,-6.741271 -5.05946,-10.172535 -2.09442,-4.590754 -4.1596,-9.197742 -6.01558,-13.891168 -0.60101,-1.53326 -1.22393,-3.068063 -1.71382,-4.642149 -0.11186,-0.359394 -0.58469,-0.842737 -0.29976,-1.088681 1.17322,-1.012668 2.65323,-1.637172 4.10039,-2.191858 0.18097,-0.06937 0.17045,0.348141 0.25567,0.522211 0.91041,2.366856 1.52607,4.840263 2.16527,7.28981 1.07062,4.473448 1.97946,8.983422 2.73381,13.521243 0.58418,3.481848 1.28275,6.967889 1.4964,10.495849 -0.20445,0.630398 -0.0141,1.608137 -0.61337,1.891196 -3.89117,1.838069 -4.21108,-1.762905 -5.05344,-4.111683 -1.31464,-3.990991 -2.61404,-7.987228 -3.99234,-11.956984 -1.14387,-3.252697 -2.29938,-6.50322 -3.62092,-9.688957 0,0 3.76095,-1.571323 3.76095,-1.571323 z"
       inkscape:connector-curvature="0" />
    <path
       style="fill:#ffd5d5;stroke-width:1.43800008;stroke-linejoin:miter;stroke-miterlimit:4;stroke-dasharray:none"
       id="path51"
       d="m 177.8201,64.743864 c 1.30672,3.37135 2.45379,6.801032 3.59997,10.2293 1.26602,3.803734 2.51929,7.611951 3.74743,11.428137 0.13525,0.394287 0.26458,0.790651 0.40574,1.182862 0.15007,0.416981 0.18982,0.922081 0.5111,1.227325 0.10215,0.09705 -0.0371,-0.3615 -0.17615,-0.384249 -3.33579,-0.545748 -2.73346,-1.002006 -3.76503,0.519591 0.1612,-2.704689 -0.17648,-5.412478 -0.48487,-8.095125 -0.48973,-3.616619 -1.22498,-7.194854 -2.04968,-10.748293 -0.20936,-1.232133 -0.67437,-2.421869 -0.87222,-3.655928 -0.0341,-0.212913 -0.27772,-0.593823 -0.0678,-0.643326 1.5162,-0.357629 3.1019,-0.2921 4.65285,-0.438147 1.23292,2.959803 2.2612,6.002308 3.33825,9.021685 1.20498,3.18189 2.1543,6.483546 3.64837,9.548638 1.06411,0.690983 -1.36235,-0.903266 -2.86039,-0.708038 -0.55985,0.07296 -0.54977,1.085112 -1.06425,1.317654 -0.24641,0.111374 -0.0346,-0.539822 -0.0613,-0.808906 -0.12014,-1.209503 -0.22428,-1.88696 -0.39247,-3.133743 -0.5478,-3.814 -1.1839,-7.615245 -1.84133,-11.411759 -0.0796,-0.428938 -0.15731,-0.858248 -0.23895,-1.286809 -0.14144,-0.742434 -0.16782,-0.906373 -0.33558,-1.564609 -0.0233,-0.09143 -0.17017,-0.25365 -0.0777,-0.2722 4.7656,-0.955617 4.35139,-2.148052 4.75273,-0.134668 0.58873,2.509904 1.41762,4.951129 2.25563,7.385939 0.55981,1.090901 1.45968,4.920268 2.38577,5.607643 -1.24334,-1.160775 -0.73838,-1.055135 -3.32012,-0.192741 -0.19431,0.06491 -0.15712,0.462795 -0.35876,0.49903 -0.14411,0.0259 0.0222,-0.292237 0.0228,-0.43865 0.002,-0.61745 -0.0419,-1.288619 -0.0728,-1.899412 -0.17948,-2.223026 -0.51054,-4.430088 -0.88306,-6.627902 -0.26615,-2.500151 0.16379,-2.103813 4.44863,-1.990707 0.12165,0.0032 0.67831,1.452126 0.68944,1.529744 0.043,0.299689 -0.0351,0.604486 -0.0527,0.906727 -0.0572,0.934689 -0.31002,1.821276 -0.63515,2.691842 0,0 -0.0936,0.06115 -0.0936,0.06115 v 0 c -0.9733,-0.19956 -1.79459,-0.66942 -2.58202,-1.275231 -0.80513,-0.55168 -0.52907,-0.235011 -0.97581,-0.952569 -0.0586,-0.0941 -0.27408,-0.240845 -0.17219,-0.284504 1.2876,-0.551688 2.69582,-0.78908 3.98061,-1.347274 0.11325,-0.0492 -0.0379,-0.492437 -0.0297,-0.369231 0.009,0.129836 0.0207,0.259418 0.031,0.38913 0.24808,2.324222 0.69562,4.625078 0.8521,6.960328 0.0905,1.106942 0.33946,2.486345 0.0777,3.588464 -0.62786,2.643526 -2.65934,3.526523 -4.72255,1.560005 -1.39575,-2.103112 -2.03685,-4.579401 -2.94583,-6.911959 -0.89683,-2.590224 -1.76656,-5.195102 -2.45304,-7.850132 -0.53259,-2.124467 -0.48348,-0.994635 4.37134,-1.897925 0.12657,-0.02355 0.0441,0.253674 0.0642,0.380838 0.0897,0.568048 0.18219,1.135645 0.26927,1.704094 0.0662,0.432411 0.12655,0.865709 0.18983,1.298565 0.60231,3.836278 1.18819,7.675329 1.8321,11.504887 0.11062,0.720725 0.79027,4.053901 0.62379,4.716195 -0.22439,0.892689 -0.25693,2.162564 -1.09955,2.533026 -2.55226,1.122116 -3.01191,-0.117938 -3.75114,-1.38267 -1.38722,-3.246763 -2.44392,-6.622045 -3.70444,-9.918184 -1.03498,-2.842805 -2.0349,-5.702244 -3.22429,-8.485341 1.36329,-0.520848 2.76483,-0.950899 4.08987,-1.562547 0.091,-0.04202 -0.0713,-0.39221 -0.0724,-0.291952 -0.0127,1.206492 0.64105,2.394003 0.70128,3.59092 0.7556,3.703751 1.54389,7.403909 2.0316,11.155545 0.41274,3.109097 0.81719,6.24877 0.69454,9.391295 -0.91275,2.392442 -0.34081,2.449322 -4.19423,1.783683 -0.53332,-0.09212 -1.42681,-3.272004 -1.57874,-3.717951 -1.21136,-3.79847 -2.40676,-7.601678 -3.6815,-11.379605 -1.13577,-3.346288 -2.27481,-6.693522 -3.54546,-9.99151 0,0 4.16881,-1.660446 4.16881,-1.660446 z"
       inkscape:connector-curvature="0" />
  </g>
</svg>
