<?xml version="1.0" encoding="UTF-8" standalone="no"?>
<!-- Created with Inkscape (http://www.inkscape.org/) -->

<svg
   xmlns:dc="http://purl.org/dc/elements/1.1/"
   xmlns:cc="http://creativecommons.org/ns#"
   xmlns:rdf="http://www.w3.org/1999/02/22-rdf-syntax-ns#"
   xmlns:svg="http://www.w3.org/2000/svg"
   xmlns="http://www.w3.org/2000/svg"
   xmlns:sodipodi="http://sodipodi.sourceforge.net/DTD/sodipodi-0.dtd"
   xmlns:inkscape="http://www.inkscape.org/namespaces/inkscape"
   width="1920"
   height="1080"
   viewBox="0 0 507.99999 285.75001"
   version="1.1"
   id="svg8"
   inkscape:version="0.92.2 2405546, 2018-03-11"
   sodipodi:docname="fccbcc-1.svg">
  <defs
     id="defs2" />
  <sodipodi:namedview
     id="base"
     pagecolor="#ffffff"
     bordercolor="#666666"
     borderopacity="1.0"
     inkscape:pageopacity="0.0"
     inkscape:pageshadow="2"
     inkscape:zoom="0.45254834"
     inkscape:cx="958.87981"
     inkscape:cy="553.5688"
     inkscape:document-units="mm"
     inkscape:current-layer="layer1"
     showgrid="false"
     units="px"
     inkscape:window-width="1348"
     inkscape:window-height="730"
     inkscape:window-x="5"
     inkscape:window-y="25"
     inkscape:window-maximized="0" />
  <metadata
     id="metadata5">
    <rdf:RDF>
      <cc:Work
         rdf:about="">
        <dc:format>image/svg+xml</dc:format>
        <dc:type
           rdf:resource="http://purl.org/dc/dcmitype/StillImage" />
        <dc:title></dc:title>
      </cc:Work>
    </rdf:RDF>
  </metadata>
  <g
     inkscape:label="Layer 1"
     inkscape:groupmode="layer"
     id="layer1"
     transform="translate(0,-11.249983)">
    <path
       style="fill:#000000;stroke-width:1.43800008;stroke-linejoin:miter;stroke-miterlimit:4;stroke-dasharray:none"
       id="path660"
       d="m 35.20264,89.953457 c -1.804466,-0.631105 -3.617627,-0.591193 -5.466165,-0.231754 -2.431642,0.607674 -4.222311,2.161141 -5.738119,4.081706 -1.540952,2.26636 -2.092211,4.255932 -1.596652,6.950521 0.93789,2.64716 2.93824,3.64729 5.491636,4.3904 3.074432,0.61606 6.242489,0.19108 9.102704,-1.08768 0.613039,-0.27408 1.188333,-0.62579 1.7825,-0.93869 2.276343,-1.51921 4.642525,-3.56081 5.047398,-6.44787 0.05621,-0.40082 0.0055,-0.809469 0.0083,-1.214204 -0.47779,-2.795463 -2.742967,-4.197787 -5.083125,-5.392121 -1.91779,-1.257348 -4.068278,-1.899624 -6.332802,-2.090314 0,0 -0.01918,-0.09155 -0.01918,-0.09155 v 0 c 2.560444,-1.312011 4.977749,-1.572419 7.816728,-0.983075 0.601599,0.257741 1.227257,0.465328 1.804797,0.773221 2.360366,1.258347 4.404712,3.350072 5.170892,5.963247 0.191413,0.652841 0.223081,1.342234 0.334619,2.013353 -0.05423,0.686871 -0.03096,1.384315 -0.162693,2.060612 -0.749591,3.848181 -3.741851,6.641241 -6.905468,8.651641 -0.731224,0.37349 -1.441572,0.79103 -2.193671,1.12047 -3.6283,1.58929 -7.604816,2.06078 -11.483666,1.24739 -0.665413,-0.21591 -1.348859,-0.38261 -1.996244,-0.64772 -3.023973,-1.23838 -5.233781,-3.57715 -6.057691,-6.75463 -0.08009,-0.57935 -0.2136,-1.15381 -0.24027,-1.738065 -0.134493,-2.946487 1.056169,-5.727218 2.73532,-8.078493 2.255319,-2.638343 4.520409,-4.442966 8.01297,-5.120196 2.457111,-0.291772 4.923314,-0.186206 7.145255,1.029888 0,0 -1.177345,2.533917 -1.177345,2.533917 z"
       inkscape:connector-curvature="0" />
    <path
       style="fill:#000000;stroke-width:1.43800008;stroke-linejoin:miter;stroke-miterlimit:4;stroke-dasharray:none"
       id="path662"
       d="m 157.63979,85.868479 c -1.67145,-0.913617 -3.46269,-0.780389 -5.25554,-0.376002 -2.24534,0.72691 -4.20159,2.159944 -5.32522,4.274642 -0.2272,0.427614 -0.375,0.892911 -0.5625,1.339363 -0.66298,2.464152 -0.17979,4.938197 1.56068,6.853955 0.37326,0.410839 0.81896,0.749482 1.22844,1.124225 2.84911,1.987408 6.30406,2.708998 9.74398,2.314738 0.75801,-0.0869 1.49963,-0.28216 2.24944,-0.42323 3.19005,-0.96429 6.51152,-2.585338 8.13654,-5.67863 0.22796,-0.433927 0.34394,-0.918011 0.51592,-1.377016 0.30708,-2.300769 -0.65006,-4.38133 -2.43793,-5.848376 -0.49553,-0.406612 -1.05722,-0.725128 -1.58583,-1.087694 -0.6232,-0.298558 -1.2464,-0.597117 -1.8696,-0.895678 0,0 0.0273,-0.08948 0.0273,-0.08948 v 0 c 0.71459,0.10936 1.42918,0.218718 2.14378,0.328078 0.69059,0.196789 1.40069,0.334844 2.07176,0.59037 2.7118,1.032571 5.03267,3.057028 5.04639,6.163392 0.003,0.712965 -0.21503,1.409637 -0.32254,2.114455 -0.29803,0.673843 -0.52129,1.385993 -0.89409,2.021528 -2.19112,3.735341 -6.25847,5.773331 -10.27375,6.893551 -0.89384,0.15149 -1.77977,0.36085 -2.68151,0.45446 -4.32522,0.44903 -8.597,-0.51381 -12.10833,-3.11558 -0.55454,-0.53776 -1.1668,-1.02177 -1.66362,-1.613263 -2.41001,-2.869234 -2.92271,-6.522876 -1.7835,-10.026258 0.28479,-0.60874 0.51692,-1.245026 0.85439,-1.826223 1.61386,-2.779448 4.30895,-4.601623 7.35855,-5.459669 2.74373,-0.462362 5.13234,-0.50505 7.45982,1.233101 0,0 -1.63301,2.111238 -1.63301,2.111238 z"
       inkscape:connector-curvature="0" />
    <path
       style="fill:#000000;stroke-width:1.43800008;stroke-linejoin:miter;stroke-miterlimit:4;stroke-dasharray:none"
       id="path664"
       d="m 45.391543,214.70428 c -2.365219,-0.48882 -4.734108,-0.0517 -7.030977,0.54822 -3.048907,0.84157 -5.67631,2.46014 -7.938746,4.63384 -1.696799,1.96908 -2.621423,3.75862 -2.173687,6.37854 0.854689,2.31408 2.662269,2.74187 4.921552,2.88697 3.873783,-0.21961 6.566244,-1.86113 9.33016,-4.45339 1.16096,-1.36277 2.323428,-2.94407 2.286326,-4.8298 -0.0089,-0.44984 -0.220705,-1.11928 -0.340649,-1.55311 -0.465031,-1.37961 -1.616215,-2.52223 -2.938629,-3.13524 -0.392258,-0.18184 -0.827775,-0.25002 -1.241663,-0.37502 0,0 0.0199,-0.0914 0.0199,-0.0914 v 0 c 2.640039,0.36383 4.923126,0.22005 6.928948,2.33855 0.273555,0.50384 0.645176,0.96573 0.820666,1.51153 1.037235,3.22595 -1.133922,6.437 -3.133556,8.71779 -0.552204,0.50964 -1.073539,1.0549 -1.656609,1.52891 -2.96355,2.40927 -6.559965,3.8739 -10.385129,4.00084 -0.680611,-0.0668 -1.370705,-0.0691 -2.041837,-0.20054 -3.175907,-0.62216 -5.479605,-2.75273 -6.287233,-5.87342 -0.05843,-0.56761 -0.173746,-1.13222 -0.175283,-1.70283 -0.0081,-3.01554 1.553818,-5.67536 3.542498,-7.82296 0.450548,-0.41929 0.877416,-0.86557 1.351648,-1.25788 2.412846,-1.99604 5.309867,-3.29545 8.309186,-4.12154 2.88153,-0.61171 5.829298,-1.0033 8.714153,-0.15666 0,0 -0.881034,3.02861 -0.881034,3.02861 z"
       inkscape:connector-curvature="0" />
    <path
       style="fill:#000000;stroke-width:1.43800008;stroke-linejoin:miter;stroke-miterlimit:4;stroke-dasharray:none"
       id="path666"
       d="m 166.67382,216.77048 c -2.02087,-0.25602 -3.84622,0.40009 -5.58684,1.35883 -2.32717,1.60157 -3.45575,3.18428 -3.81039,5.99786 0.131,2.79015 1.45402,3.9169 3.90955,4.91949 2.54594,0.63685 5.19963,0.18499 7.39409,-1.27791 0.43685,-0.29123 0.81857,-0.65768 1.22785,-0.98652 1.43411,-1.51265 2.53049,-3.5616 1.74619,-5.67255 -0.11987,-0.32263 -0.31801,-0.6105 -0.47702,-0.91575 -1.18956,-1.46543 -0.12895,-0.25226 -1.5554,-1.61393 -0.31057,-0.29647 -0.57824,-0.63738 -0.90122,-0.92026 -1.02405,-0.8969 -2.19623,-1.47256 -3.42046,-2.03364 -0.37193,-0.12507 -0.74385,-0.25013 -1.11577,-0.37519 0,0 0.005,-0.0934 0.005,-0.0934 v 0 c 0.40812,-0.0814 0.81625,-0.16283 1.22438,-0.24425 2.15345,-0.18022 4.56315,-0.15382 6.50001,0.98839 1.27296,0.7507 1.74766,1.60497 2.6178,2.7448 0.25737,0.59735 0.59223,1.16699 0.77211,1.79206 1.01316,3.5206 -0.62601,6.85096 -3.09077,9.29266 -0.58807,0.45075 -1.13932,0.9541 -1.7642,1.35225 -3.22561,2.05527 -7.03997,2.54162 -10.68565,1.46648 -0.63585,-0.28691 -1.30625,-0.5071 -1.90755,-0.86073 -2.98088,-1.75305 -4.43274,-4.82346 -4.24484,-8.21322 0.12265,-0.60614 0.19152,-1.2257 0.36796,-1.81842 0.87836,-2.95074 3.03019,-5.20826 5.64587,-6.72074 2.65657,-1.1874 5.0761,-1.80968 7.9373,-0.90077 0,0 -0.78822,2.73446 -0.78822,2.73446 z"
       inkscape:connector-curvature="0" />
    <path
       style="fill:#000000;stroke-width:1.43800008;stroke-linejoin:miter;stroke-miterlimit:4;stroke-dasharray:none"
       id="path668"
       d="m 98.455642,156.90523 c -1.34459,-1.06149 -2.90003,-1.27762 -4.55535,-1.11223 -2.41231,0.49926 -3.82634,1.92716 -5.05677,3.96564 -1.0698,2.44618 -1.03834,4.3823 0.20909,6.72705 1.65483,2.05637 3.03658,2.35015 5.47889,1.53663 2.93627,-1.62667 4.14824,-4.01751 4.90907,-7.17741 0.37704,-2.69746 -0.30477,-3.86692 -2.00641,-5.76106 -0.91313,-0.66992 -2.01009,-1.26033 -3.16239,-1.38017 -0.38357,-0.0399 -0.76985,0.0469 -1.15478,0.0703 0,0 -0.0164,-0.0921 -0.0164,-0.0921 v 0 c 1.84383,-0.54316 3.5935,-1.25947 5.56179,-0.82397 0.54159,0.18216 1.12568,0.26826 1.624768,0.54648 2.96392,1.65223 3.18862,5.40874 2.75005,8.36373 -0.18197,0.67752 -0.316,1.36978 -0.54591,2.03257 -1.20047,3.46083 -3.547758,6.32855 -6.905578,7.84877 -0.65489,0.17538 -1.29309,0.43328 -1.96466,0.52615 -3.33806,0.46161 -6.20688,-1.30103 -7.98535,-4.01076 -0.25771,-0.5512 -0.5685,-1.08056 -0.77312,-1.65359 -1.04327,-2.92157 -0.56405,-6.03297 0.80543,-8.74787 0.32012,-0.4961 0.60052,-1.02022 0.96037,-1.4883 1.7576,-2.28618 4.29085,-3.71834 7.13996,-4.07164 0.5157,7.9e-4 1.03343,-0.0431 1.5471,0.003 2.07819,0.18485 3.98362,1.17604 5.313848,2.77312 0,0 -2.173688,1.92607 -2.173688,1.92607 z"
       inkscape:connector-curvature="0" />
    <path
       style="fill:#000000;stroke-width:1.43800008;stroke-linejoin:miter;stroke-miterlimit:4;stroke-dasharray:none"
       id="path670"
       d="m 206.67411,52.132029 c -2.11574,-0.04817 -3.98903,0.612597 -5.68425,1.839454 -1.86109,1.686132 -2.54983,3.624104 -2.42341,6.091873 0.46142,2.276985 1.68794,3.251078 3.87161,3.748823 2.67195,0.253484 4.92935,-0.971696 6.83785,-2.723073 1.53332,-1.844413 1.54111,-2.586511 0.99313,-4.726231 -0.45805,-0.882298 -1.14183,-1.757709 -2.01558,-2.273218 -0.3185,-0.187915 -0.69034,-0.265414 -1.03551,-0.398121 0,0 0.0261,-0.08982 0.0261,-0.08982 v 0 c 1.70574,0.347919 3.45884,0.353438 4.90211,1.484873 0.34744,0.367493 0.78219,0.668772 1.04232,1.102477 1.48902,2.482657 -0.18369,5.373502 -1.86101,7.204985 -0.44028,0.383116 -0.85327,0.800057 -1.32084,1.149352 -2.41778,1.806208 -5.35546,2.639457 -8.34988,2.254642 -0.53549,-0.151254 -1.09028,-0.245988 -1.60649,-0.453763 -2.66867,-1.074153 -4.17739,-3.461374 -4.49452,-6.247588 0.009,-0.543507 -0.0312,-1.089951 0.0259,-1.630521 0.28997,-2.745877 1.77516,-5.112626 3.94238,-6.767287 2.43924,-1.440456 4.5089,-2.074051 7.35962,-1.702099 0,0 -0.20955,2.135243 -0.20955,2.135243 z"
       inkscape:connector-curvature="0" />
    <path
       style="fill:#000000;stroke-width:1.43800008;stroke-linejoin:miter;stroke-miterlimit:4;stroke-dasharray:none"
       id="path672"
       d="m 212.31742,186.93146 c -2.0811,0.33109 -3.93081,1.22022 -5.61573,2.45471 -1.74311,1.45099 -2.74268,3.33287 -2.75425,5.59651 0.29503,1.92818 1.32698,2.68449 3.16594,2.99342 2.44996,0.12748 4.40371,-1.14082 5.99147,-2.8827 1.45558,-2.11451 1.11712,-3.20736 0.0892,-5.34136 -0.86141,-1.67014 -2.33842,-2.68576 -3.91847,-3.59621 0,0 0.0299,-0.0886 0.0299,-0.0886 v 0 c 2.19004,0.30215 4.30091,0.689 6.08498,2.11336 0.37832,0.43087 0.8343,0.80438 1.13497,1.29261 1.58921,2.58063 0.6428,5.62588 -1.01302,7.8681 -0.39705,0.41827 -0.76063,0.87107 -1.19115,1.25481 -2.20138,1.96221 -5.03535,2.93401 -7.96643,2.68356 -0.5287,-0.13892 -1.07671,-0.21839 -1.5861,-0.41674 -2.59621,-1.01095 -3.96782,-3.37616 -4.11527,-6.07138 0.0461,-0.51091 0.0455,-1.02822 0.13827,-1.53274 0.48539,-2.63839 2.15227,-4.77932 4.26157,-6.34778 2.19059,-1.35056 4.54472,-2.39913 7.17885,-2.29495 0,0 0.0853,2.31542 0.0853,2.31542 z"
       inkscape:connector-curvature="0" />
    <path
       style="fill:#cccccc;stroke-width:1.43800008;stroke-linejoin:miter;stroke-miterlimit:4;stroke-dasharray:none"
       id="path674"
       d="m 89.681792,188.21247 c -1.37097,-0.99544 -2.805816,-0.74209 -4.253058,-0.0852 -2.248476,1.32624 -3.363682,3.55802 -3.963715,6.00753 -0.231793,2.13393 -0.13898,3.88611 1.876214,5.01558 2.33698,0.77043 4.592576,-0.28733 6.594514,-1.44173 2.313371,-1.70561 3.733671,-3.18303 3.830643,-6.15205 -0.298744,-2.15106 -1.86844,-3.75279 -3.287284,-5.28442 -0.691419,-0.71326 -1.522145,-1.24138 -2.358649,-1.76123 0,0 0.01405,-0.0925 0.01405,-0.0925 v 0 c 1.185268,-0.2493 2.268829,-0.28727 3.452366,0.0884 1.083873,0.409 1.841047,0.59665 2.763324,1.3578 1.781516,1.47026 2.636366,3.70231 2.784163,5.94218 -0.05656,0.57283 -0.05125,1.15518 -0.169688,1.71848 -0.643565,3.06096 -2.891687,5.38212 -5.380628,7.09313 -3.308164,1.84802 -6.513713,3.02384 -10.1733,1.32707 -0.432343,-0.32653 -0.909955,-0.6005 -1.297025,-0.97961 -2.060596,-2.01823 -2.25693,-5.01247 -1.76603,-7.68534 1.094973,-3.70093 2.505358,-6.07966 5.986418,-7.97189 0.484692,-0.16944 0.955188,-0.38687 1.454078,-0.50831 2.078323,-0.50588 4.147264,0.0408 5.739228,1.44141 0,0 -1.845628,1.97067 -1.845628,1.97067 z"
       inkscape:connector-curvature="0" />
    <path
       style="fill:#000000;stroke-width:1.43800008;stroke-linejoin:miter;stroke-miterlimit:4;stroke-dasharray:none"
       id="path676"
       d="m 82.555542,56.898291 c -2.168374,-0.6062 -4.330636,-0.321469 -6.470639,0.225806 -2.884591,0.989539 -5.124585,2.626627 -6.767023,5.192744 -0.745776,1.738294 -0.618051,2.343663 1.089078,2.919299 2.889752,0.597254 5.670166,-0.423087 8.210206,-1.721234 1.539811,-1.003173 3.653673,-2.534811 2.952464,-4.627906 -0.761532,-1.854211 -2.116699,-3.099716 -3.901144,-3.96194 0,0 0.02302,-0.09067 0.02302,-0.09067 v 0 c 2.15406,0.121139 4.736581,0.209087 6.322655,1.945923 0.36127,0.395613 0.551844,0.918466 0.827765,1.377698 0.09979,0.533337 0.288629,1.057524 0.299352,1.60001 0.06202,3.137008 -2.602989,5.298032 -5.006618,6.781837 -3.563104,1.760482 -7.171147,2.938523 -11.143919,1.842714 -1.251233,-0.624247 -1.873133,-0.735631 -2.705195,-1.935443 -1.326449,-1.912702 -0.747435,-4.161641 0.293145,-6.02225 0.337609,-0.463404 0.641956,-0.952973 1.012825,-1.390216 2.028127,-2.3911 4.83611,-3.964019 7.818475,-4.821557 2.686568,-0.571781 5.424984,-0.783498 8.024053,0.303911 0,0 -0.878499,2.381271 -0.878499,2.381271 z"
       inkscape:connector-curvature="0" />
    <path
       style="fill:#000000;stroke-width:1.43800008;stroke-linejoin:miter;stroke-miterlimit:4;stroke-dasharray:none"
       id="path678"
       d="m 194.76339,130.03141 c -1.80763,-0.17193 -3.415,0.49902 -4.88415,1.48454 -1.59987,1.18598 -2.70469,2.7884 -3.12871,4.72975 -0.16492,1.34813 0.51577,1.99887 1.68585,2.44488 2.16742,0.57128 4.19297,-0.15603 6.07259,-1.20829 1.71736,-1.24303 2.74568,-2.61841 2.46841,-4.78439 -0.56805,-1.82658 -1.55137,-3.08521 -2.98798,-4.31376 -0.28013,-0.11169 -0.56025,-0.22338 -0.84038,-0.33507 0,0 0.0266,-0.0897 0.0266,-0.0897 v 0 c 0.30293,0.061 0.60585,0.12206 0.90878,0.18309 2.15898,0.15606 4.48409,0.75408 5.57547,2.84437 0.229,0.43859 0.32398,0.93503 0.48597,1.40254 0.0413,0.5004 0.1476,0.99966 0.12397,1.50121 -0.13045,2.76879 -2.02408,4.92547 -4.20035,6.41238 -3.01355,1.65274 -5.60306,2.38336 -8.99585,1.37784 -0.41756,-0.20503 -0.86269,-0.36151 -1.25268,-0.61509 -1.97125,-1.28179 -2.55767,-3.47088 -2.14247,-5.68464 0.87319,-2.70618 2.32128,-4.72939 4.70687,-6.33087 2.11654,-1.186 4.33067,-1.97611 6.79268,-1.53824 0,0 -0.41459,2.51944 -0.41459,2.51944 z"
       inkscape:connector-curvature="0" />
    <path
       style="fill:#cccccc;stroke-width:1.43800008;stroke-linejoin:miter;stroke-miterlimit:4;stroke-dasharray:none"
       id="path680"
       d="m 147.0873,127.70279 c -1.78074,0.24101 -3.3688,1.03311 -4.79074,2.09817 -1.18593,1.04005 -1.83972,2.29702 -1.2917,3.82671 0.81027,1.56814 2.41013,2.08352 4.05062,2.30014 2.12922,0.0675 3.83236,-0.85139 5.18041,-2.43768 0.96503,-1.40541 1.05546,-2.87942 0.30446,-4.37799 -0.78288,-1.3133 -2.25773,-1.75937 -3.42935,-2.60542 -0.79556,-0.49511 -1.59918,-0.82835 -2.53664,-0.75749 0,0 -0.0391,-0.085 -0.0391,-0.085 v 0 c 0.9163,-0.83594 1.82594,-1.47851 3.1149,-1.58785 0.38862,-0.0178 0.77978,-0.10113 1.16585,-0.0533 2.13081,0.26386 3.84149,1.97917 4.88822,3.7118 0.17074,0.42257 0.38648,0.82963 0.51222,1.2677 0.68618,2.39055 -0.0382,4.79934 -1.45909,6.75562 -0.34597,0.37139 -0.66142,0.77377 -1.03793,1.11419 -1.97243,1.78335 -4.55604,2.54204 -7.17829,2.38711 -3.34279,-0.56378 -5.44342,-1.6061 -6.82657,-4.86174 -0.0848,-0.46198 -0.22508,-0.91717 -0.25441,-1.38595 -0.15001,-2.39748 1.24056,-4.38644 3.05107,-5.79752 1.93318,-1.25504 4.02335,-2.17024 6.34986,-2.35494 0,0 0.22622,2.84343 0.22622,2.84343 z"
       inkscape:connector-curvature="0" />
    <path
       style="fill:#cccccc;stroke-width:0.2;stroke-linejoin:miter;stroke-miterlimit:4;stroke-dasharray:none;stroke:none;stroke-opacity:1;fill-opacity:1"
       id="path682"
       d="m 64.060638,139.72278 c -1.760106,-0.005 -3.405243,0.38942 -4.941086,1.23734 -1.211098,0.78359 -1.835118,1.87305 -1.728568,3.3045 0.310145,1.38944 1.356397,1.96858 2.66545,2.20174 1.981086,0.0938 3.594402,-0.87531 4.916323,-2.26359 0.832676,-1.08199 1.07541,-2.16566 0.159629,-3.22535 -1.119595,-0.81647 -2.275105,-1.63591 -3.51037,-2.27654 -0.687843,-0.30291 -0.349306,-0.17831 -1.012116,-0.38315 0,0 -0.03105,-0.0882 -0.03105,-0.0882 v 0 c 0.604325,-0.65809 0.242361,-0.36434 1.116968,-0.84151 2.599301,-0.67345 4.204928,-0.22583 6.086258,1.7505 0.23345,0.36669 0.516676,0.70609 0.700347,1.10008 1.021717,2.19162 0.223657,4.48401 -1.223867,6.24595 -2.331109,2.26447 -4.626031,3.46898 -7.961305,3.11656 -0.455266,-0.12545 -0.926886,-0.20211 -1.365792,-0.37636 -2.139262,-0.84934 -3.438676,-2.73597 -3.691515,-4.98064 0.01799,-0.41325 -0.0095,-0.831 0.05394,-1.23975 0.32544,-2.0971 1.777965,-3.66656 3.575925,-4.65959 2.05495,-0.8808 4.220819,-1.30478 6.447658,-0.84943 0,0 -0.256831,2.22748 -0.256831,2.22748 z"
       inkscape:connector-curvature="0" />
    <path
       style="fill:#000000;stroke-width:1.43800008;stroke-linejoin:miter;stroke-miterlimit:4;stroke-dasharray:none"
       id="path684"
       d="m 115.84813,73.812336 c -1.62632,-0.813948 -3.33821,-0.843653 -5.08961,-0.535448 -2.02823,0.569555 -3.36289,1.605322 -4.03317,3.618971 -0.28839,1.872533 0.8326,3.031471 2.35236,3.888306 2.21,0.907875 4.4108,0.433004 6.43531,-0.671304 1.2734,-0.880014 2.53361,-2.234057 1.8719,-3.852171 -0.95358,-1.259332 -2.26831,-2.242275 -3.63557,-3.01506 -1.12916,-0.487452 -0.56082,-0.320423 -1.69763,-0.525603 0,0 -0.007,-0.09327 -0.007,-0.09327 v 0 c 1.20972,-0.38933 0.57053,-0.20718 1.92117,-0.533742 3.20534,-0.267663 5.20825,0.293566 6.63984,3.408487 0.0844,0.473599 0.23533,0.940067 0.25335,1.420799 0.10023,2.67484 -1.78999,4.705514 -3.86966,6.081231 -3.43517,1.673688 -5.98206,2.068052 -9.59051,0.530246 -0.45323,-0.289541 -0.94048,-0.531698 -1.35969,-0.868621 -2.14637,-1.725086 -2.91641,-4.305827 -2.25048,-6.935822 0.19963,-0.459944 0.35049,-0.944274 0.59887,-1.379826 1.26491,-2.218195 3.5469,-3.472421 5.97532,-3.982048 2.44204,-0.263025 4.6601,-0.04371 6.77856,1.30306 0,0 -1.29322,2.141815 -1.29322,2.141815 z"
       inkscape:connector-curvature="0" />
    <path
       style="fill:#cccccc;stroke-width:1.43800008;stroke-linejoin:miter;stroke-miterlimit:4;stroke-dasharray:none"
       id="path686"
       d="m 128.69461,206.09319 c -1.74175,-0.8683 -3.63958,-0.73242 -5.47864,-0.31517 -1.469,0.49686 -3.31039,1.26826 -3.5254,3.00568 0.37022,1.22774 1.83667,1.61979 2.92809,1.93131 2.39844,0.47939 4.58174,-0.18058 6.53216,-1.56715 1.21038,-1.09251 2.19644,-2.55165 1.75165,-4.22744 -0.66445,-1.02434 -1.8652,-1.62305 -2.97777,-2.03033 -1.3171,-0.28314 -0.65394,-0.17468 -1.9894,-0.32584 0,0 -0.0202,-0.0913 -0.0202,-0.0913 v 0 c 1.27952,-0.73815 0.60465,-0.40897 2.02998,-0.97645 3.11091,-0.75948 5.04672,-0.37476 6.31396,2.84695 0.0604,0.44129 0.17509,0.8785 0.18125,1.32386 0.0353,2.54874 -1.53196,4.7002 -3.38979,6.27234 -0.45461,0.30017 -0.88715,0.63676 -1.36382,0.90049 -2.47208,1.36775 -5.31641,1.67258 -8.05872,1.11278 -2.40129,-0.76638 -4.83467,-1.87129 -5.20414,-4.72161 -0.0598,-0.46143 0.0337,-0.92997 0.0505,-1.39495 0.15128,-0.42527 0.24776,-0.87422 0.45385,-1.2758 1.11064,-2.16406 3.48219,-3.24312 5.7006,-3.85406 2.62337,-0.43249 5.26277,-0.461 7.61155,0.97555 0,0 -1.54573,2.41118 -1.54573,2.41118 z"
       inkscape:connector-curvature="0" />
    <path
       style="fill:#000000;stroke-width:1.43800008;stroke-linejoin:miter;stroke-miterlimit:4;stroke-dasharray:none"
       id="path688"
       d="m 157.62317,228.56178 c -2.34528,-0.28504 -4.69692,-0.50145 -7.05468,-0.64843 -3.75783,-0.25563 -7.51468,-0.026 -11.26159,0.26608 -4.72883,0.50574 -9.46511,0.88643 -14.21584,1.10216 -6.01828,0.21942 -12.03634,-0.10437 -18.04325,-0.44499 -6.26824,-0.39847 -12.54061,-0.71131 -18.818199,-0.91309 -6.014315,-0.18207 -12.030358,-0.31192 -18.047131,-0.37372 -5.431629,-0.0957 -10.863297,-0.0158 -16.294788,0.0289 -4.475689,0.0933 -8.935815,-0.15914 -13.328925,-1.02707 -1.473853,-0.68551 -3.454373,-1.09665 -4.581316,-2.39142 -0.145386,-0.16704 -0.206528,-0.3918 -0.309792,-0.5877 0,0 0.04067,-0.0842 0.04067,-0.0842 v 0 c 1.719292,-0.51591 3.603366,-0.0792 5.367673,-0.20718 4.246282,0.49469 8.508048,0.83474 12.788189,0.75225 5.456044,-0.0275 10.912496,-0.0585 16.36822,0.0285 6.040374,0.11078 12.080216,0.24635 18.118317,0.44926 6.298972,0.24452 12.595032,0.55374 18.884882,0.97619 5.89469,0.32675 11.80061,0.66097 17.70564,0.40552 4.71152,-0.20247 9.40493,-0.62836 14.09879,-1.07616 3.90996,-0.31557 7.84018,-0.48544 11.75837,-0.19423 2.45369,0.18907 4.90647,0.42913 7.32014,0.92683 0,0 -0.49538,3.01252 -0.49538,3.01252 z"
       inkscape:connector-curvature="0" />
    <path
       style="fill:#cccccc;stroke-width:1.43800008;stroke-linejoin:miter;stroke-miterlimit:4;stroke-dasharray:none"
       id="path690"
       d="m 89.548098,194.86951 c -1.698699,2.4034 -4.156302,4.08627 -6.567543,5.70213 -4.204718,2.69254 -8.650432,4.97954 -13.044103,7.34227 -4.752922,2.54297 -9.520097,5.05877 -14.316075,7.5196 -4.002696,2.01542 -8.038103,3.96485 -12.069964,5.92097 -1.496822,0.61273 -2.862947,1.57624 -4.390524,2.12022 -1.045353,0.37225 -2.187565,0.49423 -3.286255,0.5464 -0.877641,-0.14713 -0.521954,0.0506 -1.096378,-0.53715 0,0 0.0061,-0.0933 0.0061,-0.0933 v 0 c 0.162192,-0.57053 0.02875,-0.28139 0.455073,-0.83999 0.717743,-0.75899 1.485958,-1.57154 2.35436,-2.15924 1.360062,-0.92043 2.954078,-1.48106 4.378883,-2.28231 4.014693,-1.95808 8.07457,-3.82159 12.082328,-5.79413 4.818504,-2.36813 9.605626,-4.79871 14.367914,-7.27805 4.347192,-2.23949 8.702996,-4.476 12.89748,-6.99405 2.175743,-1.39882 4.364498,-2.82492 6.147737,-4.72259 0,0 2.080966,1.54926 2.080966,1.54926 z"
       inkscape:connector-curvature="0" />
    <path
       style="fill:#cccccc;stroke-width:1.43800008;stroke-linejoin:miter;stroke-miterlimit:4;stroke-dasharray:none"
       id="path700"
       d="m 202.31151,195.77483 c -3.5575,0.0354 -7.11475,-0.0306 -10.67216,-0.052 -5.94704,-0.0385 -11.89188,0.12632 -17.83589,0.29008 -6.82944,0.24399 -13.6602,0.43971 -20.492,0.60315 -6.49489,0.1424 -12.99085,0.18442 -19.48706,0.16669 -5.94821,2.7e-4 -11.892,-0.22234 -17.8272,-0.60074 -4.79449,-0.31219 -9.57288,-0.82076 -14.34384,-1.38054 -1.51857,-0.27381 -3.105767,-0.27374 -4.596117,-0.71123 -0.95854,-0.28138 -1.87742,-0.79272 -2.75491,-1.26043 -0.706477,-0.4681 -0.386324,-0.23084 -0.968687,-0.70054 0,0 0.0011,-0.0935 0.0011,-0.0935 v 0 c 0.641416,-0.45646 0.283379,-0.24116 1.087837,-0.62248 0.973077,-0.31145 1.99713,-0.63625 3.024769,-0.69779 1.56024,-0.0934 3.110938,0.30041 4.656588,0.4135 4.70139,0.60188 9.40309,1.21488 14.13031,1.58175 5.85871,0.42669 11.72691,0.68598 17.60269,0.6765 6.47161,0.0297 12.94373,0.0305 19.41507,-0.0416 6.82175,-0.0852 13.64122,-0.27113 20.45999,-0.48796 5.99056,-0.18272 11.98503,-0.34918 17.97874,-0.23481 3.60839,0.0972 7.23132,0.17596 10.80786,0.7079 0,0 -0.18697,2.44408 -0.18697,2.44408 z"
       inkscape:connector-curvature="0" />
    <path
       style="fill:#000000;stroke-width:1.43800008;stroke-linejoin:miter;stroke-miterlimit:4;stroke-dasharray:none"
       id="path702"
       d="m 211.77044,195.63626 c -2.50933,1.78872 -5.20923,3.29545 -7.88567,4.81605 -5.56652,3.10636 -11.3239,5.85181 -17.08223,8.57959 -6.08424,2.81818 -12.12047,5.73885 -18.02834,8.91135 -3.00745,1.53936 -6.10953,2.99824 -9.30546,4.11896 0,0 -0.0608,-0.0711 -0.0608,-0.0711 v 0 c 1.71875,-3.10934 4.67256,-5.40019 7.6915,-7.15831 5.95934,-3.2169 12.109,-6.04562 18.26056,-8.87302 5.70514,-2.65508 11.42301,-5.29756 16.936,-8.33918 2.68544,-1.48747 5.31981,-3.08578 8.08904,-4.41166 0,0 1.38538,2.42732 1.38538,2.42732 z"
       inkscape:connector-curvature="0" />
    <path
       style="fill:#000000;stroke-width:1.43800008;stroke-linejoin:miter;stroke-miterlimit:4;stroke-dasharray:none"
       id="path708"
       d="m 165.07724,219.1435 c 0.0328,-3.38005 0.13846,-6.7592 0.19994,-10.13896 0.13433,-6.96864 0.20679,-13.9382 0.25467,-20.90791 0.057,-10.17397 -0.35541,-20.34148 -0.94482,-30.49595 -0.64178,-9.37107 -1.32324,-18.73796 -1.79533,-28.1195 -0.31497,-6.60085 -0.32282,-13.20925 -0.3369,-19.81571 0.0471,-4.10724 -0.27907,-8.20524 -0.34951,-12.308932 0.23131,-1.440892 0.44326,-2.94154 1.39925,-4.095777 0,0 0.0932,0.0081 0.0932,0.0081 v 0 c 0.81432,1.18786 1.40168,2.479712 1.77149,3.878604 0.45848,4.156455 0.45447,8.345775 0.44074,12.522945 -0.0332,6.55626 -0.0862,13.1151 0.18,19.6679 0.36553,9.37203 1.00438,18.72902 1.60563,28.08829 0.58944,10.21555 1.10805,20.43671 1.14925,30.6722 0.0385,6.98673 -0.0222,13.97299 -0.0899,20.95941 -0.0464,3.41623 -0.0661,6.84042 -0.37513,10.24534 0,0 -3.20257,-0.16002 -3.20257,-0.16002 z"
       inkscape:connector-curvature="0" />
    <path
       style="fill:#000000;stroke-width:1.43800008;stroke-linejoin:miter;stroke-miterlimit:4;stroke-dasharray:none"
       id="path710"
       d="m 206.64198,58.87448 c 1.80976,4.614373 2.30427,9.607237 2.81354,14.496803 0.88571,10.529099 0.95571,21.106908 1.03784,31.666477 0.0165,11.46216 0.29532,22.9183 0.77346,34.36963 0.43891,8.98402 1.1006,17.95503 1.67362,26.931 0.43115,6.24958 0.72244,12.507 0.92819,18.76766 -0.10147,3.1072 0.46597,6.62277 -0.13089,9.6941 -0.0809,0.41644 -0.23831,0.8143 -0.35747,1.22145 -0.27124,0.77839 -0.54084,1.60571 -1.25979,2.08256 0,0 -0.0911,-0.0214 -0.0911,-0.0214 v 0 c -0.49869,-0.61703 -0.7189,-1.35616 -0.90549,-2.11932 -0.87063,-3.50626 -0.37004,-7.18616 -0.593,-10.76186 -0.1515,-6.22746 -0.39179,-12.45275 -0.7315,-18.67289 -0.51574,-8.99996 -1.08088,-17.99772 -1.43474,-27.00605 -0.43231,-11.48061 -0.56694,-22.96745 -0.59814,-34.4558 -0.14153,-10.45855 -0.24725,-20.937799 -1.31086,-31.352841 -0.56768,-4.554355 -1.07627,-9.196303 -2.70947,-13.519213 0,0 2.89576,-1.320271 2.89576,-1.320271 z"
       inkscape:connector-curvature="0" />
    <path
       style="fill:#000000;stroke-width:1.43800008;stroke-linejoin:miter;stroke-miterlimit:4;stroke-dasharray:none"
       id="path716"
       d="m 39.335908,214.46791 c 0.126129,-2.85821 -0.0477,-5.71443 -0.219046,-8.5664 -0.472133,-6.20556 -1.01464,-12.40553 -1.530501,-18.60758 -0.690919,-8.30234 -1.212834,-16.61743 -1.690788,-24.93436 -0.490627,-8.7775 -0.939694,-17.55735 -1.328303,-26.33995 -0.312563,-6.77788 -0.541862,-13.55882 -0.647372,-20.34302 0.181925,-2.37074 -0.300977,-4.86917 0.291089,-7.20793 0.189151,-0.74718 0.400651,-1.01719 0.767808,-1.63321 0.611097,-0.57693 0.221948,-0.43191 1.245348,0.0361 0,0 -0.08746,0.0332 -0.08746,0.0332 v 0 c 0.755062,-0.29054 0.470241,-0.40147 0.914574,0.0664 1.29218,2.70433 0.484807,5.77275 0.664134,8.67193 0.01355,6.74052 0.225557,13.47814 0.510153,20.21231 0.398905,8.76322 0.841344,17.52424 1.402258,26.27883 0.524086,8.28169 1.058412,16.56343 1.806101,24.82866 0.553331,6.22403 1.172131,12.44212 1.687168,18.66947 0.221862,2.9943 0.387615,5.99802 0.248476,9.00108 0,0 -4.033639,-0.16555 -4.033639,-0.16555 z"
       inkscape:connector-curvature="0" />
    <path
       style="fill:#000000;stroke-width:1.43800008;stroke-linejoin:miter;stroke-miterlimit:4;stroke-dasharray:none"
       id="path718"
       d="m 41.256643,93.445906 c 3.633599,0.378029 7.291519,0.47045 10.940282,0.606806 7.876376,0.282821 15.756401,0.441301 23.636682,0.563536 10.662943,0.178959 21.327078,0.272307 31.990143,0.442322 7.2818,0.258493 14.60686,0.121029 21.86776,0.837528 2.55994,0.252614 6.87338,0.971542 9.45752,1.380697 3.51329,0.578292 6.96855,1.433338 10.45103,2.163781 0,0 -0.0142,0.09245 -0.0142,0.09245 v 0 c -3.52267,-0.348922 -7.04479,-0.488405 -10.58664,-0.506206 -3.15484,-0.04136 -6.31062,0.0047 -9.46517,-0.05446 -7.25416,-0.135925 -14.50213,-0.654244 -21.76058,-0.65482 C 97.111134,98.158217 86.448272,98.045211 75.785561,97.917658 67.883502,97.810195 59.980766,97.724822 52.080847,97.501852 c -3.779779,-0.113276 -7.573012,-0.17458 -11.332675,-0.610246 0,0 0.508476,-3.4457 0.508476,-3.4457 z"
       inkscape:connector-curvature="0" />
    <path
       style="fill:#000000;stroke-width:1.43800008;stroke-linejoin:miter;stroke-miterlimit:4;stroke-dasharray:none"
       id="path720"
       d="m 40.154473,91.778933 c 3.375229,-1.398368 6.252723,-3.695795 9.076918,-5.961811 5.627216,-4.764254 10.631868,-10.195383 15.746184,-15.490301 3.602855,-3.422232 7.405841,-6.619542 11.413585,-9.554601 0,0 0.06488,0.06738 0.06488,0.06738 v 0 c -3.067039,3.87899 -6.039667,7.833764 -9.218128,11.623865 -5.093848,5.505844 -10.254771,10.975348 -15.908141,15.916251 -3.044923,2.541751 -6.154878,5.087771 -9.812835,6.706177 0,0 -1.362467,-3.306964 -1.362467,-3.306964 z"
       inkscape:connector-curvature="0" />
    <path
       style="fill:#000000;stroke-width:1.43800008;stroke-linejoin:miter;stroke-miterlimit:4;stroke-dasharray:none"
       id="path724"
       d="m 197.86768,61.492569 c -3.31001,-1.356511 -6.95352,-1.569694 -10.47408,-1.898407 -9.72748,-0.666824 -19.47839,-0.934161 -29.22074,-1.30035 -11.39695,-0.435581 -22.78857,-0.998831 -34.18635,-1.411708 -7.90264,-0.332838 -15.81099,-0.40799 -23.71415,-0.08809 -4.534954,0.165405 -9.045057,0.79942 -13.584728,0.799701 -2.307883,-0.06638 -4.535294,-0.799936 -6.820929,-0.965814 0,0 -0.0043,-0.09345 -0.0043,-0.09345 v 0 c 2.244224,-0.37129 4.332221,-1.412232 6.554932,-1.909612 4.525688,-0.832448 9.132732,-1.102558 13.721705,-1.351039 7.99571,-0.282252 15.99363,-0.122849 23.98487,0.254011 11.39089,0.52076 22.77817,1.120277 34.17163,1.583084 9.80044,0.387426 19.60888,0.645792 29.39764,1.275114 4.02053,0.375595 8.5399,0.47712 11.97004,2.866758 0,0 -1.79559,2.239801 -1.79559,2.239801 z"
       inkscape:connector-curvature="0" />
    <path
       style="fill:#000000;stroke-width:1.43800008;stroke-linejoin:miter;stroke-miterlimit:4;stroke-dasharray:none"
       id="path726"
       d="m 203.91808,59.258702 c -2.57236,2.003129 -4.71639,4.483542 -6.85802,6.923373 -4.70835,5.592419 -9.59025,11.021809 -14.76245,16.188402 -2.90009,2.707383 -5.80258,5.488188 -9.11129,7.707074 -2.73108,1.831509 -5.74937,3.224379 -8.73228,4.580266 -2.98476,1.113446 -1.5626,0.595638 -4.26417,1.559792 0,0 -0.0399,-0.0846 -0.0399,-0.0846 v 0 c 2.42546,-1.454155 1.18034,-0.639384 3.71353,-2.477386 2.14243,-1.599613 2.67,-1.949458 4.78156,-3.718296 0.89184,-0.74708 1.74598,-1.538348 2.63631,-2.287217 2.94833,-2.479884 5.99892,-4.846227 8.7291,-7.576587 5.1396,-5.100987 9.9989,-10.459762 14.64574,-16.014398 2.35493,-2.650826 4.6704,-5.495584 7.73502,-7.35934 0,0 1.52687,2.558917 1.52687,2.558917 z"
       inkscape:connector-curvature="0" />
    <path
       style="fill:#cccccc;stroke-width:1.43800008;stroke-linejoin:miter;stroke-miterlimit:4;stroke-dasharray:none"
       id="path728"
       d="M 83.6003,189.36819 C 83.236923,185.82835 82.975489,182.27857 82.707347,178.73047 82.121602,171.14895 81.827938,163.5493 81.51955,155.9527 81.10503,145.09335 80.624946,134.23713 80.056161,123.38476 79.501306,113.30158 79.020452,103.21527 78.680402,93.122577 78.490603,86.864385 78.419295,80.602838 78.172304,74.346493 c -0.120137,-3.615497 -0.57554,-7.205343 -0.85471,-10.808692 -0.02545,-1.13115 0.163904,-2.248432 0.39507,-3.350924 0.09413,-0.448919 0.322001,-0.875038 0.340048,-1.333366 0.0047,-0.118702 -0.08355,-0.222419 -0.125315,-0.333629 0,0 0.0809,-0.04696 0.0809,-0.04696 v 0 c 0.392099,0.492066 0.154339,0.22285 0.740463,0.782804 0.922626,1.10354 1.396452,2.551917 1.787827,3.905295 0.572457,3.663839 0.835091,7.366415 0.970026,11.070873 0.183803,6.265034 0.154561,12.532984 0.31664,18.798571 0.250822,10.071665 0.706792,20.135735 1.29209,30.193475 0.572592,10.86044 1.143786,21.72116 1.61763,32.58646 0.362554,7.55604 0.734452,15.11322 1.357914,22.65323 0.289739,3.52577 0.614299,7.04858 0.903679,10.57426 0,0 -3.394268,0.3303 -3.394268,0.3303 z"
       inkscape:connector-curvature="0" />
    <path
       style="fill:#000000;fill-opacity:1;stroke:none;stroke-width:0.2;stroke-linejoin:miter;stroke-miterlimit:4;stroke-dasharray:none;stroke-opacity:1"
       id="path3018"
       d="m 55.145733,249.71406 c -1.815478,-0.43512 -3.698047,-0.44701 -5.554456,-0.43022 -2.057358,0.0373 -4.110056,0.18711 -6.166022,0.26247 -1.123913,0.17078 -2.337893,-0.10469 -3.441758,0.2023 0.91885,-0.12519 0.775203,-0.97829 0.78183,0.47901 0.189712,3.22797 0.726602,6.42458 1.172956,9.62411 0.65676,4.4206 1.12095,8.86642 1.439556,13.32335 -0.01278,2.26465 0.658365,4.94601 -0.707829,6.9494 -0.246375,0.23003 -1.67562,-0.16181 -0.766379,-0.0666 0,0 0.08214,0.0448 0.08214,0.0448 v 0 c -0.01103,0.2114 0.152369,0.53213 -0.03308,0.63418 -0.622916,0.34285 -1.035465,-0.11864 -1.421117,-0.42494 -1.468686,-2.00396 -1.064239,-4.45665 -1.347562,-6.8239 -0.33876,-4.35154 -0.785847,-8.6935 -1.482313,-13.00427 -0.543208,-3.4191 -1.164314,-6.84085 -1.395055,-10.29808 0.039,-2.29002 0.431924,-4.20201 2.957928,-4.827 1.337667,-0.16725 2.681428,-0.10569 4.027133,-0.11732 2.109811,-0.0531 4.219088,-0.13176 6.329905,-0.13242 2.218237,0.0491 4.448426,0.12948 6.619314,0.63388 0,0 -1.09519,3.97125 -1.09519,3.97125 z"
       inkscape:connector-curvature="0" />
    <path
       style="fill:#000000;fill-opacity:1;stroke:none;stroke-width:0.2;stroke-linejoin:miter;stroke-miterlimit:4;stroke-dasharray:none;stroke-opacity:1"
       id="path3020"
       d="m 53.912111,267.15675 c -1.90586,-0.31386 -3.846367,-0.28686 -5.770529,-0.23824 -2.679699,0.19943 -5.332737,-0.3486 -7.910464,-1.03211 -0.29186,-0.11492 -0.583719,-0.22983 -0.875578,-0.34474 0,0 -0.0049,-0.0934 -0.0049,-0.0934 v 0 c 0.271378,-0.14466 0.542753,-0.28931 0.814129,-0.43396 2.506477,-1.104 5.072726,-2.2126 7.854455,-2.27102 2.344679,-0.0773 4.737494,-0.15515 7.017541,0.49585 0,0 -1.12462,3.91763 -1.12462,3.91763 z"
       inkscape:connector-curvature="0" />
    <path
       style="fill:#000000;fill-opacity:1;stroke:none;stroke-width:0.2;stroke-linejoin:miter;stroke-miterlimit:4;stroke-dasharray:none;stroke-opacity:1"
       id="path3022"
       d="m 81.581156,245.89783 c -1.7745,-0.37865 -3.470942,0.3168 -5.083368,0.97803 -3.088876,1.57111 -5.770417,3.8784 -7.792503,6.69803 -0.444093,0.61925 -0.818301,1.28574 -1.227453,1.92861 -1.582306,2.98122 -2.539457,6.35726 -1.63105,9.71108 0.155501,0.5741 0.41294,1.11561 0.619413,1.67341 1.848488,3.6673 4.785294,5.32826 8.33623,7.03552 2.342697,1.37271 4.904375,1.94165 7.582937,2.0691 0,0 0.02262,0.0908 0.02262,0.0908 v 0 c -0.433673,0.24407 -0.84618,0.53033 -1.30102,0.73223 -2.430558,1.07892 -5.136634,1.07349 -7.720401,0.71475 -0.740193,-0.24146 -1.50363,-0.42075 -2.220579,-0.72433 -3.89672,-1.64996 -6.934851,-4.72667 -8.748149,-8.51114 -0.266954,-0.80447 -0.606777,-1.58834 -0.800857,-2.41343 -1.03619,-4.40521 0.165783,-8.81483 2.324931,-12.67428 0.503264,-0.76208 0.966846,-1.55191 1.509794,-2.28625 2.488089,-3.36514 5.770158,-6.08109 9.566384,-7.8389 2.788285,-1.04582 5.618998,-1.88075 8.40342,-0.34003 0,0 -1.840343,3.15684 -1.840343,3.15684 z"
       inkscape:connector-curvature="0" />
    <path
       style="fill:#000000;fill-opacity:1;stroke:none;stroke-width:0.2;stroke-linejoin:miter;stroke-miterlimit:4;stroke-dasharray:none;stroke-opacity:1"
       id="path3024"
       d="m 114.93548,251.05234 c -1.87555,-0.93426 -3.96346,-0.6205 -5.93435,-0.2378 -3.35587,0.93345 -6.38693,2.80342 -8.6192,5.49978 -0.455095,0.54971 -0.831664,1.15995 -1.247493,1.73992 -1.428576,2.57264 -2.319579,5.65957 -0.976009,8.47225 0.217739,0.45582 0.536787,0.85592 0.80518,1.28388 0.367186,0.37598 0.701223,0.78748 1.101552,1.12795 2.29361,1.95063 6.11477,3.16951 8.99104,3.86425 1.96308,0.45809 3.90672,0.43975 5.89247,0.26257 0,0 0.0213,0.0911 0.0213,0.0911 v 0 c -1.97208,0.75502 -3.944,1.51781 -6.06576,1.742 -4.66076,0.33402 -8.24479,0.21599 -11.912905,-3.13195 -0.61241,-0.55895 -1.0995,-1.24137 -1.649249,-1.86206 -1.054306,-1.92038 -1.484545,-2.3175 -1.846437,-4.5184 -0.571516,-3.47575 0.565023,-6.80656 2.3456,-9.74466 0.538747,-0.72278 1.02815,-1.4851 1.616236,-2.16833 2.837055,-3.29604 6.660045,-5.54318 10.845945,-6.63094 3.27564,-0.53009 6.32295,-0.78681 9.08387,1.38823 0,0 -2.45178,2.82222 -2.45178,2.82222 z"
       inkscape:connector-curvature="0" />
  </g>
</svg>
