<?xml version="1.0" encoding="UTF-8" standalone="no"?>
<!-- Created with Inkscape (http://www.inkscape.org/) -->

<svg
   xmlns:dc="http://purl.org/dc/elements/1.1/"
   xmlns:cc="http://creativecommons.org/ns#"
   xmlns:rdf="http://www.w3.org/1999/02/22-rdf-syntax-ns#"
   xmlns:svg="http://www.w3.org/2000/svg"
   xmlns="http://www.w3.org/2000/svg"
   xmlns:sodipodi="http://sodipodi.sourceforge.net/DTD/sodipodi-0.dtd"
   xmlns:inkscape="http://www.inkscape.org/namespaces/inkscape"
   width="1920"
   height="1080"
   viewBox="0 0 507.99999 285.75001"
   version="1.1"
   id="svg8"
   inkscape:version="0.92.2 2405546, 2018-03-11"
   sodipodi:docname="fccbcc-2.svg">
  <defs
     id="defs2" />
  <sodipodi:namedview
     id="base"
     pagecolor="#ffffff"
     bordercolor="#666666"
     borderopacity="1.0"
     inkscape:pageopacity="0.0"
     inkscape:pageshadow="2"
     inkscape:zoom="0.32"
     inkscape:cx="1356.2019"
     inkscape:cy="513.99543"
     inkscape:document-units="mm"
     inkscape:current-layer="layer1"
     showgrid="false"
     units="px"
     inkscape:window-width="1348"
     inkscape:window-height="730"
     inkscape:window-x="5"
     inkscape:window-y="25"
     inkscape:window-maximized="0" />
  <metadata
     id="metadata5">
    <rdf:RDF>
      <cc:Work
         rdf:about="">
        <dc:format>image/svg+xml</dc:format>
        <dc:type
           rdf:resource="http://purl.org/dc/dcmitype/StillImage" />
        <dc:title></dc:title>
      </cc:Work>
    </rdf:RDF>
  </metadata>
  <g
     inkscape:label="Layer 1"
     inkscape:groupmode="layer"
     id="layer1"
     transform="translate(0,-11.249983)">
    <path
       style="fill:#000000;stroke-width:1.43800008;stroke-linejoin:miter;stroke-miterlimit:4;stroke-dasharray:none"
       id="path660"
       d="m 35.20264,89.953457 c -1.804466,-0.631105 -3.617627,-0.591193 -5.466165,-0.231754 -2.431642,0.607674 -4.222311,2.161141 -5.738119,4.081706 -1.540952,2.26636 -2.092211,4.255932 -1.596652,6.950521 0.93789,2.64716 2.93824,3.64729 5.491636,4.3904 3.074432,0.61606 6.242489,0.19108 9.102704,-1.08768 0.613039,-0.27408 1.188333,-0.62579 1.7825,-0.93869 2.276343,-1.51921 4.642525,-3.56081 5.047398,-6.44787 0.05621,-0.40082 0.0055,-0.809469 0.0083,-1.214204 -0.47779,-2.795463 -2.742967,-4.197787 -5.083125,-5.392121 -1.91779,-1.257348 -4.068278,-1.899624 -6.332802,-2.090314 0,0 -0.01918,-0.09155 -0.01918,-0.09155 v 0 c 2.560444,-1.312011 4.977749,-1.572419 7.816728,-0.983075 0.601599,0.257741 1.227257,0.465328 1.804797,0.773221 2.360366,1.258347 4.404712,3.350072 5.170892,5.963247 0.191413,0.652841 0.223081,1.342234 0.334619,2.013353 -0.05423,0.686871 -0.03096,1.384315 -0.162693,2.060612 -0.749591,3.848181 -3.741851,6.641241 -6.905468,8.651641 -0.731224,0.37349 -1.441572,0.79103 -2.193671,1.12047 -3.6283,1.58929 -7.604816,2.06078 -11.483666,1.24739 -0.665413,-0.21591 -1.348859,-0.38261 -1.996244,-0.64772 -3.023973,-1.23838 -5.233781,-3.57715 -6.057691,-6.75463 -0.08009,-0.57935 -0.2136,-1.15381 -0.24027,-1.738065 -0.134493,-2.946487 1.056169,-5.727218 2.73532,-8.078493 2.255319,-2.638343 4.520409,-4.442966 8.01297,-5.120196 2.457111,-0.291772 4.923314,-0.186206 7.145255,1.029888 0,0 -1.177345,2.533917 -1.177345,2.533917 z"
       inkscape:connector-curvature="0" />
    <path
       style="fill:#000000;stroke-width:1.43800008;stroke-linejoin:miter;stroke-miterlimit:4;stroke-dasharray:none"
       id="path662"
       d="m 157.63979,85.868479 c -1.67145,-0.913617 -3.46269,-0.780389 -5.25554,-0.376002 -2.24534,0.72691 -4.20159,2.159944 -5.32522,4.274642 -0.2272,0.427614 -0.375,0.892911 -0.5625,1.339363 -0.66298,2.464152 -0.17979,4.938197 1.56068,6.853955 0.37326,0.410839 0.81896,0.749482 1.22844,1.124225 2.84911,1.987408 6.30406,2.708998 9.74398,2.314738 0.75801,-0.0869 1.49963,-0.28216 2.24944,-0.42323 3.19005,-0.96429 6.51152,-2.585338 8.13654,-5.67863 0.22796,-0.433927 0.34394,-0.918011 0.51592,-1.377016 0.30708,-2.300769 -0.65006,-4.38133 -2.43793,-5.848376 -0.49553,-0.406612 -1.05722,-0.725128 -1.58583,-1.087694 -0.6232,-0.298558 -1.2464,-0.597117 -1.8696,-0.895678 0,0 0.0273,-0.08948 0.0273,-0.08948 v 0 c 0.71459,0.10936 1.42918,0.218718 2.14378,0.328078 0.69059,0.196789 1.40069,0.334844 2.07176,0.59037 2.7118,1.032571 5.03267,3.057028 5.04639,6.163392 0.003,0.712965 -0.21503,1.409637 -0.32254,2.114455 -0.29803,0.673843 -0.52129,1.385993 -0.89409,2.021528 -2.19112,3.735341 -6.25847,5.773331 -10.27375,6.893551 -0.89384,0.15149 -1.77977,0.36085 -2.68151,0.45446 -4.32522,0.44903 -8.597,-0.51381 -12.10833,-3.11558 -0.55454,-0.53776 -1.1668,-1.02177 -1.66362,-1.613263 -2.41001,-2.869234 -2.92271,-6.522876 -1.7835,-10.026258 0.28479,-0.60874 0.51692,-1.245026 0.85439,-1.826223 1.61386,-2.779448 4.30895,-4.601623 7.35855,-5.459669 2.74373,-0.462362 5.13234,-0.50505 7.45982,1.233101 0,0 -1.63301,2.111238 -1.63301,2.111238 z"
       inkscape:connector-curvature="0" />
    <path
       style="fill:#000000;stroke-width:1.43800008;stroke-linejoin:miter;stroke-miterlimit:4;stroke-dasharray:none"
       id="path664"
       d="m 45.391543,214.70428 c -2.365219,-0.48882 -4.734108,-0.0517 -7.030977,0.54822 -3.048907,0.84157 -5.67631,2.46014 -7.938746,4.63384 -1.696799,1.96908 -2.621423,3.75862 -2.173687,6.37854 0.854689,2.31408 2.662269,2.74187 4.921552,2.88697 3.873783,-0.21961 6.566244,-1.86113 9.33016,-4.45339 1.16096,-1.36277 2.323428,-2.94407 2.286326,-4.8298 -0.0089,-0.44984 -0.220705,-1.11928 -0.340649,-1.55311 -0.465031,-1.37961 -1.616215,-2.52223 -2.938629,-3.13524 -0.392258,-0.18184 -0.827775,-0.25002 -1.241663,-0.37502 0,0 0.0199,-0.0914 0.0199,-0.0914 v 0 c 2.640039,0.36383 4.923126,0.22005 6.928948,2.33855 0.273555,0.50384 0.645176,0.96573 0.820666,1.51153 1.037235,3.22595 -1.133922,6.437 -3.133556,8.71779 -0.552204,0.50964 -1.073539,1.0549 -1.656609,1.52891 -2.96355,2.40927 -6.559965,3.8739 -10.385129,4.00084 -0.680611,-0.0668 -1.370705,-0.0691 -2.041837,-0.20054 -3.175907,-0.62216 -5.479605,-2.75273 -6.287233,-5.87342 -0.05843,-0.56761 -0.173746,-1.13222 -0.175283,-1.70283 -0.0081,-3.01554 1.553818,-5.67536 3.542498,-7.82296 0.450548,-0.41929 0.877416,-0.86557 1.351648,-1.25788 2.412846,-1.99604 5.309867,-3.29545 8.309186,-4.12154 2.88153,-0.61171 5.829298,-1.0033 8.714153,-0.15666 0,0 -0.881034,3.02861 -0.881034,3.02861 z"
       inkscape:connector-curvature="0" />
    <path
       style="fill:#000000;stroke-width:1.43800008;stroke-linejoin:miter;stroke-miterlimit:4;stroke-dasharray:none"
       id="path666"
       d="m 166.67382,216.77048 c -2.02087,-0.25602 -3.84622,0.40009 -5.58684,1.35883 -2.32717,1.60157 -3.45575,3.18428 -3.81039,5.99786 0.131,2.79015 1.45402,3.9169 3.90955,4.91949 2.54594,0.63685 5.19963,0.18499 7.39409,-1.27791 0.43685,-0.29123 0.81857,-0.65768 1.22785,-0.98652 1.43411,-1.51265 2.53049,-3.5616 1.74619,-5.67255 -0.11987,-0.32263 -0.31801,-0.6105 -0.47702,-0.91575 -1.18956,-1.46543 -0.12895,-0.25226 -1.5554,-1.61393 -0.31057,-0.29647 -0.57824,-0.63738 -0.90122,-0.92026 -1.02405,-0.8969 -2.19623,-1.47256 -3.42046,-2.03364 -0.37193,-0.12507 -0.74385,-0.25013 -1.11577,-0.37519 0,0 0.005,-0.0934 0.005,-0.0934 v 0 c 0.40812,-0.0814 0.81625,-0.16283 1.22438,-0.24425 2.15345,-0.18022 4.56315,-0.15382 6.50001,0.98839 1.27296,0.7507 1.74766,1.60497 2.6178,2.7448 0.25737,0.59735 0.59223,1.16699 0.77211,1.79206 1.01316,3.5206 -0.62601,6.85096 -3.09077,9.29266 -0.58807,0.45075 -1.13932,0.9541 -1.7642,1.35225 -3.22561,2.05527 -7.03997,2.54162 -10.68565,1.46648 -0.63585,-0.28691 -1.30625,-0.5071 -1.90755,-0.86073 -2.98088,-1.75305 -4.43274,-4.82346 -4.24484,-8.21322 0.12265,-0.60614 0.19152,-1.2257 0.36796,-1.81842 0.87836,-2.95074 3.03019,-5.20826 5.64587,-6.72074 2.65657,-1.1874 5.0761,-1.80968 7.9373,-0.90077 0,0 -0.78822,2.73446 -0.78822,2.73446 z"
       inkscape:connector-curvature="0" />
    <path
       style="fill:#000000;stroke-width:1.43800008;stroke-linejoin:miter;stroke-miterlimit:4;stroke-dasharray:none"
       id="path668"
       d="m 98.455642,156.90523 c -1.34459,-1.06149 -2.90003,-1.27762 -4.55535,-1.11223 -2.41231,0.49926 -3.82634,1.92716 -5.05677,3.96564 -1.0698,2.44618 -1.03834,4.3823 0.20909,6.72705 1.65483,2.05637 3.03658,2.35015 5.47889,1.53663 2.93627,-1.62667 4.14824,-4.01751 4.90907,-7.17741 0.37704,-2.69746 -0.30477,-3.86692 -2.00641,-5.76106 -0.91313,-0.66992 -2.01009,-1.26033 -3.16239,-1.38017 -0.38357,-0.0399 -0.76985,0.0469 -1.15478,0.0703 0,0 -0.0164,-0.0921 -0.0164,-0.0921 v 0 c 1.84383,-0.54316 3.5935,-1.25947 5.56179,-0.82397 0.54159,0.18216 1.12568,0.26826 1.624768,0.54648 2.96392,1.65223 3.18862,5.40874 2.75005,8.36373 -0.18197,0.67752 -0.316,1.36978 -0.54591,2.03257 -1.20047,3.46083 -3.547758,6.32855 -6.905578,7.84877 -0.65489,0.17538 -1.29309,0.43328 -1.96466,0.52615 -3.33806,0.46161 -6.20688,-1.30103 -7.98535,-4.01076 -0.25771,-0.5512 -0.5685,-1.08056 -0.77312,-1.65359 -1.04327,-2.92157 -0.56405,-6.03297 0.80543,-8.74787 0.32012,-0.4961 0.60052,-1.02022 0.96037,-1.4883 1.7576,-2.28618 4.29085,-3.71834 7.13996,-4.07164 0.5157,7.9e-4 1.03343,-0.0431 1.5471,0.003 2.07819,0.18485 3.98362,1.17604 5.313848,2.77312 0,0 -2.173688,1.92607 -2.173688,1.92607 z"
       inkscape:connector-curvature="0" />
    <path
       style="fill:#000000;stroke-width:1.43800008;stroke-linejoin:miter;stroke-miterlimit:4;stroke-dasharray:none"
       id="path670"
       d="m 206.67411,52.132029 c -2.11574,-0.04817 -3.98903,0.612597 -5.68425,1.839454 -1.86109,1.686132 -2.54983,3.624104 -2.42341,6.091873 0.46142,2.276985 1.68794,3.251078 3.87161,3.748823 2.67195,0.253484 4.92935,-0.971696 6.83785,-2.723073 1.53332,-1.844413 1.54111,-2.586511 0.99313,-4.726231 -0.45805,-0.882298 -1.14183,-1.757709 -2.01558,-2.273218 -0.3185,-0.187915 -0.69034,-0.265414 -1.03551,-0.398121 0,0 0.0261,-0.08982 0.0261,-0.08982 v 0 c 1.70574,0.347919 3.45884,0.353438 4.90211,1.484873 0.34744,0.367493 0.78219,0.668772 1.04232,1.102477 1.48902,2.482657 -0.18369,5.373502 -1.86101,7.204985 -0.44028,0.383116 -0.85327,0.800057 -1.32084,1.149352 -2.41778,1.806208 -5.35546,2.639457 -8.34988,2.254642 -0.53549,-0.151254 -1.09028,-0.245988 -1.60649,-0.453763 -2.66867,-1.074153 -4.17739,-3.461374 -4.49452,-6.247588 0.009,-0.543507 -0.0312,-1.089951 0.0259,-1.630521 0.28997,-2.745877 1.77516,-5.112626 3.94238,-6.767287 2.43924,-1.440456 4.5089,-2.074051 7.35962,-1.702099 0,0 -0.20955,2.135243 -0.20955,2.135243 z"
       inkscape:connector-curvature="0" />
    <path
       style="fill:#000000;stroke-width:1.43800008;stroke-linejoin:miter;stroke-miterlimit:4;stroke-dasharray:none"
       id="path672"
       d="m 212.31742,186.93146 c -2.0811,0.33109 -3.93081,1.22022 -5.61573,2.45471 -1.74311,1.45099 -2.74268,3.33287 -2.75425,5.59651 0.29503,1.92818 1.32698,2.68449 3.16594,2.99342 2.44996,0.12748 4.40371,-1.14082 5.99147,-2.8827 1.45558,-2.11451 1.11712,-3.20736 0.0892,-5.34136 -0.86141,-1.67014 -2.33842,-2.68576 -3.91847,-3.59621 0,0 0.0299,-0.0886 0.0299,-0.0886 v 0 c 2.19004,0.30215 4.30091,0.689 6.08498,2.11336 0.37832,0.43087 0.8343,0.80438 1.13497,1.29261 1.58921,2.58063 0.6428,5.62588 -1.01302,7.8681 -0.39705,0.41827 -0.76063,0.87107 -1.19115,1.25481 -2.20138,1.96221 -5.03535,2.93401 -7.96643,2.68356 -0.5287,-0.13892 -1.07671,-0.21839 -1.5861,-0.41674 -2.59621,-1.01095 -3.96782,-3.37616 -4.11527,-6.07138 0.0461,-0.51091 0.0455,-1.02822 0.13827,-1.53274 0.48539,-2.63839 2.15227,-4.77932 4.26157,-6.34778 2.19059,-1.35056 4.54472,-2.39913 7.17885,-2.29495 0,0 0.0853,2.31542 0.0853,2.31542 z"
       inkscape:connector-curvature="0" />
    <path
       style="fill:#cccccc;stroke-width:1.43800008;stroke-linejoin:miter;stroke-miterlimit:4;stroke-dasharray:none"
       id="path674"
       d="m 89.681792,188.21247 c -1.37097,-0.99544 -2.805816,-0.74209 -4.253058,-0.0852 -2.248476,1.32624 -3.363682,3.55802 -3.963715,6.00753 -0.231793,2.13393 -0.13898,3.88611 1.876214,5.01558 2.33698,0.77043 4.592576,-0.28733 6.594514,-1.44173 2.313371,-1.70561 3.733671,-3.18303 3.830643,-6.15205 -0.298744,-2.15106 -1.86844,-3.75279 -3.287284,-5.28442 -0.691419,-0.71326 -1.522145,-1.24138 -2.358649,-1.76123 0,0 0.01405,-0.0925 0.01405,-0.0925 v 0 c 1.185268,-0.2493 2.268829,-0.28727 3.452366,0.0884 1.083873,0.409 1.841047,0.59665 2.763324,1.3578 1.781516,1.47026 2.636366,3.70231 2.784163,5.94218 -0.05656,0.57283 -0.05125,1.15518 -0.169688,1.71848 -0.643565,3.06096 -2.891687,5.38212 -5.380628,7.09313 -3.308164,1.84802 -6.513713,3.02384 -10.1733,1.32707 -0.432343,-0.32653 -0.909955,-0.6005 -1.297025,-0.97961 -2.060596,-2.01823 -2.25693,-5.01247 -1.76603,-7.68534 1.094973,-3.70093 2.505358,-6.07966 5.986418,-7.97189 0.484692,-0.16944 0.955188,-0.38687 1.454078,-0.50831 2.078323,-0.50588 4.147264,0.0408 5.739228,1.44141 0,0 -1.845628,1.97067 -1.845628,1.97067 z"
       inkscape:connector-curvature="0" />
    <path
       style="fill:#000000;stroke-width:1.43800008;stroke-linejoin:miter;stroke-miterlimit:4;stroke-dasharray:none"
       id="path676"
       d="m 82.555542,56.898291 c -2.168374,-0.6062 -4.330636,-0.321469 -6.470639,0.225806 -2.884591,0.989539 -5.124585,2.626627 -6.767023,5.192744 -0.745776,1.738294 -0.618051,2.343663 1.089078,2.919299 2.889752,0.597254 5.670166,-0.423087 8.210206,-1.721234 1.539811,-1.003173 3.653673,-2.534811 2.952464,-4.627906 -0.761532,-1.854211 -2.116699,-3.099716 -3.901144,-3.96194 0,0 0.02302,-0.09067 0.02302,-0.09067 v 0 c 2.15406,0.121139 4.736581,0.209087 6.322655,1.945923 0.36127,0.395613 0.551844,0.918466 0.827765,1.377698 0.09979,0.533337 0.288629,1.057524 0.299352,1.60001 0.06202,3.137008 -2.602989,5.298032 -5.006618,6.781837 -3.563104,1.760482 -7.171147,2.938523 -11.143919,1.842714 -1.251233,-0.624247 -1.873133,-0.735631 -2.705195,-1.935443 -1.326449,-1.912702 -0.747435,-4.161641 0.293145,-6.02225 0.337609,-0.463404 0.641956,-0.952973 1.012825,-1.390216 2.028127,-2.3911 4.83611,-3.964019 7.818475,-4.821557 2.686568,-0.571781 5.424984,-0.783498 8.024053,0.303911 0,0 -0.878499,2.381271 -0.878499,2.381271 z"
       inkscape:connector-curvature="0" />
    <path
       style="fill:#000000;stroke-width:1.43800008;stroke-linejoin:miter;stroke-miterlimit:4;stroke-dasharray:none"
       id="path678"
       d="m 194.76339,130.03141 c -1.80763,-0.17193 -3.415,0.49902 -4.88415,1.48454 -1.59987,1.18598 -2.70469,2.7884 -3.12871,4.72975 -0.16492,1.34813 0.51577,1.99887 1.68585,2.44488 2.16742,0.57128 4.19297,-0.15603 6.07259,-1.20829 1.71736,-1.24303 2.74568,-2.61841 2.46841,-4.78439 -0.56805,-1.82658 -1.55137,-3.08521 -2.98798,-4.31376 -0.28013,-0.11169 -0.56025,-0.22338 -0.84038,-0.33507 0,0 0.0266,-0.0897 0.0266,-0.0897 v 0 c 0.30293,0.061 0.60585,0.12206 0.90878,0.18309 2.15898,0.15606 4.48409,0.75408 5.57547,2.84437 0.229,0.43859 0.32398,0.93503 0.48597,1.40254 0.0413,0.5004 0.1476,0.99966 0.12397,1.50121 -0.13045,2.76879 -2.02408,4.92547 -4.20035,6.41238 -3.01355,1.65274 -5.60306,2.38336 -8.99585,1.37784 -0.41756,-0.20503 -0.86269,-0.36151 -1.25268,-0.61509 -1.97125,-1.28179 -2.55767,-3.47088 -2.14247,-5.68464 0.87319,-2.70618 2.32128,-4.72939 4.70687,-6.33087 2.11654,-1.186 4.33067,-1.97611 6.79268,-1.53824 0,0 -0.41459,2.51944 -0.41459,2.51944 z"
       inkscape:connector-curvature="0" />
    <path
       style="fill:#cccccc;stroke-width:1.43800008;stroke-linejoin:miter;stroke-miterlimit:4;stroke-dasharray:none"
       id="path680"
       d="m 147.0873,127.70279 c -1.78074,0.24101 -3.3688,1.03311 -4.79074,2.09817 -1.18593,1.04005 -1.83972,2.29702 -1.2917,3.82671 0.81027,1.56814 2.41013,2.08352 4.05062,2.30014 2.12922,0.0675 3.83236,-0.85139 5.18041,-2.43768 0.96503,-1.40541 1.05546,-2.87942 0.30446,-4.37799 -0.78288,-1.3133 -2.25773,-1.75937 -3.42935,-2.60542 -0.79556,-0.49511 -1.59918,-0.82835 -2.53664,-0.75749 0,0 -0.0391,-0.085 -0.0391,-0.085 v 0 c 0.9163,-0.83594 1.82594,-1.47851 3.1149,-1.58785 0.38862,-0.0178 0.77978,-0.10113 1.16585,-0.0533 2.13081,0.26386 3.84149,1.97917 4.88822,3.7118 0.17074,0.42257 0.38648,0.82963 0.51222,1.2677 0.68618,2.39055 -0.0382,4.79934 -1.45909,6.75562 -0.34597,0.37139 -0.66142,0.77377 -1.03793,1.11419 -1.97243,1.78335 -4.55604,2.54204 -7.17829,2.38711 -3.34279,-0.56378 -5.44342,-1.6061 -6.82657,-4.86174 -0.0848,-0.46198 -0.22508,-0.91717 -0.25441,-1.38595 -0.15001,-2.39748 1.24056,-4.38644 3.05107,-5.79752 1.93318,-1.25504 4.02335,-2.17024 6.34986,-2.35494 0,0 0.22622,2.84343 0.22622,2.84343 z"
       inkscape:connector-curvature="0" />
    <path
       style="fill:#cccccc;stroke-width:0.2;stroke-linejoin:miter;stroke-miterlimit:4;stroke-dasharray:none;stroke:none;stroke-opacity:1;fill-opacity:1"
       id="path682"
       d="m 64.060638,139.72278 c -1.760106,-0.005 -3.405243,0.38942 -4.941086,1.23734 -1.211098,0.78359 -1.835118,1.87305 -1.728568,3.3045 0.310145,1.38944 1.356397,1.96858 2.66545,2.20174 1.981086,0.0938 3.594402,-0.87531 4.916323,-2.26359 0.832676,-1.08199 1.07541,-2.16566 0.159629,-3.22535 -1.119595,-0.81647 -2.275105,-1.63591 -3.51037,-2.27654 -0.687843,-0.30291 -0.349306,-0.17831 -1.012116,-0.38315 0,0 -0.03105,-0.0882 -0.03105,-0.0882 v 0 c 0.604325,-0.65809 0.242361,-0.36434 1.116968,-0.84151 2.599301,-0.67345 4.204928,-0.22583 6.086258,1.7505 0.23345,0.36669 0.516676,0.70609 0.700347,1.10008 1.021717,2.19162 0.223657,4.48401 -1.223867,6.24595 -2.331109,2.26447 -4.626031,3.46898 -7.961305,3.11656 -0.455266,-0.12545 -0.926886,-0.20211 -1.365792,-0.37636 -2.139262,-0.84934 -3.438676,-2.73597 -3.691515,-4.98064 0.01799,-0.41325 -0.0095,-0.831 0.05394,-1.23975 0.32544,-2.0971 1.777965,-3.66656 3.575925,-4.65959 2.05495,-0.8808 4.220819,-1.30478 6.447658,-0.84943 0,0 -0.256831,2.22748 -0.256831,2.22748 z"
       inkscape:connector-curvature="0" />
    <path
       style="fill:#000000;stroke-width:1.43800008;stroke-linejoin:miter;stroke-miterlimit:4;stroke-dasharray:none"
       id="path684"
       d="m 115.84813,73.812336 c -1.62632,-0.813948 -3.33821,-0.843653 -5.08961,-0.535448 -2.02823,0.569555 -3.36289,1.605322 -4.03317,3.618971 -0.28839,1.872533 0.8326,3.031471 2.35236,3.888306 2.21,0.907875 4.4108,0.433004 6.43531,-0.671304 1.2734,-0.880014 2.53361,-2.234057 1.8719,-3.852171 -0.95358,-1.259332 -2.26831,-2.242275 -3.63557,-3.01506 -1.12916,-0.487452 -0.56082,-0.320423 -1.69763,-0.525603 0,0 -0.007,-0.09327 -0.007,-0.09327 v 0 c 1.20972,-0.38933 0.57053,-0.20718 1.92117,-0.533742 3.20534,-0.267663 5.20825,0.293566 6.63984,3.408487 0.0844,0.473599 0.23533,0.940067 0.25335,1.420799 0.10023,2.67484 -1.78999,4.705514 -3.86966,6.081231 -3.43517,1.673688 -5.98206,2.068052 -9.59051,0.530246 -0.45323,-0.289541 -0.94048,-0.531698 -1.35969,-0.868621 -2.14637,-1.725086 -2.91641,-4.305827 -2.25048,-6.935822 0.19963,-0.459944 0.35049,-0.944274 0.59887,-1.379826 1.26491,-2.218195 3.5469,-3.472421 5.97532,-3.982048 2.44204,-0.263025 4.6601,-0.04371 6.77856,1.30306 0,0 -1.29322,2.141815 -1.29322,2.141815 z"
       inkscape:connector-curvature="0" />
    <path
       style="fill:#cccccc;stroke-width:1.43800008;stroke-linejoin:miter;stroke-miterlimit:4;stroke-dasharray:none"
       id="path686"
       d="m 128.69461,206.09319 c -1.74175,-0.8683 -3.63958,-0.73242 -5.47864,-0.31517 -1.469,0.49686 -3.31039,1.26826 -3.5254,3.00568 0.37022,1.22774 1.83667,1.61979 2.92809,1.93131 2.39844,0.47939 4.58174,-0.18058 6.53216,-1.56715 1.21038,-1.09251 2.19644,-2.55165 1.75165,-4.22744 -0.66445,-1.02434 -1.8652,-1.62305 -2.97777,-2.03033 -1.3171,-0.28314 -0.65394,-0.17468 -1.9894,-0.32584 0,0 -0.0202,-0.0913 -0.0202,-0.0913 v 0 c 1.27952,-0.73815 0.60465,-0.40897 2.02998,-0.97645 3.11091,-0.75948 5.04672,-0.37476 6.31396,2.84695 0.0604,0.44129 0.17509,0.8785 0.18125,1.32386 0.0353,2.54874 -1.53196,4.7002 -3.38979,6.27234 -0.45461,0.30017 -0.88715,0.63676 -1.36382,0.90049 -2.47208,1.36775 -5.31641,1.67258 -8.05872,1.11278 -2.40129,-0.76638 -4.83467,-1.87129 -5.20414,-4.72161 -0.0598,-0.46143 0.0337,-0.92997 0.0505,-1.39495 0.15128,-0.42527 0.24776,-0.87422 0.45385,-1.2758 1.11064,-2.16406 3.48219,-3.24312 5.7006,-3.85406 2.62337,-0.43249 5.26277,-0.461 7.61155,0.97555 0,0 -1.54573,2.41118 -1.54573,2.41118 z"
       inkscape:connector-curvature="0" />
    <path
       style="fill:#000000;stroke-width:1.43800008;stroke-linejoin:miter;stroke-miterlimit:4;stroke-dasharray:none"
       id="path688"
       d="m 157.62317,228.56178 c -2.34528,-0.28504 -4.69692,-0.50145 -7.05468,-0.64843 -3.75783,-0.25563 -7.51468,-0.026 -11.26159,0.26608 -4.72883,0.50574 -9.46511,0.88643 -14.21584,1.10216 -6.01828,0.21942 -12.03634,-0.10437 -18.04325,-0.44499 -6.26824,-0.39847 -12.54061,-0.71131 -18.818199,-0.91309 -6.014315,-0.18207 -12.030358,-0.31192 -18.047131,-0.37372 -5.431629,-0.0957 -10.863297,-0.0158 -16.294788,0.0289 -4.475689,0.0933 -8.935815,-0.15914 -13.328925,-1.02707 -1.473853,-0.68551 -3.454373,-1.09665 -4.581316,-2.39142 -0.145386,-0.16704 -0.206528,-0.3918 -0.309792,-0.5877 0,0 0.04067,-0.0842 0.04067,-0.0842 v 0 c 1.719292,-0.51591 3.603366,-0.0792 5.367673,-0.20718 4.246282,0.49469 8.508048,0.83474 12.788189,0.75225 5.456044,-0.0275 10.912496,-0.0585 16.36822,0.0285 6.040374,0.11078 12.080216,0.24635 18.118317,0.44926 6.298972,0.24452 12.595032,0.55374 18.884882,0.97619 5.89469,0.32675 11.80061,0.66097 17.70564,0.40552 4.71152,-0.20247 9.40493,-0.62836 14.09879,-1.07616 3.90996,-0.31557 7.84018,-0.48544 11.75837,-0.19423 2.45369,0.18907 4.90647,0.42913 7.32014,0.92683 0,0 -0.49538,3.01252 -0.49538,3.01252 z"
       inkscape:connector-curvature="0" />
    <path
       style="fill:#cccccc;stroke-width:1.43800008;stroke-linejoin:miter;stroke-miterlimit:4;stroke-dasharray:none"
       id="path690"
       d="m 89.548098,194.86951 c -1.698699,2.4034 -4.156302,4.08627 -6.567543,5.70213 -4.204718,2.69254 -8.650432,4.97954 -13.044103,7.34227 -4.752922,2.54297 -9.520097,5.05877 -14.316075,7.5196 -4.002696,2.01542 -8.038103,3.96485 -12.069964,5.92097 -1.496822,0.61273 -2.862947,1.57624 -4.390524,2.12022 -1.045353,0.37225 -2.187565,0.49423 -3.286255,0.5464 -0.877641,-0.14713 -0.521954,0.0506 -1.096378,-0.53715 0,0 0.0061,-0.0933 0.0061,-0.0933 v 0 c 0.162192,-0.57053 0.02875,-0.28139 0.455073,-0.83999 0.717743,-0.75899 1.485958,-1.57154 2.35436,-2.15924 1.360062,-0.92043 2.954078,-1.48106 4.378883,-2.28231 4.014693,-1.95808 8.07457,-3.82159 12.082328,-5.79413 4.818504,-2.36813 9.605626,-4.79871 14.367914,-7.27805 4.347192,-2.23949 8.702996,-4.476 12.89748,-6.99405 2.175743,-1.39882 4.364498,-2.82492 6.147737,-4.72259 0,0 2.080966,1.54926 2.080966,1.54926 z"
       inkscape:connector-curvature="0" />
    <path
       style="fill:#cccccc;stroke-width:1.43800008;stroke-linejoin:miter;stroke-miterlimit:4;stroke-dasharray:none"
       id="path700"
       d="m 202.31151,195.77483 c -3.5575,0.0354 -7.11475,-0.0306 -10.67216,-0.052 -5.94704,-0.0385 -11.89188,0.12632 -17.83589,0.29008 -6.82944,0.24399 -13.6602,0.43971 -20.492,0.60315 -6.49489,0.1424 -12.99085,0.18442 -19.48706,0.16669 -5.94821,2.7e-4 -11.892,-0.22234 -17.8272,-0.60074 -4.79449,-0.31219 -9.57288,-0.82076 -14.34384,-1.38054 -1.51857,-0.27381 -3.105767,-0.27374 -4.596117,-0.71123 -0.95854,-0.28138 -1.87742,-0.79272 -2.75491,-1.26043 -0.706477,-0.4681 -0.386324,-0.23084 -0.968687,-0.70054 0,0 0.0011,-0.0935 0.0011,-0.0935 v 0 c 0.641416,-0.45646 0.283379,-0.24116 1.087837,-0.62248 0.973077,-0.31145 1.99713,-0.63625 3.024769,-0.69779 1.56024,-0.0934 3.110938,0.30041 4.656588,0.4135 4.70139,0.60188 9.40309,1.21488 14.13031,1.58175 5.85871,0.42669 11.72691,0.68598 17.60269,0.6765 6.47161,0.0297 12.94373,0.0305 19.41507,-0.0416 6.82175,-0.0852 13.64122,-0.27113 20.45999,-0.48796 5.99056,-0.18272 11.98503,-0.34918 17.97874,-0.23481 3.60839,0.0972 7.23132,0.17596 10.80786,0.7079 0,0 -0.18697,2.44408 -0.18697,2.44408 z"
       inkscape:connector-curvature="0" />
    <path
       style="fill:#000000;stroke-width:1.43800008;stroke-linejoin:miter;stroke-miterlimit:4;stroke-dasharray:none"
       id="path702"
       d="m 211.77044,195.63626 c -2.50933,1.78872 -5.20923,3.29545 -7.88567,4.81605 -5.56652,3.10636 -11.3239,5.85181 -17.08223,8.57959 -6.08424,2.81818 -12.12047,5.73885 -18.02834,8.91135 -3.00745,1.53936 -6.10953,2.99824 -9.30546,4.11896 0,0 -0.0608,-0.0711 -0.0608,-0.0711 v 0 c 1.71875,-3.10934 4.67256,-5.40019 7.6915,-7.15831 5.95934,-3.2169 12.109,-6.04562 18.26056,-8.87302 5.70514,-2.65508 11.42301,-5.29756 16.936,-8.33918 2.68544,-1.48747 5.31981,-3.08578 8.08904,-4.41166 0,0 1.38538,2.42732 1.38538,2.42732 z"
       inkscape:connector-curvature="0" />
    <path
       style="fill:#000000;stroke-width:1.43800008;stroke-linejoin:miter;stroke-miterlimit:4;stroke-dasharray:none"
       id="path708"
       d="m 165.07724,219.1435 c 0.0328,-3.38005 0.13846,-6.7592 0.19994,-10.13896 0.13433,-6.96864 0.20679,-13.9382 0.25467,-20.90791 0.057,-10.17397 -0.35541,-20.34148 -0.94482,-30.49595 -0.64178,-9.37107 -1.32324,-18.73796 -1.79533,-28.1195 -0.31497,-6.60085 -0.32282,-13.20925 -0.3369,-19.81571 0.0471,-4.10724 -0.27907,-8.20524 -0.34951,-12.308932 0.23131,-1.440892 0.44326,-2.94154 1.39925,-4.095777 0,0 0.0932,0.0081 0.0932,0.0081 v 0 c 0.81432,1.18786 1.40168,2.479712 1.77149,3.878604 0.45848,4.156455 0.45447,8.345775 0.44074,12.522945 -0.0332,6.55626 -0.0862,13.1151 0.18,19.6679 0.36553,9.37203 1.00438,18.72902 1.60563,28.08829 0.58944,10.21555 1.10805,20.43671 1.14925,30.6722 0.0385,6.98673 -0.0222,13.97299 -0.0899,20.95941 -0.0464,3.41623 -0.0661,6.84042 -0.37513,10.24534 0,0 -3.20257,-0.16002 -3.20257,-0.16002 z"
       inkscape:connector-curvature="0" />
    <path
       style="fill:#000000;stroke-width:1.43800008;stroke-linejoin:miter;stroke-miterlimit:4;stroke-dasharray:none"
       id="path710"
       d="m 206.64198,58.87448 c 1.80976,4.614373 2.30427,9.607237 2.81354,14.496803 0.88571,10.529099 0.95571,21.106908 1.03784,31.666477 0.0165,11.46216 0.29532,22.9183 0.77346,34.36963 0.43891,8.98402 1.1006,17.95503 1.67362,26.931 0.43115,6.24958 0.72244,12.507 0.92819,18.76766 -0.10147,3.1072 0.46597,6.62277 -0.13089,9.6941 -0.0809,0.41644 -0.23831,0.8143 -0.35747,1.22145 -0.27124,0.77839 -0.54084,1.60571 -1.25979,2.08256 0,0 -0.0911,-0.0214 -0.0911,-0.0214 v 0 c -0.49869,-0.61703 -0.7189,-1.35616 -0.90549,-2.11932 -0.87063,-3.50626 -0.37004,-7.18616 -0.593,-10.76186 -0.1515,-6.22746 -0.39179,-12.45275 -0.7315,-18.67289 -0.51574,-8.99996 -1.08088,-17.99772 -1.43474,-27.00605 -0.43231,-11.48061 -0.56694,-22.96745 -0.59814,-34.4558 -0.14153,-10.45855 -0.24725,-20.937799 -1.31086,-31.352841 -0.56768,-4.554355 -1.07627,-9.196303 -2.70947,-13.519213 0,0 2.89576,-1.320271 2.89576,-1.320271 z"
       inkscape:connector-curvature="0" />
    <path
       style="fill:#000000;stroke-width:1.43800008;stroke-linejoin:miter;stroke-miterlimit:4;stroke-dasharray:none"
       id="path716"
       d="m 39.335908,214.46791 c 0.126129,-2.85821 -0.0477,-5.71443 -0.219046,-8.5664 -0.472133,-6.20556 -1.01464,-12.40553 -1.530501,-18.60758 -0.690919,-8.30234 -1.212834,-16.61743 -1.690788,-24.93436 -0.490627,-8.7775 -0.939694,-17.55735 -1.328303,-26.33995 -0.312563,-6.77788 -0.541862,-13.55882 -0.647372,-20.34302 0.181925,-2.37074 -0.300977,-4.86917 0.291089,-7.20793 0.189151,-0.74718 0.400651,-1.01719 0.767808,-1.63321 0.611097,-0.57693 0.221948,-0.43191 1.245348,0.0361 0,0 -0.08746,0.0332 -0.08746,0.0332 v 0 c 0.755062,-0.29054 0.470241,-0.40147 0.914574,0.0664 1.29218,2.70433 0.484807,5.77275 0.664134,8.67193 0.01355,6.74052 0.225557,13.47814 0.510153,20.21231 0.398905,8.76322 0.841344,17.52424 1.402258,26.27883 0.524086,8.28169 1.058412,16.56343 1.806101,24.82866 0.553331,6.22403 1.172131,12.44212 1.687168,18.66947 0.221862,2.9943 0.387615,5.99802 0.248476,9.00108 0,0 -4.033639,-0.16555 -4.033639,-0.16555 z"
       inkscape:connector-curvature="0" />
    <path
       style="fill:#000000;stroke-width:1.43800008;stroke-linejoin:miter;stroke-miterlimit:4;stroke-dasharray:none"
       id="path718"
       d="m 41.256643,93.445906 c 3.633599,0.378029 7.291519,0.47045 10.940282,0.606806 7.876376,0.282821 15.756401,0.441301 23.636682,0.563536 10.662943,0.178959 21.327078,0.272307 31.990143,0.442322 7.2818,0.258493 14.60686,0.121029 21.86776,0.837528 2.55994,0.252614 6.87338,0.971542 9.45752,1.380697 3.51329,0.578292 6.96855,1.433338 10.45103,2.163781 0,0 -0.0142,0.09245 -0.0142,0.09245 v 0 c -3.52267,-0.348922 -7.04479,-0.488405 -10.58664,-0.506206 -3.15484,-0.04136 -6.31062,0.0047 -9.46517,-0.05446 -7.25416,-0.135925 -14.50213,-0.654244 -21.76058,-0.65482 C 97.111134,98.158217 86.448272,98.045211 75.785561,97.917658 67.883502,97.810195 59.980766,97.724822 52.080847,97.501852 c -3.779779,-0.113276 -7.573012,-0.17458 -11.332675,-0.610246 0,0 0.508476,-3.4457 0.508476,-3.4457 z"
       inkscape:connector-curvature="0" />
    <path
       style="fill:#000000;stroke-width:1.43800008;stroke-linejoin:miter;stroke-miterlimit:4;stroke-dasharray:none"
       id="path720"
       d="m 40.154473,91.778933 c 3.375229,-1.398368 6.252723,-3.695795 9.076918,-5.961811 5.627216,-4.764254 10.631868,-10.195383 15.746184,-15.490301 3.602855,-3.422232 7.405841,-6.619542 11.413585,-9.554601 0,0 0.06488,0.06738 0.06488,0.06738 v 0 c -3.067039,3.87899 -6.039667,7.833764 -9.218128,11.623865 -5.093848,5.505844 -10.254771,10.975348 -15.908141,15.916251 -3.044923,2.541751 -6.154878,5.087771 -9.812835,6.706177 0,0 -1.362467,-3.306964 -1.362467,-3.306964 z"
       inkscape:connector-curvature="0" />
    <path
       style="fill:#000000;stroke-width:1.43800008;stroke-linejoin:miter;stroke-miterlimit:4;stroke-dasharray:none"
       id="path724"
       d="m 197.86768,61.492569 c -3.31001,-1.356511 -6.95352,-1.569694 -10.47408,-1.898407 -9.72748,-0.666824 -19.47839,-0.934161 -29.22074,-1.30035 -11.39695,-0.435581 -22.78857,-0.998831 -34.18635,-1.411708 -7.90264,-0.332838 -15.81099,-0.40799 -23.71415,-0.08809 -4.534954,0.165405 -9.045057,0.79942 -13.584728,0.799701 -2.307883,-0.06638 -4.535294,-0.799936 -6.820929,-0.965814 0,0 -0.0043,-0.09345 -0.0043,-0.09345 v 0 c 2.244224,-0.37129 4.332221,-1.412232 6.554932,-1.909612 4.525688,-0.832448 9.132732,-1.102558 13.721705,-1.351039 7.99571,-0.282252 15.99363,-0.122849 23.98487,0.254011 11.39089,0.52076 22.77817,1.120277 34.17163,1.583084 9.80044,0.387426 19.60888,0.645792 29.39764,1.275114 4.02053,0.375595 8.5399,0.47712 11.97004,2.866758 0,0 -1.79559,2.239801 -1.79559,2.239801 z"
       inkscape:connector-curvature="0" />
    <path
       style="fill:#000000;stroke-width:1.43800008;stroke-linejoin:miter;stroke-miterlimit:4;stroke-dasharray:none"
       id="path726"
       d="m 203.91808,59.258702 c -2.57236,2.003129 -4.71639,4.483542 -6.85802,6.923373 -4.70835,5.592419 -9.59025,11.021809 -14.76245,16.188402 -2.90009,2.707383 -5.80258,5.488188 -9.11129,7.707074 -2.73108,1.831509 -5.74937,3.224379 -8.73228,4.580266 -2.98476,1.113446 -1.5626,0.595638 -4.26417,1.559792 0,0 -0.0399,-0.0846 -0.0399,-0.0846 v 0 c 2.42546,-1.454155 1.18034,-0.639384 3.71353,-2.477386 2.14243,-1.599613 2.67,-1.949458 4.78156,-3.718296 0.89184,-0.74708 1.74598,-1.538348 2.63631,-2.287217 2.94833,-2.479884 5.99892,-4.846227 8.7291,-7.576587 5.1396,-5.100987 9.9989,-10.459762 14.64574,-16.014398 2.35493,-2.650826 4.6704,-5.495584 7.73502,-7.35934 0,0 1.52687,2.558917 1.52687,2.558917 z"
       inkscape:connector-curvature="0" />
    <path
       style="fill:#cccccc;stroke-width:1.43800008;stroke-linejoin:miter;stroke-miterlimit:4;stroke-dasharray:none"
       id="path728"
       d="M 83.6003,189.36819 C 83.236923,185.82835 82.975489,182.27857 82.707347,178.73047 82.121602,171.14895 81.827938,163.5493 81.51955,155.9527 81.10503,145.09335 80.624946,134.23713 80.056161,123.38476 79.501306,113.30158 79.020452,103.21527 78.680402,93.122577 78.490603,86.864385 78.419295,80.602838 78.172304,74.346493 c -0.120137,-3.615497 -0.57554,-7.205343 -0.85471,-10.808692 -0.02545,-1.13115 0.163904,-2.248432 0.39507,-3.350924 0.09413,-0.448919 0.322001,-0.875038 0.340048,-1.333366 0.0047,-0.118702 -0.08355,-0.222419 -0.125315,-0.333629 0,0 0.0809,-0.04696 0.0809,-0.04696 v 0 c 0.392099,0.492066 0.154339,0.22285 0.740463,0.782804 0.922626,1.10354 1.396452,2.551917 1.787827,3.905295 0.572457,3.663839 0.835091,7.366415 0.970026,11.070873 0.183803,6.265034 0.154561,12.532984 0.31664,18.798571 0.250822,10.071665 0.706792,20.135735 1.29209,30.193475 0.572592,10.86044 1.143786,21.72116 1.61763,32.58646 0.362554,7.55604 0.734452,15.11322 1.357914,22.65323 0.289739,3.52577 0.614299,7.04858 0.903679,10.57426 0,0 -3.394268,0.3303 -3.394268,0.3303 z"
       inkscape:connector-curvature="0" />
    <path
       style="fill:#000000;fill-opacity:1;stroke:none;stroke-width:0.2;stroke-linejoin:miter;stroke-miterlimit:4;stroke-dasharray:none;stroke-opacity:1"
       id="path3018"
       d="m 55.145733,249.71406 c -1.815478,-0.43512 -3.698047,-0.44701 -5.554456,-0.43022 -2.057358,0.0373 -4.110056,0.18711 -6.166022,0.26247 -1.123913,0.17078 -2.337893,-0.10469 -3.441758,0.2023 0.91885,-0.12519 0.775203,-0.97829 0.78183,0.47901 0.189712,3.22797 0.726602,6.42458 1.172956,9.62411 0.65676,4.4206 1.12095,8.86642 1.439556,13.32335 -0.01278,2.26465 0.658365,4.94601 -0.707829,6.9494 -0.246375,0.23003 -1.67562,-0.16181 -0.766379,-0.0666 0,0 0.08214,0.0448 0.08214,0.0448 v 0 c -0.01103,0.2114 0.152369,0.53213 -0.03308,0.63418 -0.622916,0.34285 -1.035465,-0.11864 -1.421117,-0.42494 -1.468686,-2.00396 -1.064239,-4.45665 -1.347562,-6.8239 -0.33876,-4.35154 -0.785847,-8.6935 -1.482313,-13.00427 -0.543208,-3.4191 -1.164314,-6.84085 -1.395055,-10.29808 0.039,-2.29002 0.431924,-4.20201 2.957928,-4.827 1.337667,-0.16725 2.681428,-0.10569 4.027133,-0.11732 2.109811,-0.0531 4.219088,-0.13176 6.329905,-0.13242 2.218237,0.0491 4.448426,0.12948 6.619314,0.63388 0,0 -1.09519,3.97125 -1.09519,3.97125 z"
       inkscape:connector-curvature="0" />
    <path
       style="fill:#000000;fill-opacity:1;stroke:none;stroke-width:0.2;stroke-linejoin:miter;stroke-miterlimit:4;stroke-dasharray:none;stroke-opacity:1"
       id="path3020"
       d="m 53.912111,267.15675 c -1.90586,-0.31386 -3.846367,-0.28686 -5.770529,-0.23824 -2.679699,0.19943 -5.332737,-0.3486 -7.910464,-1.03211 -0.29186,-0.11492 -0.583719,-0.22983 -0.875578,-0.34474 0,0 -0.0049,-0.0934 -0.0049,-0.0934 v 0 c 0.271378,-0.14466 0.542753,-0.28931 0.814129,-0.43396 2.506477,-1.104 5.072726,-2.2126 7.854455,-2.27102 2.344679,-0.0773 4.737494,-0.15515 7.017541,0.49585 0,0 -1.12462,3.91763 -1.12462,3.91763 z"
       inkscape:connector-curvature="0" />
    <path
       style="fill:#000000;fill-opacity:1;stroke:none;stroke-width:0.2;stroke-linejoin:miter;stroke-miterlimit:4;stroke-dasharray:none;stroke-opacity:1"
       id="path3022"
       d="m 81.581156,245.89783 c -1.7745,-0.37865 -3.470942,0.3168 -5.083368,0.97803 -3.088876,1.57111 -5.770417,3.8784 -7.792503,6.69803 -0.444093,0.61925 -0.818301,1.28574 -1.227453,1.92861 -1.582306,2.98122 -2.539457,6.35726 -1.63105,9.71108 0.155501,0.5741 0.41294,1.11561 0.619413,1.67341 1.848488,3.6673 4.785294,5.32826 8.33623,7.03552 2.342697,1.37271 4.904375,1.94165 7.582937,2.0691 0,0 0.02262,0.0908 0.02262,0.0908 v 0 c -0.433673,0.24407 -0.84618,0.53033 -1.30102,0.73223 -2.430558,1.07892 -5.136634,1.07349 -7.720401,0.71475 -0.740193,-0.24146 -1.50363,-0.42075 -2.220579,-0.72433 -3.89672,-1.64996 -6.934851,-4.72667 -8.748149,-8.51114 -0.266954,-0.80447 -0.606777,-1.58834 -0.800857,-2.41343 -1.03619,-4.40521 0.165783,-8.81483 2.324931,-12.67428 0.503264,-0.76208 0.966846,-1.55191 1.509794,-2.28625 2.488089,-3.36514 5.770158,-6.08109 9.566384,-7.8389 2.788285,-1.04582 5.618998,-1.88075 8.40342,-0.34003 0,0 -1.840343,3.15684 -1.840343,3.15684 z"
       inkscape:connector-curvature="0" />
    <path
       style="fill:#000000;fill-opacity:1;stroke:none;stroke-width:0.2;stroke-linejoin:miter;stroke-miterlimit:4;stroke-dasharray:none;stroke-opacity:1"
       id="path3024"
       d="m 114.93548,251.05234 c -1.87555,-0.93426 -3.96346,-0.6205 -5.93435,-0.2378 -3.35587,0.93345 -6.38693,2.80342 -8.6192,5.49978 -0.455095,0.54971 -0.831664,1.15995 -1.247493,1.73992 -1.428576,2.57264 -2.319579,5.65957 -0.976009,8.47225 0.217739,0.45582 0.536787,0.85592 0.80518,1.28388 0.367186,0.37598 0.701223,0.78748 1.101552,1.12795 2.29361,1.95063 6.11477,3.16951 8.99104,3.86425 1.96308,0.45809 3.90672,0.43975 5.89247,0.26257 0,0 0.0213,0.0911 0.0213,0.0911 v 0 c -1.97208,0.75502 -3.944,1.51781 -6.06576,1.742 -4.66076,0.33402 -8.24479,0.21599 -11.912905,-3.13195 -0.61241,-0.55895 -1.0995,-1.24137 -1.649249,-1.86206 -1.054306,-1.92038 -1.484545,-2.3175 -1.846437,-4.5184 -0.571516,-3.47575 0.565023,-6.80656 2.3456,-9.74466 0.538747,-0.72278 1.02815,-1.4851 1.616236,-2.16833 2.837055,-3.29604 6.660045,-5.54318 10.845945,-6.63094 3.27564,-0.53009 6.32295,-0.78681 9.08387,1.38823 0,0 -2.45178,2.82222 -2.45178,2.82222 z"
       inkscape:connector-curvature="0" />
    <path
       style="fill:#000000;stroke-width:1.43800008;stroke-linejoin:miter;stroke-miterlimit:4;stroke-dasharray:none"
       id="path660-3"
       d="m 292.50524,87.243295 c -1.80447,-0.6311 -3.61763,-0.59119 -5.46617,-0.23175 -2.43164,0.60767 -4.22231,2.16114 -5.73812,4.0817 -1.54095,2.26636 -2.09221,4.25594 -1.59665,6.95052 0.93789,2.647175 2.93824,3.647305 5.49164,4.390405 3.07443,0.61607 6.24249,0.19108 9.1027,-1.08767 0.61304,-0.27409 1.18833,-0.6258 1.7825,-0.9387 2.27634,-1.519215 4.64253,-3.560815 5.0474,-6.447865 0.0562,-0.40082 0.006,-0.80947 0.008,-1.21421 -0.47779,-2.79546 -2.74297,-4.19779 -5.08313,-5.39212 -1.91779,-1.25735 -4.06827,-1.89962 -6.3328,-2.09031 0,0 -0.0192,-0.0916 -0.0192,-0.0916 v 0 c 2.56045,-1.31202 4.97775,-1.57243 7.81673,-0.98308 0.6016,0.25774 1.22726,0.46533 1.8048,0.77322 2.36036,1.25835 4.40471,3.35007 5.17089,5.96325 0.19141,0.65284 0.22308,1.34223 0.33462,2.01335 -0.0542,0.68687 -0.031,1.38431 -0.1627,2.06061 -0.74959,3.84818 -3.74185,6.641245 -6.90546,8.651645 -0.73123,0.37349 -1.44157,0.79103 -2.19367,1.12047 -3.6283,1.58929 -7.60482,2.06078 -11.48367,1.24739 -0.66541,-0.21591 -1.34886,-0.38261 -1.99624,-0.64772 -3.02398,-1.23838 -5.23378,-3.57715 -6.05769,-6.754635 -0.0801,-0.57935 -0.2136,-1.15381 -0.24027,-1.73806 -0.1345,-2.94649 1.05616,-5.72722 2.73532,-8.07849 2.25531,-2.63835 4.5204,-4.44297 8.01297,-5.1202 2.45711,-0.29177 4.92331,-0.18621 7.14525,1.02989 0,0 -1.17734,2.53391 -1.17734,2.53391 z"
       inkscape:connector-curvature="0" />
    <path
       style="fill:#000000;stroke-width:1.43800008;stroke-linejoin:miter;stroke-miterlimit:4;stroke-dasharray:none"
       id="path662-6"
       d="m 414.94239,83.158315 c -1.67145,-0.91361 -3.46269,-0.78039 -5.25554,-0.376 -2.24534,0.72691 -4.20159,2.15995 -5.32522,4.27464 -0.2272,0.42762 -0.375,0.89291 -0.5625,1.33937 -0.66298,2.46415 -0.17979,4.93819 1.56068,6.85395 0.37326,0.41084 0.81896,0.74948 1.22844,1.12423 2.84911,1.9874 6.30406,2.70899 9.74398,2.31474 0.75801,-0.0869 1.49963,-0.28217 2.24944,-0.42323 3.19005,-0.96429 6.51152,-2.58534 8.13654,-5.67863 0.22796,-0.43393 0.34394,-0.91802 0.51592,-1.37702 0.30708,-2.30077 -0.65006,-4.38133 -2.43793,-5.84838 -0.49553,-0.40661 -1.05722,-0.72512 -1.58583,-1.08769 -0.6232,-0.29856 -1.2464,-0.59712 -1.8696,-0.89568 0,0 0.0273,-0.0895 0.0273,-0.0895 v 0 c 0.71459,0.10936 1.42918,0.21872 2.14378,0.32808 0.69059,0.19679 1.40069,0.33484 2.07176,0.59037 2.7118,1.03257 5.03267,3.05703 5.04639,6.16339 0.003,0.71297 -0.21503,1.40964 -0.32254,2.11446 -0.29803,0.67384 -0.52129,1.38599 -0.89409,2.02152 -2.19112,3.73534 -6.25847,5.773335 -10.27375,6.893555 -0.89384,0.15149 -1.77977,0.36085 -2.68151,0.45446 -4.32522,0.44903 -8.597,-0.51381 -12.10833,-3.115585 -0.55454,-0.53776 -1.1668,-1.02177 -1.66362,-1.61326 -2.41001,-2.86923 -2.92271,-6.52287 -1.7835,-10.02626 0.28479,-0.60874 0.51692,-1.24502 0.85439,-1.82622 1.61386,-2.77945 4.30895,-4.60162 7.35855,-5.45967 2.74373,-0.46236 5.13234,-0.50505 7.45982,1.2331 0,0 -1.63301,2.11124 -1.63301,2.11124 z"
       inkscape:connector-curvature="0" />
    <path
       style="fill:#000000;stroke-width:1.43800008;stroke-linejoin:miter;stroke-miterlimit:4;stroke-dasharray:none"
       id="path664-7"
       d="m 302.69414,211.99413 c -2.36522,-0.48882 -4.73411,-0.0517 -7.03098,0.54822 -3.0489,0.84157 -5.67631,2.46014 -7.93874,4.63384 -1.6968,1.96908 -2.62143,3.75862 -2.17369,6.37854 0.85469,2.31408 2.66227,2.74187 4.92155,2.88697 3.87379,-0.21961 6.56625,-1.86113 9.33016,-4.45339 1.16096,-1.36277 2.32343,-2.94407 2.28633,-4.8298 -0.009,-0.44984 -0.22071,-1.11928 -0.34065,-1.55311 -0.46503,-1.37961 -1.61622,-2.52223 -2.93863,-3.13524 -0.39226,-0.18184 -0.82777,-0.25002 -1.24166,-0.37502 0,0 0.0199,-0.0914 0.0199,-0.0914 v 0 c 2.64004,0.36383 4.92312,0.22005 6.92895,2.33855 0.27355,0.50384 0.64517,0.96573 0.82066,1.51153 1.03724,3.22595 -1.13392,6.437 -3.13355,8.71779 -0.55221,0.50964 -1.07354,1.0549 -1.65661,1.52891 -2.96355,2.40927 -6.55997,3.8739 -10.38513,4.00084 -0.68061,-0.0668 -1.37071,-0.0691 -2.04184,-0.20054 -3.17591,-0.62216 -5.4796,-2.75273 -6.28723,-5.87342 -0.0584,-0.56761 -0.17375,-1.13222 -0.17529,-1.70283 -0.008,-3.01554 1.55382,-5.67536 3.5425,-7.82296 0.45055,-0.41929 0.87742,-0.86557 1.35165,-1.25788 2.41285,-1.99604 5.30987,-3.29545 8.30919,-4.12154 2.88153,-0.61171 5.82929,-1.0033 8.71415,-0.15666 0,0 -0.88103,3.02861 -0.88103,3.02861 z"
       inkscape:connector-curvature="0" />
    <path
       style="fill:#000000;stroke-width:1.43800008;stroke-linejoin:miter;stroke-miterlimit:4;stroke-dasharray:none"
       id="path666-5"
       d="m 423.97642,214.06033 c -2.02087,-0.25602 -3.84622,0.40009 -5.58684,1.35883 -2.32717,1.60157 -3.45575,3.18428 -3.81039,5.99786 0.131,2.79015 1.45402,3.9169 3.90955,4.91949 2.54594,0.63685 5.19963,0.18499 7.39409,-1.27791 0.43685,-0.29123 0.81857,-0.65768 1.22785,-0.98652 1.43411,-1.51265 2.53049,-3.5616 1.74619,-5.67255 -0.11987,-0.32263 -0.31801,-0.6105 -0.47702,-0.91575 -1.18956,-1.46543 -0.12895,-0.25226 -1.5554,-1.61393 -0.31057,-0.29647 -0.57824,-0.63738 -0.90122,-0.92026 -1.02405,-0.8969 -2.19623,-1.47256 -3.42046,-2.03364 -0.37193,-0.12507 -0.74385,-0.25013 -1.11577,-0.37519 0,0 0.005,-0.0934 0.005,-0.0934 v 0 c 0.40812,-0.0814 0.81625,-0.16283 1.22438,-0.24425 2.15345,-0.18022 4.56315,-0.15382 6.50001,0.98839 1.27296,0.7507 1.74766,1.60497 2.6178,2.7448 0.25737,0.59735 0.59223,1.16699 0.77211,1.79206 1.01316,3.5206 -0.62601,6.85096 -3.09077,9.29266 -0.58807,0.45075 -1.13932,0.9541 -1.7642,1.35225 -3.22561,2.05527 -7.03997,2.54162 -10.68565,1.46648 -0.63585,-0.28691 -1.30625,-0.5071 -1.90755,-0.86073 -2.98088,-1.75305 -4.43274,-4.82346 -4.24484,-8.21322 0.12265,-0.60614 0.19152,-1.2257 0.36796,-1.81842 0.87836,-2.95074 3.03019,-5.20826 5.64587,-6.72074 2.65657,-1.1874 5.0761,-1.80968 7.9373,-0.90077 0,0 -0.78822,2.73446 -0.78822,2.73446 z"
       inkscape:connector-curvature="0" />
    <path
       style="fill:#000000;stroke-width:1.43800008;stroke-linejoin:miter;stroke-miterlimit:4;stroke-dasharray:none"
       id="path670-5"
       d="m 463.97671,49.421865 c -2.11574,-0.0482 -3.98903,0.6126 -5.68425,1.83946 -1.86109,1.68613 -2.54983,3.6241 -2.42341,6.09187 0.46142,2.27699 1.68794,3.25108 3.87161,3.74882 2.67195,0.25349 4.92935,-0.97169 6.83785,-2.72307 1.53332,-1.84441 1.54111,-2.58651 0.99313,-4.72623 -0.45805,-0.8823 -1.14183,-1.75771 -2.01558,-2.27322 -0.3185,-0.18791 -0.69034,-0.26541 -1.03551,-0.39812 0,0 0.0261,-0.0898 0.0261,-0.0898 v 0 c 1.70574,0.34792 3.45884,0.35344 4.90211,1.48487 0.34744,0.3675 0.78219,0.66878 1.04232,1.10248 1.48902,2.48266 -0.18369,5.3735 -1.86101,7.20499 -0.44028,0.38311 -0.85327,0.80005 -1.32084,1.14935 -2.41778,1.80621 -5.35546,2.63945 -8.34988,2.25464 -0.53549,-0.15125 -1.09028,-0.24599 -1.60649,-0.45376 -2.66867,-1.07416 -4.17739,-3.46138 -4.49452,-6.24759 0.009,-0.54351 -0.0312,-1.08995 0.0259,-1.63052 0.28997,-2.74588 1.77516,-5.11263 3.94238,-6.76729 2.43924,-1.44046 4.5089,-2.07405 7.35962,-1.7021 0,0 -0.20955,2.13524 -0.20955,2.13524 z"
       inkscape:connector-curvature="0" />
    <path
       style="fill:#000000;stroke-width:1.43800008;stroke-linejoin:miter;stroke-miterlimit:4;stroke-dasharray:none"
       id="path672-6"
       d="m 469.62002,184.22131 c -2.0811,0.33109 -3.93081,1.22022 -5.61573,2.45471 -1.74311,1.45099 -2.74268,3.33287 -2.75425,5.59651 0.29503,1.92818 1.32698,2.68449 3.16594,2.99342 2.44996,0.12748 4.40371,-1.14082 5.99147,-2.8827 1.45558,-2.11451 1.11712,-3.20736 0.0892,-5.34136 -0.86141,-1.67014 -2.33842,-2.68576 -3.91847,-3.59621 0,0 0.0299,-0.0886 0.0299,-0.0886 v 0 c 2.19004,0.30215 4.30091,0.689 6.08498,2.11336 0.37832,0.43087 0.8343,0.80438 1.13497,1.29261 1.58921,2.58063 0.6428,5.62588 -1.01302,7.8681 -0.39705,0.41827 -0.76063,0.87107 -1.19115,1.25481 -2.20138,1.96221 -5.03535,2.93401 -7.96643,2.68356 -0.5287,-0.13892 -1.07671,-0.21839 -1.5861,-0.41674 -2.59621,-1.01095 -3.96782,-3.37616 -4.11527,-6.07138 0.0461,-0.51091 0.0455,-1.02822 0.13827,-1.53274 0.48539,-2.63839 2.15227,-4.77932 4.26157,-6.34778 2.19059,-1.35056 4.54472,-2.39913 7.17885,-2.29495 0,0 0.0853,2.31542 0.0853,2.31542 z"
       inkscape:connector-curvature="0" />
    <path
       style="fill:#cccccc;stroke-width:1.43800008;stroke-linejoin:miter;stroke-miterlimit:4;stroke-dasharray:none"
       id="path674-2"
       d="m 346.98439,185.50232 c -1.37097,-0.99544 -2.80582,-0.74209 -4.25306,-0.0852 -2.24847,1.32624 -3.36368,3.55802 -3.96371,6.00753 -0.2318,2.13393 -0.13898,3.88611 1.87621,5.01558 2.33698,0.77043 4.59258,-0.28733 6.59452,-1.44173 2.31337,-1.70561 3.73367,-3.18303 3.83064,-6.15205 -0.29875,-2.15106 -1.86844,-3.75279 -3.28729,-5.28442 -0.69142,-0.71326 -1.52214,-1.24138 -2.35865,-1.76123 0,0 0.014,-0.0925 0.014,-0.0925 v 0 c 1.18527,-0.2493 2.26883,-0.28727 3.45237,0.0884 1.08387,0.409 1.84105,0.59665 2.76332,1.3578 1.78152,1.47026 2.63637,3.70231 2.78417,5.94218 -0.0566,0.57283 -0.0512,1.15518 -0.16969,1.71848 -0.64357,3.06096 -2.89169,5.38212 -5.38063,7.09313 -3.30816,1.84802 -6.51371,3.02384 -10.1733,1.32707 -0.43234,-0.32653 -0.90995,-0.6005 -1.29702,-0.97961 -2.0606,-2.01823 -2.25693,-5.01247 -1.76603,-7.68534 1.09497,-3.70093 2.50535,-6.07966 5.98642,-7.97189 0.48469,-0.16944 0.95518,-0.38687 1.45407,-0.50831 2.07833,-0.50588 4.14727,0.0408 5.73923,1.44141 0,0 -1.84563,1.97067 -1.84563,1.97067 z"
       inkscape:connector-curvature="0" />
    <path
       style="fill:#000000;stroke-width:1.43800008;stroke-linejoin:miter;stroke-miterlimit:4;stroke-dasharray:none"
       id="path676-9"
       d="m 339.85814,54.188135 c -2.16837,-0.6062 -4.33064,-0.32147 -6.47064,0.2258 -2.88459,0.98954 -5.12458,2.62663 -6.76702,5.19275 -0.74578,1.73829 -0.61805,2.34366 1.08908,2.91929 2.88975,0.59726 5.67016,-0.42308 8.2102,-1.72123 1.53981,-1.00317 3.65367,-2.53481 2.95247,-4.62791 -0.76154,-1.85421 -2.1167,-3.09971 -3.90115,-3.96194 0,0 0.023,-0.0907 0.023,-0.0907 v 0 c 2.15406,0.12114 4.73658,0.20909 6.32266,1.94593 0.36127,0.39561 0.55184,0.91846 0.82776,1.3777 0.0998,0.53333 0.28863,1.05752 0.29935,1.60001 0.062,3.137 -2.60299,5.29803 -5.00661,6.78183 -3.56311,1.76048 -7.17115,2.93853 -11.14392,1.84272 -1.25124,-0.62425 -1.87314,-0.73563 -2.7052,-1.93545 -1.32645,-1.9127 -0.74743,-4.16164 0.29315,-6.02225 0.33761,-0.4634 0.64195,-0.95297 1.01282,-1.39021 2.02813,-2.3911 4.83611,-3.96402 7.81848,-4.82156 2.68656,-0.57178 5.42498,-0.7835 8.02405,0.30391 0,0 -0.8785,2.38127 -0.8785,2.38127 z"
       inkscape:connector-curvature="0" />
    <path
       style="fill:#000000;stroke-width:1.43800008;stroke-linejoin:miter;stroke-miterlimit:4;stroke-dasharray:none"
       id="path688-3"
       d="m 414.92577,225.85163 c -2.34528,-0.28504 -4.69692,-0.50145 -7.05468,-0.64843 -3.75783,-0.25563 -7.51468,-0.026 -11.26159,0.26608 -4.72883,0.50574 -9.46511,0.88643 -14.21584,1.10216 -6.01828,0.21942 -12.03634,-0.10437 -18.04325,-0.44499 -6.26824,-0.39847 -12.54061,-0.71131 -18.8182,-0.91309 -6.01432,-0.18207 -12.03036,-0.31192 -18.04713,-0.37372 -5.43163,-0.0957 -10.8633,-0.0158 -16.29479,0.0289 -4.47569,0.0933 -8.93582,-0.15914 -13.32893,-1.02707 -1.47385,-0.68551 -3.45437,-1.09665 -4.58131,-2.39142 -0.14539,-0.16704 -0.20653,-0.3918 -0.30979,-0.5877 0,0 0.0407,-0.0842 0.0407,-0.0842 v 0 c 1.71929,-0.51591 3.60336,-0.0792 5.36767,-0.20718 4.24628,0.49469 8.50805,0.83474 12.78819,0.75225 5.45604,-0.0275 10.9125,-0.0585 16.36822,0.0285 6.04037,0.11078 12.08022,0.24635 18.11832,0.44926 6.29897,0.24452 12.59503,0.55374 18.88488,0.97619 5.89469,0.32675 11.80061,0.66097 17.70564,0.40552 4.71152,-0.20247 9.40493,-0.62836 14.09879,-1.07616 3.90996,-0.31557 7.84018,-0.48544 11.75837,-0.19423 2.45369,0.18907 4.90647,0.42913 7.32014,0.92683 0,0 -0.49538,3.01252 -0.49538,3.01252 z"
       inkscape:connector-curvature="0" />
    <path
       style="fill:#cccccc;stroke-width:1.43800008;stroke-linejoin:miter;stroke-miterlimit:4;stroke-dasharray:none"
       id="path690-6"
       d="m 346.8507,192.15936 c -1.6987,2.4034 -4.15631,4.08627 -6.56755,5.70213 -4.20472,2.69254 -8.65043,4.97954 -13.0441,7.34227 -4.75292,2.54297 -9.5201,5.05877 -14.31608,7.5196 -4.00269,2.01542 -8.0381,3.96485 -12.06996,5.92097 -1.49682,0.61273 -2.86295,1.57624 -4.39052,2.12022 -1.04536,0.37225 -2.18757,0.49423 -3.28626,0.5464 -0.87764,-0.14713 -0.52195,0.0506 -1.09638,-0.53715 0,0 0.006,-0.0933 0.006,-0.0933 v 0 c 0.1622,-0.57053 0.0288,-0.28139 0.45508,-0.83999 0.71774,-0.75899 1.48596,-1.57154 2.35436,-2.15924 1.36006,-0.92043 2.95407,-1.48106 4.37888,-2.28231 4.0147,-1.95808 8.07457,-3.82159 12.08233,-5.79413 4.8185,-2.36813 9.60562,-4.79871 14.36791,-7.27805 4.34719,-2.23949 8.703,-4.476 12.89748,-6.99405 2.17575,-1.39882 4.3645,-2.82492 6.14774,-4.72259 0,0 2.08097,1.54926 2.08097,1.54926 z"
       inkscape:connector-curvature="0" />
    <path
       style="fill:#cccccc;stroke-width:1.43800008;stroke-linejoin:miter;stroke-miterlimit:4;stroke-dasharray:none"
       id="path700-0"
       d="m 459.61411,193.06468 c -3.5575,0.0354 -7.11475,-0.0306 -10.67216,-0.052 -5.94704,-0.0385 -11.89188,0.12632 -17.83589,0.29008 -6.82944,0.24399 -13.6602,0.43971 -20.492,0.60315 -6.49489,0.1424 -12.99085,0.18442 -19.48706,0.16669 -5.94821,2.6e-4 -11.892,-0.22234 -17.8272,-0.60074 -4.79449,-0.31219 -9.57288,-0.82076 -14.34384,-1.38054 -1.51857,-0.27381 -3.10577,-0.27374 -4.59612,-0.71123 -0.95854,-0.28138 -1.87742,-0.79272 -2.75491,-1.26043 -0.70648,-0.4681 -0.38632,-0.23084 -0.96869,-0.70054 0,0 0.001,-0.0935 0.001,-0.0935 v 0 c 0.64142,-0.45646 0.28338,-0.24116 1.08784,-0.62248 0.97308,-0.31145 1.99713,-0.63625 3.02477,-0.69779 1.56024,-0.0934 3.11094,0.30041 4.65659,0.4135 4.70139,0.60188 9.40309,1.21488 14.13031,1.58175 5.85871,0.42669 11.72691,0.68598 17.60269,0.6765 6.47161,0.0297 12.94373,0.0305 19.41507,-0.0416 6.82175,-0.0852 13.64122,-0.27113 20.45999,-0.48796 5.99056,-0.18272 11.98503,-0.34918 17.97874,-0.23481 3.60839,0.0972 7.23132,0.17596 10.80786,0.7079 0,0 -0.18697,2.44408 -0.18697,2.44408 z"
       inkscape:connector-curvature="0" />
    <path
       style="fill:#000000;stroke-width:1.43800008;stroke-linejoin:miter;stroke-miterlimit:4;stroke-dasharray:none"
       id="path702-6"
       d="m 469.07304,192.92611 c -2.50933,1.78872 -5.20923,3.29545 -7.88567,4.81605 -5.56652,3.10636 -11.3239,5.85181 -17.08223,8.57959 -6.08424,2.81818 -12.12047,5.73885 -18.02834,8.91135 -3.00745,1.53936 -6.10953,2.99824 -9.30546,4.11896 0,0 -0.0608,-0.0711 -0.0608,-0.0711 v 0 c 1.71875,-3.10934 4.67256,-5.40019 7.6915,-7.15831 5.95934,-3.2169 12.109,-6.04562 18.26056,-8.87302 5.70514,-2.65508 11.42301,-5.29756 16.936,-8.33918 2.68544,-1.48747 5.31981,-3.08578 8.08904,-4.41166 0,0 1.38538,2.42732 1.38538,2.42732 z"
       inkscape:connector-curvature="0" />
    <path
       style="fill:#000000;stroke-width:1.43800008;stroke-linejoin:miter;stroke-miterlimit:4;stroke-dasharray:none"
       id="path708-2"
       d="m 422.37984,216.43335 c 0.0328,-3.38005 0.13846,-6.7592 0.19994,-10.13896 0.13433,-6.96864 0.20679,-13.9382 0.25467,-20.90791 0.057,-10.17397 -0.35541,-20.34148 -0.94482,-30.49595 -0.64178,-9.37107 -1.32324,-18.73796 -1.79533,-28.1195 -0.31497,-6.60086 -0.32282,-13.20926 -0.3369,-19.81571 0.0471,-4.10724 -0.27907,-8.205255 -0.34951,-12.308945 0.23131,-1.44089 0.44326,-2.94154 1.39925,-4.09578 0,0 0.0932,0.008 0.0932,0.008 v 0 c 0.81432,1.18786 1.40168,2.47972 1.77149,3.87861 0.45848,4.15645 0.45447,8.345775 0.44074,12.522945 -0.0332,6.55626 -0.0862,13.1151 0.18,19.6679 0.36553,9.37203 1.00438,18.72902 1.60563,28.08829 0.58944,10.21555 1.10805,20.43671 1.14925,30.6722 0.0385,6.98673 -0.0222,13.97299 -0.0899,20.95941 -0.0464,3.41623 -0.0661,6.84043 -0.37513,10.24534 0,0 -3.20257,-0.16002 -3.20257,-0.16002 z"
       inkscape:connector-curvature="0" />
    <path
       style="fill:#000000;stroke-width:1.43800008;stroke-linejoin:miter;stroke-miterlimit:4;stroke-dasharray:none"
       id="path710-6"
       d="m 463.94458,56.164315 c 1.80976,4.61438 2.30427,9.60724 2.81354,14.49681 0.88571,10.5291 0.95571,21.10691 1.03784,31.666485 0.0165,11.46216 0.29532,22.9183 0.77346,34.36963 0.43891,8.98402 1.1006,17.95503 1.67362,26.931 0.43115,6.24958 0.72244,12.507 0.92819,18.76766 -0.10147,3.1072 0.46597,6.62277 -0.13089,9.6941 -0.0809,0.41644 -0.23831,0.8143 -0.35747,1.22145 -0.27124,0.77839 -0.54084,1.60571 -1.25979,2.08256 0,0 -0.0911,-0.0214 -0.0911,-0.0214 v 0 c -0.49869,-0.61703 -0.7189,-1.35616 -0.90549,-2.11932 -0.87063,-3.50626 -0.37004,-7.18616 -0.593,-10.76186 -0.1515,-6.22746 -0.39179,-12.45275 -0.7315,-18.6729 -0.51574,-8.99995 -1.08088,-17.99771 -1.43474,-27.00604 -0.43231,-11.48062 -0.56694,-22.96746 -0.59814,-34.45581 -0.14153,-10.458555 -0.24725,-20.937805 -1.31086,-31.352845 -0.56768,-4.55435 -1.07627,-9.1963 -2.70947,-13.51921 0,0 2.89576,-1.32027 2.89576,-1.32027 z"
       inkscape:connector-curvature="0" />
    <path
       style="fill:#000000;stroke-width:1.43800008;stroke-linejoin:miter;stroke-miterlimit:4;stroke-dasharray:none"
       id="path716-1"
       d="m 296.63851,211.75776 c 0.12612,-2.85821 -0.0477,-5.71443 -0.21905,-8.5664 -0.47213,-6.20556 -1.01464,-12.40553 -1.5305,-18.60758 -0.69092,-8.30234 -1.21284,-16.61743 -1.69079,-24.93436 -0.49063,-8.7775 -0.93969,-17.55735 -1.3283,-26.33996 -0.31257,-6.77787 -0.54186,-13.55881 -0.64737,-20.34301 0.18192,-2.37075 -0.30098,-4.86918 0.29108,-7.20793 0.18916,-0.74719 0.40066,-1.0172 0.76781,-1.63322 0.6111,-0.57693 0.22195,-0.4319 1.24535,0.0361 0,0 -0.0875,0.0332 -0.0875,0.0332 v 0 c 0.75506,-0.29054 0.47024,-0.40147 0.91457,0.0664 1.29218,2.70433 0.48481,5.77275 0.66414,8.67193 0.0136,6.74052 0.22556,13.47814 0.51015,20.21231 0.39891,8.76323 0.84135,17.52425 1.40226,26.27884 0.52409,8.28169 1.05841,16.56343 1.8061,24.82866 0.55333,6.22403 1.17213,12.44212 1.68717,18.66947 0.22186,2.9943 0.38761,5.99802 0.24847,9.00108 0,0 -4.03363,-0.16555 -4.03363,-0.16555 z"
       inkscape:connector-curvature="0" />
    <path
       style="fill:#000000;stroke-width:1.43800008;stroke-linejoin:miter;stroke-miterlimit:4;stroke-dasharray:none"
       id="path718-8"
       d="m 298.55924,90.735745 c 3.6336,0.37803 7.29152,0.47045 10.94028,0.60681 7.87638,0.28282 15.7564,0.4413 23.63668,0.56353 10.66295,0.17896 21.32708,0.27231 31.99015,0.44232 7.2818,0.2585 14.60686,0.12103 21.86776,0.83753 2.55994,0.25262 6.87338,0.97154 9.45752,1.3807 3.51329,0.57829 6.96855,1.43334 10.45103,2.16378 0,0 -0.0142,0.0924 -0.0142,0.0924 v 0 c -3.52267,-0.34892 -7.04479,-0.4884 -10.58664,-0.5062 -3.15485,-0.0414 -6.31062,0.005 -9.46517,-0.0545 -7.25417,-0.13584 -14.50214,-0.65416 -21.76059,-0.65474 -10.66234,-0.15932 -21.3252,-0.27232 -31.98791,-0.39988 -7.90206,-0.10746 -15.80479,-0.19283 -23.70471,-0.4158 -3.77978,-0.11328 -7.57302,-0.17458 -11.33268,-0.61025 0,0 0.50848,-3.4457 0.50848,-3.4457 z"
       inkscape:connector-curvature="0" />
    <path
       style="fill:#000000;stroke-width:1.43800008;stroke-linejoin:miter;stroke-miterlimit:4;stroke-dasharray:none"
       id="path720-7"
       d="m 297.45707,89.068775 c 3.37523,-1.39837 6.25272,-3.6958 9.07692,-5.96181 5.62721,-4.76426 10.63187,-10.19539 15.74618,-15.4903 3.60286,-3.42224 7.40584,-6.61955 11.41359,-9.55461 0,0 0.0649,0.0674 0.0649,0.0674 v 0 c -3.06704,3.87899 -6.03967,7.83377 -9.21813,11.62387 -5.09385,5.50584 -10.25477,10.97535 -15.90814,15.91625 -3.04492,2.54175 -6.15488,5.08777 -9.81283,6.70618 0,0 -1.36247,-3.30697 -1.36247,-3.30697 z"
       inkscape:connector-curvature="0" />
    <path
       style="fill:#000000;stroke-width:1.43800008;stroke-linejoin:miter;stroke-miterlimit:4;stroke-dasharray:none"
       id="path724-9"
       d="m 455.17028,58.782405 c -3.31001,-1.35651 -6.95352,-1.56969 -10.47408,-1.8984 -9.72748,-0.66683 -19.47839,-0.93416 -29.22074,-1.30035 -11.39695,-0.43558 -22.78857,-0.99883 -34.18635,-1.41171 -7.90264,-0.33284 -15.81099,-0.40799 -23.71415,-0.0881 -4.53496,0.1654 -9.04506,0.79942 -13.58473,0.7997 -2.30788,-0.0664 -4.53529,-0.79994 -6.82093,-0.96581 0,0 -0.004,-0.0935 -0.004,-0.0935 v 0 c 2.24422,-0.37129 4.33222,-1.41224 6.55493,-1.90962 4.52569,-0.83244 9.13274,-1.10255 13.72171,-1.35104 7.99571,-0.28225 15.99363,-0.12284 23.98487,0.25402 11.39089,0.52076 22.77817,1.12027 34.17163,1.58308 9.80044,0.38743 19.60888,0.64579 29.39764,1.27511 4.02053,0.3756 8.5399,0.47712 11.97004,2.86676 0,0 -1.79559,2.2398 -1.79559,2.2398 z"
       inkscape:connector-curvature="0" />
    <path
       style="fill:#000000;stroke-width:1.43800008;stroke-linejoin:miter;stroke-miterlimit:4;stroke-dasharray:none"
       id="path726-2"
       d="m 461.22068,56.548545 c -2.57236,2.00313 -4.71639,4.48354 -6.85802,6.92337 -4.70835,5.59242 -9.59025,11.02181 -14.76245,16.1884 -2.90009,2.70738 -5.80258,5.48819 -9.11129,7.70707 -2.73108,1.83151 -5.74937,3.22438 -8.73228,4.58027 -2.98476,1.11345 -1.5626,0.59564 -4.26417,1.55979 0,0 -0.0399,-0.0846 -0.0399,-0.0846 v 0 c 2.42546,-1.45415 1.18034,-0.63938 3.71353,-2.47738 2.14243,-1.59962 2.67,-1.94946 4.78156,-3.7183 0.89184,-0.74708 1.74598,-1.53835 2.63631,-2.28722 2.94833,-2.47988 5.99892,-4.84622 8.7291,-7.57659 5.1396,-5.10098 9.9989,-10.45976 14.64574,-16.01439 2.35493,-2.65083 4.6704,-5.49559 7.73502,-7.35934 0,0 1.52687,2.55891 1.52687,2.55891 z"
       inkscape:connector-curvature="0" />
    <path
       style="fill:#cccccc;stroke-width:1.43800008;stroke-linejoin:miter;stroke-miterlimit:4;stroke-dasharray:none"
       id="path728-0"
       d="m 340.9029,186.65804 c -0.36338,-3.53984 -0.62481,-7.08962 -0.89296,-10.63772 -0.58574,-7.58152 -0.8794,-15.18117 -1.18779,-22.77777 -0.41452,-10.85935 -0.89461,-21.71558 -1.46339,-32.56795 -0.55486,-10.08318 -1.03571,-20.16948 -1.37576,-30.262185 -0.1898,-6.25819 -0.26111,-12.51974 -0.5081,-18.77608 -0.12014,-3.6155 -0.57554,-7.20535 -0.85471,-10.80869 -0.0254,-1.13115 0.16391,-2.24844 0.39507,-3.35093 0.0941,-0.44892 0.322,-0.87504 0.34005,-1.33336 0.005,-0.11871 -0.0836,-0.22242 -0.12531,-0.33363 0,0 0.0809,-0.047 0.0809,-0.047 v 0 c 0.39209,0.49206 0.15433,0.22285 0.74046,0.7828 0.92262,1.10354 1.39645,2.55192 1.78782,3.9053 0.57246,3.66383 0.8351,7.36641 0.97003,11.07087 0.1838,6.26503 0.15456,12.53298 0.31664,18.79857 0.25082,10.071665 0.70679,20.135735 1.29209,30.193485 0.57259,10.86044 1.14379,21.72116 1.61763,32.58646 0.36255,7.55604 0.73445,15.11322 1.35791,22.65323 0.28974,3.52577 0.6143,7.04858 0.90368,10.57426 0,0 -3.39426,0.3303 -3.39426,0.3303 z"
       inkscape:connector-curvature="0" />
    <path
       style="fill:#000000;fill-opacity:1;stroke:none;stroke-width:0.2;stroke-linejoin:miter;stroke-miterlimit:4;stroke-dasharray:none;stroke-opacity:1"
       id="path3147"
       d="m 312.78547,251.40482 c 0.3298,3.28811 0.55459,6.58666 0.74654,9.88544 0.4875,3.99485 -0.25389,7.89289 -1.76948,11.58697 -0.23524,0.30649 -0.47048,0.61298 -0.70575,0.91948 0,0 -0.13104,-0.0181 -0.13104,-0.0181 v 0 c -0.14854,-0.32302 -0.29705,-0.64605 -0.44559,-0.96907 -1.16358,-3.64 -2.40062,-7.27729 -2.37321,-11.14948 -0.26191,-3.3476 -0.55602,-6.69994 -0.61036,-10.05831 0,0 5.28889,-0.19697 5.28889,-0.19697 z"
       inkscape:connector-curvature="0" />
    <path
       style="fill:#000000;fill-opacity:1;stroke:none;stroke-width:0.2;stroke-linejoin:miter;stroke-miterlimit:4;stroke-dasharray:none;stroke-opacity:1"
       id="path3149"
       d="m 299.12926,252.22796 c 2.27854,-3.31194 5.69981,-5.50274 9.10582,-7.50121 3.82903,-1.95244 8.13327,-3.72877 12.53678,-3.21201 0.80579,0.0946 1.58485,0.34819 2.37725,0.52228 0.71068,0.3456 1.47437,0.59863 2.13202,1.0368 2.74447,1.82855 4.04659,5.02304 3.39309,8.24947 -0.15973,0.78858 -0.52575,1.52088 -0.78861,2.28132 -2.22544,4.13877 -6.13416,6.45215 -10.31227,8.24113 -1.19901,0.39447 -2.39345,0.90217 -3.6567,1.06747 -0.29634,0.0388 -0.78859,0.32814 -0.89527,0.0489 -2.07494,-5.43112 -2.57305,-4.72274 0.18674,-5.867 3.43673,-0.93634 6.88451,-0.29754 10.22128,0.69404 3.52777,1.39141 6.91229,3.49878 9.08185,6.69638 0.43026,0.63414 0.74583,1.33895 1.11873,2.00842 1.61275,4.30337 0.67334,8.15388 -3.23688,10.81725 -0.74626,0.50829 -1.59549,0.8459 -2.39324,1.26883 -3.5933,1.31115 -7.48659,1.9892 -11.28895,1.21836 -2.07875,-0.4214 -3.26797,-1.04884 -5.18149,-1.87577 -2.00073,-0.88725 -3.50637,-2.36811 -5.02203,-3.88569 0,0 0.0789,-0.10619 0.0789,-0.10619 v 0 c 0.49573,0.25916 0.95769,0.59702 1.48717,0.77748 1.10178,0.37553 2.91439,0.47021 4.03188,0.57406 4.46831,-0.0379 9.08902,-0.31066 13.3639,-1.67095 2.01117,-0.95216 3.98584,-2.00017 3.2825,-4.53877 -1.4138,-2.93929 -3.85824,-4.96865 -6.90227,-6.13358 -2.19906,-0.70352 -4.48519,-1.21573 -6.78198,-0.64132 -2.37215,-6.29423 -3.39302,-4.19432 0.48881,-5.41492 2.87886,-1.09196 5.70984,-2.52545 7.44363,-5.18288 1.01442,-2.04811 1.04691,-3.47163 -1.10786,-4.73177 -0.44098,-0.14033 -0.86752,-0.33893 -1.32294,-0.42098 -3.43951,-0.61965 -6.83864,0.95129 -9.83647,2.41419 -2.58091,1.53142 -5.31802,3.18751 -7.01448,5.74031 0,0 -4.58893,-2.4737 -4.58893,-2.4737 z"
       inkscape:connector-curvature="0" />
    <path
       style="fill:#000000;fill-opacity:1;stroke:none;stroke-width:0.2;stroke-linejoin:miter;stroke-miterlimit:4;stroke-dasharray:none;stroke-opacity:1"
       id="path3151"
       d="m 352.99306,252.14009 c -1.72035,-1.1421 -3.55042,-1.40194 -5.56231,-1.18653 -3.17693,0.75067 -5.00547,2.70378 -6.35926,5.56868 -1.1362,3.41823 -0.23286,5.85987 1.96641,8.53045 1.37588,1.47384 3.17576,2.3036 4.89426,3.27747 0.68247,0.38676 1.32657,0.84077 2.0206,1.20644 1.76522,0.93007 2.75415,1.23308 4.62224,1.93386 3.15648,0.90891 1.57816,0.53618 4.73247,1.1286 0,0 0,0.13229 0,0.13229 v 0 c -3.28115,0.62032 -1.60171,0.35898 -5.04021,0.77163 -6.64937,0.26513 -10.62992,-0.0991 -15.61489,-4.97686 -0.55207,-0.71378 -1.17641,-1.3771 -1.65618,-2.14134 -2.40445,-3.83001 -2.47965,-8.32439 -0.82434,-12.44017 0.41183,-0.73468 0.76145,-1.50787 1.23545,-2.20404 2.28036,-3.34906 5.78374,-5.45694 9.76958,-6.0127 3.67326,-0.0556 6.33574,0.47509 8.9427,3.22477 0,0 -3.12703,3.18745 -3.12703,3.18745 z"
       inkscape:connector-curvature="0" />
    <path
       style="fill:#000000;fill-opacity:1;stroke:none;stroke-width:0.2;stroke-linejoin:miter;stroke-miterlimit:4;stroke-dasharray:none;stroke-opacity:1"
       id="path3153"
       d="m 384.3501,252.6654 c -2.05203,-0.73306 -4.17603,-0.50309 -6.26259,-0.0814 -2.49666,0.74448 -5.48097,1.85038 -6.7986,4.31282 -0.16798,0.31389 -0.22381,0.67593 -0.3357,1.0139 0.16288,3.4375 3.67591,5.54376 6.22292,7.26714 3.46281,2.27637 7.42143,3.37299 11.32329,4.58738 5.26193,1.6377 0.35632,0.34917 5.50691,1.61588 2.33923,0.60213 4.65225,0.62042 7.03133,0.42908 0,0 0.0337,0.12793 0.0337,0.12793 v 0 c -2.33646,1.06153 -4.67718,2.05348 -7.26044,2.3535 -2.11489,0.18565 -4.36964,0.48508 -6.49763,0.2423 -4.67643,-0.53352 -9.08738,-2.67909 -13.17128,-4.8659 -3.99515,-2.69668 -8.7317,-6.09715 -8.71183,-11.51133 0.003,-0.86358 0.29734,-1.70138 0.44601,-2.55207 0.37611,-0.73638 0.66593,-1.52362 1.12829,-2.20914 2.3254,-3.44774 6.39688,-5.10818 10.27271,-6.0395 3.51713,-0.42961 7.32629,-0.59822 10.01829,2.11986 0,0 -2.94539,3.18956 -2.94539,3.18956 z"
       inkscape:connector-curvature="0" />
    <path
       style="fill:#cccccc;fill-opacity:1;stroke:none;stroke-width:0.2;stroke-linejoin:miter;stroke-miterlimit:4;stroke-dasharray:none;stroke-opacity:1"
       id="path3174"
       d="m 378.74741,135.67854 c -1.529,-0.28569 -2.89189,0.0755 -4.03778,1.10571 -1.16771,1.33769 -1.23007,2.93463 -0.82068,4.57989 0.75054,2.09706 2.49581,3.00816 4.5303,3.53446 2.65679,0.38441 4.97419,-0.54281 6.96632,-2.24013 1.45449,-1.50259 2.10002,-3.28641 1.40316,-5.28271 -1.06976,-1.93782 -3.16039,-2.61054 -5.16853,-3.15907 -1.13011,-0.33226 -2.32632,-0.2072 -3.46678,-0.46774 -0.7847,-0.17925 -1.48127,-0.46519 -2.28592,-0.57857 -0.78642,0.0539 -0.48969,-0.11464 -0.94215,0.40054 0,0 -0.12817,-0.0328 -0.12817,-0.0328 v 0 c -0.0736,-1.01501 -0.0774,-0.45366 0.0768,-1.68234 1.97845,-3.38671 4.59314,-3.36211 8.14157,-2.68838 3.88848,1.08303 7.35883,2.92385 8.88201,6.90288 0.13891,0.63369 0.35015,1.25575 0.41672,1.90107 0.35047,3.39754 -1.28815,6.46033 -3.65172,8.76566 -3.73306,2.89499 -6.9133,3.99019 -11.66903,3.22774 -0.66214,-0.19472 -1.34567,-0.32771 -1.98644,-0.58417 -3.1623,-1.26571 -5.35532,-3.84011 -6.30414,-7.07253 -0.61847,-4.10374 0,-6.81465 3.21177,-9.62413 2.74323,-1.64516 4.99116,-2.15584 8.11152,-1.22488 0,0 -1.27884,4.21946 -1.27884,4.21946 z"
       inkscape:connector-curvature="0" />
    <path
       style="fill:#cccccc;fill-opacity:1;stroke:none;stroke-width:0.2;stroke-linejoin:miter;stroke-miterlimit:4;stroke-dasharray:none;stroke-opacity:1"
       id="path3176"
       d="m 377.84505,134.66563 c -0.0676,-1.15642 0.0494,-0.58936 -0.36147,-1.69892 0,0 0.1093,-0.0745 0.1093,-0.0745 v 0 c 0.88455,0.78752 0.39605,0.46998 1.46264,0.95704 0,0 -1.21047,0.81641 -1.21047,0.81641 z"
       inkscape:connector-curvature="0" />
    <path
       style="fill:#cccccc;fill-opacity:1;stroke:none;stroke-width:0.2;stroke-linejoin:miter;stroke-miterlimit:4;stroke-dasharray:none;stroke-opacity:1"
       id="path3178"
       d="m 371.39419,124.94443 c 0.0992,-1.1019 0.0434,-1.64713 -0.50911,-2.5967 0,0 0.11435,-0.0665 0.11435,-0.0665 v 0 c 0.50501,0.86807 1.07448,1.35852 1.98192,1.81939 0,0 -1.58716,0.84384 -1.58716,0.84384 z"
       inkscape:connector-curvature="0" />
    <path
       style="fill:#cccccc;fill-opacity:1;stroke:none;stroke-width:0.2;stroke-linejoin:miter;stroke-miterlimit:4;stroke-dasharray:none;stroke-opacity:1"
       id="path3180"
       d="m 357.33751,102.83811 c -0.0312,-0.24161 -0.0624,-0.48321 -0.0937,-0.72481 0,0 0.11846,-0.0589 0.11846,-0.0589 v 0 c 0.17388,0.17079 0.34776,0.34158 0.52165,0.51238 0,0 -0.54645,0.27134 -0.54645,0.27134 z"
       inkscape:connector-curvature="0" />
    <path
       style="fill:#cccccc;fill-opacity:1;stroke:none;stroke-width:0.2;stroke-linejoin:miter;stroke-miterlimit:4;stroke-dasharray:none;stroke-opacity:1"
       id="path3182"
       d="m 340.82937,59.361562 c 0.74337,1.68199 1.57485,3.321724 2.17217,5.063281 0.34195,1.435676 -0.0689,2.922521 0.13565,4.350244 0,0 -0.12266,0.04952 -0.12266,0.04952 v 0 c -0.83277,-1.142076 -2.2692,-1.704472 -3.2077,-2.770322 -1.10167,-1.586124 -1.9286,-3.327641 -2.68531,-5.101331 0,0 3.70785,-1.591394 3.70785,-1.591394 z"
       inkscape:connector-curvature="0" />
    <path
       style="fill:#cccccc;fill-opacity:1;stroke:none;stroke-width:0.2;stroke-linejoin:miter;stroke-miterlimit:4;stroke-dasharray:none;stroke-opacity:1"
       id="path3184"
       d="m 345.29873,71.155102 c 0.95044,1.059211 1.90969,2.111399 2.81528,3.209488 0.8927,1.057061 1.7603,2.134502 2.546,3.273711 0.75282,1.14431 1.44812,2.325465 2.11582,3.521093 0.55036,0.963335 -0.0423,2.024314 -0.0138,3.050109 0,0 -0.0996,0.08702 -0.0996,0.08702 v 0 c -1.10535,-0.225393 -2.38615,-0.317661 -3.00429,-1.407575 -0.61794,-1.121143 -1.15417,-2.286109 -1.81359,-3.384209 -0.63238,-1.001921 -1.31574,-1.979475 -2.17553,-2.802416 -0.97084,-0.859147 -1.98644,-1.661988 -3.08404,-2.355834 0,0 2.7138,-3.191391 2.7138,-3.191391 z"
       inkscape:connector-curvature="0" />
    <path
       style="fill:#cccccc;fill-opacity:1;stroke:none;stroke-width:0.2;stroke-linejoin:miter;stroke-miterlimit:4;stroke-dasharray:none;stroke-opacity:1"
       id="path3186"
       d="m 355.97623,86.92376 c 0.54602,1.395847 1.07067,2.802332 1.68839,4.168476 0.6676,1.247257 1.65439,2.271856 2.67756,3.231756 0.72932,0.642109 1.49092,1.245653 2.21839,1.890411 0.46297,0.306826 0.32071,0.767418 0.28896,1.26706 0.13263,0.58501 -0.47623,1.126093 -0.20847,1.631754 0,0 -0.117,0.06172 -0.117,0.06172 v 0 c -0.26037,-0.495718 -0.8917,0.03831 -1.22555,0.251042 -0.81407,0.442069 -1.39692,0.03119 -1.89349,-0.686107 -0.60695,-1.007763 -1.02526,-2.076042 -1.21086,-3.244778 -0.27036,-1.37644 -0.48581,-2.797538 -1.16298,-4.045003 -0.81238,-1.168244 -1.85081,-2.12539 -3.09766,-2.824398 0,0 2.04271,-1.70193 2.04271,-1.70193 z"
       inkscape:connector-curvature="0" />
    <path
       style="fill:#cccccc;fill-opacity:1;stroke:none;stroke-width:0.2;stroke-linejoin:miter;stroke-miterlimit:4;stroke-dasharray:none;stroke-opacity:1"
       id="path3188"
       d="m 365.50996,102.87323 c -0.14803,1.12474 -0.32464,2.23639 -0.15621,3.3611 0,0 -0.12393,0.0463 -0.12393,0.0463 v 0 c -0.60716,-0.94633 -1.51061,-1.55265 -2.46224,-2.14214 0,0 2.74238,-1.26525 2.74238,-1.26525 z"
       inkscape:connector-curvature="0" />
    <path
       style="fill:#cccccc;fill-opacity:1;stroke:none;stroke-width:0.2;stroke-linejoin:miter;stroke-miterlimit:4;stroke-dasharray:none;stroke-opacity:1"
       id="path3190"
       d="m 368.20689,115.7427 c 0.0584,0.81277 0.12152,1.43506 0.59147,2.09974 0,0 -0.10802,0.0764 -0.10802,0.0764 v 0 c -0.47861,-0.67716 -1.00423,-0.85351 -1.81441,-1.04223 0,0 1.33096,-1.13387 1.33096,-1.13387 z"
       inkscape:connector-curvature="0" />
    <path
       style="fill:#cccccc;fill-opacity:1;stroke:none;stroke-width:0.2;stroke-linejoin:miter;stroke-miterlimit:4;stroke-dasharray:none;stroke-opacity:1"
       id="path3192"
       d="m 373.77272,124.93408 c 1.57286,1.18263 1.85766,2.22179 2.27708,4.06513 0.11438,1.01969 0.0381,0.53336 0.21894,1.46051 0,0 -0.10504,0.0804 -0.10504,0.0804 v 0 c -0.8196,-0.38455 -0.382,-0.22154 -1.3186,-0.47303 -1.78549,-0.50567 -2.73338,-0.61576 -3.98531,-2.15746 0,0 2.91293,-2.97558 2.91293,-2.97558 z"
       inkscape:connector-curvature="0" />
    <path
       style="fill:#cccccc;fill-opacity:1;stroke:none;stroke-width:0.2;stroke-linejoin:miter;stroke-miterlimit:4;stroke-dasharray:none;stroke-opacity:1"
       id="path3194"
       d="m 377.75851,139.63688 c -0.59368,-1.12227 -0.18177,-0.64629 -1.26233,-1.40453 0,0 0.0701,-0.11221 0.0701,-0.11221 v 0 c 1.16898,0.64617 0.55107,0.45892 1.84771,0.58123 0,0 -0.65547,0.93551 -0.65547,0.93551 z"
       inkscape:connector-curvature="0" />
    <path
       style="fill:#cccccc;fill-opacity:1;stroke:none;stroke-width:0.2;stroke-linejoin:miter;stroke-miterlimit:4;stroke-dasharray:none;stroke-opacity:1"
       id="path3196"
       d="m 348.18079,127.02254 c -0.40926,-1.27966 -1.13229,-2.30517 -2.08619,-3.22546 0,0 0.0759,-0.10836 0.0759,-0.10836 v 0 c 1.21669,0.59803 2.48341,1.02602 3.8094,1.32093 0,0 -1.79909,2.01289 -1.79909,2.01289 z"
       inkscape:connector-curvature="0" />
    <path
       style="fill:#cccccc;fill-opacity:1;stroke:none;stroke-width:0.2;stroke-linejoin:miter;stroke-miterlimit:4;stroke-dasharray:none;stroke-opacity:1"
       id="path3198"
       d="m 336.30589,120.87107 c -1.29992,-0.96329 -1.9772,-2.47489 -3.02284,-3.67454 -0.2236,-0.0951 -0.44722,-0.19024 -0.67082,-0.28535 0,0 0.0518,-0.12174 0.0518,-0.12174 v 0 c 0.22476,0.0956 0.44952,0.19126 0.67429,0.28688 1.59279,0.0236 3.22633,-0.27459 4.7789,0.19437 0,0 -1.81131,3.60038 -1.81131,3.60038 z"
       inkscape:connector-curvature="0" />
    <path
       style="fill:#cccccc;fill-opacity:1;stroke:none;stroke-width:0.2;stroke-linejoin:miter;stroke-miterlimit:4;stroke-dasharray:none;stroke-opacity:1"
       id="path3200"
       d="m 322.86903,114.82557 c -0.3964,-0.88565 -0.9157,-1.67367 -1.50056,-2.44151 0,0 0.0851,-0.10128 0.0851,-0.10128 v 0 c 0.83907,0.43103 1.65788,0.7791 2.6163,0.84412 0,0 -1.20083,1.69867 -1.20083,1.69867 z"
       inkscape:connector-curvature="0" />
    <path
       style="fill:#cccccc;fill-opacity:1;stroke:none;stroke-width:0.2;stroke-linejoin:miter;stroke-miterlimit:4;stroke-dasharray:none;stroke-opacity:1"
       id="path3202"
       d="m 310.27007,105.58392 c -0.48567,-0.9264 -1.0967,-1.50003 -1.96522,-2.04626 0,0 0.0704,-0.11199 0.0704,-0.11199 v 0 c 0.86882,0.54643 1.6623,0.85054 2.70386,0.91649 0,0 -0.80907,1.24176 -0.80907,1.24176 z"
       inkscape:connector-curvature="0" />
    <path
       style="fill:#cccccc;fill-opacity:1;stroke:none;stroke-width:0.2;stroke-linejoin:miter;stroke-miterlimit:4;stroke-dasharray:none;stroke-opacity:1"
       id="path3204"
       d="m 296.19228,99.913688 c -0.61579,-1.276715 -1.11543,-2.605686 -1.9095,-3.785706 0,0 0.0749,-0.10904 0.0749,-0.10904 v 0 c 1.42409,0.339518 2.88985,0.492141 4.29776,0.906833 0,0 -2.46317,2.987913 -2.46317,2.987913 z"
       inkscape:connector-curvature="0" />
    <path
       style="fill:#cccccc;fill-opacity:1;stroke:none;stroke-width:0.2;stroke-linejoin:miter;stroke-miterlimit:4;stroke-dasharray:none;stroke-opacity:1"
       id="path3206"
       d="m 299.19416,99.64335 c 2.08849,0.44258 4.09538,1.1717 6.09719,1.89816 1.57126,0.57317 3.09521,1.26395 4.64995,1.87802 1.02412,0.36077 1.97882,0.85531 2.88684,1.44632 0.84154,0.64048 1.70543,1.24623 2.61864,1.77999 0.80108,0.44358 1.64576,0.79706 2.49901,1.12564 0.91813,0.35454 1.79795,0.79462 2.68005,1.22893 1.1504,0.57751 2.25779,1.23558 3.38457,1.85749 1.22367,0.65984 2.52209,1.14987 3.84974,1.55205 1.35517,0.39772 2.73624,0.69794 4.08493,1.11765 1.14607,0.34164 2.14085,0.99188 3.12854,1.6427 0.95761,0.70812 2.06282,1.1477 3.17529,1.54649 1.45013,0.5348 2.90992,1.04127 4.34719,1.61081 1.48521,0.48526 2.33889,1.52056 3.02887,2.86079 0.27585,0.62898 0.0884,0.3899 0.49575,0.76486 0,0 -0.0462,0.12399 -0.0462,0.12399 v 0 c -0.55335,0.0195 -0.25299,-0.0392 -0.88056,0.25977 -1.51299,0.61091 -2.90785,0.75889 -4.40645,-0.0396 -1.52408,-0.77719 -2.93423,-1.72067 -4.18184,-2.8992 -0.7407,-0.6988 -1.47291,-1.51682 -2.53286,-1.65504 -0.98081,-0.0773 -1.95932,0.10244 -2.9418,0.0159 -1.70227,-0.15121 -3.37129,-0.54065 -4.92199,-1.27701 -1.4561,-0.71626 -2.84879,-1.5419 -4.10146,-2.58138 -0.81701,-0.58138 -1.631,-1.14658 -2.65581,-1.26479 -0.94557,-0.12611 -1.90389,-0.10163 -2.84356,-0.28196 -1.40432,-0.33301 -2.73184,-0.87791 -3.8817,-1.76995 -0.87331,-0.67784 -1.68666,-1.41611 -2.46229,-2.20395 -0.4989,-0.47026 -1.1526,-0.64743 -1.79771,-0.84682 -1.58107,-0.5125 -3.16616,-1.01265 -4.73332,-1.56719 -1.85197,-0.63136 -3.72676,-1.18999 -5.61125,-1.71604 0,0 1.07219,-4.60658 1.07219,-4.60658 z"
       inkscape:connector-curvature="0" />
    <path
       style="fill:#cccccc;fill-opacity:1;stroke:none;stroke-width:0.2;stroke-linejoin:miter;stroke-miterlimit:4;stroke-dasharray:none;stroke-opacity:1"
       id="path3208"
       d="m 351.54637,124.21088 c 2.12288,0.7264 3.59082,1.90686 5.08928,3.52141 0.52449,0.58417 0.81616,1.17421 1.55081,1.46852 0,0 -0.0399,0.12615 -0.0399,0.12615 v 0 c -0.78555,-0.18503 -1.42214,0.11685 -2.22872,0.15005 -2.42191,0.0592 -4.1656,-0.27308 -6.24964,-1.598 0,0 1.87812,-3.66813 1.87812,-3.66813 z"
       inkscape:connector-curvature="0" />
    <path
       style="fill:#cccccc;fill-opacity:1;stroke:none;stroke-width:0.2;stroke-linejoin:miter;stroke-miterlimit:4;stroke-dasharray:none;stroke-opacity:1"
       id="path3210"
       d="m 365.14357,132.49534 c 1.52254,0.89929 2.31809,2.74715 3.94957,3.46236 0,0 -0.0355,0.12743 -0.0355,0.12743 v 0 c -1.8474,-0.24911 -3.83135,0.47577 -5.62266,-0.32542 0,0 1.7086,-3.26437 1.7086,-3.26437 z"
       inkscape:connector-curvature="0" />
    <path
       style="fill:#cccccc;fill-opacity:1;stroke:none;stroke-width:0.2;stroke-linejoin:miter;stroke-miterlimit:4;stroke-dasharray:none;stroke-opacity:1"
       id="path3212"
       d="m 374.49765,136.97064 c 1.59496,0.89955 3.26448,1.6484 4.91728,2.43154 1.15655,1.06722 2.22364,2.22686 3.37259,3.30006 0,0 -0.0309,0.12863 -0.0309,0.12863 v 0 c -1.64841,0.44767 -3.30049,0.8911 -5.03058,0.81372 -2.08611,-0.70987 -4.04823,-1.73974 -5.70717,-3.20973 0,0 2.47878,-3.46422 2.47878,-3.46422 z"
       inkscape:connector-curvature="0" />
    <path
       style="fill:#cccccc;fill-opacity:1;stroke:none;stroke-width:0.2;stroke-linejoin:miter;stroke-miterlimit:4;stroke-dasharray:none;stroke-opacity:1"
       id="path3214"
       d="m 378.97876,149.1193 c -1.35622,1.04213 -2.71922,2.07635 -4.06413,3.13346 -1.0669,0.93384 -1.93402,2.08128 -2.6103,3.32315 -0.48501,1.10439 -0.76689,2.28162 -1.1081,3.43476 -0.33494,1.30151 -0.77317,2.55732 -1.40674,3.74283 -0.71839,1.15011 -1.71487,2.05116 -2.80016,2.84278 -1.10228,0.65467 -2.06611,1.45184 -2.91859,2.40393 -0.70628,0.90901 -1.01868,1.99892 -1.26609,3.10198 -0.13644,0.79645 -0.20627,1.60526 -0.55012,2.3452 -0.4754,1.15817 -1.43383,1.67326 -2.50857,2.15231 -1.07674,0.40485 -2.05658,1.00493 -2.96955,1.69708 -0.93379,0.75571 -1.54043,1.77826 -2.08674,2.82764 -0.4776,1.01666 -0.8794,2.05984 -1.46267,3.02266 -0.7193,1.10981 -1.76615,1.93538 -2.76683,2.7763 -1.07526,0.8447 -2.10283,1.74219 -2.9981,2.77725 -0.60174,0.75616 -1.00102,1.62932 -1.26841,2.55112 -0.26286,1.14561 -0.87087,2.03016 -1.75519,2.78696 -1.14681,0.81519 -2.51799,1.19595 -3.80717,1.7203 -1.13705,0.43478 -1.9916,1.18907 -2.68028,2.17015 -0.34179,0.5816 -0.449,1.26155 -0.5896,1.91344 -0.47527,1.20275 -1.54297,1.59653 -2.70449,1.90846 -0.84185,0.12965 -1.63806,0.32738 -2.43459,0.62292 0,0 -0.0851,-0.10131 -0.0851,-0.10131 v 0 c 0.40621,-0.70588 0.7099,-1.38557 0.77017,-2.21453 0.0451,-0.74487 -0.14922,-1.52428 0.25607,-2.19445 0.65016,-0.96467 1.36035,-1.85949 2.34733,-2.5083 1.17189,-0.8304 2.43639,-1.51344 3.6191,-2.32809 0.8082,-0.57738 1.66291,-1.17318 2.20186,-2.02692 0.21881,-0.52069 0.48477,-1.02128 0.71361,-1.5376 0.6694,-1.28602 1.51059,-2.46152 2.55387,-3.47472 1.02221,-1.00242 2.09962,-1.9483 3.08525,-2.98745 0.6115,-0.6659 1.20184,-1.35463 1.66791,-2.13264 0.56205,-1.0084 1.03195,-2.06784 1.66401,-3.03701 1.02193,-1.45945 2.23814,-2.75146 3.82418,-3.60873 1.07122,-0.57983 2.21457,-1.01432 3.26682,-1.62208 0.48416,-0.35894 0.25085,-0.31985 -0.0772,-0.1599 0.0164,-1.02631 0.42939,-1.99858 0.84696,-2.91948 0.79494,-1.49953 1.81853,-2.82206 3.24053,-3.78294 0.96849,-0.67102 2.10043,-1.19272 2.79832,-2.17531 0.43473,-0.78657 0.63801,-1.63711 0.79121,-2.5192 0.36933,-1.27799 0.81896,-2.53147 1.39628,-3.73172 0.7873,-1.53668 1.76845,-2.94822 3.32571,-3.78938 1.26746,-0.63056 2.71388,-0.99866 3.75494,-1.99344 0.94356,-1.25507 1.4913,-2.7266 1.69984,-4.28461 0,0 3.09475,1.87513 3.09475,1.87513 z"
       inkscape:connector-curvature="0" />
    <path
       style="fill:#cccccc;fill-opacity:1;stroke:none;stroke-width:0.2;stroke-linejoin:miter;stroke-miterlimit:4;stroke-dasharray:none;stroke-opacity:1"
       id="path3216"
       d="m 326.12901,210.06621 c -1.35615,1.23714 -2.95405,2.14452 -4.57308,2.98611 -1.47432,0.71191 -2.97072,1.3476 -4.2971,2.31854 -1.21386,0.90365 -2.34736,1.89971 -3.44093,2.94353 -1.05315,0.96578 -2.03182,2.00939 -3.08163,2.97789 -0.97351,0.68365 -2.51513,0.63109 -3.51605,-0.004 0,0 -0.0214,-0.13057 -0.0214,-0.13057 v 0 c 0.0291,-1.0396 -0.24003,-2.2307 0.50334,-3.07336 1.16708,-1.13318 2.35284,-2.27159 3.73073,-3.14774 1.47013,-0.80275 3.02938,-1.33861 4.66484,-1.70402 1.45262,-0.53635 2.47825,-1.51432 3.41805,-2.73522 1.15171,-1.39712 2.31079,-2.80382 3.76439,-3.90351 0,0 2.84877,3.4722 2.84877,3.4722 z"
       inkscape:connector-curvature="0" />
    <path
       style="fill:#cccccc;fill-opacity:1;stroke:none;stroke-width:0.2;stroke-linejoin:miter;stroke-miterlimit:4;stroke-dasharray:none;stroke-opacity:1"
       id="path3218"
       d="m 372.16775,149.53718 c -1.01039,1.94741 -2.64258,3.41418 -4.30418,4.79621 -1.72369,1.25559 -3.36119,2.51166 -4.56187,4.2923 -1.17129,1.85244 -1.82891,3.9575 -2.56331,6.00587 -0.67434,2.29984 -1.70905,4.34353 -3.42085,6.02509 -1.57864,1.44161 -3.59064,2.2209 -5.35197,3.38617 -1.56768,1.06603 -2.63501,2.65803 -3.47948,4.32405 -0.6055,1.36173 -1.07794,2.77644 -1.61954,4.16352 -0.69686,1.75796 -2.42848,2.66782 -4.08072,3.38645 -0.19116,0.13094 -0.3823,0.26188 -0.57346,0.39282 0,0 -0.0985,-0.0883 -0.0985,-0.0883 v 0 c 0.0998,-0.19372 0.19955,-0.38744 0.29932,-0.58116 0.0811,-1.64886 -0.37481,-3.34824 0.35274,-4.8879 0.84699,-1.79807 1.89437,-3.48593 3.63189,-4.55089 1.77043,-0.94695 3.71366,-1.36924 5.49436,-2.26866 1.65788,-1.11525 2.82959,-2.66516 3.47798,-4.56607 0.74096,-2.0959 1.6701,-4.11831 2.88361,-5.98755 1.27661,-1.94227 2.75183,-3.72028 4.58081,-5.17403 1.60158,-1.34746 2.96561,-2.87895 3.89618,-4.77576 0.85629,-1.75627 1.48648,-3.59638 2.24165,-5.3962 0,0 3.19537,1.50402 3.19537,1.50402 z"
       inkscape:connector-curvature="0" />
    <path
       style="fill:#cccccc;fill-opacity:1;stroke:none;stroke-width:0.2;stroke-linejoin:miter;stroke-miterlimit:4;stroke-dasharray:none;stroke-opacity:1"
       id="path3220"
       d="m 389.80149,154.2699 c 0.49604,1.45183 -0.47519,2.91472 -0.26635,4.37261 0,0 -0.12031,0.055 -0.12031,0.055 v 0 c -0.96078,-1.12526 -2.57426,-1.70543 -3.16032,-3.14524 0,0 3.54698,-1.28239 3.54698,-1.28239 z"
       inkscape:connector-curvature="0" />
    <path
       style="fill:#cccccc;fill-opacity:1;stroke:none;stroke-width:0.2;stroke-linejoin:miter;stroke-miterlimit:4;stroke-dasharray:none;stroke-opacity:1"
       id="path3222"
       d="m 394.10626,167.31653 c 0.48578,1.59211 0.2703,3.29976 0.38786,4.9469 0,0 -0.11282,0.0691 -0.11282,0.0691 v 0 c -1.49215,-0.91454 -3.16431,-1.76908 -4.05376,-3.34582 0,0 3.77872,-1.67019 3.77872,-1.67019 z"
       inkscape:connector-curvature="0" />
    <path
       style="fill:#cccccc;fill-opacity:1;stroke:none;stroke-width:0.2;stroke-linejoin:miter;stroke-miterlimit:4;stroke-dasharray:none;stroke-opacity:1"
       id="path3224"
       d="m 399.0431,179.86522 c 0.93813,1.34471 0.84039,3.10636 0.79327,4.6856 0.0277,0.19366 0.0554,0.38732 0.0831,0.58099 0,0 -0.11549,0.0645 -0.11549,0.0645 v 0 c -0.14846,-0.12181 -0.29689,-0.24361 -0.44535,-0.36542 -1.47785,-0.75424 -3.14084,-1.5277 -3.77698,-3.16086 0,0 3.46147,-1.8048 3.46147,-1.8048 z"
       inkscape:connector-curvature="0" />
    <path
       style="fill:#cccccc;fill-opacity:1;stroke:none;stroke-width:0.2;stroke-linejoin:miter;stroke-miterlimit:4;stroke-dasharray:none;stroke-opacity:1"
       id="path3226"
       d="m 404.51838,192.29341 c 1.138,1.16534 1.34523,2.82264 1.67029,4.35313 0.054,0.20272 0.10801,0.40545 0.16201,0.60817 0,0 -0.0938,0.0933 -0.0938,0.0933 v 0 c -0.20537,-0.0581 -0.41071,-0.1162 -0.61605,-0.1743 -1.71286,-0.47698 -3.44419,-1.0909 -4.28919,-2.78428 0,0 3.16674,-2.096 3.16674,-2.096 z"
       inkscape:connector-curvature="0" />
    <path
       style="fill:#cccccc;fill-opacity:1;stroke:none;stroke-width:0.2;stroke-linejoin:miter;stroke-miterlimit:4;stroke-dasharray:none;stroke-opacity:1"
       id="path3228"
       d="m 411.15064,201.09553 c 1.24405,1.25502 1.32644,2.90654 1.34313,4.57429 -0.0774,0.82798 -0.14856,0.46925 0.10155,1.09244 0,0 -0.11457,0.0661 -0.11457,0.0661 v 0 c -0.40917,-0.51938 -0.13514,-0.29119 -0.89418,-0.58737 -1.4772,-0.68828 -2.9686,-1.37483 -3.62307,-2.98008 0,0 3.18714,-2.16543 3.18714,-2.16543 z"
       inkscape:connector-curvature="0" />
    <path
       style="fill:#cccccc;fill-opacity:1;stroke:none;stroke-width:0.2;stroke-linejoin:miter;stroke-miterlimit:4;stroke-dasharray:none;stroke-opacity:1"
       id="path3230"
       d="m 415.83956,210.19216 c 1.07413,1.80105 2.20263,3.56857 3.3001,5.35517 0.99517,1.6784 1.05047,3.69667 0.98806,5.6005 0,0 -0.11325,0.0684 -0.11325,0.0684 v 0 c -1.70484,-0.80777 -3.54859,-1.58382 -4.69185,-3.1498 -1.31996,-1.87345 -2.55056,-3.83032 -3.38019,-5.97675 0,0 3.89713,-1.8975 3.89713,-1.8975 z"
       inkscape:connector-curvature="0" />
    <path
       style="fill:#cccccc;fill-opacity:1;stroke:none;stroke-width:0.2;stroke-linejoin:miter;stroke-miterlimit:4;stroke-dasharray:none;stroke-opacity:1"
       id="path3232"
       d="m 388.32438,143.44042 c 0.73019,1.02115 1.5808,1.98441 2.78889,2.40746 1.32173,0.17461 2.57948,0.51413 3.80847,1.02826 1.53505,0.79858 3.05556,1.71327 4.18295,3.04279 0.6318,0.9714 0.44911,2.35773 1.18727,3.22045 0,0 -0.0798,0.10552 -0.0798,0.10552 v 0 c -1.04063,-0.48639 -2.32675,-0.11705 -3.42011,-0.54196 -1.37917,-0.78351 -2.42523,-1.9797 -3.5837,-3.04701 -0.86175,-0.80028 -1.74715,-1.56844 -2.82538,-2.06793 -1.29506,-0.62082 -2.65594,-1.09805 -3.97079,-1.6754 0,0 1.9122,-2.47218 1.9122,-2.47218 z"
       inkscape:connector-curvature="0" />
    <path
       style="fill:#cccccc;fill-opacity:1;stroke:none;stroke-width:0.2;stroke-linejoin:miter;stroke-miterlimit:4;stroke-dasharray:none;stroke-opacity:1"
       id="path3234"
       d="m 408.0692,155.64738 c 1.48368,0.88883 2.52788,2.21383 3.44032,3.64944 0.52589,0.81579 0.80725,2.00871 1.86489,2.2339 1.12501,-0.192 2.17689,-0.17221 3.28502,0.10893 1.87004,0.67508 3.41656,1.90422 4.56729,3.50595 0.60727,1.09505 1.08376,2.23326 1.92436,3.16905 0,0 -0.0733,0.1101 -0.0733,0.1101 v 0 c -1.21214,-0.43588 -2.48473,-0.66091 -3.68194,-1.14744 -1.46177,-0.72935 -2.65846,-1.79354 -3.94541,-2.78736 -0.8645,-0.61859 -1.77967,-1.14716 -2.6528,-1.75101 -0.92374,-0.64876 -1.93614,-1.10487 -2.98511,-1.51824 -1.51394,-0.68911 -2.99241,-1.4543 -4.09993,-2.73685 0,0 2.35665,-2.83647 2.35665,-2.83647 z"
       inkscape:connector-curvature="0" />
    <path
       style="fill:#cccccc;fill-opacity:1;stroke:none;stroke-width:0.2;stroke-linejoin:miter;stroke-miterlimit:4;stroke-dasharray:none;stroke-opacity:1"
       id="path3236"
       d="m 428.99644,167.51948 c 0.55671,1.13129 0.9779,2.2924 1.79994,3.25544 0,0 -0.0897,0.0973 -0.0897,0.0973 v 0 c -0.99608,-0.7183 -2.12479,-1.02602 -3.33476,-1.22654 0,0 1.62449,-2.12617 1.62449,-2.12617 z"
       inkscape:connector-curvature="0" />
    <path
       style="fill:#cccccc;fill-opacity:1;stroke:none;stroke-width:0.2;stroke-linejoin:miter;stroke-miterlimit:4;stroke-dasharray:none;stroke-opacity:1"
       id="path3238"
       d="m 438.52234,172.53166 c 1.54059,1.01835 2.40329,2.6558 3.26623,4.23126 0.17582,0.13468 0.35161,0.26936 0.52739,0.40403 0,0 -0.0749,0.10903 -0.0749,0.10903 v 0 c -0.1892,-0.11615 -0.37838,-0.23231 -0.56758,-0.34846 -1.71974,-0.26503 -3.50041,-0.48669 -5.02079,-1.39504 0,0 1.86965,-3.00082 1.86965,-3.00082 z"
       inkscape:connector-curvature="0" />
    <path
       style="fill:#cccccc;fill-opacity:1;stroke:none;stroke-width:0.2;stroke-linejoin:miter;stroke-miterlimit:4;stroke-dasharray:none;stroke-opacity:1"
       id="path3240"
       d="m 448.13333,177.20269 c 1.99991,1.05765 2.93418,3.09443 3.912,5.02878 0.17447,0.2818 0.34893,0.56361 0.5234,0.84541 0,0 -0.0917,0.0954 -0.0917,0.0954 v 0 c -0.2848,-0.15982 -0.56957,-0.31964 -0.85434,-0.47946 -1.86023,-0.71901 -3.87305,-1.15229 -5.44893,-2.42495 0,0 1.95955,-3.06514 1.95955,-3.06514 z"
       inkscape:connector-curvature="0" />
    <path
       style="fill:#cccccc;fill-opacity:1;stroke:none;stroke-width:0.2;stroke-linejoin:miter;stroke-miterlimit:4;stroke-dasharray:none;stroke-opacity:1"
       id="path3242"
       d="m 457.29876,183.85731 c 1.95932,1.33738 2.84359,3.66517 3.61307,5.82201 0.17794,0.30196 0.35587,0.60392 0.53383,0.90587 0,0 -0.10319,0.0828 -0.10319,0.0828 v 0 c -0.25337,-0.23555 -0.5067,-0.47109 -0.76004,-0.70663 -1.86574,-0.96451 -3.89454,-1.56188 -5.62986,-2.73378 0,0 2.34619,-3.37027 2.34619,-3.37027 z"
       inkscape:connector-curvature="0" />
    <path
       style="fill:#cccccc;fill-opacity:1;stroke:none;stroke-width:0.2;stroke-linejoin:miter;stroke-miterlimit:4;stroke-dasharray:none;stroke-opacity:1"
       id="path3244"
       d="m 465.45137,65.2395 c -1.24706,1.076685 -2.14974,2.44906 -2.94611,3.873683 -0.60629,1.147561 -0.90318,2.404326 -1.11747,3.67358 -0.13827,0.898639 -0.31284,1.763655 -0.80216,2.53791 -0.7556,0.867122 -1.9317,0.923623 -2.99006,1.149377 -0.21386,0.05053 -0.42775,0.10106 -0.64161,0.15159 0,0 -0.0899,-0.09706 -0.0899,-0.09706 v 0 c 0.0618,-0.204756 0.12354,-0.409511 0.18529,-0.614264 0.16777,-0.812816 0.14706,-1.570723 -0.0153,-2.377647 0.13275,-0.726154 0.64585,-1.352238 0.88514,-2.041752 0.76097,-1.389984 1.71442,-2.625908 2.89761,-3.689816 1.17269,-1.144519 2.49055,-2.187779 3.35547,-3.601699 0,0 1.27911,1.036098 1.27911,1.036098 z"
       inkscape:connector-curvature="0" />
    <path
       style="fill:#cccccc;fill-opacity:1;stroke:none;stroke-width:0.2;stroke-linejoin:miter;stroke-miterlimit:4;stroke-dasharray:none;stroke-opacity:1"
       id="path3246"
       d="m 453.53938,84.099566 c -0.35812,1.287923 -0.88974,2.494235 -1.67241,3.576767 -0.76477,0.963478 -1.91111,1.321226 -2.99574,1.780717 -1.03614,0.421288 -1.78946,1.194187 -2.51632,2.012397 -0.83471,1.062107 -1.54702,2.211533 -2.41099,3.25038 -0.83696,0.997646 -1.92992,1.307793 -3.1655,1.472449 -1.22494,0.07421 -2.31122,0.340622 -3.25718,1.140618 -0.89633,0.896406 -1.40184,2.045092 -1.89087,3.190686 -0.39661,0.94411 -0.88911,1.82295 -1.70662,2.45562 -1.09606,0.44721 -2.30362,-0.044 -3.47038,0.0955 0,0 -0.0752,-0.10884 -0.0752,-0.10884 v 0 c 0.503,-0.96624 0.60209,-2.02641 0.9575,-3.024631 0.61754,-0.615091 1.44672,-0.989042 2.16858,-1.462556 1.19343,-0.607232 2.41761,-1.146064 3.62987,-1.713627 1.06609,-0.577644 1.89651,-1.404019 2.56911,-2.413177 0.50779,-0.737563 0.95702,-1.518063 1.70929,-2.041877 0.99708,-0.880478 1.86584,-1.877867 2.77211,-2.849319 0.98023,-1.024443 2.04285,-1.968275 3.26904,-2.692228 0.47379,-0.302099 1.01248,-0.57345 1.2075,-1.131149 0.39801,-0.88912 0.64484,-1.840768 0.95345,-2.762462 0,0 3.92473,1.224772 3.92473,1.224772 z"
       inkscape:connector-curvature="0" />
    <path
       style="fill:#cccccc;fill-opacity:1;stroke:none;stroke-width:0.2;stroke-linejoin:miter;stroke-miterlimit:4;stroke-dasharray:none;stroke-opacity:1"
       id="path3248"
       d="m 421.3349,112.57913 c -0.91961,0.0335 -1.72955,0.25997 -2.56373,0.6227 0,0 -0.0781,-0.10679 -0.0781,-0.10679 v 0 c 0.59743,-0.68422 1.05318,-1.38617 1.35671,-2.25375 0,0 1.2851,1.73784 1.2851,1.73784 z"
       inkscape:connector-curvature="0" />
    <path
       style="fill:#cccccc;fill-opacity:1;stroke:none;stroke-width:0.2;stroke-linejoin:miter;stroke-miterlimit:4;stroke-dasharray:none;stroke-opacity:1"
       id="path3250"
       d="m 409.12769,123.32012 c -1.63454,0.28387 -3.38675,-0.21869 -5.00893,0.15326 -0.3428,0.0786 -0.64688,0.27621 -0.97031,0.41432 0,0 -0.0563,-0.11974 -0.0563,-0.11974 v 0 c 0.31369,-0.16122 0.65739,-0.27407 0.94102,-0.48367 1.37785,-1.01821 2.29756,-2.6492 3.81929,-3.50934 0,0 1.27521,3.54517 1.27521,3.54517 z"
       inkscape:connector-curvature="0" />
    <path
       style="fill:#cccccc;fill-opacity:1;stroke:none;stroke-width:0.2;stroke-linejoin:miter;stroke-miterlimit:4;stroke-dasharray:none;stroke-opacity:1"
       id="path3252"
       d="m 395.67215,130.18796 c -0.96676,0.17813 -1.62637,0.4638 -2.3282,1.13439 0,0 -0.0932,-0.0939 -0.0932,-0.0939 v 0 c 0.73948,-0.76209 0.89593,-1.21236 0.97565,-2.28354 0,0 1.44574,1.24306 1.44574,1.24306 z"
       inkscape:connector-curvature="0" />
    <path
       style="fill:#cccccc;fill-opacity:1;stroke:none;stroke-width:0.2;stroke-linejoin:miter;stroke-miterlimit:4;stroke-dasharray:none;stroke-opacity:1"
       id="path3254"
       d="m 386.02978,140.34706 c -1.12758,0.38411 -0.5818,0.14573 -1.63653,0.71704 0,0 -0.0904,-0.0966 -0.0904,-0.0966 v 0 c 0.59627,-0.97037 0.39082,-0.45521 0.62929,-1.54025 0,0 1.09765,0.91979 1.09765,0.91979 z"
       inkscape:connector-curvature="0" />
    <path
       style="fill:#cccccc;fill-opacity:1;stroke:none;stroke-width:0.2;stroke-linejoin:miter;stroke-miterlimit:4;stroke-dasharray:none;stroke-opacity:1"
       id="path3256"
       d="m 406.39177,95.935527 c -1.45987,1.569841 -2.93913,3.120405 -4.34176,4.742073 -1.48569,1.6161 -2.51963,3.50354 -3.21503,5.57144 -0.48223,1.49123 -0.50224,3.06302 -0.72877,4.59733 -0.38854,1.19704 -1.80758,1.3921 -2.64015,2.16671 0,0 -0.12163,-0.052 -0.12163,-0.052 v 0 c -0.0449,-1.10015 -1.21332,-1.79436 -1.11522,-2.91415 0.45808,-1.74013 1.17904,-3.40255 2.04137,-4.97947 1.1951,-2.06494 2.56051,-4.01075 4.17946,-5.770812 1.27273,-1.477669 2.62547,-2.979785 3.19104,-4.890529 0,0 2.75069,1.529408 2.75069,1.529408 z"
       inkscape:connector-curvature="0" />
    <path
       style="fill:#cccccc;fill-opacity:1;stroke:none;stroke-width:0.2;stroke-linejoin:miter;stroke-miterlimit:4;stroke-dasharray:none;stroke-opacity:1"
       id="path3258"
       d="m 391.077,125.32059 c -1.49347,1.60979 -3.05301,3.15698 -4.65291,4.66047 -1.70085,1.54784 -3.27171,3.22133 -4.80653,4.93082 -1.20274,1.42706 -2.41017,2.84713 -3.70046,4.19611 -0.76565,0.50037 -1.39592,1.75597 -2.34069,1.98554 -0.19818,0.0482 -0.40788,-10e-4 -0.61183,-10e-4 -0.76152,0.0753 -1.53341,-0.17128 -2.24324,0.13865 0,0 -0.0832,-0.10282 -0.0832,-0.10282 v 0 c 0.44511,-0.64177 0.0988,-1.44262 0.25628,-2.19108 0.0328,-0.22789 0.0145,-0.46926 0.0985,-0.68369 0.34724,-0.88768 1.57453,-1.30848 2.13413,-2.02544 1.38316,-1.23091 2.70039,-2.53526 4.11273,-3.73388 1.74974,-1.52588 3.57222,-2.96572 5.31059,-4.50487 1.46124,-1.37584 2.87316,-2.81385 3.82648,-4.60335 0,0 2.70021,1.93495 2.70021,1.93495 z"
       inkscape:connector-curvature="0" />
  </g>
</svg>
