<?xml version="1.0" encoding="UTF-8" standalone="no"?>
<!-- Created with Inkscape (http://www.inkscape.org/) -->

<svg
   xmlns:dc="http://purl.org/dc/elements/1.1/"
   xmlns:cc="http://creativecommons.org/ns#"
   xmlns:rdf="http://www.w3.org/1999/02/22-rdf-syntax-ns#"
   xmlns:svg="http://www.w3.org/2000/svg"
   xmlns="http://www.w3.org/2000/svg"
   xmlns:sodipodi="http://sodipodi.sourceforge.net/DTD/sodipodi-0.dtd"
   xmlns:inkscape="http://www.inkscape.org/namespaces/inkscape"
   width="1920"
   height="1080"
   viewBox="0 0 507.99999 285.75001"
   version="1.1"
   id="svg8"
   inkscape:version="0.92.2 2405546, 2018-03-11"
   sodipodi:docname="pt-1.svg">
  <defs
     id="defs2" />
  <sodipodi:namedview
     id="base"
     pagecolor="#ffffff"
     bordercolor="#666666"
     borderopacity="1.0"
     inkscape:pageopacity="0.0"
     inkscape:pageshadow="2"
     inkscape:zoom="0.37871094"
     inkscape:cx="943.27504"
     inkscape:cy="482.56327"
     inkscape:document-units="mm"
     inkscape:current-layer="layer1"
     showgrid="false"
     units="px"
     inkscape:window-width="1348"
     inkscape:window-height="730"
     inkscape:window-x="5"
     inkscape:window-y="25"
     inkscape:window-maximized="0" />
  <metadata
     id="metadata5">
    <rdf:RDF>
      <cc:Work
         rdf:about="">
        <dc:format>image/svg+xml</dc:format>
        <dc:type
           rdf:resource="http://purl.org/dc/dcmitype/StillImage" />
        <dc:title />
      </cc:Work>
    </rdf:RDF>
  </metadata>
  <g
     inkscape:label="Layer 1"
     inkscape:groupmode="layer"
     id="layer1"
     transform="translate(0,-11.249983)">
    <path
       style="fill:#000000;stroke-width:1.43800008;stroke-linejoin:miter;stroke-miterlimit:4;stroke-dasharray:none"
       id="path317"
       d="m 141.965,216.20273 c -0.18733,-4.19662 -0.35088,-8.39451 -0.53997,-12.59122 -0.40698,-9.11604 -0.77826,-18.23351 -1.10461,-27.35278 -0.44405,-12.83043 -0.65344,-25.66753 -0.81043,-38.5042 -0.10739,-12.06333 -0.18161,-24.12701 -0.25525,-36.19061 -0.0452,-6.365963 -0.093,-12.731852 -0.0319,-19.097787 0.0266,-1.856018 0.63318,-3.781216 2.1906,-4.896861 0,0 0.11138,-0.0095 0.11138,-0.0095 v 0 c 1.71438,0.957268 2.26565,3.092775 2.29609,4.928806 -0.001,6.357049 -0.099,12.713396 -0.12974,19.070352 -0.0464,12.04751 -0.0715,24.09523 0.0839,36.14224 0.16385,12.8012 0.38815,25.60237 0.88384,38.39575 0.35358,9.10746 0.76702,18.21226 1.23978,27.31434 0.1868,4.20006 0.36702,8.40068 0.46216,12.60397 0,0 -4.39591,0.18753 -4.39591,0.18753 z"
       inkscape:connector-curvature="0" />
    <path
       style="fill:#000000;stroke-width:1.43800008;stroke-linejoin:miter;stroke-miterlimit:4;stroke-dasharray:none"
       id="path319"
       d="m 145.25232,76.428542 c 2.55157,2.490666 4.74303,5.321612 6.87689,8.169405 1.63913,2.425057 3.69446,4.7709 4.33383,7.69181 -0.50629,0.837973 -0.64973,2.063202 -1.51886,2.513923 -2.50984,1.301578 -5.29953,-3.252396 -6.38853,-4.757529 -2.11515,-2.980195 -3.91996,-6.160621 -5.61524,-9.393081 -0.61712,-1.163034 -1.1373,-2.372222 -1.69117,-3.565041 -0.10904,-0.234825 -0.21714,-0.470654 -0.34345,-0.696656 -0.0594,-0.106309 -0.11122,-0.365614 -0.21215,-0.297449 -0.1025,0.06924 0.1,0.226284 0.15,0.339428 2.22104,1.043064 0.88337,0.846527 2.87579,0.393047 0.23579,-0.05367 -0.1941,0.44437 -0.31795,0.652065 -0.80325,1.34706 -0.27289,0.494779 -1.22912,1.977771 -1.87739,2.853714 -4.34152,5.19598 -6.96683,7.346686 -2.00499,1.80912 -4.47259,2.474013 -7.05901,2.920727 -0.20442,0.03886 -0.40884,0.07772 -0.61326,0.116573 0,0 -0.0911,-0.06481 -0.0911,-0.06481 v 0 c 0.006,-0.257379 0.0128,-0.514758 0.0192,-0.772136 0.83489,-2.461924 2.47751,-4.466905 4.54965,-6.016048 2.18868,-1.877994 4.31532,-3.856093 5.90906,-6.283979 0.95476,-1.467969 2.2507,-4.436623 4.28112,-4.520218 0.75196,-0.03096 1.42434,0.486656 2.13651,0.729985 0.21703,0.278932 0.46066,0.539068 0.6511,0.836795 0.93311,1.458817 1.10059,3.351776 2.05447,4.808032 1.51433,3.053334 3.23794,5.998078 5.23328,8.765011 0.62059,0.83711 1.00333,1.387943 1.66781,2.163342 0.1963,0.229073 0.41575,0.437427 0.61592,0.663133 0.0666,0.07514 0.28204,0.217517 0.18386,0.238675 -2.92635,0.630629 -1.24934,-1.080767 -2.98133,2.454204 0.17481,0.244594 0.31773,0.480031 -0.0624,-0.37414 -0.56499,-1.269529 -1.36138,-2.451824 -2.14063,-3.594787 -0.35342,-0.51838 -0.72223,-1.026102 -1.08334,-1.539153 -1.94589,-2.598555 -3.92886,-5.197869 -6.30528,-7.424063 0,0 3.08113,-3.481517 3.08113,-3.481517 z"
       inkscape:connector-curvature="0" />
    <path
       style="fill:#000000;stroke-width:1.43800008;stroke-linejoin:miter;stroke-miterlimit:4;stroke-dasharray:none"
       id="path321"
       d="m 67.538398,148.19397 c 1.750682,3.46672 3.688644,6.8331 5.618287,10.20194 2.35163,3.65509 3.931047,7.71011 5.337106,11.80261 0.106125,0.34133 0.212252,0.68267 0.318379,1.024 0,0 -0.08942,0.0671 -0.08942,0.0671 v 0 c -0.305422,-0.20738 -0.610841,-0.41476 -0.91626,-0.62214 -3.334433,-2.86505 -6.308127,-6.15445 -8.491998,-9.98944 -2.094547,-3.4052 -4.143028,-6.84443 -5.932759,-10.42204 0,0 4.156669,-2.062 4.156669,-2.062 z"
       inkscape:connector-curvature="0" />
    <path
       style="fill:#000000;stroke-width:1.43800008;stroke-linejoin:miter;stroke-miterlimit:4;stroke-dasharray:none"
       id="path323"
       d="m 79.48482,140.81858 c -2.659922,2.61465 -5.674363,4.82947 -8.663755,7.0463 -3.332048,2.39253 -6.522538,4.9672 -9.728867,7.52239 -0.438573,0.32488 -0.844222,0.69971 -1.315719,0.97463 -1.446167,0.84323 -3.815729,1.63252 -5.510285,1.56589 0,0 -0.06796,-0.0888 -0.06796,-0.0888 v 0 c 0.359001,-1.59248 1.66935,-3.73997 2.743862,-4.93892 0.363195,-0.40526 0.80759,-0.72965 1.211385,-1.09447 3.189723,-2.69221 6.522864,-5.20647 9.901628,-7.65605 2.813423,-2.1029 5.657921,-4.18038 8.264244,-6.54101 0,0 3.165462,3.21 3.165462,3.21 z"
       inkscape:connector-curvature="0" />
    <path
       style="fill:#000000;stroke-width:1.43800008;stroke-linejoin:miter;stroke-miterlimit:4;stroke-dasharray:none"
       id="path345"
       d="m 101.72142,194.95792 c -0.12009,-2.26038 -0.35731,-4.5109 -0.59024,-6.76157 -0.29814,-2.45729 -0.53147,-4.92011 -0.71701,-7.38837 -0.15382,-2.49855 -0.18573,-5.00223 -0.18371,-7.5048 0.006,-1.95943 -0.0126,-3.91835 -0.0415,-5.87751 -0.0693,-1.61432 -0.10869,-3.22966 -0.16428,-4.84445 -0.02735,-1.70142 0.015,-3.40278 0.0404,-5.10391 0.0211,-1.58532 -0.0114,-3.17169 -0.119134,-4.75355 -0.07364,-1.37436 -0.191621,-2.74752 -0.211283,-4.12403 -0.05773,-1.18183 0.04106,-2.36108 0.185367,-3.53304 0.12542,-0.94926 0.29569,-1.89154 0.54198,-2.81684 0.27866,-1.01727 0.81134,-1.90169 1.40871,-2.75715 0.64949,-0.83773 1.43825,-1.54817 2.2491,-2.22465 0.88518,-0.74774 1.86082,-1.36886 2.88498,-1.9056 1.10237,-0.59135 2.22767,-0.85321 3.47108,-0.80823 1.48111,0.25305 2.62853,1.13595 3.70348,2.12199 0.76555,0.75675 1.38833,1.634 1.99258,2.51972 0.62869,0.97647 1.07899,2.04208 1.41374,3.15029 0.3628,1.35257 0.54034,2.74452 0.67544,4.13538 0.1395,1.5933 0.20286,3.19175 0.25735,4.78978 0.0393,1.79433 0.15567,3.58515 0.24916,5.37709 0.10252,1.7279 0.17045,3.4575 0.20766,5.18795 0.0168,1.64722 0.0244,3.29411 0.0323,4.94143 0.006,1.74188 0.0403,3.48353 0.0823,5.22486 0.046,1.7661 0.0817,3.53233 0.10128,5.29891 0.0261,1.66861 0.0289,3.33734 0.0321,5.00615 0.0122,1.45409 0.0361,2.90822 0.0373,4.36238 0.0217,1.32002 0.008,2.64031 0.0177,3.96046 -0.0201,1.06598 0.0687,2.12876 0.10411,3.19269 -0.21269,-0.79362 0.0722,0.45588 0.0449,0.34363 -0.22656,-0.93078 -0.83787,-1.53311 -1.80237,-1.70475 0.84605,-0.01 1.6822,0.14703 2.50309,0.33685 1.1095,0.24833 2.08599,0.79811 3.02882,1.4101 1.12772,0.81062 1.90586,1.89103 2.49991,3.12833 0.63131,1.45239 0.67689,2.98871 0.53888,4.5387 -0.21177,1.52327 -0.83991,2.91291 -1.62257,4.21926 -0.66292,1.06728 -1.48486,2.01046 -2.38832,2.87766 -0.79936,0.74301 -1.71369,1.33868 -2.64768,1.89551 -0.96374,0.55554 -1.98304,0.99567 -3.02366,1.38328 -1.14775,0.40143 -2.35252,0.52925 -3.55965,0.57436 -1.26715,0.0204 -2.50944,-0.24055 -3.71637,-0.60332 -1.08628,-0.36176 -2.14355,-0.80767 -3.18949,-1.27189 -0.98772,-0.42965 -1.96051,-0.89604 -2.87323,-1.46929 -0.95493,-0.53632 -1.76856,-1.2625 -2.53364,-2.03718 -0.844336,-0.86457 -1.522619,-1.85879 -2.09536,-2.91791 -0.45403,-0.86741 -0.744072,-1.79991 -0.943163,-2.7545 -0.158861,-0.89285 -0.207594,-1.8024 -0.224988,-2.70785 -0.05551,-0.978 0.04094,-1.93717 0.236945,-2.89393 0.312946,-1.17256 0.957069,-2.17459 1.802675,-3.0295 0.508476,-0.49005 1.104841,-0.85885 1.752121,-1.13205 0.99525,-0.45013 1.37521,0.29936 1.82837,1.06783 0.21494,0.64192 0.12946,0.30632 0.24839,1.00881 0,0 -0.011,0.11125 -0.011,0.11125 v 0 c -0.27593,0.64836 -0.16809,0.33156 -0.33643,0.94591 0.006,0.43185 -0.0608,0.87389 0.20655,1.2484 0.0399,0.0559 0.18003,-0.017 0.20038,0.0487 0.008,0.0252 -0.0416,0.0325 -0.0623,0.0487 -0.12452,0.0769 -0.25855,0.1342 -0.37498,0.22335 -0.21414,0.15147 -0.37321,0.36069 -0.47614,0.60281 -0.18996,0.52631 -0.14173,1.10806 -0.14696,1.65794 0.0113,0.61152 7.9e-4,1.22638 0.10899,1.83124 0.0982,0.50305 0.21378,1.00424 0.45103,1.46317 0.33629,0.65599 0.74475,1.26835 1.26112,1.79865 0.4863,0.49382 1.00591,0.94137 1.59305,1.31368 0.75911,0.43563 1.53129,0.84093 2.34209,1.17612 0.86701,0.38586 1.7266,0.79363 2.6319,1.08507 0.70551,0.21936 1.41774,0.42623 2.16469,0.41821 0.72581,-0.0181 1.44739,-0.10955 2.14103,-0.334 0.75553,-0.23622 1.49246,-0.53374 2.17306,-0.94175 0.6308,-0.37202 1.23228,-0.79094 1.78715,-1.2703 0.60608,-0.5658 1.17196,-1.17871 1.62306,-1.87754 0.44236,-0.71262 0.84732,-1.45384 0.98771,-2.29219 0.11243,-0.68087 0.11183,-1.37613 -0.10274,-2.03951 -0.19964,-0.47991 -0.47956,-0.92064 -0.90692,-1.23084 -0.42944,-0.33085 -0.91637,-0.57676 -1.43891,-0.72396 -0.45585,-0.10935 -0.91675,-0.19864 -1.3883,-0.17409 -1.84172,-0.0346 -2.97615,-1.33329 -2.99315,-3.10892 -0.0782,-1.13253 -0.073,-2.27007 -0.0906,-3.40475 -0.007,-1.33044 -0.008,-2.6612 0.0101,-3.9915 0.002,-1.45314 0.0265,-2.90622 0.0383,-4.3593 0.002,-1.65312 0.002,-3.30627 -0.001,-4.95933 -0.0183,-1.74642 -0.0523,-3.49251 -0.0985,-5.23841 -0.0426,-1.76928 -0.0771,-3.53885 -0.0877,-5.30864 -0.0106,-1.62456 0.007,-3.24892 -0.035,-4.87323 -0.0331,-1.68309 -0.0852,-3.36537 -0.1697,-5.04685 -0.0941,-1.81628 -0.17935,-3.63297 -0.23784,-5.45082 -0.0564,-1.50431 -0.1207,-3.009 -0.25484,-4.50877 -0.10925,-1.10061 -0.21898,-2.20767 -0.50226,-3.27996 -0.20722,-0.70208 -0.44352,-1.38941 -0.86759,-1.99584 -0.37572,-0.62668 -0.81574,-1.21305 -1.31856,-1.74418 -0.28364,-0.30074 -0.74179,-0.64207 -0.98393,-0.86936 0.22542,-0.11581 -0.97328,0.19269 -1.01776,0.31451 -0.74114,0.37334 -1.43507,0.82867 -2.06998,1.36462 -0.53756,0.44785 -1.06619,0.91225 -1.50946,1.4565 -0.3082,0.36993 -0.5532,0.79254 -0.68391,1.2584 -0.20279,0.72023 -0.31783,1.46121 -0.42893,2.20024 -0.12296,0.9424 -0.17815,1.88914 -0.16533,2.83965 0.061,1.34195 0.088,2.68557 0.1903,4.02579 0.0608,1.68266 0.1285,3.36524 0.0721,5.04929 -0.025,1.64807 -0.0951,3.29568 -0.0573,4.9442 0.0126,1.62868 0.10084,3.25562 0.0917,4.88464 0.0198,1.98089 -0.0228,3.96182 -0.054,5.94242 -0.0116,2.41761 -0.004,4.83573 0.10071,7.25159 0.0991,2.42464 0.29101,4.84413 0.4923,7.2621 0.19545,2.30392 0.35282,4.61133 0.49093,6.91937 0,0 -3.81053,0.20996 -3.81053,0.20996 z"
       inkscape:connector-curvature="0" />
    <path
       style="fill:#ff0000;stroke-width:1.43800008;stroke-linejoin:miter;stroke-miterlimit:4;stroke-dasharray:none"
       id="path347"
       d="m 110.659,202.20421 c -0.57965,-0.0828 -1.17915,-0.15359 -1.76413,-0.0685 -0.27269,0.0397 -0.51331,0.22052 0.0924,0.0358 0.82694,-0.23591 0.70365,-1.56815 0.82946,-1.74435 0.0539,-0.0754 0.1482,0.11145 0.22014,0.16989 0.42934,0.38534 0.95328,0.62421 1.51126,0.75143 0.27948,0.10852 0.644,-0.0252 0.18533,-0.002 0.0696,-0.24215 0.008,-0.24966 -0.0894,-5.3e-4 -5.3e-4,0.3542 -0.13196,0.20765 -0.35857,0.0594 -0.4375,-0.26602 -0.92556,-0.42416 -1.41888,-0.54885 -0.35864,-0.0947 -0.72248,-0.13775 -1.09048,-0.0889 -0.1766,0.0358 -0.11534,0.0783 0.0143,0.055 0.0889,-0.0211 0.11032,-0.12168 0.12371,-0.22677 -0.27768,-1.05559 -0.18945,-1.47979 -1.4621,-1.42948 -0.58699,0.35266 -0.84566,0.88928 -0.41936,1.45487 0,0 0.0837,0.0741 0.0837,0.0741 v 0 c 0.15569,0.90977 -0.37361,1.43197 -1.23582,1.6902 -0.29565,-0.025 -0.62374,0.062 -0.88694,-0.0749 -0.92037,-0.47885 -1.06845,-1.71284 -0.99833,-2.61524 0.15984,-0.93943 0.56225,-1.77467 1.23492,-2.4616 0.89692,-0.83632 1.93133,-1.40797 3.1766,-1.50402 0.93447,-0.055 1.85943,0.0231 2.7648,0.27551 1.08755,0.30177 2.14911,0.70094 3.08094,1.35273 1.31694,0.99767 2.27724,2.22542 2.43594,3.92972 -0.0756,1.63619 -0.63254,3.02689 -1.94159,4.07366 -1.39159,0.96606 -2.89601,1.31551 -4.55914,0.85531 -1.45132,-0.43177 -2.77726,-1.10547 -3.84664,-2.20391 -1.61795,-1.8771 -2.22517,-3.72701 -0.35659,-5.78442 0.32172,-0.19186 0.62298,-0.42316 0.96515,-0.57559 1.41042,-0.6283 3.03706,-0.34812 4.50462,-0.17111 0,0 -0.7954,4.72272 -0.7954,4.72272 z"
       inkscape:connector-curvature="0" />
    <path
       style="fill:#ff0000;stroke-width:1.43800008;stroke-linejoin:miter;stroke-miterlimit:4;stroke-dasharray:none"
       id="path349"
       d="m 108.87382,199.4973 c 0.0369,-1.49325 0.091,-2.98754 0.0789,-4.48138 0.007,-0.96502 -0.0511,-1.92862 -0.0739,-2.89317 -0.0302,-0.96284 -0.0714,-1.92581 -0.0737,-2.88926 0.005,-0.82927 0.0151,-1.65764 0.0281,-2.48656 0.006,-0.66551 -0.02,-1.3306 -0.0435,-1.99553 -0.0346,-0.74019 -0.10404,-1.47787 -0.1526,-2.21729 -0.065,-0.80999 -0.0932,-1.62198 -0.10841,-2.43421 -0.0158,-0.86222 -0.0293,-1.72431 -0.0653,-2.58597 -0.0627,-0.90514 -0.0741,-1.81162 -0.0918,-2.71819 -0.0159,-0.86876 -0.03,-1.7371 -0.0772,-2.60481 -0.0625,-0.88541 -0.16732,-1.76729 -0.26352,-2.64954 -0.10394,-0.98876 -0.18717,-1.97913 -0.25011,-2.97143 -0.0292,-0.75893 -0.11871,-1.53088 0.0219,-2.28319 0.36436,-0.24896 0.80321,-0.33331 1.21622,-0.47027 0,0 2.42362,0.10029 2.42362,0.10029 v 0 c 0.44417,-0.01 0.83803,0.0204 1.2212,0.27762 0.16555,0.71226 0.11807,1.45388 0.12888,2.17989 0.009,0.87908 0.0564,1.7555 0.17783,2.62695 0.10661,0.97219 0.22319,1.94399 0.28772,2.92011 0.0502,0.92552 0.0684,1.85167 0.0857,2.77832 0.0166,0.86929 0.0689,1.73782 0.10838,2.60634 0.0373,0.89812 0.0544,1.79665 0.0743,2.69529 0.0153,0.73607 0.0415,1.47191 0.10058,2.20597 0.0514,0.78673 0.0929,1.57373 0.11782,2.36172 0.0289,0.75459 0.0581,1.50949 0.046,2.26482 -0.0154,0.79856 -0.0578,1.59586 -0.0595,2.39485 -5.3e-4,0.92693 0.002,1.85372 0.0284,2.78038 0.0236,1.02907 0.0445,2.05814 0.014,3.08736 -0.0594,1.50496 -0.13457,3.00934 -0.17735,4.51487 0,0 -4.72271,-0.11398 -4.72271,-0.11398 z"
       inkscape:connector-curvature="0" />
    <path
       style="fill:#000000;stroke-width:1.43800008;stroke-linejoin:miter;stroke-miterlimit:4;stroke-dasharray:none"
       id="path351"
       d="m 109.99365,186.8596 c -1.65222,0.009 -3.30293,-0.0585 -4.95427,-0.0944 -0.67007,-0.0958 -1.66695,0.19523 -2.1097,-0.42074 -0.22733,-0.66262 -0.25826,-1.36176 -0.30513,-2.05367 0,0 -1.2e-4,-0.11178 -1.2e-4,-0.11178 v 0 c 0.0592,-0.69509 0.12678,-1.39454 0.40736,-2.04263 0.52241,-0.59895 1.53078,-0.22731 2.23959,-0.25262 1.55921,0.11579 3.12357,0.16183 4.68697,0.14739 0,0 0.0353,4.82849 0.0353,4.82849 z"
       inkscape:connector-curvature="0" />
    <path
       style="fill:#000000;stroke-width:1.43800008;stroke-linejoin:miter;stroke-miterlimit:4;stroke-dasharray:none"
       id="path353"
       d="m 108.84375,176.25895 c -1.55068,0.23749 -3.10153,0.53895 -4.6754,0.51945 -1.29621,-0.20394 -0.98278,-1.27784 -1.4748,-2.07642 0,0 -0.0739,-0.0839 -0.0739,-0.0839 v 0 c -0.0671,-0.82747 0.43057,-1.98211 1.15128,-2.38918 1.41648,-0.29204 2.86485,-0.41066 4.2844,-0.69077 0,0 0.78843,4.72078 0.78843,4.72078 z"
       inkscape:connector-curvature="0" />
    <path
       style="fill:#000000;stroke-width:1.43800008;stroke-linejoin:miter;stroke-miterlimit:4;stroke-dasharray:none"
       id="path355"
       d="m 108.62542,167.59186 c -1.21469,-0.40583 -2.44796,-0.75846 -3.70208,-1.01944 -0.95789,-0.14454 -0.91065,-0.28368 -0.9958,-1.22839 -0.0265,-0.40797 -0.0747,-0.79785 -0.19529,-1.18754 0,0 -0.009,-0.11141 -0.009,-0.11141 v 0 c 0.0828,-0.40863 0.18927,-0.80996 0.31706,-1.20716 0.54286,-1.17403 0.64766,-1.0611 1.89947,-0.83598 1.40812,0.32824 2.78564,0.76982 4.15979,1.21727 0,0 -1.47408,4.37265 -1.47408,4.37265 z"
       inkscape:connector-curvature="0" />
    <path
       style="fill:#000000;stroke-width:1.43800008;stroke-linejoin:miter;stroke-miterlimit:4;stroke-dasharray:none"
       id="path357"
       d="m 108.34904,157.54596 c -1.43003,-0.2348 -2.86795,-0.42154 -4.29626,-0.66625 -0.76132,-0.087 -1.29946,-0.14681 -1.65634,-0.86476 -0.28739,-0.55535 -0.47967,-1.11844 -0.59645,-1.73049 0,0 0.0487,-0.10064 0.0487,-0.10064 v 0 c 0.41058,-0.38135 0.52516,-0.89678 0.78807,-1.38011 0.51682,-0.84565 1.26862,-0.5737 2.14001,-0.47921 1.42308,0.21019 2.82711,0.54123 4.25459,0.72775 0,0 -0.68227,4.49371 -0.68227,4.49371 z"
       inkscape:connector-curvature="0" />
    <path
       style="fill:#000000;stroke-width:1.43800008;stroke-linejoin:miter;stroke-miterlimit:4;stroke-dasharray:none"
       id="path359"
       d="m 108.27548,147.78086 c -1.5848,-0.0323 -3.1719,-0.0166 -4.75251,-0.15014 -0.4188,-0.13146 -1.5731,0.0677 -1.84006,-0.41983 -0.0694,-0.12667 -0.0736,-0.27933 -0.11035,-0.41899 -0.12505,-0.56993 -0.0791,-1.15212 -0.0541,-1.72906 0,0 0.0291,-0.10793 0.0291,-0.10793 v 0 c 0.26751,-0.5016 0.55085,-0.99447 0.82827,-1.49065 0.43403,-0.67411 0.85509,-0.31958 1.56487,-0.24724 1.46229,0.15652 2.92833,0.25328 4.39959,0.26001 0,0 -0.0648,4.30383 -0.0648,4.30383 z"
       inkscape:connector-curvature="0" />
  </g>
</svg>
