<?xml version="1.0" encoding="UTF-8" standalone="no"?>
<!-- Created with Inkscape (http://www.inkscape.org/) -->

<svg
   xmlns:dc="http://purl.org/dc/elements/1.1/"
   xmlns:cc="http://creativecommons.org/ns#"
   xmlns:rdf="http://www.w3.org/1999/02/22-rdf-syntax-ns#"
   xmlns:svg="http://www.w3.org/2000/svg"
   xmlns="http://www.w3.org/2000/svg"
   xmlns:sodipodi="http://sodipodi.sourceforge.net/DTD/sodipodi-0.dtd"
   xmlns:inkscape="http://www.inkscape.org/namespaces/inkscape"
   width="1920"
   height="1080"
   viewBox="0 0 507.99999 285.75001"
   version="1.1"
   id="svg8"
   inkscape:version="0.92.2 2405546, 2018-03-11"
   sodipodi:docname="pt-2.svg">
  <defs
     id="defs2" />
  <sodipodi:namedview
     id="base"
     pagecolor="#ffffff"
     bordercolor="#666666"
     borderopacity="1.0"
     inkscape:pageopacity="0.0"
     inkscape:pageshadow="2"
     inkscape:zoom="0.37871094"
     inkscape:cx="943.27504"
     inkscape:cy="482.56327"
     inkscape:document-units="mm"
     inkscape:current-layer="layer1"
     showgrid="false"
     units="px"
     inkscape:window-width="1348"
     inkscape:window-height="730"
     inkscape:window-x="5"
     inkscape:window-y="25"
     inkscape:window-maximized="0" />
  <metadata
     id="metadata5">
    <rdf:RDF>
      <cc:Work
         rdf:about="">
        <dc:format>image/svg+xml</dc:format>
        <dc:type
           rdf:resource="http://purl.org/dc/dcmitype/StillImage" />
        <dc:title></dc:title>
      </cc:Work>
    </rdf:RDF>
  </metadata>
  <g
     inkscape:label="Layer 1"
     inkscape:groupmode="layer"
     id="layer1"
     transform="translate(0,-11.249983)">
    <path
       style="fill:#000000;stroke-width:1.43800008;stroke-linejoin:miter;stroke-miterlimit:4;stroke-dasharray:none"
       id="path317"
       d="m 141.965,216.20273 c -0.18733,-4.19662 -0.35088,-8.39451 -0.53997,-12.59122 -0.40698,-9.11604 -0.77826,-18.23351 -1.10461,-27.35278 -0.44405,-12.83043 -0.65344,-25.66753 -0.81043,-38.5042 -0.10739,-12.06333 -0.18161,-24.12701 -0.25525,-36.19061 -0.0452,-6.365963 -0.093,-12.731852 -0.0319,-19.097787 0.0266,-1.856018 0.63318,-3.781216 2.1906,-4.896861 0,0 0.11138,-0.0095 0.11138,-0.0095 v 0 c 1.71438,0.957268 2.26565,3.092775 2.29609,4.928806 -0.001,6.357049 -0.099,12.713396 -0.12974,19.070352 -0.0464,12.04751 -0.0715,24.09523 0.0839,36.14224 0.16385,12.8012 0.38815,25.60237 0.88384,38.39575 0.35358,9.10746 0.76702,18.21226 1.23978,27.31434 0.1868,4.20006 0.36702,8.40068 0.46216,12.60397 0,0 -4.39591,0.18753 -4.39591,0.18753 z"
       inkscape:connector-curvature="0" />
    <path
       style="fill:#000000;stroke-width:1.43800008;stroke-linejoin:miter;stroke-miterlimit:4;stroke-dasharray:none"
       id="path319"
       d="m 145.25232,76.428542 c 2.55157,2.490666 4.74303,5.321612 6.87689,8.169405 1.63913,2.425057 3.69446,4.7709 4.33383,7.69181 -0.50629,0.837973 -0.64973,2.063202 -1.51886,2.513923 -2.50984,1.301578 -5.29953,-3.252396 -6.38853,-4.757529 -2.11515,-2.980195 -3.91996,-6.160621 -5.61524,-9.393081 -0.61712,-1.163034 -1.1373,-2.372222 -1.69117,-3.565041 -0.10904,-0.234825 -0.21714,-0.470654 -0.34345,-0.696656 -0.0594,-0.106309 -0.11122,-0.365614 -0.21215,-0.297449 -0.1025,0.06924 0.1,0.226284 0.15,0.339428 2.22104,1.043064 0.88337,0.846527 2.87579,0.393047 0.23579,-0.05367 -0.1941,0.44437 -0.31795,0.652065 -0.80325,1.34706 -0.27289,0.494779 -1.22912,1.977771 -1.87739,2.853714 -4.34152,5.19598 -6.96683,7.346686 -2.00499,1.80912 -4.47259,2.474013 -7.05901,2.920727 -0.20442,0.03886 -0.40884,0.07772 -0.61326,0.116573 0,0 -0.0911,-0.06481 -0.0911,-0.06481 v 0 c 0.006,-0.257379 0.0128,-0.514758 0.0192,-0.772136 0.83489,-2.461924 2.47751,-4.466905 4.54965,-6.016048 2.18868,-1.877994 4.31532,-3.856093 5.90906,-6.283979 0.95476,-1.467969 2.2507,-4.436623 4.28112,-4.520218 0.75196,-0.03096 1.42434,0.486656 2.13651,0.729985 0.21703,0.278932 0.46066,0.539068 0.6511,0.836795 0.93311,1.458817 1.10059,3.351776 2.05447,4.808032 1.51433,3.053334 3.23794,5.998078 5.23328,8.765011 0.62059,0.83711 1.00333,1.387943 1.66781,2.163342 0.1963,0.229073 0.41575,0.437427 0.61592,0.663133 0.0666,0.07514 0.28204,0.217517 0.18386,0.238675 -2.92635,0.630629 -1.24934,-1.080767 -2.98133,2.454204 0.17481,0.244594 0.31773,0.480031 -0.0624,-0.37414 -0.56499,-1.269529 -1.36138,-2.451824 -2.14063,-3.594787 -0.35342,-0.51838 -0.72223,-1.026102 -1.08334,-1.539153 -1.94589,-2.598555 -3.92886,-5.197869 -6.30528,-7.424063 0,0 3.08113,-3.481517 3.08113,-3.481517 z"
       inkscape:connector-curvature="0" />
    <path
       style="fill:#000000;stroke-width:1.43800008;stroke-linejoin:miter;stroke-miterlimit:4;stroke-dasharray:none"
       id="path321"
       d="m 67.538398,148.19397 c 1.750682,3.46672 3.688644,6.8331 5.618287,10.20194 2.35163,3.65509 3.931047,7.71011 5.337106,11.80261 0.106125,0.34133 0.212252,0.68267 0.318379,1.024 0,0 -0.08942,0.0671 -0.08942,0.0671 v 0 c -0.305422,-0.20738 -0.610841,-0.41476 -0.91626,-0.62214 -3.334433,-2.86505 -6.308127,-6.15445 -8.491998,-9.98944 -2.094547,-3.4052 -4.143028,-6.84443 -5.932759,-10.42204 0,0 4.156669,-2.062 4.156669,-2.062 z"
       inkscape:connector-curvature="0" />
    <path
       style="fill:#000000;stroke-width:1.43800008;stroke-linejoin:miter;stroke-miterlimit:4;stroke-dasharray:none"
       id="path323"
       d="m 79.48482,140.81858 c -2.659922,2.61465 -5.674363,4.82947 -8.663755,7.0463 -3.332048,2.39253 -6.522538,4.9672 -9.728867,7.52239 -0.438573,0.32488 -0.844222,0.69971 -1.315719,0.97463 -1.446167,0.84323 -3.815729,1.63252 -5.510285,1.56589 0,0 -0.06796,-0.0888 -0.06796,-0.0888 v 0 c 0.359001,-1.59248 1.66935,-3.73997 2.743862,-4.93892 0.363195,-0.40526 0.80759,-0.72965 1.211385,-1.09447 3.189723,-2.69221 6.522864,-5.20647 9.901628,-7.65605 2.813423,-2.1029 5.657921,-4.18038 8.264244,-6.54101 0,0 3.165462,3.21 3.165462,3.21 z"
       inkscape:connector-curvature="0" />
    <path
       style="fill:#000000;stroke-width:1.43800008;stroke-linejoin:miter;stroke-miterlimit:4;stroke-dasharray:none"
       id="path345"
       d="m 101.72142,194.95792 c -0.12009,-2.26038 -0.35731,-4.5109 -0.59024,-6.76157 -0.29814,-2.45729 -0.53147,-4.92011 -0.71701,-7.38837 -0.15382,-2.49855 -0.18573,-5.00223 -0.18371,-7.5048 0.006,-1.95943 -0.0126,-3.91835 -0.0415,-5.87751 -0.0693,-1.61432 -0.10869,-3.22966 -0.16428,-4.84445 -0.02735,-1.70142 0.015,-3.40278 0.0404,-5.10391 0.0211,-1.58532 -0.0114,-3.17169 -0.119134,-4.75355 -0.07364,-1.37436 -0.191621,-2.74752 -0.211283,-4.12403 -0.05773,-1.18183 0.04106,-2.36108 0.185367,-3.53304 0.12542,-0.94926 0.29569,-1.89154 0.54198,-2.81684 0.27866,-1.01727 0.81134,-1.90169 1.40871,-2.75715 0.64949,-0.83773 1.43825,-1.54817 2.2491,-2.22465 0.88518,-0.74774 1.86082,-1.36886 2.88498,-1.9056 1.10237,-0.59135 2.22767,-0.85321 3.47108,-0.80823 1.48111,0.25305 2.62853,1.13595 3.70348,2.12199 0.76555,0.75675 1.38833,1.634 1.99258,2.51972 0.62869,0.97647 1.07899,2.04208 1.41374,3.15029 0.3628,1.35257 0.54034,2.74452 0.67544,4.13538 0.1395,1.5933 0.20286,3.19175 0.25735,4.78978 0.0393,1.79433 0.15567,3.58515 0.24916,5.37709 0.10252,1.7279 0.17045,3.4575 0.20766,5.18795 0.0168,1.64722 0.0244,3.29411 0.0323,4.94143 0.006,1.74188 0.0403,3.48353 0.0823,5.22486 0.046,1.7661 0.0817,3.53233 0.10128,5.29891 0.0261,1.66861 0.0289,3.33734 0.0321,5.00615 0.0122,1.45409 0.0361,2.90822 0.0373,4.36238 0.0217,1.32002 0.008,2.64031 0.0177,3.96046 -0.0201,1.06598 0.0687,2.12876 0.10411,3.19269 -0.21269,-0.79362 0.0722,0.45588 0.0449,0.34363 -0.22656,-0.93078 -0.83787,-1.53311 -1.80237,-1.70475 0.84605,-0.01 1.6822,0.14703 2.50309,0.33685 1.1095,0.24833 2.08599,0.79811 3.02882,1.4101 1.12772,0.81062 1.90586,1.89103 2.49991,3.12833 0.63131,1.45239 0.67689,2.98871 0.53888,4.5387 -0.21177,1.52327 -0.83991,2.91291 -1.62257,4.21926 -0.66292,1.06728 -1.48486,2.01046 -2.38832,2.87766 -0.79936,0.74301 -1.71369,1.33868 -2.64768,1.89551 -0.96374,0.55554 -1.98304,0.99567 -3.02366,1.38328 -1.14775,0.40143 -2.35252,0.52925 -3.55965,0.57436 -1.26715,0.0204 -2.50944,-0.24055 -3.71637,-0.60332 -1.08628,-0.36176 -2.14355,-0.80767 -3.18949,-1.27189 -0.98772,-0.42965 -1.96051,-0.89604 -2.87323,-1.46929 -0.95493,-0.53632 -1.76856,-1.2625 -2.53364,-2.03718 -0.844336,-0.86457 -1.522619,-1.85879 -2.09536,-2.91791 -0.45403,-0.86741 -0.744072,-1.79991 -0.943163,-2.7545 -0.158861,-0.89285 -0.207594,-1.8024 -0.224988,-2.70785 -0.05551,-0.978 0.04094,-1.93717 0.236945,-2.89393 0.312946,-1.17256 0.957069,-2.17459 1.802675,-3.0295 0.508476,-0.49005 1.104841,-0.85885 1.752121,-1.13205 0.99525,-0.45013 1.37521,0.29936 1.82837,1.06783 0.21494,0.64192 0.12946,0.30632 0.24839,1.00881 0,0 -0.011,0.11125 -0.011,0.11125 v 0 c -0.27593,0.64836 -0.16809,0.33156 -0.33643,0.94591 0.006,0.43185 -0.0608,0.87389 0.20655,1.2484 0.0399,0.0559 0.18003,-0.017 0.20038,0.0487 0.008,0.0252 -0.0416,0.0325 -0.0623,0.0487 -0.12452,0.0769 -0.25855,0.1342 -0.37498,0.22335 -0.21414,0.15147 -0.37321,0.36069 -0.47614,0.60281 -0.18996,0.52631 -0.14173,1.10806 -0.14696,1.65794 0.0113,0.61152 7.9e-4,1.22638 0.10899,1.83124 0.0982,0.50305 0.21378,1.00424 0.45103,1.46317 0.33629,0.65599 0.74475,1.26835 1.26112,1.79865 0.4863,0.49382 1.00591,0.94137 1.59305,1.31368 0.75911,0.43563 1.53129,0.84093 2.34209,1.17612 0.86701,0.38586 1.7266,0.79363 2.6319,1.08507 0.70551,0.21936 1.41774,0.42623 2.16469,0.41821 0.72581,-0.0181 1.44739,-0.10955 2.14103,-0.334 0.75553,-0.23622 1.49246,-0.53374 2.17306,-0.94175 0.6308,-0.37202 1.23228,-0.79094 1.78715,-1.2703 0.60608,-0.5658 1.17196,-1.17871 1.62306,-1.87754 0.44236,-0.71262 0.84732,-1.45384 0.98771,-2.29219 0.11243,-0.68087 0.11183,-1.37613 -0.10274,-2.03951 -0.19964,-0.47991 -0.47956,-0.92064 -0.90692,-1.23084 -0.42944,-0.33085 -0.91637,-0.57676 -1.43891,-0.72396 -0.45585,-0.10935 -0.91675,-0.19864 -1.3883,-0.17409 -1.84172,-0.0346 -2.97615,-1.33329 -2.99315,-3.10892 -0.0782,-1.13253 -0.073,-2.27007 -0.0906,-3.40475 -0.007,-1.33044 -0.008,-2.6612 0.0101,-3.9915 0.002,-1.45314 0.0265,-2.90622 0.0383,-4.3593 0.002,-1.65312 0.002,-3.30627 -0.001,-4.95933 -0.0183,-1.74642 -0.0523,-3.49251 -0.0985,-5.23841 -0.0426,-1.76928 -0.0771,-3.53885 -0.0877,-5.30864 -0.0106,-1.62456 0.007,-3.24892 -0.035,-4.87323 -0.0331,-1.68309 -0.0852,-3.36537 -0.1697,-5.04685 -0.0941,-1.81628 -0.17935,-3.63297 -0.23784,-5.45082 -0.0564,-1.50431 -0.1207,-3.009 -0.25484,-4.50877 -0.10925,-1.10061 -0.21898,-2.20767 -0.50226,-3.27996 -0.20722,-0.70208 -0.44352,-1.38941 -0.86759,-1.99584 -0.37572,-0.62668 -0.81574,-1.21305 -1.31856,-1.74418 -0.28364,-0.30074 -0.74179,-0.64207 -0.98393,-0.86936 0.22542,-0.11581 -0.97328,0.19269 -1.01776,0.31451 -0.74114,0.37334 -1.43507,0.82867 -2.06998,1.36462 -0.53756,0.44785 -1.06619,0.91225 -1.50946,1.4565 -0.3082,0.36993 -0.5532,0.79254 -0.68391,1.2584 -0.20279,0.72023 -0.31783,1.46121 -0.42893,2.20024 -0.12296,0.9424 -0.17815,1.88914 -0.16533,2.83965 0.061,1.34195 0.088,2.68557 0.1903,4.02579 0.0608,1.68266 0.1285,3.36524 0.0721,5.04929 -0.025,1.64807 -0.0951,3.29568 -0.0573,4.9442 0.0126,1.62868 0.10084,3.25562 0.0917,4.88464 0.0198,1.98089 -0.0228,3.96182 -0.054,5.94242 -0.0116,2.41761 -0.004,4.83573 0.10071,7.25159 0.0991,2.42464 0.29101,4.84413 0.4923,7.2621 0.19545,2.30392 0.35282,4.61133 0.49093,6.91937 0,0 -3.81053,0.20996 -3.81053,0.20996 z"
       inkscape:connector-curvature="0" />
    <path
       style="fill:#ff0000;stroke-width:1.43800008;stroke-linejoin:miter;stroke-miterlimit:4;stroke-dasharray:none"
       id="path347"
       d="m 110.659,202.20421 c -0.57965,-0.0828 -1.17915,-0.15359 -1.76413,-0.0685 -0.27269,0.0397 -0.51331,0.22052 0.0924,0.0358 0.82694,-0.23591 0.70365,-1.56815 0.82946,-1.74435 0.0539,-0.0754 0.1482,0.11145 0.22014,0.16989 0.42934,0.38534 0.95328,0.62421 1.51126,0.75143 0.27948,0.10852 0.644,-0.0252 0.18533,-0.002 0.0696,-0.24215 0.008,-0.24966 -0.0894,-5.3e-4 -5.3e-4,0.3542 -0.13196,0.20765 -0.35857,0.0594 -0.4375,-0.26602 -0.92556,-0.42416 -1.41888,-0.54885 -0.35864,-0.0947 -0.72248,-0.13775 -1.09048,-0.0889 -0.1766,0.0358 -0.11534,0.0783 0.0143,0.055 0.0889,-0.0211 0.11032,-0.12168 0.12371,-0.22677 -0.27768,-1.05559 -0.18945,-1.47979 -1.4621,-1.42948 -0.58699,0.35266 -0.84566,0.88928 -0.41936,1.45487 0,0 0.0837,0.0741 0.0837,0.0741 v 0 c 0.15569,0.90977 -0.37361,1.43197 -1.23582,1.6902 -0.29565,-0.025 -0.62374,0.062 -0.88694,-0.0749 -0.92037,-0.47885 -1.06845,-1.71284 -0.99833,-2.61524 0.15984,-0.93943 0.56225,-1.77467 1.23492,-2.4616 0.89692,-0.83632 1.93133,-1.40797 3.1766,-1.50402 0.93447,-0.055 1.85943,0.0231 2.7648,0.27551 1.08755,0.30177 2.14911,0.70094 3.08094,1.35273 1.31694,0.99767 2.27724,2.22542 2.43594,3.92972 -0.0756,1.63619 -0.63254,3.02689 -1.94159,4.07366 -1.39159,0.96606 -2.89601,1.31551 -4.55914,0.85531 -1.45132,-0.43177 -2.77726,-1.10547 -3.84664,-2.20391 -1.61795,-1.8771 -2.22517,-3.72701 -0.35659,-5.78442 0.32172,-0.19186 0.62298,-0.42316 0.96515,-0.57559 1.41042,-0.6283 3.03706,-0.34812 4.50462,-0.17111 0,0 -0.7954,4.72272 -0.7954,4.72272 z"
       inkscape:connector-curvature="0" />
    <path
       style="fill:#ff0000;stroke-width:1.43800008;stroke-linejoin:miter;stroke-miterlimit:4;stroke-dasharray:none"
       id="path349"
       d="m 108.87382,199.4973 c 0.0369,-1.49325 0.091,-2.98754 0.0789,-4.48138 0.007,-0.96502 -0.0511,-1.92862 -0.0739,-2.89317 -0.0302,-0.96284 -0.0714,-1.92581 -0.0737,-2.88926 0.005,-0.82927 0.0151,-1.65764 0.0281,-2.48656 0.006,-0.66551 -0.02,-1.3306 -0.0435,-1.99553 -0.0346,-0.74019 -0.10404,-1.47787 -0.1526,-2.21729 -0.065,-0.80999 -0.0932,-1.62198 -0.10841,-2.43421 -0.0158,-0.86222 -0.0293,-1.72431 -0.0653,-2.58597 -0.0627,-0.90514 -0.0741,-1.81162 -0.0918,-2.71819 -0.0159,-0.86876 -0.03,-1.7371 -0.0772,-2.60481 -0.0625,-0.88541 -0.16732,-1.76729 -0.26352,-2.64954 -0.10394,-0.98876 -0.18717,-1.97913 -0.25011,-2.97143 -0.0292,-0.75893 -0.11871,-1.53088 0.0219,-2.28319 0.36436,-0.24896 0.80321,-0.33331 1.21622,-0.47027 0,0 2.42362,0.10029 2.42362,0.10029 v 0 c 0.44417,-0.01 0.83803,0.0204 1.2212,0.27762 0.16555,0.71226 0.11807,1.45388 0.12888,2.17989 0.009,0.87908 0.0564,1.7555 0.17783,2.62695 0.10661,0.97219 0.22319,1.94399 0.28772,2.92011 0.0502,0.92552 0.0684,1.85167 0.0857,2.77832 0.0166,0.86929 0.0689,1.73782 0.10838,2.60634 0.0373,0.89812 0.0544,1.79665 0.0743,2.69529 0.0153,0.73607 0.0415,1.47191 0.10058,2.20597 0.0514,0.78673 0.0929,1.57373 0.11782,2.36172 0.0289,0.75459 0.0581,1.50949 0.046,2.26482 -0.0154,0.79856 -0.0578,1.59586 -0.0595,2.39485 -5.3e-4,0.92693 0.002,1.85372 0.0284,2.78038 0.0236,1.02907 0.0445,2.05814 0.014,3.08736 -0.0594,1.50496 -0.13457,3.00934 -0.17735,4.51487 0,0 -4.72271,-0.11398 -4.72271,-0.11398 z"
       inkscape:connector-curvature="0" />
    <path
       style="fill:#000000;stroke-width:1.43800008;stroke-linejoin:miter;stroke-miterlimit:4;stroke-dasharray:none"
       id="path351"
       d="m 109.99365,186.8596 c -1.65222,0.009 -3.30293,-0.0585 -4.95427,-0.0944 -0.67007,-0.0958 -1.66695,0.19523 -2.1097,-0.42074 -0.22733,-0.66262 -0.25826,-1.36176 -0.30513,-2.05367 0,0 -1.2e-4,-0.11178 -1.2e-4,-0.11178 v 0 c 0.0592,-0.69509 0.12678,-1.39454 0.40736,-2.04263 0.52241,-0.59895 1.53078,-0.22731 2.23959,-0.25262 1.55921,0.11579 3.12357,0.16183 4.68697,0.14739 0,0 0.0353,4.82849 0.0353,4.82849 z"
       inkscape:connector-curvature="0" />
    <path
       style="fill:#000000;stroke-width:1.43800008;stroke-linejoin:miter;stroke-miterlimit:4;stroke-dasharray:none"
       id="path353"
       d="m 108.84375,176.25895 c -1.55068,0.23749 -3.10153,0.53895 -4.6754,0.51945 -1.29621,-0.20394 -0.98278,-1.27784 -1.4748,-2.07642 0,0 -0.0739,-0.0839 -0.0739,-0.0839 v 0 c -0.0671,-0.82747 0.43057,-1.98211 1.15128,-2.38918 1.41648,-0.29204 2.86485,-0.41066 4.2844,-0.69077 0,0 0.78843,4.72078 0.78843,4.72078 z"
       inkscape:connector-curvature="0" />
    <path
       style="fill:#000000;stroke-width:1.43800008;stroke-linejoin:miter;stroke-miterlimit:4;stroke-dasharray:none"
       id="path355"
       d="m 108.62542,167.59186 c -1.21469,-0.40583 -2.44796,-0.75846 -3.70208,-1.01944 -0.95789,-0.14454 -0.91065,-0.28368 -0.9958,-1.22839 -0.0265,-0.40797 -0.0747,-0.79785 -0.19529,-1.18754 0,0 -0.009,-0.11141 -0.009,-0.11141 v 0 c 0.0828,-0.40863 0.18927,-0.80996 0.31706,-1.20716 0.54286,-1.17403 0.64766,-1.0611 1.89947,-0.83598 1.40812,0.32824 2.78564,0.76982 4.15979,1.21727 0,0 -1.47408,4.37265 -1.47408,4.37265 z"
       inkscape:connector-curvature="0" />
    <path
       style="fill:#000000;stroke-width:1.43800008;stroke-linejoin:miter;stroke-miterlimit:4;stroke-dasharray:none"
       id="path357"
       d="m 108.34904,157.54596 c -1.43003,-0.2348 -2.86795,-0.42154 -4.29626,-0.66625 -0.76132,-0.087 -1.29946,-0.14681 -1.65634,-0.86476 -0.28739,-0.55535 -0.47967,-1.11844 -0.59645,-1.73049 0,0 0.0487,-0.10064 0.0487,-0.10064 v 0 c 0.41058,-0.38135 0.52516,-0.89678 0.78807,-1.38011 0.51682,-0.84565 1.26862,-0.5737 2.14001,-0.47921 1.42308,0.21019 2.82711,0.54123 4.25459,0.72775 0,0 -0.68227,4.49371 -0.68227,4.49371 z"
       inkscape:connector-curvature="0" />
    <path
       style="fill:#000000;stroke-width:1.43800008;stroke-linejoin:miter;stroke-miterlimit:4;stroke-dasharray:none"
       id="path359"
       d="m 108.27548,147.78086 c -1.5848,-0.0323 -3.1719,-0.0166 -4.75251,-0.15014 -0.4188,-0.13146 -1.5731,0.0677 -1.84006,-0.41983 -0.0694,-0.12667 -0.0736,-0.27933 -0.11035,-0.41899 -0.12505,-0.56993 -0.0791,-1.15212 -0.0541,-1.72906 0,0 0.0291,-0.10793 0.0291,-0.10793 v 0 c 0.26751,-0.5016 0.55085,-0.99447 0.82827,-1.49065 0.43403,-0.67411 0.85509,-0.31958 1.56487,-0.24724 1.46229,0.15652 2.92833,0.25328 4.39959,0.26001 0,0 -0.0648,4.30383 -0.0648,4.30383 z"
       inkscape:connector-curvature="0" />
    <path
       style="fill:#000000;stroke-width:1.43800008;stroke-linejoin:miter;stroke-miterlimit:4;stroke-dasharray:none"
       id="path386"
       d="m 147.36836,212.8702 c 2.24895,0.61304 4.56983,0.87236 6.88587,1.06933 3.47731,0.28225 6.96797,0.22941 10.45141,0.12903 6.53,-0.30149 13.05562,-0.69206 19.58334,-1.03998 10.41247,-0.51407 20.82851,-0.95646 31.24437,-1.39651 13.02615,-0.58553 26.06157,-0.89409 39.09996,-0.98082 14.73787,-0.0602 29.46608,0.53725 44.18544,1.20451 12.51627,0.66029 25.03847,1.18443 37.56466,1.61072 6.56839,0.12842 13.11159,1.07103 19.53086,2.43988 0,0 -0.005,0.11168 -0.005,0.11168 v 0 c -6.5232,0.82579 -13.05701,1.99258 -19.66191,1.58736 -12.54609,-0.39668 -25.07937,-1.07224 -37.61533,-1.70367 -14.64514,-0.68626 -29.30097,-1.27605 -43.96579,-1.16984 -12.98883,0.12474 -25.97424,0.43569 -38.94867,1.08371 -10.39427,0.47739 -20.78908,0.95518 -31.17533,1.58757 -6.56127,0.41076 -13.11652,0.91546 -19.68091,1.275 -3.67677,0.14204 -7.35982,0.20005 -11.03112,-0.10837 -2.58461,-0.2519 -5.16106,-0.59636 -7.6729,-1.27795 0,0 1.21084,-4.42165 1.21084,-4.42165 z"
       inkscape:connector-curvature="0" />
    <path
       style="fill:#000000;stroke-width:1.43800008;stroke-linejoin:miter;stroke-miterlimit:4;stroke-dasharray:none"
       id="path388"
       d="m 360.52024,217.1922 c -1.63557,2.01824 -3.59593,3.72783 -5.59305,5.37452 -1.47352,1.18597 -2.97588,2.33536 -4.45223,3.51777 -1.41158,1.11525 -3.01683,1.59518 -4.4369,-0.12797 -0.31721,-0.38491 -0.23582,-0.96929 -0.35375,-1.45393 0.14378,-1.27452 0.79629,-2.3285 1.59385,-3.29677 1.07871,-1.19736 2.52278,-1.89455 3.96335,-2.55222 1.71278,-0.73653 3.44922,-1.4202 5.11943,-2.25097 0.25215,0.28142 2.16455,-1.63677 1.6307,-1.36259 -0.0844,0.084 -0.1171,0.19002 -0.23492,0.064 -0.2554,-0.27325 -0.4458,-0.60244 -0.69898,-0.87773 -0.57229,-0.62229 -0.97168,-0.95817 -1.61332,-1.5447 -2.39101,-2.01423 -4.9934,-3.75393 -7.45569,-5.67596 -1.03749,-1.0811 -1.93673,-2.36803 -2.42933,-3.79837 -0.38711,-1.12404 0.0594,-0.35895 -0.42532,-1.0922 0,0 0.0707,-0.0866 0.0707,-0.0866 v 0 c 0.75833,0.30277 0.0613,0.0816 1.14184,0.17189 1.46561,0.12249 2.91724,0.56184 4.2368,1.19347 2.74301,1.80924 5.41499,3.73829 7.97338,5.80045 2.14357,1.87674 4.34816,3.91491 4.02611,7.01747 -0.13483,0.3967 -0.21966,0.8141 -0.4045,1.19012 -0.76171,1.54957 -2.38426,2.3868 -3.84815,3.12539 -1.71492,0.78971 -3.46879,1.48182 -5.2012,2.23115 -0.83402,0.38692 -1.7013,0.76798 -2.39612,1.38399 -0.1314,0.13995 -0.58587,1.00743 -0.46554,0.43885 -0.44177,-1.34217 -0.22233,-1.49855 -2.0238,-2.04155 -0.58144,-0.17526 -1.65788,0.69998 -0.50114,-0.0763 1.50278,-1.06844 2.99728,-2.14922 4.46034,-3.27168 1.78684,-1.40922 3.55545,-2.86821 5.00555,-4.63472 0,0 3.31192,2.63527 3.31192,2.63527 z"
       inkscape:connector-curvature="0" />
    <path
       style="fill:#000000;stroke-width:1.43800008;stroke-linejoin:miter;stroke-miterlimit:4;stroke-dasharray:none"
       id="path390"
       d="m 232.90657,232.22717 c 0.92363,3.2351 1.70937,6.50751 2.58512,9.75578 0.69077,3.40092 2.24096,6.69104 2.54617,10.17338 0.0463,0.52781 -0.0119,1.05961 -0.0179,1.58942 -0.12791,1.03606 0.0481,2.55365 -1.21546,2.86081 0,0 -0.0396,-0.10454 -0.0396,-0.10454 v 0 c -0.84644,0.0337 -1.3659,-1.48575 -1.79079,-1.95174 -2.06657,-3.47923 -2.73717,-7.5751 -3.89935,-11.40949 -0.84488,-3.31565 -1.71484,-6.63115 -2.2871,-10.0076 0,0 4.11891,-0.90602 4.11891,-0.90602 z"
       inkscape:connector-curvature="0" />
    <path
       style="fill:#000000;stroke-width:1.43800008;stroke-linejoin:miter;stroke-miterlimit:4;stroke-dasharray:none"
       id="path392"
       d="m 227.0319,238.57629 c -0.81929,-3.61796 0.63605,-6.42122 2.60454,-9.34528 2.29978,-2.77348 5.12219,-5.22874 8.55229,-6.48497 0.62948,-0.23054 1.2907,-0.36286 1.93604,-0.54429 2.56603,-0.39177 5.30635,-0.0265 6.90555,2.28902 1.02425,1.48303 0.88577,2.22747 1.07266,3.94746 -0.31984,3.00432 -1.50904,6.00682 -3.59632,8.25077 -0.93851,1.00895 -2.65482,2.14623 -3.77166,2.9403 -1.60271,1.1294 -3.41175,1.87307 -5.19742,2.64925 0,0 -0.0637,-0.0918 -0.0637,-0.0918 v 0 c 1.27608,-1.33774 2.4294,-2.75649 3.45548,-4.30004 3.04333,-4.85123 -0.7458,1.28597 2.0781,-3.59857 1.03096,-1.78327 2.31356,-3.46837 2.58648,-5.57913 0.1376,-1.96575 -0.32523,-2.44851 -2.45675,-2.40403 -3.35263,0.66297 -6.23006,2.45299 -8.41143,5.09698 -1.30529,1.75718 -2.56922,3.75468 -2.06873,6.04215 0,0 -3.62511,1.13223 -3.62511,1.13223 z"
       inkscape:connector-curvature="0" />
    <path
       style="fill:#000000;stroke-width:1.43800008;stroke-linejoin:miter;stroke-miterlimit:4;stroke-dasharray:none"
       id="path396"
       d="m 325.43797,234.75479 c -2.00599,-0.32186 -4.01034,-0.0652 -5.97199,0.38094 -2.44173,0.59119 -4.66587,1.74507 -6.79799,3.03988 -2.34167,1.45859 -4.3031,3.3899 -6.16228,5.40512 -1.76509,1.98805 -3.26967,4.17662 -4.56358,6.49425 -1.11879,1.976 -1.75472,4.13275 -2.13403,6.35716 -0.36287,2.1638 -0.15766,4.3311 0.28028,6.46283 0.51117,2.20067 1.50664,4.21569 2.63331,6.15667 1.17454,1.9815 2.69838,3.69779 4.40587,5.22989 1.81936,1.56385 3.9697,2.61954 6.15291,3.56778 2.29471,0.95818 4.72499,1.43232 7.17627,1.76223 2.67142,0.37359 5.36512,0.34766 8.04442,0.10435 2.86282,-0.2925 5.61173,-1.13586 8.29815,-2.12902 2.52884,-0.95491 4.90649,-2.23122 7.13314,-3.75554 1.68037,-1.17064 3.07055,-2.65343 4.26249,-4.30577 0.94139,-1.32062 1.61232,-2.77917 2.06283,-4.33054 0.43637,-1.56495 0.42029,-3.16736 0.23857,-4.766 -0.24741,-1.80433 -0.79269,-3.54235 -1.44711,-5.23535 -0.63878,-1.60702 -1.53437,-3.08325 -2.59165,-4.44545 -1.09855,-1.45681 -2.48377,-2.64917 -3.88707,-3.79975 -1.80583,-1.42093 -3.72375,-2.69066 -5.6506,-3.93938 -2.2738,-1.46505 -4.60087,-2.84452 -6.95994,-4.16707 -1.87495,-1.0858 -3.85903,-1.93039 -5.93794,-2.52876 -0.8827,-0.39157 -2.01136,-0.20356 -2.87195,-0.64787 -0.0773,-0.0399 -0.96261,-0.76983 -1.06013,-0.84965 -0.40801,-0.35768 -0.80685,-0.6822 -1.29069,-0.92472 0,0 -0.0427,-0.10329 -0.0427,-0.10329 v 0 c 0.31623,-0.58 0.66212,-1.11143 1.20465,-1.51374 0.33702,-0.22391 1.10334,-0.76851 1.49418,-0.87951 1.23378,-0.35039 2.64218,0.21595 3.8441,0.40228 2.44166,0.68119 4.75565,1.70006 6.95243,2.96748 2.43951,1.37444 4.8495,2.80134 7.2091,4.30953 2.07984,1.33834 4.14997,2.69984 6.09487,4.23091 1.71153,1.40135 3.35523,2.89126 4.67407,4.6811 1.221,1.7479 2.35135,3.5598 3.12307,5.55832 0.78642,2.06632 1.43607,4.18706 1.72264,6.38692 0.2322,2.20848 0.23022,4.43302 -0.37203,6.5908 -0.62383,2.05131 -1.50688,3.99284 -2.77585,5.73394 -1.5254,2.06364 -3.2871,3.92299 -5.41742,5.37849 -2.54698,1.71223 -5.25076,3.16529 -8.13141,4.24172 -3.06583,1.12522 -6.20366,2.07317 -9.46835,2.39967 -3.02305,0.26876 -6.05433,0.28763 -9.07185,-0.0926 -2.8592,-0.38804 -5.70138,-0.94597 -8.37568,-2.06825 -2.67293,-1.12017 -5.25955,-2.45859 -7.463,-4.3711 -2.06036,-1.87129 -3.9095,-3.94011 -5.31878,-6.35704 -1.37157,-2.38228 -2.5704,-4.86985 -3.14995,-7.5765 -0.53588,-2.71768 -0.75541,-5.46751 -0.27273,-8.21748 0.53298,-2.72153 1.32832,-5.3717 2.71891,-7.79275 1.51556,-2.57968 3.20379,-5.05934 5.23222,-7.26905 2.15482,-2.32255 4.48958,-4.47956 7.21683,-6.12302 2.57235,-1.50312 5.25666,-2.82296 8.18919,-3.46006 2.50693,-0.4611 5.03174,-0.63516 7.54854,-0.0975 0,0 -0.72631,3.9045 -0.72631,3.9045 z"
       inkscape:connector-curvature="0" />
    <path
       style="fill:#ff0000;stroke-width:1.43800008;stroke-linejoin:miter;stroke-miterlimit:4;stroke-dasharray:none"
       id="path455"
       d="m 333.22696,271.06833 c 1.26347,-0.55805 2.48634,-1.21524 3.62302,-2.00099 0.52594,-0.34503 0.9924,-0.76796 1.46344,-1.18174 0.32832,-0.29527 0.62912,-0.61528 0.89754,-0.9661 0.21156,-0.35846 0.35447,-0.75903 0.51028,-1.14515 0.26733,-0.6443 0.53493,-1.28821 0.79303,-1.93624 0.20516,-0.52172 0.35119,-1.06376 0.4879,-1.60664 0.1489,-0.64453 0.21968,-1.30267 0.25307,-1.96223 0.0352,-0.62723 0.007,-1.25393 -0.0907,-1.87404 -0.0821,-0.46242 -0.24762,-0.9012 -0.42666,-1.33314 -0.33489,-0.71389 -0.7071,-1.41177 -1.15433,-2.06172 -0.41058,-0.63412 -0.91752,-1.20992 -1.46717,-1.7271 -0.66529,-0.66114 -1.36675,-1.28339 -2.07496,-1.8977 -0.88115,-0.75984 -1.77549,-1.50321 -2.69148,-2.22062 -0.67537,-0.52322 -1.42152,-0.93911 -2.14744,-1.38428 -0.71082,-0.39302 -1.40948,-0.80486 -2.11015,-1.21571 -0.6304,-0.37883 -1.27466,-0.73419 -1.92927,-1.06953 -0.54165,-0.27498 -1.10484,-0.50251 -1.67497,-0.71051 -0.45122,-0.1602 -0.91119,-0.29317 -1.38446,-0.36764 -0.4341,-0.0554 -0.85735,-0.031 -1.28222,0.0658 -0.5625,0.14088 -1.10037,0.34122 -1.64145,0.54479 -0.64402,0.33022 -1.29376,0.64823 -1.94297,0.96813 -0.5657,0.23974 -1.10034,0.51851 -1.5875,0.89246 -0.76451,0.56148 -1.57562,1.05409 -2.35833,1.58867 -0.8468,0.57354 -1.67267,1.17685 -2.41364,1.88343 -0.55795,0.49737 -0.9798,1.10955 -1.37482,1.73743 -0.26771,0.42819 -0.47536,0.88791 -0.62387,1.36978 -0.13213,0.54679 -0.22603,1.10317 -0.30948,1.65945 -0.0914,0.57812 -0.13555,1.1611 -0.16018,1.74533 -0.0225,0.57231 0.0408,1.15133 -0.0915,1.71328 -0.57759,0.35668 -1.43637,-0.52822 -1.9566,-0.11318 -0.14348,0.11447 -0.0951,0.35455 -0.14263,0.53183 0,0 0,0.11178 0,0.11178 v 0 c -0.14174,0.17632 -0.21477,0.44596 -0.42524,0.52895 -0.82085,0.32371 -1.76451,-0.66331 -2.35953,-1.06437 -0.14034,-0.6323 -0.0573,-1.28319 -0.0464,-1.92475 0.0334,-0.76385 0.0948,-1.52602 0.21312,-2.28194 0.12639,-0.82779 0.2707,-1.65392 0.52171,-2.4547 0.29427,-0.88295 0.66315,-1.73758 1.17438,-2.51938 0.64495,-0.9935 1.38279,-1.92374 2.26314,-2.72179 0.96488,-0.8355 1.96127,-1.6321 3.05133,-2.30111 0.75777,-0.47546 1.50948,-0.96123 2.22893,-1.49365 0.71795,-0.47663 1.45611,-0.9148 2.24107,-1.2726 0.7425,-0.36452 1.44537,-0.80281 2.19954,-1.14362 0.82568,-0.36189 1.69936,-0.62562 2.5781,-0.82349 1.01491,-0.19125 2.04713,-0.27558 3.06988,-0.0767 0.77007,0.13512 1.52673,0.32832 2.26018,0.60219 0.7579,0.28103 1.5059,0.58937 2.22588,0.95826 0.73435,0.38005 1.44981,0.79106 2.15527,1.22237 0.72856,0.42882 1.44643,0.8728 2.16043,1.32498 0.85519,0.52782 1.66804,1.12357 2.48251,1.71167 1.01785,0.74986 1.97228,1.57612 2.9229,2.40855 0.80185,0.68641 1.59742,1.38083 2.34278,2.1292 0.75912,0.7958 1.52099,1.58671 2.10794,2.52506 0.55327,0.9105 1.08942,1.83347 1.52826,2.80583 0.33215,0.79915 0.62013,1.61806 0.74615,2.47837 0.12496,0.92789 0.17658,1.86266 0.12179,2.7987 -0.0534,0.96313 -0.15963,1.92378 -0.38169,2.86427 -0.18828,0.75076 -0.39336,1.49912 -0.68448,2.2177 -0.26194,0.64883 -0.55705,1.28293 -0.81658,1.93284 -0.32137,0.79945 -0.6423,1.60606 -1.18695,2.28589 -0.45889,0.57769 -0.96586,1.11254 -1.52559,1.5942 -0.64415,0.55674 -1.34009,1.04562 -2.05515,1.50716 -1.37189,0.83281 -2.7864,1.58614 -4.24098,2.26556 0,0 -1.86314,-4.12162 -1.86314,-4.12162 z"
       inkscape:connector-curvature="0" />
    <path
       style="fill:#000000;stroke-width:1.43800008;stroke-linejoin:miter;stroke-miterlimit:4;stroke-dasharray:none"
       id="path457"
       d="m 310.65213,255.65766 c -1.56922,-1.24403 -3.08361,-2.55264 -4.57092,-3.89272 -1.07214,-1.03607 -2.20101,-2.03437 -3.0689,-3.25448 -0.10842,-0.99651 -0.003,-1.94682 0.40767,-2.85872 0,0 0.0911,-0.0647 0.0911,-0.0647 v 0 c 0.89205,-0.11063 1.79131,-0.12546 2.68698,-0.0366 1.07339,0.87175 1.94908,1.95323 2.97323,2.88036 1.38094,1.31976 2.8284,2.56707 4.30535,3.77811 0,0 -2.82453,3.4488 -2.82453,3.4488 z"
       inkscape:connector-curvature="0" />
    <path
       style="fill:#000000;stroke-width:1.43800008;stroke-linejoin:miter;stroke-miterlimit:4;stroke-dasharray:none"
       id="path459"
       d="m 315.81963,249.50185 c -0.98658,-1.7559 -1.83452,-3.58396 -2.69669,-5.40264 -0.70395,-1.58278 -1.5653,-2.94576 -1.23658,-4.71845 0.007,-0.68682 0.61907,-1.28521 0.5275,-1.95002 0,0 0.0994,-0.051 0.0994,-0.051 v 0 c 0.49967,0.47811 1.38002,0.36791 1.89985,0.88478 1.52304,1.03794 1.83729,2.44725 2.57804,4.06021 0.79137,1.78646 1.65473,3.53932 2.46645,5.31651 0,0 -3.63802,1.86064 -3.63802,1.86064 z"
       inkscape:connector-curvature="0" />
    <path
       style="fill:#000000;stroke-width:1.43800008;stroke-linejoin:miter;stroke-miterlimit:4;stroke-dasharray:none"
       id="path461"
       d="m 322.69117,249.23337 c -0.23002,-2.20972 -0.31125,-4.43025 -0.32964,-6.65074 -0.0722,-2.17741 -0.0367,-3.17914 1.03029,-5.06288 0.39057,-0.63764 0.20198,-0.32816 0.56602,-0.92829 0,0 0.1048,-0.0389 0.1048,-0.0389 v 0 c 0.72205,0.33715 0.3651,0.12508 1.05775,0.65773 1.54144,1.75617 1.64243,3.00531 1.61409,5.3011 0.0523,2.11372 0.11507,4.22754 0.26456,6.33698 0,0 -4.30787,0.38505 -4.30787,0.38505 z"
       inkscape:connector-curvature="0" />
    <path
       style="fill:#000000;stroke-width:1.43800008;stroke-linejoin:miter;stroke-miterlimit:4;stroke-dasharray:none"
       id="path463"
       d="m 331.16128,248.1041 c 1.23539,-1.63105 2.46015,-3.31009 4.05741,-4.60424 1.05871,-0.66844 2.37842,-0.65182 3.48054,-1.15817 0,0 0.0928,0.0624 0.0928,0.0624 v 0 c -0.10396,1.26441 -0.0384,2.53567 -0.52539,3.74836 -1.01063,1.69323 -2.4339,3.07922 -3.64823,4.62572 0,0 -3.4571,-2.67407 -3.4571,-2.67407 z"
       inkscape:connector-curvature="0" />
    <path
       style="fill:#000000;stroke-width:1.43800008;stroke-linejoin:miter;stroke-miterlimit:4;stroke-dasharray:none"
       id="path465"
       d="m 338.19687,251.21538 c 1.22057,-0.44301 2.2887,-1.36535 3.5555,-1.68993 0.12324,-0.0316 2.04361,-0.20926 2.20511,-0.2246 0.84244,-0.0636 1.67796,-0.009 2.51989,-0.062 0,0 0.0528,0.0985 0.0528,0.0985 v 0 c -0.50434,0.66695 -0.90876,1.38784 -1.39099,2.07156 -0.12692,0.16889 -1.2338,1.65337 -1.35972,1.77221 -1.01801,0.96066 -2.46988,1.38887 -3.63723,2.11819 0,0 -1.94537,-4.08392 -1.94537,-4.08392 z"
       inkscape:connector-curvature="0" />
    <path
       style="fill:#000000;stroke-width:1.43800008;stroke-linejoin:miter;stroke-miterlimit:4;stroke-dasharray:none"
       id="path467"
       d="m 342.97514,259.35348 c 1.27944,0.21301 2.68946,-0.0944 3.94933,0.24819 0.36719,0.0999 1.47926,0.72536 1.82351,0.91168 0.68767,0.37319 1.29942,0.86064 1.93757,1.30867 0,0 -0.003,0.11175 -0.003,0.11175 v 0 c -0.66175,0.41678 -1.30114,0.87227 -2.01314,1.20313 -0.37925,0.17758 -1.48812,0.72143 -1.8855,0.80279 -1.30423,0.26702 -2.72166,-0.13775 -4.03627,-0.0496 0,0 0.2272,-4.53662 0.2272,-4.53662 z"
       inkscape:connector-curvature="0" />
    <path
       style="fill:#000000;stroke-width:1.43800008;stroke-linejoin:miter;stroke-miterlimit:4;stroke-dasharray:none"
       id="path469"
       d="m 342.82046,264.79291 c 1.46754,1.39213 3.15066,2.52375 4.70003,3.81633 0.66988,1.09804 1.07456,2.29561 1.42727,3.52162 0,0 -0.0616,0.0933 -0.0616,0.0933 v 0 c -1.30755,0.16257 -2.60027,0.2515 -3.9015,-0.0577 -1.90317,-1.16393 -3.61505,-2.60315 -5.24123,-4.1263 0,0 3.07702,-3.24727 3.07702,-3.24727 z"
       inkscape:connector-curvature="0" />
    <path
       style="fill:#000000;stroke-width:1.43800008;stroke-linejoin:miter;stroke-miterlimit:4;stroke-dasharray:none"
       id="path471"
       d="m 323.66897,262.91283 c -1.52943,-1.35738 -3.13971,-2.61851 -4.7534,-3.87295 -1.54038,-1.16047 -3.11854,-2.26986 -4.69561,-3.37959 -1.46333,-1.06034 -2.87854,-2.18352 -4.2622,-3.34519 -0.63476,-0.76478 -2.02695,-1.34598 -2.30995,-2.3833 -0.054,-0.19792 -0.0156,-0.41002 -0.0236,-0.61503 -0.0298,-0.61559 0.22461,-1.11967 0.43694,-1.66869 0,0 0.0124,-0.11109 0.0124,-0.11109 v 0 c 0.51523,-0.42133 1.14935,-0.57784 1.80507,-0.64172 0.19971,-0.0118 0.40185,-0.0687 0.5991,-0.0353 1.0002,0.16912 1.6574,1.42153 2.47755,1.90148 1.28942,1.09312 2.6107,2.14747 3.97846,3.14157 1.6064,1.1912 3.25181,2.33125 4.80738,3.5897 1.64663,1.34247 3.25498,2.73075 4.82978,4.15689 0,0 -2.902,3.26325 -2.902,3.26325 z"
       inkscape:connector-curvature="0" />
    <path
       style="fill:#000000;stroke-width:1.43800008;stroke-linejoin:miter;stroke-miterlimit:4;stroke-dasharray:none"
       id="path473"
       d="m 325.12322,258.22317 c 1.36954,0.38608 2.75956,0.69522 4.16494,0.91685 1.18753,0.17139 2.36818,0.38622 3.53727,0.65643 1.33718,0.32099 2.67631,0.63355 4.02505,0.90221 1.52181,0.27693 3.03829,0.57967 4.54496,0.92953 1.25061,0.29884 2.47666,0.69792 3.6653,1.1874 1.01002,0.44595 0.95584,1.674 0.68281,2.58304 0,0 -0.1778,0.36706 -0.1778,0.36706 v 0 c -0.49371,0.65702 -1.1798,1.64581 -2.105,1.3822 -1.04015,-0.33461 -2.06663,-0.71457 -3.13287,-0.96286 -1.45333,-0.34367 -2.91278,-0.65454 -4.37812,-0.94254 -1.39568,-0.27544 -2.77791,-0.60278 -4.16033,-0.93742 -1.1016,-0.25141 -2.20681,-0.48414 -3.32357,-0.65983 -1.52495,-0.31194 -3.03725,-0.67352 -4.54038,-1.0789 0,0 1.19774,-4.34317 1.19774,-4.34317 z"
       inkscape:connector-curvature="0" />
  </g>
</svg>
