<?xml version="1.0" encoding="UTF-8" standalone="no"?>
<!-- Created with Inkscape (http://www.inkscape.org/) -->

<svg
   xmlns:dc="http://purl.org/dc/elements/1.1/"
   xmlns:cc="http://creativecommons.org/ns#"
   xmlns:rdf="http://www.w3.org/1999/02/22-rdf-syntax-ns#"
   xmlns:svg="http://www.w3.org/2000/svg"
   xmlns="http://www.w3.org/2000/svg"
   xmlns:sodipodi="http://sodipodi.sourceforge.net/DTD/sodipodi-0.dtd"
   xmlns:inkscape="http://www.inkscape.org/namespaces/inkscape"
   width="1920"
   height="1080"
   viewBox="0 0 507.99999 285.75001"
   version="1.1"
   id="svg8"
   inkscape:version="0.92.2 2405546, 2018-03-11"
   sodipodi:docname="pull_apart-2.svg">
  <defs
     id="defs2" />
  <sodipodi:namedview
     id="base"
     pagecolor="#ffffff"
     bordercolor="#666666"
     borderopacity="1.0"
     inkscape:pageopacity="0.0"
     inkscape:pageshadow="2"
     inkscape:zoom="0.37871094"
     inkscape:cx="1005.9729"
     inkscape:cy="520.65739"
     inkscape:document-units="mm"
     inkscape:current-layer="layer1"
     showgrid="false"
     units="px"
     inkscape:window-width="1348"
     inkscape:window-height="730"
     inkscape:window-x="5"
     inkscape:window-y="25"
     inkscape:window-maximized="0" />
  <metadata
     id="metadata5">
    <rdf:RDF>
      <cc:Work
         rdf:about="">
        <dc:format>image/svg+xml</dc:format>
        <dc:type
           rdf:resource="http://purl.org/dc/dcmitype/StillImage" />
        <dc:title></dc:title>
      </cc:Work>
    </rdf:RDF>
  </metadata>
  <g
     inkscape:label="Layer 1"
     inkscape:groupmode="layer"
     id="layer1"
     transform="translate(0,-11.249983)">
    <path
       id="path217"
       transform="matrix(0.26458333,0,0,0.26458333,0,11.249983)"
       style="fill:#000000;stroke-width:5.43496084;stroke-linejoin:miter;stroke-miterlimit:4;stroke-dasharray:none"
       d="m 971.71484,38.972656 c -23.39652,-0.02616 -46.7089,3.441972 -69.08593,10.644532 -5.74802,1.850131 -11.32546,4.192649 -16.98829,6.289062 -25.3353,10.977812 -48.61449,26.47479 -66.61328,47.60156 -3.20073,3.75699 -6.01962,7.82265 -9.02929,11.73438 -12.92346,19.20052 -20.73825,41.05454 -22.39844,64.17187 -0.31484,4.39466 -0.18834,8.80989 -0.2832,13.21485 0.43767,25.85741 8.17549,50.32692 18.58593,73.72265 8.51052,17.19443 19.34892,33.34855 33.54883,46.38282 2.70996,2.48753 5.63665,4.72785 8.45508,7.09179 18.31351,14.24393 40.07749,21.01957 62.44727,25.63672 24.09108,4.24645 48.58765,4.23784 72.92187,2.83594 23.52371,-1.32616 46.48861,-6.25746 68.83201,-13.52735 18.9949,-6.38301 35.9976,-16.64344 51.4688,-29.20507 11.421,-9.69477 20.0477,-21.55839 25.6523,-35.38477 3.1678,-8.8243 2.0474,-18.29412 -5.5937,-24.26172 -0.3863,-0.47579 -0.772,-0.95194 -1.1582,-1.42773 l -0.3555,0.22851 c 0.2424,0.49661 0.4843,0.99363 0.7266,1.49024 -2.2153,6.2661 -6.0919,11.69256 -7.8028,18.16211 -4.7165,11.37094 -11.8995,21.17347 -21.3027,29.19531 -13.8783,11.49659 -29.3517,20.61411 -46.4473,26.53516 -21.0318,6.96313 -42.6779,11.63962 -64.85545,12.91992 -23.01947,1.18875 -46.1717,1.33589 -68.94922,-2.78711 -19.81731,-4.07652 -39.21346,-9.97095 -55.46679,-22.55469 -16.64398,-13.75591 -28.33672,-28.16639 -37.68164,-47.79492 -9.57706,-21.23682 -16.66541,-43.4446 -17.19727,-66.96289 0.059,-3.89844 -0.0607,-7.80374 0.17774,-11.69531 1.24713,-20.33592 7.78835,-39.70314 18.99023,-56.71094 2.62156,-3.56513 5.05697,-7.2753 7.86523,-10.69531 16.14403,-19.661073 37.41574,-34.160017 60.55469,-44.369145 5.25748,-2.007545 10.43109,-4.246301 15.77149,-6.021484 27.85734,-9.259956 57.37831,-12.165469 86.55664,-9.470703 5.62254,0.820263 11.28455,1.402575 16.86715,2.460937 24.9369,4.727596 48.6344,14.593722 68.4727,30.566406 3.2082,2.969877 6.5882,5.763246 9.623,8.910157 13.9144,14.428792 23.0663,32.438202 27.3301,51.951172 0.6196,3.70654 1.4096,7.38797 1.8574,11.11914 2.094,17.44301 0.6076,35.14868 -3.0918,52.26172 -3.4601,13.63035 -7.4754,27.35569 -15.9785,38.8125 -5.0549,6.34629 -10.8844,11.82089 -17.8672,16.0332 l 6.211,10.31641 c 8.4693,-4.50261 15.4442,-10.85274 21.6269,-18.0918 9.736,-12.96793 14.5399,-28.43993 18.3867,-43.9668 2.9998,-14.50893 4.781,-29.37522 4.3223,-44.21679 -0.3288,-10.63601 -1.1202,-13.74049 -2.709,-24.28907 -4.5294,-21.9326 -14.4694,-42.16171 -29.8222,-58.572261 -3.3422,-3.57242 -7.0832,-6.750475 -10.625,-10.125 -21.4571,-17.780946 -47.2251,-28.881323 -74.4766,-34.251953 -5.9792,-1.17837 -12.052,-1.81637 -18.07812,-2.724609 -7.78601,-0.776552 -15.5957,-1.172922 -23.39454,-1.181641 z" />
    <path
       style="fill:#000000;stroke-width:1.43800008;stroke-linejoin:miter;stroke-miterlimit:4;stroke-dasharray:none"
       id="path219"
       d="m 298.05119,51.229741 c 2.46772,-1.694984 5.29942,-2.328233 8.24029,-2.479823 3.49977,0.064 6.18863,1.333384 8.72545,3.662498 1.63002,1.891008 2.69174,4.362108 1.72464,6.844297 -0.19302,0.495419 -0.51803,0.928669 -0.77706,1.393004 -2.31346,2.7427 -5.75548,3.429249 -9.13669,3.906891 -3.22967,0.447365 -5.47947,-0.05367 -8.25442,-1.683293 -0.23506,-0.160091 -0.47009,-0.320182 -0.70514,-0.480274 0,0 0.0156,-0.110675 0.0156,-0.110675 v 0 c 0.25918,-0.08999 0.51834,-0.179983 0.77753,-0.269973 2.45964,-0.885441 4.95676,-1.552583 7.58595,-1.607288 2.15013,-0.296863 4.46288,-0.599168 6.20987,-2.002152 0.9855,-1.008322 0.65387,-2.139054 -0.16483,-3.198017 -1.5629,-1.679286 -3.55169,-2.614472 -5.86245,-2.729857 -2.20425,0.03863 -4.33518,0.504238 -6.18236,1.771367 0,0 -2.19647,-3.016705 -2.19647,-3.016705 z"
       inkscape:connector-curvature="0" />
    <path
       style="fill:#000000;stroke-width:1.43800008;stroke-linejoin:miter;stroke-miterlimit:4;stroke-dasharray:none"
       id="path221"
       d="m 209.27788,57.873402 c -1.88368,-0.862907 -3.84879,-1.392883 -5.89928,-1.64062 -2.32763,-0.190418 -4.47071,0.456356 -6.4472,1.63794 -1.19964,0.888598 -2.34784,2.092301 -2.04619,3.684339 0.57097,1.311844 2.07958,1.658255 3.3384,1.985862 1.77558,0.456705 3.60159,0.09946 5.39434,0.172045 0.34001,0.01376 2.67474,0.332404 3.01128,0.377198 1.31692,0.162687 2.61639,0.421949 3.91138,0.705218 0,0 0.0147,0.11081 0.0147,0.11081 v 0 c -1.1771,0.6159 -2.35728,1.226979 -3.5736,1.763297 -0.79072,0.326665 -2.22628,0.958905 -3.05771,1.139066 -2.21483,0.479919 -4.58522,0.188235 -6.78985,-0.14599 -3.35027,-0.894246 -5.85952,-2.254186 -6.56822,-5.924666 0.001,-0.505068 -0.059,-1.013986 0.003,-1.515208 0.32508,-2.618343 2.21226,-4.604208 4.30372,-6.010688 2.82812,-1.525471 5.84509,-2.342372 9.08284,-1.922798 2.43102,0.403495 4.7716,1.139611 6.89752,2.415987 0,0 -1.57536,3.168208 -1.57536,3.168208 z"
       inkscape:connector-curvature="0" />
    <path
       style="fill:#000000;stroke-width:1.43800008;stroke-linejoin:miter;stroke-miterlimit:4;stroke-dasharray:none"
       id="path253"
       d="m 230.66697,98.494473 c -1.10095,1.297922 -2.1616,2.631707 -3.31756,3.881717 -0.72155,0.80427 -1.50412,1.55004 -2.3135,2.26471 -0.62954,0.50823 -1.13512,1.27379 -1.96538,1.40603 -0.71229,-0.0113 -1.31026,-0.51306 -1.98984,-0.60807 0,0 -0.10416,-0.0406 -0.10416,-0.0406 v 0 c -0.37546,-0.70345 -0.6144,-1.41752 -0.61283,-2.22939 0.2482,-0.8587 1.05547,-1.32532 1.68844,-1.91145 0.70427,-0.62024 1.42414,-1.22409 2.08894,-1.887706 1.12286,-1.180166 2.21854,-2.385605 3.25678,-3.641767 0,0 3.26911,2.766496 3.26911,2.766496 z"
       inkscape:connector-curvature="0" />
    <path
       style="fill:#000000;stroke-width:1.43800008;stroke-linejoin:miter;stroke-miterlimit:4;stroke-dasharray:none"
       id="path277"
       d="m 221.58697,105.74914 c -2.94179,0.46322 -5.91975,0.59737 -8.89144,0.70826 -4.26879,0.099 -8.53874,0.0364 -12.8081,0.0419 -4.07132,-0.0411 -8.1396,0.1502 -12.20116,0.41185 -3.29636,0.22346 -6.58983,0.483 -9.88582,0.71277 -2.63953,0.15799 -5.28097,0.28097 -7.91567,0.50852 -1.63256,0.13029 -3.24978,0.3847 -4.85948,0.68032 -1.0163,0.19122 -2.02476,0.41576 -3.05144,0.54513 -0.81971,0.1082 -1.64472,0.18386 -2.47046,0.22562 -0.33769,0.007 -0.67769,0.0531 -0.99912,0.14244 0.004,0.0153 0.04,0.0112 -0.0109,0.0741 0.26402,-0.32335 0.11882,0.0206 0.0827,0.2692 -0.12466,0.84473 -0.24375,1.69026 -0.35888,2.53633 -0.14734,1.06839 -0.25033,2.14234 -0.3527,3.2158 -0.11053,1.2164 -0.24213,2.43072 -0.36282,3.64612 -0.11478,1.22889 -0.20861,2.46037 -0.25152,3.69395 -0.0488,1.34737 -0.0334,2.69436 0.0362,4.04048 0.0639,1.32979 0.31381,2.63633 0.6069,3.9315 0.38022,1.43959 0.96762,2.81058 1.51473,4.19164 0.8086,1.93205 1.6013,3.87101 2.44123,5.78971 0.90147,2.08907 1.93776,4.11673 3.08006,6.0835 1.24326,2.15402 2.60733,4.23431 3.98431,6.30423 1.50778,2.29224 3.16725,4.47201 4.98245,6.52803 1.83477,2.06456 4.02025,3.74638 6.29223,5.29544 2.48421,1.63615 5.06374,3.12151 7.6173,4.64549 2.77306,1.66044 5.5835,3.25644 8.4182,4.80887 2.52095,1.49834 5.36772,2.46449 7.67095,4.29671 1.48633,1.18681 2.30344,2.98333 3.68387,4.24082 0,0 -0.06,0.0943 -0.06,0.0943 v 0 c -1.68132,-0.69302 -3.59615,-0.37759 -5.3672,-0.75451 -2.93957,-0.69793 -5.51646,-2.39329 -8.19305,-3.74335 -2.88345,-1.58107 -5.7445,-3.20242 -8.56997,-4.88527 -2.64968,-1.57559 -5.29462,-3.16227 -7.86188,-4.87021 -2.55033,-1.8005 -5.0185,-3.72466 -7.09872,-6.07083 -1.94863,-2.21335 -3.74511,-4.55087 -5.35348,-7.0248 -1.44307,-2.15808 -2.87028,-4.32862 -4.17028,-6.577 -1.18404,-2.12608 -2.35586,-4.26072 -3.29934,-6.5081 -0.85721,-1.94722 -1.73738,-3.88454 -2.54448,-5.85345 -0.68536,-1.58973 -1.34411,-3.19752 -1.7782,-4.87729 -0.39896,-1.57349 -0.66991,-3.17632 -0.75564,-4.7996 -0.0765,-1.48158 -0.11471,-2.96648 -0.0689,-4.44978 0.0448,-1.3376 0.10098,-2.67435 0.24568,-4.00584 0.11944,-1.20858 0.24875,-2.4162 0.3572,-3.62586 0.10683,-1.13519 0.21294,-2.27092 0.3638,-3.40129 0.11407,-0.86903 0.23122,-1.73765 0.35312,-2.60563 0.15171,-1.01606 0.36891,-2.01715 1.06993,-2.81266 0.59724,-0.64624 1.27265,-1.20507 2.12302,-1.48263 0.74894,-0.22919 1.5103,-0.38332 2.2976,-0.39092 0.66706,-0.0299 1.33469,-0.0533 1.99662,-0.15073 0.97072,-0.166 1.94502,-0.31064 2.91253,-0.49547 1.76148,-0.30206 3.53265,-0.54305 5.31444,-0.68932 2.66954,-0.20809 5.34263,-0.35816 8.0166,-0.49667 3.30684,-0.17346 6.60768,-0.44116 9.91347,-0.63333 4.158,-0.20099 8.31826,-0.36026 12.48236,-0.31845 4.21043,0.0353 8.42249,0.0886 12.6323,-0.0119 2.7699,-0.0891 5.54826,-0.2144 8.28821,-0.65636 0,0 0.76265,4.5282 0.76265,4.5282 z"
       inkscape:connector-curvature="0" />
    <path
       style="fill:#000000;stroke-width:1.43800008;stroke-linejoin:miter;stroke-miterlimit:4;stroke-dasharray:none"
       id="path279"
       d="m 209.32573,181.98905 c 0.2262,1.77344 0.59349,3.52075 1.14159,5.22201 0.3544,0.85761 0.69218,1.90614 1.52287,2.4253 0.31383,0.13512 0.53281,-0.0681 0.78453,-0.23803 0.48561,-0.41112 0.79804,-0.96556 0.93873,-1.58163 -0.0193,-0.65144 -0.0796,0.96435 0.39549,0.83507 1.3127,-0.35714 2.48599,-1.1058 3.72899,-1.6587 -0.30123,-1.18526 -0.1714,-0.64282 0.94004,-0.35412 0.66789,0.10794 1.53801,0.26105 2.08559,-0.24859 0.11263,-0.15595 0.0717,-0.29566 -0.0332,-0.43504 -0.64675,-2.18983 0.87584,-3.52904 3.08563,-3.12071 1.26612,0.45863 2.57491,0.73495 3.90755,0.90549 0.12927,0.0577 3.10753,0.11211 2.73847,-0.37808 -0.71515,0.46585 -0.36541,0.27778 -1.15784,-0.48873 -0.80457,-0.70827 -1.7927,-1.11485 -2.80235,-1.43239 -1.79679,-0.51426 -0.88326,-0.59176 0.44413,-4.25153 0.0212,-0.0584 1.57703,0.008 1.6609,0.008 1.75954,-0.007 3.5131,-0.15695 5.26269,-0.32989 1.31137,-0.25094 2.80522,-0.15553 4.02516,-0.77052 -0.68781,0.22397 -0.75948,1.00787 -0.67268,1.68088 0.01,0.0767 0.0988,0.14773 0.0725,0.22049 -0.0162,0.0449 -0.088,-0.0373 -0.13193,-0.0559 -1.00176,-0.53855 -2.10662,-0.83764 -3.19707,-1.13737 -0.99036,-0.30428 -2.26088,-0.45239 -2.99723,-1.27341 -0.26071,-0.2907 -0.44453,-0.6421 -0.66679,-0.96315 -0.0108,-0.54033 -0.16226,-1.09637 -0.0324,-1.62098 0.36846,-1.48908 2.31921,-2.07539 3.53539,-2.59594 1.47936,-0.62959 2.93639,-1.31249 4.22567,-2.28063 1.07128,-0.88701 0.39232,-1.11121 0.46841,-0.0827 -0.005,0.036 0.02,0.10024 -0.0155,0.10792 -0.25936,0.056 -1.06413,-0.2879 -1.29841,-0.32694 -0.72801,-0.1213 -0.89927,-0.11255 -1.65312,-0.16154 -1.80945,-0.10582 -3.57666,0.27582 -5.30495,0.76539 -1.29696,0.40557 -2.51771,1.00589 -3.77537,1.51289 -1.73848,0.69094 -2.23772,0.38357 -3.76207,-0.54998 -0.68918,-0.49794 -0.34958,-0.28221 -1.01102,-0.65927 0,0 -0.006,-0.11162 -0.006,-0.11162 v 0 c 0.60166,-0.43885 0.30543,-0.18709 0.87737,-0.76842 0.3594,-0.37856 0.81258,-1.06704 1.15844,-1.3813 0.29937,-0.27201 0.84883,-0.24785 1.17939,-0.46529 1.40278,-0.54753 2.77063,-1.19629 4.23258,-1.5807 2.1973,-0.5952 4.45012,-0.94084 6.73428,-0.80624 2.24165,0.204 4.54665,0.51552 6.08593,2.33465 0.17162,0.37827 0.41784,0.73092 0.51487,1.13481 0.4264,1.7749 -0.79579,3.23708 -2.07045,4.26191 -1.53332,1.09847 -3.18812,1.98751 -4.92738,2.71893 -0.48299,0.23077 -0.97262,0.53849 -1.468,0.73974 -0.23011,0.0935 0.27192,-0.43885 0.28943,-0.68661 0.0283,-0.39999 -0.10119,-0.79558 -0.15178,-1.19337 -0.39503,-0.4482 -0.58013,-0.69795 -0.63199,-0.62549 -0.0735,0.10267 1.51968,0.56174 1.57708,0.57324 1.56147,0.43765 3.14233,0.89104 4.52834,1.76027 2.17902,1.69936 2.5222,3.88323 -0.11703,5.37468 -1.6713,0.63463 -3.43219,0.86756 -5.20579,1.0397 -1.86783,0.18456 -3.73897,0.34564 -5.61654,0.38392 -1.56995,0.0349 0.0976,-5.3e-4 -1.21239,0.0232 -0.10579,0.002 -0.32154,0.11307 -0.31733,0.007 0.18169,-4.55732 -0.56978,-4.4089 0.72842,-3.94839 1.61944,0.58274 3.174,1.35046 4.43725,2.54543 1.84047,1.99064 2.83303,4.05216 1.0107,6.48968 -0.30502,0.24343 -0.58314,0.52506 -0.91507,0.73028 -1.54203,0.95338 -3.48337,0.87168 -5.21194,0.74344 -1.49139,-0.19183 -2.97069,-0.46021 -4.40227,-0.93242 0.63499,-0.0107 0.98979,0.008 1.66382,-0.72071 0.33638,-0.36392 0.35336,-0.92796 0.48014,-1.40704 0.02,-0.0756 -0.0558,-0.30752 -0.047,-0.22983 0.0309,0.27249 0.14543,0.53224 0.14948,0.80901 0.10174,1.85465 -0.42284,3.44955 -1.97193,4.59329 -1.73374,1.00046 -3.5769,1.27442 -5.53695,0.77694 -1.85084,-0.52503 -3.56212,-1.27123 -4.13983,-3.27549 1.22119,-0.71369 2.32269,-1.69086 3.66358,-2.14106 0.28754,-0.0965 0.3986,0.46272 0.54652,0.72752 0.49788,0.89127 0.40775,1.94039 0.19554,2.89228 -0.56573,1.74527 -1.49583,3.26845 -3.10845,4.23793 -1.91827,0.92323 -3.87481,1.03711 -5.6572,-0.29155 -1.35849,-1.25763 -2.28538,-2.76265 -2.77976,-4.56025 -0.54672,-1.93941 -0.92855,-3.91753 -1.16706,-5.91904 0,0 4.15643,-0.54123 4.15643,-0.54123 z"
       inkscape:connector-curvature="0" />
    <path
       style="fill:#000000;stroke-width:1.43800008;stroke-linejoin:miter;stroke-miterlimit:4;stroke-dasharray:none"
       id="path281"
       d="m 222.42872,170.37237 c -2.32505,-0.0669 -4.61431,-0.46438 -6.87849,-0.9703 -2.24615,-0.52118 -4.38229,-1.38296 -6.44788,-2.39229 -1.80403,-0.90172 -3.47114,-2.0386 -5.0508,-3.28577 -1.49978,-1.18987 -2.87989,-2.51843 -4.27879,-3.82252 -1.39256,-1.31177 -2.76781,-2.6389 -4.12634,-3.98556 -1.48066,-1.52714 -2.77803,-3.21013 -3.93107,-4.99418 -1.09559,-1.74415 -2.03519,-3.5795 -2.97042,-5.41273 -0.80363,-1.63908 -1.65546,-3.25285 -2.55266,-4.8424 -0.70144,-1.18343 -1.44544,-2.34261 -2.21623,-3.48212 -0.0475,-0.0808 -0.44497,-0.72761 -0.45771,-0.85789 -0.0597,-0.61078 0.43266,-1.40636 0.77754,-1.85909 0.11003,-0.0591 0.22006,-0.11822 0.33009,-0.17734 0,0 0.0974,0.0548 0.0974,0.0548 v 0 c 0.0815,-0.008 0.16301,-0.0168 0.24451,-0.0252 1.01375,-0.43903 1.70861,-0.46291 2.37458,0.52002 0.87725,1.22827 1.67936,2.50539 2.41954,3.82112 0.91798,1.64095 1.79318,3.3046 2.62043,4.99333 0.8663,1.6998 1.69499,3.42263 2.72138,5.03479 1.03681,1.53863 2.14941,3.02495 3.48022,4.32618 1.29976,1.34641 2.66482,2.62871 4.0108,3.92863 1.27862,1.24966 2.58739,2.47006 3.95294,3.62467 1.36817,1.08477 2.76411,2.13651 4.32487,2.93509 1.77805,0.93176 3.62152,1.73503 5.56078,2.2716 2.04407,0.5439 4.11914,0.9606 6.22539,1.17785 0,0 -0.23011,3.41931 -0.23011,3.41931 z"
       inkscape:connector-curvature="0" />
    <path
       style="fill:#000000;stroke-width:1.43800008;stroke-linejoin:miter;stroke-miterlimit:4;stroke-dasharray:none"
       id="path283"
       d="m 239.64152,176.32705 c 2.5737,1.06107 4.78891,2.66355 6.6876,4.67873 1.63511,2.00628 2.7238,4.47013 2.37159,7.10937 -0.0707,0.52985 -0.24416,1.04084 -0.36624,1.56126 -1.36764,3.51738 -4.41272,5.25574 -7.81743,6.40212 -3.49936,1.03051 -7.00391,0.79138 -10.40241,-0.4169 -2.36473,-1.0847 -4.33414,-2.9426 -4.76008,-5.61688 -0.0762,-0.47819 -0.0427,-0.9675 -0.064,-1.45125 0.29699,-2.63674 1.92304,-4.16551 4.51664,-4.44198 0.18069,-0.0355 0.36137,-0.071 0.54205,-0.10645 0,0 0.0526,0.0986 0.0526,0.0986 v 0 c -0.11146,0.12028 -0.22293,0.24056 -0.3344,0.36085 -0.37051,1.32697 -0.2827,2.59562 -0.34521,3.95034 -0.008,1.40294 0.6918,2.29384 1.96005,2.91272 2.39029,0.90894 4.88418,0.98368 7.36592,0.33849 1.92522,-0.64471 3.90759,-1.41907 4.97891,-3.26403 0.69238,-1.6899 0.30022,-3.25755 -0.74222,-4.73626 -1.40301,-1.72357 -3.10692,-3.08763 -5.13128,-4.03128 0,0 1.48797,-3.34749 1.48797,-3.34749 z"
       inkscape:connector-curvature="0" />
    <path
       style="fill:#000000;stroke-width:1.43800008;stroke-linejoin:miter;stroke-miterlimit:4;stroke-dasharray:none"
       id="path285"
       d="m 299.10439,85.885204 c -0.0717,1.75527 0.27075,3.473114 0.7684,5.14545 0.46726,1.516595 1.18999,2.917122 2.10333,4.208294 0.64183,0.850349 1.50403,1.365832 2.47923,1.742503 1.11884,0.367752 2.27081,0.624361 3.41328,0.906947 1.36311,0.325128 2.70944,0.716862 4.06141,1.084953 1.73252,0.48251 3.4829,0.894064 5.23465,1.299369 2.24644,0.5295 4.53094,0.85656 6.81818,1.14694 2.98101,0.296 5.94537,0.6909 8.89661,1.20247 3.57286,0.6943 7.04983,1.77132 10.49944,2.9152 3.41021,1.13394 6.7619,2.43252 9.96672,4.06096 2.9287,1.45885 5.33371,3.59587 7.43638,6.06678 2.05544,2.56726 3.4418,5.55084 4.68357,8.57148 1.30522,3.29412 2.20943,6.72465 2.89507,10.19535 0.61413,3.1118 0.90181,6.27181 1.0735,9.43478 0.19743,2.74396 -0.10546,5.42581 -0.92887,8.04234 -0.91149,2.62878 -2.75773,4.62156 -4.82952,6.39467 -2.0946,1.64293 -4.32107,3.10805 -6.50701,4.62501 -2.26446,1.63785 -4.55334,3.23952 -6.92361,4.72078 -2.56622,1.63163 -5.30575,2.94895 -8.11462,4.10077 -2.72155,1.114 -5.59614,1.70892 -8.48756,2.1687 -2.33381,0.30282 -4.65699,0.67191 -6.95381,1.18607 -1.83248,0.42497 -3.6082,1.05092 -5.41483,1.56803 -2.03263,0.62455 -2.60059,0.70505 -4.41645,-0.42828 -0.63148,-0.49019 -0.33893,-0.24756 -0.88199,-0.7226 0,0 -3e-5,-0.11178 -3e-5,-0.11178 v 0 c 0.4566,-0.47327 0.23011,-0.21333 0.67104,-0.78707 0.3787,-0.45642 0.86013,-1.14978 1.36665,-1.46642 0.58306,-0.36448 1.42714,-0.30703 2.03997,-0.59954 1.89248,-0.58229 3.77885,-1.19406 5.70976,-1.63944 2.38617,-0.52179 4.79594,-0.89075 7.21963,-1.19216 2.58127,-0.40186 5.15337,-0.89258 7.59981,-1.84058 2.60255,-1.01474 5.13916,-2.19244 7.52224,-3.65847 2.31463,-1.44811 4.56819,-2.98455 6.79355,-4.56638 2.07809,-1.4448 4.22436,-2.79683 6.21651,-4.36088 1.52607,-1.2943 2.93841,-2.67652 3.66819,-4.58999 0.7162,-2.15277 0.91339,-4.37608 0.77099,-6.64126 -0.14705,-2.97305 -0.40103,-5.9445 -0.96975,-8.87055 -0.6718,-3.22325 -1.47264,-6.422 -2.70923,-9.48265 -1.09098,-2.64464 -2.29184,-5.26688 -4.07281,-7.5303 -1.7486,-2.08372 -3.75626,-3.87993 -6.20453,-5.11716 -3.04631,-1.52006 -6.20548,-2.77896 -9.44605,-3.82573 -3.28173,-1.08584 -6.58648,-2.13138 -9.97812,-2.82071 -2.86353,-0.57005 -5.75651,-0.94723 -8.66053,-1.24551 -2.41509,-0.2976 -4.82714,-0.63559 -7.20055,-1.18316 -1.80065,-0.40849 -3.59085,-0.86316 -5.37697,-1.33097 -1.32811,-0.35463 -2.65483,-0.71447 -3.98235,-1.07119 -1.31662,-0.32545 -2.64552,-0.62052 -3.92499,-1.07588 -1.65113,-0.684628 -3.1025,-1.640914 -4.13499,-3.137977 -1.124,-1.644983 -2.00255,-3.437133 -2.54989,-5.358728 -0.55073,-2.076558 -0.89787,-4.192008 -0.74869,-6.349656 0,0 3.50964,0.217175 3.50964,0.217175 z"
       inkscape:connector-curvature="0" />
    <path
       style="fill:#000000;stroke-width:1.43800008;stroke-linejoin:miter;stroke-miterlimit:4;stroke-dasharray:none"
       id="path287"
       d="m 320.83023,176.68724 c -0.45112,2.53408 -1.31205,4.94933 -2.46573,7.24179 -1.10604,2.09382 -2.67608,3.65596 -4.90604,4.45443 -2.74931,0.53071 -4.37957,-0.6858 -5.66851,-2.99906 -0.88972,-2.1026 -0.73663,-4.2951 -0.10409,-6.43436 0.10761,-0.37726 1.42449,-2.9655 2.04819,-2.59895 3.58712,2.10814 3.34912,1.81916 2.38337,3.71828 -1.25762,1.59526 -3.12444,2.22674 -5.03965,2.63362 -2.39414,0.3303 -4.23828,-0.17608 -6.05359,-1.75263 -1.64751,-1.89396 -1.51141,-4.09544 -0.58608,-6.27413 0.47077,-1.0467 1.31495,-1.81298 2.04393,-2.66657 0.0508,-0.0595 0.17283,-0.26117 0.131,-0.19499 -0.11594,0.18336 -0.23556,0.36439 -0.35332,0.54659 1.47372,4.32663 -0.13246,1.64879 1.56247,2.74866 0.0164,0.0106 -0.12536,0.0106 -0.81585,0.0896 -1.34207,0.15348 -0.15912,0.0356 -1.60898,0.17045 -2.05875,0.22758 -4.00555,-0.0436 -5.82192,-1.03928 -2.21332,-1.75393 -2.19239,-3.75558 -1.13395,-6.16627 1.22182,-2.15552 3.20858,-3.55387 5.36747,-4.65631 1.88153,-0.87065 3.91472,-1.21924 5.96516,-1.36522 0.15777,-0.012 0.31676,-0.0131 0.47332,-0.0361 0.47783,-0.0703 -1.04865,0.28298 -1.25857,0.71797 -0.30928,0.64091 -0.1351,1.41766 -0.16069,2.12884 -0.005,0.15022 0.41064,0.43581 -0.20148,-0.0776 -1.12238,-0.87964 -2.12807,-1.8793 -2.98272,-3.01936 -0.92009,-1.29603 -1.17811,-2.87251 0.0292,-4.12799 0.23262,-0.24193 0.56555,-0.36158 0.84831,-0.54237 1.41216,-0.50962 2.93886,-0.53738 4.42124,-0.6611 1.39366,0.0727 2.91949,-0.56276 4.30633,-0.27144 0.26942,0.0566 0.50763,0.21323 0.76147,0.31984 0.76314,0.25973 1.31397,0.86214 2.00443,1.23479 0,0 0.0138,0.11094 0.0138,0.11094 v 0 c -0.58494,0.53304 -0.98576,1.25243 -1.68656,1.67181 -0.22707,0.15945 -0.4277,0.36553 -0.6812,0.47836 -1.31863,0.5869 -2.97571,0.27509 -4.35464,0.5829 -0.96658,0.0897 -1.98133,0.19622 -2.92344,0.29479 0.52306,-0.49318 0.86345,-1.19327 0.49348,-1.88573 -0.0562,-0.10529 0.36647,1.07687 0.15671,0.322 0.6163,0.88572 1.39134,1.62823 2.25531,2.27332 0.22651,0.18574 1.05825,0.83012 1.10969,1.0693 0.54792,2.54719 -0.0526,3.51645 -2.43382,3.57117 -1.4845,0.0152 -2.94183,0.29788 -4.30782,0.89397 -1.34379,0.65653 -2.6148,1.4641 -3.44106,2.74944 -0.10115,0.17814 -0.1674,0.37714 -0.28718,0.54332 -0.0371,0.0514 -0.21082,0.017 -0.22204,0.0614 -0.008,0.0329 0.0175,0.0656 0.0262,0.0984 0.9116,0.68379 2.18737,0.46665 3.24742,0.42786 0.79761,-0.0811 3.78701,-0.61927 4.30654,-0.005 0.61196,0.72324 0.73941,1.74456 1.10911,2.61685 -0.15602,0.30184 -0.28556,0.61891 -0.46805,0.90553 -0.43209,0.67867 -1.26476,1.08567 -1.58694,1.85782 -0.22209,0.41413 -0.48731,0.88718 -0.35187,1.37044 0.51125,0.73456 1.47301,0.75889 2.2879,0.68696 0.79825,-0.1222 1.54747,-0.34008 2.23192,-0.77417 -0.38737,1.49053 -0.36237,0.95787 2.90455,2.60639 0.45757,0.2309 0.88124,-1.16791 0.33832,-0.10618 -0.36584,1.03789 -0.49234,2.12299 -0.15566,3.19173 0.12415,0.32392 0.21037,0.79451 0.58381,0.88979 1.20594,-0.17567 1.91135,-1.36459 2.52439,-2.29427 1.03978,-1.90083 1.80573,-3.92776 2.24874,-6.05304 0,0 3.87779,0.72305 3.87779,0.72305 z"
       inkscape:connector-curvature="0" />
    <path
       style="fill:#000000;stroke-width:1.43800008;stroke-linejoin:miter;stroke-miterlimit:4;stroke-dasharray:none"
       id="path289"
       d="m 313.95043,157.28234 c 2.0534,-0.39791 4.07185,-0.94828 6.08044,-1.5265 2.75423,-0.79376 5.47412,-1.69941 8.17668,-2.65282 2.4501,-0.8553 4.8654,-1.80102 7.24906,-2.82602 1.39025,-0.60386 2.76505,-1.24768 3.99441,-2.14106 0.45302,-0.35585 0.66281,-0.79648 0.81793,-1.33177 0.18307,-0.88586 0.38452,-1.76785 0.58627,-2.64962 0.23847,-0.89749 0.33401,-1.79511 0.22434,-2.7158 -0.30742,-1.4988 -1.01897,-2.85602 -1.77845,-4.16795 -1.1543,-1.94804 -2.60186,-3.69196 -4.14092,-5.34369 -1.61951,-1.73372 -3.4835,-3.19144 -5.43843,-4.52276 -2.01081,-1.33231 -4.17758,-2.38908 -6.40358,-3.305 -2.13098,-0.85472 -4.37597,-1.33426 -6.63432,-1.69968 -1.77157,-0.28468 -3.56976,-0.33216 -5.3404,-0.6173 -1.10945,-0.4602 -2.03361,-1.27268 -2.8462,-2.14197 0,0 0.007,-0.11157 0.007,-0.11157 v 0 c 0.91236,-0.76655 1.93235,-1.46017 3.09202,-1.7789 1.93757,-0.0646 3.86694,0.14789 5.7802,0.44465 2.57569,0.43071 5.13424,0.99516 7.56359,1.97771 2.49515,1.03372 4.92577,2.2213 7.17814,3.72234 2.21158,1.51338 4.32438,3.17172 6.17165,5.12284 1.76358,1.90054 3.41974,3.90221 4.72718,6.15139 1.01764,1.83429 2.01313,3.72362 2.31007,5.82903 0.13272,1.3878 0.0688,2.75536 -0.29284,4.10923 -0.22796,1.00389 -0.42418,2.01639 -0.70117,3.00792 -0.46088,1.36983 -1.17449,2.59006 -2.37133,3.45058 -1.48847,1.09451 -3.1551,1.88192 -4.85449,2.59604 -2.48174,1.04242 -5.00243,1.98965 -7.55256,2.85183 -2.79085,0.93868 -5.58406,1.87381 -8.42119,2.66544 -2.13016,0.58475 -4.2704,1.14173 -6.44974,1.51425 0,0 -0.73322,-3.91084 -0.73322,-3.91084 z"
       inkscape:connector-curvature="0" />
    <path
       style="fill:#000000;stroke-width:1.43800008;stroke-linejoin:miter;stroke-miterlimit:4;stroke-dasharray:none"
       id="path291"
       d="m 313.84081,120.09288 c 0.69305,3.54625 1.48505,7.07223 2.23859,10.60596 1.05994,4.77517 1.89097,9.59398 2.5043,14.44576 0.44524,3.90227 0.77322,7.82374 0.67686,11.75306 -0.30189,1.83258 -1.12062,3.44074 -1.90651,5.0857 0,0 -0.11112,-0.012 -0.11112,-0.012 v 0 c -0.43617,-1.68897 -1.51755,-3.21443 -1.78099,-4.97889 -0.28745,-3.78485 -0.33057,-7.58794 -0.80894,-11.35829 -0.58174,-4.7444 -1.35186,-9.46076 -2.36913,-14.13287 -0.74689,-3.56355 -1.51583,-7.12261 -2.22692,-10.69355 0,0 3.78386,-0.71484 3.78386,-0.71484 z"
       inkscape:connector-curvature="0" />
    <path
       style="fill:#000000;stroke-width:1.43800008;stroke-linejoin:miter;stroke-miterlimit:4;stroke-dasharray:none"
       id="path293"
       d="m 187.23222,134.01278 c 1.59933,-1.20013 3.3122,-2.23513 5.07539,-3.17363 1.10512,-0.56011 2.22497,-1.09969 3.40521,-1.48168 1.81586,-0.42908 2.95578,0.73816 3.78856,2.17382 0.89079,1.79752 1.38468,3.75885 1.87066,5.69575 0.62859,2.65682 1.34601,5.28621 2.24334,7.86492 0.74167,2.21223 1.81264,4.28507 2.87737,6.35331 0.97033,1.50619 1.00078,2.97446 0.81495,4.69732 0.002,0.1582 0.004,0.31641 0.006,0.47461 0,0 -0.095,0.059 -0.095,0.059 v 0 c -0.14044,-0.071 -0.28088,-0.14196 -0.42132,-0.21294 -1.80705,-0.62565 -3.00688,-1.25134 -3.9501,-3.01002 -1.30123,-2.22752 -2.38904,-4.57194 -3.2238,-7.01531 -0.88124,-2.69274 -1.61511,-5.42827 -2.24721,-8.19027 -0.42219,-1.62309 -0.80486,-3.26504 -1.44683,-4.81972 -0.40916,-0.95489 0.29092,0.0918 0.81193,-0.34625 -0.94613,0.12404 -1.7889,0.79976 -2.67202,1.11142 -1.59447,0.82447 -3.13562,1.74857 -4.57799,2.82006 0,0 -2.25876,-3.00035 -2.25876,-3.00035 z"
       inkscape:connector-curvature="0" />
    <path
       style="fill:#000000;stroke-width:1.43800008;stroke-linejoin:miter;stroke-miterlimit:4;stroke-dasharray:none"
       id="path295"
       d="m 206.29847,183.33777 c 0.25171,2.9048 0.4775,5.81175 0.70884,8.71826 0.29673,4.0319 0.50693,8.07019 0.7038,12.10812 0.1614,4.35514 0.59105,8.68937 1.09672,13.01563 0.56688,4.13775 1.35194,8.23998 1.97064,12.36957 0.20918,2.24355 0.10834,4.76433 -1.22587,6.67674 0,0 -0.11172,-0.004 -0.11172,-0.004 v 0 c -1.30668,-1.80956 -2.50985,-3.70873 -2.91885,-5.95072 -0.79087,-4.16812 -1.50377,-8.35457 -2.00597,-12.56822 -0.56192,-4.42437 -0.8999,-8.87036 -1.08766,-13.32642 -0.20322,-4.00934 -0.40128,-8.01883 -0.65235,-12.02554 -0.17413,-2.89593 -0.33073,-5.7934 -0.54192,-8.68681 0,0 4.06434,-0.32696 4.06434,-0.32696 z"
       inkscape:connector-curvature="0" />
    <path
       style="fill:#000000;stroke-width:1.43800008;stroke-linejoin:miter;stroke-miterlimit:4;stroke-dasharray:none"
       id="path299"
       d="m 208.98299,235.45395 c -3.56627,1.70584 -7.33136,2.94399 -11.06834,4.21259 -5.09847,1.63317 -10.11263,3.50039 -15.01493,5.64997 -3.99432,1.73845 -7.75609,3.94065 -11.48999,6.16943 -1.32901,0.83837 -3.98167,1.78613 -5.60024,1.37125 -0.22528,-0.0577 -0.41775,-0.20452 -0.62663,-0.30678 0,0 -0.0321,-0.10707 -0.0321,-0.10707 v 0 c 0.70215,-1.97684 2.17747,-3.69196 3.93903,-4.79086 3.88176,-2.38035 7.89225,-4.54689 12.05316,-6.40258 5.03465,-2.14377 10.15718,-4.05437 15.36616,-5.73472 3.55031,-1.19886 7.12796,-2.36095 10.53371,-3.9368 0,0 1.9402,3.87557 1.9402,3.87557 z"
       inkscape:connector-curvature="0" />
    <path
       style="fill:#000000;stroke-width:1.43800008;stroke-linejoin:miter;stroke-miterlimit:4;stroke-dasharray:none"
       id="path301"
       d="m 164.92807,251.3984 c -0.11335,-2.80462 -0.88348,-5.50886 -1.79318,-8.14464 -1.02914,-2.92696 -2.58233,-5.58513 -4.63941,-7.89721 -1.18465,-1.18088 -2.55244,-2.17342 -4.2837,-2.03305 -1.31113,0.30946 -2.08868,1.29471 -2.75556,2.39137 -0.85222,1.74629 -0.78856,3.59779 -0.4627,5.46098 0.56122,2.45495 1.73861,4.69473 2.92586,6.89393 1.27041,2.23245 2.60148,4.43169 3.80635,6.70057 1.07288,1.95816 2.05103,3.96641 3.02799,5.97356 0.7978,1.42676 0.88736,2.77439 0.23075,4.25325 -0.27694,0.4373 -0.18534,0.24245 -0.31563,0.56356 0,0 -0.0656,0.0905 -0.0656,0.0905 v 0 c -0.46533,0.04 -0.19278,0.0307 -0.81808,-0.007 -1.52832,-0.5222 -2.55217,-1.36336 -3.12164,-2.92568 -0.93986,-1.96343 -1.92513,-3.90465 -2.89274,-5.85449 -1.19379,-2.26249 -2.42132,-4.5053 -3.65994,-6.74334 -1.40797,-2.6206 -2.77501,-5.29897 -3.39379,-8.2337 -0.4683,-2.92324 -0.48261,-5.843 1.00642,-8.5059 1.51686,-2.38987 3.52944,-4.21042 6.47119,-4.47173 3.32896,0.0884 5.28492,1.19993 7.60126,3.56743 2.38314,2.77371 4.27791,5.87849 5.51309,9.33662 1.04622,3.03263 1.91995,6.1338 2.1487,9.34986 0,0 -4.52962,0.23508 -4.52962,0.23508 z"
       inkscape:connector-curvature="0" />
    <path
       style="fill:#000000;stroke-width:1.43800008;stroke-linejoin:miter;stroke-miterlimit:4;stroke-dasharray:none"
       id="path303"
       d="m 161.46683,263.82795 c 2.53812,-0.68777 5.03702,-1.5083 7.54515,-2.29605 3.4425,-1.06641 6.89348,-2.10517 10.33402,-3.17806 4.21832,-1.31635 8.39536,-2.75892 12.57857,-4.18169 5.37602,-1.85336 10.83462,-3.44695 16.31257,-4.96669 5.87011,-1.56948 11.80113,-2.89055 17.75009,-4.12143 5.50448,-1.11403 11.04334,-2.05774 16.60805,-2.81401 4.65857,-0.64317 9.34889,-1.01728 14.04639,-1.20515 3.80558,-0.35698 7.44881,0.72337 11.03599,1.8485 0.4604,0.11039 0.92077,0.22079 1.38118,0.33118 0,0 -0.003,0.11175 -0.003,0.11175 v 0 c -0.46524,0.0906 -0.93049,0.18112 -1.39573,0.27168 -3.54408,0.93407 -7.10452,1.97012 -10.80001,1.96257 -4.55838,0.26002 -9.11668,0.55008 -13.64212,1.18317 -5.46279,0.77 -10.91256,1.62397 -16.31601,2.74671 -5.85495,1.20463 -11.70056,2.47105 -17.46755,4.05156 -5.39642,1.46344 -10.74672,3.08472 -16.02451,4.93459 -4.21518,1.45651 -8.42645,2.92689 -12.66402,4.31663 -3.44296,1.08406 -6.89623,2.13424 -10.35236,3.17546 -2.57552,0.78501 -5.15073,1.57343 -7.74861,2.28196 0,0 -1.1787,-4.45268 -1.1787,-4.45268 z"
       inkscape:connector-curvature="0" />
    <path
       style="fill:#000000;stroke-width:1.43800008;stroke-linejoin:miter;stroke-miterlimit:4;stroke-dasharray:none"
       id="path305"
       d="m 264.57806,241.61311 c 2.37774,-0.53944 4.77661,-0.97249 7.18987,-1.31605 4.02786,-0.53789 8.08903,-0.73991 12.14618,-0.89981 5.81104,-0.23495 11.61692,0.0917 17.39741,0.66742 6.77963,0.73802 13.48851,1.9866 20.15723,3.39181 6.68266,1.39732 13.29597,3.09403 19.87764,4.9021 5.56059,1.518 11.02188,3.35334 16.422,5.36147 0.56459,0.23108 3.65985,1.47604 4.25024,1.80077 2.09706,1.1534 3.95187,2.90652 5.69632,4.52256 0.32798,0.30682 0.65593,0.61363 0.9839,0.92044 0,0 -0.0493,0.10033 -0.0493,0.10033 v 0 c -0.44561,-0.0732 -0.89125,-0.14647 -1.33686,-0.2197 -3.82603,-0.70167 -7.51424,-1.46441 -11.0481,-3.17204 -5.24655,-2.04317 -10.60508,-3.78169 -16.02282,-5.3136 -6.49034,-1.80159 -13.02229,-3.45226 -19.61475,-4.84027 -6.52772,-1.32939 -13.0805,-2.57278 -19.71461,-3.24421 -5.59014,-0.50218 -11.19865,-0.82642 -16.81242,-0.53052 -3.90588,0.18051 -7.81505,0.40447 -11.68974,0.95273 -2.30563,0.34554 -4.60579,0.72547 -6.88279,1.23032 0,0 -0.94941,-4.31375 -0.94941,-4.31375 z"
       inkscape:connector-curvature="0" />
    <path
       style="fill:#000000;stroke-width:1.43800008;stroke-linejoin:miter;stroke-miterlimit:4;stroke-dasharray:none"
       id="path307"
       d="m 365.18349,259.09154 c 1.1515,-2.03881 2.19298,-4.13879 3.20715,-6.24868 1.41925,-2.86242 2.56852,-5.83545 3.39318,-8.92035 0.68958,-2.53516 0.77284,-5.10812 0.16213,-7.65529 -0.51255,-1.7288 -1.49582,-3.17542 -2.90761,-4.28013 -0.64444,-0.42796 -1.14935,-0.60651 -1.70892,-0.075 -0.97012,1.01321 -1.43994,2.34355 -1.86989,3.64906 -0.51816,1.72813 -0.51101,3.54841 -0.93689,5.2924 -0.49831,1.20385 -1.54437,1.9379 -2.35669,2.87902 0,0 -0.10607,-0.0353 -0.10607,-0.0353 v 0 c -0.11536,-1.12153 -1.04603,-2.00239 -1.36306,-3.08078 -0.23278,-2.14513 0.13703,-4.28773 0.71731,-6.35529 0.7311,-2.31796 1.70429,-4.58681 3.74854,-6.04605 2.59011,-1.36519 4.17058,-1.10163 6.56101,0.51923 2.07737,1.76939 3.59481,3.94538 4.30072,6.61506 0.69522,3.23849 0.5997,6.46283 -0.27099,9.67407 -0.94382,3.29632 -2.13241,6.51057 -3.62489,9.60137 -1.03757,2.19371 -2.10394,4.37303 -3.23356,6.52103 0,0 -3.71147,-2.05434 -3.71147,-2.05434 z"
       inkscape:connector-curvature="0" />
    <path
       style="fill:#000000;stroke-width:1.43800008;stroke-linejoin:miter;stroke-miterlimit:4;stroke-dasharray:none"
       id="path309"
       d="m 360.72521,245.64567 c -2.70108,-1.46654 -5.57747,-2.56796 -8.43441,-3.68517 -4.70326,-1.75172 -9.48076,-3.2946 -14.26816,-4.79762 -5.18419,-1.60809 -10.40556,-3.0917 -15.59473,-4.68325 -3.4813,-0.92306 -6.60715,-2.68651 -9.40228,-4.9244 -0.23866,-0.15403 -0.47731,-0.30806 -0.71594,-0.46209 0,0 0.0349,-0.10619 0.0349,-0.10619 v 0 c 0.28268,0.0173 0.56539,0.0346 0.8481,0.0519 3.54988,-0.18384 7.09488,0.15177 10.47035,1.32744 5.22309,1.53462 10.44774,3.06459 15.6518,4.66293 4.88881,1.52173 9.7745,3.06682 14.54613,4.9311 3.03686,1.19631 6.05287,2.46562 8.87838,4.11298 0,0 -2.01414,3.57241 -2.01414,3.57241 z"
       inkscape:connector-curvature="0" />
    <path
       style="fill:#000000;stroke-width:1.43800008;stroke-linejoin:miter;stroke-miterlimit:4;stroke-dasharray:none"
       id="path311"
       d="m 309.34371,227.33676 c 0.76893,-3.24476 1.0205,-6.58009 1.28254,-9.89537 0.28755,-4.82567 0.51591,-9.65444 0.70882,-14.48473 0.16137,-4.73036 0.32581,-9.46002 0.60532,-14.18507 0.0444,-3.71256 1.17403,-7.20926 2.65575,-10.57318 0.0976,-0.31826 0.19529,-0.63653 0.29295,-0.9548 0,0 0.11141,0.009 0.11141,0.009 v 0 c 0.0461,0.33224 0.0922,0.66447 0.13822,0.9967 0.8228,3.52974 1.31342,7.12592 0.8989,10.75062 -0.24517,4.69958 -0.37269,9.40303 -0.49686,14.10715 -0.15402,4.88102 -0.30113,9.76402 -0.61704,14.63779 -0.22259,3.56662 -0.47011,7.14654 -1.19774,10.65289 0,0 -4.38227,-1.06084 -4.38227,-1.06084 z"
       inkscape:connector-curvature="0" />
    <path
       style="fill:#000000;stroke-width:1.43800008;stroke-linejoin:miter;stroke-miterlimit:4;stroke-dasharray:none"
       id="path313"
       d="m 295.42504,176.75321 c -1.81803,-0.70361 -3.60963,-0.44249 -5.33715,0.34713 -1.91807,1.11675 -2.64133,2.92286 -2.84051,5.03669 0.0257,2.43606 1.22843,4.3675 2.94608,5.99186 1.80877,1.45945 3.91573,1.84089 6.14741,1.37417 2.53505,-0.89189 3.7225,-2.61494 4.58417,-5.05651 0.61442,-2.34264 -0.17857,-4.54779 -0.8454,-6.77237 -0.42978,-0.86935 -0.96022,-2.00427 -1.85925,-2.51026 -0.29705,-0.1672 -0.66114,-0.16643 -0.99171,-0.24964 0,0 0.0196,-0.11003 0.0196,-0.11003 v 0 c 1.78869,0.19817 3.54314,-0.053 5.11924,1.07496 0.44026,0.35611 0.93681,0.65216 1.3208,1.06835 2.23562,2.42308 2.06134,6.04321 1.3313,9.01034 -0.23564,0.62091 -0.41746,1.26502 -0.70694,1.86274 -1.44645,2.98679 -4.03214,5.09943 -7.20489,5.9983 -0.60423,0.0964 -1.20269,0.24157 -1.81274,0.28919 -3.04864,0.23798 -5.8787,-0.9173 -8.19312,-2.84406 -2.85991,-2.89679 -4.20039,-5.49698 -4.14187,-9.65391 0.0834,-0.59593 0.1143,-1.20161 0.25025,-1.78779 0.68262,-2.94357 2.6135,-5.26627 5.26608,-6.64743 3.11356,-1.19511 5.54807,-1.41106 8.6859,-0.1129 0,0 -1.73733,3.69117 -1.73733,3.69117 z"
       inkscape:connector-curvature="0" />
    <path
       style="fill:#000000;stroke-width:1.43800008;stroke-linejoin:miter;stroke-miterlimit:4;stroke-dasharray:none"
       id="path317"
       d="m 284.60668,187.57014 c -2.01345,-0.4153 -3.80857,-1.34464 -5.44473,-2.56048 -1.31768,-1.06172 -2.36522,-2.39701 -3.47612,-3.66098 -0.31303,-0.33281 -0.60928,-0.69303 -0.98004,-0.96595 -0.03,-0.0221 -0.12036,-0.081 -0.10002,-0.0498 0.12206,0.18709 0.46027,0.21296 0.61513,0.25643 1.43822,-0.25593 0.99521,-0.50374 0.64511,1.03982 -0.2894,1.50215 -0.46982,3.02217 -0.71594,4.53161 -0.24016,1.09889 -0.43164,2.50309 -1.41097,3.2372 -0.3267,0.24491 -0.71993,0.3854 -1.07992,0.5781 -0.50633,-0.0253 -1.03084,0.0608 -1.51903,-0.0759 -1.42086,-0.39813 -2.11592,-2.17583 -2.65969,-3.36843 -0.68993,-1.5449 -1.38798,-3.08257 -2.21496,-4.55996 -0.44852,-0.50672 -0.86069,-1.79976 -1.63793,-1.94961 0.55806,0.69502 1.57038,-0.47394 1.37858,0.20185 -0.38975,1.46732 -0.52276,2.98904 -0.70056,4.49286 -0.16195,1.38803 -0.26768,2.7807 -0.79198,4.08599 -0.22082,0.27813 -0.35187,0.6622 -0.66246,0.83438 -2.39197,1.32601 -3.52399,-0.14108 -4.39317,-2.06177 -0.57692,-1.33319 -1.08659,-2.69394 -1.70487,-4.009 -0.44194,-1.16677 -1.38439,-1.35189 -0.0129,-0.6745 1.90109,-0.0271 1.61161,-1.19386 1.30573,0.86956 -0.22752,1.60681 -0.29176,3.23105 -0.52759,4.83634 -0.30762,1.79707 -1.41072,3.31384 -3.42436,3.23716 -0.37096,-0.0141 -0.71967,-0.18255 -1.0795,-0.27382 -1.36433,-0.66375 -2.57832,-1.63136 -3.65755,-2.69186 -0.46426,-0.68657 -0.34521,-1.54589 -0.70238,-2.26203 0,0 -0.0215,-0.1097 -0.0215,-0.1097 v 0 c 0.70985,-0.99229 1.89205,-1.13902 3.04111,-0.89787 0.98936,0.52126 1.8696,1.20261 2.78069,1.84808 -0.53479,0.049 -1.32672,0.28847 -1.40118,0.93806 -0.0187,0.16328 0.60826,-1.15797 0.18345,-0.45763 0.27297,-1.61395 0.34442,-3.24987 0.5635,-4.87109 0.26861,-1.50764 0.55785,-3.52319 2.18559,-4.21626 0.43833,-0.18664 0.93735,-0.17092 1.40603,-0.25638 0.35953,0.11973 0.73801,0.19305 1.0786,0.35917 1.1004,0.53672 1.65213,1.7939 2.19012,2.80793 0.60055,1.3066 1.12187,2.64625 1.69969,3.96278 0.13083,0.25426 0.30707,0.58621 0.29342,0.60003 -0.0473,0.0479 -0.0914,-0.10562 -0.15376,-0.13109 -0.34556,-0.14116 -0.68672,-0.39274 -1.05891,-0.3643 -1.3593,0.10387 -1.35493,0.34891 -1.87248,1.14243 0.008,0.1327 7.9e-4,0.15897 0.0819,-0.15221 0.15079,-0.57799 0.22421,-1.18946 0.30972,-1.77905 0.0395,-0.27257 0.0724,-0.54605 0.10859,-0.81908 0.22451,-1.86299 0.37876,-3.75424 0.93411,-5.55537 0.92417,-2.19779 2.43953,-3.44367 4.85356,-2.3291 1.36475,0.90143 2.36138,2.13802 3.14394,3.57273 0.85733,1.55703 1.62038,3.16188 2.34545,4.78444 0.20299,0.40146 0.50784,0.84433 0.66273,1.26958 0.0687,0.18853 -0.36378,-0.19224 -0.56349,-0.2117 -0.3543,-0.0345 -0.71059,0.0442 -1.0659,0.0663 -1.25028,0.85476 -0.7366,1.16515 -0.45823,-0.36084 0.27755,-1.58498 0.4613,-3.18482 0.76663,-4.76506 0.45966,-2.02861 1.08305,-3.94268 3.37804,-4.41789 0.36812,0.0359 0.74481,0.021 1.10432,0.10782 1.17234,0.28319 1.98969,1.30713 2.76431,2.14381 0.90874,1.04996 1.76771,2.15527 2.82052,3.06833 1.09452,0.8529 2.3061,1.48145 3.6786,1.75839 0,0 -0.82706,4.22752 -0.82706,4.22752 z"
       inkscape:connector-curvature="0" />
    <path
       style="fill:#000000;stroke-width:1.43800008;stroke-linejoin:miter;stroke-miterlimit:4;stroke-dasharray:none"
       id="path321"
       d="m 241.36222,197.86184 c -1.29071,1.33348 -2.5265,2.71465 -3.65178,4.19063 -0.35566,0.0405 -0.69517,1.70935 -0.47103,1.0012 0.52687,0.45976 1.06488,0.97902 1.5812,1.47216 1.18486,1.08225 1.75089,2.37596 1.79923,3.9622 -0.12473,1.39063 -0.91356,2.52277 -1.63385,3.66751 -0.44313,0.49389 -0.21918,1.08942 -0.21292,0.44706 0.57843,0.36584 1.21766,0.78614 1.8096,1.17657 1.23431,0.70142 2.22126,1.60274 2.96491,2.80781 0.40594,0.99994 0.71038,2.37153 -0.0307,3.32648 -0.26286,0.33871 -1.02919,0.71347 -1.3947,0.91415 -0.64958,0.2668 -1.30213,0.48223 -1.93104,0.79469 0,0 -0.0903,-0.0659 -0.0903,-0.0659 v 0 c 0.10076,-0.65443 0.14915,-1.30192 0.071,-1.96429 -0.0381,-0.18213 -0.051,-0.37147 -0.11438,-0.54641 -0.0583,-0.16085 -0.43335,-0.52074 -0.14269,-0.4718 -0.0621,-0.64576 -1.09957,-1.00188 -1.50141,-1.36778 -1.26601,-0.77025 -2.57037,-1.5825 -3.32264,-2.90354 -0.63549,-1.63024 -0.44057,-2.8353 0.49332,-4.29425 0.34157,-0.53963 0.69304,-1.07813 1.02839,-1.61877 0.29563,-0.17623 -0.44021,-0.83762 -0.55438,-0.97496 -0.97562,-0.93433 -2.06585,-1.78755 -2.61353,-3.06464 -0.50715,-1.91842 -0.0365,-3.18161 1.17039,-4.70779 1.23301,-1.55676 2.649,-2.95048 4.01587,-4.38822 0,0 2.73145,2.6079 2.73145,2.6079 z"
       inkscape:connector-curvature="0" />
    <path
       style="fill:#000000;stroke-width:1.43800008;stroke-linejoin:miter;stroke-miterlimit:4;stroke-dasharray:none"
       id="path323"
       d="m 242.62124,227.23872 c -1.77464,0.15377 -3.32012,0.95438 -4.6419,2.10875 -0.53582,0.58388 -1.54799,1.69378 -0.765,2.4591 1.1677,0.8954 2.58145,1.00286 3.99988,0.96287 2.03573,-0.26276 3.46802,-1.37898 4.26415,-3.23516 0.50629,-1.69259 -0.12371,-3.07351 -1.2148,-4.34141 -0.69031,-1.44244 -1.90032,-2.35771 -3.38023,-2.86877 0,0 -0.004,-0.11172 -0.004,-0.11172 v 0 c 2.25154,-0.84411 4.07387,-0.93958 6.30379,0.15674 0.38186,0.37384 0.8112,0.70467 1.14557,1.12152 1.83725,2.29041 1.9587,5.27651 1.01786,7.94998 -0.26828,0.51026 -0.48667,1.05005 -0.80485,1.53079 -1.64836,2.4905 -4.35673,3.78863 -7.25647,4.10621 -3.34696,0.0319 -6.28586,-0.59352 -8.14111,-3.64703 -0.15393,-0.46969 -0.37633,-0.92223 -0.46178,-1.40906 -0.41762,-2.37903 1.00237,-4.46448 2.6564,-5.99443 2.12556,-1.59264 4.461,-2.68753 7.1602,-2.80633 0,0 0.12201,4.01795 0.12201,4.01795 z"
       inkscape:connector-curvature="0" />
    <path
       style="fill:#000000;stroke-width:1.43800008;stroke-linejoin:miter;stroke-miterlimit:4;stroke-dasharray:none"
       id="path329"
       d="m 297.01106,196.74216 c -1.58787,0.34359 -3.08718,0.97815 -4.41021,1.9182 -0.36761,0.35417 -1.30807,1.01238 -1.10151,1.65413 0.32777,0.12438 0.59116,0.50846 0.85183,0.74978 0.97152,0.7658 1.79953,1.63116 2.45821,2.67737 0.87101,1.6269 0.42495,3.21237 -0.57729,4.63741 -0.33952,0.54582 -1.08067,0.99514 -1.16221,1.65232 0.26109,-0.2107 0.69921,0.66001 0.85008,0.85038 0.92112,1.02535 1.80509,2.07719 2.58593,3.21345 0.82952,1.2613 1.114,2.65276 1.04899,4.13825 -0.15086,1.16177 -0.50305,2.28155 -0.72961,3.42934 -0.2168,0.94306 0.16026,1.54758 -0.44043,2.34394 -0.36412,0.59268 -0.70027,1.20035 -1.07801,1.78467 0,0 -0.10383,0.0414 -0.10383,0.0414 v 0 c -0.75419,-0.19135 -1.47775,-0.42562 -2.08875,-0.93426 -0.18838,-0.17401 -0.42452,-0.30757 -0.56515,-0.52203 -0.6554,-0.99954 -0.25847,-2.51589 -0.156,-3.59715 0.19177,-0.95508 0.46593,-1.88964 0.66117,-2.84374 0.0785,-0.50209 -0.0422,-0.94807 -0.3138,-1.38229 -0.64338,-1.07163 -1.51373,-1.96994 -2.29827,-2.93645 -1.11496,-1.42467 -2.01682,-2.9541 -1.61732,-4.83604 0.39309,-1.15121 1.01748,-2.12124 1.85719,-3.00289 0.30641,-0.36082 0.1143,0.0848 0.35327,0.19101 -0.30776,-0.7454 -1.19555,-1.1386 -1.70468,-1.71895 -1.28606,-1.23583 -2.28439,-2.61684 -2.19036,-4.49366 0.351,-1.99997 1.39086,-3.53911 3.06642,-4.70882 1.83369,-1.16007 3.80254,-2.02737 5.93614,-2.4766 0,0 0.8682,4.17118 0.8682,4.17118 z"
       inkscape:connector-curvature="0" />
    <path
       style="fill:#000000;stroke-width:1.43800008;stroke-linejoin:miter;stroke-miterlimit:4;stroke-dasharray:none"
       id="path331"
       d="m 295.78919,228.33157 c -1.52744,-0.42761 -2.92068,-0.16185 -4.22651,0.69009 -1.08095,0.88375 -1.66653,2.0592 -1.56578,3.45194 0.25472,1.2798 1.24474,1.84579 2.39107,2.23301 1.82861,0.37413 3.45633,-0.24053 4.8981,-1.33253 0.90194,-0.82497 1.41766,-1.84617 0.88037,-3.0003 -0.61711,-1.92607 -1.50463,-3.01056 -3.20524,-4.14666 0,0 0.0312,-0.10734 0.0312,-0.10734 v 0 c 2.14424,-0.0121 4.79724,-0.055 6.49304,1.53913 0.37097,0.34873 0.57941,0.8374 0.8691,1.2561 0.15571,0.48775 0.37624,0.95938 0.46712,1.46325 0.48324,2.67943 -0.98311,5.01661 -2.9201,6.7044 -2.86951,1.94414 -5.69666,2.78893 -9.13902,1.87199 -3.3333,-1.34389 -4.90696,-2.92352 -5.34924,-6.59272 0.20309,-3.26104 1.26481,-5.35039 4.01571,-7.21251 2.66354,-1.34275 4.91654,-1.68943 7.79,-0.71172 0,0 -1.42981,3.89387 -1.42981,3.89387 z"
       inkscape:connector-curvature="0" />
    <path
       style="fill:#000000;stroke-width:1.43800008;stroke-linejoin:miter;stroke-miterlimit:4;stroke-dasharray:none"
       id="path333"
       d="m 283.36459,232.95399 c -1.33712,-1.07639 -2.81977,-1.94011 -4.47402,-2.40737 -1.23709,-0.26404 -2.34969,0.23039 -3.44641,0.7448 -1.44113,0.77907 -2.8566,1.59475 -4.39709,2.16243 -1.86629,0.61507 -3.45884,0.0692 -4.87632,-1.18682 -0.4431,-0.26464 -1.16501,-1.72585 -1.68649,-1.75354 0.0435,0.29758 -1.02987,0.47421 -1.26452,0.55395 -1.51078,0.5859 -3.08921,0.90743 -4.68977,1.11987 -1.52071,0.1287 -3.03942,0.23598 -4.54489,0.49481 -0.68385,0.029 -1.37786,0.45456 -2.0661,0.42054 -0.75779,-0.0375 -1.64974,-0.4501 -2.35472,-0.70716 -0.9142,-0.42857 -0.48786,-0.18558 -1.28468,-0.71891 0,0 0.002,-0.11177 0.002,-0.11177 v 0 c 0.66735,-0.50892 0.33782,-0.23447 0.98523,-0.82733 0.50647,-0.47999 1.08683,-1.21607 1.69237,-1.56203 0.68125,-0.38921 1.60706,-0.33261 2.33218,-0.58348 1.55692,-0.26129 3.12568,-0.3981 4.69722,-0.54025 1.32328,-0.17039 2.62867,-0.44095 3.87853,-0.92067 1.56011,-0.54127 3.12225,-1.00209 4.70285,-0.22144 0.97068,0.61684 1.73932,1.39904 2.43104,2.31641 0.2761,0.30723 0.13968,0.47706 0.67136,0.34616 1.43859,-0.47554 2.7087,-1.31668 4.06447,-1.97733 2.02965,-0.92738 4.10052,-1.50304 6.3281,-0.89824 2.09759,0.66931 3.9883,1.74956 5.74728,3.07264 0,0 -2.44735,3.18473 -2.44735,3.18473 z"
       inkscape:connector-curvature="0" />
    <path
       style="fill:#000000;stroke-width:1.43800008;stroke-linejoin:miter;stroke-miterlimit:4;stroke-dasharray:none"
       id="path339"
       d="m 311.91387,210.95826 c -2.09333,-0.33937 -4.19615,-0.61872 -6.3002,-0.88233 -3.02398,-0.36559 -6.04965,-0.71933 -9.08055,-1.02237 -3.68946,-0.39279 -7.39114,-0.63982 -11.09507,-0.84284 -3.46974,-0.20916 -6.94282,-0.1608 -10.40497,0.12721 -3.18194,0.34596 -6.33963,0.87516 -9.51178,1.29831 -3.43861,0.44795 -6.89968,0.66585 -10.36267,0.80275 -3.62737,0.12155 -7.25745,0.11073 -10.88608,0.0709 -3.44924,-0.0455 -6.89661,-0.16917 -10.34325,-0.30461 -2.61698,-0.12541 -5.23431,-0.19233 -7.85149,-0.0557 -2.04378,0.13931 -4.07047,0.44876 -6.09713,0.73684 -1.82305,0.26579 -3.65544,0.46473 -5.47826,0.72979 -1.24068,0.15984 -2.48125,0.32327 -3.72854,0.42197 -0.81218,0.0676 -1.61903,0.0337 -2.42956,-0.0184 -0.83333,-0.0712 -1.27796,0.14173 -1.83874,-0.58872 -0.37591,-0.53546 -0.68836,-1.09643 -0.93255,-1.70197 0,0 0.0108,-0.11126 0.0108,-0.11126 v 0 c 0.1892,-0.65256 0.48236,-1.2341 0.96756,-1.72395 0.66197,-0.75565 1.18099,-0.4777 2.09473,-0.45625 0.59479,0.0402 1.19514,0.0729 1.78961,0.0165 1.16726,-0.0783 2.32831,-0.22382 3.48954,-0.36306 1.8102,-0.19925 3.61626,-0.43872 5.42179,-0.67691 2.16425,-0.30564 4.32933,-0.63092 6.51316,-0.76015 2.75197,-0.12385 5.50261,-0.0494 8.25288,0.0986 3.40156,0.14711 6.80288,0.31368 10.2081,0.34657 3.55373,0.0393 7.10888,0.0468 10.66127,-0.0753 3.32591,-0.13402 6.65274,-0.31342 9.95433,-0.75698 3.24702,-0.43568 6.48203,-0.96672 9.74241,-1.29744 3.66133,-0.28925 7.33001,-0.33346 10.99714,-0.0872 3.78309,0.20906 7.56192,0.49647 11.32657,0.92989 3.06417,0.37196 6.12728,0.75347 9.17758,1.22866 2.16313,0.33595 4.32279,0.69483 6.46205,1.16246 0,0 -0.72864,3.755 -0.72864,3.755 z"
       inkscape:connector-curvature="0" />
    <path
       style="fill:#000000;stroke-width:1.43800008;stroke-linejoin:miter;stroke-miterlimit:4;stroke-dasharray:none"
       id="path341"
       d="m 184.59809,140.92433 c -2.26998,-0.85918 -4.67263,-1.09057 -7.07696,-1.18665 -3.63746,-0.0493 -7.20909,0.65518 -10.7052,1.59101 -1.94835,0.34437 -3.881,1.54808 -5.80018,1.91552 -0.52197,0.0999 -1.84877,0.0564 -2.40279,0.0485 -0.85898,0.009 -1.61587,-0.21929 -2.38071,-0.57253 0,0 -0.0288,-0.108 -0.0288,-0.108 v 0 c 0.41029,-0.66448 0.83913,-1.31213 1.41687,-1.84887 0.41635,-0.40055 1.33906,-1.32472 1.80775,-1.61224 1.83984,-1.12865 4.24958,-1.50622 6.25054,-2.23621 3.9527,-0.98297 7.97913,-1.71324 12.07298,-1.54707 2.97728,0.18907 5.99091,0.56271 8.645,2.03312 0,0 -1.79848,3.52339 -1.79848,3.52339 z"
       inkscape:connector-curvature="0" />
    <path
       style="fill:#000000;stroke-width:1.43800008;stroke-linejoin:miter;stroke-miterlimit:4;stroke-dasharray:none"
       id="path343"
       d="m 363.61859,132.82037 c -3.19741,-0.71414 -6.46665,-0.96595 -9.73164,-1.10719 -3.84876,-0.40902 -7.59452,0.80974 -11.39457,0.93336 -1.63346,0.0735 -3.25594,0.2314 -4.841,0.63427 0,0 -0.0646,-0.0912 -0.0646,-0.0912 v 0 c 1.07121,-1.5336 2.25091,-2.92607 3.89006,-3.89496 0.55549,-0.31185 1.07357,-0.70252 1.66645,-0.93554 0.62733,-0.24658 1.30119,-0.35649 1.96178,-0.49051 2.95936,-0.60039 6.00485,-0.65978 9.012,-0.58726 3.57325,0.21418 7.16563,0.54646 10.6136,1.56635 0,0 -1.11207,3.97271 -1.11207,3.97271 z"
       inkscape:connector-curvature="0" />
    <path
       style="fill:#000000;stroke-width:1.43800008;stroke-linejoin:miter;stroke-miterlimit:4;stroke-dasharray:none"
       id="path345"
       d="m 175.25986,247.47115 c 1.60104,2.01641 2.91291,4.22423 3.81204,6.6351 0.0357,1.48505 0.26794,3.33709 -0.63945,4.65571 -0.16079,0.23365 -0.41486,0.38688 -0.62229,0.58032 0,0 -0.11086,-0.0143 -0.11086,-0.0143 v 0 c -1.014,-1.0712 -1.87156,-2.28085 -2.89877,-3.34226 -1.01151,-1.90981 -2.00834,-3.83388 -3.33097,-5.55427 0,0 3.7903,-2.96026 3.7903,-2.96026 z"
       inkscape:connector-curvature="0" />
    <path
       style="fill:#000000;stroke-width:1.43800008;stroke-linejoin:miter;stroke-miterlimit:4;stroke-dasharray:none"
       id="path347"
       d="m 356.55377,240.8766 c -1.39621,2.00762 -2.37004,4.22737 -3.08909,6.55331 -0.42191,1.46889 -0.55415,2.9842 -0.60185,4.50377 -0.0101,0.32036 0.0265,0.64505 -0.0265,0.9612 -0.0537,0.32153 -0.19341,0.62262 -0.29012,0.93393 -0.26847,1.02774 -0.61973,2.02975 -0.97962,3.02805 0,0 -0.1072,0.0316 -0.1072,0.0316 v 0 c -0.92398,-0.7301 -1.76732,-1.53187 -2.34186,-2.57957 -0.19341,-0.37946 -0.45471,-0.73139 -0.58028,-1.13838 -0.67474,-2.18704 0.12213,-4.96267 0.57562,-7.10785 0.87252,-2.74143 2.04418,-5.3558 3.70422,-7.72072 0,0 3.7365,2.53465 3.7365,2.53465 z"
       inkscape:connector-curvature="0" />
    <path
       style="fill:#803300;stroke-width:14.35121155;stroke-linejoin:miter;stroke-miterlimit:4;stroke-dasharray:none"
       d="m 1374.7261,925.95755 c -3.2664,-2.70167 -13.6635,-7.68246 -23.1047,-11.06844 -9.4412,-3.38598 -17.1592,-7.35518 -17.1511,-8.82047 0.024,-4.26014 5.0782,-20.82583 7.5065,-24.60132 1.7958,-2.7921 4.0157,-2.59764 11.5926,1.01552 l 9.3715,4.46894 7.7572,-8.68186 c 5.0963,-5.7037 8.8308,-13.87943 10.8868,-23.83369 4.2667,-20.65723 8.3359,-23.56963 17.5806,-12.58284 6.5495,7.78356 7.0968,10.04346 5.9339,24.50063 -1.2038,14.96528 -13.6711,50.39393 -21.218,60.29568 -2.924,3.83634 -3.7563,3.77341 -9.1553,-0.69215 z"
       id="path349"
       inkscape:connector-curvature="0"
       transform="matrix(0.26458333,0,0,0.26458333,0,11.249983)" />
    <path
       style="fill:#803300;stroke-width:14.35121155;stroke-linejoin:miter;stroke-miterlimit:4;stroke-dasharray:none"
       d="M 591.70427,910.47471 C 570.46874,867.72703 567.951,857.92844 575.45114,847.2205 c 12.47381,-17.80886 35.66375,7.8019 45.16653,49.88152 l 4.21071,18.64561 9.09087,-1.70546 c 4.99998,-0.938 10.65383,-2.30522 12.56412,-3.03827 2.80043,-1.07463 19.91655,19.64188 19.91655,24.10601 0,1.04239 -51.04082,17.33715 -53.10341,16.95325 -0.56518,-0.1052 -10.28168,-18.82 -21.59224,-41.58845 z"
       id="path351"
       inkscape:connector-curvature="0"
       transform="matrix(0.26458333,0,0,0.26458333,0,11.249983)" />
    <path
       style="fill:#000080;stroke-width:14.35121155;stroke-linejoin:miter;stroke-miterlimit:4;stroke-dasharray:none"
       d="m 676.86849,923.67781 c -0.0515,-5.34114 -1.79172,-12.68177 -3.86723,-16.31251 -2.07552,-3.63074 -3.81578,-7.55495 -3.86724,-8.72048 -0.0515,-1.16552 7.6498,-5.74269 17.11392,-10.17148 19.26646,-9.01587 94.84237,-36.71827 102.78612,-37.67632 9.08927,-1.09621 10.5426,-12.86793 5.7054,-46.21265 -2.43877,-16.81138 -5.03884,-33.65683 -5.77792,-37.43431 -1.31842,-6.7385 -1.00499,-6.8989 16.60325,-8.49706 9.87087,-0.89589 28.04709,-2.84514 40.3916,-4.33166 28.85299,-3.47446 39.60804,-1.68712 39.60804,6.5823 0,3.85151 3.89514,9.4358 10.56215,15.14252 5.80918,4.97244 10.56214,11.36271 10.56214,14.2006 0,2.83789 1.42589,6.58569 3.16865,8.32844 2.4645,2.4645 2.02441,3.17084 -1.9804,3.17851 -8.55961,0.0164 -22.11447,9.95775 -26.70622,19.58675 -13.30853,27.90828 30.96653,46.24931 54.59836,22.61748 4.37693,-4.37693 9.6905,-5.75375 25.54568,-6.61922 11.01059,-0.60102 24.10884,-2.44245 29.10724,-4.09207 7.99938,-2.64003 9.79597,-2.33422 14.99807,2.55296 7.4179,6.96872 17.3544,7.05662 30.6549,0.27121 12.4896,-6.37173 20.5909,-6.6811 28.5718,-1.09109 4.4457,3.11392 6.8832,3.44211 9.4909,1.27791 2.7524,-2.28431 3.8486,-1.21304 5.0851,4.96938 0.867,4.33479 3.8914,10.1966 6.7211,13.02622 5.0993,5.09935 4.9426,5.1591 -17.7411,6.76593 -12.5873,0.89164 -32.3918,2.96146 -44.0102,4.5996 -11.6184,1.63815 -32.41259,2.73098 -46.20939,2.42853 -58.9577,-1.29247 -164.07791,19.5046 -258.73887,51.18913 l -42.28228,14.15255 z"
       id="path353"
       inkscape:connector-curvature="0"
       transform="matrix(0.26458333,0,0,0.26458333,0,11.249983)" />
    <path
       style="fill:#000080;stroke-width:14.35121155;stroke-linejoin:miter;stroke-miterlimit:4;stroke-dasharray:none"
       d="m 945.16798,813.71828 c -1.94816,-10.38459 -12.31925,-19.89605 -21.69424,-19.89605 -5.43609,0 -5.86308,-0.64776 -3.21843,-4.88253 4.46954,-7.15687 0.71076,-17.94891 -8.05493,-23.12692 -4.38525,-2.59044 -7.0806,-6.03757 -6.30376,-8.06199 1.04083,-2.71236 9.75311,-3.54861 37.38199,-3.58815 19.81367,-0.0284 49.09552,-1.80085 65.07079,-3.93887 15.9752,-2.13803 40.9725,-3.89719 55.5495,-3.90926 25.2989,-0.0209 26.5231,0.23815 26.9346,5.7002 0.237,3.14717 3.977,10.65989 8.3111,16.69495 6.9992,9.74621 7.6223,12.11582 5.574,21.19761 -1.2683,5.62364 -1.7147,11.18156 -0.992,12.35095 0.7227,1.16939 -0.6573,2.12616 -3.0667,2.12616 -2.4094,0 -8.4145,4.03388 -13.3448,8.96418 l -8.9642,8.96419 -9.8139,-5.00338 c -12.6517,-6.45021 -22.7816,-6.32591 -36.7815,0.45132 l -11.2679,5.4547 -7.823,-5.78379 c -7.7853,-5.75597 -7.9352,-5.76261 -31.15419,-1.3817 -12.83217,2.42114 -25.87442,4.93564 -28.98277,5.58776 -4.69322,0.98463 -5.94118,-0.35823 -7.35966,-7.91938 z"
       id="path355"
       inkscape:connector-curvature="0"
       transform="matrix(0.26458333,0,0,0.26458333,0,11.249983)" />
    <path
       style="fill:#000080;stroke-width:14.35121155;stroke-linejoin:miter;stroke-miterlimit:4;stroke-dasharray:none"
       d="m 1285.6057,893.88407 c -36.5042,-10.56401 -105.5527,-25.15542 -137.6819,-29.09506 l -26.7793,-3.28366 8.2956,-4.35946 c 10.1959,-5.35814 18.2579,-19.90317 16.0722,-28.99668 -2.2774,-9.47487 -8.8984,-15.84322 -16.4717,-15.84322 -6.544,0 -6.553,-0.0363 -4.8042,-19.33581 1.5837,-17.47577 1.1632,-20.20638 -4.3706,-28.38576 -11.9754,-17.70048 -12.6026,-16.66089 8.8742,-14.7103 10.7568,0.97697 25.3691,2.52841 32.4718,3.44764 l 12.9139,1.67133 -1.7123,25.35578 c -0.9418,13.94568 -2.4217,27.97544 -3.2886,31.17724 -1.2943,4.78013 -0.2279,6.14704 5.9618,7.64154 4.146,1.00105 14.0735,5.06417 22.0611,9.02918 7.9876,3.965 37.0178,14.01761 64.5115,22.33912 59.5085,18.01141 62.9677,19.43024 60.8372,24.95311 -0.8806,2.28283 -2.9554,9.20063 -4.6105,15.37289 -1.6552,6.17225 -3.6541,11.09658 -4.4421,10.94295 -0.788,-0.15363 -13.3152,-3.71801 -27.8381,-7.92083 z"
       id="path357"
       inkscape:connector-curvature="0"
       transform="matrix(0.26458333,0,0,0.26458333,0,11.249983)" />
    <path
       id="path359"
       transform="matrix(0.26458333,0,0,0.26458333,0,11.249983)"
       style="fill:#ff0000;stroke-width:14.35121155;stroke-linejoin:miter;stroke-miterlimit:4;stroke-dasharray:none"
       d="m 1116.8438,296.32812 c -1.2045,0.0331 -3.7073,2.15125 -8.8516,6.79883 -14.6061,13.19578 -39.1859,27.32518 -58.7149,33.75391 -49.87004,16.41663 -126.03762,17.30368 -167.67378,1.95117 l -10.5625,-3.89453 -12.42383,12.04297 -12.42578,12.04297 -74.71289,2.05859 c -93.80536,2.58377 -164.70125,8.2657 -170.06446,13.62891 -0.82766,0.82766 -2.78574,14.68882 -4.34961,30.80273 -2.95637,30.46208 -1.52043,43.59436 6.9668,63.75195 l 3.98828,9.47071 19.28711,-4.96094 c 13.50026,-3.47246 26.21544,-4.72937 42.37109,-4.18945 16.62573,0.55563 23.43454,-0.15191 24.3418,-2.5293 0.69279,-1.81537 3.53047,-3.30078 6.30469,-3.30078 2.77422,0 11.94941,-4.15915 20.39062,-9.24219 26.34132,-15.86191 32.28366,-12.30178 42.57227,25.51367 3.68955,13.56082 10.13427,32.24767 14.32227,41.52539 6.71417,14.874 9.87834,29.33985 6.41796,29.33985 -0.65781,0 -4.32564,-1.4253 -8.15039,-3.16797 -9.12863,-4.15929 -19.99793,-25.95455 -28.59765,-57.33789 -3.72185,-13.58235 -7.37778,-25.30356 -8.12305,-26.04883 -0.74526,-0.74527 -6.16927,1.83178 -12.05469,5.72656 l -10.70117,7.08008 11.14844,21.69141 c 14.32471,27.86965 51.8366,66.95002 74.00195,77.09765 23.39381,10.71005 37.66337,12.382 52.06836,6.09961 16.86326,-7.3545 41.18721,-9.1019 53.73438,-3.85937 8.16412,3.4112 9.89648,5.45776 9.89648,11.6875 0,8.39057 -3.39199,13.57335 -13.12891,20.05664 -3.59079,2.3909 -5.03198,4.34765 -3.20312,4.34765 4.08291,10e-6 33.04012,28.18087 37.13086,36.13477 7.93003,15.41888 0.58745,34.1257 -17.07227,43.49414 -6.61362,3.50854 -10.56238,7.26326 -9.78125,9.29883 0.72044,1.87747 -1.77365,7.07903 -5.54297,11.55859 -6.6612,7.91641 -6.7243,8.33041 -2.24804,14.76367 l 4.60547,6.61719 44.88867,-1.45703 c 24.68902,-0.80185 52.61286,-2.79437 62.05276,-4.42773 9.4399,-1.63338 29.836,-3.11526 45.3261,-3.29297 26.457,-0.30342 28.0075,-0.61605 25.5704,-5.16992 -3.7639,-7.03291 -0.1955,-19.53165 7.248,-25.38672 l 6.4453,-5.07032 -9.3222,-5.75976 c -5.1268,-3.16851 -10.5351,-8.02686 -12.0176,-10.79688 -1.4825,-2.77006 -7.1102,-7.29208 -12.5078,-10.04687 -5.3975,-2.75482 -12.0535,-7.48291 -14.7891,-10.50781 -5.9521,-6.58145 -9.5488,-5.09441 -9.5488,3.94726 0,13.77314 -9.1089,21.85179 -18.795,16.66797 -2.8656,-1.53365 -7.9194,-8.95612 -11.2304,-16.49414 l -6.0196,-13.70508 -1.7851,12.93555 c -0.9815,7.11495 -3.116,14.54202 -4.74415,16.50391 -4.29016,5.16933 -12.32762,4.3738 -16.05078,-1.58789 -3.05858,-4.89756 -3.38182,-4.76604 -6.49609,2.64062 -4.0124,9.54274 -13.53157,10.43486 -24.90821,2.33398 -12.8348,-9.13921 -9.04543,-22.8822 5.27735,-19.13671 4.82502,1.26178 5.5371,0.28816 5.5371,-7.59571 10e-6,-15.15333 10.60654,-23.4626 20.82032,-16.30859 4.93437,3.45618 5.58398,3.45577 5.58398,-0.01 0,-5.87768 7.49337,-12.2207 14.43748,-12.2207 3.6863,0 9.3172,3.61867 14.0918,9.05664 l 7.9512,9.05664 3.2187,-7.76953 c 5.3817,-12.99244 14.2197,-12.94671 27.5567,0.14258 l 11.3769,11.16406 3.0606,-9.27344 c 4.2528,-12.88592 14.8068,-22.56016 28.3203,-25.96289 9.2546,-2.33035 11.4512,-4.0228 11.4512,-8.8164 0,-7.85504 7.9347,-17.59971 19.3261,-23.73438 8.3158,-4.47835 9.0951,-5.84043 7.8223,-13.68359 -1.2225,-7.53285 -0.5021,-9.05702 5.3379,-11.27735 8.8053,-3.34779 32.9455,-4.38703 41.8223,-1.80078 l 6.9746,2.03321 -1.1817,-18.03907 c -2.5938,-39.62664 -17.1804,-116.59791 -22.8066,-120.34179 -2.2591,-1.50333 -1.335,-3.63647 3.2344,-7.46485 5.4393,-4.55718 8.6052,-5.09754 21.125,-3.61133 30.5869,3.63095 57.4549,15.50563 79.9668,35.34375 l 12.4296,10.95508 8.6954,-4.74804 c 7.0945,-3.87348 14.886,-4.73878 42.3593,-4.70508 18.5168,0.0227 33.668,-0.30719 33.668,-0.73438 0,-5.38819 -17.8985,-33.55569 -25.9375,-40.81836 -18.6053,-16.8088 -65.9129,-33.51942 -113.791,-40.19726 -33.0002,-4.60273 -78.8246,-15.49416 -90.416,-21.48828 -7.9844,-4.12892 -20.7071,-26.03223 -20.7071,-35.65039 0,-2.28494 -0.1511,-3.51989 -1.0878,-3.49415 z" />
    <path
       style="fill:#ff0000;stroke-width:14.35121155;stroke-linejoin:miter;stroke-miterlimit:4;stroke-dasharray:none"
       d="m 1144.5877,733.65994 c -24.9486,-3.67195 -28.1439,-4.79245 -34.7495,-12.18541 -4.001,-4.47789 -6.8065,-8.8989 -6.2345,-9.82446 0.572,-0.92555 5.2181,-3.66543 10.3245,-6.08861 5.1637,-2.45034 9.3215,-6.40171 9.368,-8.90282 0.046,-2.47338 5.17,-7.58019 11.3869,-11.34847 11.4121,-6.91722 20.216,-20.49385 20.216,-31.17529 0,-8.02442 3.3657,-6.7087 7.9217,3.09675 2.1784,4.68852 6.7159,9.71283 10.0833,11.16513 4.99,2.15207 5.8448,4.04486 4.621,10.23208 -0.8259,4.17534 -1.5017,19.32542 -1.5017,33.66683 0,14.34142 -0.8911,25.92517 -1.9804,25.74169 -1.0892,-0.1835 -14.3441,-2.15333 -29.4553,-4.37742 z"
       id="path361"
       inkscape:connector-curvature="0"
       transform="matrix(0.26458333,0,0,0.26458333,0,11.249983)" />
    <path
       style="fill:#ff0000;stroke-width:14.35121155;stroke-linejoin:miter;stroke-miterlimit:4;stroke-dasharray:none"
       d="m 786.77198,732.42976 c -0.73256,-4.71995 -1.76606,-18.17615 -2.29669,-29.90266 -0.93383,-20.63715 -0.81026,-21.16642 3.8528,-16.50335 6.52406,6.52406 21.16372,6.27516 27.26213,-0.46351 3.20072,-3.53675 8.13276,-5.28107 14.9322,-5.28107 6.63218,0 11.98421,-1.83131 15.43397,-5.28107 5.28107,-5.28107 5.28107,-5.28107 5.28107,0.73273 0,12.94142 17.00988,25.67263 34.30063,25.67263 h 8.41741 l -7.06594,8.39739 c -5.02943,5.97714 -6.75097,10.54339 -5.97312,15.84322 1.08695,7.40589 1.01382,7.44595 -13.63295,7.46776 -8.09917,0.0121 -27.79642,1.77123 -43.77166,3.90926 -37.54151,5.02432 -35.2021,5.31667 -36.73985,-4.59133 z"
       id="path363"
       inkscape:connector-curvature="0"
       transform="matrix(0.26458333,0,0,0.26458333,0,11.249983)" />
    <path
       style="fill:#ffff00;stroke-width:14.35121155;stroke-linejoin:miter;stroke-miterlimit:4;stroke-dasharray:none"
       d="m 877.85134,679.58011 c -9.14866,-4.66783 -9.19607,-7.91549 -0.19037,-13.04094 7.34525,-4.18043 9.29951,-8.48846 8.01354,-17.66527 -1.3564,-9.67939 17.29455,-10.93536 27.12318,-1.82649 14.62786,13.55664 10.98973,27.79246 -8.48521,33.20222 -12.45097,3.45863 -18.67906,3.30105 -26.46114,-0.66952 z"
       id="path365"
       inkscape:connector-curvature="0"
       transform="matrix(0.26458333,0,0,0.26458333,0,11.249983)" />
    <path
       style="fill:#ffff00;stroke-width:14.35121155;stroke-linejoin:miter;stroke-miterlimit:4;stroke-dasharray:none"
       d="m 1097.2981,665.76401 c -9.4156,-7.92278 -12.4335,-18.02552 -8.338,-27.91286 3.2168,-7.76623 14.8453,-14.13591 22.8215,-12.50083 2.6564,0.54454 6.2351,-0.83553 7.9527,-3.06684 4.0793,-5.29934 8.3864,-1.24234 13.1238,12.36161 5.053,14.51016 4.3923,20.47166 -3.2788,29.58827 -8.7684,10.42068 -21.0253,11.00185 -32.2812,1.53065 z"
       id="path367"
       inkscape:connector-curvature="0"
       transform="matrix(0.26458333,0,0,0.26458333,0,11.249983)" />
    <path
       style="fill:#ffff00;stroke-width:14.35121155;stroke-linejoin:miter;stroke-miterlimit:4;stroke-dasharray:none"
       d="m 1101.4283,841.14039 c -2.5415,-1.4803 -4.621,-4.41477 -4.621,-6.52105 0,-6.48044 10.1331,-14.39174 18.4335,-14.39174 6.3266,0 8.2184,1.38293 9.6399,7.04685 2.9766,11.85951 -11.8485,20.62462 -23.4524,13.86594 z"
       id="path369"
       inkscape:connector-curvature="0"
       transform="matrix(0.26458333,0,0,0.26458333,0,11.249983)" />
    <path
       style="fill:#ffff00;stroke-width:14.35121155;stroke-linejoin:miter;stroke-miterlimit:4;stroke-dasharray:none"
       d=""
       id="path371"
       inkscape:connector-curvature="0"
       transform="matrix(0.26458333,0,0,0.26458333,0,11.249983)" />
    <path
       style="fill:#ffff00;stroke-width:14.35121155;stroke-linejoin:miter;stroke-miterlimit:4;stroke-dasharray:none"
       d="m 898.93691,833.5911 c -4.92577,-3.1169 -0.47691,-8.86131 10.32941,-13.33743 5.25486,-2.17664 7.97176,-5.39636 8.59532,-10.1861 0.89521,-6.87645 1.00241,-6.82425 5.91093,2.87823 l 4.99919,9.8817 -6.22073,6.62166 c -6.34435,6.75325 -16.63488,8.55822 -23.61412,4.14194 z"
       id="path373"
       inkscape:connector-curvature="0"
       transform="matrix(0.26458333,0,0,0.26458333,0,11.249983)" />
    <path
       style="fill:#000000;stroke-width:1.43800008;stroke-linejoin:miter;stroke-miterlimit:4;stroke-dasharray:none"
       id="path439"
       d="m 239.27696,53.164959 c -1.65418,-0.662286 -3.32654,-0.896345 -5.06989,-0.535082 -1.47466,0.453247 -2.44921,1.451271 -3.01421,2.855124 -0.41006,1.412673 0.13652,2.519846 1.07523,3.548144 1.4686,1.361011 3.28549,1.677599 5.21056,1.457809 1.76583,-0.359529 3.23617,-1.311481 3.87396,-3.028706 0.23524,-1.372257 -0.78447,-2.313488 -1.67185,-3.208425 -1.32926,-1.323597 -2.38866,-3.020023 -4.06651,-3.939011 0,0 0.0274,-0.108371 0.0274,-0.108371 v 0 c 2.2229,0.0037 -1.16143,0.03058 1.68007,-0.131707 1.76696,-0.10092 3.57335,0.223584 5.07186,1.185074 2.5948,2.204535 3.87117,4.537269 2.8173,7.977566 -0.22698,0.454234 -0.40891,0.933932 -0.68095,1.362705 -1.48679,2.343356 -4.03065,3.622217 -6.67922,4.13785 -3.6343,0.260837 -6.30755,-0.329096 -8.96636,-2.969516 -2.04556,-2.686876 -2.68229,-4.905198 -1.43675,-8.156781 1.44954,-2.635872 3.29562,-4.216625 6.34082,-4.7024 2.4322,-0.136692 4.75289,0.310777 6.84832,1.615352 0,0 -1.35979,2.640375 -1.35979,2.640375 z"
       inkscape:connector-curvature="0" />
    <path
       style="fill:#000000;stroke-width:1.43800008;stroke-linejoin:miter;stroke-miterlimit:4;stroke-dasharray:none"
       id="path441"
       d="m 280.90667,53.993833 c -1.21039,-0.406731 -2.46277,-0.643467 -3.63122,-0.03167 -0.76021,0.539033 -1.15459,1.360557 -1.24931,2.269234 0.0342,0.739275 0.58957,0.937016 1.21023,1.141425 1.57826,0.402085 3.07485,-0.0725 4.47712,-0.789744 0.94334,-0.608608 1.93704,-1.464154 1.68119,-2.689468 -0.30324,-1.793386 -1.17232,-2.999748 -2.56847,-4.156329 0,0 0.0466,-0.101611 0.0466,-0.101611 v 0 c 2.03316,0.375042 4.6741,0.692613 5.87632,2.654345 0.23955,0.390904 0.31123,0.862505 0.46683,1.293757 0.0235,0.457483 0.11086,0.916107 0.0709,1.372449 -0.20346,2.320388 -1.99038,3.999051 -3.86548,5.124495 -2.46507,1.167699 -5.07143,1.796918 -7.74854,0.912905 -2.53589,-1.190074 -3.71811,-2.621708 -3.48173,-5.529034 0.53274,-2.233174 1.67495,-4.055499 3.85705,-5.000575 2.11738,-0.606674 4.14448,-0.454784 6.13825,0.536099 0,0 -1.27968,2.993718 -1.27968,2.993718 z"
       inkscape:connector-curvature="0" />
    <path
       id="path443"
       transform="matrix(0.26458333,0,0,0.26458333,0,11.249983)"
       style="fill:#000000;stroke-width:5.43496084;stroke-linejoin:miter;stroke-miterlimit:4;stroke-dasharray:none"
       d="m 961.03516,171.65234 c -4.71719,6.30001 -9.10141,12.8379 -13.62891,19.27344 -3.86487,5.22909 -7.35763,10.58455 -8.93555,16.93555 -0.49345,11.20175 7.57272,13.59874 16.84961,14.3457 9.36325,0.12028 18.65072,-1.29483 27.86914,-2.77344 8.1549,-0.88535 14.50066,-6.60267 21.84375,-9.58398 l -0.012,-0.42188 c -7.7262,-2.55806 -15.37156,-6.30761 -23.76173,-5.33984 -8.28465,0.75679 -16.55339,1.99286 -24.88086,2.07227 -0.40508,-0.0164 -0.62877,-0.0216 -0.94727,-0.0332 1.51387,-2.63395 3.71756,-5.4188 4.33789,-7.15039 4.06292,-6.7472 8.14131,-13.48577 11.91211,-20.40234 z m -6.79493,36.99219 c 0.0967,0.58235 0.0606,1.28889 -0.24414,2.14453 -0.13166,-0.62603 -0.0188,-1.35681 0.24414,-2.14453 z" />
    <path
       id="path445"
       transform="matrix(0.26458333,0,0,0.26458333,0,11.249983)"
       style="fill:#000000;stroke-width:5.43496084;stroke-linejoin:miter;stroke-miterlimit:4;stroke-dasharray:none"
       d="m 1030.1973,239.31836 c -0.062,0.0658 -0.1294,0.42042 -0.08,1.16211 0.1797,-0.65537 0.1738,-1.05459 0.123,-1.15235 z" />
    <path
       style="fill:#000000;stroke-width:1.43800008;stroke-linejoin:miter;stroke-miterlimit:4;stroke-dasharray:none"
       id="path490"
       d="m 275.11094,87.44827 c -2.608,-0.121068 -5.20284,-0.418216 -7.7905,-0.754348 -3.6127,-0.50841 -7.20921,-1.121336 -10.81091,-1.700623 -3.15688,-0.508381 -6.32418,-0.942787 -9.50668,-1.253114 -1.51131,-0.355251 -3.3754,0.06769 -4.85431,-0.380571 -0.26121,-0.07918 -0.48983,-0.240996 -0.73475,-0.361495 -0.82622,-0.344287 -1.57243,-0.843886 -2.43008,-1.103813 0,0 -0.0236,-0.109265 -0.0236,-0.109265 v 0 c 0.73983,-0.629756 1.3545,-1.406723 2.24348,-1.851385 0.28729,-0.157001 0.55149,-0.366821 0.86185,-0.470998 1.68179,-0.564515 3.66474,0.0835 5.37202,0.05622 3.26613,0.353219 6.51383,0.847037 9.74955,1.414449 3.56172,0.615712 7.11207,1.300777 10.68616,1.842577 2.50235,0.382069 5.01033,0.722847 7.52705,0.996336 0,0 -0.2893,3.676031 -0.2893,3.676031 z"
       inkscape:connector-curvature="0" />
    <path
       style="fill:#000000;stroke-width:1.43800008;stroke-linejoin:miter;stroke-miterlimit:4;stroke-dasharray:none"
       id="path492"
       d="m 228.556,37.860578 c 2.59062,-0.772143 5.289,-0.993702 7.97617,-1.101518 3.39891,-0.216591 6.4302,0.436713 9.59386,1.587711 0.86722,0.160706 1.58563,0.753095 2.43004,0.972646 0.33991,0.08838 0.69973,0.06144 1.04959,0.09216 0,0 -0.01,0.111352 -0.01,0.111352 v 0 c -1.42157,-0.124822 -2.21611,0.145135 -3.61966,0.395653 -3.08623,0.508815 -6.15627,0.720828 -9.28715,0.597834 -2.38024,0.103661 -4.76932,0.267465 -7.08681,0.86029 0,0 -1.04627,-3.516125 -1.04627,-3.516125 z"
       inkscape:connector-curvature="0" />
    <path
       style="fill:#000000;stroke-width:1.43800008;stroke-linejoin:miter;stroke-miterlimit:4;stroke-dasharray:none"
       id="path494"
       d="m 287.86412,43.761022 c -2.61231,-0.421508 -5.25274,-0.633828 -7.89183,-0.798563 -1.8987,-0.189671 -3.84244,-0.02492 -5.72529,-0.37303 -0.79825,-0.14758 -1.57845,-0.380622 -2.37178,-0.552625 -1.05024,-0.219853 -1.79853,-0.39774 -2.8461,-0.174813 0,0 -0.0353,-0.106042 -0.0353,-0.106042 v 0 c 0.96078,-0.442627 1.69283,-1.129559 2.6485,-1.595636 0.83079,-0.368599 1.67651,-0.788228 2.56879,-0.997098 1.97702,-0.46278 4.05746,-0.08853 6.05197,-0.01529 2.78649,0.249576 5.57779,0.517504 8.31654,1.111819 0,0 -0.71546,3.501292 -0.71546,3.501292 z"
       inkscape:connector-curvature="0" />
    <path
       style="fill:#000000;stroke-width:1.43800008;stroke-linejoin:miter;stroke-miterlimit:4;stroke-dasharray:none"
       id="path496"
       d="m 191.91067,162.35239 c -1.51709,-0.6587 -3.00787,-1.37308 -4.39669,-2.27387 -1.0514,-0.67222 -1.95884,-1.52826 -2.87691,-2.36542 -0.75369,-0.70617 -1.4942,-1.42579 -2.19566,-2.18419 -0.58738,-0.62877 -1.18825,-1.24637 -1.72916,-1.91629 -0.55228,-0.63591 -0.92574,-1.3692 -1.19392,-2.16043 -0.19354,-0.58531 -0.14079,-1.22154 -0.29945,-1.81085 -0.14633,-0.31603 -0.43106,-0.54864 -0.69228,-0.76872 -0.61818,-0.45699 -1.3164,-0.79903 -2.00651,-1.13341 -0.61093,-0.38829 -1.66815,-0.64154 -2.01028,-1.36027 -0.0964,-0.20259 -0.0851,-0.4406 -0.12769,-0.66089 -0.11841,-0.82776 0.11779,-1.60274 0.32757,-2.39 0,0 0.10172,-0.0464 0.10172,-0.0464 v 0 c 0.61676,0.24116 1.23113,0.29945 1.87078,0.0777 0.76492,-0.35129 1.09054,0.24436 1.8121,0.54814 0.98415,0.53463 1.98897,1.04867 2.84693,1.77988 0.92211,0.83173 1.69648,1.77706 2.01098,3.00763 0.10577,0.48814 0.17935,0.97669 0.25958,1.46773 0.0995,0.28171 0.23702,0.54455 0.42289,0.78696 0.47453,0.59755 0.94675,1.19606 1.46197,1.75975 0.65728,0.714 1.29813,1.4432 1.96807,2.14544 0.68597,0.73842 1.37284,1.48162 2.16501,2.10948 1.16781,0.84155 2.40752,1.56303 3.73102,2.13533 0,0 -1.45007,3.25271 -1.45007,3.25271 z"
       inkscape:connector-curvature="0" />
    <path
       style="fill:#000000;stroke-width:1.43800008;stroke-linejoin:miter;stroke-miterlimit:4;stroke-dasharray:none"
       id="path498"
       d="m 354.98127,144.77499 c -0.59621,1.68923 -1.39298,3.28745 -2.36271,4.79065 -0.70688,1.01429 -1.48936,1.97371 -2.25051,2.94748 -0.80791,1.05664 -1.64084,2.09259 -2.54125,3.07188 -0.97618,1.10032 -2.06922,2.08427 -3.2217,2.99475 -1.10818,0.89792 -2.38768,1.53157 -3.66908,2.13828 -1.15895,0.54663 -2.3132,1.09994 -3.5115,1.55581 -1.34506,0.32444 -2.63525,-0.4988 -3.96433,-0.55257 0,0 -0.0276,-0.10833 -0.0276,-0.10833 v 0 c 1.12168,-0.70093 1.16213,-2.31807 2.28714,-3.04233 1.11001,-0.60913 2.25621,-1.14622 3.40627,-1.67506 0.99798,-0.4726 1.99321,-0.95663 2.88102,-1.62222 0.98066,-0.76539 1.91535,-1.58675 2.77485,-2.48754 0.84341,-0.91758 1.66738,-1.8518 2.45308,-2.81971 0.73568,-0.87252 1.51598,-1.70454 2.24158,-2.58548 0.90458,-1.18509 1.70196,-2.45003 2.26097,-3.83839 0,0 3.24374,1.23278 3.24374,1.23278 z"
       inkscape:connector-curvature="0" />
  </g>
</svg>
