<?xml version="1.0" encoding="UTF-8" standalone="no"?>
<!-- Created with Inkscape (http://www.inkscape.org/) -->

<svg
   xmlns:dc="http://purl.org/dc/elements/1.1/"
   xmlns:cc="http://creativecommons.org/ns#"
   xmlns:rdf="http://www.w3.org/1999/02/22-rdf-syntax-ns#"
   xmlns:svg="http://www.w3.org/2000/svg"
   xmlns="http://www.w3.org/2000/svg"
   xmlns:sodipodi="http://sodipodi.sourceforge.net/DTD/sodipodi-0.dtd"
   xmlns:inkscape="http://www.inkscape.org/namespaces/inkscape"
   width="1920"
   height="1080"
   viewBox="0 0 507.99999 285.75001"
   version="1.1"
   id="svg8"
   inkscape:version="0.92.2 2405546, 2018-03-11"
   sodipodi:docname="schrodinger-2.svg">
  <defs
     id="defs2" />
  <sodipodi:namedview
     id="base"
     pagecolor="#ffffff"
     bordercolor="#666666"
     borderopacity="1.0"
     inkscape:pageopacity="0.0"
     inkscape:pageshadow="2"
     inkscape:zoom="0.37871094"
     inkscape:cx="1207.558"
     inkscape:cy="407.3882"
     inkscape:document-units="mm"
     inkscape:current-layer="layer1"
     showgrid="false"
     units="px"
     inkscape:window-width="1348"
     inkscape:window-height="730"
     inkscape:window-x="5"
     inkscape:window-y="25"
     inkscape:window-maximized="0" />
  <metadata
     id="metadata5">
    <rdf:RDF>
      <cc:Work
         rdf:about="">
        <dc:format>image/svg+xml</dc:format>
        <dc:type
           rdf:resource="http://purl.org/dc/dcmitype/StillImage" />
        <dc:title></dc:title>
      </cc:Work>
    </rdf:RDF>
  </metadata>
  <g
     inkscape:label="Layer 1"
     inkscape:groupmode="layer"
     id="layer1"
     transform="translate(0,-11.249983)">
    <path
       style="opacity:1;fill:#ff0000;fill-opacity:1;stroke:none;stroke-width:0.2;stroke-linejoin:miter;stroke-miterlimit:4;stroke-dasharray:none;stroke-opacity:1"
       id="path5097"
       d="m 88.030179,76.998606 c -3.785991,0.48019 -7.550528,1.10864 -11.309924,1.76144 -4.754565,0.84798 -9.514421,1.66001 -14.310923,2.23151 -2.043687,0.0113 -4.25926,0.76341 -6.303486,0.28993 -0.565449,-0.13097 -1.232379,-0.55862 -1.736027,-0.8505 -0.611327,-0.42955 -0.784598,-0.80029 -0.858395,-1.50936 0,0 0.01998,-0.10998 0.01998,-0.10998 v 0 c 0.114329,-0.63303 0.272484,-1.03141 0.808257,-1.44041 0.394893,-0.26258 1.11067,-0.76831 1.541129,-0.91404 1.867585,-0.63224 4.005453,-0.21399 5.906402,-0.66599 4.714314,-0.56638 9.403728,-1.30539 14.082525,-2.11294 3.889589,-0.62705 7.78588,-1.2789 11.720933,-1.54131 0,0 0.439528,4.86165 0.439528,4.86165 z"
       inkscape:connector-curvature="0" />
    <path
       style="opacity:1;fill:#ff0000;fill-opacity:1;stroke:none;stroke-width:0.2;stroke-linejoin:miter;stroke-miterlimit:4;stroke-dasharray:none;stroke-opacity:1"
       id="path5099"
       d="m 109.91689,25.869615 c -0.0812,4.212399 -0.17494,8.424878 -0.21288,12.638402 -0.0464,5.970469 0.0926,11.939769 0.3637,17.903689 0.10783,1.90855 0.14169,3.82312 0.3103,5.72817 0.0303,0.34225 0.0586,0.68565 0.11958,1.02379 0.0237,0.13128 0.19058,0.49778 0.13297,0.37746 -0.13615,-0.28434 -0.24611,-0.5805 -0.36917,-0.87076 -0.78625,-0.18139 -1.57251,-0.36279 -2.35876,-0.54418 -0.0719,0.001 -0.23894,0.0715 -0.21554,0.004 0.0979,-0.28439 0.32543,-0.50611 0.47785,-0.76541 0.23724,-0.40361 0.46549,-0.81251 0.69086,-1.22288 0.58756,-1.0699 1.17035,-2.19671 1.73576,-3.27619 1.6354,-3.20807 3.27278,-6.41463 5.05443,-9.5445 1.19414,-1.89773 2.62631,-3.22045 5.00384,-1.42478 0.67724,0.5115 0.7046,1.99802 0.77844,2.75461 -0.0414,2.81478 -0.23283,5.61784 -0.10532,8.43298 0.19234,1.77322 0.33942,3.9788 1.96552,5.06218 1.60445,0.4914 3.11809,0.41798 4.73207,-0.007 1.69832,-0.74871 0.89155,-0.2899 2.41723,-1.38179 0,0 0.0848,0.0728 0.0848,0.0728 v 0 c -0.95467,1.81117 -0.43568,0.91281 -1.56302,2.69157 -2.65861,3.08536 -4.83629,4.50582 -8.78448,2.38854 -0.41022,-0.36095 -0.86557,-0.67631 -1.23067,-1.08285 -1.85588,-2.0666 -2.25386,-4.95468 -2.42911,-7.60692 -0.0386,-2.77874 0.15156,-5.54307 0.29258,-8.31668 0.009,-0.1428 -0.11324,-0.45696 0.027,-0.42839 0.21997,0.0448 0.28461,0.34726 0.42691,0.52088 0.71349,0.13452 1.42697,0.26903 2.14045,0.40354 0.27349,-0.0103 0.4416,-0.32502 0.64451,-0.5087 0.23948,-0.21678 -2.31573,1.49656 -0.6559,0.71335 -1.92007,2.91853 -3.37591,6.11307 -4.98269,9.20761 -0.80128,1.6129 -1.57082,3.25138 -2.4367,4.83127 -0.28678,0.52327 -1.23312,2.28887 -1.86518,2.45014 -0.9905,0.25272 -2.04192,-0.10207 -3.06288,-0.1531 -0.28823,-0.4528 -0.64567,-0.86837 -0.8647,-1.35841 -0.18466,-0.41313 -0.2612,-1.85744 -0.27886,-2.22564 -0.0928,-1.93433 -0.0594,-3.87366 -0.13537,-5.80848 -0.10829,-6.029 -0.27655,-12.05882 -0.17745,-18.089382 0.0641,-4.273688 0.085,-8.561838 0.52261,-12.817137 0,0 3.80729,0.228185 3.80729,0.228185 z"
       inkscape:connector-curvature="0" />
    <path
       style="opacity:1;fill:#ff0000;fill-opacity:1;stroke:none;stroke-width:0.2;stroke-linejoin:miter;stroke-miterlimit:4;stroke-dasharray:none;stroke-opacity:1"
       id="path5101"
       d="m 120.74457,39.142419 c -2.8198,0.548045 -5.65276,1.015487 -8.50261,1.374927 -3.369,0.52728 -6.7275,-0.12389 -9.98142,-0.987582 -0.3258,-0.09209 -0.65159,-0.184177 -0.97738,-0.276265 0,0 -0.005,-0.111678 -0.005,-0.111678 v 0 c 0.31037,-0.119621 0.62074,-0.239244 0.93111,-0.358868 3.01699,-1.276694 6.104,-2.504408 9.391,-2.828795 2.84067,-0.442238 5.67428,-0.945499 8.52771,-1.296482 0,0 0.61642,4.484743 0.61642,4.484743 z"
       inkscape:connector-curvature="0" />
    <path
       style="opacity:1;fill:#ff0000;fill-opacity:1;stroke:none;stroke-width:0.2;stroke-linejoin:miter;stroke-miterlimit:4;stroke-dasharray:none;stroke-opacity:1"
       id="path5103"
       d="m 128.45807,17.712532 c 2.0931,-0.801809 4.22762,-1.411896 6.4786,-1.36579 3.33348,0.67999 3.8843,3.053797 3.31886,6.031439 -0.68557,2.515201 -2.12865,4.703241 -3.47562,6.901185 -0.42717,0.751446 -0.92456,1.492163 -1.20704,2.317412 -0.0188,0.05478 -0.17368,0.906782 0.0743,0.299238 0.22659,-0.225073 -0.16087,-0.423341 -0.10449,-0.627888 0.0569,-0.206351 0.4206,0.0818 0.62707,0.138237 1.1859,0.324154 0.51495,0.05722 1.77626,0.751938 1.67438,0.775226 3.3724,1.426527 4.95788,2.375 0,0 -0.0118,0.111165 -0.0118,0.111165 v 0 c -1.7759,0.629589 -3.59574,1.098198 -5.4317,1.522751 -0.46383,0.08427 -0.92024,0.239885 -1.39148,0.252807 -1.70427,0.04673 -3.83987,-0.810636 -4.83111,-2.230456 -0.28205,-0.403995 -0.41002,-0.896072 -0.61503,-1.344107 -0.0386,-0.443831 -0.13443,-0.886362 -0.11595,-1.331489 0.0764,-1.838503 1.34215,-3.375668 2.30519,-4.833062 1.1658,-1.664944 2.39524,-3.334507 3.10593,-5.255482 0.25467,-0.868101 0.003,-0.771023 0.64087,-0.621872 0.33292,0.07785 0.23134,0.0085 0.14149,-0.09428 -1.57236,-0.23644 -3.13348,0.597091 -4.58066,1.087535 0,0 -1.66163,-4.084285 -1.66163,-4.084285 z"
       inkscape:connector-curvature="0" />
    <path
       style="opacity:1;fill:#ff0000;fill-opacity:1;stroke:none;stroke-width:0.2;stroke-linejoin:miter;stroke-miterlimit:4;stroke-dasharray:none;stroke-opacity:1"
       id="path5105"
       d="m 145.21889,80.402076 c -4.14262,0.52699 -8.32093,0.69925 -12.49019,0.87148 -6.91572,0.22345 -13.83589,0.24174 -20.75452,0.27314 -4.49003,0.0973 -9.01666,-1.1894 -13.493015,-0.57811 0,0 -0.03594,-0.10585 -0.03594,-0.10585 v 0 c 0.940803,-0.52582 1.801345,-1.03754 2.810295,-1.44876 3.37101,-1.37393 7.03757,-1.96073 10.63665,-2.3083 6.88333,-0.2223 13.77103,-0.22116 20.65432,-0.44831 4.09843,-0.15409 8.19202,-0.37432 12.28557,-0.62386 0,0 0.38683,4.36857 0.38683,4.36857 z"
       inkscape:connector-curvature="0" />
    <path
       style="opacity:1;fill:#ff0000;fill-opacity:1;stroke:none;stroke-width:0.2;stroke-linejoin:miter;stroke-miterlimit:4;stroke-dasharray:none;stroke-opacity:1"
       id="path5107"
       d="m 94.989441,102.53325 c 2.156301,-2.08308 4.742452,-3.549944 7.492329,-4.688094 2.39249,-0.80383 5.35105,-1.35596 7.42547,0.54548 0.43104,0.3951 0.70985,0.92937 1.06477,1.39406 1.43561,3.411894 0.17139,6.814254 -1.2344,10.002644 -1.27166,2.70792 -3.04805,5.11973 -4.69093,7.60414 0.039,0.14383 -0.96665,1.27249 -0.69612,1.54213 0.28313,0.28218 0.078,-0.82539 -0.0687,-1.19723 -0.003,-0.0392 -0.0475,-0.11429 -0.008,-0.11756 0.14287,-0.0119 2.79338,0.52826 2.91457,0.56223 0.39013,0.10938 0.7542,0.29636 1.13131,0.44454 1.5268,0.59823 3.13166,0.95012 4.71533,1.35834 0,0 0.0219,0.10963 0.0219,0.10963 v 0 c -1.4723,1.05629 -3.06005,1.8604 -4.79481,2.41038 -0.45725,0.13579 -0.90049,0.33364 -1.37175,0.40736 -2.1003,0.32857 -4.55735,-0.29314 -6.27429,-1.48423 -0.3247,-0.42129 -0.740165,-0.78619 -0.974125,-1.26387 -0.973974,-1.98861 0.13046,-4.00429 1.238675,-5.62947 1.55704,-2.19444 3.24428,-4.31614 4.4558,-6.73228 0.80711,-1.73831 1.53344,-3.49904 1.5649,-5.4447 0.89086,-0.8935 -2.55352,-0.2462 -2.62754,-0.1018 -2.17071,0.8602 -4.21082,2.01002 -5.882391,3.66652 0,0 -3.401608,-3.38822 -3.401608,-3.38822 z"
       inkscape:connector-curvature="0" />
    <path
       style="opacity:1;fill:#ff0000;fill-opacity:1;stroke:none;stroke-width:0.2;stroke-linejoin:miter;stroke-miterlimit:4;stroke-dasharray:none;stroke-opacity:1"
       id="path5109"
       d="m 120.00626,109.4672 c 1.15752,2.33695 1.76547,4.86729 2.04761,7.44562 0.0428,1.09885 -0.0244,4.18773 -1.62385,4.42478 -3.20861,0.47555 -3.08814,-0.31118 -3.92895,-2.17406 -0.43805,-2.79636 0.37783,-5.53422 1.36424,-8.12335 1.00263,-2.09173 2.21492,-4.36075 4.32827,-5.53507 0.401,-0.22282 0.84662,-0.35362 1.26993,-0.53043 3.64823,-0.59857 5.25534,1.62672 6.44848,4.68042 0.77615,2.43128 0.90224,4.96572 0.6602,7.48801 -0.37547,2.29281 0.0416,1.95051 -4.55234,-0.96423 -0.0332,-0.0211 1.39088,-2.45491 1.5128,-2.66044 1.58737,-2.66087 3.52825,-5.064 5.79105,-7.17361 1.79224,-1.49178 4.15345,-2.73623 6.46054,-1.49486 0.46348,0.24938 0.82046,0.65944 1.23069,0.98916 1.91619,2.4093 2.34155,5.49991 2.77695,8.456 0.21061,2.14361 -0.29187,4.66094 -1.24547,6.61072 0,0 -0.10791,0.0292 -0.10791,0.0292 v 0 c -1.68513,-1.30064 -2.82959,-3.86701 -3.27636,-5.88995 -0.34687,-1.94525 -0.67831,-3.91332 -1.4255,-5.75341 0.0392,-0.0382 0.45757,-0.27675 0.34754,-0.31826 -0.52223,-0.19703 -1.28574,0.61938 -1.62615,0.79544 -1.94851,1.74092 -3.54805,3.81022 -4.82938,6.08883 -0.47876,0.87625 -0.54374,0.96402 -0.94989,1.81552 -0.10268,0.21527 -0.0579,0.67368 -0.29536,0.65171 -5.26626,-0.48707 -5.05584,0.36186 -4.672,-1.7266 0.23818,-1.74733 0.16766,-3.52624 -0.36735,-5.2179 -0.12524,-0.35389 -0.55485,-1.06283 -0.59247,-1.4548 -0.0142,-0.14777 0.39014,-0.11595 0.33502,-0.31074 -1.11567,-0.13018 -2.28798,2.41472 -2.67225,3.18003 -0.63358,1.61591 -1.1733,3.27636 -1.12821,5.03604 -0.84257,-1.10177 -0.86261,-1.38987 -3.32104,-0.84091 -1.24516,0.27804 -0.84889,2.51025 -0.75525,0.35172 -0.11243,-1.947 -0.60657,-3.85459 -1.46661,-5.60925 0,0 4.26302,-2.26532 4.26302,-2.26532 z"
       inkscape:connector-curvature="0" />
    <path
       style="opacity:1;fill:#ff0000;fill-opacity:1;stroke:none;stroke-width:0.2;stroke-linejoin:miter;stroke-miterlimit:4;stroke-dasharray:none;stroke-opacity:1"
       id="path5111"
       d="m 190.52354,51.215086 c -1.63077,2.77842 -3.1356,5.62869 -4.63612,8.47884 -2.0685,3.9375 -4.03054,7.92793 -5.90918,11.95905 -1.16692,2.00096 -1.89655,5.24503 -3.54332,6.91558 -0.31646,0.32102 -0.71207,0.55295 -1.0681,0.82942 -0.65411,0.0832 -1.31648,0.38251 -1.96234,0.24964 -2.44696,-0.5034 -3.92336,-4.94172 -4.81292,-6.91621 -1.74749,-4.01726 -3.79388,-7.88824 -6.04995,-11.64023 -1.50045,-2.41768 -3.14109,-4.76028 -5.16674,-6.76745 -1.31987,-1.17372 -2.50762,-1.87234 -1.34986,-4.16947 0.25947,-0.51483 0.99724,-0.57881 1.49586,-0.86822 2.14786,-0.1892 4.29505,-0.38184 6.43852,-0.63135 4.58785,-0.58666 9.17525,-1.17233 13.78838,-1.51774 3.66087,-0.24629 7.26759,0.49522 10.72064,1.64807 0,0 -0.007,0.11156 -0.007,0.11156 v 0 c -3.44586,0.71015 -6.80209,1.87035 -10.30674,2.27938 -4.55446,0.57983 -9.11056,1.14553 -13.6546,1.80416 -1.97214,0.2631 -3.9535,0.55504 -5.93873,0.672 0.33448,-0.25029 0.86543,-0.35657 1.00344,-0.75087 0.43908,-1.25442 0.60026,-2.05198 -0.19924,-2.69408 -0.063,-0.0506 0.0994,0.12767 0.15517,0.18609 0.31533,0.33031 0.6646,0.62744 0.95934,0.978 2.11928,2.34088 3.95269,4.91197 5.57153,7.62306 2.30676,3.88537 4.40526,7.88249 6.29415,11.98858 0.64975,1.34892 1.2874,2.69313 2.02038,3.9987 0.0762,0.13571 0.34492,0.3031 0.22896,0.4069 -0.39237,0.35123 -1.33952,-0.94145 -1.54838,0.31354 -0.19518,0.76431 0.6789,-0.79041 0.87459,-1.15291 0.82275,-1.52407 1.50133,-3.12319 2.25312,-4.68176 1.93188,-4.08636 3.92618,-8.14457 6.08181,-12.11843 1.59314,-2.92469 3.17624,-5.86475 5.04998,-8.62272 0,0 3.21735,2.08887 3.21735,2.08887 z"
       inkscape:connector-curvature="0" />
    <path
       style="opacity:1;fill:#ff0000;fill-opacity:1;stroke:none;stroke-width:0.2;stroke-linejoin:miter;stroke-miterlimit:4;stroke-dasharray:none;stroke-opacity:1"
       id="path5113"
       d="m 157.50781,55.545676 c 0.87521,2.78215 1.94939,5.49123 3.08755,8.17437 1.73149,3.96641 3.91756,7.70746 6.13443,11.41637 1.59018,2.58548 2.31356,5.55606 3.33084,8.38383 0,0 -0.0846,0.0731 -0.0846,0.0731 v 0 c -2.7074,-1.51923 -4.99663,-3.757 -6.78186,-6.28008 -2.42466,-3.82847 -4.70696,-7.75244 -6.53833,-11.90527 -1.22974,-2.84333 -2.37913,-5.72886 -3.16589,-8.73106 0,0 4.01785,-1.13124 4.01785,-1.13124 z"
       inkscape:connector-curvature="0" />
    <path
       style="opacity:1;fill:#ff0000;fill-opacity:1;stroke:none;stroke-width:0.2;stroke-linejoin:miter;stroke-miterlimit:4;stroke-dasharray:none;stroke-opacity:1"
       id="path5115"
       d="m 193.28051,41.714406 c 2.30442,-0.89521 4.68249,-1.44761 7.15697,-1.39478 2.24466,0.27436 3.97188,1.75805 3.84919,4.15919 -0.0219,0.42945 -0.1615,0.84473 -0.24225,1.26709 -0.86771,2.4156 -2.68482,4.25742 -4.42068,6.07757 -0.58172,0.62872 -1.21879,1.24075 -1.64862,1.99231 -0.14029,0.24529 -0.20659,0.76779 0.0545,0.0592 -0.0227,-0.8553 -0.68433,-0.97812 0.31829,-0.81691 1.50989,0.24277 -0.14786,-0.0611 1.65117,0.28417 2.01805,0.7611 4.05341,1.48722 6.10436,2.15595 0,0 -0.006,0.11163 -0.006,0.11163 v 0 c -2.13966,0.46768 -4.20321,1.20033 -6.29465,1.84524 -1.93301,0.12527 -4.41322,0.0782 -5.67782,-1.69863 -0.28584,-0.40163 -0.39621,-0.90281 -0.59432,-1.35422 0.006,-0.44134 -0.0512,-0.88831 0.0194,-1.32402 0.29168,-1.80074 1.89905,-3.05862 3.09191,-4.27083 1.32888,-1.23393 2.76571,-2.44011 3.64873,-4.0527 0.30297,-0.51812 1.05944,-0.36151 -0.006,-0.72425 -1.91219,-0.14431 -3.78352,0.43606 -5.52923,1.17747 0,0 -1.47468,-3.49352 -1.47468,-3.49352 z"
       inkscape:connector-curvature="0" />
    <path
       style="opacity:1;fill:#ff0000;fill-opacity:1;stroke:none;stroke-width:0.2;stroke-linejoin:miter;stroke-miterlimit:4;stroke-dasharray:none;stroke-opacity:1"
       id="path5117"
       d="m 227.5567,63.202766 c 0.004,2.9683 0.01,5.93672 -0.0159,8.90505 -0.10202,1.54899 0.0527,3.1393 -0.23073,4.67618 -0.2104,1.141 -0.692,2.26653 -1.11995,3.33955 -0.37164,0.78774 -0.22694,0.42998 -0.4586,1.06302 0,0 -0.10552,0.0369 -0.10552,0.0369 v 0 c -0.62297,-0.53685 -0.30924,-0.20919 -0.89287,-1.0271 -0.52117,-1.08453 -1.03778,-2.22822 -1.25761,-3.42162 -0.28293,-1.53599 -0.10762,-3.12786 -0.2073,-4.6754 -0.014,-2.95628 -0.0151,-5.91277 -0.0491,-8.86881 0,0 4.33759,-0.0278 4.33759,-0.0278 z"
       inkscape:connector-curvature="0" />
    <path
       style="opacity:1;fill:#ff0000;fill-opacity:1;stroke:none;stroke-width:0.2;stroke-linejoin:miter;stroke-miterlimit:4;stroke-dasharray:none;stroke-opacity:1"
       id="path5119"
       d="m 235.95279,70.871256 c -3.20007,1.14664 -6.55002,1.77301 -9.89867,2.29733 -2.34711,0.23201 -4.72451,0.78937 -7.097,0.55497 -0.67017,-0.0662 -2.10273,-0.40679 -2.78876,-0.56074 -0.86837,-0.1965 -1.65159,-0.60091 -2.49918,-0.85444 0,0 -0.008,-0.11147 -0.008,-0.11147 v 0 c 0.79418,-0.37532 1.49775,-0.89236 2.31024,-1.23727 0.55877,-0.23829 2.05921,-0.893 2.60086,-1.0589 2.21202,-0.67753 4.56918,-0.63787 6.83098,-1.04194 3.11521,-0.4527 6.22589,-0.96587 9.25367,-1.84763 0,0 1.29621,3.86009 1.29621,3.86009 z"
       inkscape:connector-curvature="0" />
    <path
       style="opacity:1;fill:#ff0000;fill-opacity:1;stroke:none;stroke-width:0.2;stroke-linejoin:miter;stroke-miterlimit:4;stroke-dasharray:none;stroke-opacity:1"
       id="path5121"
       d="m 252.38572,53.236886 c 0.49508,3.40284 1.1414,6.78058 1.77703,10.15915 0.86664,4.40273 1.78332,8.79558 3.00657,13.11446 0.27882,0.80314 0.51027,1.6465 0.9569,2.38255 0.081,0.13352 0.22819,0.46148 0.32418,0.33828 0.39908,-0.51216 -1.24937,-0.77936 -1.71493,-0.89179 2.28802,-3.82443 3.93936,-7.99807 5.67618,-12.09168 2.3533,-5.09479 3.82713,-10.63444 6.81479,-15.41308 0.65432,-0.75746 1.19682,-2.22709 2.30149,-2.5085 0,0 0.10622,-0.0348 0.10622,-0.0348 v 0 c 1.02148,0.83131 0.49421,2.51671 0.45138,3.61615 -0.11068,0.67806 -0.17105,1.36627 -0.33208,2.03417 -0.38212,1.58494 -1.15435,3.52709 -1.72909,5.0236 -1.1532,3.00273 -2.36975,5.9805 -3.572,8.96374 -1.90186,4.66124 -3.60444,9.52245 -6.43488,13.71457 -0.54743,0.41544 -0.98577,1.04325 -1.6423,1.24631 -3.60267,1.11426 -4.75406,-2.68381 -5.44099,-5.26628 -1.08687,-4.45811 -1.96863,-8.96306 -2.82071,-13.47122 -0.64937,-3.50057 -1.33302,-7.00701 -1.63848,-10.55811 0,0 3.91072,-0.35749 3.91072,-0.35749 z"
       inkscape:connector-curvature="0" />
    <path
       style="opacity:1;fill:#ff0000;fill-opacity:1;stroke:none;stroke-width:0.2;stroke-linejoin:miter;stroke-miterlimit:4;stroke-dasharray:none;stroke-opacity:1"
       id="path5123"
       d="m 268.31752,45.325436 c -1.80607,-2.29572 -3.37915,-4.75608 -4.85783,-7.27106 -0.91416,-1.061324 -1.36007,-3.268046 -2.21275,-4.311002 -0.0651,-0.07956 0.0908,0.184396 0.13616,0.276595 1.17988,-0.09803 2.35717,-0.353517 3.53962,-0.294079 0.15847,0.008 -0.0612,0.311399 -0.0897,0.467495 -0.056,0.307316 -0.1061,0.615725 -0.16391,0.922716 -0.27276,1.448332 -0.63414,2.866604 -1.00393,4.29278 -0.9724,3.402575 -2.39931,6.639445 -4.17528,9.693345 -0.64167,1.13888 -1.6297,1.92874 -2.67863,2.66758 -0.54995,0.38737 -1.16205,0.62743 -1.65309,1.0832 0,0 -0.10879,-0.0257 -0.10879,-0.0257 v 0 c -0.43485,-1.90037 -0.008,-3.9263 0.77099,-5.68019 1.38977,-2.8816 2.83928,-5.7545 3.68818,-8.855249 0.4566,-1.635434 0.78848,-3.265104 1.09994,-4.932034 0.0608,-0.325475 -0.096,-0.815713 0.19476,-0.974043 1.18048,-0.642723 2.56139,-0.815908 3.84209,-1.223862 1.04183,1.474846 1.47222,3.283104 2.42449,4.820047 1.33795,2.39318 2.82474,4.700121 4.45583,6.904941 0,0 -3.20817,2.43854 -3.20817,2.43854 z"
       inkscape:connector-curvature="0" />
    <path
       style="opacity:1;fill:#000000;fill-opacity:1;stroke:none;stroke-width:0.2;stroke-linejoin:miter;stroke-miterlimit:4;stroke-dasharray:none;stroke-opacity:1"
       id="path5125"
       d="m 274.66511,15.864515 c 2.79588,4.534974 5.05341,9.405358 6.76479,14.450536 0.5747,1.694257 1.05084,3.42037 1.57625,5.130557 2.08315,8.236008 3.39098,16.807338 2.78106,25.329688 -0.41396,5.78421 -1.10341,7.38969 -2.55354,12.9326 -1.66749,5.84046 -4.96729,10.79596 -8.3066,15.76587 0,0 -0.0947,-0.0594 -0.0947,-0.0594 v 0 c 0.94269,-1.61747 2.03034,-3.15874 2.82803,-4.85241 1.95924,-4.15976 2.34706,-6.81701 3.41252,-11.27217 0.2541,-2.05336 0.59359,-4.09794 0.76234,-6.16006 0.83714,-10.2308 0.004,-20.56831 -2.75833,-30.461638 -0.5125,-1.62574 -0.97973,-3.266456 -1.5375,-4.877223 -1.68164,-4.856284 -3.93197,-9.473189 -6.34066,-14.002639 0,0 3.46636,-1.923751 3.46636,-1.923751 z"
       inkscape:connector-curvature="0" />
    <path
       style="opacity:1;fill:#000000;fill-opacity:1;stroke:none;stroke-width:0.2;stroke-linejoin:miter;stroke-miterlimit:4;stroke-dasharray:none;stroke-opacity:1"
       id="path5127"
       d="m 52.626173,25.279358 c -3.259225,4.561555 -5.478841,9.695363 -7.540199,14.875218 -3.133056,8.77941 -4.902671,18.01126 -5.234106,27.3293 -0.07446,2.09348 -0.0096,4.1896 -0.01439,6.2844 0.466492,9.71368 1.133094,19.57165 4.792676,28.700274 0.608613,1.51816 1.390753,2.96084 2.086131,4.44127 0,0 -0.09704,0.0555 -0.09704,0.0555 v 0 c -0.939197,-1.37882 -1.957305,-2.70708 -2.81759,-4.13646 -3.981773,-6.615834 -6.853616,-14.868024 -7.970763,-22.498824 -0.318003,-2.17215 -0.352952,-4.3764 -0.529429,-6.56461 -0.0021,-2.20039 -0.08241,-4.40211 -0.0062,-6.60118 0.338958,-9.78362 2.207186,-19.4959 5.514181,-28.70533 2.207268,-5.586071 4.563621,-11.239753 8.416079,-15.924812 0,0 3.400689,2.745284 3.400689,2.745284 z"
       inkscape:connector-curvature="0" />
    <path
       style="opacity:1;fill:#000000;fill-opacity:1;stroke:none;stroke-width:0.2;stroke-linejoin:miter;stroke-miterlimit:4;stroke-dasharray:none;stroke-opacity:1"
       id="path5129"
       d="m 295.91777,45.228876 c 0.45913,4.63369 0.69791,9.28709 0.94747,13.93594 0.21651,5.59942 0.76536,11.19702 0.63645,16.80342 -0.21492,1.62272 -0.36954,3.2639 -0.77313,4.85517 -0.29443,1.16084 -0.36693,0.53025 -0.15661,1.36223 0,0 -0.10724,0.0316 -0.10724,0.0316 v 0 c -0.35663,-1.06115 0.11502,0.19347 -0.71707,-1.27338 -0.82786,-1.45937 -1.24177,-3.11373 -1.76141,-4.69288 -1.01931,-5.54765 -1.08143,-11.20811 -1.50969,-16.82161 -0.30673,-4.58382 -0.61558,-9.16766 -1.0569,-13.74092 0,0 4.49813,-0.45957 4.49813,-0.45957 z"
       inkscape:connector-curvature="0" />
    <path
       style="opacity:1;fill:#0000ff;fill-opacity:1;stroke:none;stroke-width:0.2;stroke-linejoin:miter;stroke-miterlimit:4;stroke-dasharray:none;stroke-opacity:1"
       id="path5131"
       d="m 305.48095,53.047986 c -0.0427,2.21847 0.14462,4.4243 0.65838,6.58254 0.43784,1.75744 1.43116,3.07159 2.91606,4.05911 1.49992,0.84521 3.11602,0.98102 4.75366,0.53646 1.59184,-0.57106 2.28073,-1.82568 2.78482,-3.34025 0.54705,-2.17633 0.94827,-4.00812 0.93763,-6.27201 -0.0975,-0.30107 -0.19492,-0.60214 -0.29239,-0.9032 0,0 0.0984,-0.053 0.0984,-0.053 v 0 c 0.20434,0.25934 0.40865,0.51868 0.61299,0.77801 2.17911,2.28073 3.51443,4.51246 2.89605,7.77478 -1.04331,3.47551 -2.53397,5.23513 -5.9975,6.48793 -3.07117,0.65261 -5.73227,0.42622 -8.46365,-1.24285 -2.36606,-1.73595 -4.02746,-3.93883 -4.69931,-6.84553 -0.518,-2.51255 -0.71552,-5.0564 -0.61294,-7.6227 0,0 4.40778,0.0607 4.40778,0.0607 z"
       inkscape:connector-curvature="0" />
    <path
       style="opacity:1;fill:#0000ff;fill-opacity:1;stroke:none;stroke-width:0.2;stroke-linejoin:miter;stroke-miterlimit:4;stroke-dasharray:none;stroke-opacity:1"
       id="path5133"
       d="m 314.332,50.834046 c 0.51594,3.21821 0.78142,6.4694 1.0832,9.71269 0.37137,4.52119 0.678,9.04808 0.73605,13.58494 0.11028,2.65634 -0.55375,5.13205 -1.79367,7.44398 0,0 -0.11162,-0.006 -0.11162,-0.006 v 0 c -0.98245,-2.32893 -1.95393,-4.65026 -2.01076,-7.23911 -0.3992,-4.45322 -0.67971,-8.91716 -1.15816,-13.36325 -0.31684,-3.13772 -0.6495,-6.27604 -1.11633,-9.39549 0,0 4.37129,-0.73794 4.37129,-0.73794 z"
       inkscape:connector-curvature="0" />
    <path
       style="opacity:1;fill:#000000;fill-opacity:1;stroke:none;stroke-width:0.2;stroke-linejoin:miter;stroke-miterlimit:4;stroke-dasharray:none;stroke-opacity:1"
       id="path5135"
       d="m 327.01348,47.161646 c 1.63465,1.42186 3.5565,2.41813 5.54704,3.23657 1.39954,0.64901 3.08205,0.84315 4.30453,1.84957 0.29298,0.24118 0.53171,0.54153 0.79759,0.8123 0.18944,0.39381 0.44947,0.7609 0.56832,1.18144 0.63956,2.26291 -0.74996,4.7033 -1.68756,6.66104 -1.69495,3.2996 -3.34343,6.61722 -4.76229,10.04577 -0.87492,2.67223 -2.36469,5.0404 -3.91697,7.36051 -0.0283,0.17879 -0.0567,0.35758 -0.085,0.53637 0,0 -0.1117,0.004 -0.1117,0.004 v 0 c -0.043,-0.19252 -0.0861,-0.38504 -0.12907,-0.57756 -0.98568,-2.92842 -0.70789,-6.00668 0.40529,-8.86724 1.38314,-3.53277 3.02964,-6.94015 4.77756,-10.30635 0.38266,-0.82441 0.69183,-1.45447 1.02121,-2.28626 0.14647,-0.36993 0.19044,-0.78336 0.38774,-1.12886 0.0498,-0.0872 0.30914,0.0519 0.2925,0.0719 0.46733,-0.33449 -3.22638,-1.38599 -3.45543,-1.54832 -2.37818,-1.00905 -4.65783,-2.23056 -6.67443,-3.86282 0,0 2.72071,-3.18246 2.72071,-3.18246 z"
       inkscape:connector-curvature="0" />
    <path
       style="opacity:1;fill:#000000;fill-opacity:1;stroke:none;stroke-width:0.2;stroke-linejoin:miter;stroke-miterlimit:4;stroke-dasharray:none;stroke-opacity:1"
       id="path5137"
       d="m 358.56192,62.504436 c -2.72868,-0.21726 -5.4578,-0.41996 -8.19187,-0.55544 -1.38811,-0.1345 -2.81445,0.0314 -4.19576,-0.19955 -0.93835,-0.15688 -1.87987,-0.52986 -2.7708,-0.85607 -0.58671,-0.28454 -0.32433,-0.23987 -0.75428,-0.26197 0,0 -0.061,-0.0937 -0.061,-0.0937 v 0 c 0.29906,-0.47352 0.11229,-0.19591 0.58354,-0.81674 2.31696,-1.84382 4.43897,-2.03893 7.34679,-1.938 2.79594,0.0627 5.58806,0.21827 8.37346,0.4722 0,0 -0.33012,4.24925 -0.33012,4.24925 z"
       inkscape:connector-curvature="0" />
    <path
       style="opacity:1;fill:#000000;fill-opacity:1;stroke:none;stroke-width:0.2;stroke-linejoin:miter;stroke-miterlimit:4;stroke-dasharray:none;stroke-opacity:1"
       id="path5139"
       d="m 358.4005,69.540146 c -2.12072,-0.18363 -4.24921,-0.20072 -6.36964,-0.0232 -1.39938,-0.0156 -2.76666,0.56544 -4.15758,0.58517 -0.51543,0.007 -1.41777,-0.19812 -1.92148,-0.29794 -0.79267,-0.15613 -1.53083,-0.44537 -2.25521,-0.79105 0,0 -0.0127,-0.11108 -0.0127,-0.11108 v 0 c 0.56595,-0.50731 1.10342,-1.04321 1.67633,-1.54303 0.46103,-0.35984 1.11651,-0.91429 1.6543,-1.15245 1.45788,-0.64562 3.17363,-0.63469 4.7134,-0.91115 2.37386,-0.14593 4.75022,-0.16003 7.11096,0.18221 0,0 -0.43846,4.06253 -0.43846,4.06253 z"
       inkscape:connector-curvature="0" />
    <path
       style="opacity:1;fill:#008000;fill-opacity:1;stroke:none;stroke-width:0.2;stroke-linejoin:miter;stroke-miterlimit:4;stroke-dasharray:none;stroke-opacity:1"
       id="path5141"
       d="m 380.43423,48.335536 c 0.11319,3.44233 -0.0309,6.88597 -0.18661,10.32445 -0.21146,4.31931 -0.43982,8.63696 -0.56375,12.95986 -0.0193,2.71467 -0.16677,5.44324 0.17328,8.1441 -0.17688,0.55146 0.76096,1.55019 0.25386,0.74726 1.20492,-0.11711 2.40917,-0.39482 3.59193,-0.67435 2.83946,-0.73599 5.65613,-1.55267 8.4994,-2.27556 1.53421,-0.29142 3.05083,-0.83782 4.61068,-0.99893 1.31495,-0.13582 2.6657,0.0829 3.97304,0.2027 1.34929,0.1228 0.69522,0.063 1.96231,0.17924 0,0 0.0478,0.10105 0.0478,0.10105 v 0 c -0.84283,1.11294 -0.36219,0.58156 -1.45955,1.57797 -1.09961,0.81554 -2.20676,1.66665 -3.49512,2.17225 -1.43515,0.56321 -3.00733,0.75383 -4.46518,1.2442 -2.86161,0.77347 -5.70434,1.61305 -8.55967,2.40908 -2.09735,0.51595 -4.26823,1.10875 -6.41628,0.53754 -2.34286,-1.08349 -2.89428,-2.33757 -3.1795,-4.81885 -0.16195,-2.90318 -0.0615,-5.8094 0.0947,-8.71135 0.19965,-4.32682 0.42841,-8.65229 0.64693,-12.97818 0.13147,-3.32084 0.25109,-6.64537 0.11311,-9.96833 0,0 4.35864,-0.17415 4.35864,-0.17415 z"
       inkscape:connector-curvature="0" />
    <path
       style="opacity:1;fill:#008000;fill-opacity:1;stroke:none;stroke-width:0.2;stroke-linejoin:miter;stroke-miterlimit:4;stroke-dasharray:none;stroke-opacity:1"
       id="path5143"
       d="m 397.76692,64.524746 c -2.85353,-0.13108 -5.71098,-0.13761 -8.56646,-0.20104 -2.95381,0.15547 -5.73331,-0.67787 -8.40431,-1.85846 -0.25072,-0.11444 -0.50144,-0.22888 -0.75216,-0.34332 0,0 -0.003,-0.11178 -0.003,-0.11178 v 0 c 0.24826,-0.12111 0.49652,-0.24222 0.74477,-0.36334 2.67203,-1.24397 5.47193,-2.06623 8.45122,-1.87264 2.93616,-0.0157 5.87401,0.0129 8.80663,0.16944 0,0 -0.27821,4.58114 -0.27821,4.58114 z"
       inkscape:connector-curvature="0" />
    <path
       style="opacity:1;fill:#008000;fill-opacity:1;stroke:none;stroke-width:0.2;stroke-linejoin:miter;stroke-miterlimit:4;stroke-dasharray:none;stroke-opacity:1"
       id="path5145"
       d="m 394.29572,48.925246 c -2.75878,-0.0693 -5.50029,0.26724 -8.21227,0.73852 -1.92788,0.16969 -3.74584,1.09557 -5.65525,1.32413 -0.10753,0.0129 -2.2479,-0.0194 -2.41721,-0.0217 -0.88294,0.01 -1.74085,-0.13848 -2.59445,-0.34123 0,0 -0.0431,-0.10313 -0.0431,-0.10313 v 0 c 0.46619,-0.76977 0.97308,-1.4993 1.65301,-2.10339 0.46127,-0.40666 1.53238,-1.38895 2.04679,-1.67528 1.8873,-1.05047 4.22222,-1.19872 6.27324,-1.70874 3.06311,-0.44742 6.15617,-0.80148 9.256,-0.55098 0,0 -0.30676,4.44181 -0.30676,4.44181 z"
       inkscape:connector-curvature="0" />
    <path
       style="opacity:1;fill:#000000;fill-opacity:1;stroke:none;stroke-width:0.2;stroke-linejoin:miter;stroke-miterlimit:4;stroke-dasharray:none;stroke-opacity:1"
       id="path5147"
       d="m 414.64287,46.916416 c -0.17836,4.11201 -0.30343,8.22611 -0.4336,12.33989 -0.17518,6.41908 -0.22786,12.84016 -0.46083,19.25751 -0.27887,2.77791 -1.06362,5.45596 -1.64017,8.1727 0,0 -0.10949,0.0226 -0.10949,0.0226 v 0 c -1.57371,-2.43405 -1.77908,-5.43699 -2.2611,-8.22374 -0.14198,-6.44794 -0.0557,-12.89646 0.0937,-19.34387 0.0873,-4.192 0.14764,-8.39202 0.50678,-12.57137 0,0 4.30467,0.34628 4.30467,0.34628 z"
       inkscape:connector-curvature="0" />
    <path
       style="opacity:1;fill:#0000ff;fill-opacity:1;stroke:none;stroke-width:0.2;stroke-linejoin:miter;stroke-miterlimit:4;stroke-dasharray:none;stroke-opacity:1"
       id="path5149"
       d="m 424.27989,55.960166 c -0.0161,2.41315 -0.0985,4.82258 0.0714,7.23186 0.16645,1.8041 0.51356,3.66571 2.08918,4.73963 1.75662,0.75501 3.60905,0.33426 5.34535,-0.24698 2.15341,-0.85904 3.02273,-2.27091 4.01105,-4.23058 0.74679,-1.40295 1.36412,-3.1507 1.1629,-4.77923 -0.0492,-0.39806 -0.2413,-0.765 -0.36198,-1.1475 0,0 0.1033,-0.0427 0.1033,-0.0427 v 0 c 1.2079,2.33831 2.67605,4.15499 2.71986,6.96542 -0.0886,0.5717 -0.10107,1.16053 -0.26585,1.71509 -0.84582,2.84672 -3.32999,4.75165 -5.94567,5.85474 -3.25244,1.05446 -6.60823,1.42757 -9.63702,-0.49684 -0.40854,-0.34559 -0.85696,-0.64891 -1.22563,-1.03674 -1.80448,-1.89828 -2.31997,-4.54812 -2.55177,-7.0573 -0.0933,-2.59339 -0.0548,-5.19227 0.32025,-7.76559 0,0 4.16459,0.29677 4.16459,0.29677 z"
       inkscape:connector-curvature="0" />
    <path
       style="opacity:1;fill:#0000ff;fill-opacity:1;stroke:none;stroke-width:0.2;stroke-linejoin:miter;stroke-miterlimit:4;stroke-dasharray:none;stroke-opacity:1"
       id="path5151"
       d="m 433.78354,56.324746 c 0.21685,4.05724 0.35515,8.11825 0.49879,12.17861 0.0257,2.49806 0.23141,5.01174 0.0204,7.50846 -0.15785,1.86839 -0.54007,3.75123 -0.90469,5.58889 -0.35034,1.42527 -0.30607,0.77017 -0.25316,1.95344 0,0 -0.10948,0.0226 -0.10948,0.0226 v 0 c -0.42836,-1.15343 -0.16418,-0.51945 -0.83227,-1.88492 -0.6377,-1.78467 -1.25302,-3.62777 -1.61031,-5.49308 -0.47374,-2.47324 -0.4894,-5.01022 -0.66075,-7.51267 -0.1965,-4.04268 -0.37584,-8.08617 -0.53935,-12.13027 0,0 4.39076,-0.23103 4.39076,-0.23103 z"
       inkscape:connector-curvature="0" />
    <path
       style="opacity:1;fill:#000000;fill-opacity:1;stroke:none;stroke-width:0.2;stroke-linejoin:miter;stroke-miterlimit:4;stroke-dasharray:none;stroke-opacity:1"
       id="path5153"
       d="m 446.44272,51.321796 c 1.92685,1.49507 4.09667,2.61165 6.30838,3.6153 1.54508,0.77725 3.73562,1.17776 4.70984,2.78209 0.26649,0.43886 0.37235,0.95699 0.55851,1.43549 -0.0198,0.52617 0.033,1.06018 -0.0597,1.57851 -0.39989,2.23776 -3.04162,6.02379 -4.23307,8.01717 -2.20779,3.23831 -3.62453,6.96242 -5.72945,10.25479 -0.3621,0.56637 -0.79763,1.08227 -1.19647,1.62341 -1.02812,1.53944 -2.30343,2.88755 -3.38029,4.38673 0,0 -0.10483,-0.0388 -0.10483,-0.0388 v 0 c 0.16693,-1.88675 0.15188,-3.79207 0.64739,-5.64034 0.15928,-0.68433 0.25929,-1.38522 0.47789,-2.05298 1.25579,-3.83628 3.75533,-7.18307 5.60871,-10.7265 0.96931,-1.62778 1.95842,-3.24956 2.85944,-4.9169 0.26556,-0.49141 0.38182,-1.07675 0.74538,-1.50079 0.0347,-0.0405 0.10057,0.0356 0.15084,0.0534 0.096,0.0848 0.42346,0.26631 0.34808,0.16274 -0.60412,-0.83026 -2.36492,-1.01158 -3.16277,-1.58 -2.47028,-1.14403 -4.87969,-2.41682 -7.10367,-3.99718 0,0 2.55575,-3.45613 2.55575,-3.45613 z"
       inkscape:connector-curvature="0" />
    <path
       style="opacity:1;fill:#000000;fill-opacity:1;stroke:none;stroke-width:0.2;stroke-linejoin:miter;stroke-miterlimit:4;stroke-dasharray:none;stroke-opacity:1"
       id="path5221"
       d="m 244.50051,98.863514 c 0.52154,3.913416 0.62774,7.871736 0.76423,11.813386 0.18451,7.19954 0.37186,14.39856 0.64012,21.59554 0.18032,6.03011 0.62604,12.04805 0.85348,18.07584 -0.0395,2.02926 -0.34756,4.04212 -0.93043,5.98387 0,0 -0.10527,0.0376 -0.10527,0.0376 v 0 c -1.68219,-1.38873 -2.1854,-3.70761 -2.68306,-5.72911 -0.71978,-6.04744 -0.88866,-12.13998 -1.15834,-18.22003 -0.26177,-7.19666 -0.49153,-14.3943 -0.69685,-21.59278 -0.15137,-3.84435 -0.31236,-7.68805 -0.56825,-11.527077 0,0 3.88437,-0.437229 3.88437,-0.437229 z"
       inkscape:connector-curvature="0" />
    <path
       style="opacity:1;fill:#000000;fill-opacity:1;stroke:none;stroke-width:0.2;stroke-linejoin:miter;stroke-miterlimit:4;stroke-dasharray:none;stroke-opacity:1"
       id="path5223"
       d="m 257.18577,100.1895 c 0.77532,3.70444 0.98251,7.50422 1.22223,11.27295 0.38568,6.99183 0.74961,13.98448 1.17461,20.9741 0.1562,4.75204 0.87206,9.50251 0.80253,14.2636 -0.0179,1.22918 -0.30062,4.17598 -0.41606,5.47397 -0.17075,1.74407 -0.5613,3.40938 -0.59604,5.15955 0,0 -0.11167,0.005 -0.11167,0.005 v 0 c -0.19268,-1.73487 -0.74194,-3.34178 -1.14775,-5.04049 -0.21967,-0.96824 -1.03017,-4.48475 -1.16902,-5.34477 -0.76076,-4.71225 -0.7711,-9.5258 -1.24127,-14.26707 -0.47495,-6.98465 -0.872,-13.97396 -1.28137,-20.96267 -0.24784,-3.67115 -0.51138,-7.34045 -0.79544,-11.00864 0,0 3.55925,-0.52559 3.55925,-0.52559 z"
       inkscape:connector-curvature="0" />
    <path
       style="opacity:1;fill:#000000;fill-opacity:1;stroke:none;stroke-width:0.2;stroke-linejoin:miter;stroke-miterlimit:4;stroke-dasharray:none;stroke-opacity:1"
       id="path5225"
       d="m 270.72359,138.04699 c -1.20594,3.05314 -2.63641,6.00835 -4.08,8.95411 -1.72757,3.42318 -3.49566,6.82556 -5.23884,10.24079 -1.23771,2.39362 -2.27649,4.87933 -3.36294,7.34256 -0.5288,1.58299 -2.12533,2.14951 -3.22634,3.19528 0,0 -0.10363,-0.0419 -0.10363,-0.0419 v 0 c -0.0724,-1.52822 -1.0214,-3.01414 -0.32237,-4.56826 0.90861,-2.67838 2.11851,-5.23796 3.40678,-7.7531 1.7133,-3.41696 3.51894,-6.78639 5.23985,-10.19947 1.41687,-2.83846 2.81329,-5.69036 4.0431,-8.61592 0,0 3.64439,1.44591 3.64439,1.44591 z"
       inkscape:connector-curvature="0" />
    <path
       style="opacity:1;fill:#000000;fill-opacity:1;stroke:none;stroke-width:0.2;stroke-linejoin:miter;stroke-miterlimit:4;stroke-dasharray:none;stroke-opacity:1"
       id="path5227"
       d="m 253.83606,169.87049 c -1.99881,-2.74699 -4.15337,-5.37523 -6.29405,-8.01154 -3.26368,-3.92795 -6.42864,-7.93558 -9.60265,-11.93572 -1.69103,-2.2128 -3.47576,-4.35528 -5.13075,-6.5958 -0.30446,-0.41218 -0.64412,-0.80363 -0.89145,-1.25242 -0.21731,-0.39428 -0.328,-0.83853 -0.49201,-1.2578 -0.42939,-1.10774 -0.67582,-2.22824 -0.58808,-3.41165 0,0 0.0928,-0.0623 0.0928,-0.0623 v 0 c 1.10608,0.29804 2.14882,0.73416 3.1051,1.37861 0.38158,0.26028 0.80183,0.4714 1.14476,0.78083 0.395,0.35643 1.85912,2.21552 2.13361,2.56313 1.35753,1.7191 2.67564,3.46879 4.02419,5.19488 3.11841,4.03092 6.27905,8.02833 9.44667,12.0206 2.16407,2.77956 4.34554,5.56287 6.18643,8.57192 0,0 -3.13458,2.01726 -3.13458,2.01726 z"
       inkscape:connector-curvature="0" />
    <path
       style="opacity:1;fill:#000000;fill-opacity:1;stroke:none;stroke-width:0.2;stroke-linejoin:miter;stroke-miterlimit:4;stroke-dasharray:none;stroke-opacity:1"
       id="path5229"
       d="m 89.543402,208.68262 c 0.08994,2.51413 0.312296,5.02017 0.553453,7.52342 0.246131,2.64947 0.508759,5.29752 0.836885,7.93819 -0.398084,-1.0533 0.327382,1.46802 0.194892,1.11481 -0.06989,-0.18632 0.03868,-0.54664 -0.158189,-0.57566 -1.452335,-0.21414 -2.93529,-0.12562 -4.403045,-0.0969 -0.07244,0.001 -0.110951,0.25772 -0.113633,0.18531 -0.0086,-0.2324 0.06325,-0.4608 0.09488,-0.6912 0.332224,-3.20438 0.839589,-6.37824 1.522889,-9.52559 0.798181,-3.54319 2.247317,-6.78942 4.589441,-9.56335 1.680043,-1.67843 3.868507,-3.01636 6.346994,-2.62365 0.467043,0.074 0.907955,0.26465 1.361931,0.39698 2.77987,1.34624 3.86323,4.04106 4.54759,6.87278 0.55125,2.8139 0.48235,5.68996 0.5117,8.54248 -0.0437,2.10928 0.54719,3.96465 1.75906,5.66274 0.81123,1.33815 1.68723,3.00023 3.39547,3.34365 0.34793,0.07 0.70973,-0.008 1.0646,-0.0119 0,0 0.0305,0.10754 0.0305,0.10754 v 0 c -2.34391,1.29701 -4.46601,1.78711 -7.00835,0.46048 -0.48762,-0.25445 -0.89103,-0.64509 -1.33655,-0.96764 -0.33551,-0.42623 -0.70979,-0.82461 -1.00655,-1.27869 -1.41266,-2.16155 -1.79106,-4.74162 -1.84103,-7.26941 -0.0216,-2.48929 0.11775,-5.00167 -0.3282,-7.46471 -0.276533,-1.21109 -0.560995,-2.45127 -1.408537,-3.40629 -0.778441,-0.69903 -1.84046,0.27423 -2.434595,0.77333 -1.865596,2.11605 -2.90594,4.71313 -3.527571,7.45006 -0.651343,2.99663 -1.079849,6.03115 -1.278191,9.09289 -0.02585,0.2424 -0.184608,2.1459 -0.405355,2.21312 -4.624673,1.40813 -4.800764,0.77958 -5.1595,-2.21339 -0.236259,-2.68764 -0.451252,-5.37706 -0.66758,-8.06637 -0.183137,-2.62472 -0.37805,-5.25384 -0.324557,-7.88699 0,0 4.591156,-0.0361 4.591156,-0.0361 z"
       inkscape:connector-curvature="0" />
    <path
       style="opacity:1;fill:#000000;fill-opacity:1;stroke:none;stroke-width:0.2;stroke-linejoin:miter;stroke-miterlimit:4;stroke-dasharray:none;stroke-opacity:1"
       id="path5231"
       d="m 131.80075,193.91096 c -2.77244,2.2399 -4.65448,5.23983 -6.30978,8.34398 -1.96704,4.18555 -2.93255,8.75016 -2.89282,13.37395 0.008,0.98228 0.10652,1.96173 0.15978,2.9426 0.38557,3.60866 1.32923,7.15106 3.07994,10.34649 0.67366,1.22958 1.46958,2.38839 2.17773,3.59845 0.9903,1.35048 2.15584,2.57211 3.75354,3.19229 0.49874,0.19359 1.03698,0.26375 1.55547,0.39562 0,0 0.002,0.11177 0.002,0.11177 v 0 c -0.58978,0.14944 -1.16513,0.3768 -1.76933,0.44832 -2.29169,0.27127 -4.33282,-0.49237 -6.24982,-1.68641 -0.69005,-0.55517 -1.46755,-1.01647 -2.07014,-1.66552 -0.64047,-0.68985 -1.14153,-1.50221 -1.62224,-2.31155 -2.19759,-3.69995 -3.19459,-7.95311 -3.68801,-12.18365 -0.0543,-1.13283 -0.16326,-2.26435 -0.16286,-3.39848 0.002,-5.35291 1.24462,-10.63064 3.62266,-15.4214 2.05096,-3.63264 4.41604,-7.12416 7.8435,-9.60628 0,0 2.5706,3.51982 2.5706,3.51982 z"
       inkscape:connector-curvature="0" />
    <path
       style="opacity:1;fill:#000000;fill-opacity:1;stroke:none;stroke-width:0.2;stroke-linejoin:miter;stroke-miterlimit:4;stroke-dasharray:none;stroke-opacity:1"
       id="path5233"
       d="m 135.43073,208.84384 c 0.58407,2.542 1.03504,5.11111 1.41194,7.69117 0.30992,1.94261 0.43476,3.90972 0.71329,5.85592 0.0112,0.0152 0.0225,0.0304 0.0337,0.0456 -1.57864,-0.0711 -3.18186,0.0731 -4.73592,-0.2134 -0.21574,-0.0398 0.005,-0.43873 0.008,-0.65807 0.0172,-1.02063 0.0519,-2.03429 0.11663,-3.05315 0.13996,-2.55686 0.75074,-4.98861 1.92687,-7.25762 1.0375,-1.58291 2.83933,-3.49318 4.85081,-3.74382 0.38571,-0.0481 0.77465,0.0651 1.16198,0.0977 1.2367,0.19 2.29573,0.67124 3.26165,1.44306 0,0 0.0104,0.1113 0.0104,0.1113 v 0 c -0.68563,0.80917 -1.50267,1.45306 -2.28188,2.16987 -0.17146,0.18111 -0.3142,0.39458 -0.51437,0.54334 -0.7562,0.56201 -1.80668,0.63655 -2.29479,1.62967 -0.92588,1.62504 -1.31352,3.42769 -1.42104,5.28913 -0.0518,0.92061 -0.0954,1.83576 -0.0879,2.75806 0.002,0.23245 0.23401,0.62883 0.0119,0.69726 -1.52969,0.47119 -3.15061,0.58247 -4.7414,0.75958 -0.0768,0.009 8e-5,-0.15447 1.2e-4,-0.23171 -0.0455,-1.88442 -0.23742,-3.76212 -0.4525,-5.63367 -0.31879,-2.4869 -0.68563,-4.96648 -1.12489,-7.43523 0,0 4.14711,-0.86492 4.14711,-0.86492 z"
       inkscape:connector-curvature="0" />
    <path
       style="opacity:1;fill:#000000;fill-opacity:1;stroke:none;stroke-width:0.2;stroke-linejoin:miter;stroke-miterlimit:4;stroke-dasharray:none;stroke-opacity:1"
       id="path5235"
       d="m 146.10729,192.98817 c 2.72826,0.013 5.30675,1.05227 7.24868,2.99265 0.51049,0.51009 0.92907,1.10453 1.39361,1.6568 3.09064,4.5876 3.73599,10.02617 3.91493,15.41574 -0.0877,2.79915 -0.20533,5.66574 -1.14467,8.33921 -0.75891,2.15998 -2.0463,4.0588 -3.39087,5.8805 -1.45492,1.56181 -0.74758,0.84036 -2.11087,2.17525 0,0 -0.094,-0.0606 -0.094,-0.0606 v 0 c 0.60359,-1.71131 0.33818,-0.79591 0.76145,-2.75602 0.36162,-2.01684 0.54825,-3.9872 0.74872,-6.02369 0.24286,-2.46715 0.70958,-4.91822 0.65761,-7.4092 -0.13248,-4.38014 -0.55355,-8.86579 -2.91632,-12.68052 -1.3146,-1.74439 -2.79258,-3.12412 -5.06831,-3.34064 0,0 0,-4.18952 0,-4.18952 z"
       inkscape:connector-curvature="0" />
    <path
       style="opacity:1;fill:#000000;fill-opacity:1;stroke:none;stroke-width:0.2;stroke-linejoin:miter;stroke-miterlimit:4;stroke-dasharray:none;stroke-opacity:1"
       id="path5237"
       d="m 147.84801,209.61553 c -1.27975,-0.26023 -2.51879,0.35626 -3.77703,0.13154 -0.72408,-0.0657 -1.44833,-0.11407 -2.07056,0.29235 0,0 -0.10196,-0.0458 -0.10196,-0.0458 v 0 c -0.0206,-1.05367 0.0997,-1.98892 0.76487,-2.86224 0.23289,-0.26187 0.42012,-0.57297 0.69868,-0.78562 1.41125,-1.07737 3.47065,-0.82787 5.10135,-0.65938 0,0 -0.61535,3.92916 -0.61535,3.92916 z"
       inkscape:connector-curvature="0" />
    <path
       style="opacity:1;fill:#000000;fill-opacity:1;stroke:none;stroke-width:0.2;stroke-linejoin:miter;stroke-miterlimit:4;stroke-dasharray:none;stroke-opacity:1"
       id="path5239"
       d="m 184.26355,213.86086 c -2.3981,-0.10401 -4.79735,-0.0831 -7.19674,-0.0719 -1.16731,-0.0554 -2.38042,0.20424 -3.54258,-0.0124 -0.91264,-0.17014 -1.81762,-0.64728 -2.6448,-1.05005 -0.73011,-0.48212 -0.3914,-0.25636 -1.01688,-0.67614 0,0 -0.008,-0.11148 -0.008,-0.11148 v 0 c 0.55422,-0.50665 0.25474,-0.23321 0.89863,-0.82014 0.75307,-0.53212 1.57727,-1.16178 2.45847,-1.46371 1.19793,-0.41046 2.52503,-0.31016 3.76225,-0.43344 2.51164,-0.0884 5.02729,-0.0379 7.53563,0.12082 0,0 -0.24574,4.51848 -0.24574,4.51848 z"
       inkscape:connector-curvature="0" />
    <path
       style="opacity:1;fill:#000000;fill-opacity:1;stroke:none;stroke-width:0.2;stroke-linejoin:miter;stroke-miterlimit:4;stroke-dasharray:none;stroke-opacity:1"
       id="path5241"
       d="m 186.60914,222.41249 c -2.31371,0.84978 -4.71661,1.37492 -7.13562,1.81522 -1.67181,0.19799 -3.38676,0.58704 -5.05243,0.14015 -0.61719,-0.16559 -1.49296,-0.5739 -2.0848,-0.83346 -0.72207,-0.35243 -1.28619,-0.86687 -2.03025,-1.16151 0,0 0.01,-0.11134 0.01,-0.11134 v 0 c 0.75579,-0.15608 1.34674,-0.55857 2.03363,-0.90828 0.93573,-0.43845 1.86103,-0.97545 2.87616,-1.21291 1.13066,-0.26449 2.32429,-0.22745 3.45713,-0.48597 2.18988,-0.35612 4.36037,-0.83982 6.47848,-1.50529 0,0 1.44775,4.26339 1.44775,4.26339 z"
       inkscape:connector-curvature="0" />
    <path
       style="opacity:1;fill:#000000;fill-opacity:1;stroke:none;stroke-width:0.2;stroke-linejoin:miter;stroke-miterlimit:4;stroke-dasharray:none;stroke-opacity:1"
       id="path5243"
       d="m 240.09924,190.96428 c -1.62471,2.86421 -2.91127,5.90288 -4.20113,8.92755 -1.88158,4.53329 -3.67904,9.10096 -5.64874,13.59713 -1.26931,2.96051 -2.74941,5.82398 -4.3419,8.62191 -0.11281,0.20364 -0.51383,0.8961 -0.62378,1.1868 -0.0147,0.0388 -0.0116,0.16345 0.002,0.12443 0.26143,-0.72522 0.0783,-1.35497 -0.36821,-1.95857 2.01829,0.83166 3.87659,1.99206 5.70983,3.16397 3.87192,2.56583 7.53124,5.44611 10.99617,8.53577 2.25831,2.49992 4.34651,5.14474 6.56391,7.67931 0,0 -0.0638,0.0918 -0.0638,0.0918 v 0 c -3.18188,-1.22101 -6.23565,-2.71081 -9.18732,-4.41779 -3.62932,-2.60409 -7.07286,-5.46539 -10.82162,-7.90378 -1.91222,-1.18719 -3.87938,-2.24448 -5.90855,-3.21456 -0.3189,-0.28124 -0.72612,-0.48647 -0.95669,-0.84372 -1.117,-1.73063 -0.33403,-3.28276 0.62508,-4.79476 1.56592,-2.61848 2.99136,-5.31396 4.26201,-8.08889 1.99274,-4.46555 3.84776,-8.98769 5.71419,-13.50707 1.38172,-3.23182 2.73724,-6.50605 4.58474,-9.50609 0,0 3.66329,2.30656 3.66329,2.30656 z"
       inkscape:connector-curvature="0" />
    <path
       style="opacity:1;fill:#0000ff;fill-opacity:1;stroke:none;stroke-width:0.2;stroke-linejoin:miter;stroke-miterlimit:4;stroke-dasharray:none;stroke-opacity:1"
       id="path5245"
       d="m 245.6605,204.59645 c -0.6206,2.13817 -0.86238,4.32496 -0.49879,6.52299 0.52666,2.24933 2.13252,3.52644 4.11783,4.48197 2.54819,0.94716 5.12453,0.86363 7.5287,-0.38225 1.39312,-1.10095 0.28065,-0.13316 1.42195,-1.36878 0.22486,-0.24344 0.50738,-0.43448 0.70685,-0.69912 0.81085,-1.07574 0.90661,-2.2808 1.0107,-3.56983 -0.0682,-0.48438 -0.13642,-0.96876 -0.20464,-1.45313 0,0 0.10429,-0.0403 0.10429,-0.0403 v 0 c 0.28887,0.44074 0.57774,0.88148 0.86661,1.32221 1.10118,2.17777 1.9489,4.57926 0.82592,7.00357 -0.61045,1.31786 -1.62369,1.9425 -2.69556,2.82134 -0.59364,0.29716 -1.16267,0.64966 -1.78093,0.8915 -3.21741,1.25851 -6.73653,0.95541 -9.90502,-0.25967 -0.58505,-0.29672 -1.19678,-0.54582 -1.75514,-0.89014 -2.69123,-1.65963 -4.36091,-4.26845 -4.89119,-7.36147 -0.19992,-2.90168 0.15569,-5.71418 1.37424,-8.3863 0,0 3.77418,1.36737 3.77418,1.36737 z"
       inkscape:connector-curvature="0" />
    <path
       style="opacity:1;fill:#0000ff;fill-opacity:1;stroke:none;stroke-width:0.2;stroke-linejoin:miter;stroke-miterlimit:4;stroke-dasharray:none;stroke-opacity:1"
       id="path5247"
       d="m 254.84908,203.84625 c 0.69223,3.92393 1.08437,7.89527 1.51441,11.85462 0.17386,2.59391 0.66316,5.1833 0.67899,7.78884 0.0131,2.15196 -0.25875,4.35842 -0.46296,6.49951 -0.24007,1.98944 -0.10665,1.05493 -0.38698,2.80537 0,0 -0.11002,0.0197 -0.11002,0.0197 v 0 c -0.877,-1.57984 -0.44665,-0.72191 -1.26171,-2.58827 -0.76525,-2.03382 -1.5842,-4.13524 -2.06372,-6.2588 -0.57376,-2.54097 -0.6333,-5.18164 -1.04693,-7.74682 -0.44964,-3.91938 -0.92278,-7.83694 -1.30802,-11.76317 0,0 4.44694,-0.61103 4.44694,-0.61103 z"
       inkscape:connector-curvature="0" />
    <path
       style="opacity:1;fill:#0000ff;fill-opacity:1;stroke:none;stroke-width:0.2;stroke-linejoin:miter;stroke-miterlimit:4;stroke-dasharray:none;stroke-opacity:1"
       id="path5249"
       d="m 288.66717,207.24132 c -0.35624,1.78961 -0.24588,3.51487 0.55282,5.15692 1.12813,1.78576 2.99574,2.49035 4.97435,2.88953 2.15212,0.25902 4.19275,-0.21163 5.81917,-1.65862 0.9953,-1.23954 1.49672,-2.53553 1.58006,-4.12379 -0.16494,-1.56312 0.0225,-0.80693 -0.56324,-2.2683 0,0 0.0931,-0.0619 0.0931,-0.0619 v 0 c 1.19295,1.19953 0.57599,0.59586 1.85293,1.80892 2.41604,3.06112 2.64604,5.11489 -0.0355,8.17045 -3.13555,2.5129 -5.70918,3.16102 -9.71817,2.74071 -3.67925,-0.79743 -6.5074,-2.19584 -8.34131,-5.64844 -1.10173,-2.78467 -1.29465,-5.00629 -0.63926,-7.93523 0,0 4.42508,0.92977 4.42508,0.92977 z"
       inkscape:connector-curvature="0" />
    <path
       style="opacity:1;fill:#0000ff;fill-opacity:1;stroke:none;stroke-width:0.2;stroke-linejoin:miter;stroke-miterlimit:4;stroke-dasharray:none;stroke-opacity:1"
       id="path5251"
       d="m 296.95527,205.41881 c 0.19896,2.90897 0.40277,5.8176 0.64569,8.7236 0.28643,3.83308 1.00083,7.63929 0.98856,11.48819 -0.15828,1.18407 -0.28274,2.39033 -0.62725,3.54028 -0.25519,0.85168 -0.26927,0.34779 -0.20339,0.91462 0,0 -0.0896,0.0669 -0.0896,0.0669 v 0 c -1.4632,-0.92092 -2.22981,-2.37801 -2.89288,-3.9468 -1.15861,-3.78378 -1.40401,-7.7658 -1.79879,-11.68674 -0.23892,-3.01324 -0.46863,-6.04065 -0.35224,-9.06489 0,0 4.32988,-0.0351 4.32988,-0.0351 z"
       inkscape:connector-curvature="0" />
    <path
       style="opacity:1;fill:#000000;fill-opacity:1;stroke:none;stroke-width:0.2;stroke-linejoin:miter;stroke-miterlimit:4;stroke-dasharray:none;stroke-opacity:1"
       id="path5253"
       d="m 275.62515,192.88503 c 0.19893,3.55553 0.28787,7.11761 0.39094,10.67721 0.12803,5.69431 0.39358,11.3835 0.73923,17.06833 0.30076,4.96531 0.69277,9.92447 1.13068,14.87938 0.35008,2.37544 -0.40132,4.67969 -0.74546,7.00336 0,0 -0.0984,0.053 -0.0984,0.053 v 0 c -2.15371,-1.36906 -3.00149,-4.24891 -3.4116,-6.61125 -0.603,-5.00876 -0.92637,-10.04328 -1.22466,-15.07837 -0.30079,-5.7396 -0.5429,-11.48175 -0.60444,-17.22968 -0.0403,-3.57753 -0.0961,-7.15855 0.006,-10.73512 0,0 3.8176,-0.0268 3.8176,-0.0268 z"
       inkscape:connector-curvature="0" />
    <path
       style="opacity:1;fill:#000000;fill-opacity:1;stroke:none;stroke-width:0.2;stroke-linejoin:miter;stroke-miterlimit:4;stroke-dasharray:none;stroke-opacity:1"
       id="path5255"
       d="m 304.56937,190.58519 c 1.71569,2.16262 3.60656,4.16801 5.60374,6.07029 2.45491,2.28629 5.25052,4.13637 8.1888,5.73314 1.53874,0.8858 3.60169,1.47051 4.54163,3.12331 0.22606,0.39752 0.32588,0.85458 0.48881,1.28187 0.0212,0.46241 0.0931,0.92527 0.0638,1.38724 -0.1462,2.30778 -1.66729,5.90489 -2.42689,8.13023 -1.63869,4.76461 -2.91862,9.64198 -4.55398,14.40646 -1.10067,2.902 -2.96852,5.40166 -4.36181,8.1433 0,0 -0.1056,-0.0366 -0.1056,-0.0366 v 0 c 0.59444,-2.98457 0.39831,-6.08111 0.87421,-9.08976 1.03812,-5.0172 2.50566,-9.93132 4.12562,-14.79004 0.79597,-2.35254 1.64523,-4.70276 2.34146,-7.08078 0.39306,0.0176 0.0574,-0.29986 -0.11835,-0.43059 -0.8573,-0.63786 -1.89487,-0.99612 -2.79736,-1.55629 -3.20704,-1.80037 -6.27242,-3.84948 -8.97967,-6.35465 -2.15773,-2.03899 -4.2318,-4.17041 -5.92637,-6.62068 0,0 3.04197,-2.31642 3.04197,-2.31642 z"
       inkscape:connector-curvature="0" />
    <path
       style="opacity:1;fill:#000000;fill-opacity:1;stroke:none;stroke-width:0.2;stroke-linejoin:miter;stroke-miterlimit:4;stroke-dasharray:none;stroke-opacity:1"
       id="path5257"
       d="m 452.94817,160.93892 c -2.96506,0.23206 -5.94284,0.18496 -8.91421,0.17159 -4.83585,-0.0927 -9.66814,-0.30687 -14.50195,-0.46722 -5.1064,-0.22389 -10.21651,-0.31497 -15.32686,-0.38018 -4.48995,-0.0255 -8.97453,0.19576 -13.45769,0.40971 -3.02125,-0.0368 -6.12701,0.60353 -9.14302,0.17143 -0.50853,-0.0728 -0.99981,-0.23664 -1.49974,-0.35496 -1.59525,-0.35662 -3.02736,-1.1705 -4.64603,-1.3709 0,0 0.005,-0.11166 0.005,-0.11166 v 0 c 0.31705,-0.009 0.63955,0.032 0.95115,-0.0272 1.2428,-0.23609 2.41363,-0.91369 3.66961,-1.1181 3.41566,-0.89001 6.99357,-0.62686 10.49165,-0.9059 4.55123,-0.20171 9.10659,-0.37104 13.66317,-0.31475 5.14823,0.0324 10.29372,0.20365 15.43788,0.40499 4.81708,0.22969 9.63512,0.43917 14.45183,0.67689 2.95376,0.15363 5.91436,0.2303 8.85963,0.51221 0,0 -0.0408,2.70401 -0.0408,2.70401 z"
       inkscape:connector-curvature="0" />
    <path
       style="opacity:1;fill:#000000;fill-opacity:1;stroke:none;stroke-width:0.2;stroke-linejoin:miter;stroke-miterlimit:4;stroke-dasharray:none;stroke-opacity:1"
       id="path5259"
       d="m 383.8308,163.1636 c 0.53284,3.5816 0.8138,7.19394 1.03928,10.80584 0.308,5.71787 0.464,11.44262 0.6291,17.166 0.17711,5.89056 0.39108,11.77976 0.60936,17.6689 0.0288,3.81104 0.56357,7.65249 -0.13258,11.42662 -0.14518,0.91549 -0.43317,1.73368 -0.3992,2.6593 0,0 -0.10737,0.0311 -0.10737,0.0311 v 0 c -0.47003,-0.83276 -1.09119,-1.55705 -1.44359,-2.45827 -1.56784,-3.63265 -1.46331,-7.62429 -1.68894,-11.51511 -0.23048,-5.89885 -0.39881,-11.80003 -0.56243,-17.70105 -0.17613,-5.68324 -0.3248,-11.36832 -0.6405,-17.04601 -0.21858,-3.55644 -0.47318,-7.10945 -0.73941,-10.6626 0,0 3.43628,-0.37468 3.43628,-0.37468 z"
       inkscape:connector-curvature="0" />
    <path
       style="opacity:1;fill:#000000;fill-opacity:1;stroke:none;stroke-width:0.2;stroke-linejoin:miter;stroke-miterlimit:4;stroke-dasharray:none;stroke-opacity:1"
       id="path5261"
       d="m 386.4574,222.41226 c 2.73497,0.2953 5.48222,0.30946 8.22703,0.19512 4.62738,-0.25212 9.17329,-1.1726 13.69076,-2.15108 5.6847,-1.35871 11.36631,-2.71247 17.11118,-3.79401 5.86912,-1.05084 11.82378,-1.4161 17.7718,-1.64792 4.84566,-0.16415 9.69764,-0.21152 14.53632,0.12284 3.25932,0.10371 6.0916,1.92101 9.21141,2.60202 0,0 -0.008,0.11151 -0.008,0.11151 v 0 c -3.14362,0.23607 -6.19567,1.44186 -9.38541,1.18771 -4.734,-0.10997 -9.46949,-0.1702 -14.20349,-0.006 -5.75535,0.20821 -11.51768,0.54969 -17.19638,1.56658 -5.71064,1.03195 -11.3406,2.41718 -16.98064,3.77602 -4.74382,1.04726 -9.52437,2.02694 -14.38797,2.28681 -2.96089,0.11059 -5.92828,0.10227 -8.86989,-0.30617 0,0 0.48308,-3.94302 0.48308,-3.94302 z"
       inkscape:connector-curvature="0" />
    <path
       style="opacity:1;fill:#000000;fill-opacity:1;stroke:none;stroke-width:0.2;stroke-linejoin:miter;stroke-miterlimit:4;stroke-dasharray:none;stroke-opacity:1"
       id="path5263"
       d="m 468.72125,218.6006 c -0.33496,-3.30948 -0.62354,-6.62358 -0.9329,-9.93558 -0.4714,-4.92741 -1.10474,-9.83712 -1.73691,-14.74588 -0.67423,-5.09201 -1.35956,-10.18232 -1.90595,-15.28991 -0.38817,-3.77816 -0.58989,-7.57325 -0.69387,-11.36903 -0.0251,-2.23289 -0.0895,-4.46191 -0.27292,-6.68745 -0.023,-0.8171 -0.30157,-1.59767 -0.42418,-2.39598 0.15915,0.18553 0.37706,0.26344 0.58992,0.2921 -0.11713,-0.0547 -0.23347,-0.0146 -0.34843,0.0258 -0.33226,0.0498 -0.66995,0.0426 -1.00274,10e-4 -0.89956,-0.15514 -1.80788,-0.24054 -2.7163,-0.32669 -2.04758,-0.19798 -4.09204,0.0329 -6.11925,0.31139 -2.88309,0.5103 -5.68741,1.31792 -8.63174,1.25201 -1.2445,0.13384 -2.57432,-0.26145 -3.81392,-0.0881 -0.31006,0.0434 -0.58976,0.21042 -0.88463,0.31563 0,0 -0.0396,-0.10456 -0.0396,-0.10456 v 0 c 0.29237,-0.11688 0.60717,-0.18847 0.87704,-0.35064 1.10887,-0.66638 2.02152,-1.70969 3.24334,-2.21747 0.44128,-0.24601 0.86408,-0.52859 1.32382,-0.73803 2.31439,-1.05427 4.9467,-1.27135 7.40473,-1.79199 2.34382,-0.33319 4.71255,-0.54092 7.06978,-0.18813 1.01153,0.14248 2.03446,0.30389 2.994,0.66755 0.0822,0.0308 0.35033,0.12953 0.11694,0.17772 0.27292,0.0282 0.54465,0.0453 0.81883,0.0152 0.93279,0.0456 1.72787,0.41369 2.24523,1.22343 0.62841,1.08192 0.89331,2.30731 1.06466,3.5378 0.27265,2.31796 0.22892,4.65244 0.26569,6.98282 0.068,3.6975 0.20884,7.3929 0.5886,11.07391 0.51659,5.08024 1.18432,10.14227 1.86219,15.2032 0.64621,4.95271 1.27624,9.90824 1.72386,14.88373 0.2985,3.30956 0.54727,6.62277 0.7574,9.93912 0,0 -3.42273,0.32675 -3.42273,0.32675 z"
       inkscape:connector-curvature="0" />
    <path
       style="opacity:1;fill:#000000;fill-opacity:1;stroke:none;stroke-width:0.2;stroke-linejoin:miter;stroke-miterlimit:4;stroke-dasharray:none;stroke-opacity:1"
       id="path5265"
       d="m 455.90092,169.61555 c 0.381,2.23087 0.67151,4.47509 0.93292,6.72265 0.27964,2.35327 0.58774,4.70312 0.836,7.05999 0.23389,2.05961 0.39539,4.12572 0.56557,6.19124 0.12063,1.70412 0.18148,3.41161 0.28324,5.11677 0.0758,1.57067 0.0957,3.14248 0.0995,4.71458 2.1e-4,1.45659 -0.19984,2.89066 -0.62161,4.2827 -0.43072,1.33408 -1.31181,2.31937 -2.42308,3.12874 -1.17229,0.74745 -2.47753,1.24705 -3.7859,1.6985 -1.72365,0.58057 -3.50194,0.96771 -5.27931,1.34114 -1.86907,0.34375 -3.71972,0.77523 -5.56972,1.20726 -1.81096,0.47175 -3.62947,0.91057 -5.46073,1.29628 -1.9535,0.38821 -3.93795,0.53718 -5.9237,0.63018 -1.98417,0.0721 -3.97002,0.046 -5.95506,0.0485 -1.61891,-7.9e-4 -3.23757,0.0324 -4.85577,0.0782 -1.39845,0.0284 -2.79341,0.11528 -4.17957,0.30287 -1.35657,0.2004 -2.68382,0.55206 -4.00817,0.90016 -1.42084,0.39074 -2.86284,0.69505 -4.30419,0.99841 -1.421,0.31637 -2.8449,0.61828 -4.28093,0.85811 -1.41171,0.25251 -2.83022,0.30896 -4.24961,0.11546 -1.55006,-0.27704 -2.75732,-1.16057 -3.82545,-2.26626 -0.96692,-1.09719 -1.69039,-2.37753 -2.37386,-3.66274 -0.74859,-1.44022 -1.30631,-2.9634 -1.71474,-4.53148 -0.49874,-1.87191 -0.68025,-3.80525 -0.83736,-5.72991 -0.14853,-2.29366 -0.23053,-4.59095 -0.37875,-6.88446 -0.10517,-2.24903 -0.27516,-4.4943 -0.39902,-6.74231 -0.10723,-1.89297 -0.14787,-3.78935 -0.14496,-5.6853 -0.008,-1.41649 0.0575,-2.83187 0.22259,-4.23848 0.1256,-1.21431 0.60701,-2.27058 1.38769,-3.19574 0.86765,-0.92347 1.99692,-1.44757 3.16431,-1.88009 1.52466,-0.52696 3.11727,-0.80966 4.7021,-1.08598 2.11928,-0.35422 4.24312,-0.67998 6.36137,-1.04014 2.12363,-0.35895 4.25339,-0.68373 6.37194,-1.07214 1.871,-0.31993 3.73038,-0.70453 5.60178,-1.02119 1.88344,-0.35073 3.7927,-0.50872 5.69807,-0.68257 1.89709,-0.14635 3.79555,-0.27478 5.69203,-0.42884 1.748,-0.11682 3.49809,-0.18729 5.24987,-0.16796 1.75646,0.0556 3.51028,0.18707 5.26065,0.34012 2.05243,0.15168 4.09231,0.41306 6.12085,0.75599 2.1196,0.38953 4.22097,0.8702 6.33134,1.3064 1.60965,0.34998 3.24895,0.50479 4.88593,0.65709 1.44653,0.1 2.53725,1.15409 3.35775,2.27022 0.10308,0.022 0.20614,0.044 0.30919,0.066 0,0 -0.004,0.1117 -0.004,0.1117 v 0 c -0.10935,0.0138 -0.21873,0.0275 -0.32809,0.0413 -1.04298,0.88326 -2.23887,1.76405 -3.66873,1.64549 -1.81354,-0.12632 -3.61969,-0.35277 -5.39872,-0.7337 -2.05682,-0.43333 -4.10017,-0.93017 -6.16516,-1.32571 -1.91937,-0.32253 -3.8503,-0.55963 -5.79229,-0.6971 -1.65028,-0.13938 -3.29993,-0.30078 -4.95683,-0.33801 -1.64238,-0.0208 -3.28502,0.0103 -4.92395,0.12592 -1.88392,0.1043 -3.76587,0.24492 -5.64785,0.37836 -1.79409,0.1236 -3.58468,0.30037 -5.36202,0.5783 -1.86918,0.3136 -3.73319,0.6542 -5.5989,0.9876 -2.14003,0.33891 -4.27741,0.69437 -6.41903,1.02324 -2.10323,0.31779 -4.20338,0.65755 -6.30119,1.00927 -1.38049,0.25046 -2.76539,0.4979 -4.11122,0.90165 -0.5973,0.19237 -1.21211,0.38558 -1.72945,0.75149 -0.39497,0.30678 -0.52097,0.72261 -0.60672,1.21641 -0.21923,1.23976 -0.23987,2.50019 -0.28443,3.75566 -0.013,1.8309 0.0161,3.66128 0.0953,5.49053 0.11641,2.24597 0.26315,4.49037 0.40632,6.73476 0.10514,2.25183 0.20984,4.50654 0.43124,6.75022 0.18251,1.70145 0.42326,3.39897 0.90861,5.04485 0.41587,1.29696 0.83812,2.59549 1.47979,3.80303 0.52617,0.99044 1.08426,1.97076 1.81374,2.8287 0.47099,0.51091 0.97396,0.9759 1.67021,1.14373 1.02899,0.17767 2.06788,0.0669 3.09385,-0.093 1.38316,-0.22561 2.75318,-0.51973 4.12099,-0.82375 1.38168,-0.29152 2.76453,-0.58169 4.12644,-0.9573 1.47273,-0.38639 2.94984,-0.77125 4.45921,-0.9877 1.51683,-0.20114 3.0421,-0.30691 4.57232,-0.33226 1.65195,-0.0423 3.30443,-0.0677 4.95697,-0.0605 1.92643,0.004 3.85379,0.033 5.77937,-0.0389 1.78671,-0.0857 3.57548,-0.23303 5.32858,-0.60537 1.79104,-0.37623 3.56052,-0.83928 5.33495,-1.28637 1.88034,-0.48333 3.77373,-0.90792 5.67537,-1.29897 1.6188,-0.34357 3.23085,-0.7271 4.80078,-1.25599 0.96126,-0.33576 1.9208,-0.69549 2.78755,-1.23891 0.43047,-0.28629 0.78446,-0.60151 0.95948,-1.1079 0.34237,-1.01848 0.44812,-2.0872 0.46307,-3.1587 0.0446,-1.49708 0.0262,-2.99484 -0.0456,-4.49096 -0.0507,-1.67726 -0.14173,-3.35313 -0.24177,-5.0281 -0.11121,-2.02556 -0.2988,-4.04609 -0.48938,-6.06549 -0.24198,-2.3532 -0.47016,-4.70783 -0.71805,-7.06044 -0.21257,-2.16021 -0.36216,-4.33196 -0.74647,-6.47064 0,0 3.41286,-0.63848 3.41286,-0.63848 z"
       inkscape:connector-curvature="0" />
    <path
       style="opacity:1;fill:#000000;fill-opacity:1;stroke:none;stroke-width:0.2;stroke-linejoin:miter;stroke-miterlimit:4;stroke-dasharray:none;stroke-opacity:1"
       id="path5267"
       d="m 463.75349,157.37777 c 1.72788,-1.68817 3.44963,-3.38225 5.13609,-5.11209 2.16257,-2.24931 4.19579,-4.61589 6.20643,-7.00028 1.60616,-1.86188 3.08624,-3.84713 4.9085,-5.5079 0.92483,-0.46853 1.90013,-0.58642 2.91534,-0.60281 0,0 0.10033,0.0493 0.10033,0.0493 v 0 c 0.41471,1.03337 0.28159,2.10471 -0.0302,3.15663 -1.38597,2.00991 -3.12883,3.74244 -4.65667,5.64198 -2.07893,2.45236 -4.16202,4.90598 -6.40858,7.20821 -1.69582,1.75574 -3.41976,3.48334 -5.16501,5.18992 0,0 -3.00624,-3.02294 -3.00624,-3.02294 z"
       inkscape:connector-curvature="0" />
    <path
       style="opacity:1;fill:#000000;fill-opacity:1;stroke:none;stroke-width:0.2;stroke-linejoin:miter;stroke-miterlimit:4;stroke-dasharray:none;stroke-opacity:1"
       id="path5269"
       d="m 477.69814,143.72398 c -3.82196,0.0278 -7.6426,0.0422 -11.46315,0.16624 -5.45111,0.20534 -10.88536,0.70652 -16.31678,1.19451 -5.36554,0.4946 -10.73705,0.91706 -16.11209,1.29323 -4.27834,0.25975 -8.5461,0.64896 -12.8115,1.06386 -2.82038,0.47969 -5.33818,0.12746 -7.87654,-1.16892 -0.24085,-0.12904 -0.4817,-0.25809 -0.72255,-0.38713 0,0 0.0193,-0.11012 0.0193,-0.11012 v 0 c 0.24627,-0.0439 0.49255,-0.0879 0.73882,-0.13184 2.4498,-1.07389 4.59748,-2.34153 7.37039,-2.4319 4.3143,-0.53913 8.64965,-0.85628 12.98911,-1.11574 5.34585,-0.35754 10.68819,-0.76389 16.02367,-1.25447 5.51439,-0.49606 11.03008,-1.01117 16.56443,-1.227 3.86453,-0.1165 7.7316,-0.16763 11.59695,-0.0466 0,0 0,4.15588 0,4.15588 z"
       inkscape:connector-curvature="0" />
    <path
       style="opacity:1;fill:#000000;fill-opacity:1;stroke:none;stroke-width:0.2;stroke-linejoin:miter;stroke-miterlimit:4;stroke-dasharray:none;stroke-opacity:1"
       id="path5271"
       d="m 416.25176,147.30461 c -1.94604,1.99614 -4.11406,3.75775 -6.31389,5.46327 -2.92026,2.23866 -6.01654,4.23047 -9.16525,6.12882 -2.74558,1.95056 -5.87729,2.60417 -9.14003,3.05498 -0.40984,0.0284 -0.81968,0.0568 -1.22949,0.0853 0,0 -0.0436,-0.10293 -0.0436,-0.10293 v 0 c 0.29572,-0.27035 0.59142,-0.54069 0.88715,-0.81103 2.30984,-2.13074 4.46902,-4.41006 7.35385,-5.78778 3.00056,-1.85192 5.96845,-3.76169 8.78673,-5.88476 2.1244,-1.61902 4.20757,-3.28799 6.25764,-5.00019 0,0 2.60689,2.85437 2.60689,2.85437 z"
       inkscape:connector-curvature="0" />
    <path
       style="opacity:1;fill:#000000;fill-opacity:1;stroke:none;stroke-width:0.2;stroke-linejoin:miter;stroke-miterlimit:4;stroke-dasharray:none;stroke-opacity:1"
       id="path5273"
       d="m 484.46793,147.76723 c -0.20053,4.40166 0.0264,8.8112 0.18314,13.21098 0.23519,6.30938 0.56885,12.6143 0.86368,18.92098 0.31991,3.63163 0.0742,7.26539 -0.67617,10.82711 0.0311,0.24782 0.0622,0.49563 0.0932,0.74344 0,0 -0.10959,0.022 -0.10959,0.022 v 0 c -0.0675,-0.24313 -0.13502,-0.48626 -0.20251,-0.72939 -1.88669,-3.24553 -2.72852,-6.89098 -2.91611,-10.62704 -0.48728,-6.32424 -0.75038,-12.66244 -1.04719,-18.99789 -0.19995,-4.53482 -0.45453,-9.07473 -0.35936,-13.61547 0,0 4.17087,0.24527 4.17087,0.24527 z"
       inkscape:connector-curvature="0" />
    <path
       style="opacity:1;fill:#000000;fill-opacity:1;stroke:none;stroke-width:0.2;stroke-linejoin:miter;stroke-miterlimit:4;stroke-dasharray:none;stroke-opacity:1"
       id="path5275"
       d="m 487.09243,192.52123 c -1.79207,2.71341 -3.2508,5.62118 -4.6528,8.54899 -1.40348,2.93451 -2.51613,5.99622 -4.1365,8.82406 -0.48043,0.83847 -1.81244,2.94639 -2.34796,3.80066 -1.3562,1.99527 -0.69861,1.04739 -1.96826,2.84676 0,0 -0.10311,-0.0432 -0.10311,-0.0432 v 0 c 0.38372,-2.15151 0.19322,-1.02005 0.56457,-3.39556 0.4354,-2.27695 0.80875,-4.58282 1.54858,-6.78769 0.79774,-2.3776 1.9372,-4.63389 2.92584,-6.9326 1.50953,-3.13975 3.03215,-6.31631 5.15138,-9.10087 0,0 3.01826,2.23943 3.01826,2.23943 z"
       inkscape:connector-curvature="0" />
    <path
       style="opacity:1;fill:#000000;fill-opacity:1;stroke:none;stroke-width:0.2;stroke-linejoin:miter;stroke-miterlimit:4;stroke-dasharray:none;stroke-opacity:1"
       id="path5281"
       d="m 425.29035,182.74912 c -1.29546,0.89512 -2.57932,1.83305 -3.60175,3.04023 -0.50454,0.66621 -0.0835,0.75608 -0.12237,0.11537 -0.0534,-0.26635 1.21081,0.12825 1.41208,0.15847 1.12654,0.17017 2.25967,0.0154 3.38833,0.001 0.64654,0.36384 1.24505,0.98669 2.02547,0.95945 0,0 0.0959,0.0574 0.0959,0.0574 v 0 c 0.15044,1.23417 -0.34528,2.1829 -1.26196,3.01361 -1.59961,0.53239 -3.27308,0.55356 -4.93847,0.33495 -1.82576,-0.29772 -3.55272,-0.81824 -4.63029,-2.44622 -0.90262,-2.08252 -0.56092,-3.39337 0.84233,-5.12447 1.31969,-1.36457 2.83353,-2.49796 4.39367,-3.57469 0,0 2.39705,3.4649 2.39705,3.4649 z"
       inkscape:connector-curvature="0" />
    <path
       style="opacity:1;fill:#000000;fill-opacity:1;stroke:none;stroke-width:0.2;stroke-linejoin:miter;stroke-miterlimit:4;stroke-dasharray:none;stroke-opacity:1"
       id="path5283"
       d="m 437.37299,193.88931 c -0.88286,2.69077 -2.27293,5.11785 -3.96539,7.37148 -2.57175,3.01377 -5.32926,4.28651 -9.16932,4.92708 -3.46869,0.39126 -6.70965,-0.55385 -9.7496,-2.14421 -1.79197,-1.18056 -3.91729,-2.61028 -4.44588,-4.84565 -0.0879,-0.37181 -0.0808,-0.75984 -0.12125,-1.13977 -0.0601,-0.94314 0.13941,-1.84097 0.37729,-2.7425 0,0 0.10785,-0.0294 0.10785,-0.0294 v 0 c 0.60004,0.54815 1.20819,1.08747 1.88195,1.54587 1.60954,1.06525 2.5418,2.49212 4.18828,3.49083 2.21466,1.21789 4.58636,1.94199 7.14382,1.77799 2.60991,-0.3368 4.92239,-1.24993 6.71002,-3.26615 1.54681,-1.84601 2.7508,-3.91306 3.60784,-6.16923 0,0 3.43439,1.22367 3.43439,1.22367 z"
       inkscape:connector-curvature="0" />
    <path
       style="opacity:1;fill:#000000;fill-opacity:1;stroke:none;stroke-width:0.2;stroke-linejoin:miter;stroke-miterlimit:4;stroke-dasharray:none;stroke-opacity:1"
       id="path5285"
       d="m 379.85189,196.07498 c -2.36384,-0.99565 -4.66961,-2.1184 -6.97042,-3.24997 -2.01822,-1.07002 -4.19516,-1.83543 -6.15201,-3.01751 -0.86257,-0.75 -1.13867,-1.88431 -1.74951,-2.78452 0,0 0.0587,-0.0951 0.0587,-0.0951 v 0 c 1.03806,0.0778 2.07341,-0.88145 3.18182,-0.62287 2.29368,0.6276 4.37288,1.81738 6.49145,2.87088 2.207,1.12905 4.40142,2.28952 6.66478,3.30275 0,0 -1.52485,3.59636 -1.52485,3.59636 z"
       inkscape:connector-curvature="0" />
    <path
       style="opacity:1;fill:#000000;fill-opacity:1;stroke:none;stroke-width:0.2;stroke-linejoin:miter;stroke-miterlimit:4;stroke-dasharray:none;stroke-opacity:1"
       id="path5287"
       d="m 365.39601,187.48856 c -0.22196,-2.42708 -0.3469,-4.86104 -0.4698,-7.29476 -0.0948,-2.68843 -0.31316,-5.36499 -0.84301,-8.00368 -0.32859,-1.11229 -0.57301,-2.64982 -1.74083,-3.20982 -0.72432,-0.10143 -1.39597,0.36841 -1.96167,0.75788 -1.33612,0.9549 -2.01422,2.37762 -2.52492,3.88701 -0.55467,2.14495 -0.44262,4.3638 -0.2912,6.55071 0.13973,1.88488 0.41,3.75653 0.57753,5.63848 -0.0664,0.30994 0.18047,0.97327 0.20717,1.01508 1.38909,3.38872 -2.00197,3.03592 -3.58942,2.769 -1.14305,-0.18522 -2.29229,-0.30374 -3.44971,-0.33528 -0.54184,0.0847 -1.70217,-0.0628 -2.01417,0.55636 0.50035,-0.0519 0.15462,-0.48468 0.69064,0.10604 0.90424,0.88407 2.0909,1.30459 3.2848,1.63137 0.96404,0.27009 1.96522,0.28262 2.95029,0.40581 -0.10739,1.28884 -0.0748,2.59709 -0.32221,3.86652 -0.003,0.008 -0.6047,0.0628 -0.958,0.11441 -0.59383,0.0868 -1.17803,0.20185 -1.76144,0.34114 -0.29625,0.13497 -1.92209,0.42975 -1.83136,0.97478 0.39854,-0.21558 0.1216,-0.51547 0.61534,-0.15337 0.72834,0.48063 1.56919,0.72595 2.4244,0.85333 1.83539,0.24208 2.87531,0.94793 2.40996,3.199 -0.0713,0.34508 -0.4427,0.54835 -0.66405,0.82252 -0.79214,0.58292 -1.69048,0.97791 -2.43557,1.62577 0.11739,-0.24502 -0.24302,0.28127 -0.14452,0.26333 0.54462,-0.0992 0.0953,-1.24658 -0.0331,-1.48204 0.8803,0.10764 2.09539,-0.006 3.05059,-0.0889 1.13123,-0.004 2.26796,-0.49795 3.40427,-0.36087 0.5257,0.0634 1.02388,0.27053 1.53611,0.40473 0.66315,0.19875 1.18129,0.39311 1.8537,0.21608 0,0 0.047,0.10143 0.047,0.10143 v 0 c -0.59481,0.41335 -0.8341,0.99741 -1.30013,1.55167 -0.32221,0.33003 -0.95076,1.01109 -1.33983,1.25048 -1.12717,0.69356 -2.59963,0.65332 -3.85066,0.90828 -2.00369,0.17157 -4.07728,0.27821 -5.86968,-0.79208 -0.27204,-0.27435 -0.61132,-0.49545 -0.81613,-0.82304 -0.94679,-1.51421 -0.22588,-3.09645 0.94864,-4.17674 0.7144,-0.57912 1.48412,-1.08745 2.29819,-1.51368 -0.47815,0.79066 -0.67188,0.88628 -0.0896,2.21503 0.29327,0.6691 1.77414,0.77966 0.26874,0.50081 -1.53533,-0.33573 -3.05718,-0.74595 -4.30218,-1.76285 -1.47193,-1.38964 -2.27584,-3.13214 -1.14459,-5.04005 1.07384,-1.2903 2.43602,-2.04299 4.07684,-2.41664 0.22005,-0.0524 3.01519,-0.64317 3.02762,-0.56214 0.19153,1.24951 0.13661,2.52451 0.2049,3.78677 -1.00727,-0.17941 -2.24719,-0.23179 -3.29991,-0.54056 -1.97602,-0.57446 -3.872,-1.37715 -5.27434,-2.94647 -1.368,-1.84061 -1.81681,-3.56935 -0.13967,-5.42121 1.35641,-1.03934 2.89427,-1.47334 4.60933,-1.39846 1.32046,0.0404 2.63533,0.17098 3.93705,0.40082 2.77376,0.4244 -1.54596,0.15423 -0.22124,2.89213 -0.46461,-0.80246 -0.63191,-1.68765 -0.69824,-2.60468 -0.19526,-1.91294 -0.34859,-3.83018 -0.52586,-5.74483 -0.17658,-2.66428 -0.30273,-5.373 0.4585,-7.96791 0.78015,-2.33677 1.98575,-4.39683 4.03505,-5.84889 1.92202,-1.15336 3.9423,-1.83234 6.05068,-0.66383 1.91392,1.45442 2.65528,3.27829 3.09888,5.60654 0.4776,2.79919 0.65905,5.63123 0.78798,8.46589 0.12914,2.38286 0.24826,4.7674 0.46765,7.14397 0,0 -3.41484,0.32964 -3.41484,0.32964 z"
       inkscape:connector-curvature="0" />
    <path
       style="opacity:1;fill:#000000;fill-opacity:1;stroke:none;stroke-width:0.2;stroke-linejoin:miter;stroke-miterlimit:4;stroke-dasharray:none;stroke-opacity:1"
       id="path5289"
       d="m 365.82641,202.11511 c 2.98042,-0.13355 5.96286,-0.0301 8.94101,0.10211 3.82098,0.15612 7.37774,1.71048 11.06654,2.55134 0,0 -0.009,0.11141 -0.009,0.11141 v 0 c -3.74369,0.23334 -7.40388,1.3016 -11.1719,1.19858 -2.8571,-0.0414 -5.71915,-0.0809 -8.5731,0.087 0,0 -0.2535,-4.0504 -0.2535,-4.0504 z"
       inkscape:connector-curvature="0" />
    <path
       style="opacity:1;fill:#000000;fill-opacity:1;stroke:none;stroke-width:0.2;stroke-linejoin:miter;stroke-miterlimit:4;stroke-dasharray:none;stroke-opacity:1"
       id="path5295"
       d="m 217.55024,197.76814 c -2.2999,0.35761 -4.62799,0.2403 -6.93557,0.0442 -2.31001,-0.25668 -4.61471,-0.5573 -6.93029,-0.76017 -1.54649,-0.12112 -3.11234,-0.16521 -4.62116,0.23639 -0.64943,0.22004 -1.24229,0.58162 -1.72921,1.06388 0.12033,-0.005 0.383,-0.61228 0.42266,-0.88929 0.009,-0.061 -0.15149,-0.90117 -0.0565,-0.80984 0.51231,0.54216 1.03584,1.07387 1.59248,1.57072 1.04806,0.94674 2.23866,1.71509 3.4087,2.49921 1.82338,1.19126 3.65208,2.37249 5.44488,3.60938 1.20303,0.82833 2.37909,1.70131 3.38603,2.76352 0.71841,0.81716 1.0315,1.8148 1.15653,2.8727 0.10612,1.01655 -0.2189,1.94125 -0.68154,2.82708 -0.52624,0.91564 -1.13364,1.77939 -1.66205,2.69358 -0.89145,1.55233 -1.74799,3.12365 -2.646,4.67248 -1.16206,2.04196 -2.46515,3.99877 -3.75435,5.96151 -0.90387,1.36311 -1.8088,2.72545 -2.63846,4.13531 -0.27058,0.0952 -0.66973,1.64713 -0.41873,0.67735 0.0645,-0.43015 -0.31235,-0.728 -0.62622,-0.95582 -0.0294,-0.017 -0.0929,-0.0173 -0.0881,-0.0509 0.002,-0.0105 1.46182,-0.0431 2.27969,-0.0683 2.39024,-0.12273 4.78265,-0.18102 7.17464,-0.2554 1.63279,-0.0182 3.26453,-0.11106 4.8973,-0.12594 0.31132,-0.003 0.6275,-0.0497 0.93397,0.005 0.28758,0.0514 0.54685,0.20575 0.82028,0.30862 0.74421,0.30232 1.4045,0.75241 2.09261,1.15624 0,0 0.0605,0.094 0.0605,0.094 v 0 c -0.22814,1.03611 -0.83611,1.70949 -1.70803,2.315 -0.28597,0.17271 -0.54495,0.40128 -0.85792,0.51814 -1.68253,0.62824 -4.3023,0.25404 -6.08494,0.51455 -2.38031,0.079 -4.7592,0.19598 -7.13893,0.28958 -1.39467,0.0658 -2.8273,0.1679 -4.17885,-0.25519 -1.31095,-0.6776 -2.13912,-1.64904 -2.29171,-3.15891 0.002,-1.27836 0.38216,-2.36627 1.09195,-3.42766 0.88538,-1.45664 1.80387,-2.89288 2.7537,-4.30835 1.24582,-1.87733 2.45628,-3.77774 3.60141,-5.71855 0.90023,-1.57434 1.76283,-3.16951 2.66185,-4.74451 0.50748,-0.82976 1.0098,-1.66191 1.52984,-2.48363 0.13436,-0.24947 0.0952,-0.16962 0.14941,-0.1423 -0.004,-0.15951 -10e-4,-0.13504 0.0665,-0.15984 -0.6921,-0.86033 -1.72076,-1.40659 -2.56362,-2.09656 -1.75295,-1.2332 -3.56941,-2.36946 -5.37002,-3.53109 -1.39247,-0.91517 -2.78707,-1.83982 -4.03119,-2.9545 -0.71588,-0.68754 -1.43901,-1.37305 -2.06048,-2.14961 -1.2007,-1.59731 -1.35631,-3.21596 0.16875,-4.69129 1.11206,-0.9725 2.35028,-1.76607 3.79776,-2.14214 2.03768,-0.45848 4.099,-0.50365 6.17271,-0.23671 2.3173,0.25772 4.61921,0.61299 6.92684,0.94276 1.98693,0.24538 3.9886,0.43165 5.99139,0.26814 0,0 0.49148,4.07714 0.49148,4.07714 z"
       inkscape:connector-curvature="0" />
    <path
       style="opacity:1;fill:#000000;fill-opacity:1;stroke:none;stroke-width:0.2;stroke-linejoin:miter;stroke-miterlimit:4;stroke-dasharray:none;stroke-opacity:1"
       id="path5297"
       d="m 409.50329,179.64592 c -1.79996,-0.19297 -3.6113,-0.21462 -5.41938,-0.18395 -1.34652,0.0217 -2.67853,0.17327 -4.00306,0.40453 -0.0225,-0.035 -1.94152,0.47469 -1.11925,0.22474 0.7964,-0.25772 0.93425,-1.78776 0.94126,-0.56942 0.042,1.15894 0.14391,2.31437 0.20698,3.47238 0.11835,1.48124 0.18923,2.96607 0.23866,4.4513 -0.003,0.8286 0.0367,1.65064 0.1392,2.47068 -0.0585,-0.54964 -0.51467,-0.93427 -1.00595,-1.13582 0.71284,-0.0123 1.42568,-0.0323 2.13894,-0.0466 1.33745,-0.0163 2.67208,-0.10229 4.00447,-0.2141 1.19616,-0.12826 2.39557,-0.23944 3.58722,-0.4058 1.03767,-0.28019 0.0698,-0.0312 -0.27818,0.45892 -0.0339,-0.72773 -0.0575,-1.58508 -0.12502,-2.35197 -0.16285,-1.69974 -0.46788,-3.37928 -0.83751,-5.04502 -0.53247,-1.82775 -0.74252,-2.2917 0.22786,-3.97141 0.45837,-0.56539 0.20773,-0.30245 0.75227,-0.78848 0,0 0.10837,-0.0274 0.10837,-0.0274 v 0 c 0.70043,0.0894 0.3515,0.015 1.04574,0.22835 1.84827,0.95096 1.89153,1.6044 2.31052,3.58373 0.40164,1.84926 0.74129,3.71405 0.91917,5.59946 0.13819,1.42292 0.32276,2.87572 -0.0432,4.28078 -0.67011,1.5462 -1.78035,2.43017 -3.48155,2.58779 -1.26563,0.15796 -2.53653,0.27335 -3.80515,0.40414 -1.42103,0.11831 -2.84401,0.21472 -4.26993,0.24764 -0.97996,0.0296 -1.96339,0.0798 -2.94219,0.005 -1.49082,-0.29884 -2.58318,-1.16748 -2.84766,-2.72417 -0.16515,-0.99859 -0.14404,-2.01209 -0.17253,-3.02103 -0.0362,-1.42076 -0.0981,-2.84023 -0.19966,-4.25778 -0.11247,-1.2469 -0.20338,-2.49723 -0.25387,-3.74789 -0.0212,-1.39048 0.14513,-2.66574 1.4282,-3.49855 0.82566,-0.36709 1.68793,-0.62228 2.58765,-0.73672 1.54861,-0.24287 3.11875,-0.34158 4.68548,-0.35787 1.9962,-0.0225 3.99465,0.003 5.98231,0.20948 0,0 -0.5002,4.45481 -0.5002,4.45481 z"
       inkscape:connector-curvature="0" />
    <path
       style="opacity:1;fill:#000000;fill-opacity:1;stroke:none;stroke-width:0.2;stroke-linejoin:miter;stroke-miterlimit:4;stroke-dasharray:none;stroke-opacity:1"
       id="path5299"
       d="m 444.49798,178.90984 c -1.59464,-0.22673 -3.19624,-0.39955 -4.80531,-0.47443 -0.38174,-0.0117 -0.9934,0.009 -1.23131,0.18342 0.17367,-0.0244 0.23839,-0.13669 0.33948,-0.28502 -0.0416,0.66675 -0.049,1.34511 -0.0482,2.01686 0.0287,1.55968 0.0164,3.11889 -0.0396,4.67771 0.0206,1.27541 -0.27781,2.55788 -0.16746,3.83137 0.2675,0.20902 -0.29517,-0.65042 -0.30937,-0.69149 0.58131,0.0257 1.16011,-0.0318 1.74003,-0.0598 1.03436,-0.0728 2.07081,-0.0518 3.10433,0.0215 1.25743,0.11057 2.51507,0.21892 3.77222,0.33277 0.73445,-0.13583 1.95418,0.46271 2.6362,0.21159 -1.4554,-0.0505 -1.51831,1.92111 -1.6577,0.93534 -0.24458,-1.42885 -0.52609,-2.85118 -0.74736,-4.28386 -0.28422,-1.62536 -0.5215,-3.2585 -0.78415,-4.88758 0.13925,-0.1003 -0.54475,-2.1418 -0.21738,-1.31681 0.61566,0.68801 0.41931,0.42912 -0.23704,0.23302 -1.06058,-0.17324 -1.29008,-0.56302 -2.02364,-1.27014 -0.44686,-0.43132 -0.85712,-0.69941 -1.46365,-0.79735 0,0 -0.0191,-0.11014 -0.0191,-0.11014 v 0 c 0.55867,-0.30503 0.88837,-0.74809 1.30479,-1.22904 1.17295,-1.10971 1.57335,-1.22913 3.17299,-1.00521 1.22433,0.21752 2.36808,0.56437 3.17267,1.58886 0.5629,1.00399 0.80719,2.04835 0.93912,3.19042 0.23915,1.61045 0.46357,3.22278 0.7326,4.82852 0.27345,1.47865 0.52131,2.96199 0.81068,4.4378 0.28144,2.1574 -0.19854,3.9145 -2.63326,4.37008 -1.14665,0.0475 -2.27388,-0.10126 -3.41011,-0.24814 -1.22243,-0.11255 -2.44589,-0.21383 -3.66935,-0.31435 -0.85024,-0.0566 -1.701,-0.10302 -2.55312,-0.0452 -0.98092,0.0496 -1.97546,0.10906 -2.94561,-0.0802 -1.83512,-0.4637 -3.14346,-1.60985 -3.30173,-3.59386 -0.0419,-1.40907 0.1416,-2.80652 0.19666,-4.21374 0.0548,-1.49177 0.0596,-2.98389 0.0138,-4.47616 -0.0148,-1.05852 -0.0821,-2.13602 0.12946,-3.17921 0.34219,-1.1796 0.9565,-2.09259 2.04401,-2.71359 1.15224,-0.5143 2.34233,-0.70305 3.60559,-0.58212 1.71063,0.11038 3.40807,0.35886 5.11029,0.55514 0,0 -0.56055,4.44312 -0.56055,4.44312 z"
       inkscape:connector-curvature="0" />
    <path
       style="opacity:1;fill:#000000;fill-opacity:1;stroke:none;stroke-width:0.2;stroke-linejoin:miter;stroke-miterlimit:4;stroke-dasharray:none;stroke-opacity:1"
       id="path5301"
       d="m 445.78881,184.84753 c -0.6291,1.03683 -1.11752,2.15278 -1.93067,3.06018 -4.77173,-2.10784 -4.12665,-1.3065 -3.54872,-4.14861 0.004,-0.033 0.018,-0.13162 0.0122,-0.099 -0.28953,1.56763 4.02479,1.6932 3.5646,2.48804 -0.21175,0.59288 -1.67122,-1.13781 -3.79767,-2.56978 -0.29776,0.55486 -0.0536,1.59495 0.68664,1.71114 0.11457,0.018 0.72298,-0.54622 0.77047,-0.58781 0.11803,-0.0482 0.23606,-0.0963 0.35412,-0.14451 0,0 0.11131,-0.0104 0.11131,-0.0104 v 0 c 0.12266,0.002 0.24532,0.003 0.36801,0.005 0.0732,-0.0329 0.75512,-0.3566 0.84352,-0.32589 0.97303,0.338 1.06383,1.58134 0.52384,2.29082 -1.16758,1.53598 -0.32837,0.64284 -4.40028,-1.88696 -0.0687,-0.0427 0.55158,-1.11723 0.6445,-1.24121 0.11983,-0.16334 0.83497,-1.20216 1.03531,-1.13562 3.53608,1.1745 4.38769,0.63397 3.93086,2.66695 -0.71665,2.40746 0.41286,1.81478 -4.34501,-0.56189 -0.85656,1.0712 1.15364,-1.66216 1.06664,-1.88339 0,0 4.11046,2.3728 4.11046,2.3728 z"
       inkscape:connector-curvature="0" />
    <path
       style="opacity:1;fill:#000000;fill-opacity:1;stroke:none;stroke-width:0.2;stroke-linejoin:miter;stroke-miterlimit:4;stroke-dasharray:none;stroke-opacity:1"
       id="path5303"
       d="m 408.33333,185.13389 c -0.70839,1.18745 -1.45396,2.3523 -2.16379,3.53883 -1.07823,1.84522 0.28305,0.7036 -4.60134,-1.87547 -0.0942,0.0889 -0.0901,0.0805 -0.10636,0.24043 0.25392,0.78164 1.45267,0.9502 2.11447,0.72876 0.41362,-0.13841 0.73379,-0.47172 1.10069,-0.70758 0.46199,-0.65732 0.67564,-1.4419 0.14431,-2.11659 -0.87683,-0.7545 -1.3193,-0.31273 -1.8105,0.57517 0.0148,0.81839 -0.10847,0.46491 0.30875,1.07991 0,0 1.48807,0.35291 1.48807,0.35291 v 0 c 0.39462,0.75693 0.29353,0.33066 0.2056,1.29812 -0.17811,0.26249 -0.31324,0.56 -0.5343,0.78748 -0.85415,0.87887 -2.32081,0.0798 -3.07662,-0.48517 -1.29006,-1.31633 -1.68087,-2.91964 -0.6948,-4.5714 0.43307,-0.32116 0.79939,-0.76134 1.29921,-0.96347 1.66074,-0.6716 3.17979,0.53803 3.95243,1.86945 0.49067,1.19717 0.67585,2.39456 0.24429,3.64816 -0.81156,1.98243 -0.16926,0.87988 -4.75221,-1.44796 -0.0421,-0.0214 0.62542,-0.98688 0.68072,-1.04172 0.75562,-1.0726 1.50947,-2.14877 2.16977,-3.28381 0,0 4.03161,2.37395 4.03161,2.37395 z"
       inkscape:connector-curvature="0" />
    <path
       style="opacity:1;fill:#000000;fill-opacity:1;stroke:none;stroke-width:0.2;stroke-linejoin:miter;stroke-miterlimit:4;stroke-dasharray:none;stroke-opacity:1"
       id="path5305"
       d="m 473.44004,243.15636 c -3.93764,-0.11591 -7.86503,-0.45635 -11.78528,-0.82934 -7.44146,-0.74774 -14.83519,-1.89178 -22.21405,-3.09606 -8.83446,-1.48419 -17.64615,-3.09913 -26.47476,-4.61732 -6.9151,-1.21453 -13.87229,-2.17611 -20.88301,-2.58654 -3.36185,-0.22342 -6.71571,0.054 -10.06321,0.32539 -0.69205,0.025 -1.38581,0.21242 -1.99425,-0.21064 -0.36089,-0.25095 -0.41793,-0.5621 -0.8224,-0.75964 -0.0844,0.0788 -0.16875,0.15751 -0.2531,0.23626 0,0 -0.11176,0.002 -0.11176,0.002 v 0 c -0.0894,-0.15268 -0.17876,-0.30537 -0.26813,-0.45805 -0.34332,-2.07743 1.08495,-2.82642 2.87009,-3.21297 3.61037,-0.64145 7.28581,-0.7078 10.94232,-0.5066 7.16444,0.51485 14.27062,1.53749 21.33915,2.81053 8.80703,1.53849 17.60151,3.15035 26.42444,4.59653 7.29223,1.15812 14.59212,2.28762 21.94049,3.03389 3.90097,0.38731 7.81064,0.68995 11.70633,1.12323 0,0 -0.35287,4.14892 -0.35287,4.14892 z"
       inkscape:connector-curvature="0" />
    <path
       style="opacity:1;fill:#000000;fill-opacity:1;stroke:none;stroke-width:0.2;stroke-linejoin:miter;stroke-miterlimit:4;stroke-dasharray:none;stroke-opacity:1"
       id="path5307"
       d="m 382.10005,233.42461 c -0.27215,3.62631 -0.81523,7.22492 -1.35604,10.81876 -0.77446,5.07374 -1.6201,10.13626 -2.4403,15.20274 -0.44342,1.94245 -0.53142,3.98451 -1.08411,5.90469 -0.37719,1.31044 -1.06447,2.51736 -1.74117,3.68879 -0.66804,0.95568 -0.33028,0.52482 -0.99724,1.30504 0,0 -0.11134,-0.01 -0.11134,-0.01 v 0 c -0.5112,-0.92369 -0.27141,-0.41665 -0.69207,-1.53375 -0.34771,-1.33627 -0.67614,-2.70286 -0.64664,-4.09737 0.0424,-2.00528 0.59285,-3.98884 0.78177,-5.9776 0.80317,-5.05485 1.61612,-10.10804 2.39366,-15.16694 0.52892,-3.49777 1.07026,-6.99508 1.4778,-10.50953 0,0 4.41568,0.37523 4.41568,0.37523 z"
       inkscape:connector-curvature="0" />
    <path
       style="opacity:1;fill:#000000;fill-opacity:1;stroke:none;stroke-width:0.2;stroke-linejoin:miter;stroke-miterlimit:4;stroke-dasharray:none;stroke-opacity:1"
       id="path5309"
       d="m 375.67063,269.91329 c 3.49173,0.69279 7.0612,0.82143 10.60894,0.93497 6.43678,0.12558 12.87267,-0.17271 19.3049,-0.37941 7.07509,-0.25362 14.15431,-0.31855 21.23284,-0.40057 6.67194,-0.0662 13.34391,-0.10442 20.01406,0.0822 3.48374,0.22467 7.04575,0.29687 10.4657,1.08799 1.71164,0.39595 2.06822,0.63681 3.61267,1.32275 1.29567,0.37733 2.23409,1.45915 3.39273,2.05847 0.24344,0.12593 0.52671,0.15184 0.79007,0.22776 0,0 -0.028,0.10821 -0.028,0.10821 v 0 c -0.26623,-0.0614 -0.52547,-0.18193 -0.79865,-0.18411 -1.2696,-0.0101 -2.55667,0.58473 -3.84283,0.45763 -4.59055,0.30818 -9.13517,-0.58139 -13.72656,-0.6495 -6.61257,-0.21814 -13.2279,-0.18893 -19.84317,-0.12412 -7.04273,0.0339 -14.08591,0.12413 -21.12534,0.35048 -6.52052,0.22188 -13.04128,0.52649 -19.5671,0.50362 -3.83765,-0.0822 -7.69609,-0.18261 -11.48188,-0.87799 0,0 0.99166,-4.51841 0.99166,-4.51841 z"
       inkscape:connector-curvature="0" />
    <path
       style="opacity:1;fill:#000000;fill-opacity:1;stroke:none;stroke-width:0.2;stroke-linejoin:miter;stroke-miterlimit:4;stroke-dasharray:none;stroke-opacity:1"
       id="path5311"
       d="m 462.40726,278.00993 c 0.27202,-3.85333 0.97501,-7.65992 1.72678,-11.44347 1.17797,-5.69036 2.60974,-11.32371 4.08704,-16.94242 0.83373,-3.73407 2.77299,-7.06092 4.51117,-10.42471 0,0 0.11041,0.0175 0.11041,0.0175 v 0 c 0.5868,3.79625 0.44815,7.72371 -0.49366,11.45104 -1.35165,5.56646 -2.77619,11.11824 -3.89305,16.7384 -0.69763,3.67567 -1.33691,7.35976 -1.82777,11.06953 0,0 -4.22092,-0.46585 -4.22092,-0.46585 z"
       inkscape:connector-curvature="0" />
    <path
       style="opacity:1;fill:#000000;fill-opacity:1;stroke:none;stroke-width:0.2;stroke-linejoin:miter;stroke-miterlimit:4;stroke-dasharray:none;stroke-opacity:1"
       id="path5313"
       d="m 466.22951,243.89273 c -0.8278,3.58693 -1.73199,7.15581 -2.63176,10.72526 -0.72207,2.48584 -1.24357,5.05278 -2.14696,7.48479 -0.75046,2.02034 -1.80695,3.92461 -2.85253,5.80155 -0.99491,1.62201 -0.53546,0.86924 -1.37972,2.2575 0,0 -0.10678,-0.0331 -0.10678,-0.0331 v 0 c 0.084,-1.61222 0.0488,-0.73618 0.0935,-2.62856 0.11602,-2.12362 0.21867,-4.27673 0.58634,-6.37556 0.4423,-2.52496 1.21671,-4.98972 1.71921,-7.50203 0.85135,-3.62296 1.61099,-7.27359 2.653,-10.8478 0,0 4.06575,1.1179 4.06575,1.1179 z"
       inkscape:connector-curvature="0" />
    <path
       style="opacity:1;fill:#000000;fill-opacity:1;stroke:none;stroke-width:0.2;stroke-linejoin:miter;stroke-miterlimit:4;stroke-dasharray:none;stroke-opacity:1"
       id="path5315"
       d="m 458.20396,244.53797 c -1.12096,3.96518 -2.2805,7.91913 -3.47382,11.8631 -1.27117,4.47171 -3.3686,8.63591 -5.49175,12.7515 -0.10345,0.41942 -0.2069,0.83885 -0.31033,1.25827 0,0 -0.10853,-0.0268 -0.10853,-0.0268 v 0 c 0.10348,-0.41961 0.20698,-0.83923 0.31046,-1.25884 0.0856,-4.64696 0.44138,-9.31298 1.69024,-13.80952 1.00597,-3.97812 2.03869,-7.94941 3.04083,-11.92851 0,0 4.3429,1.15076 4.3429,1.15076 z"
       inkscape:connector-curvature="0" />
    <path
       style="opacity:1;fill:#000000;fill-opacity:1;stroke:none;stroke-width:0.2;stroke-linejoin:miter;stroke-miterlimit:4;stroke-dasharray:none;stroke-opacity:1"
       id="path5317"
       d="m 453.89823,242.85223 c -1.32326,4.26356 -2.53,8.56159 -3.81854,12.83568 -1.31977,5.17227 -3.73642,9.91956 -6.42229,14.4981 -0.22862,0.46446 -0.45725,0.92892 -0.68585,1.39337 0,0 -0.10512,-0.0381 -0.10512,-0.0381 v 0 c 0.12078,-0.49979 0.24154,-0.99958 0.36229,-1.49937 0.61148,-5.22141 1.2405,-10.45647 2.80586,-15.49591 1.15729,-4.3967 2.28526,-8.80543 3.62048,-13.15204 0,0 4.24317,1.45825 4.24317,1.45825 z"
       inkscape:connector-curvature="0" />
    <path
       style="opacity:1;fill:#000000;fill-opacity:1;stroke:none;stroke-width:0.2;stroke-linejoin:miter;stroke-miterlimit:4;stroke-dasharray:none;stroke-opacity:1"
       id="path5319"
       d="m 445.419,244.94335 c -0.81148,4.0955 -1.78597,8.15406 -2.90073,12.1768 -1.36795,4.94954 -4.26133,9.29192 -5.93313,14.10975 0,0 -0.10559,-0.0367 -0.10559,-0.0367 v 0 c 0.19793,-0.57035 0.45281,-1.12402 0.59378,-1.71105 0.2432,-1.01269 0.53125,-3.79563 0.63796,-4.74399 0.31903,-2.83533 0.5462,-5.68259 1.01812,-8.49859 0.76017,-4.05065 1.5391,-8.09781 2.23149,-12.16082 0,0 4.4581,0.86455 4.4581,0.86455 z"
       inkscape:connector-curvature="0" />
    <path
       style="opacity:1;fill:#000000;fill-opacity:1;stroke:none;stroke-width:0.2;stroke-linejoin:miter;stroke-miterlimit:4;stroke-dasharray:none;stroke-opacity:1"
       id="path5321"
       d="m 440.61792,246.33184 c -1.276,4.6488 -2.39577,9.3368 -3.7143,13.97428 -1.03849,3.37548 -2.48713,6.62993 -4.17073,9.73288 -1.32707,2.44589 -0.54917,0.6567 -1.3983,2.80239 0,0 -0.10393,-0.0411 -0.10393,-0.0411 v 0 c 0.16111,-0.40697 0.38481,-0.79445 0.48332,-1.22091 0.0669,-0.28969 0.43082,-3.91566 0.43685,-3.9736 0.28514,-2.73801 0.48726,-5.49074 1.03325,-8.1939 0.94494,-4.79559 1.92098,-9.58815 3.0901,-14.33486 0,0 4.34374,1.25486 4.34374,1.25486 z"
       inkscape:connector-curvature="0" />
    <path
       style="opacity:1;fill:#000000;fill-opacity:1;stroke:none;stroke-width:0.2;stroke-linejoin:miter;stroke-miterlimit:4;stroke-dasharray:none;stroke-opacity:1"
       id="path5323"
       d="m 435.77404,248.5435 c -2.16099,3.87293 -3.56889,8.12672 -5.11818,12.27021 -1.55443,4.07611 -3.55264,8.18123 -6.66584,11.30543 0,0 -0.0978,-0.0541 -0.0978,-0.0541 v 0 c 0.90604,-4.21524 1.41703,-8.53619 2.89711,-12.60844 1.50402,-4.57703 2.89978,-9.25901 5.27886,-13.47506 0,0 3.70589,2.56194 3.70589,2.56194 z"
       inkscape:connector-curvature="0" />
    <path
       style="opacity:1;fill:#000000;fill-opacity:1;stroke:none;stroke-width:0.2;stroke-linejoin:miter;stroke-miterlimit:4;stroke-dasharray:none;stroke-opacity:1"
       id="path5325"
       d="m 428.87638,243.6994 c -1.21709,4.01339 -2.30016,8.0651 -3.51772,12.0784 -1.21909,4.74189 -3.36987,9.08916 -6.12656,13.1085 -0.2545,0.35274 -0.50903,0.70548 -0.76353,1.05822 0,0 -0.10229,-0.0451 -0.10229,-0.0451 v 0 c 0.0843,-0.41575 0.16859,-0.8315 0.25289,-1.24724 0.58663,-4.72774 1.21258,-9.45338 2.65205,-14.01524 1.05188,-4.12628 2.09425,-8.25765 3.27078,-12.35028 0,0 4.33438,1.41273 4.33438,1.41273 z"
       inkscape:connector-curvature="0" />
    <path
       style="opacity:1;fill:#000000;fill-opacity:1;stroke:none;stroke-width:0.2;stroke-linejoin:miter;stroke-miterlimit:4;stroke-dasharray:none;stroke-opacity:1"
       id="path5327"
       d="m 423.8041,241.33835 c -1.63195,3.81782 -2.55603,7.90642 -3.61918,11.90922 -1.52048,4.8893 -2.34982,10.12792 -4.69416,14.73261 -0.36494,0.71681 -0.83852,1.3729 -1.25775,2.05935 -0.98761,1.41274 -2.02499,2.96334 -3.83294,3.26592 0,0 -0.0373,-0.10538 -0.0373,-0.10538 v 0 c 0.11464,-0.0768 0.28022,-0.10796 0.3439,-0.23036 0.55134,-1.05984 0.40077,-2.90223 0.87627,-3.97212 1.0912,-5.69881 3.09486,-11.17833 4.33189,-16.8476 1.09456,-4.40295 2.03849,-8.915 3.91721,-13.06472 0,0 3.97206,2.25308 3.97206,2.25308 z"
       inkscape:connector-curvature="0" />
    <path
       style="opacity:1;fill:#000000;fill-opacity:1;stroke:none;stroke-width:0.2;stroke-linejoin:miter;stroke-miterlimit:4;stroke-dasharray:none;stroke-opacity:1"
       id="path5329"
       d="m 416.06919,237.66765 c -1.52437,4.82626 -2.86972,9.7067 -4.33959,14.54984 -1.29836,3.98493 -2.45713,8.05137 -4.41367,11.77855 -0.85696,1.6325 -1.35869,2.32515 -2.33468,3.80985 -1.19462,1.41945 -0.61288,0.82096 -1.69839,1.83985 0,0 -0.0961,-0.057 -0.0961,-0.057 v 0 c 0.32414,-1.3616 0.16462,-0.58947 0.43791,-2.32443 0.40534,-2.33519 0.77099,-4.68245 1.35009,-6.98326 0.78301,-3.11108 1.82943,-6.15345 2.62882,-9.26029 1.37078,-4.95635 2.65356,-9.93815 4.11348,-14.8689 0,0 4.35215,1.51581 4.35215,1.51581 z"
       inkscape:connector-curvature="0" />
    <path
       style="opacity:1;fill:#000000;fill-opacity:1;stroke:none;stroke-width:0.2;stroke-linejoin:miter;stroke-miterlimit:4;stroke-dasharray:none;stroke-opacity:1"
       id="path5331"
       d="m 407.13755,236.64646 c -0.0292,-0.27061 -0.0555,-0.54156 -0.0877,-0.81183 -0.008,-0.0675 -0.11959,-1.11245 -0.22236,-1.2852 -0.0365,-0.0614 -0.12038,0.16647 -0.0606,0.20551 2.83739,1.85234 1.89656,1.98438 3.76513,0.95795 -1.47577,4.40715 -2.79398,8.86549 -4.15992,13.30756 -1.82604,5.97479 -3.74909,11.92121 -5.9255,17.77817 -0.47146,1.15211 -2.16683,6.29184 -4.60166,4.44743 -0.37803,-0.28635 -0.0778,-0.94528 -0.11663,-1.41792 0.71877,-1.38562 0.97722,-2.86732 1.23167,-4.38709 0,0 0.11025,0.0185 0.11025,0.0185 v 0 c -0.24572,1.46737 -0.55698,2.85431 0.0399,4.285 -0.1478,-0.78568 0.0823,-0.004 -1.57983,-0.0926 -0.40682,-0.0217 1.02542,-4.03596 1.03095,-4.19659 1.88439,-5.89271 3.71274,-11.80322 5.47081,-17.73493 1.38629,-4.75375 2.61229,-9.57429 4.31824,-14.22359 0.54716,-0.56701 0.85516,-1.65055 1.6415,-1.70104 3.90425,-0.25068 3.42075,2.60033 3.20527,4.87966 0,0 -4.05955,-0.029 -4.05955,-0.029 z"
       inkscape:connector-curvature="0" />
    <path
       style="opacity:1;fill:#000000;fill-opacity:1;stroke:none;stroke-width:0.2;stroke-linejoin:miter;stroke-miterlimit:4;stroke-dasharray:none;stroke-opacity:1"
       id="path5333"
       d="m 402.48953,235.81367 c -1.90682,4.3027 -3.09552,8.89203 -4.4061,13.40171 -1.66325,5.82684 -3.292,11.67019 -5.68881,17.24492 -0.37224,0.67975 -2.04399,4.18349 -3.25342,3.94504 -0.25228,-0.0497 -0.37907,-0.34752 -0.56862,-0.52127 0,0 0.0718,-0.0857 0.0718,-0.0857 v 0 c -0.36571,-0.59071 0.72638,-3.68164 0.6696,-4.34782 1.33734,-5.85142 2.93781,-11.63592 4.46503,-17.43981 1.32355,-4.91516 2.51471,-9.92932 4.62328,-14.57964 0,0 4.08728,2.38259 4.08728,2.38259 z"
       inkscape:connector-curvature="0" />
    <path
       style="opacity:1;fill:#000000;fill-opacity:1;stroke:none;stroke-width:0.2;stroke-linejoin:miter;stroke-miterlimit:4;stroke-dasharray:none;stroke-opacity:1"
       id="path5335"
       d="m 391.08708,241.88016 c -0.11219,-2.22942 0.17428,-4.45303 0.14147,-6.68151 -0.0316,-0.0413 -0.14552,-0.13554 -0.0948,-0.12396 1.45949,0.33345 2.95717,0.5618 4.3552,1.09733 0.16904,0.0648 -0.0588,0.3573 -0.0945,0.53474 -0.35062,1.73876 -0.75348,3.46799 -1.14345,5.1981 -1.35913,6.0282 -2.91417,12.01235 -4.79843,17.89795 -0.9675,2.80553 -2.77368,7.64891 -5.43996,9.34966 -0.25974,0.16568 -0.58026,0.20725 -0.8704,0.31087 0,0 -0.0765,-0.0815 -0.0765,-0.0815 v 0 c 1.00875,-3.52951 1.1093,-7.27874 2.34532,-10.75967 1.55038,-5.87517 3.09817,-11.75243 4.34189,-17.7023 0.0582,-0.27379 1.31176,-6.15937 1.35851,-6.16202 4.96183,-0.28119 4.95673,-0.68747 4.36271,1.05159 -0.64783,2.15057 -1.11807,4.35422 -1.87402,6.47157 0,0 -2.51303,-0.40083 -2.51303,-0.40083 z"
       inkscape:connector-curvature="0" />
    <path
       style="opacity:1;fill:#000000;fill-opacity:1;stroke:none;stroke-width:0.2;stroke-linejoin:miter;stroke-miterlimit:4;stroke-dasharray:none;stroke-opacity:1"
       id="path5337"
       d="m 389.46259,235.99966 c -1.45505,4.3668 -2.69,8.80255 -3.97947,13.22002 -0.33681,1.11494 -0.66744,2.23178 -1.01044,3.34483 -0.91094,2.95572 -1.12453,3.79757 -2.3391,6.63367 -1.18719,2.77227 -2.60118,5.45138 -4.01982,8.10956 -1.4379,2.45452 -0.87185,1.24951 -1.77339,3.57873 0,0 -0.10528,-0.0376 -0.10528,-0.0376 v 0 c 0.77494,-2.36896 0.4608,-1.08032 0.85444,-3.88633 1.02148,-6.39632 2.0039,-12.80354 3.96605,-18.99815 1.26439,-4.59499 2.43526,-9.23629 4.07199,-13.71526 0,0 4.33502,1.7505 4.33502,1.7505 z"
       inkscape:connector-curvature="0" />
    <path
       style="opacity:1;fill:#000000;fill-opacity:1;stroke:none;stroke-width:0.2;stroke-linejoin:miter;stroke-miterlimit:4;stroke-dasharray:none;stroke-opacity:1"
       id="path5339"
       d="m 462.77474,271.01243 c -4.40121,-2.20856 -9.34911,-2.70501 -14.17635,-3.17582 -9.63348,-0.65883 -19.26828,0.22897 -28.85141,1.1498 -8.29434,0.87205 -16.57702,1.89142 -24.91983,2.1183 -3.29803,-0.1066 -6.66761,-0.71392 -9.58546,-2.33538 -0.0498,-0.0277 -2.35,-1.56579 -2.56606,-1.71016 0,0 0.0536,-0.0981 0.0536,-0.0981 v 0 c 0.39939,0.17268 0.77396,0.42123 1.19816,0.51804 0.51454,0.11743 1.05146,0.1036 1.57906,0.11576 3.06499,0.0706 6.06944,-0.58804 9.11815,-0.76886 8.25064,-0.56275 16.47344,-1.43052 24.69894,-2.27691 9.86454,-0.9348 19.78657,-1.82243 29.70133,-1.21404 5.51145,0.50788 11.28371,1.03768 16.17845,3.85497 0,0 -2.42861,3.82238 -2.42861,3.82238 z"
       inkscape:connector-curvature="0" />
    <path
       style="opacity:1;fill:#000000;fill-opacity:1;stroke:none;stroke-width:0.2;stroke-linejoin:miter;stroke-miterlimit:4;stroke-dasharray:none;stroke-opacity:1"
       id="path5341"
       d="m 472.94122,261.33193 c -5.52109,0.17487 -11.04048,0.3811 -16.55924,0.62033 -11.05074,0.60171 -22.09268,1.34228 -33.14866,1.84554 -10.03703,0.46107 -20.10043,0.52187 -30.08363,-0.6981 -4.44262,-0.84822 -8.30355,-2.19945 -12.16697,-4.5069 0,0 0.042,-0.1036 0.042,-0.1036 v 0 c 4.06768,0.93102 8.33239,0.39946 12.4692,0.55427 9.83914,0.45751 19.68908,0.75068 29.53534,0.25023 11.04876,-0.49841 22.08508,-1.19948 33.12247,-1.90202 5.55178,-0.31979 11.10909,-0.6308 16.6715,-0.6594 0,0 0.11803,4.59965 0.11803,4.59965 z"
       inkscape:connector-curvature="0" />
    <path
       style="opacity:1;fill:#000000;fill-opacity:1;stroke:none;stroke-width:0.2;stroke-linejoin:miter;stroke-miterlimit:4;stroke-dasharray:none;stroke-opacity:1"
       id="path5343"
       d="m 464.9371,253.77817 c -5.48876,0.18624 -10.97317,0.48273 -16.45751,0.76677 -9.75505,0.57769 -19.52016,0.84777 -29.29125,0.8081 -6.46515,-0.28847 -13.04428,-0.20118 -19.44227,-1.34259 -2.34863,-0.419 -5.27455,-1.32064 -7.58457,-1.98591 -2.59631,-0.74841 -5.00907,-1.91498 -7.37918,-3.18258 0,0 0.0363,-0.10571 0.0363,-0.10571 v 0 c 2.56892,0.43158 5.14889,0.71796 7.75589,0.81121 2.53013,0.11733 5.06455,0.13226 7.59404,0.26256 6.34381,0.32676 12.67238,1.07831 19.03741,0.9839 9.6815,0.0356 19.35887,-0.23669 29.02235,-0.84716 5.51146,-0.31684 11.02225,-0.65414 16.54112,-0.81595 0,0 0.16764,4.64736 0.16764,4.64736 z"
       inkscape:connector-curvature="0" />
    <path
       style="opacity:1;fill:#000000;fill-opacity:1;stroke:none;stroke-width:0.2;stroke-linejoin:miter;stroke-miterlimit:4;stroke-dasharray:none;stroke-opacity:1"
       id="path5345"
       d="m 466.05343,251.74365 c -3.98508,-1.44375 -8.26252,-1.79544 -12.44523,-2.2537 -9.32874,-0.82964 -18.67189,-1.4852 -28.00692,-2.24033 -9.57826,-0.82708 -19.14472,-1.78322 -28.69893,-2.85148 -5.35551,-0.43593 -10.58381,-1.46793 -15.24243,-4.22304 -0.33848,-0.29158 -0.67696,-0.58317 -1.01542,-0.87476 0,0 0.0402,-0.1043 0.0402,-0.1043 v 0 c 0.41579,-8e-4 0.83161,-0.002 1.24743,-0.002 2.87689,-0.0361 5.78477,-0.24039 8.65812,-0.0556 1.06812,0.0687 2.12966,0.21673 3.19407,0.32921 1.20799,0.12765 2.41539,0.26078 3.6231,0.39116 9.51101,1.05298 19.02807,2.06122 28.56667,2.83389 9.37104,0.77529 18.75493,1.37142 28.12605,2.14315 4.73335,0.48277 9.64705,0.83688 14.05078,2.78427 0,0 -2.09751,4.12381 -2.09751,4.12381 z"
       inkscape:connector-curvature="0" />
    <path
       style="opacity:1;fill:#000000;fill-opacity:1;stroke:none;stroke-width:0.2;stroke-linejoin:miter;stroke-miterlimit:4;stroke-dasharray:none;stroke-opacity:1"
       id="path5347"
       d="m 483.21012,202.8538 c 2.54593,0.89287 4.87794,2.21203 7.06562,3.77379 3.12513,2.28928 5.23497,5.43376 6.91938,8.8616 1.7983,3.94732 2.29619,8.21607 2.46156,12.49918 -0.12431,2.93779 0.0799,6.48108 -0.71393,9.33518 -0.13888,0.49936 -0.38595,0.9621 -0.57893,1.44315 -0.6027,1.43311 -1.34843,2.79715 -2.15818,4.12161 0,0 -0.11131,-0.0103 -0.11131,-0.0103 v 0 c -0.54909,-1.4676 -0.94327,-2.97953 -1.16457,-4.53383 -0.0724,-0.49934 -0.19539,-0.99394 -0.21706,-1.49803 -0.11922,-2.77383 0.67416,-5.87392 0.44545,-8.69248 -0.12684,-3.65973 -0.51012,-7.33535 -1.95172,-10.74306 -1.31215,-2.79205 -2.95331,-5.37404 -5.44193,-7.27377 -1.8534,-1.33025 -3.81958,-2.47328 -6.00138,-3.1825 0,0 1.447,-4.10055 1.447,-4.10055 z"
       inkscape:connector-curvature="0" />
    <path
       style="opacity:1;fill:#000000;fill-opacity:1;stroke:none;stroke-width:0.2;stroke-linejoin:miter;stroke-miterlimit:4;stroke-dasharray:none;stroke-opacity:1"
       id="path5349"
       d="m 497.51199,246.10732 c -2.02015,0.10969 -3.9443,0.6286 -5.66679,1.68781 -1.69051,1.19606 -2.48865,3.03238 -3.09687,4.94055 -0.65352,2.31899 -0.78507,4.72077 -0.72221,7.11529 0.12515,1.83067 0.48414,3.60912 1.50956,5.14999 0.54239,0.7016 1.21377,0.91965 2.06338,0.84314 1.06785,-0.19304 1.93442,-0.83392 2.74251,-1.51934 1.22139,-1.0348 2.07933,-2.37837 2.78773,-3.79536 0.85796,-1.90794 1.1076,-3.9773 1.24404,-6.04231 0.093,-2.10161 -0.19346,-4.17549 -0.77393,-6.19043 -0.0515,-0.64045 -0.69715,-1.16088 -0.74711,-1.79357 -0.12152,-1.5396 0.21852,0.64349 -0.0535,-0.93126 -0.15293,-0.54063 -0.41204,-0.88964 -0.86472,-1.19764 0,0 0.007,-0.11156 0.007,-0.11156 v 0 c 0.59356,-0.25513 1.1367,-0.60977 1.78855,-0.71097 0.6182,-0.0243 1.22775,-0.11079 1.82727,0.13964 1.304,0.54469 1.93495,2.08542 2.42948,3.27909 0.7927,2.53572 1.14224,5.16718 0.97568,7.82729 -0.18484,2.67794 -0.55464,5.36185 -1.72659,7.81081 -1.02153,1.99942 -2.25825,3.8512 -3.99047,5.3135 -1.67093,1.30535 -3.46086,2.38845 -5.63777,2.51322 -2.58638,-0.0682 -4.40375,-0.90002 -5.94162,-3.04515 -1.34024,-2.26134 -2.02834,-4.76417 -2.12672,-7.39777 -0.10453,-2.91881 0.0948,-5.84269 0.90533,-8.66414 0.99544,-2.98834 2.41586,-5.70195 5.15313,-7.45147 2.40932,-1.32105 4.9675,-2.11862 7.73607,-2.1946 0,0 0.17841,4.42524 0.17841,4.42524 z"
       inkscape:connector-curvature="0" />
    <path
       style="opacity:1;fill:#000000;fill-opacity:1;stroke:none;stroke-width:0.2;stroke-linejoin:miter;stroke-miterlimit:4;stroke-dasharray:none;stroke-opacity:1"
       id="path5351"
       d="m 499.34222,257.02824 c -2.27187,-0.15292 -4.4886,-0.66882 -6.69679,-1.19223 -1.49069,-0.4446 -3.04737,-0.67185 -4.52139,-1.17078 -0.52765,-0.29612 -1.26902,-1.84357 -1.05359,-2.43573 0.0596,-0.1637 0.26413,-0.22721 0.39618,-0.34082 0,0 0.10684,0.0329 0.10684,0.0329 v 0 c 0.10877,-0.0379 0.26072,-0.0191 0.32634,-0.11383 0.36015,-0.51986 -0.19029,-1.62571 1.14808,-1.68564 1.62248,0.15464 3.17122,0.71316 4.75088,1.08549 1.93099,0.50657 3.88361,0.97361 5.87344,1.1749 0,0 -0.32999,4.64577 -0.32999,4.64577 z"
       inkscape:connector-curvature="0" />
  </g>
</svg>
