<?xml version="1.0" encoding="UTF-8" standalone="no"?>
<!-- Created with Inkscape (http://www.inkscape.org/) -->

<svg
   xmlns:dc="http://purl.org/dc/elements/1.1/"
   xmlns:cc="http://creativecommons.org/ns#"
   xmlns:rdf="http://www.w3.org/1999/02/22-rdf-syntax-ns#"
   xmlns:svg="http://www.w3.org/2000/svg"
   xmlns="http://www.w3.org/2000/svg"
   xmlns:sodipodi="http://sodipodi.sourceforge.net/DTD/sodipodi-0.dtd"
   xmlns:inkscape="http://www.inkscape.org/namespaces/inkscape"
   width="1920"
   height="1080"
   viewBox="0 0 507.99999 285.75001"
   version="1.1"
   id="svg8"
   inkscape:version="0.92.2 2405546, 2018-03-11"
   sodipodi:docname="schrodinger-1.svg">
  <defs
     id="defs2" />
  <sodipodi:namedview
     id="base"
     pagecolor="#ffffff"
     bordercolor="#666666"
     borderopacity="1.0"
     inkscape:pageopacity="0.0"
     inkscape:pageshadow="2"
     inkscape:zoom="0.37871094"
     inkscape:cx="1207.558"
     inkscape:cy="513.00965"
     inkscape:document-units="mm"
     inkscape:current-layer="layer1"
     showgrid="false"
     units="px"
     inkscape:window-width="1348"
     inkscape:window-height="730"
     inkscape:window-x="5"
     inkscape:window-y="25"
     inkscape:window-maximized="0" />
  <metadata
     id="metadata5">
    <rdf:RDF>
      <cc:Work
         rdf:about="">
        <dc:format>image/svg+xml</dc:format>
        <dc:type
           rdf:resource="http://purl.org/dc/dcmitype/StillImage" />
        <dc:title></dc:title>
      </cc:Work>
    </rdf:RDF>
  </metadata>
  <g
     inkscape:label="Layer 1"
     inkscape:groupmode="layer"
     id="layer1"
     transform="translate(0,-11.249983)">
    <path
       style="opacity:1;fill:#ff0000;fill-opacity:1;stroke:none;stroke-width:0.2;stroke-linejoin:miter;stroke-miterlimit:4;stroke-dasharray:none;stroke-opacity:1"
       id="path5097"
       d="m 81.04376,137.08181 c -3.785991,0.48019 -7.550528,1.10864 -11.309924,1.76144 -4.754565,0.84798 -9.514421,1.66001 -14.310923,2.23151 -2.043687,0.0113 -4.25926,0.76341 -6.303486,0.28993 -0.565449,-0.13097 -1.232379,-0.55862 -1.736027,-0.8505 -0.611327,-0.42955 -0.784598,-0.80029 -0.858395,-1.50936 0,0 0.01998,-0.10998 0.01998,-0.10998 v 0 c 0.114329,-0.63303 0.272484,-1.03141 0.808257,-1.44041 0.394893,-0.26258 1.11067,-0.76831 1.541129,-0.91404 1.867585,-0.63224 4.005453,-0.21399 5.906402,-0.66599 4.714314,-0.56638 9.403728,-1.30539 14.082525,-2.11294 3.889589,-0.62705 7.78588,-1.2789 11.720933,-1.54131 0,0 0.439528,4.86165 0.439528,4.86165 z"
       inkscape:connector-curvature="0" />
    <path
       style="opacity:1;fill:#ff0000;fill-opacity:1;stroke:none;stroke-width:0.2;stroke-linejoin:miter;stroke-miterlimit:4;stroke-dasharray:none;stroke-opacity:1"
       id="path5099"
       d="m 102.93047,85.952819 c -0.0812,4.212399 -0.17494,8.424878 -0.21288,12.638402 -0.0464,5.970469 0.0926,11.939769 0.3637,17.903689 0.10783,1.90855 0.14169,3.82312 0.3103,5.72817 0.0303,0.34225 0.0586,0.68565 0.11958,1.02379 0.0237,0.13128 0.19058,0.49778 0.13297,0.37746 -0.13615,-0.28434 -0.24611,-0.5805 -0.36917,-0.87076 -0.78625,-0.18139 -1.57251,-0.36279 -2.35876,-0.54418 -0.0719,0.001 -0.23894,0.0715 -0.21554,0.004 0.0979,-0.28439 0.32543,-0.50611 0.47785,-0.76541 0.23724,-0.40361 0.46549,-0.81251 0.69086,-1.22288 0.58756,-1.0699 1.17035,-2.19671 1.73576,-3.27619 1.6354,-3.20807 3.27278,-6.41463 5.05443,-9.5445 1.19414,-1.89773 2.62631,-3.22045 5.00384,-1.42478 0.67724,0.5115 0.7046,1.99802 0.77844,2.75461 -0.0414,2.81478 -0.23283,5.61784 -0.10532,8.43298 0.19234,1.77322 0.33942,3.9788 1.96552,5.06218 1.60445,0.4914 3.11809,0.41798 4.73207,-0.007 1.69832,-0.74871 0.89155,-0.2899 2.41723,-1.38179 0,0 0.0848,0.0728 0.0848,0.0728 v 0 c -0.95467,1.81117 -0.43568,0.91281 -1.56302,2.69157 -2.65861,3.08536 -4.83629,4.50582 -8.78448,2.38854 -0.41022,-0.36095 -0.86557,-0.67631 -1.23067,-1.08285 -1.85588,-2.0666 -2.25386,-4.95468 -2.42911,-7.60692 -0.0386,-2.77874 0.15156,-5.54307 0.29258,-8.31668 0.009,-0.1428 -0.11324,-0.45696 0.027,-0.42839 0.21997,0.0448 0.28461,0.34726 0.42691,0.52088 0.71349,0.13452 1.42697,0.26903 2.14045,0.40354 0.27349,-0.0103 0.4416,-0.32502 0.64451,-0.5087 0.23948,-0.21678 -2.31573,1.49656 -0.6559,0.71335 -1.92007,2.91853 -3.37591,6.11307 -4.98269,9.20761 -0.80128,1.6129 -1.57082,3.25138 -2.4367,4.83127 -0.28678,0.52327 -1.23312,2.28887 -1.86518,2.45014 -0.9905,0.25272 -2.04192,-0.10207 -3.06288,-0.1531 -0.288233,-0.4528 -0.645672,-0.86837 -0.864702,-1.35841 -0.184655,-0.41313 -0.261199,-1.85744 -0.27886,-2.22564 -0.09278,-1.93433 -0.05939,-3.87366 -0.135372,-5.80848 -0.108286,-6.029 -0.276547,-12.05882 -0.177442,-18.089382 0.06406,-4.273688 0.085,-8.561838 0.522605,-12.817137 0,0 3.807291,0.228185 3.807291,0.228185 z"
       inkscape:connector-curvature="0" />
    <path
       style="opacity:1;fill:#ff0000;fill-opacity:1;stroke:none;stroke-width:0.2;stroke-linejoin:miter;stroke-miterlimit:4;stroke-dasharray:none;stroke-opacity:1"
       id="path5101"
       d="m 113.75815,99.225623 c -2.8198,0.548045 -5.65276,1.015487 -8.50261,1.374927 -3.369,0.52728 -6.727502,-0.12389 -9.981424,-0.987582 -0.325792,-0.09209 -0.651582,-0.184177 -0.977374,-0.276265 0,0 -0.0048,-0.111678 -0.0048,-0.111678 v 0 c 0.31037,-0.119621 0.620737,-0.239244 0.931106,-0.358868 3.016993,-1.276694 6.104002,-2.504408 9.391002,-2.828795 2.84067,-0.442238 5.67428,-0.945499 8.52771,-1.296482 0,0 0.61642,4.484743 0.61642,4.484743 z"
       inkscape:connector-curvature="0" />
    <path
       style="opacity:1;fill:#ff0000;fill-opacity:1;stroke:none;stroke-width:0.2;stroke-linejoin:miter;stroke-miterlimit:4;stroke-dasharray:none;stroke-opacity:1"
       id="path5103"
       d="m 121.47165,77.795736 c 2.0931,-0.801809 4.22762,-1.411896 6.4786,-1.36579 3.33348,0.67999 3.8843,3.053797 3.31886,6.031439 -0.68557,2.515201 -2.12865,4.703241 -3.47562,6.901185 -0.42717,0.751446 -0.92456,1.492163 -1.20704,2.317412 -0.0188,0.05478 -0.17368,0.906782 0.0743,0.299238 0.22659,-0.225073 -0.16087,-0.423341 -0.10449,-0.627888 0.0569,-0.206351 0.4206,0.0818 0.62707,0.138237 1.1859,0.324154 0.51495,0.05722 1.77626,0.751938 1.67438,0.775226 3.3724,1.426527 4.95788,2.375 0,0 -0.0118,0.111165 -0.0118,0.111165 v 0 c -1.7759,0.629589 -3.59574,1.098198 -5.4317,1.522751 -0.46383,0.08427 -0.92024,0.239885 -1.39148,0.252807 -1.70427,0.04673 -3.83987,-0.810636 -4.83111,-2.230456 -0.28205,-0.403995 -0.41002,-0.896072 -0.61503,-1.344107 -0.0386,-0.443831 -0.13443,-0.886362 -0.11595,-1.331489 0.0764,-1.838503 1.34215,-3.375668 2.30519,-4.833062 1.1658,-1.664944 2.39524,-3.334507 3.10593,-5.255482 0.25467,-0.868101 0.003,-0.771023 0.64087,-0.621872 0.33292,0.07785 0.23134,0.0085 0.14149,-0.09428 -1.57236,-0.23644 -3.13348,0.597091 -4.58066,1.087535 0,0 -1.66163,-4.084285 -1.66163,-4.084285 z"
       inkscape:connector-curvature="0" />
    <path
       style="opacity:1;fill:#ff0000;fill-opacity:1;stroke:none;stroke-width:0.2;stroke-linejoin:miter;stroke-miterlimit:4;stroke-dasharray:none;stroke-opacity:1"
       id="path5105"
       d="m 138.23247,140.48528 c -4.14262,0.52699 -8.32093,0.69925 -12.49019,0.87148 -6.91572,0.22345 -13.83589,0.24174 -20.75452,0.27314 -4.49003,0.0973 -9.016661,-1.1894 -13.493014,-0.57811 0,0 -0.03594,-0.10585 -0.03594,-0.10585 v 0 c 0.940803,-0.52582 1.801349,-1.03754 2.810298,-1.44876 3.371003,-1.37393 7.037566,-1.96073 10.636646,-2.3083 6.88333,-0.2223 13.77103,-0.22116 20.65432,-0.44831 4.09843,-0.15409 8.19202,-0.37432 12.28557,-0.62386 0,0 0.38683,4.36857 0.38683,4.36857 z"
       inkscape:connector-curvature="0" />
    <path
       style="opacity:1;fill:#ff0000;fill-opacity:1;stroke:none;stroke-width:0.2;stroke-linejoin:miter;stroke-miterlimit:4;stroke-dasharray:none;stroke-opacity:1"
       id="path5107"
       d="m 88.003022,162.61645 c 2.156301,-2.08308 4.742452,-3.54994 7.49233,-4.68809 2.392487,-0.80383 5.351048,-1.35596 7.425468,0.54548 0.43104,0.3951 0.70985,0.92937 1.06477,1.39406 1.43561,3.41189 0.17139,6.81425 -1.2344,10.00264 -1.27166,2.70792 -3.048045,5.11973 -4.69093,7.60414 0.03897,0.14383 -0.966652,1.27249 -0.696116,1.54213 0.283125,0.28218 0.078,-0.82539 -0.06871,-1.19723 -0.0028,-0.0392 -0.0475,-0.11429 -0.0084,-0.11756 0.142865,-0.0119 2.793376,0.52826 2.914566,0.56223 0.39013,0.10938 0.7542,0.29636 1.13131,0.44454 1.5268,0.59823 3.13166,0.95012 4.71533,1.35834 0,0 0.0219,0.10963 0.0219,0.10963 v 0 c -1.4723,1.05629 -3.06005,1.8604 -4.79481,2.41038 -0.45725,0.13579 -0.90049,0.33364 -1.371748,0.40736 -2.100302,0.32857 -4.55735,-0.29314 -6.274287,-1.48423 -0.324709,-0.42129 -0.740169,-0.78619 -0.974129,-1.26387 -0.973974,-1.98861 0.13046,-4.00429 1.238676,-5.62947 1.557036,-2.19444 3.244276,-4.31614 4.455797,-6.73228 0.807114,-1.73831 1.533446,-3.49904 1.564905,-5.4447 0.890856,-0.8935 -2.553526,-0.2462 -2.627548,-0.1018 -2.170703,0.8602 -4.210815,2.01002 -5.882386,3.66652 0,0 -3.401608,-3.38822 -3.401608,-3.38822 z"
       inkscape:connector-curvature="0" />
    <path
       style="opacity:1;fill:#ff0000;fill-opacity:1;stroke:none;stroke-width:0.2;stroke-linejoin:miter;stroke-miterlimit:4;stroke-dasharray:none;stroke-opacity:1"
       id="path5109"
       d="m 113.01984,169.5504 c 1.15752,2.33695 1.76547,4.86729 2.04761,7.44562 0.0428,1.09885 -0.0244,4.18773 -1.62385,4.42478 -3.20861,0.47555 -3.08814,-0.31118 -3.92895,-2.17406 -0.43805,-2.79636 0.37783,-5.53422 1.36424,-8.12335 1.00263,-2.09173 2.21492,-4.36075 4.32827,-5.53507 0.401,-0.22282 0.84662,-0.35362 1.26993,-0.53043 3.64823,-0.59857 5.25534,1.62672 6.44848,4.68042 0.77615,2.43128 0.90224,4.96572 0.6602,7.48801 -0.37547,2.29281 0.0416,1.95051 -4.55234,-0.96423 -0.0332,-0.0211 1.39088,-2.45491 1.5128,-2.66044 1.58737,-2.66087 3.52825,-5.064 5.79105,-7.17361 1.79224,-1.49178 4.15345,-2.73623 6.46054,-1.49486 0.46348,0.24938 0.82046,0.65944 1.23069,0.98916 1.91619,2.4093 2.34155,5.49991 2.77695,8.456 0.21061,2.14361 -0.29187,4.66094 -1.24547,6.61072 0,0 -0.10791,0.0292 -0.10791,0.0292 v 0 c -1.68513,-1.30064 -2.82959,-3.86701 -3.27636,-5.88995 -0.34687,-1.94525 -0.67831,-3.91332 -1.4255,-5.75341 0.0392,-0.0382 0.45757,-0.27675 0.34754,-0.31826 -0.52223,-0.19703 -1.28574,0.61938 -1.62615,0.79544 -1.94851,1.74092 -3.54805,3.81022 -4.82938,6.08883 -0.47876,0.87625 -0.54374,0.96402 -0.94989,1.81552 -0.10268,0.21527 -0.0579,0.67368 -0.29536,0.65171 -5.26626,-0.48707 -5.05584,0.36186 -4.672,-1.7266 0.23818,-1.74733 0.16766,-3.52624 -0.36735,-5.2179 -0.12524,-0.35389 -0.55485,-1.06283 -0.59247,-1.4548 -0.0142,-0.14777 0.39014,-0.11595 0.33502,-0.31074 -1.11567,-0.13018 -2.28798,2.41472 -2.67225,3.18003 -0.63358,1.61591 -1.1733,3.27636 -1.12821,5.03604 -0.84257,-1.10177 -0.86261,-1.38987 -3.32104,-0.84091 -1.24516,0.27804 -0.84889,2.51025 -0.75525,0.35172 -0.11243,-1.947 -0.60657,-3.85459 -1.46661,-5.60925 0,0 4.26302,-2.26532 4.26302,-2.26532 z"
       inkscape:connector-curvature="0" />
    <path
       style="opacity:1;fill:#ff0000;fill-opacity:1;stroke:none;stroke-width:0.2;stroke-linejoin:miter;stroke-miterlimit:4;stroke-dasharray:none;stroke-opacity:1"
       id="path5111"
       d="m 183.53712,111.29829 c -1.63077,2.77842 -3.1356,5.62869 -4.63612,8.47884 -2.0685,3.9375 -4.03054,7.92793 -5.90918,11.95905 -1.16692,2.00096 -1.89655,5.24503 -3.54332,6.91558 -0.31646,0.32102 -0.71207,0.55295 -1.0681,0.82942 -0.65411,0.0832 -1.31648,0.38251 -1.96234,0.24964 -2.44696,-0.5034 -3.92336,-4.94172 -4.81292,-6.91621 -1.74749,-4.01726 -3.79388,-7.88824 -6.04995,-11.64023 -1.50045,-2.41768 -3.14109,-4.76028 -5.16674,-6.76745 -1.31987,-1.17372 -2.50762,-1.87234 -1.34986,-4.16947 0.25947,-0.51483 0.99724,-0.57881 1.49586,-0.86822 2.14786,-0.1892 4.29505,-0.38184 6.43852,-0.63135 4.58785,-0.58666 9.17525,-1.17233 13.78838,-1.51774 3.66087,-0.24629 7.26759,0.49522 10.72064,1.64807 0,0 -0.007,0.11156 -0.007,0.11156 v 0 c -3.44586,0.71015 -6.80209,1.87035 -10.30674,2.27938 -4.55446,0.57983 -9.11056,1.14553 -13.6546,1.80416 -1.97214,0.2631 -3.9535,0.55504 -5.93873,0.672 0.33448,-0.25029 0.86543,-0.35657 1.00344,-0.75087 0.43908,-1.25442 0.60026,-2.05198 -0.19924,-2.69408 -0.063,-0.0506 0.0994,0.12767 0.15517,0.18609 0.31533,0.33031 0.6646,0.62744 0.95934,0.978 2.11928,2.34088 3.95269,4.91197 5.57153,7.62306 2.30676,3.88537 4.40526,7.88249 6.29415,11.98858 0.64975,1.34892 1.2874,2.69313 2.02038,3.9987 0.0762,0.13571 0.34492,0.3031 0.22896,0.4069 -0.39237,0.35123 -1.33952,-0.94145 -1.54838,0.31354 -0.19518,0.76431 0.6789,-0.79041 0.87459,-1.15291 0.82275,-1.52407 1.50133,-3.12319 2.25312,-4.68176 1.93188,-4.08636 3.92618,-8.14457 6.08181,-12.11843 1.59314,-2.92469 3.17624,-5.86475 5.04998,-8.62272 0,0 3.21735,2.08887 3.21735,2.08887 z"
       inkscape:connector-curvature="0" />
    <path
       style="opacity:1;fill:#ff0000;fill-opacity:1;stroke:none;stroke-width:0.2;stroke-linejoin:miter;stroke-miterlimit:4;stroke-dasharray:none;stroke-opacity:1"
       id="path5113"
       d="m 150.52139,115.62888 c 0.87521,2.78215 1.94939,5.49123 3.08755,8.17437 1.73149,3.96641 3.91756,7.70746 6.13443,11.41637 1.59018,2.58548 2.31356,5.55606 3.33084,8.38383 0,0 -0.0846,0.0731 -0.0846,0.0731 v 0 c -2.7074,-1.51923 -4.99663,-3.757 -6.78186,-6.28008 -2.42466,-3.82847 -4.70696,-7.75244 -6.53833,-11.90527 -1.22974,-2.84333 -2.37913,-5.72886 -3.16589,-8.73106 0,0 4.01785,-1.13124 4.01785,-1.13124 z"
       inkscape:connector-curvature="0" />
    <path
       style="opacity:1;fill:#ff0000;fill-opacity:1;stroke:none;stroke-width:0.2;stroke-linejoin:miter;stroke-miterlimit:4;stroke-dasharray:none;stroke-opacity:1"
       id="path5115"
       d="m 186.29409,101.79761 c 2.30442,-0.89521 4.68249,-1.44761 7.15697,-1.39478 2.24466,0.27436 3.97188,1.75805 3.84919,4.15919 -0.0219,0.42945 -0.1615,0.84473 -0.24225,1.26709 -0.86771,2.4156 -2.68482,4.25742 -4.42068,6.07757 -0.58172,0.62872 -1.21879,1.24075 -1.64862,1.99231 -0.14029,0.24529 -0.20659,0.76779 0.0545,0.0592 -0.0227,-0.8553 -0.68433,-0.97812 0.31829,-0.81691 1.50989,0.24277 -0.14786,-0.0611 1.65117,0.28417 2.01805,0.7611 4.05341,1.48722 6.10436,2.15595 0,0 -0.006,0.11163 -0.006,0.11163 v 0 c -2.13966,0.46768 -4.20321,1.20033 -6.29465,1.84524 -1.93301,0.12527 -4.41322,0.0782 -5.67782,-1.69863 -0.28584,-0.40163 -0.39621,-0.90281 -0.59432,-1.35422 0.006,-0.44134 -0.0512,-0.88831 0.0194,-1.32402 0.29168,-1.80074 1.89905,-3.05862 3.09191,-4.27083 1.32888,-1.23393 2.76571,-2.44011 3.64873,-4.0527 0.30297,-0.51812 1.05944,-0.36151 -0.006,-0.72425 -1.91219,-0.14431 -3.78352,0.43606 -5.52923,1.17747 0,0 -1.47468,-3.49352 -1.47468,-3.49352 z"
       inkscape:connector-curvature="0" />
    <path
       style="opacity:1;fill:#ff0000;fill-opacity:1;stroke:none;stroke-width:0.2;stroke-linejoin:miter;stroke-miterlimit:4;stroke-dasharray:none;stroke-opacity:1"
       id="path5117"
       d="m 220.57028,123.28597 c 0.004,2.9683 0.01,5.93672 -0.0159,8.90505 -0.10202,1.54899 0.0527,3.1393 -0.23073,4.67618 -0.2104,1.141 -0.692,2.26653 -1.11995,3.33955 -0.37164,0.78774 -0.22694,0.42998 -0.4586,1.06302 0,0 -0.10552,0.0369 -0.10552,0.0369 v 0 c -0.62297,-0.53685 -0.30924,-0.20919 -0.89287,-1.0271 -0.52117,-1.08453 -1.03778,-2.22822 -1.25761,-3.42162 -0.28293,-1.53599 -0.10762,-3.12786 -0.2073,-4.6754 -0.014,-2.95628 -0.0151,-5.91277 -0.0491,-8.86881 0,0 4.33759,-0.0278 4.33759,-0.0278 z"
       inkscape:connector-curvature="0" />
    <path
       style="opacity:1;fill:#ff0000;fill-opacity:1;stroke:none;stroke-width:0.2;stroke-linejoin:miter;stroke-miterlimit:4;stroke-dasharray:none;stroke-opacity:1"
       id="path5119"
       d="m 228.96637,130.95446 c -3.20007,1.14664 -6.55002,1.77301 -9.89867,2.29733 -2.34711,0.23201 -4.72451,0.78937 -7.097,0.55497 -0.67017,-0.0662 -2.10273,-0.40679 -2.78876,-0.56074 -0.86837,-0.1965 -1.65159,-0.60091 -2.49918,-0.85444 0,0 -0.008,-0.11147 -0.008,-0.11147 v 0 c 0.79418,-0.37532 1.49775,-0.89236 2.31024,-1.23727 0.55877,-0.23829 2.05921,-0.893 2.60086,-1.0589 2.21202,-0.67753 4.56918,-0.63787 6.83098,-1.04194 3.11521,-0.4527 6.22589,-0.96587 9.25367,-1.84763 0,0 1.29621,3.86009 1.29621,3.86009 z"
       inkscape:connector-curvature="0" />
    <path
       style="opacity:1;fill:#ff0000;fill-opacity:1;stroke:none;stroke-width:0.2;stroke-linejoin:miter;stroke-miterlimit:4;stroke-dasharray:none;stroke-opacity:1"
       id="path5121"
       d="m 245.3993,113.32009 c 0.49508,3.40284 1.1414,6.78058 1.77703,10.15915 0.86664,4.40273 1.78332,8.79558 3.00657,13.11446 0.27882,0.80314 0.51027,1.6465 0.9569,2.38255 0.081,0.13352 0.22819,0.46148 0.32418,0.33828 0.39908,-0.51216 -1.24937,-0.77936 -1.71493,-0.89179 2.28802,-3.82443 3.93936,-7.99807 5.67618,-12.09168 2.3533,-5.09479 3.82713,-10.63444 6.81479,-15.41308 0.65432,-0.75746 1.19682,-2.22709 2.30149,-2.5085 0,0 0.10622,-0.0348 0.10622,-0.0348 v 0 c 1.02148,0.83131 0.49421,2.51671 0.45138,3.61615 -0.11068,0.67806 -0.17105,1.36627 -0.33208,2.03417 -0.38212,1.58494 -1.15435,3.52709 -1.72909,5.0236 -1.1532,3.00273 -2.36975,5.9805 -3.572,8.96374 -1.90186,4.66124 -3.60444,9.52245 -6.43488,13.71457 -0.54743,0.41544 -0.98577,1.04325 -1.6423,1.24631 -3.60267,1.11426 -4.75406,-2.68381 -5.44099,-5.26628 -1.08687,-4.45811 -1.96863,-8.96306 -2.82071,-13.47122 -0.64937,-3.50057 -1.33302,-7.00701 -1.63848,-10.55811 0,0 3.91072,-0.35749 3.91072,-0.35749 z"
       inkscape:connector-curvature="0" />
    <path
       style="opacity:1;fill:#ff0000;fill-opacity:1;stroke:none;stroke-width:0.2;stroke-linejoin:miter;stroke-miterlimit:4;stroke-dasharray:none;stroke-opacity:1"
       id="path5123"
       d="m 261.3311,105.40864 c -1.80607,-2.29572 -3.37915,-4.75608 -4.85783,-7.27106 -0.91416,-1.061324 -1.36007,-3.268046 -2.21275,-4.311002 -0.0651,-0.07956 0.0908,0.184396 0.13616,0.276595 1.17988,-0.09803 2.35717,-0.353517 3.53962,-0.294079 0.15847,0.008 -0.0612,0.311399 -0.0897,0.467495 -0.056,0.307316 -0.1061,0.615725 -0.16391,0.922716 -0.27276,1.448332 -0.63414,2.866604 -1.00393,4.29278 -0.9724,3.402575 -2.39931,6.639445 -4.17528,9.693345 -0.64167,1.13888 -1.6297,1.92874 -2.67863,2.66758 -0.54995,0.38737 -1.16205,0.62743 -1.65309,1.0832 0,0 -0.10879,-0.0257 -0.10879,-0.0257 v 0 c -0.43485,-1.90037 -0.008,-3.9263 0.77099,-5.68019 1.38977,-2.8816 2.83928,-5.7545 3.68818,-8.855249 0.4566,-1.635434 0.78848,-3.265104 1.09994,-4.932034 0.0608,-0.325475 -0.096,-0.815713 0.19476,-0.974043 1.18048,-0.642723 2.56139,-0.815908 3.84209,-1.223862 1.04183,1.474846 1.47222,3.283104 2.42449,4.820047 1.33795,2.39318 2.82474,4.700121 4.45583,6.904941 0,0 -3.20817,2.43854 -3.20817,2.43854 z"
       inkscape:connector-curvature="0" />
    <path
       style="opacity:1;fill:#000000;fill-opacity:1;stroke:none;stroke-width:0.2;stroke-linejoin:miter;stroke-miterlimit:4;stroke-dasharray:none;stroke-opacity:1"
       id="path5125"
       d="m 267.67869,75.947719 c 2.79588,4.534974 5.05341,9.405358 6.76479,14.450536 0.5747,1.694257 1.05084,3.42037 1.57625,5.130557 2.08315,8.236008 3.39098,16.807338 2.78106,25.329688 -0.41396,5.78421 -1.10341,7.38969 -2.55354,12.9326 -1.66749,5.84046 -4.96729,10.79596 -8.3066,15.76587 0,0 -0.0947,-0.0594 -0.0947,-0.0594 v 0 c 0.94269,-1.61747 2.03034,-3.15874 2.82803,-4.85241 1.95924,-4.15976 2.34706,-6.81701 3.41252,-11.27217 0.2541,-2.05336 0.59359,-4.09794 0.76234,-6.16006 0.83714,-10.2308 0.004,-20.56831 -2.75833,-30.461638 -0.5125,-1.62574 -0.97973,-3.266456 -1.5375,-4.877223 -1.68164,-4.856284 -3.93197,-9.473189 -6.34066,-14.002639 0,0 3.46636,-1.923751 3.46636,-1.923751 z"
       inkscape:connector-curvature="0" />
    <path
       style="opacity:1;fill:#000000;fill-opacity:1;stroke:none;stroke-width:0.2;stroke-linejoin:miter;stroke-miterlimit:4;stroke-dasharray:none;stroke-opacity:1"
       id="path5127"
       d="m 45.639754,85.362562 c -3.259225,4.561555 -5.478841,9.695363 -7.540199,14.875218 -3.133056,8.77941 -4.902671,18.01126 -5.234106,27.3293 -0.07446,2.09348 -0.0096,4.1896 -0.01439,6.2844 0.466492,9.71368 1.133094,19.57165 4.792676,28.70027 0.608613,1.51816 1.390753,2.96084 2.086131,4.44127 0,0 -0.09704,0.0555 -0.09704,0.0555 v 0 c -0.939197,-1.37882 -1.957305,-2.70708 -2.81759,-4.13646 -3.981773,-6.61583 -6.853616,-14.86802 -7.970763,-22.49882 -0.318003,-2.17215 -0.352952,-4.3764 -0.529429,-6.56461 -0.0021,-2.20039 -0.08241,-4.40211 -0.0062,-6.60118 0.338958,-9.78362 2.207186,-19.4959 5.514181,-28.70533 2.207268,-5.586071 4.563621,-11.239753 8.416079,-15.924812 0,0 3.400689,2.745284 3.400689,2.745284 z"
       inkscape:connector-curvature="0" />
    <path
       style="opacity:1;fill:#000000;fill-opacity:1;stroke:none;stroke-width:0.2;stroke-linejoin:miter;stroke-miterlimit:4;stroke-dasharray:none;stroke-opacity:1"
       id="path5129"
       d="m 288.93135,105.31208 c 0.45913,4.63369 0.69791,9.28709 0.94747,13.93594 0.21651,5.59942 0.76536,11.19702 0.63645,16.80342 -0.21492,1.62272 -0.36954,3.2639 -0.77313,4.85517 -0.29443,1.16084 -0.36693,0.53025 -0.15661,1.36223 0,0 -0.10724,0.0316 -0.10724,0.0316 v 0 c -0.35663,-1.06115 0.11502,0.19347 -0.71707,-1.27338 -0.82786,-1.45937 -1.24177,-3.11373 -1.76141,-4.69288 -1.01931,-5.54765 -1.08143,-11.20811 -1.50969,-16.82161 -0.30673,-4.58382 -0.61558,-9.16766 -1.0569,-13.74092 0,0 4.49813,-0.45957 4.49813,-0.45957 z"
       inkscape:connector-curvature="0" />
    <path
       style="opacity:1;fill:#0000ff;fill-opacity:1;stroke:none;stroke-width:0.2;stroke-linejoin:miter;stroke-miterlimit:4;stroke-dasharray:none;stroke-opacity:1"
       id="path5131"
       d="m 298.49453,113.13119 c -0.0427,2.21847 0.14462,4.4243 0.65838,6.58254 0.43784,1.75744 1.43116,3.07159 2.91606,4.05911 1.49992,0.84521 3.11602,0.98102 4.75366,0.53646 1.59184,-0.57106 2.28073,-1.82568 2.78482,-3.34025 0.54705,-2.17633 0.94827,-4.00812 0.93763,-6.27201 -0.0975,-0.30107 -0.19492,-0.60214 -0.29239,-0.9032 0,0 0.0984,-0.053 0.0984,-0.053 v 0 c 0.20434,0.25934 0.40865,0.51868 0.61299,0.77801 2.17911,2.28073 3.51443,4.51246 2.89605,7.77478 -1.04331,3.47551 -2.53397,5.23513 -5.9975,6.48793 -3.07117,0.65261 -5.73227,0.42622 -8.46365,-1.24285 -2.36606,-1.73595 -4.02746,-3.93883 -4.69931,-6.84553 -0.518,-2.51255 -0.71552,-5.0564 -0.61294,-7.6227 0,0 4.40778,0.0607 4.40778,0.0607 z"
       inkscape:connector-curvature="0" />
    <path
       style="opacity:1;fill:#0000ff;fill-opacity:1;stroke:none;stroke-width:0.2;stroke-linejoin:miter;stroke-miterlimit:4;stroke-dasharray:none;stroke-opacity:1"
       id="path5133"
       d="m 307.34558,110.91725 c 0.51594,3.21821 0.78142,6.4694 1.0832,9.71269 0.37137,4.52119 0.678,9.04808 0.73605,13.58494 0.11028,2.65634 -0.55375,5.13205 -1.79367,7.44398 0,0 -0.11162,-0.006 -0.11162,-0.006 v 0 c -0.98245,-2.32893 -1.95393,-4.65026 -2.01076,-7.23911 -0.3992,-4.45322 -0.67971,-8.91716 -1.15816,-13.36325 -0.31684,-3.13772 -0.6495,-6.27604 -1.11633,-9.39549 0,0 4.37129,-0.73794 4.37129,-0.73794 z"
       inkscape:connector-curvature="0" />
    <path
       style="opacity:1;fill:#000000;fill-opacity:1;stroke:none;stroke-width:0.2;stroke-linejoin:miter;stroke-miterlimit:4;stroke-dasharray:none;stroke-opacity:1"
       id="path5135"
       d="m 320.02706,107.24485 c 1.63465,1.42186 3.5565,2.41813 5.54704,3.23657 1.39954,0.64901 3.08205,0.84315 4.30453,1.84957 0.29298,0.24118 0.53171,0.54153 0.79759,0.8123 0.18944,0.39381 0.44947,0.7609 0.56832,1.18144 0.63956,2.26291 -0.74996,4.7033 -1.68756,6.66104 -1.69495,3.2996 -3.34343,6.61722 -4.76229,10.04577 -0.87492,2.67223 -2.36469,5.0404 -3.91697,7.36051 -0.0283,0.17879 -0.0567,0.35758 -0.085,0.53637 0,0 -0.1117,0.004 -0.1117,0.004 v 0 c -0.043,-0.19252 -0.0861,-0.38504 -0.12907,-0.57756 -0.98568,-2.92842 -0.70789,-6.00668 0.40529,-8.86724 1.38314,-3.53277 3.02964,-6.94015 4.77756,-10.30635 0.38266,-0.82441 0.69183,-1.45447 1.02121,-2.28626 0.14647,-0.36993 0.19044,-0.78336 0.38774,-1.12886 0.0498,-0.0872 0.30914,0.0519 0.2925,0.0719 0.46733,-0.33449 -3.22638,-1.38599 -3.45543,-1.54832 -2.37818,-1.00905 -4.65783,-2.23056 -6.67443,-3.86282 0,0 2.72071,-3.18246 2.72071,-3.18246 z"
       inkscape:connector-curvature="0" />
    <path
       style="opacity:1;fill:#000000;fill-opacity:1;stroke:none;stroke-width:0.2;stroke-linejoin:miter;stroke-miterlimit:4;stroke-dasharray:none;stroke-opacity:1"
       id="path5137"
       d="m 351.5755,122.58764 c -2.72868,-0.21726 -5.4578,-0.41996 -8.19187,-0.55544 -1.38811,-0.1345 -2.81445,0.0314 -4.19576,-0.19955 -0.93835,-0.15688 -1.87987,-0.52986 -2.7708,-0.85607 -0.58671,-0.28454 -0.32433,-0.23987 -0.75428,-0.26197 0,0 -0.061,-0.0937 -0.061,-0.0937 v 0 c 0.29906,-0.47352 0.11229,-0.19591 0.58354,-0.81674 2.31696,-1.84382 4.43897,-2.03893 7.34679,-1.938 2.79594,0.0627 5.58806,0.21827 8.37346,0.4722 0,0 -0.33012,4.24925 -0.33012,4.24925 z"
       inkscape:connector-curvature="0" />
    <path
       style="opacity:1;fill:#000000;fill-opacity:1;stroke:none;stroke-width:0.2;stroke-linejoin:miter;stroke-miterlimit:4;stroke-dasharray:none;stroke-opacity:1"
       id="path5139"
       d="m 351.41408,129.62335 c -2.12072,-0.18363 -4.24921,-0.20072 -6.36964,-0.0232 -1.39938,-0.0156 -2.76666,0.56544 -4.15758,0.58517 -0.51543,0.007 -1.41777,-0.19812 -1.92148,-0.29794 -0.79267,-0.15613 -1.53083,-0.44537 -2.25521,-0.79105 0,0 -0.0127,-0.11108 -0.0127,-0.11108 v 0 c 0.56595,-0.50731 1.10342,-1.04321 1.67633,-1.54303 0.46103,-0.35984 1.11651,-0.91429 1.6543,-1.15245 1.45788,-0.64562 3.17363,-0.63469 4.7134,-0.91115 2.37386,-0.14593 4.75022,-0.16003 7.11096,0.18221 0,0 -0.43846,4.06253 -0.43846,4.06253 z"
       inkscape:connector-curvature="0" />
    <path
       style="opacity:1;fill:#008000;fill-opacity:1;stroke:none;stroke-width:0.2;stroke-linejoin:miter;stroke-miterlimit:4;stroke-dasharray:none;stroke-opacity:1"
       id="path5141"
       d="m 373.44781,108.41874 c 0.11319,3.44233 -0.0309,6.88597 -0.18661,10.32445 -0.21146,4.31931 -0.43982,8.63696 -0.56375,12.95986 -0.0193,2.71467 -0.16677,5.44324 0.17328,8.1441 -0.17688,0.55146 0.76096,1.55019 0.25386,0.74726 1.20492,-0.11711 2.40917,-0.39482 3.59193,-0.67435 2.83946,-0.73599 5.65613,-1.55267 8.4994,-2.27556 1.53421,-0.29142 3.05083,-0.83782 4.61068,-0.99893 1.31495,-0.13582 2.6657,0.0829 3.97304,0.2027 1.34929,0.1228 0.69522,0.063 1.96231,0.17924 0,0 0.0478,0.10105 0.0478,0.10105 v 0 c -0.84283,1.11294 -0.36219,0.58156 -1.45955,1.57797 -1.09961,0.81554 -2.20676,1.66665 -3.49512,2.17225 -1.43515,0.56321 -3.00733,0.75383 -4.46518,1.2442 -2.86161,0.77347 -5.70434,1.61305 -8.55967,2.40908 -2.09735,0.51595 -4.26823,1.10875 -6.41628,0.53754 -2.34286,-1.08349 -2.89428,-2.33757 -3.1795,-4.81885 -0.16195,-2.90318 -0.0615,-5.8094 0.0947,-8.71135 0.19965,-4.32682 0.42841,-8.65229 0.64693,-12.97818 0.13147,-3.32084 0.25109,-6.64537 0.11311,-9.96833 0,0 4.35864,-0.17415 4.35864,-0.17415 z"
       inkscape:connector-curvature="0" />
    <path
       style="opacity:1;fill:#008000;fill-opacity:1;stroke:none;stroke-width:0.2;stroke-linejoin:miter;stroke-miterlimit:4;stroke-dasharray:none;stroke-opacity:1"
       id="path5143"
       d="m 390.7805,124.60795 c -2.85353,-0.13108 -5.71098,-0.13761 -8.56646,-0.20104 -2.95381,0.15547 -5.73331,-0.67787 -8.40431,-1.85846 -0.25072,-0.11444 -0.50144,-0.22888 -0.75216,-0.34332 0,0 -0.003,-0.11178 -0.003,-0.11178 v 0 c 0.24826,-0.12111 0.49652,-0.24222 0.74477,-0.36334 2.67203,-1.24397 5.47193,-2.06623 8.45122,-1.87264 2.93616,-0.0157 5.87401,0.0129 8.80663,0.16944 0,0 -0.27821,4.58114 -0.27821,4.58114 z"
       inkscape:connector-curvature="0" />
    <path
       style="opacity:1;fill:#008000;fill-opacity:1;stroke:none;stroke-width:0.2;stroke-linejoin:miter;stroke-miterlimit:4;stroke-dasharray:none;stroke-opacity:1"
       id="path5145"
       d="m 387.3093,109.00845 c -2.75878,-0.0693 -5.50029,0.26724 -8.21227,0.73852 -1.92788,0.16969 -3.74584,1.09557 -5.65525,1.32413 -0.10753,0.0129 -2.2479,-0.0194 -2.41721,-0.0217 -0.88294,0.01 -1.74085,-0.13848 -2.59445,-0.34123 0,0 -0.0431,-0.10313 -0.0431,-0.10313 v 0 c 0.46619,-0.76977 0.97308,-1.4993 1.65301,-2.10339 0.46127,-0.40666 1.53238,-1.38895 2.04679,-1.67528 1.8873,-1.05047 4.22222,-1.19872 6.27324,-1.70874 3.06311,-0.44742 6.15617,-0.80148 9.256,-0.55098 0,0 -0.30676,4.44181 -0.30676,4.44181 z"
       inkscape:connector-curvature="0" />
    <path
       style="opacity:1;fill:#000000;fill-opacity:1;stroke:none;stroke-width:0.2;stroke-linejoin:miter;stroke-miterlimit:4;stroke-dasharray:none;stroke-opacity:1"
       id="path5147"
       d="m 407.65645,106.99962 c -0.17836,4.11201 -0.30343,8.22611 -0.4336,12.33989 -0.17518,6.41908 -0.22786,12.84016 -0.46083,19.25751 -0.27887,2.77791 -1.06362,5.45596 -1.64017,8.1727 0,0 -0.10949,0.0226 -0.10949,0.0226 v 0 c -1.57371,-2.43405 -1.77908,-5.43699 -2.2611,-8.22374 -0.14198,-6.44794 -0.0557,-12.89646 0.0937,-19.34387 0.0873,-4.192 0.14764,-8.39202 0.50678,-12.57137 0,0 4.30467,0.34628 4.30467,0.34628 z"
       inkscape:connector-curvature="0" />
    <path
       style="opacity:1;fill:#0000ff;fill-opacity:1;stroke:none;stroke-width:0.2;stroke-linejoin:miter;stroke-miterlimit:4;stroke-dasharray:none;stroke-opacity:1"
       id="path5149"
       d="m 417.29347,116.04337 c -0.0161,2.41315 -0.0985,4.82258 0.0714,7.23186 0.16645,1.8041 0.51356,3.66571 2.08918,4.73963 1.75662,0.75501 3.60905,0.33426 5.34535,-0.24698 2.15341,-0.85904 3.02273,-2.27091 4.01105,-4.23058 0.74679,-1.40295 1.36412,-3.1507 1.1629,-4.77923 -0.0492,-0.39806 -0.2413,-0.765 -0.36198,-1.1475 0,0 0.1033,-0.0427 0.1033,-0.0427 v 0 c 1.2079,2.33831 2.67605,4.15499 2.71986,6.96542 -0.0886,0.5717 -0.10107,1.16053 -0.26585,1.71509 -0.84582,2.84672 -3.32999,4.75165 -5.94567,5.85474 -3.25244,1.05446 -6.60823,1.42757 -9.63702,-0.49684 -0.40854,-0.34559 -0.85696,-0.64891 -1.22563,-1.03674 -1.80448,-1.89828 -2.31997,-4.54812 -2.55177,-7.0573 -0.0933,-2.59339 -0.0548,-5.19227 0.32025,-7.76559 0,0 4.16459,0.29677 4.16459,0.29677 z"
       inkscape:connector-curvature="0" />
    <path
       style="opacity:1;fill:#0000ff;fill-opacity:1;stroke:none;stroke-width:0.2;stroke-linejoin:miter;stroke-miterlimit:4;stroke-dasharray:none;stroke-opacity:1"
       id="path5151"
       d="m 426.79712,116.40795 c 0.21685,4.05724 0.35515,8.11825 0.49879,12.17861 0.0257,2.49806 0.23141,5.01174 0.0204,7.50846 -0.15785,1.86839 -0.54007,3.75123 -0.90469,5.58889 -0.35034,1.42527 -0.30607,0.77017 -0.25316,1.95344 0,0 -0.10948,0.0226 -0.10948,0.0226 v 0 c -0.42836,-1.15343 -0.16418,-0.51945 -0.83227,-1.88492 -0.6377,-1.78467 -1.25302,-3.62777 -1.61031,-5.49308 -0.47374,-2.47324 -0.4894,-5.01022 -0.66075,-7.51267 -0.1965,-4.04268 -0.37584,-8.08617 -0.53935,-12.13027 0,0 4.39076,-0.23103 4.39076,-0.23103 z"
       inkscape:connector-curvature="0" />
    <path
       style="opacity:1;fill:#000000;fill-opacity:1;stroke:none;stroke-width:0.2;stroke-linejoin:miter;stroke-miterlimit:4;stroke-dasharray:none;stroke-opacity:1"
       id="path5153"
       d="m 439.4563,111.405 c 1.92685,1.49507 4.09667,2.61165 6.30838,3.6153 1.54508,0.77725 3.73562,1.17776 4.70984,2.78209 0.26649,0.43886 0.37235,0.95699 0.55851,1.43549 -0.0198,0.52617 0.033,1.06018 -0.0597,1.57851 -0.39989,2.23776 -3.04162,6.02379 -4.23307,8.01717 -2.20779,3.23831 -3.62453,6.96242 -5.72945,10.25479 -0.3621,0.56637 -0.79763,1.08227 -1.19647,1.62341 -1.02812,1.53944 -2.30343,2.88755 -3.38029,4.38673 0,0 -0.10483,-0.0388 -0.10483,-0.0388 v 0 c 0.16693,-1.88675 0.15188,-3.79207 0.64739,-5.64034 0.15928,-0.68433 0.25929,-1.38522 0.47789,-2.05298 1.25579,-3.83628 3.75533,-7.18307 5.60871,-10.7265 0.96931,-1.62778 1.95842,-3.24956 2.85944,-4.9169 0.26556,-0.49141 0.38182,-1.07675 0.74538,-1.50079 0.0347,-0.0405 0.10057,0.0356 0.15084,0.0534 0.096,0.0848 0.42346,0.26631 0.34808,0.16274 -0.60412,-0.83026 -2.36492,-1.01158 -3.16277,-1.58 -2.47028,-1.14403 -4.87969,-2.41682 -7.10367,-3.99718 0,0 2.55575,-3.45613 2.55575,-3.45613 z"
       inkscape:connector-curvature="0" />
    <path
       style="opacity:1;fill:#ffff00;fill-opacity:1;stroke:none;stroke-width:0.2;stroke-linejoin:miter;stroke-miterlimit:4;stroke-dasharray:none;stroke-opacity:1"
       id="path5155"
       d="m 190.13413,227.54942 c -1.67092,-0.24605 -2.96663,0.74683 -4.06073,1.88182 -1.41806,1.76118 -2.0565,3.89218 -1.60753,6.11163 0.49764,1.45319 1.42806,1.71631 2.80959,1.43817 2.32873,-0.80084 3.67454,-2.76104 4.61272,-4.92548 0.49592,-1.11816 0.37139,-2.28754 0.44561,-3.45988 0.083,-1.31103 0.18142,-1.83894 -0.0826,-3.16547 -0.51371,-1.25266 -0.18527,-0.66698 -0.98473,-1.75737 0,0 0.0547,-0.0975 0.0547,-0.0975 v 0 c 1.66554,0.27527 0.84154,0.0261 2.45978,0.78676 0.39737,0.32518 0.83478,0.60681 1.1921,0.97555 2.58233,2.66476 2.31195,5.40678 1.2403,8.69647 -1.89535,4.00399 -4.01414,6.55426 -8.448,7.73947 -0.6342,0.0431 -1.26843,0.17272 -1.90261,0.12934 -3.29695,-0.22551 -5.44141,-2.69219 -6.16821,-5.74448 -0.0544,-0.59192 -0.15812,-1.18137 -0.16307,-1.77576 -0.0261,-3.13406 1.33537,-6.01772 3.37721,-8.32924 2.71112,-2.39758 4.9138,-3.53342 8.58757,-2.6783 0,0 -1.36211,4.17423 -1.36211,4.17423 z"
       inkscape:connector-curvature="0" />
    <path
       style="opacity:1;fill:#ffff00;fill-opacity:1;stroke:none;stroke-width:0.2;stroke-linejoin:miter;stroke-miterlimit:4;stroke-dasharray:none;stroke-opacity:1"
       id="path5157"
       d="m 198.47615,230.3657 c 2.94425,-0.54477 5.90665,-0.97658 8.88021,-1.32346 4.96366,-0.5696 9.9616,-0.72928 14.95155,-0.88821 5.85623,-0.14481 11.70866,-0.39691 17.56304,-0.59876 4.44833,-0.18148 8.9213,0.30494 13.18768,1.58384 0.40987,0.0419 0.81975,0.0839 1.22964,0.1258 0,0 -0.0108,0.11126 -0.0108,0.11126 v 0 c -0.4075,-0.0375 -0.81501,-0.0749 -1.22251,-0.11235 -4.27743,1.03965 -8.5686,2.15079 -12.98828,2.3449 -5.86715,0.36405 -11.73912,0.61464 -17.61514,0.78733 -4.86639,0.17465 -9.73687,0.36794 -14.57808,0.92162 -2.94047,0.36868 -5.87262,0.79098 -8.81007,1.1814 0,0 -0.58723,-4.13337 -0.58723,-4.13337 z"
       inkscape:connector-curvature="0" />
    <path
       style="opacity:1;fill:#ffff00;fill-opacity:1;stroke:none;stroke-width:0.2;stroke-linejoin:miter;stroke-miterlimit:4;stroke-dasharray:none;stroke-opacity:1"
       id="path5159"
       d="m 255.80993,234.01238 c -1.92883,0.58682 -3.88509,1.06531 -5.85334,1.49847 -2.28713,0.48492 -1.36386,0.98715 -1.07997,-3.97014 0.005,-0.0855 0.17019,-0.0195 0.25472,-0.0331 0.14324,-0.0231 0.28559,-0.0514 0.42839,-0.0771 0.32999,-0.0813 2.18831,-0.53053 1.95816,-1.10102 -0.0922,-0.0468 -0.16288,0.0956 -0.24599,0.0747 -0.11599,-0.0292 -1.38735,-1.64876 -1.4799,-1.7512 -1.81851,-1.75003 -3.12835,-3.66623 -5.04925,-5.34336 -0.31,-0.20618 -0.62,-0.41236 -0.92999,-0.61854 0,0 0.0285,-0.10809 0.0285,-0.10809 v 0 c 0.397,-0.0197 0.79399,-0.0393 1.19098,-0.059 3.2481,0.0953 5.80926,0.68669 8.14296,3.09651 1.8327,2.05574 3.40069,4.39 2.02912,7.16562 -1.32421,1.67903 -2.83506,2.50888 -4.93264,2.92287 -0.0425,0.007 -1.65861,0.29581 -1.70777,0.17798 -1.89873,-4.55039 -1.88293,-4.18544 0.56737,-4.57318 1.82085,-0.31263 3.63819,-0.68602 5.39373,-1.26989 0,0 1.28491,3.96842 1.28491,3.96842 z"
       inkscape:connector-curvature="0" />
    <path
       style="opacity:1;fill:#ffff00;fill-opacity:1;stroke:none;stroke-width:0.2;stroke-linejoin:miter;stroke-miterlimit:4;stroke-dasharray:none;stroke-opacity:1"
       id="path5161"
       d="m 373.26051,212.76941 c -1.55067,-0.46561 -2.90465,-0.10102 -4.03363,1.0177 -0.68431,0.94487 -1.08897,2.2787 -0.1846,3.20534 1.04064,0.39325 2.0615,-0.71225 2.716,-1.36209 1.66476,-2.02721 1.96059,-4.6588 2.47219,-7.13978 0.004,-0.87933 0.29287,-2.09767 -0.17423,-2.93144 -0.1152,-0.2056 -0.35912,-0.30528 -0.53866,-0.45792 0,0 0.0652,-0.0908 0.0652,-0.0908 v 0 c 1.50265,0.91722 2.54524,1.38576 3.32703,3.14432 0.1982,0.53905 0.47149,1.05616 0.59463,1.61715 0.71818,3.27262 -0.83704,6.53377 -2.81514,9.02707 -0.48353,0.43142 -0.92065,0.92132 -1.45061,1.29424 -2.04832,1.44133 -4.768,1.85487 -6.89755,0.3183 -0.46117,-0.33276 -0.79608,-0.81237 -1.19412,-1.21855 -0.24379,-0.4975 -0.56216,-0.96494 -0.73133,-1.49249 -0.86442,-2.69536 0.3652,-5.38375 2.32177,-7.21112 0.44042,-0.29346 0.85055,-0.63853 1.3213,-0.88039 2.13278,-1.09581 4.59394,-0.92265 6.71624,0.0662 0,0 -1.51453,3.09419 -1.51453,3.09419 z"
       inkscape:connector-curvature="0" />
    <path
       style="opacity:1;fill:#ffff00;fill-opacity:1;stroke:none;stroke-width:0.2;stroke-linejoin:miter;stroke-miterlimit:4;stroke-dasharray:none;stroke-opacity:1"
       id="path5163"
       d="m 373.0449,205.80705 c 3.11163,-3.0562 5.84343,-6.47513 8.62211,-9.82973 3.88498,-4.7961 7.81563,-9.55114 12.05309,-14.04117 1.80155,-1.86355 3.97404,-3.45713 6.39652,-4.42754 2.39982,-0.96136 0.013,0.18784 1.66412,-0.63516 0,0 0.0638,0.0918 0.0638,0.0918 v 0 c -0.7584,0.71591 -1.16223,1.66624 -1.72749,2.54296 -1.10818,1.7188 -2.20512,3.4588 -3.63966,4.9325 -4.01315,4.59563 -7.93782,9.26799 -11.72551,14.05183 -2.84422,3.54367 -5.65238,7.13061 -8.77232,10.43902 0,0 -2.93465,-3.12451 -2.93465,-3.12451 z"
       inkscape:connector-curvature="0" />
    <path
       style="opacity:1;fill:#ffff00;fill-opacity:1;stroke:none;stroke-width:0.2;stroke-linejoin:miter;stroke-miterlimit:4;stroke-dasharray:none;stroke-opacity:1"
       id="path5165"
       d="m 404.54355,175.22243 c 1.43232,1.91591 2.06901,4.1904 2.41771,6.5194 0.0346,0.32463 0.0753,0.64866 0.10371,0.97388 0.0225,0.25658 0.0291,0.51432 0.0486,0.77113 0.0124,0.16419 0.0251,0.32856 0.0475,0.49171 0.006,0.0445 0.0821,0.13495 0.0374,0.12952 -3.84871,-0.4679 -3.91223,0.6399 -3.62717,-0.96271 0.18118,-1.54189 0.22579,-3.10372 -0.28043,-4.58629 -0.49753,-0.91179 -1.55382,-0.77117 -2.47071,-0.81225 -0.32345,-0.005 -0.65013,0.0314 -0.97036,-0.0144 -0.39293,-0.0562 -0.76771,-0.20272 -1.15504,-0.28956 -1.68796,-0.37846 -3.40825,-0.70855 -5.13032,-0.86018 0,0 -0.0145,-0.11085 -0.0145,-0.11085 v 0 c 1.66923,-0.60436 3.21672,-1.46026 4.85174,-2.15117 0.42786,-0.18079 0.84135,-0.4112 1.2931,-0.51932 0.42698,-0.1022 0.87537,-0.0696 1.31305,-0.10445 2.90398,0.13726 4.98154,0.91181 6.03935,3.83637 0.4745,2.01739 0.53647,4.06114 0.26762,6.11922 -0.21309,1.9049 0.11674,1.04466 -3.91482,0.76616 -0.0188,-0.001 0.0304,-0.85887 0.0196,-1.43174 -0.005,-0.25798 -0.0175,-0.51575 -0.0262,-0.77363 -0.18531,-1.68953 -0.5081,-3.38295 -1.53503,-4.78663 0,0 2.68523,-2.20418 2.68523,-2.20418 z"
       inkscape:connector-curvature="0" />
    <path
       style="opacity:1;fill:#ffff00;fill-opacity:1;stroke:none;stroke-width:0.2;stroke-linejoin:miter;stroke-miterlimit:4;stroke-dasharray:none;stroke-opacity:1"
       id="path5167"
       d="m 382.94103,57.170391 c -1.32106,-1.420289 -2.96413,-2.289596 -4.91241,-2.217949 -2.39514,0.547489 -3.51451,2.598618 -4.29287,4.740574 -0.58639,2.811417 -0.59139,4.864843 1.75869,6.769626 2.39421,1.179648 4.32747,0.480801 6.30243,-1.088649 1.09386,-1.347068 2.21877,-3.0945 2.04689,-4.924525 -0.0378,-0.402413 -0.17975,-0.788128 -0.26963,-1.182191 -0.23834,-0.351835 -0.47668,-0.703667 -0.71501,-1.055502 0,0 0.0805,-0.07757 0.0805,-0.07757 v 0 c 0.37246,0.281934 0.74494,0.563872 1.11742,0.845806 0.36036,0.362771 0.7748,0.678837 1.08108,1.088308 2.15049,2.875222 1.22455,5.84545 -1.03422,8.267145 -0.53007,0.408024 -1.01661,0.879901 -1.5902,1.224071 -2.32884,1.397381 -5.32096,1.753584 -7.86236,0.7201 -0.62331,-0.253471 -1.1684,-0.667729 -1.75258,-1.001593 -0.47564,-0.468083 -1.0142,-0.879824 -1.42687,-1.404245 -2.16299,-2.748732 -2.12145,-6.363268 -1.17305,-9.553876 1.27799,-3.005614 2.86358,-5.690351 6.30012,-6.527522 0.5465,-0.133136 1.11824,-0.123145 1.67736,-0.184719 0.53268,0.07181 1.07688,0.08403 1.59808,0.215442 2.19707,0.553932 3.84421,2.180688 4.98491,4.061331 0,0 -1.91826,1.285938 -1.91826,1.285938 z"
       inkscape:connector-curvature="0" />
    <path
       style="opacity:1;fill:#ffff00;fill-opacity:1;stroke:none;stroke-width:0.2;stroke-linejoin:miter;stroke-miterlimit:4;stroke-dasharray:none;stroke-opacity:1"
       id="path5169"
       d="m 374.87105,60.241129 c -2.92245,-2.585482 -6.22273,-4.686953 -9.48745,-6.804141 -6.19818,-3.864536 -12.60467,-7.37961 -18.98605,-10.92872 -3.17333,-1.844665 -6.42488,-3.576656 -9.46722,-5.638802 -2.54992,-1.728377 -4.96419,-3.67717 -7.36967,-5.597577 -2.47896,-2.046058 -1.22423,-1.146208 -3.73769,-2.736263 0,0 0.0598,-0.09447 0.0598,-0.09447 v 0 c 2.5106,1.588252 1.15755,0.851914 4.08297,2.164754 6.14698,2.733865 12.26288,5.518506 18.07898,8.921691 6.46948,3.552135 12.98707,7.032974 19.22467,10.986368 3.47078,2.227834 6.99688,4.46424 9.98929,7.326294 0,0 -2.3876,2.400863 -2.3876,2.400863 z"
       inkscape:connector-curvature="0" />
    <path
       style="opacity:1;fill:#ffff00;fill-opacity:1;stroke:none;stroke-width:0.2;stroke-linejoin:miter;stroke-miterlimit:4;stroke-dasharray:none;stroke-opacity:1"
       id="path5171"
       d="m 331.03457,24.194515 c -0.0127,0.548022 -0.0346,0.742914 0.0191,1.281564 0.0175,0.173927 0.15439,0.679694 0.13915,0.50557 -0.0317,-0.362052 -0.1768,-0.417776 -0.42352,-0.698604 -0.0607,-0.04642 -0.20352,-0.06595 -0.18204,-0.139272 0.003,-0.0047 0.39217,-0.01829 0.74012,-0.02926 0.83344,-0.02628 1.6663,-0.05701 2.49997,-0.07607 1.88905,-0.0262 3.7765,0.07168 5.62801,0.456805 2.45125,0.699468 3.11663,2.281769 0.91289,4.299346 -0.25472,0.233187 -1.55827,0.320059 -1.89397,0.354461 -2.47703,0.08965 -4.95517,-0.140784 -7.42077,-0.357238 -2.24605,-0.192774 -4.49212,-0.401477 -6.71592,-0.777246 -1.31754,-0.211342 -2.57818,-0.643316 -3.61439,-1.497025 -1.74651,-1.87405 -0.56597,-2.236929 2.44602,-3.540668 0.33991,-0.147136 1.42801,1.293377 1.59692,1.500891 1.16708,1.605604 1.86447,3.47551 2.52775,5.328775 0.69059,2.168664 1.18859,4.398209 1.48413,6.654308 0.21174,1.33091 -0.57251,2.321407 -1.48059,3.173876 0,0 -0.10279,0.0439 -0.10279,0.0439 v 0 c -1.18805,-0.362591 -2.20686,-1.3329 -2.43313,-2.571729 -0.38542,-1.994808 -0.68559,-4.013659 -1.35059,-5.942509 -0.48379,-1.422325 -1.01987,-2.848754 -1.88648,-4.089159 -1.52924,-1.979453 4.33715,-1.891323 1.87759,-3.767439 0.44241,0.427402 1.07762,0.518708 1.65108,0.671942 2.10015,0.39244 4.22121,0.64103 6.34949,0.826204 2.23057,0.194893 4.46792,0.427918 6.71,0.356034 1.27365,-0.08786 -0.42223,0.232743 -0.42315,1.673202 0,1.338083 1.55932,1.844214 0.90707,1.485819 -1.52318,-0.381023 -3.10293,-0.397859 -4.66543,-0.390587 -1.67118,0.05143 -3.39415,0.389967 -5.01065,-0.15431 -0.3166,-0.235105 -0.68172,-0.416091 -0.9498,-0.705316 -0.9893,-1.067409 -0.81933,-2.674204 -0.84638,-4.000111 0,0 3.91031,0.123842 3.91031,0.123842 z"
       inkscape:connector-curvature="0" />
    <path
       style="opacity:1;fill:#ffff00;fill-opacity:1;stroke:none;stroke-width:0.2;stroke-linejoin:miter;stroke-miterlimit:4;stroke-dasharray:none;stroke-opacity:1"
       id="path5173"
       d="m 127.35259,35.707365 c -0.81703,-0.376597 -1.74101,-0.286129 -2.26483,0.484546 -0.12734,0.645027 0.20439,0.266011 0.38463,-0.02444 0.49798,-0.157255 0.86339,-0.458427 1.21114,-0.837151 1.13157,-0.35439 1.56475,-0.635531 0.80416,-1.863754 0,0 0.0577,-0.09574 0.0577,-0.09574 v 0 c 0.64871,0.115119 1.20646,0.147877 1.77705,0.544394 1.00343,0.697316 1.53674,2.040586 1.36187,3.24426 -0.0641,0.441179 -0.30891,0.8364 -0.46336,1.254601 -0.28857,0.334788 -0.53685,0.709054 -0.8657,1.004366 -1.89257,1.699527 -4.46893,1.861783 -6.68491,0.764103 -0.38917,-0.319616 -0.83708,-0.57881 -1.16751,-0.95885 -1.83033,-2.105188 -1.21039,-4.878118 0.57617,-6.735881 0.39738,-0.2822 0.76441,-0.612946 1.19214,-0.846599 2.15712,-1.178361 4.62085,-0.925061 6.70481,0.248081 0,0 -2.62337,3.818058 -2.62337,3.818058 z"
       inkscape:connector-curvature="0" />
    <path
       style="opacity:1;fill:#ffff00;fill-opacity:1;stroke:none;stroke-width:0.2;stroke-linejoin:miter;stroke-miterlimit:4;stroke-dasharray:none;stroke-opacity:1"
       id="path5175"
       d="m 126.20121,38.062035 c -3.48852,1.589664 -7.3082,2.240793 -11.04677,2.960904 -5.38558,0.960758 -10.79708,1.766837 -16.218793,2.492814 -3.911335,0.627682 -7.891182,0.285443 -11.753098,-0.494797 -0.377688,-0.04815 -0.755378,-0.09631 -1.133065,-0.14446 0,0 -0.01003,-0.111331 -0.01003,-0.111331 v 0 c 0.359923,-0.114644 0.719847,-0.229285 1.07977,-0.343929 3.57102,-1.563997 7.279947,-2.911354 11.169986,-3.384042 5.34094,-0.827217 10.68833,-1.617582 16.01412,-2.538659 3.36004,-0.616404 6.75184,-1.22293 9.96249,-2.424492 0,0 1.9354,3.987992 1.9354,3.987992 z"
       inkscape:connector-curvature="0" />
    <path
       style="opacity:1;fill:#ffff00;fill-opacity:1;stroke:none;stroke-width:0.2;stroke-linejoin:miter;stroke-miterlimit:4;stroke-dasharray:none;stroke-opacity:1"
       id="path5177"
       d="m 91.46379,35.212504 c -0.96089,2.152182 -2.111258,4.204793 -3.282008,6.246932 -0.296608,0.880988 -2.10381,2.72121 -2.05845,3.597502 0.689774,-1.210892 -1.161145,-2.048674 0.73533,-1.297969 0.246843,0.09925 0.521144,0.147249 0.740526,0.297759 0.282808,0.194027 0.490977,0.479015 0.738185,0.716743 1.117822,1.074947 2.197341,2.101631 3.111937,3.358822 0,0 -0.0457,0.102016 -0.0457,0.102016 v 0 c -1.114248,0.122949 -2.214722,0.138752 -3.332271,0.21082 -0.689571,0.04447 -1.376191,0.242035 -2.064787,0.184417 -0.297117,-0.02487 -0.570887,-0.172265 -0.85633,-0.258397 -2.363798,-0.833258 -4.200644,-1.982346 -3.582916,-4.866855 0.644023,-1.600282 1.727965,-2.937642 2.620862,-4.404143 1.135806,-1.862484 2.181802,-3.784936 3.094443,-5.766879 0,0 4.181178,1.879232 4.181179,1.879232 z"
       inkscape:connector-curvature="0" />
  </g>
</svg>
