<?xml version="1.0" encoding="UTF-8" standalone="no"?>
<!-- Created with Inkscape (http://www.inkscape.org/) -->

<svg
   xmlns:dc="http://purl.org/dc/elements/1.1/"
   xmlns:cc="http://creativecommons.org/ns#"
   xmlns:rdf="http://www.w3.org/1999/02/22-rdf-syntax-ns#"
   xmlns:svg="http://www.w3.org/2000/svg"
   xmlns="http://www.w3.org/2000/svg"
   xmlns:sodipodi="http://sodipodi.sourceforge.net/DTD/sodipodi-0.dtd"
   xmlns:inkscape="http://www.inkscape.org/namespaces/inkscape"
   width="1920"
   height="1080"
   viewBox="0 0 507.99999 285.75001"
   version="1.1"
   id="svg8"
   inkscape:version="0.92.2 2405546, 2018-03-11"
   sodipodi:docname="title.svg">
  <defs
     id="defs2" />
  <sodipodi:namedview
     id="base"
     pagecolor="#ffffff"
     bordercolor="#666666"
     borderopacity="1.0"
     inkscape:pageopacity="1"
     inkscape:pageshadow="2"
     inkscape:zoom="0.32"
     inkscape:cx="924.71465"
     inkscape:cy="656.61752"
     inkscape:document-units="mm"
     inkscape:current-layer="layer1"
     showgrid="false"
     units="px"
     inkscape:window-width="1348"
     inkscape:window-height="730"
     inkscape:window-x="5"
     inkscape:window-y="25"
     inkscape:window-maximized="0" />
  <metadata
     id="metadata5">
    <rdf:RDF>
      <cc:Work
         rdf:about="">
        <dc:format>image/svg+xml</dc:format>
        <dc:type
           rdf:resource="http://purl.org/dc/dcmitype/StillImage" />
        <dc:title></dc:title>
      </cc:Work>
    </rdf:RDF>
  </metadata>
  <g
     inkscape:label="Layer 1"
     inkscape:groupmode="layer"
     id="layer1"
     transform="translate(0,-11.249983)">
    <path
       style="fill:#000000;stroke-width:1.43800008;stroke-linejoin:miter;stroke-miterlimit:4;stroke-dasharray:none"
       id="path145"
       d="m 59.363895,35.569606 c 0.0445,6.079763 0.07847,12.15969 0.174252,18.23909 0.168963,9.304427 0.575633,18.602105 1.011034,27.897187 0.153752,3.097207 0.276354,6.1956 0.445129,9.292037 0.02918,0.535382 0.05358,1.071084 0.09092,1.605957 0.01545,0.221256 0.288657,0.646878 0.06738,0.661956 -1.811205,0.123434 -3.625447,-0.197294 -5.438169,-0.295942 0.289095,-6.69127 0.642464,-13.378534 1.077296,-20.062107 0.648425,-10.540794 1.650704,-21.053682 2.857302,-31.543829 0.432075,-3.123213 0.732525,-6.279344 1.372764,-9.371355 0.08884,-0.429056 0.604652,-2.823341 1.131898,-3.190704 0.95976,-0.668722 2.167983,-0.879302 3.251973,-1.318952 0.871862,0.778619 1.925896,1.392081 2.615591,2.335859 0.435517,0.595961 1.16268,4.30537 1.264534,4.827124 0.732705,3.753338 1.266235,7.546121 1.842748,11.325297 1.347174,9.201645 2.889727,18.369156 4.944939,27.440239 0.784047,2.816797 1.425366,5.750438 2.817151,8.354616 0.23727,0.443962 0.511802,0.875456 0.850325,1.248021 0.125836,0.13849 0.483161,0.429926 0.5055,0.244141 0.02927,-0.243422 -0.310988,-0.379116 -0.466481,-0.568677 -0.234527,-0.08446 -0.638379,-0.01278 -0.70358,-0.253375 -0.07868,-0.29032 0.28308,-0.530887 0.418205,-0.799621 0.313775,-0.624015 0.648145,-1.238716 0.928421,-1.878476 1.451871,-3.314041 2.371219,-6.783157 3.337385,-10.259631 2.033921,-7.985535 3.462546,-16.103677 4.985959,-24.196447 0.419338,-1.663782 0.748641,-7.944904 4.045648,-7.488203 3.571579,0.494731 3.461552,2.521529 3.936151,4.84007 0.805156,8.099401 1.178428,16.237188 1.712341,24.358298 0.62802,8.278596 -0.0625,16.582715 0.02268,24.875363 0,0 -0.130368,0.02246 -0.130368,0.02246 v 0 C 96.712568,87.160118 95.578312,82.3343 94.603238,77.411976 94.27961,75.778251 93.907966,74.151701 93.673781,72.502778 93.433364,70.809966 93.345195,69.099001 93.180902,67.397114 92.544277,59.500492 92.068662,51.579499 91.039576,43.722078 c -0.387496,-2.562127 -0.264946,0.338439 2.634445,-0.0745 0.80113,-0.114099 1.16704,-1.124871 1.800715,-1.628143 0.135797,-0.107854 -0.227653,0.269415 -0.292463,0.430269 -0.466664,1.15824 -0.811667,2.786427 -1.096769,3.932483 -1.766639,8.156056 -3.293848,16.365297 -5.300025,24.468039 -0.993235,3.811844 -1.92165,7.70708 -3.47609,11.343474 -0.611336,1.430131 -1.860042,4.017719 -3.222014,4.988507 -0.848688,0.60493 -1.939404,0.763907 -2.909107,1.14586 -0.87049,-0.26586 -1.817751,-0.352107 -2.611472,-0.797575 C 73.107753,85.58913 71.837703,77.972454 70.832289,74.587676 68.790689,65.40532 67.257662,56.1253 65.741107,46.843889 65.11319,43.183132 64.528993,39.507395 63.767025,35.871083 c -0.154401,-0.73684 -0.329642,-1.469243 -0.507659,-2.200737 -0.08935,-0.367116 -0.651648,-0.971867 -0.294312,-1.094618 0.564224,-0.193821 1.119576,0.412551 1.679366,0.618827 0.782122,-0.479883 1.577663,-0.938551 2.346365,-1.439651 0.06142,-0.04004 -0.1812,-0.01566 -0.214271,0.04978 -0.20575,0.407179 -0.335811,0.849891 -0.461888,1.288334 -0.835054,2.903982 -1.168239,5.922097 -1.648407,8.895 -1.387057,10.35731 -2.364825,20.766487 -2.949641,31.200621 -0.327409,6.691149 -0.679905,13.391748 -0.540584,20.093228 -1.823029,0.08177 -3.651072,0.403268 -5.469088,0.245325 -0.239223,-0.02077 0.004,-0.480267 0.0011,-0.720374 -0.0068,-0.536249 -0.01921,-1.072414 -0.03041,-1.608589 -0.06464,-3.092355 -0.174318,-6.183151 -0.284189,-9.274207 C 55.040675,72.588694 54.604676,63.25617 54.34749,53.917379 54.187687,47.792611 54.012814,41.664935 54.130826,35.537706 c 0,0 5.233088,0.03189 5.233088,0.03189 z"
       inkscape:connector-curvature="0" />
    <path
       style="fill:#000000;stroke-width:1.43800008;stroke-linejoin:miter;stroke-miterlimit:4;stroke-dasharray:none"
       id="path147"
       d="m 115.60869,83.496266 c -0.8178,-0.65242 -2.15011,-1.984211 -3.06772,-0.856687 -1.40513,1.595454 -1.85432,3.607253 -1.95856,5.673006 0.12327,0.475969 -0.0127,1.853557 0.64323,2.139886 0.41002,0.17898 -0.0866,-0.392454 -0.2881,-0.541586 -0.12131,-0.08975 -0.27304,-0.128598 -0.40955,-0.192895 1.17664,-1.488842 2.0731,-3.211438 2.98911,-4.882742 1.45619,-2.628646 3.67173,-4.123015 6.6394,-2.429756 0.4366,0.249113 0.77938,0.635042 1.16907,0.952563 0.2952,0.355288 0.64872,0.669293 0.88558,1.065858 0.24908,0.417026 0.37425,0.896541 0.55565,1.347142 0.63139,1.568395 1.14651,3.132746 2.1495,4.505172 0,0 -0.0714,0.111352 -0.0714,0.111352 v 0 c -2.42303,-0.586205 -4.85856,-1.506585 -6.96025,-2.837248 -0.10532,-0.08878 -0.33626,-0.130091 -0.31598,-0.266341 0.0177,-0.118861 0.24387,0.0062 0.35954,-0.0264 0.2881,-0.08111 0.58476,-0.158877 0.84199,-0.311872 0.35947,-0.213797 0.36344,-0.589701 -0.003,-0.164992 -0.18623,0.216096 -0.32817,0.466712 -0.49226,0.700066 -1.64847,2.923308 -3.16632,6.067859 -6.3591,7.565049 -0.72965,0.09025 -1.45842,0.353629 -2.18894,0.270753 -3.64957,-0.414043 -4.69993,-4.393874 -4.74245,-7.424721 0.38348,-4.245827 1.68417,-8.290581 5.64706,-10.470449 0.66653,-0.183255 1.31207,-0.478001 1.9996,-0.549767 2.85414,-0.297923 5.2309,1.556248 6.68648,3.818628 0,0 -3.7093,2.805972 -3.7093,2.805972 z"
       inkscape:connector-curvature="0" />
    <path
       style="fill:#000000;stroke-width:1.43800008;stroke-linejoin:miter;stroke-miterlimit:4;stroke-dasharray:none"
       id="path149"
       d="m 127.77482,42.271061 c 1.29811,4.998214 1.87227,10.151054 2.43031,15.273557 0.77706,7.498307 1.16451,15.030534 1.52102,22.558491 0.19165,2.316096 0.18731,4.665429 0.5959,6.961089 0.0688,0.386488 0.15684,0.771922 0.28796,1.141942 0.0431,0.121616 0.28654,0.427866 0.22762,0.313076 -0.13782,-0.268525 -0.31037,-0.517758 -0.46555,-0.776639 -0.5036,-0.152834 -1.00721,-0.305665 -1.51081,-0.458499 -0.0322,-0.04927 -0.12757,-0.09774 -0.0966,-0.147823 0.49553,-0.802076 1.18516,-1.468776 1.72176,-2.243979 1.03283,-1.492078 1.47634,-2.237293 2.4632,-3.805092 2.14577,-3.479199 4.16076,-7.035712 6.22486,-10.56318 1.57518,-2.482119 2.21469,-2.365372 5.46878,1.056733 0.36599,0.384892 -1.2156,3.39127 -1.39588,3.785992 -1.266,2.730415 -2.47514,5.495652 -2.96131,8.480118 -0.0377,0.897223 -0.1448,2.310159 1.06105,2.170228 2.23427,-0.108762 4.09562,-1.47035 5.79036,-2.797635 2.07067,-1.716233 3.57261,-3.893344 4.71666,-6.300607 1.62502,-3.867833 -0.79334,-3.094723 6.02474,-1.953538 0.0186,1.945346 -0.0153,3.882223 0.18434,5.820912 0.28507,1.395484 0.3813,3.422002 1.67609,4.327991 0.0422,-0.01643 0.10828,-0.0079 0.12646,-0.04932 0.0223,-0.05069 -0.13184,-0.232884 -0.13249,-0.260583 -0.004,-0.152022 0.78365,-0.753989 0.81442,-0.78214 1.32321,-1.466025 2.22055,-3.231243 3.13487,-4.964065 0.83326,-1.476034 1.7221,-3.573066 3.62495,-3.933579 0.63251,-0.119835 1.28718,0.02978 1.93077,0.04466 0.49686,0.312529 1.05495,0.544166 1.49058,0.937583 1.52237,1.374876 1.79435,3.935386 2.10106,5.825456 0.10833,0.687104 0.167,1.381305 0.27283,2.068769 0.0349,0.2266 0.0743,0.452779 0.12518,0.676322 0.0168,0.07369 0.10847,0.281996 0.0774,0.213109 -0.58061,-1.287007 0.0766,-0.464092 -2.07792,-1.557557 -0.33893,0.07912 -0.66893,0.226626 -1.01681,0.237355 -0.0885,0.0027 0.10709,-0.140949 0.16123,-0.210965 0.17697,-0.22887 0.35811,-0.454549 0.53212,-0.685684 0.85439,-1.134893 1.68777,-2.282907 2.55415,-3.409061 1.58633,-1.892686 3.34276,-4.313978 5.93831,-4.852929 0.55012,-0.114229 1.12218,-0.05858 1.68327,-0.08788 3.27279,0.738526 4.37157,3.604559 5.60581,6.360512 0.35667,0.712673 0.63551,1.522751 1.21414,2.10049 0.36759,0.367014 0.14697,-0.03753 0.0425,-0.134197 1.58425,-1.037617 2.88488,-2.592705 4.08471,-4.05711 0.85055,-1.104022 1.67103,-2.239542 2.31675,-3.478467 0.13058,-0.250555 0.26094,-0.503793 0.35048,-0.771771 0.0326,-0.09748 0.0388,-0.406924 0.0103,-0.308152 -0.0907,0.315479 -0.13275,0.642977 -0.19913,0.964464 0.69249,0.707742 1.38497,1.415484 2.07746,2.123226 0.25938,0.0032 0.59315,-0.17235 0.77814,0.0095 0.12838,0.126187 -0.27506,0.23269 -0.40438,0.357901 -0.24896,0.241049 -0.49663,0.484008 -0.72986,0.740307 -0.88496,0.972524 -0.90332,1.070412 -1.68835,2.171457 -1.01429,1.746779 -2.34893,4.017499 -1.5071,6.084218 0.63019,0.202335 -0.27291,-0.551519 -0.25352,-0.655241 0.0632,-0.337949 0.44619,-0.523213 0.67239,-0.782124 1.352,-1.760244 1.90279,-3.921186 2.38601,-6.045438 0.47997,-1.874594 1.24986,-3.229152 3.90944,-2.918852 0.81652,0.09526 1.35366,0.963192 1.88426,1.591075 0.45503,0.538451 1.11274,2.675969 1.30536,3.23769 2.06701,6.438358 2.6271,13.183209 2.77263,19.901883 -0.26202,5.64593 -0.77526,13.92326 -5.52481,17.88144 -0.86221,0.71855 -1.9697,1.07666 -2.95455,1.615 -1.07313,0.18286 -2.1308,0.54215 -3.21938,0.54859 -3.54389,0.0209 -6.48802,-2.00706 -9.41417,-3.70135 0,0 0.0605,-0.11763 0.0605,-0.11763 v 0 c 1.05554,0.47681 2.0509,1.11951 3.16663,1.43043 2.55264,0.71136 5.09231,0.23086 7.28324,-1.14042 1.12969,-1.19502 1.95391,-1.94145 2.8069,-3.3983 2.30046,-3.92905 2.68568,-8.57962 2.87244,-13.02245 -0.10428,-6.17945 -0.64723,-12.368694 -2.66144,-18.257444 -0.17228,-0.446021 -0.34013,-0.893783 -0.51684,-1.338069 -0.0797,-0.200483 -0.46745,-0.578202 -0.25243,-0.596024 0.4121,-0.03416 0.71706,0.593952 1.12458,0.523735 0.91162,-0.157083 1.72498,-0.687279 2.52454,-1.152517 0.10964,-0.0638 0.15624,-0.478343 0.0911,-0.369475 -0.10402,0.17395 -0.14078,0.380129 -0.21117,0.570193 -0.83657,2.98931 -1.80271,5.969296 -3.88128,8.358346 -0.43468,0.404842 -0.82238,0.866905 -1.30406,1.214522 -2.15679,1.556515 -5.00215,1.661044 -6.79624,-0.529918 -0.36073,-0.440536 -0.54288,-1.00104 -0.81432,-1.501561 -0.12645,-0.543983 -0.31249,-1.077481 -0.37936,-1.63195 -0.38102,-3.159095 1.01566,-6.197893 2.60646,-8.820618 0.93131,-1.298178 4.51809,-6.182008 6.5461,-5.530072 1.11676,0.359 1.85212,1.440069 2.77818,2.160103 -0.0211,0.556409 0.0383,1.121738 -0.0632,1.669222 -0.34727,1.873681 -2.88472,4.380138 -3.89658,5.956835 -2.1497,2.543624 -4.36548,5.351105 -7.81421,5.993061 -0.55307,-0.0565 -1.12327,-0.02172 -1.65923,-0.1695 -2.204,-0.60765 -3.33051,-2.773966 -4.23829,-4.66281 -0.39098,-0.873853 -0.4763,-1.089613 -0.89233,-1.926133 -0.1904,-0.382839 -0.47665,-0.723947 -0.60171,-1.132819 -0.0525,-0.171783 0.32026,-0.231505 0.34131,-0.239172 0.70866,-1.332482 -4.15123,2.715728 -3.42264,2.727798 -0.82482,1.121492 -3.10103,4.828212 -4.05765,5.481159 -0.56708,0.387061 -1.24253,0.584533 -1.8638,0.8768 -0.82193,-0.29573 -1.73387,-0.410409 -2.46578,-0.88719 -1.22006,-0.794766 -1.18772,-3.644001 -1.41592,-4.917252 -0.0482,-0.299686 -0.61828,-2.566102 -0.59034,-2.718028 0.0571,-0.310451 1.788,2.151055 0.89327,0.314383 0.38025,-0.05323 0.77617,-0.03931 1.14077,-0.159697 0.20324,-0.06711 0.6295,-0.580252 0.47094,-0.43648 -0.51815,0.469828 -0.76074,1.207156 -1.13518,1.772311 -1.22786,2.287566 -2.45098,4.63002 -4.32208,6.469843 -2.56576,2.201111 -5.13692,3.108965 -8.0732,0.865926 -1.95784,-2.124959 -2.91088,-4.680085 -3.19572,-7.555654 -0.19247,-1.859023 -0.34638,-3.73948 -0.20827,-5.607716 6.68917,0.368842 5.62959,-1.221719 4.80685,0.782349 -0.36216,0.882189 -0.69729,1.776621 -1.1402,2.623762 -1.56565,2.959552 -3.46151,5.730054 -5.99852,7.952631 -3.02008,2.467057 -6.31563,4.649819 -10.40136,4.156678 -0.59654,-0.210436 -1.23177,-0.333081 -1.78963,-0.631306 -2.88706,-1.543397 -3.56595,-4.73887 -3.22108,-7.735025 0.64746,-3.42556 1.8781,-6.660142 3.45002,-9.771018 0.29107,-0.64141 0.4728,-1.346501 0.88038,-1.920964 0.0346,-0.04877 0.0209,0.13585 0.0739,0.16343 1.38851,0.72186 2.7345,1.560973 4.21551,2.066581 0.19691,0.06722 0.40194,-0.293587 0.37398,-0.499763 -0.0249,-0.183748 -0.25843,0.265988 -0.38765,0.398983 -2.40042,3.252507 -4.31406,6.833574 -6.43794,10.265384 -1.18567,1.968314 -2.32027,3.996084 -3.68545,5.84926 -0.59803,0.811805 -1.84158,2.475878 -2.89787,2.761435 -0.9061,0.244954 -1.877,-0.03099 -2.8155,-0.04648 -0.49605,-0.474191 -1.08416,-0.867849 -1.48814,-1.422572 -1.44889,-1.989534 -1.14918,-8.012033 -1.42575,-10.383033 -0.32994,-7.416926 -0.64635,-14.839031 -1.4566,-22.223428 -0.58838,-4.954899 -1.24074,-9.90043 -2.09056,-14.818267 0,0 4.64178,-1.022088 4.64178,-1.022088 z"
       inkscape:connector-curvature="0" />
    <path
       style="fill:#000000;stroke-width:1.43800008;stroke-linejoin:miter;stroke-miterlimit:4;stroke-dasharray:none"
       id="path151"
       d="m 161.78903,64.422453 c -0.90731,-0.0887 -2.5893,-0.1612 -2.90761,0.966836 0.20694,0.262098 0.56425,-0.102735 0.8719,-0.129107 0.67711,-0.03428 1.09641,-0.383304 1.21258,-1.034465 0.91082,-1.493808 0.24718,-2.730576 -0.97748,-3.810153 0,0 0.0636,-0.115994 0.0636,-0.115994 v 0 c 2.1956,0.674251 4.77539,1.289535 5.41537,3.939345 0.13436,0.556315 0.005,1.144616 0.007,1.716926 -0.21204,0.512807 -0.34364,1.066842 -0.63612,1.538422 -1.53399,2.473283 -4.53406,3.109235 -7.16629,2.357938 -0.46728,-0.25177 -0.9755,-0.439111 -1.40183,-0.755304 -2.3816,-1.766358 -2.60057,-4.73335 -0.92839,-7.043795 0.36771,-0.334386 0.69425,-0.720588 1.10311,-1.003157 1.9348,-1.337149 4.38922,-1.306418 6.56444,-0.716849 0,0 -1.22004,4.089357 -1.22004,4.089357 z"
       inkscape:connector-curvature="0" />
    <path
       style="fill:#000000;stroke-width:1.43800008;stroke-linejoin:miter;stroke-miterlimit:4;stroke-dasharray:none"
       id="path153"
       d="m 267.17728,46.521859 c -0.17637,5.123228 0.21915,10.226112 0.69382,15.321788 0.50096,6.653255 2.3419,13.141896 2.75087,19.793699 0.01,1.466802 0.0405,2.888178 -0.50594,4.256188 0,0 -0.91853,0.195826 -0.91853,0.195826 v 0 c -1.05812,-1.037731 -1.59771,-2.357779 -2.16945,-3.718547 -2.27322,-6.442938 -2.93839,-13.335661 -3.87274,-20.070006 -0.53801,-5.34747 -1.01189,-10.752984 -0.494,-16.122165 0,0 4.51597,0.343217 4.51597,0.343217 z"
       inkscape:connector-curvature="0" />
    <path
       style="fill:#000000;stroke-width:1.43800008;stroke-linejoin:miter;stroke-miterlimit:4;stroke-dasharray:none"
       id="path155"
       d="m 257.29116,54.545116 c 1.5259,-4.12279 5.18834,-6.619708 8.78871,-8.8084 4.18182,-2.200656 8.79123,-4.014502 13.60273,-3.888293 0.85884,0.02252 1.70836,0.184164 2.56251,0.276247 3.1518,0.78936 6.05759,2.548752 6.89473,5.923994 0.53895,2.173065 0.10948,2.872184 -0.37992,4.98715 -2.98484,6.260192 -6.89549,7.785012 -13.17977,9.633764 -3.24741,0.646732 -1.67142,0.381482 -4.72479,0.814475 0,0 -0.0425,-0.125272 -0.0425,-0.125272 v 0 c 2.58495,-1.477306 1.28508,-0.663681 3.88699,-2.460895 2.05441,-1.564203 3.84429,-3.210391 5.6964,-5.001027 1.34819,-1.303467 2.81636,-2.478664 3.66649,-4.202711 1.13803,-2.789599 0.52785,-4.225906 -2.40797,-5.332015 -0.61521,-0.112636 -1.22227,-0.286898 -1.84563,-0.337905 -4.09652,-0.3352 -8.07574,1.273202 -11.62576,3.127584 -2.68973,1.681901 -5.56336,3.499274 -6.88625,6.521196 0,0 -4.00595,-1.127892 -4.00595,-1.127892 z"
       inkscape:connector-curvature="0" />
    <path
       style="fill:#000000;stroke-width:1.43800008;stroke-linejoin:miter;stroke-miterlimit:4;stroke-dasharray:none"
       id="path157"
       d="m 328.60437,70.939977 c -4.83235,0.328713 -9.66671,0.625531 -14.5026,0.897273 -5.73072,0.574734 -11.44731,-0.04584 -17.08806,-1.075343 -0.59934,-0.111027 -1.1987,-0.222051 -1.79806,-0.333079 0,0 0,-0.132291 0,-0.132291 v 0 c 0.58783,-0.113636 1.17562,-0.227272 1.76345,-0.340908 5.52318,-1.526376 11.07977,-2.997853 16.8539,-3.018385 4.86445,-0.260858 9.72961,-0.537496 14.6,-0.657648 0,0 0.17166,4.660381 0.17166,4.660381 z"
       inkscape:connector-curvature="0" />
    <path
       style="fill:#000000;stroke-width:1.43800008;stroke-linejoin:miter;stroke-miterlimit:4;stroke-dasharray:none"
       id="path159"
       d="m 366.31737,52.798908 c -0.10483,4.793324 -0.34214,9.582992 -0.50737,14.374678 0.063,5.153551 -0.80692,10.225 -2.13347,15.188017 -0.0694,0.349596 -0.1388,0.69919 -0.2082,1.048787 0,0 -0.13189,0.01037 -0.13189,0.01037 v 0 c -0.12428,-0.348851 -0.24852,-0.697701 -0.3728,-1.046552 -1.48802,-4.973209 -2.00763,-10.16617 -1.70196,-15.345351 0.14084,-4.824826 0.2885,-9.655313 0.7642,-14.461117 0,0 4.29149,0.231177 4.29149,0.231177 z"
       inkscape:connector-curvature="0" />
    <path
       style="fill:#000000;stroke-width:1.43800008;stroke-linejoin:miter;stroke-miterlimit:4;stroke-dasharray:none"
       id="path161"
       d="m 386.93317,53.652586 c -5.59578,-0.38663 -11.2042,-0.532 -16.81091,-0.647991 -5.29238,-0.269372 -10.5954,0.256691 -15.88505,0.147961 -2.41181,-0.04958 -4.81606,-0.288851 -7.22525,-0.411443 -2.8436,-0.17053 -5.65642,-0.349398 -8.50288,-0.259874 0,0 -0.0143,-0.131519 -0.0143,-0.131519 v 0 c 2.81972,-0.527434 5.52484,-1.365287 8.30276,-2.082739 1.56016,-0.350822 5.71616,-1.319374 7.24249,-1.518912 5.34741,-0.699077 10.80627,-0.287171 16.17639,-0.400016 5.71026,0.112837 11.42817,0.215538 17.12198,0.694777 0,0 -0.40524,4.609756 -0.40524,4.609756 z"
       inkscape:connector-curvature="0" />
    <path
       style="fill:#000000;stroke-width:1.43800008;stroke-linejoin:miter;stroke-miterlimit:4;stroke-dasharray:none"
       id="path163"
       d="m 49.240267,143.19102 c 0.172538,4.79252 0.04664,9.57331 0.417309,14.36513 0.187106,0.90087 0.374214,1.80173 0.561319,2.7026 0,0 -0.129527,0.0269 -0.129527,0.0269 v 0 c -0.187208,-0.90136 -0.374414,-1.80272 -0.56162,-2.70409 -1.469398,-4.60459 -3.269269,-9.13887 -4.272645,-13.87012 0,0 3.985164,-0.52042 3.985164,-0.52042 z"
       inkscape:connector-curvature="0" />
    <path
       style="fill:#000000;stroke-width:1.43800008;stroke-linejoin:miter;stroke-miterlimit:4;stroke-dasharray:none"
       id="path165"
       d="m 33.645334,143.99501 c 2.459255,-4.31662 6.551914,-7.27847 10.554446,-10.05044 4.850728,-2.94831 10.203246,-5.78668 16.010493,-6.04946 1.03627,-0.0469 2.072421,0.0964 3.108629,0.14461 0.968283,0.27543 1.985627,0.41585 2.904848,0.8263 2.926379,1.30668 4.969854,3.83957 5.835089,6.90184 0.792503,2.80485 0.445182,3.9842 0.232359,6.85484 -1.297011,6.36566 -4.628237,12.08448 -9.222986,16.65547 -0.869608,0.86511 -1.837208,1.6258 -2.755812,2.4387 -3.189333,2.11614 -6.924519,3.98231 -10.881257,3.72744 -1.085178,-0.0699 -2.409484,-0.53593 -3.455493,-0.8602 0,0 0.02855,-0.12918 0.02855,-0.12918 v 0 c 0.484667,0.0626 0.968896,0.24691 1.453997,0.18778 0.569198,-0.0694 1.100923,-0.33146 1.625444,-0.56315 3.063486,-1.35317 5.459121,-3.77019 7.875132,-6.01071 4.646565,-4.46342 8.785283,-9.4708 10.225823,-15.91941 0.371348,-3.11921 0.669647,-6.99172 -2.450624,-8.91578 -0.552897,-0.34094 -1.19212,-0.51631 -1.788181,-0.77446 -0.761029,-0.10353 -1.515255,-0.29284 -2.28309,-0.31059 -5.153048,-0.11908 -9.947806,2.43586 -14.220785,5.01218 -3.42593,2.40552 -6.926048,4.96561 -9.08691,8.64284 0,0 -3.709676,-1.80862 -3.709676,-1.80862 z"
       inkscape:connector-curvature="0" />
    <path
       style="fill:#000000;stroke-width:1.43800008;stroke-linejoin:miter;stroke-miterlimit:4;stroke-dasharray:none"
       id="path167"
       d="m 79.655579,156.3581 c -0.293582,0.76749 -1.15202,3.29088 -0.280011,3.88914 0.109476,-0.0351 -0.02604,-0.22342 0.05269,-0.27117 0.287843,-0.17456 0.66503,-0.11435 0.987962,-0.20944 1.041162,-0.30656 1.293133,-0.48539 2.327662,-0.98209 2.973109,-1.6153 5.579739,-3.79499 8.180527,-5.93663 1.066192,-0.79301 1.982325,-1.84713 3.138014,-2.52349 0.228732,-0.13386 0.509961,-0.51562 0.715007,-0.34771 1.066549,0.87337 1.795368,2.09233 2.693051,3.13849 -1.113443,2.15104 -2.668005,4.02625 -3.89269,6.12056 -0.797615,1.65062 -2.026986,3.76316 -1.299631,5.64581 0.532673,0.28098 -0.09401,-0.44676 -0.109481,-0.5379 -0.03489,-0.20551 0.291412,-0.29945 0.453106,-0.431 1.456719,-1.32235 1.990794,-3.12546 2.126428,-5.02704 0.174061,0.42788 -0.426562,-2.40433 -0.640305,-1.91907 -0.161835,0.3674 0.60425,0.53886 0.955619,0.73307 1.543317,0.7058 2.39545,-1.46853 2.599645,-1.44208 0.09648,0.0125 0.717177,1.14761 0.94683,1.47195 1.278903,1.61349 2.989688,2.49233 4.992328,2.8026 1.839,0.11123 3.34159,-0.67089 4.6544,-1.88397 1.12407,-1.18585 1.74256,-2.69506 2.30135,-4.20292 0.8556,-2.40593 2.68031,-3.9771 5.32315,-2.38462 0.4179,0.2518 0.6524,0.72563 0.9786,1.08845 1.3553,2.24011 1.84288,4.84854 2.27768,7.39488 0.13513,1.00239 0.23805,2.00893 0.30219,3.01835 0.0211,0.33259 0.043,0.77397 0.023,0.77135 -1.76063,-0.23046 -3.50184,-0.59066 -5.25276,-0.886 0.63016,-2.62414 1.70289,-5.09139 2.85586,-7.51975 1.07436,-1.78907 2.53837,-5.11367 4.48724,-6.11542 0.36282,-0.18649 0.79196,-0.19614 1.18795,-0.2942 0.90125,-0.0152 2.23181,0.0913 2.46836,1.23217 0.0455,0.21929 -0.10711,0.43492 -0.16067,0.65237 0,0 -0.1271,0.0367 -0.1271,0.0367 v 0 c -0.64672,0.24036 -0.17869,0.73449 -0.13405,1.26194 -0.1474,0.81224 -0.70491,1.15745 -1.21023,1.81057 -0.58826,0.76032 -0.95141,1.31959 -1.42614,2.16871 -0.23814,0.42594 -0.44987,0.86613 -0.6748,1.29919 -0.93305,2.05426 -1.77134,4.19622 -2.03841,6.45281 -6.87991,0.0422 -5.10777,1.35685 -5.64177,-3.10175 -0.20855,-1.74245 -0.48104,-3.47944 -1.11414,-5.12658 0.4831,0.20372 0.91725,0.41197 1.51384,0.3051 1.54614,-0.27695 1.7658,-1.87135 1.08343,-0.27553 -0.87448,2.26449 -1.81992,4.50974 -3.59163,6.2423 -2.56528,2.26126 -5.49714,3.6027 -8.99702,3.25527 -3.575319,-0.66643 -6.337664,-2.10257 -8.535158,-5.08523 -1.155906,-1.84213 -2.994271,-5.4287 -0.657709,-7.26338 0.609589,-0.47865 1.469186,-0.49428 2.203778,-0.74142 0.52437,0.18909 1.091623,0.28641 1.573109,0.56728 1.970299,1.14938 2.286072,4.04587 2.383539,6.03506 -0.258101,3.49291 -1.396262,6.73597 -4.15045,9.05768 -0.49625,0.30772 -0.954556,0.68738 -1.488752,0.92316 -3.265456,1.44127 -5.929286,-0.13264 -7.08089,-3.29628 -0.07629,-0.53111 -0.205322,-1.05728 -0.228865,-1.59332 -0.124211,-2.82833 1.188712,-5.46049 2.601793,-7.8141 0.828636,-1.21606 1.679895,-2.37027 2.627519,-3.49587 0.151297,-0.17972 0.884743,-1.22769 1.222706,-1.28661 0.977487,0.79638 1.902986,1.66121 2.932462,2.38914 0.07148,0.0505 0.276661,-0.1685 0.190052,-0.18124 -0.608681,-0.0895 -2.283126,1.7799 -2.799365,1.99447 -2.816865,2.34338 -5.618409,4.72927 -8.725435,6.68698 -2.537467,1.41831 -5.715423,3.13808 -8.546674,1.30773 -0.496326,-0.32086 -0.847277,-0.8242 -1.270915,-1.2363 -0.237379,-0.48838 -0.540009,-0.95014 -0.712134,-1.46515 -0.795147,-2.37919 -0.03886,-4.94883 0.903071,-7.15017 0,0 4.523202,2.27416 4.523202,2.27416 z"
       inkscape:connector-curvature="0" />
    <path
       style="fill:#000000;stroke-width:1.43800008;stroke-linejoin:miter;stroke-miterlimit:4;stroke-dasharray:none"
       id="path169"
       d="m 126.22207,153.47325 c -1.98624,-0.42562 -3.71741,0.52916 -5.21151,1.7385 -1.23882,1.30073 -2.64649,3.20673 -1.68088,5.03134 0.75555,0.69231 1.68623,0.35107 2.50279,-0.0404 1.59642,-1.06524 2.24713,-2.8335 2.70765,-4.61172 0.10674,-0.63616 0.26559,-1.30952 0.15687,-1.96045 -0.005,-0.0328 -0.0626,-0.11486 -0.0565,-0.0822 0.0481,0.25842 -0.0777,0.7421 0.18395,0.76682 1.55916,0.14726 3.12552,-0.20442 4.68828,-0.30663 0.2868,2.68967 0.89241,5.33209 1.45489,7.9742 1.2527,5.49104 2.12399,11.0447 2.55008,16.65862 0.1396,4.6805 -0.0785,9.83907 -3.11219,13.69906 -0.5683,0.72308 -1.29697,1.30427 -1.94545,1.9564 -0.81212,0.47125 -1.57207,1.04684 -2.43635,1.41373 -5.20782,2.21077 -9.23547,0.0574 -13.52251,-2.82066 -2.76159,-2.53064 -1.4672,-1.20564 -3.89146,-3.96689 0,0 0.0871,-0.0996 0.0871,-0.0996 v 0 c 2.88709,1.8893 1.36244,1.11559 4.57088,2.32719 0.80718,0.17123 1.60412,0.4011 2.42155,0.5137 2.80195,0.38595 6.46119,-0.0433 8.99882,-1.34791 0.37249,-0.31537 0.79039,-0.58387 1.11747,-0.94613 2.48922,-2.75699 2.33249,-6.90601 2.35315,-10.35112 -0.34777,-5.38267 -1.1762,-10.70378 -2.37775,-15.96371 -0.64189,-3.19506 -1.45823,-6.43559 -1.35322,-9.71369 1.6114,-0.47312 3.15918,-1.29784 4.8342,-1.41936 0.36452,-0.0264 0.25855,0.68676 0.33365,1.04444 0.26419,1.25807 -0.21607,2.61829 -0.38362,3.84586 -0.8696,3.30367 -2.33811,6.27862 -5.43027,8.02819 -0.57043,0.22843 -1.11642,0.53137 -1.71129,0.6853 -3.36099,0.8697 -6.40304,-0.76061 -7.82997,-3.83263 -0.13962,-0.62633 -0.36008,-1.23999 -0.41886,-1.87901 -0.32103,-3.48996 1.74472,-6.51963 4.27216,-8.68232 3.32043,-2.20174 6.21926,-3.31613 10.09222,-1.68025 0,0 -1.96388,4.02136 -1.96388,4.02136 z"
       inkscape:connector-curvature="0" />
    <path
       style="fill:#000000;stroke-width:1.43800008;stroke-linejoin:miter;stroke-miterlimit:4;stroke-dasharray:none"
       id="path171"
       d="m 139.68056,157.09573 c 0.40853,2.17134 0.73152,4.37294 0.43393,6.5737 -1.12896,2.85058 -3.40756,3.05259 -5.3445,0.78845 -0.86075,-1.00616 -0.90067,-2.80564 -1.00705,-4.02692 -0.0941,-4.08789 1.87521,-7.44096 4.42423,-10.46247 3.21969,-3.41517 7.38434,-5.08101 11.91932,-5.84621 4.24497,-0.52081 8.29663,0.45732 12.11994,2.2394 2.11501,1.23602 4.66619,3.00635 4.80941,5.74181 0.0283,0.53967 -0.13283,1.07262 -0.19924,1.60893 -1.14429,2.47977 -3.4725,3.34169 -6.01734,3.62904 -1.90397,-0.0164 -3.17262,-0.58069 -3.29168,-3.08786 -0.0681,-1.43366 1.86296,-2.29751 2.85362,-2.81815 1.77867,-0.87508 3.63537,-1.58582 5.34344,-2.59983 0.62795,-0.49118 -0.0129,-1.71084 2.57364,4.18558 0.0803,0.18295 -0.33499,0.21781 -0.49988,0.33059 -0.89372,0.61132 -0.8794,0.61778 -1.82898,1.3272 -2.49096,1.92623 -4.7323,4.13973 -6.18543,6.95233 -0.0563,0.27626 -0.60235,1.50134 -0.0377,1.77916 0.083,0.0409 0.44252,-0.2296 0.52699,-0.25672 1.76319,-0.20784 2.89501,-1.48259 3.78906,-2.89774 0.73539,-1.57667 1.10198,-3.38023 0.36508,-5.01738 -0.058,-0.0624 -0.0892,-0.18028 -0.17411,-0.18732 -0.34884,-0.0289 0.40239,0.68358 0.74837,0.73663 0.67904,0.10411 1.41869,0.11946 2.05642,-0.13593 0.55599,-0.22264 0.86728,-0.87309 1.13686,-1.38362 0.66807,1.67168 1.94559,2.96838 3.2723,4.13572 1.65337,1.28306 3.57373,2.20324 5.69508,1.8967 1.27767,-0.3927 1.6612,-1.49122 1.96037,-2.67542 0.26157,-1.50637 0.13993,-3.05152 -0.22265,-4.52994 -0.60249,-1.9519 -1.40569,-0.82577 5.0553,-1.52748 0.21553,-0.0234 0.13288,0.41279 0.2048,0.61731 0.13035,0.37067 0.54952,1.4838 0.66654,1.79639 0.94691,2.49954 1.94887,4.97848 2.99258,7.43908 1.47138,3.53619 -0.47337,-1.16259 0.7645,1.89959 0.29506,0.7299 0.36248,0.78481 0.35866,0.77939 -0.15151,-0.21507 -0.17204,-0.67295 -0.43472,-0.6587 -1.50301,0.0816 -2.947,0.61475 -4.42049,0.92212 0.17972,-2.23903 0.51824,-4.44032 1.06538,-6.61932 0.77505,-2.29795 1.80235,-5.05568 4.16659,-6.1893 0.51254,-0.24576 1.08821,-0.32885 1.63232,-0.49327 0.59422,0.0537 1.20714,0.004 1.78266,0.16121 2.7022,0.73888 4.08653,3.44074 5.10524,5.78731 0.49154,1.18055 0.79456,2.41727 1.04929,3.66546 0.13182,0.64589 0.3032,1.72099 0.24739,1.20501 -1.5826,-0.21309 -3.18617,-0.30559 -4.7478,-0.63928 -0.0249,-0.005 0.0905,-0.26883 0.41377,-1.14211 0.44462,-1.20104 0.91887,-2.38043 1.4196,-3.55947 1.05094,-2.05581 1.97577,-4.53086 3.93732,-5.93128 0.40591,-0.28979 0.87592,-0.47719 1.31388,-0.71578 0.62861,-0.0462 1.26753,-0.26116 1.88582,-0.13871 2.95327,0.58488 3.82241,3.96551 4.56323,6.39065 0.24157,1.67512 1.07752,3.40964 0.96239,5.13566 -0.0275,0.41243 -0.37907,1.37673 -0.52039,1.79335 -0.16685,0.49358 -0.50019,0.88353 -0.7601,1.32415 0,0 -0.0567,0.11952 -0.0567,0.11952 v 0 c -0.82362,0.12013 -1.35486,-0.0842 -1.99985,-0.64828 -0.41626,-0.41365 -1.11369,-1.05227 -1.39105,-1.56869 -0.76735,-1.42874 -0.65727,-3.23053 -1.21043,-4.73009 -0.0577,-0.21996 -0.89737,-2.76108 -0.76332,-2.77653 1.42964,-0.16466 -0.20037,0.39944 1.27779,-0.21876 0.002,-0.26449 0.0459,-0.3133 -0.37082,0.0942 -1.05219,1.02897 -1.61049,2.47761 -2.22357,3.7784 -0.53918,1.36484 -0.95661,2.7428 -1.39565,4.14001 -0.0952,0.30286 7.9e-4,0.84121 -0.31124,0.90008 -1.67309,0.31571 -3.40425,0.0815 -5.10637,0.12222 -0.44003,-1.50582 -0.53655,-3.09796 -1.07614,-4.58178 -0.25766,-0.66722 -0.38947,-1.07488 -0.72405,-1.69742 -0.17246,-0.32088 -0.46054,-0.58313 -0.57644,-0.92849 -0.0499,-0.14862 0.20543,-0.26612 0.26029,-0.30559 0.0276,-0.0634 0.13042,-0.14017 0.0827,-0.1902 -0.17408,-0.18252 -0.48183,0.20376 -0.64444,0.39657 -0.4003,0.47463 -0.66291,1.01548 -0.88961,1.59016 -0.13829,0.35057 -0.23898,0.71482 -0.35847,1.07224 -0.51589,2.1657 -0.63299,4.35501 -0.75003,6.57226 -1.54905,0.64769 -2.99817,1.62695 -4.64714,1.94308 -0.49738,0.0953 -1.83599,-3.67241 -1.97157,-4.05975 -0.93313,-2.54393 -1.91165,-5.07076 -2.85809,-7.60975 -0.32563,-0.88428 -0.93497,-2.53571 -0.9306,-2.53826 4.95224,-2.89465 4.52425,-3.61198 5.06235,-1.27921 0.45466,2.32399 0.65974,4.70198 0.17455,7.04292 -1.02927,3.55529 -2.78387,5.79404 -6.55043,6.6119 -4.00639,0.2815 -6.65458,-0.72726 -9.80388,-3.20936 -2.36059,-2.14219 -4.47084,-4.57012 -5.05061,-7.81064 0.064,-1.31806 -0.13647,-2.58129 1.29597,-3.48017 2.4725,-1.55152 4.38054,0.33701 5.30909,2.36233 1.02719,3.30548 0.748,6.60424 -0.96366,9.66074 -2.51242,3.67191 -5.17845,5.71929 -9.83003,5.23886 -0.62558,-0.24547 -1.30465,-0.3838 -1.87673,-0.73639 -3.18279,-1.96165 -3.13155,-5.73421 -1.66812,-8.73668 2.02659,-3.32876 4.72547,-6.07916 7.91719,-8.32385 0.18203,-0.13155 2.73061,-1.93969 2.77455,-1.898 4.06097,3.85287 4.35172,3.29585 2.27898,4.38457 -1.78578,0.89655 -3.59684,1.73831 -5.40427,2.59002 -1.39223,0.74614 -0.0396,0.13647 -0.26827,-0.79413 -0.55111,-2.24337 -0.8576,-2.21558 -1.97082,-2.34439 0.64921,-0.0185 1.83765,-0.64635 1.75159,0.002 0.081,0.19741 0.23104,0.63412 0.25461,0.3247 0.0714,-0.93692 -1.7474,-1.66399 -2.25244,-2.09261 -2.90338,-1.37827 -5.99012,-2.08935 -9.22174,-1.75143 -3.36622,0.55478 -6.46519,1.72154 -8.88738,4.2307 -1.69956,1.94843 -3.09119,4.08936 -3.14644,6.76378 0.0165,0.2628 0.0242,0.52629 0.0494,0.78839 0.12867,1.33653 0.12964,-0.14704 -1.10772,-0.0328 -2.4528,0.22635 -2.27716,0.4124 -2.75989,1.8063 0.52468,-0.59188 -0.0362,-4.0941 0.0828,-5.02917 0,0 4.52295,-0.46476 4.52295,-0.46476 z"
       inkscape:connector-curvature="0" />
    <path
       style="fill:#000000;stroke-width:1.43800008;stroke-linejoin:miter;stroke-miterlimit:4;stroke-dasharray:none"
       id="path173"
       d="m 220.41484,149.86412 c -1.55508,-0.0182 -3.53511,0.0293 -4.58684,1.35629 0.0151,0.0674 -0.009,0.16003 0.0454,0.20213 0.10228,0.0787 0.28296,-0.066 0.38698,0.0104 0.53018,0.38926 1.06568,1.24068 1.50029,1.70978 1.72557,1.8313 3.86798,3.48019 4.88168,5.86178 0.22787,0.53534 0.33878,1.11324 0.50817,1.66986 -0.0304,0.64165 0.11847,1.31776 -0.0912,1.92495 -1.31959,3.82154 -6.07443,3.39232 -9.20259,3.21284 0,0 -0.0153,-0.13141 -0.0153,-0.13141 v 0 c 1.20544,-0.37376 4.50165,-1.28857 4.35673,-3.16656 -0.0811,-1.05125 -0.33666,0.36564 -0.15959,-0.43906 -0.41785,-2.32089 -2.72853,-3.84351 -4.11538,-5.57898 -2.39878,-2.85657 -4.03423,-5.67721 -1.1968,-8.97028 2.68445,-1.98663 4.97883,-2.40043 8.27934,-2.118 0,0 -0.59089,4.45629 -0.59089,4.45629 z"
       inkscape:connector-curvature="0" />
    <path
       style="fill:#000000;stroke-width:1.43800008;stroke-linejoin:miter;stroke-miterlimit:4;stroke-dasharray:none"
       id="path175"
       d="m 88.268483,138.67684 c -1.170775,0.93425 -2.962785,2.02109 -2.948773,3.71473 0.348118,0.37184 0.295079,-0.20217 0.484021,-0.35503 0.170593,-0.13801 0.408482,-0.16054 0.614474,-0.23616 1.272259,-0.54444 2.20495,-1.59105 2.39346,-2.97362 -0.280633,-1.04543 0.03005,-1.45964 -0.687353,-2.45086 -0.807241,-0.63944 -0.362958,-0.43076 -1.319244,-0.65423 0,0 -0.01672,-0.13124 -0.01672,-0.13124 v 0 c 1.060987,-0.4954 0.493572,-0.23714 1.704324,-0.77021 3.841771,-0.59434 5.536872,1.37474 5.282512,5.17112 -1.027467,3.8353 -2.83704,5.83538 -6.705594,6.97123 -0.583237,0.0415 -1.166273,0.16311 -1.749708,0.12452 -3.296584,-0.21808 -5.280727,-2.86223 -4.789649,-6.05606 0.182456,-0.49839 0.308033,-1.02145 0.54737,-1.49515 1.114488,-2.20583 3.326836,-3.62085 5.568722,-4.45883 0,0 1.622155,3.59979 1.622155,3.59979 z"
       inkscape:connector-curvature="0" />
    <path
       style="fill:#000000;stroke-width:1.43800008;stroke-linejoin:miter;stroke-miterlimit:4;stroke-dasharray:none"
       id="path177"
       d="m 279.47728,151.72182 c -2.49206,0.39571 -4.73702,1.51644 -6.5037,3.30504 -1.22687,1.52965 -0.24063,2.08168 -0.44407,0.92642 1.368,-0.28275 2.61017,-1.00636 3.77195,-1.79061 1.69572,-1.29732 3.12391,-2.87639 4.93149,-4.02233 3.26715,-1.27773 4.8019,0.75178 6.07975,3.3817 0.70459,1.03494 0.73425,2.9802 1.6155,3.86716 -0.41254,-0.59732 -0.44061,-0.77517 -1.49572,-0.95512 -0.37155,-0.0634 -0.74512,0.11432 -1.11731,0.1737 -0.0294,0.005 -0.1039,0.0434 -0.0875,0.0185 0.30503,-0.46318 0.69032,-0.86825 1.0287,-1.30766 1.82181,-2.60602 3.78356,-5.07935 6.26361,-7.08232 3.87958,-2.36867 6.27261,-1.22289 9.04772,1.95099 2.27785,2.66494 2.40003,5.27735 3.13917,8.51616 0.0991,0.40493 0.19831,0.80986 0.29745,1.21479 0,0 -0.0976,0.0893 -0.0976,0.0893 v 0 c -0.42593,-0.1687 -0.85183,-0.33741 -1.27775,-0.50612 -2.46986,-1.55584 -4.7347,-3.33926 -6.13926,-5.95124 -0.28186,-0.38259 -0.60892,-0.73352 -0.86032,-1.13677 -0.37616,-0.60338 -0.0478,-0.71916 -1.15864,-0.27562 -2.22962,1.51693 -3.76822,3.72594 -5.18356,5.98867 -1.68378,2.63975 -3.80555,5.37719 -6.86273,2.08757 -0.82574,-1.43299 -1.26836,-3.0144 -1.83055,-4.56247 -0.77012,-1.94641 -0.003,-0.13724 1.14279,-1.10566 -1.63743,0.58634 -3.03014,2.97678 -4.63272,3.74957 -2.83501,1.92855 -5.94749,3.42719 -9.35768,1.9929 -0.48273,-0.38498 -1.05479,-0.67904 -1.44817,-1.15493 -2.08783,-2.52566 -0.66836,-5.72133 1.22481,-7.80714 2.70486,-2.39952 5.83176,-4.00708 9.46293,-4.45294 0,0 0.49138,4.84843 0.49138,4.84843 z"
       inkscape:connector-curvature="0" />
    <path
       style="fill:#000000;stroke-width:1.43800008;stroke-linejoin:miter;stroke-miterlimit:4;stroke-dasharray:none"
       id="path179"
       d="m 361.11955,152.37345 c -0.9461,-1.14171 -1.42515,-1.47989 -2.62906,-0.63623 -1.80726,1.30346 -2.88944,3.23715 -3.6022,5.30159 0.0772,-0.12753 -0.4341,1.80924 0.0238,1.69867 0.37816,-0.0913 -0.33433,-0.857 -0.4866,-0.99304 0.0262,-0.30412 -0.0316,-0.0929 0.39354,-0.38031 1.10784,-0.7489 1.91307,-1.71569 2.71481,-2.77261 1.17634,-1.69166 2.24557,-3.90128 4.5933,-4.11984 0.65394,-0.0609 1.30051,0.18486 1.95075,0.27729 1.35305,0.69591 2.7509,1.58691 3.71001,2.80431 0.37492,0.47588 0.62526,1.03799 0.95046,1.54913 0.85635,1.34596 1.34536,2.0257 2.26134,3.35131 1.69262,2.28175 0.80847,1.17974 2.6502,3.30792 0,0 -0.0794,0.10582 -0.0794,0.10582 v 0 c -2.59725,-1.20108 -1.28611,-0.60389 -3.93364,-1.79095 -1.2469,-0.58333 -2.48324,-1.18913 -3.7333,-1.76564 -1.21877,-0.56209 -2.63485,-1.12706 -3.48765,-2.23108 0.22333,-0.0407 0.46066,-0.0342 0.67,-0.12199 0.23683,-0.0993 0.44818,-0.25792 0.64069,-0.42788 0.0259,-0.0229 -0.0337,-0.10589 -0.0607,-0.0842 -0.80158,0.64442 -1.12943,1.7508 -1.83316,2.47527 -2.11315,2.6887 -4.56158,5.20041 -8.19987,5.31069 -0.63383,-0.17027 -1.32019,-0.20615 -1.9015,-0.51081 -2.88796,-1.51359 -2.76715,-4.99171 -1.93141,-7.63879 1.4296,-3.48964 3.56775,-6.60825 7.11073,-8.20986 0.61185,-0.14737 1.20867,-0.38639 1.83555,-0.4421 2.77497,-0.24663 4.93593,1.48014 6.22353,3.77389 0,0 -3.8503,2.16946 -3.8503,2.16946 z"
       inkscape:connector-curvature="0" />
    <path
       style="fill:#000000;stroke-width:1.43800008;stroke-linejoin:miter;stroke-miterlimit:4;stroke-dasharray:none"
       id="path181"
       d="m 161.24226,222.55556 c -2.08962,-0.93905 -4.20237,0.34358 -5.95378,1.41771 -3.32837,2.58075 -5.74379,6.18641 -6.89381,10.24765 -0.2377,0.8394 -0.35317,1.70869 -0.52975,2.56303 -0.35253,3.03258 0.0357,6.02777 1.59711,8.68847 0.63795,1.08709 1.43741,2.07097 2.14983,3.11077 1.80651,2.22292 4.25199,3.07216 6.92162,3.75648 0,0 0.005,0.13219 0.005,0.13219 v 0 c -0.73666,0.22922 -1.45164,0.54578 -2.20998,0.68767 -2.686,0.5026 -5.29923,-0.0124 -7.77694,-1.07592 -0.84807,-0.53356 -1.79741,-0.93271 -2.54421,-1.60069 -4.17294,-3.73253 -4.68914,-9.89767 -4.04949,-15.05589 0.27626,-1.11694 0.47616,-2.25558 0.8288,-3.35079 1.71554,-5.32807 5.126,-9.91604 9.71487,-13.09595 0.85105,-0.44651 1.66353,-0.97588 2.55315,-1.33951 3.51659,-1.43741 7.42458,-1.25088 10.124,1.60328 0,0 -3.93672,3.3115 -3.93672,3.3115 z"
       inkscape:connector-curvature="0" />
    <path
       style="fill:#000000;stroke-width:1.43800008;stroke-linejoin:miter;stroke-miterlimit:4;stroke-dasharray:none"
       id="path183"
       d="m 175.266,245.78675 c -2.32505,0.35902 -4.64182,0.97474 -6.44618,2.54031 -0.10565,0.007 -0.74999,1.02732 -0.1707,0.88208 0.0722,-0.0181 0.12195,-0.0999 0.19604,-0.10678 0.16844,-0.0156 0.70953,0.28687 0.73882,0.30109 2.11634,0.95164 4.31242,0.60198 6.30194,-0.44464 1.53918,-1.00186 1.99744,-2.47436 1.8169,-4.22094 -0.1645,-1.35874 -0.97485,-2.4565 -1.53643,-3.65845 1.316,-1.31693 2.39148,-2.92931 3.94799,-3.95079 0.3607,-0.2367 0.77198,0.38751 1.14093,0.61114 1.26683,0.76785 2.40039,1.86273 3.52869,2.81205 2.52064,2.15461 4.77871,4.58488 6.88262,7.14155 1.09058,0.87513 1.4829,2.54523 2.58378,3.39908 0.0994,0.0771 -0.10127,-0.27001 -0.22206,-0.30519 -0.87725,-0.2555 -1.7913,-0.36137 -2.68695,-0.54206 -1.71474,1.42268 -1.69332,1.61221 -1.16462,0.20808 0.4661,-1.23788 1.01664,-2.4027 1.62908,-3.5742 1.301,-2.19571 2.86216,-4.51336 5.23838,-5.6708 0.50153,-0.24429 1.0511,-0.3742 1.57665,-0.5613 4.10243,-0.5337 6.29776,2.44702 7.92297,5.73263 0.19247,0.47077 0.3948,0.93763 0.57742,1.41231 0.25334,0.65853 0.60606,1.71033 0.84044,2.39888 0.008,0.0241 0.6058,1.91767 0.45166,1.09318 -1.61035,-1.38489 -0.93431,-1.29298 -3.44914,-0.94789 -0.15045,0.0206 -0.29496,0.37488 -0.381,0.24976 -0.0492,-0.0716 0.98578,-1.65243 1.3594,-2.31126 1.55323,-2.70432 2.97367,-4.96846 5.57344,-6.76749 4.04699,-1.62455 6.03319,0.90894 7.88588,4.05764 0.78847,1.32996 1.55032,2.92729 3.1429,3.38527 1.15596,0.0579 2.09993,-0.58991 2.89931,-1.35489 0.37892,-0.50415 1.51414,-1.8115 1.03515,-2.53835 -2.7e-4,0.14916 -0.1469,0.41616 -0.001,0.44748 1.78278,0.38294 3.6079,0.54422 5.42313,0.71715 0.0815,0.008 0.13854,-0.26372 0.16145,-0.18512 0.0802,0.2752 0.0149,0.57331 0.0351,0.85926 0.0957,1.35963 0.19628,2.04948 0.36293,3.47146 0.77861,5.68855 1.71954,11.35353 2.61031,17.02529 0.12555,0.85294 0.25262,1.70567 0.37665,2.55883 0.13274,0.91312 0.39259,2.64353 0.48709,3.64303 0.0323,0.34167 0.38859,0.94115 0.0566,1.02802 -6.32244,1.65427 -5.57164,2.10348 -6.38453,-1.33832 -0.94406,-5.74417 -0.98402,-11.56304 -0.50667,-17.34883 0.67592,-4.09109 1.57682,-9.44829 5.81123,-11.46735 0.74733,-0.35633 1.59711,-0.43718 2.39566,-0.65577 0.81761,0.096 1.66068,0.0639 2.45282,0.28798 2.91918,0.8257 5.19109,3.4535 6.28374,6.18269 0.26502,0.66197 0.40364,1.36778 0.60546,2.05167 0.32436,2.7365 -0.16685,6.15715 -2.85735,7.68141 -1.38504,0.78468 -2.62864,0.55737 -4.10621,0.51765 -2.11758,-0.3668 -3.05923,-0.9883 -4.56015,-2.42352 0,0 0.0434,-0.12496 0.0434,-0.12496 v 0 c 1.28976,-0.22397 2.59017,-0.38411 3.71857,-1.10948 2.3752,-2.17579 -0.48083,0.58868 1.01121,-1.23318 0.0842,-0.10277 0.23614,-0.12421 0.34227,-0.2041 0.55718,-0.41941 0.65247,-0.97888 0.65778,-1.65451 -0.28777,-1.77216 -1.08893,-3.25252 -2.58998,-4.29252 -2.28696,-1.11032 -3.4982,5.78695 -3.6354,6.92159 -0.46356,5.19092 -0.40779,10.43361 0.60491,15.56532 0.57098,2.62705 0.5632,1.23803 -5.19806,2.68664 -0.16121,0.0405 0.0506,-0.33044 0.0456,-0.4966 -0.0278,-0.93227 -0.2309,-2.56942 -0.33979,-3.39363 -0.11084,-0.83901 -0.24054,-1.67542 -0.36082,-2.51313 -0.86309,-5.72595 -1.82225,-11.43621 -2.71503,-17.15744 -0.24509,-1.77267 -0.68149,-3.72389 -0.56426,-5.52833 0.0384,-0.59069 -0.28405,-1.5851 0.28357,-1.75301 1.83851,-0.54387 3.86555,-0.37629 5.75171,-0.0323 0.37239,0.0679 0.1336,0.74516 0.2004,1.11775 -0.064,2.75033 -1.15028,5.15925 -3.11075,7.10828 -2.72177,2.25441 -5.39848,3.4024 -8.95728,2.40697 -3.08571,-1.36355 -4.38704,-2.96078 -6.01304,-5.85186 -0.43025,-0.72852 -1.02318,-1.67821 -0.97176,-1.71562 0.27149,-0.1975 1.07925,0.20939 1.2163,-0.37954 -1.60247,0.42726 -2.69072,3.366 -3.55042,4.61228 -1.2816,2.34273 -2.30571,5.38822 -5.74501,4.83296 -0.71401,-0.11528 -1.18566,-0.8286 -1.7785,-1.2429 -1.05389,-1.80941 -1.43229,-3.85147 -2.18698,-5.79314 -0.13175,-0.29366 -1.247,-2.16463 -1.2353,-2.4176 0.005,-0.11087 0.23188,-0.14749 0.13756,-0.30321 -1.33988,-0.19898 -2.69428,2.35941 -3.25955,3.27916 -0.36947,0.78297 -0.55428,1.12583 -0.84658,1.93027 -0.22231,0.61185 -0.50242,2.24473 -0.85015,2.70519 -0.52305,0.69263 -1.22019,1.23467 -1.83029,1.852 -1.03053,-0.13185 -2.09498,-0.10206 -3.09159,-0.39556 -0.88999,-0.26211 -2.47877,-3.44054 -3.19567,-4.12163 -1.84799,-2.28099 -3.85066,-4.43092 -6.1222,-6.30011 -0.38531,-0.3163 -2.73567,-1.97877 -2.93065,-2.27812 -0.0489,-0.0751 0.1748,0.0401 0.2622,0.0601 1.13227,-1.37402 2.26454,-2.74806 3.39681,-4.12209 0.75484,1.85013 1.70863,3.65378 1.86231,5.69769 0.0922,4.59729 -1.18827,7.37743 -5.1422,9.91958 -0.65459,0.28942 -1.28646,0.63694 -1.96376,0.86827 -3.55818,1.21527 -7.32546,0.81284 -10.58019,-1.02053 -0.55847,-0.47098 -1.19421,-0.86325 -1.6754,-1.41295 -2.76311,-3.15649 -1.81812,-6.69053 0.97482,-9.34092 2.82553,-1.95963 5.95145,-3.17323 9.39757,-3.5023 0,0 0.67412,5.80422 0.67412,5.80422 z"
       inkscape:connector-curvature="0" />
    <path
       style="fill:#000000;stroke-width:1.43800008;stroke-linejoin:miter;stroke-miterlimit:4;stroke-dasharray:none"
       id="path185"
       d="m 252.90092,246.90476 c 0.38129,1.01499 1.11969,3.8271 2.42974,3.97146 -0.0107,-0.0605 -0.0215,-0.12091 -0.0322,-0.18137 -0.044,-0.0556 -0.11787,-0.0973 -0.13213,-0.16683 -0.006,-0.0274 1.11879,-1.64134 1.34844,-2.03119 0.57207,-1.45114 1.49906,-3.12529 1.27542,-4.75002 -0.21104,2.38615 -0.14197,0.11958 5.8997,0.9077 0.0117,0.002 0.0207,0.36069 0.10549,0.75003 0.1246,0.57222 0.19043,0.67977 0.40306,1.23871 0.24661,0.88185 1.06068,1.37099 1.55018,2.07186 0.27564,0.39467 0.45175,0.85094 0.70379,1.26107 0.56145,0.72238 1.30027,0.98207 2.12672,1.28742 0,0 0.0516,0.12183 0.0516,0.12183 v 0 c -0.94557,1.32692 -1.55522,1.79222 -3.21884,2.09549 -0.50565,0.0243 -1.01246,0.11529 -1.51692,0.073 -2.73736,-0.22933 -4.40926,-2.58545 -5.4653,-4.8823 -0.42749,-1.26534 -0.77537,-2.45797 -0.81294,-3.80503 -0.0102,-0.36403 -0.31388,-1.00413 0.0396,-1.0918 1.96907,-0.48833 4.04593,-0.53869 6.07139,-0.42373 0.25603,0.0145 0.0101,0.51278 0.0152,0.76918 -0.33868,2.5585 -1.05854,5.06466 -2.25853,7.35805 -1.59534,2.63209 -3.76422,5.34612 -7.23118,5.04401 -0.63632,-0.0555 -1.23193,-0.33803 -1.8479,-0.50705 -0.4938,-0.31761 -1.03007,-0.57732 -1.48139,-0.95284 -1.96094,-1.63159 -2.8442,-4.17817 -3.64949,-6.50074 0,0 5.62657,-1.65693 5.62657,-1.65693 z"
       inkscape:connector-curvature="0" />
    <path
       style="fill:#000000;stroke-width:1.43800008;stroke-linejoin:miter;stroke-miterlimit:4;stroke-dasharray:none"
       id="path187"
       d="m 272.76427,211.74287 c 0.2617,4.98299 0.19,9.97818 0.14714,14.96599 -0.13388,5.86512 -0.0405,11.72394 0.78512,17.53708 0.58923,2.50098 0.93679,6.19171 3.62763,7.39089 2.18395,0.32658 4.21309,-0.80448 6.04445,-1.846 1.26479,-1.00411 3.74034,-2.29186 3.65043,-4.22187 -0.47971,-0.49902 -1.18607,-0.72849 -1.84962,-0.85683 -0.85373,0.007 -0.85653,0.70886 -1.01468,1.3907 -0.29517,1.61244 0.0353,3.2171 0.89747,4.59622 0.8355,1.06679 1.83872,1.00555 3.05173,0.756 2.32056,-0.7352 4.32493,-2.1584 6.53918,-3.14138 4.45463,-1.42675 6.60987,0.64396 8.91148,4.17478 1.09726,1.82852 1.73839,3.86419 2.55786,5.81724 0.0756,0.18011 0.37508,0.68221 0.25712,0.52653 -0.18057,-0.2383 -0.29818,-0.51832 -0.44727,-0.77748 -1.52303,0.22466 -3.04062,0.48996 -4.56909,0.674 -0.0409,0.005 -0.0324,-0.0797 -0.0271,-0.12056 0.0515,-0.39639 0.1246,-0.78977 0.19659,-1.18297 0.35568,-1.94282 0.87167,-3.77839 1.48272,-5.65566 1.11969,-2.50845 2.2107,-5.52549 4.50168,-7.26111 0.95509,-0.72356 1.98247,-0.91738 3.08943,-1.23324 1.38965,-0.004 1.84446,-0.2152 2.52799,1.04661 0,0 -0.0689,0.11294 -0.0689,0.11294 v 0 c -0.25882,0.48114 -0.42072,0.99397 -0.66027,1.48634 -0.31446,0.65216 -0.5289,1.35373 -0.8894,1.98161 -0.22667,0.39476 -0.54641,0.72859 -0.80303,1.10457 -0.95891,1.40492 -1.78277,2.89159 -2.34591,4.5025 -0.64936,1.99937 -1.0161,3.92353 -1.34892,5.98925 -0.0792,0.49146 0.16121,1.22984 -0.27612,1.46766 -1.4668,0.79765 -3.22284,0.87424 -4.83425,1.31136 -0.27903,-0.38299 -0.5963,-0.74085 -0.83709,-1.14896 -1.01825,-1.72577 -1.0803,-3.97397 -2.29172,-5.62511 -0.28779,-0.48394 -0.95419,-1.23759 -1.14334,-1.79972 -0.0405,-0.12023 0.13308,-0.27447 -0.14999,-0.29269 -0.18474,-0.0119 -0.36629,0.054 -0.54944,0.081 -2.66663,1.16313 -5.00568,3.05616 -7.90742,3.67086 -4.11442,0.58419 -6.61717,-0.14464 -9.11907,-3.6064 -1.59798,-3.04557 -2.25753,-6.25372 -1.22997,-9.62707 0.23667,-0.52946 0.41561,-1.08871 0.71001,-1.5884 1.60316,-2.72127 4.46191,-3.77316 7.48578,-3.15125 3.72305,1.28131 5.82414,3.24407 5.81453,7.40214 -0.12835,0.56339 -0.19248,1.14539 -0.38507,1.69017 -1.02368,2.89535 -3.6345,4.87207 -6.07894,6.50878 -3.76089,2.14345 -7.78195,3.75946 -12.03264,1.92619 -0.59584,-0.40308 -1.24407,-0.73788 -1.78752,-1.20923 -3.00546,-2.60675 -3.88578,-6.78156 -4.56859,-10.49354 -0.73972,-6.10461 -0.78954,-12.24526 -0.57793,-18.38785 0.0997,-4.88848 0.17227,-9.77729 0.10972,-14.6667 0,0 5.4052,-0.21741 5.4052,-0.21741 z"
       inkscape:connector-curvature="0" />
    <path
       style="fill:#000000;stroke-width:1.43800008;stroke-linejoin:miter;stroke-miterlimit:4;stroke-dasharray:none"
       id="path189"
       d="m 289.50396,235.08082 c -2.66346,-0.13992 -5.33559,0.25348 -7.99529,0.18222 -2.02596,-0.0543 -4.04196,-0.3066 -6.06507,-0.42685 -3.14401,-0.16233 -6.28644,-0.22745 -9.43382,-0.22009 0,0 -0.019,-0.13092 -0.019,-0.13092 v 0 c 3.04533,-0.89398 6.06922,-1.85671 9.12955,-2.69916 0.69141,-0.18878 5.26976,-1.45798 6.0488,-1.59714 2.83689,-0.50674 5.79035,-0.3985 8.65394,-0.30644 0,0 -0.31912,5.19838 -0.31912,5.19838 z"
       inkscape:connector-curvature="0" />
  </g>
</svg>
