<?xml version="1.0" encoding="UTF-8"?>
<!DOCTYPE svg PUBLIC "-//W3C//DTD SVG 1.1//EN"
    "http://www.w3.org/Graphics/SVG/1.1/DTD/svg11.dtd"><svg xmlns="http://www.w3.org/2000/svg" height="524.4992" stroke-opacity="1" viewBox="0 0 1000 524" font-size="1" width="1000.0000" xmlns:xlink="http://www.w3.org/1999/xlink" stroke="rgb(0,0,0)" version="1.1"><defs></defs><g stroke-linejoin="miter" stroke-opacity="1.0" fill-opacity="1.0" stroke="rgb(0,0,0)" stroke-width="2.8968925785489144" fill="rgb(0,128,0)" stroke-linecap="butt" stroke-miterlimit="10.0"><path d="M 641.1097,15.2645 c 0.0000,-8.4304 -6.8342,-15.2645 -15.2645 -15.2645c -8.4304,-0.0000 -15.2645,6.8342 -15.2645 15.2645c -0.0000,8.4304 6.8342,15.2645 15.2645 15.2645c 8.4304,0.0000 15.2645,-6.8342 15.2645 -15.2645Z"/></g><g stroke-linejoin="miter" stroke-opacity="1.0" fill-opacity="1.0" stroke="rgb(0,0,0)" stroke-width="2.8968925785489144" fill="rgb(0,128,0)" stroke-linecap="butt" stroke-miterlimit="10.0"><path d="M 730.8323,138.7570 c 0.0000,-8.4304 -6.8342,-15.2645 -15.2645 -15.2645c -8.4304,-0.0000 -15.2645,6.8342 -15.2645 15.2645c -0.0000,8.4304 6.8342,15.2645 15.2645 15.2645c 8.4304,0.0000 15.2645,-6.8342 15.2645 -15.2645Z"/></g><g stroke-linejoin="miter" stroke-opacity="1.0" fill-opacity="1.0" stroke="rgb(0,0,0)" stroke-width="2.8968925785489144" fill="rgb(0,128,0)" stroke-linecap="butt" stroke-miterlimit="10.0"><path d="M 820.5548,262.2496 c 0.0000,-8.4304 -6.8342,-15.2645 -15.2645 -15.2645c -8.4304,-0.0000 -15.2645,6.8342 -15.2645 15.2645c -0.0000,8.4304 6.8342,15.2645 15.2645 15.2645c 8.4304,0.0000 15.2645,-6.8342 15.2645 -15.2645Z"/></g><g stroke-linejoin="miter" stroke-opacity="1.0" fill-opacity="1.0" stroke="rgb(0,0,0)" stroke-width="2.8968925785489144" fill="rgb(0,128,0)" stroke-linecap="butt" stroke-miterlimit="10.0"><path d="M 910.2774,385.7421 c 0.0000,-8.4304 -6.8342,-15.2645 -15.2645 -15.2645c -8.4304,-0.0000 -15.2645,6.8342 -15.2645 15.2645c -0.0000,8.4304 6.8342,15.2645 15.2645 15.2645c 8.4304,0.0000 15.2645,-6.8342 15.2645 -15.2645Z"/></g><g stroke-linejoin="miter" stroke-opacity="1.0" fill-opacity="1.0" stroke="rgb(0,0,0)" stroke-width="2.8968925785489144" fill="rgb(0,128,0)" stroke-linecap="butt" stroke-miterlimit="10.0"><path d="M 1000.0000,509.2346 c 0.0000,-8.4304 -6.8342,-15.2645 -15.2645 -15.2645c -8.4304,-0.0000 -15.2645,6.8342 -15.2645 15.2645c -0.0000,8.4304 6.8342,15.2645 15.2645 15.2645c 8.4304,0.0000 15.2645,-6.8342 15.2645 -15.2645Z"/></g><g stroke-linejoin="miter" stroke-opacity="1.0" fill-opacity="1.0" stroke="rgb(0,0,0)" stroke-width="2.8968925785489144" fill="rgb(0,128,0)" stroke-linecap="butt" stroke-miterlimit="10.0"><path d="M 488.4645,15.2645 c 0.0000,-8.4304 -6.8342,-15.2645 -15.2645 -15.2645c -8.4304,-0.0000 -15.2645,6.8342 -15.2645 15.2645c -0.0000,8.4304 6.8342,15.2645 15.2645 15.2645c 8.4304,0.0000 15.2645,-6.8342 15.2645 -15.2645Z"/></g><g stroke-linejoin="miter" stroke-opacity="1.0" fill-opacity="1.0" stroke="rgb(0,0,0)" stroke-width="2.8968925785489144" fill="rgb(0,128,0)" stroke-linecap="butt" stroke-miterlimit="10.0"><path d="M 578.1871,138.7570 c 0.0000,-8.4304 -6.8342,-15.2645 -15.2645 -15.2645c -8.4304,-0.0000 -15.2645,6.8342 -15.2645 15.2645c -0.0000,8.4304 6.8342,15.2645 15.2645 15.2645c 8.4304,0.0000 15.2645,-6.8342 15.2645 -15.2645Z"/></g><g stroke-linejoin="miter" stroke-opacity="1.0" fill-opacity="1.0" stroke="rgb(0,0,0)" stroke-width="2.8968925785489144" fill="rgb(0,128,0)" stroke-linecap="butt" stroke-miterlimit="10.0"><path d="M 667.9097,262.2496 c 0.0000,-8.4304 -6.8342,-15.2645 -15.2645 -15.2645c -8.4304,-0.0000 -15.2645,6.8342 -15.2645 15.2645c -0.0000,8.4304 6.8342,15.2645 15.2645 15.2645c 8.4304,0.0000 15.2645,-6.8342 15.2645 -15.2645Z"/></g><g stroke-linejoin="miter" stroke-opacity="1.0" fill-opacity="1.0" stroke="rgb(0,0,0)" stroke-width="2.8968925785489144" fill="rgb(0,128,0)" stroke-linecap="butt" stroke-miterlimit="10.0"><path d="M 757.6323,385.7421 c 0.0000,-8.4304 -6.8342,-15.2645 -15.2645 -15.2645c -8.4304,-0.0000 -15.2645,6.8342 -15.2645 15.2645c -0.0000,8.4304 6.8342,15.2645 15.2645 15.2645c 8.4304,0.0000 15.2645,-6.8342 15.2645 -15.2645Z"/></g><g stroke-linejoin="miter" stroke-opacity="1.0" fill-opacity="1.0" stroke="rgb(0,0,0)" stroke-width="2.8968925785489144" fill="rgb(0,128,0)" stroke-linecap="butt" stroke-miterlimit="10.0"><path d="M 847.3548,509.2346 c 0.0000,-8.4304 -6.8342,-15.2645 -15.2645 -15.2645c -8.4304,-0.0000 -15.2645,6.8342 -15.2645 15.2645c -0.0000,8.4304 6.8342,15.2645 15.2645 15.2645c 8.4304,0.0000 15.2645,-6.8342 15.2645 -15.2645Z"/></g><g stroke-linejoin="miter" stroke-opacity="1.0" fill-opacity="1.0" stroke="rgb(0,0,0)" stroke-width="2.8968925785489144" fill="rgb(0,128,0)" stroke-linecap="butt" stroke-miterlimit="10.0"><path d="M 335.8194,15.2645 c 0.0000,-8.4304 -6.8342,-15.2645 -15.2645 -15.2645c -8.4304,-0.0000 -15.2645,6.8342 -15.2645 15.2645c -0.0000,8.4304 6.8342,15.2645 15.2645 15.2645c 8.4304,0.0000 15.2645,-6.8342 15.2645 -15.2645Z"/></g><g stroke-linejoin="miter" stroke-opacity="1.0" fill-opacity="1.0" stroke="rgb(0,0,0)" stroke-width="2.8968925785489144" fill="rgb(0,128,0)" stroke-linecap="butt" stroke-miterlimit="10.0"><path d="M 425.5419,138.7570 c 0.0000,-8.4304 -6.8342,-15.2645 -15.2645 -15.2645c -8.4304,-0.0000 -15.2645,6.8342 -15.2645 15.2645c -0.0000,8.4304 6.8342,15.2645 15.2645 15.2645c 8.4304,0.0000 15.2645,-6.8342 15.2645 -15.2645Z"/></g><g stroke-linejoin="miter" stroke-opacity="1.0" fill-opacity="1.0" stroke="rgb(0,0,0)" stroke-width="2.8968925785489144" fill="rgb(0,128,0)" stroke-linecap="butt" stroke-miterlimit="10.0"><path d="M 515.2645,262.2496 c 0.0000,-8.4304 -6.8342,-15.2645 -15.2645 -15.2645c -8.4304,-0.0000 -15.2645,6.8342 -15.2645 15.2645c -0.0000,8.4304 6.8342,15.2645 15.2645 15.2645c 8.4304,0.0000 15.2645,-6.8342 15.2645 -15.2645Z"/></g><g stroke-linejoin="miter" stroke-opacity="1.0" fill-opacity="1.0" stroke="rgb(0,0,0)" stroke-width="2.8968925785489144" fill="rgb(0,128,0)" stroke-linecap="butt" stroke-miterlimit="10.0"><path d="M 604.9871,385.7421 c 0.0000,-8.4304 -6.8342,-15.2645 -15.2645 -15.2645c -8.4304,-0.0000 -15.2645,6.8342 -15.2645 15.2645c -0.0000,8.4304 6.8342,15.2645 15.2645 15.2645c 8.4304,0.0000 15.2645,-6.8342 15.2645 -15.2645Z"/></g><g stroke-linejoin="miter" stroke-opacity="1.0" fill-opacity="1.0" stroke="rgb(0,0,0)" stroke-width="2.8968925785489144" fill="rgb(0,128,0)" stroke-linecap="butt" stroke-miterlimit="10.0"><path d="M 694.7097,509.2346 c 0.0000,-8.4304 -6.8342,-15.2645 -15.2645 -15.2645c -8.4304,-0.0000 -15.2645,6.8342 -15.2645 15.2645c -0.0000,8.4304 6.8342,15.2645 15.2645 15.2645c 8.4304,0.0000 15.2645,-6.8342 15.2645 -15.2645Z"/></g><g stroke-linejoin="miter" stroke-opacity="1.0" fill-opacity="1.0" stroke="rgb(0,0,0)" stroke-width="2.8968925785489144" fill="rgb(0,128,0)" stroke-linecap="butt" stroke-miterlimit="10.0"><path d="M 183.1742,15.2645 c 0.0000,-8.4304 -6.8342,-15.2645 -15.2645 -15.2645c -8.4304,-0.0000 -15.2645,6.8342 -15.2645 15.2645c -0.0000,8.4304 6.8342,15.2645 15.2645 15.2645c 8.4304,0.0000 15.2645,-6.8342 15.2645 -15.2645Z"/></g><g stroke-linejoin="miter" stroke-opacity="1.0" fill-opacity="1.0" stroke="rgb(0,0,0)" stroke-width="2.8968925785489144" fill="rgb(0,128,0)" stroke-linecap="butt" stroke-miterlimit="10.0"><path d="M 272.8968,138.7570 c 0.0000,-8.4304 -6.8342,-15.2645 -15.2645 -15.2645c -8.4304,-0.0000 -15.2645,6.8342 -15.2645 15.2645c -0.0000,8.4304 6.8342,15.2645 15.2645 15.2645c 8.4304,0.0000 15.2645,-6.8342 15.2645 -15.2645Z"/></g><g stroke-linejoin="miter" stroke-opacity="1.0" fill-opacity="1.0" stroke="rgb(0,0,0)" stroke-width="2.8968925785489144" fill="rgb(0,128,0)" stroke-linecap="butt" stroke-miterlimit="10.0"><path d="M 362.6194,262.2496 c 0.0000,-8.4304 -6.8342,-15.2645 -15.2645 -15.2645c -8.4304,-0.0000 -15.2645,6.8342 -15.2645 15.2645c -0.0000,8.4304 6.8342,15.2645 15.2645 15.2645c 8.4304,0.0000 15.2645,-6.8342 15.2645 -15.2645Z"/></g><g stroke-linejoin="miter" stroke-opacity="1.0" fill-opacity="1.0" stroke="rgb(0,0,0)" stroke-width="2.8968925785489144" fill="rgb(0,128,0)" stroke-linecap="butt" stroke-miterlimit="10.0"><path d="M 452.3419,385.7421 c 0.0000,-8.4304 -6.8342,-15.2645 -15.2645 -15.2645c -8.4304,-0.0000 -15.2645,6.8342 -15.2645 15.2645c -0.0000,8.4304 6.8342,15.2645 15.2645 15.2645c 8.4304,0.0000 15.2645,-6.8342 15.2645 -15.2645Z"/></g><g stroke-linejoin="miter" stroke-opacity="1.0" fill-opacity="1.0" stroke="rgb(0,0,0)" stroke-width="2.8968925785489144" fill="rgb(0,128,0)" stroke-linecap="butt" stroke-miterlimit="10.0"><path d="M 542.0645,509.2346 c 0.0000,-8.4304 -6.8342,-15.2645 -15.2645 -15.2645c -8.4304,-0.0000 -15.2645,6.8342 -15.2645 15.2645c -0.0000,8.4304 6.8342,15.2645 15.2645 15.2645c 8.4304,0.0000 15.2645,-6.8342 15.2645 -15.2645Z"/></g><g stroke-linejoin="miter" stroke-opacity="1.0" fill-opacity="1.0" stroke="rgb(0,0,0)" stroke-width="2.8968925785489144" fill="rgb(0,128,0)" stroke-linecap="butt" stroke-miterlimit="10.0"><path d="M 30.5290,15.2645 c 0.0000,-8.4304 -6.8342,-15.2645 -15.2645 -15.2645c -8.4304,-0.0000 -15.2645,6.8342 -15.2645 15.2645c -0.0000,8.4304 6.8342,15.2645 15.2645 15.2645c 8.4304,0.0000 15.2645,-6.8342 15.2645 -15.2645Z"/></g><g stroke-linejoin="miter" stroke-opacity="1.0" fill-opacity="1.0" stroke="rgb(0,0,0)" stroke-width="2.8968925785489144" fill="rgb(0,128,0)" stroke-linecap="butt" stroke-miterlimit="10.0"><path d="M 120.2516,138.7570 c 0.0000,-8.4304 -6.8342,-15.2645 -15.2645 -15.2645c -8.4304,-0.0000 -15.2645,6.8342 -15.2645 15.2645c -0.0000,8.4304 6.8342,15.2645 15.2645 15.2645c 8.4304,0.0000 15.2645,-6.8342 15.2645 -15.2645Z"/></g><g stroke-linejoin="miter" stroke-opacity="1.0" fill-opacity="1.0" stroke="rgb(0,0,0)" stroke-width="2.8968925785489144" fill="rgb(0,128,0)" stroke-linecap="butt" stroke-miterlimit="10.0"><path d="M 209.9742,262.2496 c 0.0000,-8.4304 -6.8342,-15.2645 -15.2645 -15.2645c -8.4304,-0.0000 -15.2645,6.8342 -15.2645 15.2645c -0.0000,8.4304 6.8342,15.2645 15.2645 15.2645c 8.4304,0.0000 15.2645,-6.8342 15.2645 -15.2645Z"/></g><g stroke-linejoin="miter" stroke-opacity="1.0" fill-opacity="1.0" stroke="rgb(0,0,0)" stroke-width="2.8968925785489144" fill="rgb(0,128,0)" stroke-linecap="butt" stroke-miterlimit="10.0"><path d="M 299.6968,385.7421 c 0.0000,-8.4304 -6.8342,-15.2645 -15.2645 -15.2645c -8.4304,-0.0000 -15.2645,6.8342 -15.2645 15.2645c -0.0000,8.4304 6.8342,15.2645 15.2645 15.2645c 8.4304,0.0000 15.2645,-6.8342 15.2645 -15.2645Z"/></g><g stroke-linejoin="miter" stroke-opacity="1.0" fill-opacity="1.0" stroke="rgb(0,0,0)" stroke-width="2.8968925785489144" fill="rgb(0,128,0)" stroke-linecap="butt" stroke-miterlimit="10.0"><path d="M 389.4193,509.2346 c 0.0000,-8.4304 -6.8342,-15.2645 -15.2645 -15.2645c -8.4304,-0.0000 -15.2645,6.8342 -15.2645 15.2645c -0.0000,8.4304 6.8342,15.2645 15.2645 15.2645c 8.4304,0.0000 15.2645,-6.8342 15.2645 -15.2645Z"/></g><g stroke-linejoin="miter" stroke-opacity="1.0" fill-opacity="0.0" stroke="rgb(0,0,0)" stroke-width="2.8968925785489144" fill="rgb(0,0,0)" stroke-linecap="butt" stroke-miterlimit="10.0"><path d="M 500.0000,262.2496 l -74.8235,-102.9857 "/></g><g stroke-linejoin="miter" stroke-opacity="1.0" fill-opacity="1.0" stroke="rgb(0,0,0)" stroke-width="0.0" fill="rgb(0,0,0)" stroke-linecap="butt" stroke-miterlimit="10.0"></g><g stroke-linejoin="miter" stroke-opacity="1.0" fill-opacity="1.0" stroke="rgb(0,0,0)" stroke-width="0.0" fill="rgb(0,0,0)" stroke-linecap="butt" stroke-miterlimit="10.0"></g><g stroke-linejoin="miter" stroke-opacity="1.0" fill-opacity="1.0" stroke="rgb(0,0,0)" stroke-width="0.0" fill="rgb(0,0,0)" stroke-linecap="butt" stroke-miterlimit="10.0"><path d="M 410.2774,138.7570 l 9.6343,29.6514 l 4.8172,-9.7606 l 10.7715,-1.5652 Z"/></g><g stroke-linejoin="miter" stroke-opacity="1.0" fill-opacity="1.0" stroke="rgb(0,0,0)" stroke-width="0.0" fill="rgb(0,0,0)" stroke-linecap="butt" stroke-miterlimit="10.0"><path d="M 424.7289,158.6478 l 0.4476,0.6161 l -1.1718,0.8514 l 0.7242,-1.4674 l 0.4476,0.6161 l 1.1718,-0.8514 Z"/></g><g stroke-linejoin="miter" stroke-opacity="1.0" fill-opacity="0.0" stroke="rgb(0,0,0)" stroke-width="2.8968925785489144" fill="rgb(0,0,0)" stroke-linecap="butt" stroke-miterlimit="10.0"><path d="M 500.0000,262.2496 h 127.2974 "/></g><g stroke-linejoin="miter" stroke-opacity="1.0" fill-opacity="1.0" stroke="rgb(0,0,0)" stroke-width="0.0" fill="rgb(0,0,0)" stroke-linecap="butt" stroke-miterlimit="10.0"></g><g stroke-linejoin="miter" stroke-opacity="1.0" fill-opacity="1.0" stroke="rgb(0,0,0)" stroke-width="0.0" fill="rgb(0,0,0)" stroke-linecap="butt" stroke-miterlimit="10.0"></g><g stroke-linejoin="miter" stroke-opacity="1.0" fill-opacity="1.0" stroke="rgb(0,0,0)" stroke-width="0.0" fill="rgb(0,0,0)" stroke-linecap="butt" stroke-miterlimit="10.0"><path d="M 652.6452,262.2496 l -29.6514,-9.6343 l 5.0651,9.6343 l -5.0651,9.6343 Z"/></g><g stroke-linejoin="miter" stroke-opacity="1.0" fill-opacity="1.0" stroke="rgb(0,0,0)" stroke-width="0.0" fill="rgb(0,0,0)" stroke-linecap="butt" stroke-miterlimit="10.0"><path d="M 628.0588,262.2496 h -0.7615 v -1.4484 l 0.7615,1.4484 h -0.7615 v 1.4484 Z"/></g><g stroke-linejoin="miter" stroke-opacity="1.0" fill-opacity="1.0" font-size="30.52903299136014px" stroke="rgb(0,0,0)" stroke-width="2.8968925785489144" fill="rgb(0,0,0)" stroke-linecap="butt" stroke-miterlimit="10.0"><text dominant-baseline="middle" transform="matrix(1.0000,0.0000,0.0000,1.0000,573.2697,246.9851)" stroke="none" text-anchor="middle">v1</text></g><g stroke-linejoin="miter" stroke-opacity="1.0" fill-opacity="1.0" font-size="30.52903299136014px" stroke="rgb(0,0,0)" stroke-width="2.8968925785489144" fill="rgb(0,0,0)" stroke-linecap="butt" stroke-miterlimit="10.0"><text dominant-baseline="middle" transform="matrix(1.0000,0.0000,0.0000,1.0000,478.6297,201.1915)" stroke="none" text-anchor="middle">v2</text></g></svg>