<?xml version="1.0" encoding="UTF-8"?>
<!DOCTYPE svg PUBLIC "-//W3C//DTD SVG 1.1//EN"
    "http://www.w3.org/Graphics/SVG/1.1/DTD/svg11.dtd"><svg xmlns="http://www.w3.org/2000/svg" height="160.0000" stroke-opacity="1" viewBox="0 0 400 160" font-size="1" width="400.0000" xmlns:xlink="http://www.w3.org/1999/xlink" stroke="rgb(0,0,0)" version="1.1"><defs></defs><g stroke-linejoin="miter" stroke-opacity="1.0" fill-opacity="1.0" stroke="rgb(0,0,0)" stroke-width="1.0119288512538813" fill="rgb(128,0,128)" stroke-linecap="butt" stroke-miterlimit="10.0"><path d="M 400.0000,80.0000 c 0.0000,-44.1828 -35.8172,-80.0000 -80.0000 -80.0000c -44.1828,-0.0000 -80.0000,35.8172 -80.0000 80.0000c -0.0000,44.1828 35.8172,80.0000 80.0000 80.0000c 44.1828,0.0000 80.0000,-35.8172 80.0000 -80.0000Z"/></g><g stroke-linejoin="miter" stroke-opacity="1.0" fill-opacity="1.0" font-size="53.33333333333334px" stroke="rgb(0,0,0)" stroke-width="1.0119288512538813" fill="rgb(255,255,255)" stroke-linecap="butt" stroke-miterlimit="10.0"><text dominant-baseline="middle" transform="matrix(1.0000,0.0000,0.0000,1.0000,320.0000,80.0000)" stroke="none" text-anchor="middle">Cl</text></g><g stroke-linejoin="miter" stroke-opacity="1.0" fill-opacity="1.0" stroke="rgb(0,0,0)" stroke-width="1.0119288512538813" fill="rgb(255,0,0)" stroke-linecap="butt" stroke-miterlimit="10.0"><path d="M 106.6667,80.0000 c 0.0000,-29.4552 -23.8781,-53.3333 -53.3333 -53.3333c -29.4552,-0.0000 -53.3333,23.8781 -53.3333 53.3333c -0.0000,29.4552 23.8781,53.3333 53.3333 53.3333c 29.4552,0.0000 53.3333,-23.8781 53.3333 -53.3333Z"/></g><g stroke-linejoin="miter" stroke-opacity="1.0" fill-opacity="1.0" font-size="53.33333333333334px" stroke="rgb(0,0,0)" stroke-width="1.0119288512538813" fill="rgb(255,255,255)" stroke-linecap="butt" stroke-miterlimit="10.0"><text dominant-baseline="middle" transform="matrix(1.0000,0.0000,0.0000,1.0000,53.3333,80.0000)" stroke="none" text-anchor="middle">Na</text></g></svg>