<?xml version="1.0" encoding="UTF-8"?>
<!DOCTYPE svg PUBLIC "-//W3C//DTD SVG 1.1//EN"
    "http://www.w3.org/Graphics/SVG/1.1/DTD/svg11.dtd"><svg xmlns="http://www.w3.org/2000/svg" height="500.0000" stroke-opacity="1" viewBox="0 0 500 500" font-size="1" width="500.0000" xmlns:xlink="http://www.w3.org/1999/xlink" stroke="rgb(0,0,0)" version="1.1"><defs></defs><g stroke-linejoin="miter" stroke-opacity="1.0" fill-opacity="1.0" stroke="rgb(0,0,0)" stroke-width="2.0" fill="rgb(128,0,128)" stroke-linecap="butt" stroke-miterlimit="10.0"><path d="M 1225.0000,-62.5000 c 0.0000,-20.7107 -16.7893,-37.5000 -37.5000 -37.5000c -20.7107,-0.0000 -37.5000,16.7893 -37.5000 37.5000c -0.0000,20.7107 16.7893,37.5000 37.5000 37.5000c 20.7107,0.0000 37.5000,-16.7893 37.5000 -37.5000Z"/></g><g stroke-linejoin="miter" stroke-opacity="1.0" fill-opacity="1.0" font-size="25.0px" stroke="rgb(0,0,0)" stroke-width="2.0" fill="rgb(255,255,255)" stroke-linecap="butt" stroke-miterlimit="10.0"><text dominant-baseline="middle" transform="matrix(1.0000,0.0000,0.0000,1.0000,1187.5000,-62.5000)" stroke="none" text-anchor="middle">Cl</text></g><g stroke-linejoin="miter" stroke-opacity="1.0" fill-opacity="1.0" stroke="rgb(0,0,0)" stroke-width="2.0" fill="rgb(255,0,0)" stroke-linecap="butt" stroke-miterlimit="10.0"><path d="M 1087.5000,-62.5000 c 0.0000,-13.8071 -11.1929,-25.0000 -25.0000 -25.0000c -13.8071,-0.0000 -25.0000,11.1929 -25.0000 25.0000c -0.0000,13.8071 11.1929,25.0000 25.0000 25.0000c 13.8071,0.0000 25.0000,-11.1929 25.0000 -25.0000Z"/></g><g stroke-linejoin="miter" stroke-opacity="1.0" fill-opacity="1.0" font-size="25.0px" stroke="rgb(0,0,0)" stroke-width="2.0" fill="rgb(255,255,255)" stroke-linecap="butt" stroke-miterlimit="10.0"><text dominant-baseline="middle" transform="matrix(1.0000,0.0000,0.0000,1.0000,1062.5000,-62.5000)" stroke="none" text-anchor="middle">Na</text></g><g stroke-linejoin="miter" stroke-opacity="1.0" fill-opacity="1.0" stroke="rgb(0,0,0)" stroke-width="2.0" fill="rgb(128,0,128)" stroke-linecap="butt" stroke-miterlimit="10.0"><path d="M 1100.0000,62.5000 c 0.0000,-20.7107 -16.7893,-37.5000 -37.5000 -37.5000c -20.7107,-0.0000 -37.5000,16.7893 -37.5000 37.5000c -0.0000,20.7107 16.7893,37.5000 37.5000 37.5000c 20.7107,0.0000 37.5000,-16.7893 37.5000 -37.5000Z"/></g><g stroke-linejoin="miter" stroke-opacity="1.0" fill-opacity="1.0" font-size="25.0px" stroke="rgb(0,0,0)" stroke-width="2.0" fill="rgb(255,255,255)" stroke-linecap="butt" stroke-miterlimit="10.0"><text dominant-baseline="middle" transform="matrix(1.0000,0.0000,0.0000,1.0000,1062.5000,62.5000)" stroke="none" text-anchor="middle">Cl</text></g><g stroke-linejoin="miter" stroke-opacity="1.0" fill-opacity="1.0" stroke="rgb(0,0,0)" stroke-width="2.0" fill="rgb(255,0,0)" stroke-linecap="butt" stroke-miterlimit="10.0"><path d="M 962.5000,62.5000 c 0.0000,-13.8071 -11.1929,-25.0000 -25.0000 -25.0000c -13.8071,-0.0000 -25.0000,11.1929 -25.0000 25.0000c -0.0000,13.8071 11.1929,25.0000 25.0000 25.0000c 13.8071,0.0000 25.0000,-11.1929 25.0000 -25.0000Z"/></g><g stroke-linejoin="miter" stroke-opacity="1.0" fill-opacity="1.0" font-size="25.0px" stroke="rgb(0,0,0)" stroke-width="2.0" fill="rgb(255,255,255)" stroke-linecap="butt" stroke-miterlimit="10.0"><text dominant-baseline="middle" transform="matrix(1.0000,0.0000,0.0000,1.0000,937.5000,62.5000)" stroke="none" text-anchor="middle">Na</text></g><g stroke-linejoin="miter" stroke-opacity="1.0" fill-opacity="1.0" stroke="rgb(0,0,0)" stroke-width="2.0" fill="rgb(128,0,128)" stroke-linecap="butt" stroke-miterlimit="10.0"><path d="M 975.0000,187.5000 c 0.0000,-20.7107 -16.7893,-37.5000 -37.5000 -37.5000c -20.7107,-0.0000 -37.5000,16.7893 -37.5000 37.5000c -0.0000,20.7107 16.7893,37.5000 37.5000 37.5000c 20.7107,0.0000 37.5000,-16.7893 37.5000 -37.5000Z"/></g><g stroke-linejoin="miter" stroke-opacity="1.0" fill-opacity="1.0" font-size="25.0px" stroke="rgb(0,0,0)" stroke-width="2.0" fill="rgb(255,255,255)" stroke-linecap="butt" stroke-miterlimit="10.0"><text dominant-baseline="middle" transform="matrix(1.0000,0.0000,0.0000,1.0000,937.5000,187.5000)" stroke="none" text-anchor="middle">Cl</text></g><g stroke-linejoin="miter" stroke-opacity="1.0" fill-opacity="1.0" stroke="rgb(0,0,0)" stroke-width="2.0" fill="rgb(255,0,0)" stroke-linecap="butt" stroke-miterlimit="10.0"><path d="M 837.5000,187.5000 c 0.0000,-13.8071 -11.1929,-25.0000 -25.0000 -25.0000c -13.8071,-0.0000 -25.0000,11.1929 -25.0000 25.0000c -0.0000,13.8071 11.1929,25.0000 25.0000 25.0000c 13.8071,0.0000 25.0000,-11.1929 25.0000 -25.0000Z"/></g><g stroke-linejoin="miter" stroke-opacity="1.0" fill-opacity="1.0" font-size="25.0px" stroke="rgb(0,0,0)" stroke-width="2.0" fill="rgb(255,255,255)" stroke-linecap="butt" stroke-miterlimit="10.0"><text dominant-baseline="middle" transform="matrix(1.0000,0.0000,0.0000,1.0000,812.5000,187.5000)" stroke="none" text-anchor="middle">Na</text></g><g stroke-linejoin="miter" stroke-opacity="1.0" fill-opacity="1.0" stroke="rgb(0,0,0)" stroke-width="2.0" fill="rgb(128,0,128)" stroke-linecap="butt" stroke-miterlimit="10.0"><path d="M 850.0000,312.5000 c 0.0000,-20.7107 -16.7893,-37.5000 -37.5000 -37.5000c -20.7107,-0.0000 -37.5000,16.7893 -37.5000 37.5000c -0.0000,20.7107 16.7893,37.5000 37.5000 37.5000c 20.7107,0.0000 37.5000,-16.7893 37.5000 -37.5000Z"/></g><g stroke-linejoin="miter" stroke-opacity="1.0" fill-opacity="1.0" font-size="25.0px" stroke="rgb(0,0,0)" stroke-width="2.0" fill="rgb(255,255,255)" stroke-linecap="butt" stroke-miterlimit="10.0"><text dominant-baseline="middle" transform="matrix(1.0000,0.0000,0.0000,1.0000,812.5000,312.5000)" stroke="none" text-anchor="middle">Cl</text></g><g stroke-linejoin="miter" stroke-opacity="1.0" fill-opacity="1.0" stroke="rgb(0,0,0)" stroke-width="2.0" fill="rgb(255,0,0)" stroke-linecap="butt" stroke-miterlimit="10.0"><path d="M 712.5000,312.5000 c 0.0000,-13.8071 -11.1929,-25.0000 -25.0000 -25.0000c -13.8071,-0.0000 -25.0000,11.1929 -25.0000 25.0000c -0.0000,13.8071 11.1929,25.0000 25.0000 25.0000c 13.8071,0.0000 25.0000,-11.1929 25.0000 -25.0000Z"/></g><g stroke-linejoin="miter" stroke-opacity="1.0" fill-opacity="1.0" font-size="25.0px" stroke="rgb(0,0,0)" stroke-width="2.0" fill="rgb(255,255,255)" stroke-linecap="butt" stroke-miterlimit="10.0"><text dominant-baseline="middle" transform="matrix(1.0000,0.0000,0.0000,1.0000,687.5000,312.5000)" stroke="none" text-anchor="middle">Na</text></g><g stroke-linejoin="miter" stroke-opacity="1.0" fill-opacity="1.0" stroke="rgb(0,0,0)" stroke-width="2.0" fill="rgb(128,0,128)" stroke-linecap="butt" stroke-miterlimit="10.0"><path d="M 725.0000,437.5000 c 0.0000,-20.7107 -16.7893,-37.5000 -37.5000 -37.5000c -20.7107,-0.0000 -37.5000,16.7893 -37.5000 37.5000c -0.0000,20.7107 16.7893,37.5000 37.5000 37.5000c 20.7107,0.0000 37.5000,-16.7893 37.5000 -37.5000Z"/></g><g stroke-linejoin="miter" stroke-opacity="1.0" fill-opacity="1.0" font-size="25.0px" stroke="rgb(0,0,0)" stroke-width="2.0" fill="rgb(255,255,255)" stroke-linecap="butt" stroke-miterlimit="10.0"><text dominant-baseline="middle" transform="matrix(1.0000,0.0000,0.0000,1.0000,687.5000,437.5000)" stroke="none" text-anchor="middle">Cl</text></g><g stroke-linejoin="miter" stroke-opacity="1.0" fill-opacity="1.0" stroke="rgb(0,0,0)" stroke-width="2.0" fill="rgb(255,0,0)" stroke-linecap="butt" stroke-miterlimit="10.0"><path d="M 587.5000,437.5000 c 0.0000,-13.8071 -11.1929,-25.0000 -25.0000 -25.0000c -13.8071,-0.0000 -25.0000,11.1929 -25.0000 25.0000c -0.0000,13.8071 11.1929,25.0000 25.0000 25.0000c 13.8071,0.0000 25.0000,-11.1929 25.0000 -25.0000Z"/></g><g stroke-linejoin="miter" stroke-opacity="1.0" fill-opacity="1.0" font-size="25.0px" stroke="rgb(0,0,0)" stroke-width="2.0" fill="rgb(255,255,255)" stroke-linecap="butt" stroke-miterlimit="10.0"><text dominant-baseline="middle" transform="matrix(1.0000,0.0000,0.0000,1.0000,562.5000,437.5000)" stroke="none" text-anchor="middle">Na</text></g><g stroke-linejoin="miter" stroke-opacity="1.0" fill-opacity="1.0" stroke="rgb(0,0,0)" stroke-width="2.0" fill="rgb(128,0,128)" stroke-linecap="butt" stroke-miterlimit="10.0"><path d="M 975.0000,-62.5000 c 0.0000,-20.7107 -16.7893,-37.5000 -37.5000 -37.5000c -20.7107,-0.0000 -37.5000,16.7893 -37.5000 37.5000c -0.0000,20.7107 16.7893,37.5000 37.5000 37.5000c 20.7107,0.0000 37.5000,-16.7893 37.5000 -37.5000Z"/></g><g stroke-linejoin="miter" stroke-opacity="1.0" fill-opacity="1.0" font-size="25.0px" stroke="rgb(0,0,0)" stroke-width="2.0" fill="rgb(255,255,255)" stroke-linecap="butt" stroke-miterlimit="10.0"><text dominant-baseline="middle" transform="matrix(1.0000,0.0000,0.0000,1.0000,937.5000,-62.5000)" stroke="none" text-anchor="middle">Cl</text></g><g stroke-linejoin="miter" stroke-opacity="1.0" fill-opacity="1.0" stroke="rgb(0,0,0)" stroke-width="2.0" fill="rgb(255,0,0)" stroke-linecap="butt" stroke-miterlimit="10.0"><path d="M 837.5000,-62.5000 c 0.0000,-13.8071 -11.1929,-25.0000 -25.0000 -25.0000c -13.8071,-0.0000 -25.0000,11.1929 -25.0000 25.0000c -0.0000,13.8071 11.1929,25.0000 25.0000 25.0000c 13.8071,0.0000 25.0000,-11.1929 25.0000 -25.0000Z"/></g><g stroke-linejoin="miter" stroke-opacity="1.0" fill-opacity="1.0" font-size="25.0px" stroke="rgb(0,0,0)" stroke-width="2.0" fill="rgb(255,255,255)" stroke-linecap="butt" stroke-miterlimit="10.0"><text dominant-baseline="middle" transform="matrix(1.0000,0.0000,0.0000,1.0000,812.5000,-62.5000)" stroke="none" text-anchor="middle">Na</text></g><g stroke-linejoin="miter" stroke-opacity="1.0" fill-opacity="1.0" stroke="rgb(0,0,0)" stroke-width="2.0" fill="rgb(128,0,128)" stroke-linecap="butt" stroke-miterlimit="10.0"><path d="M 850.0000,62.5000 c 0.0000,-20.7107 -16.7893,-37.5000 -37.5000 -37.5000c -20.7107,-0.0000 -37.5000,16.7893 -37.5000 37.5000c -0.0000,20.7107 16.7893,37.5000 37.5000 37.5000c 20.7107,0.0000 37.5000,-16.7893 37.5000 -37.5000Z"/></g><g stroke-linejoin="miter" stroke-opacity="1.0" fill-opacity="1.0" font-size="25.0px" stroke="rgb(0,0,0)" stroke-width="2.0" fill="rgb(255,255,255)" stroke-linecap="butt" stroke-miterlimit="10.0"><text dominant-baseline="middle" transform="matrix(1.0000,0.0000,0.0000,1.0000,812.5000,62.5000)" stroke="none" text-anchor="middle">Cl</text></g><g stroke-linejoin="miter" stroke-opacity="1.0" fill-opacity="1.0" stroke="rgb(0,0,0)" stroke-width="2.0" fill="rgb(255,0,0)" stroke-linecap="butt" stroke-miterlimit="10.0"><path d="M 712.5000,62.5000 c 0.0000,-13.8071 -11.1929,-25.0000 -25.0000 -25.0000c -13.8071,-0.0000 -25.0000,11.1929 -25.0000 25.0000c -0.0000,13.8071 11.1929,25.0000 25.0000 25.0000c 13.8071,0.0000 25.0000,-11.1929 25.0000 -25.0000Z"/></g><g stroke-linejoin="miter" stroke-opacity="1.0" fill-opacity="1.0" font-size="25.0px" stroke="rgb(0,0,0)" stroke-width="2.0" fill="rgb(255,255,255)" stroke-linecap="butt" stroke-miterlimit="10.0"><text dominant-baseline="middle" transform="matrix(1.0000,0.0000,0.0000,1.0000,687.5000,62.5000)" stroke="none" text-anchor="middle">Na</text></g><g stroke-linejoin="miter" stroke-opacity="1.0" fill-opacity="1.0" stroke="rgb(0,0,0)" stroke-width="2.0" fill="rgb(128,0,128)" stroke-linecap="butt" stroke-miterlimit="10.0"><path d="M 725.0000,187.5000 c 0.0000,-20.7107 -16.7893,-37.5000 -37.5000 -37.5000c -20.7107,-0.0000 -37.5000,16.7893 -37.5000 37.5000c -0.0000,20.7107 16.7893,37.5000 37.5000 37.5000c 20.7107,0.0000 37.5000,-16.7893 37.5000 -37.5000Z"/></g><g stroke-linejoin="miter" stroke-opacity="1.0" fill-opacity="1.0" font-size="25.0px" stroke="rgb(0,0,0)" stroke-width="2.0" fill="rgb(255,255,255)" stroke-linecap="butt" stroke-miterlimit="10.0"><text dominant-baseline="middle" transform="matrix(1.0000,0.0000,0.0000,1.0000,687.5000,187.5000)" stroke="none" text-anchor="middle">Cl</text></g><g stroke-linejoin="miter" stroke-opacity="1.0" fill-opacity="1.0" stroke="rgb(0,0,0)" stroke-width="2.0" fill="rgb(255,0,0)" stroke-linecap="butt" stroke-miterlimit="10.0"><path d="M 587.5000,187.5000 c 0.0000,-13.8071 -11.1929,-25.0000 -25.0000 -25.0000c -13.8071,-0.0000 -25.0000,11.1929 -25.0000 25.0000c -0.0000,13.8071 11.1929,25.0000 25.0000 25.0000c 13.8071,0.0000 25.0000,-11.1929 25.0000 -25.0000Z"/></g><g stroke-linejoin="miter" stroke-opacity="1.0" fill-opacity="1.0" font-size="25.0px" stroke="rgb(0,0,0)" stroke-width="2.0" fill="rgb(255,255,255)" stroke-linecap="butt" stroke-miterlimit="10.0"><text dominant-baseline="middle" transform="matrix(1.0000,0.0000,0.0000,1.0000,562.5000,187.5000)" stroke="none" text-anchor="middle">Na</text></g><g stroke-linejoin="miter" stroke-opacity="1.0" fill-opacity="1.0" stroke="rgb(0,0,0)" stroke-width="2.0" fill="rgb(128,0,128)" stroke-linecap="butt" stroke-miterlimit="10.0"><path d="M 600.0000,312.5000 c 0.0000,-20.7107 -16.7893,-37.5000 -37.5000 -37.5000c -20.7107,-0.0000 -37.5000,16.7893 -37.5000 37.5000c -0.0000,20.7107 16.7893,37.5000 37.5000 37.5000c 20.7107,0.0000 37.5000,-16.7893 37.5000 -37.5000Z"/></g><g stroke-linejoin="miter" stroke-opacity="1.0" fill-opacity="1.0" font-size="25.0px" stroke="rgb(0,0,0)" stroke-width="2.0" fill="rgb(255,255,255)" stroke-linecap="butt" stroke-miterlimit="10.0"><text dominant-baseline="middle" transform="matrix(1.0000,0.0000,0.0000,1.0000,562.5000,312.5000)" stroke="none" text-anchor="middle">Cl</text></g><g stroke-linejoin="miter" stroke-opacity="1.0" fill-opacity="1.0" stroke="rgb(0,0,0)" stroke-width="2.0" fill="rgb(255,0,0)" stroke-linecap="butt" stroke-miterlimit="10.0"><path d="M 462.5000,312.5000 c 0.0000,-13.8071 -11.1929,-25.0000 -25.0000 -25.0000c -13.8071,-0.0000 -25.0000,11.1929 -25.0000 25.0000c -0.0000,13.8071 11.1929,25.0000 25.0000 25.0000c 13.8071,0.0000 25.0000,-11.1929 25.0000 -25.0000Z"/></g><g stroke-linejoin="miter" stroke-opacity="1.0" fill-opacity="1.0" font-size="25.0px" stroke="rgb(0,0,0)" stroke-width="2.0" fill="rgb(255,255,255)" stroke-linecap="butt" stroke-miterlimit="10.0"><text dominant-baseline="middle" transform="matrix(1.0000,0.0000,0.0000,1.0000,437.5000,312.5000)" stroke="none" text-anchor="middle">Na</text></g><g stroke-linejoin="miter" stroke-opacity="1.0" fill-opacity="1.0" stroke="rgb(0,0,0)" stroke-width="2.0" fill="rgb(128,0,128)" stroke-linecap="butt" stroke-miterlimit="10.0"><path d="M 475.0000,437.5000 c 0.0000,-20.7107 -16.7893,-37.5000 -37.5000 -37.5000c -20.7107,-0.0000 -37.5000,16.7893 -37.5000 37.5000c -0.0000,20.7107 16.7893,37.5000 37.5000 37.5000c 20.7107,0.0000 37.5000,-16.7893 37.5000 -37.5000Z"/></g><g stroke-linejoin="miter" stroke-opacity="1.0" fill-opacity="1.0" font-size="25.0px" stroke="rgb(0,0,0)" stroke-width="2.0" fill="rgb(255,255,255)" stroke-linecap="butt" stroke-miterlimit="10.0"><text dominant-baseline="middle" transform="matrix(1.0000,0.0000,0.0000,1.0000,437.5000,437.5000)" stroke="none" text-anchor="middle">Cl</text></g><g stroke-linejoin="miter" stroke-opacity="1.0" fill-opacity="1.0" stroke="rgb(0,0,0)" stroke-width="2.0" fill="rgb(255,0,0)" stroke-linecap="butt" stroke-miterlimit="10.0"><path d="M 337.5000,437.5000 c 0.0000,-13.8071 -11.1929,-25.0000 -25.0000 -25.0000c -13.8071,-0.0000 -25.0000,11.1929 -25.0000 25.0000c -0.0000,13.8071 11.1929,25.0000 25.0000 25.0000c 13.8071,0.0000 25.0000,-11.1929 25.0000 -25.0000Z"/></g><g stroke-linejoin="miter" stroke-opacity="1.0" fill-opacity="1.0" font-size="25.0px" stroke="rgb(0,0,0)" stroke-width="2.0" fill="rgb(255,255,255)" stroke-linecap="butt" stroke-miterlimit="10.0"><text dominant-baseline="middle" transform="matrix(1.0000,0.0000,0.0000,1.0000,312.5000,437.5000)" stroke="none" text-anchor="middle">Na</text></g><g stroke-linejoin="miter" stroke-opacity="1.0" fill-opacity="1.0" stroke="rgb(0,0,0)" stroke-width="2.0" fill="rgb(128,0,128)" stroke-linecap="butt" stroke-miterlimit="10.0"><path d="M 725.0000,-62.5000 c 0.0000,-20.7107 -16.7893,-37.5000 -37.5000 -37.5000c -20.7107,-0.0000 -37.5000,16.7893 -37.5000 37.5000c -0.0000,20.7107 16.7893,37.5000 37.5000 37.5000c 20.7107,0.0000 37.5000,-16.7893 37.5000 -37.5000Z"/></g><g stroke-linejoin="miter" stroke-opacity="1.0" fill-opacity="1.0" font-size="25.0px" stroke="rgb(0,0,0)" stroke-width="2.0" fill="rgb(255,255,255)" stroke-linecap="butt" stroke-miterlimit="10.0"><text dominant-baseline="middle" transform="matrix(1.0000,0.0000,0.0000,1.0000,687.5000,-62.5000)" stroke="none" text-anchor="middle">Cl</text></g><g stroke-linejoin="miter" stroke-opacity="1.0" fill-opacity="1.0" stroke="rgb(0,0,0)" stroke-width="2.0" fill="rgb(255,0,0)" stroke-linecap="butt" stroke-miterlimit="10.0"><path d="M 587.5000,-62.5000 c 0.0000,-13.8071 -11.1929,-25.0000 -25.0000 -25.0000c -13.8071,-0.0000 -25.0000,11.1929 -25.0000 25.0000c -0.0000,13.8071 11.1929,25.0000 25.0000 25.0000c 13.8071,0.0000 25.0000,-11.1929 25.0000 -25.0000Z"/></g><g stroke-linejoin="miter" stroke-opacity="1.0" fill-opacity="1.0" font-size="25.0px" stroke="rgb(0,0,0)" stroke-width="2.0" fill="rgb(255,255,255)" stroke-linecap="butt" stroke-miterlimit="10.0"><text dominant-baseline="middle" transform="matrix(1.0000,0.0000,0.0000,1.0000,562.5000,-62.5000)" stroke="none" text-anchor="middle">Na</text></g><g stroke-linejoin="miter" stroke-opacity="1.0" fill-opacity="1.0" stroke="rgb(0,0,0)" stroke-width="2.0" fill="rgb(128,0,128)" stroke-linecap="butt" stroke-miterlimit="10.0"><path d="M 600.0000,62.5000 c 0.0000,-20.7107 -16.7893,-37.5000 -37.5000 -37.5000c -20.7107,-0.0000 -37.5000,16.7893 -37.5000 37.5000c -0.0000,20.7107 16.7893,37.5000 37.5000 37.5000c 20.7107,0.0000 37.5000,-16.7893 37.5000 -37.5000Z"/></g><g stroke-linejoin="miter" stroke-opacity="1.0" fill-opacity="1.0" font-size="25.0px" stroke="rgb(0,0,0)" stroke-width="2.0" fill="rgb(255,255,255)" stroke-linecap="butt" stroke-miterlimit="10.0"><text dominant-baseline="middle" transform="matrix(1.0000,0.0000,0.0000,1.0000,562.5000,62.5000)" stroke="none" text-anchor="middle">Cl</text></g><g stroke-linejoin="miter" stroke-opacity="1.0" fill-opacity="1.0" stroke="rgb(0,0,0)" stroke-width="2.0" fill="rgb(255,0,0)" stroke-linecap="butt" stroke-miterlimit="10.0"><path d="M 462.5000,62.5000 c 0.0000,-13.8071 -11.1929,-25.0000 -25.0000 -25.0000c -13.8071,-0.0000 -25.0000,11.1929 -25.0000 25.0000c -0.0000,13.8071 11.1929,25.0000 25.0000 25.0000c 13.8071,0.0000 25.0000,-11.1929 25.0000 -25.0000Z"/></g><g stroke-linejoin="miter" stroke-opacity="1.0" fill-opacity="1.0" font-size="25.0px" stroke="rgb(0,0,0)" stroke-width="2.0" fill="rgb(255,255,255)" stroke-linecap="butt" stroke-miterlimit="10.0"><text dominant-baseline="middle" transform="matrix(1.0000,0.0000,0.0000,1.0000,437.5000,62.5000)" stroke="none" text-anchor="middle">Na</text></g><g stroke-linejoin="miter" stroke-opacity="1.0" fill-opacity="1.0" stroke="rgb(0,0,0)" stroke-width="2.0" fill="rgb(128,0,128)" stroke-linecap="butt" stroke-miterlimit="10.0"><path d="M 475.0000,187.5000 c 0.0000,-20.7107 -16.7893,-37.5000 -37.5000 -37.5000c -20.7107,-0.0000 -37.5000,16.7893 -37.5000 37.5000c -0.0000,20.7107 16.7893,37.5000 37.5000 37.5000c 20.7107,0.0000 37.5000,-16.7893 37.5000 -37.5000Z"/></g><g stroke-linejoin="miter" stroke-opacity="1.0" fill-opacity="1.0" font-size="25.0px" stroke="rgb(0,0,0)" stroke-width="2.0" fill="rgb(255,255,255)" stroke-linecap="butt" stroke-miterlimit="10.0"><text dominant-baseline="middle" transform="matrix(1.0000,0.0000,0.0000,1.0000,437.5000,187.5000)" stroke="none" text-anchor="middle">Cl</text></g><g stroke-linejoin="miter" stroke-opacity="1.0" fill-opacity="1.0" stroke="rgb(0,0,0)" stroke-width="2.0" fill="rgb(255,0,0)" stroke-linecap="butt" stroke-miterlimit="10.0"><path d="M 337.5000,187.5000 c 0.0000,-13.8071 -11.1929,-25.0000 -25.0000 -25.0000c -13.8071,-0.0000 -25.0000,11.1929 -25.0000 25.0000c -0.0000,13.8071 11.1929,25.0000 25.0000 25.0000c 13.8071,0.0000 25.0000,-11.1929 25.0000 -25.0000Z"/></g><g stroke-linejoin="miter" stroke-opacity="1.0" fill-opacity="1.0" font-size="25.0px" stroke="rgb(0,0,0)" stroke-width="2.0" fill="rgb(255,255,255)" stroke-linecap="butt" stroke-miterlimit="10.0"><text dominant-baseline="middle" transform="matrix(1.0000,0.0000,0.0000,1.0000,312.5000,187.5000)" stroke="none" text-anchor="middle">Na</text></g><g stroke-linejoin="miter" stroke-opacity="1.0" fill-opacity="1.0" stroke="rgb(0,0,0)" stroke-width="2.0" fill="rgb(128,0,128)" stroke-linecap="butt" stroke-miterlimit="10.0"><path d="M 350.0000,312.5000 c 0.0000,-20.7107 -16.7893,-37.5000 -37.5000 -37.5000c -20.7107,-0.0000 -37.5000,16.7893 -37.5000 37.5000c -0.0000,20.7107 16.7893,37.5000 37.5000 37.5000c 20.7107,0.0000 37.5000,-16.7893 37.5000 -37.5000Z"/></g><g stroke-linejoin="miter" stroke-opacity="1.0" fill-opacity="1.0" font-size="25.0px" stroke="rgb(0,0,0)" stroke-width="2.0" fill="rgb(255,255,255)" stroke-linecap="butt" stroke-miterlimit="10.0"><text dominant-baseline="middle" transform="matrix(1.0000,0.0000,0.0000,1.0000,312.5000,312.5000)" stroke="none" text-anchor="middle">Cl</text></g><g stroke-linejoin="miter" stroke-opacity="1.0" fill-opacity="1.0" stroke="rgb(0,0,0)" stroke-width="2.0" fill="rgb(255,0,0)" stroke-linecap="butt" stroke-miterlimit="10.0"><path d="M 212.5000,312.5000 c 0.0000,-13.8071 -11.1929,-25.0000 -25.0000 -25.0000c -13.8071,-0.0000 -25.0000,11.1929 -25.0000 25.0000c -0.0000,13.8071 11.1929,25.0000 25.0000 25.0000c 13.8071,0.0000 25.0000,-11.1929 25.0000 -25.0000Z"/></g><g stroke-linejoin="miter" stroke-opacity="1.0" fill-opacity="1.0" font-size="25.0px" stroke="rgb(0,0,0)" stroke-width="2.0" fill="rgb(255,255,255)" stroke-linecap="butt" stroke-miterlimit="10.0"><text dominant-baseline="middle" transform="matrix(1.0000,0.0000,0.0000,1.0000,187.5000,312.5000)" stroke="none" text-anchor="middle">Na</text></g><g stroke-linejoin="miter" stroke-opacity="1.0" fill-opacity="1.0" stroke="rgb(0,0,0)" stroke-width="2.0" fill="rgb(128,0,128)" stroke-linecap="butt" stroke-miterlimit="10.0"><path d="M 225.0000,437.5000 c 0.0000,-20.7107 -16.7893,-37.5000 -37.5000 -37.5000c -20.7107,-0.0000 -37.5000,16.7893 -37.5000 37.5000c -0.0000,20.7107 16.7893,37.5000 37.5000 37.5000c 20.7107,0.0000 37.5000,-16.7893 37.5000 -37.5000Z"/></g><g stroke-linejoin="miter" stroke-opacity="1.0" fill-opacity="1.0" font-size="25.0px" stroke="rgb(0,0,0)" stroke-width="2.0" fill="rgb(255,255,255)" stroke-linecap="butt" stroke-miterlimit="10.0"><text dominant-baseline="middle" transform="matrix(1.0000,0.0000,0.0000,1.0000,187.5000,437.5000)" stroke="none" text-anchor="middle">Cl</text></g><g stroke-linejoin="miter" stroke-opacity="1.0" fill-opacity="1.0" stroke="rgb(0,0,0)" stroke-width="2.0" fill="rgb(255,0,0)" stroke-linecap="butt" stroke-miterlimit="10.0"><path d="M 87.5000,437.5000 c 0.0000,-13.8071 -11.1929,-25.0000 -25.0000 -25.0000c -13.8071,-0.0000 -25.0000,11.1929 -25.0000 25.0000c -0.0000,13.8071 11.1929,25.0000 25.0000 25.0000c 13.8071,0.0000 25.0000,-11.1929 25.0000 -25.0000Z"/></g><g stroke-linejoin="miter" stroke-opacity="1.0" fill-opacity="1.0" font-size="25.0px" stroke="rgb(0,0,0)" stroke-width="2.0" fill="rgb(255,255,255)" stroke-linecap="butt" stroke-miterlimit="10.0"><text dominant-baseline="middle" transform="matrix(1.0000,0.0000,0.0000,1.0000,62.5000,437.5000)" stroke="none" text-anchor="middle">Na</text></g><g stroke-linejoin="miter" stroke-opacity="1.0" fill-opacity="1.0" stroke="rgb(0,0,0)" stroke-width="2.0" fill="rgb(128,0,128)" stroke-linecap="butt" stroke-miterlimit="10.0"><path d="M 475.0000,-62.5000 c 0.0000,-20.7107 -16.7893,-37.5000 -37.5000 -37.5000c -20.7107,-0.0000 -37.5000,16.7893 -37.5000 37.5000c -0.0000,20.7107 16.7893,37.5000 37.5000 37.5000c 20.7107,0.0000 37.5000,-16.7893 37.5000 -37.5000Z"/></g><g stroke-linejoin="miter" stroke-opacity="1.0" fill-opacity="1.0" font-size="25.0px" stroke="rgb(0,0,0)" stroke-width="2.0" fill="rgb(255,255,255)" stroke-linecap="butt" stroke-miterlimit="10.0"><text dominant-baseline="middle" transform="matrix(1.0000,0.0000,0.0000,1.0000,437.5000,-62.5000)" stroke="none" text-anchor="middle">Cl</text></g><g stroke-linejoin="miter" stroke-opacity="1.0" fill-opacity="1.0" stroke="rgb(0,0,0)" stroke-width="2.0" fill="rgb(255,0,0)" stroke-linecap="butt" stroke-miterlimit="10.0"><path d="M 337.5000,-62.5000 c 0.0000,-13.8071 -11.1929,-25.0000 -25.0000 -25.0000c -13.8071,-0.0000 -25.0000,11.1929 -25.0000 25.0000c -0.0000,13.8071 11.1929,25.0000 25.0000 25.0000c 13.8071,0.0000 25.0000,-11.1929 25.0000 -25.0000Z"/></g><g stroke-linejoin="miter" stroke-opacity="1.0" fill-opacity="1.0" font-size="25.0px" stroke="rgb(0,0,0)" stroke-width="2.0" fill="rgb(255,255,255)" stroke-linecap="butt" stroke-miterlimit="10.0"><text dominant-baseline="middle" transform="matrix(1.0000,0.0000,0.0000,1.0000,312.5000,-62.5000)" stroke="none" text-anchor="middle">Na</text></g><g stroke-linejoin="miter" stroke-opacity="1.0" fill-opacity="1.0" stroke="rgb(0,0,0)" stroke-width="2.0" fill="rgb(128,0,128)" stroke-linecap="butt" stroke-miterlimit="10.0"><path d="M 350.0000,62.5000 c 0.0000,-20.7107 -16.7893,-37.5000 -37.5000 -37.5000c -20.7107,-0.0000 -37.5000,16.7893 -37.5000 37.5000c -0.0000,20.7107 16.7893,37.5000 37.5000 37.5000c 20.7107,0.0000 37.5000,-16.7893 37.5000 -37.5000Z"/></g><g stroke-linejoin="miter" stroke-opacity="1.0" fill-opacity="1.0" font-size="25.0px" stroke="rgb(0,0,0)" stroke-width="2.0" fill="rgb(255,255,255)" stroke-linecap="butt" stroke-miterlimit="10.0"><text dominant-baseline="middle" transform="matrix(1.0000,0.0000,0.0000,1.0000,312.5000,62.5000)" stroke="none" text-anchor="middle">Cl</text></g><g stroke-linejoin="miter" stroke-opacity="1.0" fill-opacity="1.0" stroke="rgb(0,0,0)" stroke-width="2.0" fill="rgb(255,0,0)" stroke-linecap="butt" stroke-miterlimit="10.0"><path d="M 212.5000,62.5000 c 0.0000,-13.8071 -11.1929,-25.0000 -25.0000 -25.0000c -13.8071,-0.0000 -25.0000,11.1929 -25.0000 25.0000c -0.0000,13.8071 11.1929,25.0000 25.0000 25.0000c 13.8071,0.0000 25.0000,-11.1929 25.0000 -25.0000Z"/></g><g stroke-linejoin="miter" stroke-opacity="1.0" fill-opacity="1.0" font-size="25.0px" stroke="rgb(0,0,0)" stroke-width="2.0" fill="rgb(255,255,255)" stroke-linecap="butt" stroke-miterlimit="10.0"><text dominant-baseline="middle" transform="matrix(1.0000,0.0000,0.0000,1.0000,187.5000,62.5000)" stroke="none" text-anchor="middle">Na</text></g><g stroke-linejoin="miter" stroke-opacity="1.0" fill-opacity="1.0" stroke="rgb(0,0,0)" stroke-width="2.0" fill="rgb(128,0,128)" stroke-linecap="butt" stroke-miterlimit="10.0"><path d="M 225.0000,187.5000 c 0.0000,-20.7107 -16.7893,-37.5000 -37.5000 -37.5000c -20.7107,-0.0000 -37.5000,16.7893 -37.5000 37.5000c -0.0000,20.7107 16.7893,37.5000 37.5000 37.5000c 20.7107,0.0000 37.5000,-16.7893 37.5000 -37.5000Z"/></g><g stroke-linejoin="miter" stroke-opacity="1.0" fill-opacity="1.0" font-size="25.0px" stroke="rgb(0,0,0)" stroke-width="2.0" fill="rgb(255,255,255)" stroke-linecap="butt" stroke-miterlimit="10.0"><text dominant-baseline="middle" transform="matrix(1.0000,0.0000,0.0000,1.0000,187.5000,187.5000)" stroke="none" text-anchor="middle">Cl</text></g><g stroke-linejoin="miter" stroke-opacity="1.0" fill-opacity="1.0" stroke="rgb(0,0,0)" stroke-width="2.0" fill="rgb(255,0,0)" stroke-linecap="butt" stroke-miterlimit="10.0"><path d="M 87.5000,187.5000 c 0.0000,-13.8071 -11.1929,-25.0000 -25.0000 -25.0000c -13.8071,-0.0000 -25.0000,11.1929 -25.0000 25.0000c -0.0000,13.8071 11.1929,25.0000 25.0000 25.0000c 13.8071,0.0000 25.0000,-11.1929 25.0000 -25.0000Z"/></g><g stroke-linejoin="miter" stroke-opacity="1.0" fill-opacity="1.0" font-size="25.0px" stroke="rgb(0,0,0)" stroke-width="2.0" fill="rgb(255,255,255)" stroke-linecap="butt" stroke-miterlimit="10.0"><text dominant-baseline="middle" transform="matrix(1.0000,0.0000,0.0000,1.0000,62.5000,187.5000)" stroke="none" text-anchor="middle">Na</text></g><g stroke-linejoin="miter" stroke-opacity="1.0" fill-opacity="1.0" stroke="rgb(0,0,0)" stroke-width="2.0" fill="rgb(128,0,128)" stroke-linecap="butt" stroke-miterlimit="10.0"><path d="M 100.0000,312.5000 c 0.0000,-20.7107 -16.7893,-37.5000 -37.5000 -37.5000c -20.7107,-0.0000 -37.5000,16.7893 -37.5000 37.5000c -0.0000,20.7107 16.7893,37.5000 37.5000 37.5000c 20.7107,0.0000 37.5000,-16.7893 37.5000 -37.5000Z"/></g><g stroke-linejoin="miter" stroke-opacity="1.0" fill-opacity="1.0" font-size="25.0px" stroke="rgb(0,0,0)" stroke-width="2.0" fill="rgb(255,255,255)" stroke-linecap="butt" stroke-miterlimit="10.0"><text dominant-baseline="middle" transform="matrix(1.0000,0.0000,0.0000,1.0000,62.5000,312.5000)" stroke="none" text-anchor="middle">Cl</text></g><g stroke-linejoin="miter" stroke-opacity="1.0" fill-opacity="1.0" stroke="rgb(0,0,0)" stroke-width="2.0" fill="rgb(255,0,0)" stroke-linecap="butt" stroke-miterlimit="10.0"><path d="M -37.5000,312.5000 c 0.0000,-13.8071 -11.1929,-25.0000 -25.0000 -25.0000c -13.8071,-0.0000 -25.0000,11.1929 -25.0000 25.0000c -0.0000,13.8071 11.1929,25.0000 25.0000 25.0000c 13.8071,0.0000 25.0000,-11.1929 25.0000 -25.0000Z"/></g><g stroke-linejoin="miter" stroke-opacity="1.0" fill-opacity="1.0" font-size="25.0px" stroke="rgb(0,0,0)" stroke-width="2.0" fill="rgb(255,255,255)" stroke-linecap="butt" stroke-miterlimit="10.0"><text dominant-baseline="middle" transform="matrix(1.0000,0.0000,0.0000,1.0000,-62.5000,312.5000)" stroke="none" text-anchor="middle">Na</text></g><g stroke-linejoin="miter" stroke-opacity="1.0" fill-opacity="1.0" stroke="rgb(0,0,0)" stroke-width="2.0" fill="rgb(128,0,128)" stroke-linecap="butt" stroke-miterlimit="10.0"><path d="M -25.0000,437.5000 c 0.0000,-20.7107 -16.7893,-37.5000 -37.5000 -37.5000c -20.7107,-0.0000 -37.5000,16.7893 -37.5000 37.5000c -0.0000,20.7107 16.7893,37.5000 37.5000 37.5000c 20.7107,0.0000 37.5000,-16.7893 37.5000 -37.5000Z"/></g><g stroke-linejoin="miter" stroke-opacity="1.0" fill-opacity="1.0" font-size="25.0px" stroke="rgb(0,0,0)" stroke-width="2.0" fill="rgb(255,255,255)" stroke-linecap="butt" stroke-miterlimit="10.0"><text dominant-baseline="middle" transform="matrix(1.0000,0.0000,0.0000,1.0000,-62.5000,437.5000)" stroke="none" text-anchor="middle">Cl</text></g><g stroke-linejoin="miter" stroke-opacity="1.0" fill-opacity="1.0" stroke="rgb(0,0,0)" stroke-width="2.0" fill="rgb(255,0,0)" stroke-linecap="butt" stroke-miterlimit="10.0"><path d="M -162.5000,437.5000 c 0.0000,-13.8071 -11.1929,-25.0000 -25.0000 -25.0000c -13.8071,-0.0000 -25.0000,11.1929 -25.0000 25.0000c -0.0000,13.8071 11.1929,25.0000 25.0000 25.0000c 13.8071,0.0000 25.0000,-11.1929 25.0000 -25.0000Z"/></g><g stroke-linejoin="miter" stroke-opacity="1.0" fill-opacity="1.0" font-size="25.0px" stroke="rgb(0,0,0)" stroke-width="2.0" fill="rgb(255,255,255)" stroke-linecap="butt" stroke-miterlimit="10.0"><text dominant-baseline="middle" transform="matrix(1.0000,0.0000,0.0000,1.0000,-187.5000,437.5000)" stroke="none" text-anchor="middle">Na</text></g><g stroke-linejoin="miter" stroke-opacity="1.0" fill-opacity="1.0" stroke="rgb(0,0,0)" stroke-width="2.0" fill="rgb(128,0,128)" stroke-linecap="butt" stroke-miterlimit="10.0"><path d="M 225.0000,-62.5000 c 0.0000,-20.7107 -16.7893,-37.5000 -37.5000 -37.5000c -20.7107,-0.0000 -37.5000,16.7893 -37.5000 37.5000c -0.0000,20.7107 16.7893,37.5000 37.5000 37.5000c 20.7107,0.0000 37.5000,-16.7893 37.5000 -37.5000Z"/></g><g stroke-linejoin="miter" stroke-opacity="1.0" fill-opacity="1.0" font-size="25.0px" stroke="rgb(0,0,0)" stroke-width="2.0" fill="rgb(255,255,255)" stroke-linecap="butt" stroke-miterlimit="10.0"><text dominant-baseline="middle" transform="matrix(1.0000,0.0000,0.0000,1.0000,187.5000,-62.5000)" stroke="none" text-anchor="middle">Cl</text></g><g stroke-linejoin="miter" stroke-opacity="1.0" fill-opacity="1.0" stroke="rgb(0,0,0)" stroke-width="2.0" fill="rgb(255,0,0)" stroke-linecap="butt" stroke-miterlimit="10.0"><path d="M 87.5000,-62.5000 c 0.0000,-13.8071 -11.1929,-25.0000 -25.0000 -25.0000c -13.8071,-0.0000 -25.0000,11.1929 -25.0000 25.0000c -0.0000,13.8071 11.1929,25.0000 25.0000 25.0000c 13.8071,0.0000 25.0000,-11.1929 25.0000 -25.0000Z"/></g><g stroke-linejoin="miter" stroke-opacity="1.0" fill-opacity="1.0" font-size="25.0px" stroke="rgb(0,0,0)" stroke-width="2.0" fill="rgb(255,255,255)" stroke-linecap="butt" stroke-miterlimit="10.0"><text dominant-baseline="middle" transform="matrix(1.0000,0.0000,0.0000,1.0000,62.5000,-62.5000)" stroke="none" text-anchor="middle">Na</text></g><g stroke-linejoin="miter" stroke-opacity="1.0" fill-opacity="1.0" stroke="rgb(0,0,0)" stroke-width="2.0" fill="rgb(128,0,128)" stroke-linecap="butt" stroke-miterlimit="10.0"><path d="M 100.0000,62.5000 c 0.0000,-20.7107 -16.7893,-37.5000 -37.5000 -37.5000c -20.7107,-0.0000 -37.5000,16.7893 -37.5000 37.5000c -0.0000,20.7107 16.7893,37.5000 37.5000 37.5000c 20.7107,0.0000 37.5000,-16.7893 37.5000 -37.5000Z"/></g><g stroke-linejoin="miter" stroke-opacity="1.0" fill-opacity="1.0" font-size="25.0px" stroke="rgb(0,0,0)" stroke-width="2.0" fill="rgb(255,255,255)" stroke-linecap="butt" stroke-miterlimit="10.0"><text dominant-baseline="middle" transform="matrix(1.0000,0.0000,0.0000,1.0000,62.5000,62.5000)" stroke="none" text-anchor="middle">Cl</text></g><g stroke-linejoin="miter" stroke-opacity="1.0" fill-opacity="1.0" stroke="rgb(0,0,0)" stroke-width="2.0" fill="rgb(255,0,0)" stroke-linecap="butt" stroke-miterlimit="10.0"><path d="M -37.5000,62.5000 c 0.0000,-13.8071 -11.1929,-25.0000 -25.0000 -25.0000c -13.8071,-0.0000 -25.0000,11.1929 -25.0000 25.0000c -0.0000,13.8071 11.1929,25.0000 25.0000 25.0000c 13.8071,0.0000 25.0000,-11.1929 25.0000 -25.0000Z"/></g><g stroke-linejoin="miter" stroke-opacity="1.0" fill-opacity="1.0" font-size="25.0px" stroke="rgb(0,0,0)" stroke-width="2.0" fill="rgb(255,255,255)" stroke-linecap="butt" stroke-miterlimit="10.0"><text dominant-baseline="middle" transform="matrix(1.0000,0.0000,0.0000,1.0000,-62.5000,62.5000)" stroke="none" text-anchor="middle">Na</text></g><g stroke-linejoin="miter" stroke-opacity="1.0" fill-opacity="1.0" stroke="rgb(0,0,0)" stroke-width="2.0" fill="rgb(128,0,128)" stroke-linecap="butt" stroke-miterlimit="10.0"><path d="M -25.0000,187.5000 c 0.0000,-20.7107 -16.7893,-37.5000 -37.5000 -37.5000c -20.7107,-0.0000 -37.5000,16.7893 -37.5000 37.5000c -0.0000,20.7107 16.7893,37.5000 37.5000 37.5000c 20.7107,0.0000 37.5000,-16.7893 37.5000 -37.5000Z"/></g><g stroke-linejoin="miter" stroke-opacity="1.0" fill-opacity="1.0" font-size="25.0px" stroke="rgb(0,0,0)" stroke-width="2.0" fill="rgb(255,255,255)" stroke-linecap="butt" stroke-miterlimit="10.0"><text dominant-baseline="middle" transform="matrix(1.0000,0.0000,0.0000,1.0000,-62.5000,187.5000)" stroke="none" text-anchor="middle">Cl</text></g><g stroke-linejoin="miter" stroke-opacity="1.0" fill-opacity="1.0" stroke="rgb(0,0,0)" stroke-width="2.0" fill="rgb(255,0,0)" stroke-linecap="butt" stroke-miterlimit="10.0"><path d="M -162.5000,187.5000 c 0.0000,-13.8071 -11.1929,-25.0000 -25.0000 -25.0000c -13.8071,-0.0000 -25.0000,11.1929 -25.0000 25.0000c -0.0000,13.8071 11.1929,25.0000 25.0000 25.0000c 13.8071,0.0000 25.0000,-11.1929 25.0000 -25.0000Z"/></g><g stroke-linejoin="miter" stroke-opacity="1.0" fill-opacity="1.0" font-size="25.0px" stroke="rgb(0,0,0)" stroke-width="2.0" fill="rgb(255,255,255)" stroke-linecap="butt" stroke-miterlimit="10.0"><text dominant-baseline="middle" transform="matrix(1.0000,0.0000,0.0000,1.0000,-187.5000,187.5000)" stroke="none" text-anchor="middle">Na</text></g><g stroke-linejoin="miter" stroke-opacity="1.0" fill-opacity="1.0" stroke="rgb(0,0,0)" stroke-width="2.0" fill="rgb(128,0,128)" stroke-linecap="butt" stroke-miterlimit="10.0"><path d="M -150.0000,312.5000 c 0.0000,-20.7107 -16.7893,-37.5000 -37.5000 -37.5000c -20.7107,-0.0000 -37.5000,16.7893 -37.5000 37.5000c -0.0000,20.7107 16.7893,37.5000 37.5000 37.5000c 20.7107,0.0000 37.5000,-16.7893 37.5000 -37.5000Z"/></g><g stroke-linejoin="miter" stroke-opacity="1.0" fill-opacity="1.0" font-size="25.0px" stroke="rgb(0,0,0)" stroke-width="2.0" fill="rgb(255,255,255)" stroke-linecap="butt" stroke-miterlimit="10.0"><text dominant-baseline="middle" transform="matrix(1.0000,0.0000,0.0000,1.0000,-187.5000,312.5000)" stroke="none" text-anchor="middle">Cl</text></g><g stroke-linejoin="miter" stroke-opacity="1.0" fill-opacity="1.0" stroke="rgb(0,0,0)" stroke-width="2.0" fill="rgb(255,0,0)" stroke-linecap="butt" stroke-miterlimit="10.0"><path d="M -287.5000,312.5000 c 0.0000,-13.8071 -11.1929,-25.0000 -25.0000 -25.0000c -13.8071,-0.0000 -25.0000,11.1929 -25.0000 25.0000c -0.0000,13.8071 11.1929,25.0000 25.0000 25.0000c 13.8071,0.0000 25.0000,-11.1929 25.0000 -25.0000Z"/></g><g stroke-linejoin="miter" stroke-opacity="1.0" fill-opacity="1.0" font-size="25.0px" stroke="rgb(0,0,0)" stroke-width="2.0" fill="rgb(255,255,255)" stroke-linecap="butt" stroke-miterlimit="10.0"><text dominant-baseline="middle" transform="matrix(1.0000,0.0000,0.0000,1.0000,-312.5000,312.5000)" stroke="none" text-anchor="middle">Na</text></g><g stroke-linejoin="miter" stroke-opacity="1.0" fill-opacity="1.0" stroke="rgb(0,0,0)" stroke-width="2.0" fill="rgb(128,0,128)" stroke-linecap="butt" stroke-miterlimit="10.0"><path d="M -275.0000,437.5000 c 0.0000,-20.7107 -16.7893,-37.5000 -37.5000 -37.5000c -20.7107,-0.0000 -37.5000,16.7893 -37.5000 37.5000c -0.0000,20.7107 16.7893,37.5000 37.5000 37.5000c 20.7107,0.0000 37.5000,-16.7893 37.5000 -37.5000Z"/></g><g stroke-linejoin="miter" stroke-opacity="1.0" fill-opacity="1.0" font-size="25.0px" stroke="rgb(0,0,0)" stroke-width="2.0" fill="rgb(255,255,255)" stroke-linecap="butt" stroke-miterlimit="10.0"><text dominant-baseline="middle" transform="matrix(1.0000,0.0000,0.0000,1.0000,-312.5000,437.5000)" stroke="none" text-anchor="middle">Cl</text></g><g stroke-linejoin="miter" stroke-opacity="1.0" fill-opacity="1.0" stroke="rgb(0,0,0)" stroke-width="2.0" fill="rgb(255,0,0)" stroke-linecap="butt" stroke-miterlimit="10.0"><path d="M -412.5000,437.5000 c 0.0000,-13.8071 -11.1929,-25.0000 -25.0000 -25.0000c -13.8071,-0.0000 -25.0000,11.1929 -25.0000 25.0000c -0.0000,13.8071 11.1929,25.0000 25.0000 25.0000c 13.8071,0.0000 25.0000,-11.1929 25.0000 -25.0000Z"/></g><g stroke-linejoin="miter" stroke-opacity="1.0" fill-opacity="1.0" font-size="25.0px" stroke="rgb(0,0,0)" stroke-width="2.0" fill="rgb(255,255,255)" stroke-linecap="butt" stroke-miterlimit="10.0"><text dominant-baseline="middle" transform="matrix(1.0000,0.0000,0.0000,1.0000,-437.5000,437.5000)" stroke="none" text-anchor="middle">Na</text></g><g stroke-linejoin="miter" stroke-opacity="1.0" fill-opacity="0.0" stroke="rgb(0,0,0)" stroke-width="2.0" fill="rgb(0,0,0)" stroke-linecap="butt" stroke-miterlimit="10.0"><path d="M 62.5000,437.5000 l 112.6256,-112.6256 "/></g><g stroke-linejoin="miter" stroke-opacity="1.0" fill-opacity="1.0" stroke="rgb(0,0,0)" stroke-width="0.0" fill="rgb(0,0,0)" stroke-linecap="butt" stroke-miterlimit="10.0"></g><g stroke-linejoin="miter" stroke-opacity="1.0" fill-opacity="1.0" stroke="rgb(0,0,0)" stroke-width="0.0" fill="rgb(0,0,0)" stroke-linecap="butt" stroke-miterlimit="10.0"></g><g stroke-linejoin="miter" stroke-opacity="1.0" fill-opacity="1.0" stroke="rgb(0,0,0)" stroke-width="0.0" fill="rgb(0,0,0)" stroke-linecap="butt" stroke-miterlimit="10.0"><path d="M 187.5000,312.5000 l -19.1786,9.7720 l 7.1760,2.2306 l 2.2306,7.1760 Z"/></g><g stroke-linejoin="miter" stroke-opacity="1.0" fill-opacity="1.0" stroke="rgb(0,0,0)" stroke-width="0.0" fill="rgb(0,0,0)" stroke-linecap="butt" stroke-miterlimit="10.0"><path d="M 175.4974,324.5026 l -0.3717,0.3717 l -0.7071,-0.7071 l 1.0789,0.3354 l -0.3717,0.3717 l 0.7071,0.7071 Z"/></g><g stroke-linejoin="miter" stroke-opacity="1.0" fill-opacity="0.0" stroke="rgb(0,0,0)" stroke-width="2.0" fill="rgb(0,0,0)" stroke-linecap="butt" stroke-miterlimit="10.0"><path d="M 62.5000,437.5000 h 232.5000 "/></g><g stroke-linejoin="miter" stroke-opacity="1.0" fill-opacity="1.0" stroke="rgb(0,0,0)" stroke-width="0.0" fill="rgb(0,0,0)" stroke-linecap="butt" stroke-miterlimit="10.0"></g><g stroke-linejoin="miter" stroke-opacity="1.0" fill-opacity="1.0" stroke="rgb(0,0,0)" stroke-width="0.0" fill="rgb(0,0,0)" stroke-linecap="butt" stroke-miterlimit="10.0"></g><g stroke-linejoin="miter" stroke-opacity="1.0" fill-opacity="1.0" stroke="rgb(0,0,0)" stroke-width="0.0" fill="rgb(0,0,0)" stroke-linecap="butt" stroke-miterlimit="10.0"><path d="M 312.5000,437.5000 l -20.4712,-6.6515 l 3.4969,6.6515 l -3.4969,6.6515 Z"/></g><g stroke-linejoin="miter" stroke-opacity="1.0" fill-opacity="1.0" stroke="rgb(0,0,0)" stroke-width="0.0" fill="rgb(0,0,0)" stroke-linecap="butt" stroke-miterlimit="10.0"><path d="M 295.5257,437.5000 h -0.5257 v -1.0000 l 0.5257,1.0000 h -0.5257 v 1.0000 Z"/></g><g stroke-linejoin="miter" stroke-opacity="1.0" fill-opacity="1.0" font-size="25.0px" stroke="rgb(0,0,0)" stroke-width="2.0" fill="rgb(0,0,0)" stroke-linecap="butt" stroke-miterlimit="10.0"><text dominant-baseline="middle" transform="matrix(1.0000,0.0000,0.0000,1.0000,127.5000,455.0000)" stroke="none" text-anchor="middle">v1</text></g><g stroke-linejoin="miter" stroke-opacity="1.0" fill-opacity="1.0" font-size="25.0px" stroke="rgb(0,0,0)" stroke-width="2.0" fill="rgb(0,0,0)" stroke-linecap="butt" stroke-miterlimit="10.0"><text dominant-baseline="middle" transform="matrix(1.0000,0.0000,0.0000,1.0000,100.0000,375.0000)" stroke="none" text-anchor="middle">v2</text></g></svg>