<?xml version="1.0" encoding="utf-8" standalone="no"?>
<!DOCTYPE svg PUBLIC "-//W3C//DTD SVG 1.1//EN"
  "http://www.w3.org/Graphics/SVG/1.1/DTD/svg11.dtd">
<!-- Created with matplotlib (http://matplotlib.org/) -->
<svg height="345pt" version="1.1" viewBox="0 0 460 345" width="460pt" xmlns="http://www.w3.org/2000/svg" xmlns:xlink="http://www.w3.org/1999/xlink">
 <defs>
  <style type="text/css">
*{stroke-linecap:butt;stroke-linejoin:round;}
  </style>
 </defs>
 <g id="figure_1">
  <g id="patch_1">
   <path d="M 0 345.6 
L 460.8 345.6 
L 460.8 0 
L 0 0 
z
" style="fill:#ffffff;"/>
  </g>
  <g id="axes_1">
   <g id="patch_2">
    <path d="M 61.445826 294.68419 
L 303.487279 294.68419 
L 303.487279 17.64 
L 61.445826 17.64 
z
" style="fill:#ffffff;"/>
   </g>
   <g id="matplotlib.axis_1">
    <g id="xtick_1">
     <g id="line2d_1">
      <defs>
       <path d="M 0 0 
L 0 3.5 
" id="mf479babc03" style="stroke:#000000;stroke-width:0.8;"/>
      </defs>
      <g>
       <use style="stroke:#000000;stroke-width:0.8;" x="61.445826" xlink:href="#mf479babc03" y="294.68419"/>
      </g>
     </g>
     <g id="text_1">
      <!-- $\Gamma$ -->
      <defs>
       <path d="M 51.796875 68 
L 5.09375 68 
L 5.09375 65.40625 
C 12 65.40625 13.09375 65.40625 13.09375 60.90625 
L 13.09375 7 
C 13.09375 2.5 12 2.5 5.09375 2.5 
L 5.09375 0 
C 8 0 13.59375 0 16.703125 0 
C 20.796875 0 25.59375 0 29.703125 0 
L 29.703125 2.5 
L 27.5 2.5 
C 19.90625 2.5 19.703125 3.5 19.703125 7.109375 
L 19.703125 61.5 
C 19.703125 64.90625 19.90625 65.40625 23.90625 65.40625 
L 34.90625 65.40625 
C 50.09375 65.40625 50.90625 58.40625 52.40625 45.90625 
L 54.203125 45.90625 
z
" id="CMR17-0"/>
      </defs>
      <g transform="translate(57.179225 311.370067)scale(0.14 -0.14)">
       <use transform="scale(0.996264)" xlink:href="#CMR17-0"/>
      </g>
     </g>
    </g>
    <g id="xtick_2">
     <g id="line2d_2">
      <g>
       <use style="stroke:#000000;stroke-width:0.8;" x="125.473908" xlink:href="#mf479babc03" y="294.68419"/>
      </g>
     </g>
     <g id="text_2">
      <!-- $X$ -->
      <defs>
       <path d="M 47.5 40.5625 
L 38.09375 62.40625 
C 39.40625 64.796875 42.40625 65.1875 43.59375 65.296875 
C 44.203125 65.296875 45.296875 65.296875 45.296875 67.0625 
C 45.296875 68.1875 44.40625 68.1875 43.796875 68.1875 
C 42.09375 68.1875 40.09375 68.1875 38.40625 68.1875 
L 32.59375 68.1875 
C 26.5 68.1875 22.09375 68.1875 22 68.1875 
C 21.203125 68.1875 20.203125 68.1875 20.203125 66.296875 
C 20.203125 65.296875 21.09375 65.296875 22.40625 65.296875 
C 28.203125 65.296875 28.59375 64.296875 29.59375 61.90625 
L 41.5 34.140625 
L 19.796875 10.828125 
C 16.203125 6.90625 11.90625 3.09375 4.5 3.09375 
C 3.296875 3 2.5 3 2.5 1.0625 
C 2.5 0.75 2.59375 0 3.703125 0 
C 5.09375 0 6.59375 0 8 0 
L 12.703125 0 
C 15.90625 0 19.40625 0 22.5 0 
C 23.203125 0 24.40625 0 24.40625 1.796875 
C 24.40625 2.796875 23.703125 2.890625 23.09375 2.890625 
C 21.09375 3.09375 19.796875 4.1875 19.796875 5.78125 
C 19.796875 7.484375 21 8.703125 23.90625 11.6875 
L 32.796875 21.375 
C 35 23.6875 40.296875 29.46875 42.5 31.65625 
L 53 7.078125 
C 53.09375 6.890625 53.5 5.890625 53.5 5.78125 
C 53.5 4.890625 51.296875 3.09375 48.09375 3.09375 
C 47.5 3.09375 46.40625 3.09375 46.40625 1.109375 
C 46.40625 0 47.40625 0 47.90625 0 
C 49.59375 0 51.59375 0 53.296875 0 
L 64.296875 0 
C 66.09375 0 68 0 69.703125 0 
C 70.40625 0 71.5 0 71.5 2.03125 
C 71.5 3.09375 70.5 3.09375 69.59375 3.09375 
C 63.59375 3.09375 63.40625 3.59375 61.703125 7.265625 
L 48.5 38.140625 
L 61.203125 51.8125 
C 62.203125 52.828125 64.5 55.34375 65.40625 56.34375 
C 69.703125 60.875 73.703125 65 81.796875 65 
C 82.796875 65.296875 83.796875 65.296875 83.796875 67.0625 
C 83.796875 68.1875 82.90625 68.1875 82.5 68.1875 
C 81.09375 68.1875 79.59375 68.1875 78.203125 68.1875 
L 73.59375 68.1875 
C 70.40625 68.1875 66.90625 68.1875 63.796875 68.1875 
C 63.09375 68.1875 61.90625 68.1875 61.90625 66.390625 
C 61.90625 65.390625 62.59375 65.296875 63.203125 65.296875 
C 64.796875 65.109375 66.5 64.3125 66.5 62.40625 
L 66.40625 62.21875 
C 66.296875 61.515625 66.09375 60.515625 65 59.328125 
z
" id="CMMI12-88"/>
      </defs>
      <g transform="translate(119.806699 311.370067)scale(0.14 -0.14)">
       <use transform="scale(0.996264)" xlink:href="#CMMI12-88"/>
      </g>
     </g>
    </g>
    <g id="xtick_3">
     <g id="line2d_3">
      <g>
       <use style="stroke:#000000;stroke-width:0.8;" x="157.487949" xlink:href="#mf479babc03" y="294.68419"/>
      </g>
     </g>
     <g id="text_3">
      <!-- $W$ -->
      <defs>
       <path d="M 90.296875 56.96875 
C 92.59375 60.84375 94.796875 64.515625 100.796875 65.125 
C 101.703125 65.21875 102.59375 65.3125 102.59375 66.90625 
C 102.59375 68 101.703125 68 101.40625 68 
C 101.203125 68 100.5 68 93.90625 68 
C 90.90625 68 87.796875 68 84.90625 68 
C 84.296875 68 83.09375 68 83.09375 66.03125 
C 83.09375 65.09375 83.90625 65 84.5 65 
C 86.5 65 89.703125 64.40625 89.703125 61.328125 
C 89.703125 60.03125 89.296875 59.328125 88.296875 57.65625 
L 61 10.125 
L 57.40625 61.921875 
C 57.40625 63.109375 58.5 65 64.09375 65 
C 65.40625 65 66.40625 65 66.40625 66.96875 
C 66.40625 68 65.40625 68 64.90625 68 
C 61.40625 68 57.703125 68 54.09375 68 
L 48.90625 68 
C 47.40625 68 45.59375 68 44.09375 68 
C 43.5 68 42.296875 68 42.296875 66.03125 
C 42.296875 65 43 65 44.703125 65 
C 49.296875 65 49.296875 64.890625 49.703125 58.9375 
L 50 55.359375 
L 24.09375 10.125 
L 20.40625 61.421875 
C 20.40625 62.53125 20.40625 65 27.203125 65 
C 28.296875 65 29.40625 65 29.40625 66.859375 
C 29.40625 68 28.5 68 27.90625 68 
C 24.40625 68 20.703125 68 17.09375 68 
L 11.90625 68 
C 10.40625 68 8.59375 68 7.09375 68 
C 6.5 68 5.296875 68 5.296875 66.03125 
C 5.296875 65 6.09375 65 7.5 65 
C 12.203125 65 12.296875 64.390625 12.5 61.21875 
L 16.90625 0.28125 
C 17 -1.40625 17.09375 -2 18.296875 -2 
C 19.296875 -2 19.5 -1.609375 20.40625 -0.109375 
L 50.203125 51.671875 
L 53.90625 0.28125 
C 54 -1.40625 54.09375 -2 55.296875 -2 
C 56.296875 -2 56.59375 -1.5 57.40625 -0.109375 
z
" id="CMMI12-87"/>
      </defs>
      <g transform="translate(151.041238 311.370067)scale(0.14 -0.14)">
       <use transform="scale(0.996264)" xlink:href="#CMMI12-87"/>
      </g>
     </g>
    </g>
    <g id="xtick_4">
     <g id="line2d_4">
      <g>
       <use style="stroke:#000000;stroke-width:0.8;" x="180.12527" xlink:href="#mf479babc03" y="294.68419"/>
      </g>
     </g>
     <g id="text_4">
      <!-- $K$ -->
      <defs>
       <path d="M 50 40.171875 
C 49.90625 40.46875 49.5 41.265625 49.5 41.578125 
C 49.5 41.671875 49.59375 41.765625 51.296875 43.0625 
L 61 50.65625 
C 74.40625 61.015625 78.796875 64.5 85.703125 65.109375 
C 86.40625 65.109375 87.40625 65.109375 87.40625 66.90625 
C 87.40625 67.5 87.09375 68 86.296875 68 
C 85.203125 68 84 68 82.90625 68 
L 79.09375 68 
C 76 68 72.703125 68 69.703125 68 
C 69 68 67.796875 68 67.796875 66.203125 
C 67.796875 65.203125 68.5 65.109375 69.09375 65.109375 
C 70.203125 65 71.5 64.609375 71.5 63.21875 
C 71.5 61.234375 68.5 58.828125 67.703125 58.234375 
L 28.5 27.875 
L 36.796875 60.734375 
C 37.703125 64.109375 37.90625 65.109375 45 65.109375 
C 46.90625 65.109375 47.796875 65.109375 47.796875 67 
C 47.796875 68 46.796875 68 46.296875 68 
C 44.5 68 42.40625 68 40.5 68 
L 28.703125 68 
C 26.90625 68 24.703125 68 22.90625 68 
C 22.09375 68 21 68 21 66.109375 
C 21 65.109375 21.90625 65.109375 23.40625 65.109375 
C 29.5 65.109375 29.5 64.3125 29.5 63.21875 
C 29.5 63.03125 29.5 62.421875 29.09375 60.921875 
L 15.59375 7.375 
C 14.703125 3.890625 14.5 2.890625 7.5 2.890625 
C 5.59375 2.890625 4.59375 2.890625 4.59375 1.09375 
C 4.59375 0 5.5 0 6.09375 0 
C 8 0 10 0 11.90625 0 
L 23.59375 0 
C 25.5 0 27.59375 0 29.5 0 
C 30.296875 0 31.40625 0 31.40625 1.890625 
C 31.40625 2.890625 30.5 2.890625 29 2.890625 
C 22.90625 2.890625 22.90625 3.6875 22.90625 4.6875 
C 22.90625 5.390625 23.5 7.875 23.90625 9.46875 
L 27.796875 24.890625 
L 43 36.734375 
C 45.90625 30.359375 51.203125 17.625 55.296875 7.890625 
C 55.59375 7.28125 55.796875 6.6875 55.796875 5.984375 
C 55.796875 2.890625 51.796875 2.890625 50.90625 2.890625 
C 50 2.890625 49 2.890625 49 1 
C 49 0 50.09375 0 50.40625 0 
C 53.90625 0 57.59375 0 61.09375 0 
L 65.90625 0 
C 67.40625 0 69.09375 0 70.59375 0 
C 71.203125 0 72.296875 0 72.296875 1.890625 
C 72.296875 2.890625 71.40625 2.890625 70.40625 2.890625 
C 66.703125 2.890625 65.40625 3.6875 63.90625 7.28125 
z
" id="CMMI12-75"/>
      </defs>
      <g transform="translate(174.315787 311.370067)scale(0.14 -0.14)">
       <use transform="scale(0.996264)" xlink:href="#CMMI12-75"/>
      </g>
     </g>
    </g>
    <g id="xtick_5">
     <g id="line2d_5">
      <g>
       <use style="stroke:#000000;stroke-width:0.8;" x="248.037359" xlink:href="#mf479babc03" y="294.68419"/>
      </g>
     </g>
     <g id="text_5">
      <!-- $\Gamma$ -->
      <g transform="translate(243.770759 311.370067)scale(0.14 -0.14)">
       <use transform="scale(0.996264)" xlink:href="#CMR17-0"/>
      </g>
     </g>
    </g>
    <g id="xtick_6">
     <g id="line2d_6">
      <g>
       <use style="stroke:#000000;stroke-width:0.8;" x="303.487279" xlink:href="#mf479babc03" y="294.68419"/>
      </g>
     </g>
     <g id="text_6">
      <!-- $L$ -->
      <defs>
       <path d="M 36.703125 60.328125 
C 37.59375 64.109375 37.90625 65.109375 46.703125 65.109375 
C 49.40625 65.109375 50.09375 65.109375 50.09375 67 
C 50.09375 68 49 68 48.59375 68 
C 46.59375 68 44.296875 68 42.296875 68 
L 28.90625 68 
C 27 68 24.796875 68 22.90625 68 
C 22.09375 68 21 68 21 66.109375 
C 21 65.109375 21.90625 65.109375 23.40625 65.109375 
C 29.5 65.109375 29.5 64.3125 29.5 63.21875 
C 29.5 63.03125 29.5 62.421875 29.09375 60.921875 
L 15.59375 7.375 
C 14.703125 3.890625 14.5 2.890625 7.5 2.890625 
C 5.59375 2.890625 4.59375 2.890625 4.59375 1.09375 
C 4.59375 0 5.203125 0 7.203125 0 
L 52 0 
C 54.203125 0 54.296875 0.09375 55 1.890625 
L 62.703125 23.09375 
C 62.90625 23.59375 63.09375 24.1875 63.09375 24.484375 
C 63.09375 25.078125 62.59375 25.484375 62.09375 25.484375 
C 62 25.484375 61.5 25.484375 61.296875 25.078125 
C 61.09375 24.984375 61.09375 24.78125 60.296875 22.890625 
C 57.09375 14.140625 52.59375 2.890625 35.703125 2.890625 
L 26.09375 2.890625 
C 24.703125 2.890625 24.5 2.890625 23.90625 3 
C 22.796875 3.09375 22.703125 3.296875 22.703125 4.09375 
C 22.703125 4.796875 22.90625 5.390625 23.09375 6.265625 
z
" id="CMMI12-76"/>
      </defs>
      <g transform="translate(298.841318 311.370067)scale(0.14 -0.14)">
       <use transform="scale(0.996264)" xlink:href="#CMMI12-76"/>
      </g>
     </g>
    </g>
    <g id="text_7">
     <!-- Brillouin zone position -->
     <defs>
      <path d="M 5.203125 68 
L 5.203125 65.40625 
C 12.09375 65.40625 13.203125 65.40625 13.203125 60.9375 
L 13.203125 7.0625 
C 13.203125 2.59375 12.09375 2.59375 5.203125 2.59375 
L 5.203125 0 
L 39.59375 0 
C 52.40625 0 60.703125 9.109375 60.703125 18.1875 
C 60.703125 27.203125 52.5 34.890625 41.796875 34.890625 
C 51.40625 36.8125 58.09375 43.296875 58.09375 51 
C 58.09375 59.40625 49.90625 68 37 68 
z
M 19.5 36 
L 19.5 61.515625 
C 19.5 64.921875 19.703125 65.40625 23.703125 65.40625 
L 36.5 65.40625 
C 46.40625 65.40625 50.796875 57.40625 50.796875 51.203125 
C 50.796875 43.609375 44.703125 36 33.90625 36 
z
M 23.703125 2.59375 
C 19.703125 2.59375 19.5 3.078125 19.5 6.453125 
L 19.5 34.40625 
L 38 34.40625 
C 48.296875 34.40625 53.296875 25.390625 53.296875 18.15625 
C 53.296875 10.921875 47.59375 2.59375 36.703125 2.59375 
z
" id="CMR17-66"/>
      <path d="M 15 23.390625 
C 15 33 19.09375 42 26.59375 42 
C 27.296875 42 28 41.90625 28.703125 41.59375 
C 28.703125 41.59375 26.5 40.890625 26.5 38.3125 
C 26.5 35.90625 28.40625 34.90625 29.90625 34.90625 
C 31.09375 34.90625 33.296875 35.609375 33.296875 38.40625 
C 33.296875 41.609375 30.09375 43.59375 26.703125 43.59375 
C 19.09375 43.59375 15.796875 36.203125 14.796875 32.703125 
L 14.703125 32.703125 
L 14.703125 43.59375 
L 3.09375 42.5 
L 3.09375 39.90625 
C 9 39.90625 9.90625 39.296875 9.90625 34.5 
L 9.90625 6.6875 
C 9.90625 2.875 9.5 2.390625 3.09375 2.390625 
L 3.09375 -0.203125 
C 5.5 0 10.09375 0 12.703125 0 
C 15.59375 0 20.703125 0 23.40625 -0.203125 
L 23.40625 2.390625 
C 16.203125 2.390625 15 2.390625 15 6.875 
z
" id="CMR17-114"/>
      <path d="M 15.5 61.078125 
C 15.5 63.265625 13.703125 65.15625 11.40625 65.15625 
C 9.203125 65.15625 7.296875 63.375 7.296875 61.078125 
C 7.296875 58.890625 9.09375 57 11.40625 57 
C 13.59375 57 15.5 58.796875 15.5 61.078125 
z
M 3.796875 42.28125 
L 3.796875 39.703125 
C 9.40625 39.703125 10.203125 39.09375 10.203125 34.328125 
L 10.203125 6.671875 
C 10.203125 2.875 9.796875 2.390625 3.40625 2.390625 
L 3.40625 -0.203125 
C 5.796875 0 10.09375 0 12.59375 0 
C 15 0 19.09375 0 21.40625 -0.203125 
L 21.40625 2.390625 
C 15.5 2.390625 15.296875 2.984375 15.296875 6.5625 
L 15.296875 43.375 
z
" id="CMR17-105"/>
      <path d="M 15.296875 68.6875 
L 3.40625 67.59375 
L 3.40625 65 
C 9.296875 65 10.203125 64.40625 10.203125 59.640625 
L 10.203125 6.65625 
C 10.203125 2.875 9.796875 2.390625 3.40625 2.390625 
L 3.40625 -0.203125 
C 5.796875 0 10.203125 0 12.703125 0 
C 15.296875 0 19.703125 0 22.09375 -0.203125 
L 22.09375 2.390625 
C 15.703125 2.390625 15.296875 2.78125 15.296875 6.65625 
z
" id="CMR17-108"/>
      <path d="M 43.09375 21.1875 
C 43.09375 34 33.796875 44 22.90625 44 
C 12 44 2.703125 34 2.703125 21.1875 
C 2.703125 8.609375 12 -1 22.90625 -1 
C 33.796875 -1 43.09375 8.609375 43.09375 21.1875 
z
M 22.90625 0.796875 
C 18.203125 0.796875 14.203125 3.59375 11.90625 7.5 
C 9.40625 11.984375 9.09375 17.59375 9.09375 22 
C 9.09375 26.203125 9.296875 31.40625 11.90625 35.90625 
C 13.90625 39.203125 17.796875 42.40625 22.90625 42.40625 
C 27.40625 42.40625 31.203125 39.90625 33.59375 36.40625 
C 36.703125 31.703125 36.703125 25.109375 36.703125 22 
C 36.703125 18.09375 36.5 12.109375 33.796875 7.296875 
C 31 2.703125 26.703125 0.796875 22.90625 0.796875 
z
" id="CMR17-111"/>
      <path d="M 29.40625 42.078125 
L 29.40625 39.5 
C 35.296875 39.5 36.203125 38.890625 36.203125 34.15625 
L 36.203125 16.125 
C 36.203125 7.8125 31.703125 0.59375 24.296875 0.59375 
C 16.09375 0.59375 15.40625 5.4375 15.40625 10.59375 
L 15.40625 43.171875 
L 3.296875 42.078125 
L 3.296875 39.5 
C 7.296875 39.5 10 39.5 10.09375 35.53125 
L 10.09375 16.53125 
C 10.09375 9.890625 10.09375 5.640625 12.703125 2.859375 
C 14 1.578125 16.5 -1 23.703125 -1 
C 32.203125 -1 35.5 5.890625 36.296875 7.90625 
L 36.40625 7.90625 
L 36.40625 -0.984375 
L 48.296875 -0.984375 
L 48.296875 2 
C 42.40625 2 41.5 2.59375 41.5 7.390625 
L 41.5 43.171875 
z
" id="CMR17-117"/>
      <path d="M 41.5 30.203125 
C 41.5 35.296875 40.5 43.59375 28.703125 43.59375 
C 20.796875 43.59375 16.703125 37.5 15.203125 33.5 
L 15.09375 33.5 
L 15.09375 43.59375 
L 3.296875 42.5 
L 3.296875 39.90625 
C 9.203125 39.90625 10.09375 39.296875 10.09375 34.5 
L 10.09375 6.6875 
C 10.09375 2.875 9.703125 2.390625 3.296875 2.390625 
L 3.296875 -0.203125 
C 5.703125 0 10.09375 0 12.703125 0 
C 15.296875 0 19.796875 0 22.203125 -0.203125 
L 22.203125 2.390625 
C 15.796875 2.390625 15.40625 2.78125 15.40625 6.6875 
L 15.40625 25.90625 
C 15.40625 35.109375 21 42 28 42 
C 35.40625 42 36.203125 35.40625 36.203125 30.59375 
L 36.203125 6.6875 
C 36.203125 2.875 35.796875 2.390625 29.40625 2.390625 
L 29.40625 -0.203125 
C 31.796875 0 36.203125 0 38.796875 0 
C 41.40625 0 45.90625 0 48.296875 -0.203125 
L 48.296875 2.390625 
C 41.90625 2.390625 41.5 2.78125 41.5 6.6875 
z
" id="CMR17-110"/>
      <path d="M 36.09375 40.703125 
C 36.90625 41.71875 36.90625 41.90625 36.90625 42.109375 
C 36.90625 43 36.5 43 34.703125 43 
L 4.296875 43 
L 3.296875 27.5 
L 5.09375 27.5 
C 5.796875 37.203125 6.90625 41.40625 18.40625 41.40625 
L 30.59375 41.40625 
L 2 1.5 
C 2 0 2.09375 0 4.203125 0 
L 35.796875 0 
L 37.203125 18 
L 35.40625 18 
C 34.59375 6.90625 33.296875 1.796875 21.09375 1.796875 
L 8.296875 1.796875 
z
" id="CMR17-122"/>
      <path d="M 38.09375 23 
C 38.5 23.40625 38.5 23.609375 38.5 24.625 
C 38.5 34.96875 33.09375 44 21.703125 44 
C 11.09375 44 2.703125 33.890625 2.703125 21.609375 
C 2.703125 8.609375 12.203125 -1 22.796875 -1 
C 34 -1 38.40625 9.484375 38.40625 11.5625 
C 38.40625 12.25 37.796875 12.25 37.59375 12.25 
C 36.90625 12.25 36.796875 12.046875 36.40625 10.875 
C 34.203125 4.140625 28.703125 0.796875 23.5 0.796875 
C 19.203125 0.796875 14.90625 3.171875 12.203125 7.5 
C 9.09375 12.546875 9.09375 18.375 9.09375 23 
z
M 9.203125 24.5 
C 9.90625 39.140625 17.59375 42.40625 21.59375 42.40625 
C 28.40625 42.40625 33 35.890625 33.09375 24.5 
z
" id="CMR17-101"/>
      <path d="M 22 -16.609375 
C 15.59375 -16.609375 15.203125 -16.203125 15.203125 -12.328125 
L 15.203125 6.28125 
C 18.09375 2.09375 22.296875 -0.59375 27.59375 -0.59375 
C 37.59375 -0.59375 47.703125 8.171875 47.703125 21.6875 
C 47.703125 34.234375 39 43.78125 28.703125 43.78125 
C 22.703125 43.78125 17.796875 40.5 15 36.53125 
L 15 43.78125 
L 3.09375 42.6875 
L 3.09375 40.109375 
C 9 40.109375 9.90625 39.5 9.90625 34.734375 
L 9.90625 -12.328125 
C 9.90625 -16.109375 9.5 -16.609375 3.09375 -16.609375 
L 3.09375 -19.1875 
C 5.5 -19 9.90625 -19 12.5 -19 
C 15.09375 -19 19.59375 -19 22 -19.1875 
z
M 15.203125 31.4375 
C 15.203125 32.84375 15.203125 34.921875 19.09375 38.609375 
C 19.59375 39.015625 23 42 28 42 
C 35.296875 42 41.296875 32.9375 41.296875 21.59375 
C 41.296875 10.25 34.90625 1 27 1 
C 23.40625 1 19.5 2.6875 16.5 7.375 
C 15.203125 9.5625 15.203125 10.15625 15.203125 11.75 
z
" id="CMR17-112"/>
      <path d="M 30.90625 42.140625 
C 30.90625 43.953125 30.796875 44.046875 30.203125 44.046875 
C 29.796875 44.046875 29.703125 43.953125 28.5 42.453125 
C 28.203125 42.046875 27.296875 41.03125 27 40.640625 
C 23.796875 44.046875 19.296875 44.046875 17.59375 44.046875 
C 6.5 44.046875 2.5 38.234375 2.5 32.4375 
C 2.5 23.40625 12.703125 21.328125 15.59375 20.703125 
C 21.90625 19.421875 24.09375 19.015625 26.203125 17.203125 
C 27.5 16.015625 29.703125 13.8125 29.703125 10.21875 
C 29.703125 6 27.296875 0.59375 18.09375 0.59375 
C 9.40625 0.59375 6.296875 7.1875 4.5 15.953125 
C 4.203125 17.34375 4.203125 17.453125 3.40625 17.453125 
C 2.59375 17.453125 2.5 17.34375 2.5 15.359375 
L 2.5 0.984375 
C 2.5 -0.796875 2.59375 -0.90625 3.203125 -0.90625 
C 3.703125 -0.90625 3.796875 -0.796875 4.296875 0 
C 4.90625 0.890625 6.40625 3.296875 7 4.3125 
C 9 1.609375 12.5 -1 18.09375 -1 
C 28 -1 33.296875 4.421875 33.296875 12.25 
C 33.296875 17.375 30.59375 20.078125 29.296875 21.28125 
C 26.296875 24.390625 22.796875 25.09375 18.59375 25.890625 
C 13.09375 27.109375 6.09375 28.515625 6.09375 34.640625 
C 6.09375 37.234375 7.5 42.765625 17.59375 42.765625 
C 28.296875 42.765625 28.90625 32.71875 29.09375 29.5 
C 29.203125 29 29.703125 28.890625 30 28.890625 
C 30.90625 28.890625 30.90625 29.203125 30.90625 30.90625 
z
" id="CMR17-115"/>
      <path d="M 15.09375 40 
L 29.09375 40 
L 29.09375 42.578125 
L 15.09375 42.578125 
L 15.09375 61 
L 13.296875 61 
C 13.09375 50.703125 9.59375 41.6875 1.09375 41.6875 
L 1.09375 40 
L 9.796875 40 
L 9.796875 12.046875 
C 9.796875 10.15625 9.796875 -1 21.40625 -1 
C 27.296875 -1 30.703125 4.78125 30.703125 12.140625 
L 30.703125 17.8125 
L 28.90625 17.8125 
L 28.90625 12.234375 
C 28.90625 5.375 26.203125 0.796875 22 0.796875 
C 19.09375 0.796875 15.09375 2.78125 15.09375 11.84375 
z
" id="CMR17-116"/>
     </defs>
     <g transform="translate(114.808816 327.767972)scale(0.14 -0.14)">
      <use transform="scale(0.996264)" xlink:href="#CMR17-66"/>
      <use transform="translate(65.188754 0)scale(0.996264)" xlink:href="#CMR17-114"/>
      <use transform="translate(100.469522 0)scale(0.996264)" xlink:href="#CMR17-105"/>
      <use transform="translate(125.340581 0)scale(0.996264)" xlink:href="#CMR17-108"/>
      <use transform="translate(150.211639 0)scale(0.996264)" xlink:href="#CMR17-108"/>
      <use transform="translate(175.082698 0)scale(0.996264)" xlink:href="#CMR17-111"/>
      <use transform="translate(220.773175 0)scale(0.996264)" xlink:href="#CMR17-117"/>
      <use transform="translate(271.668545 0)scale(0.996264)" xlink:href="#CMR17-105"/>
      <use transform="translate(296.539603 0)scale(0.996264)" xlink:href="#CMR17-110"/>
      <use transform="translate(377.510939 0)scale(0.996264)" xlink:href="#CMR17-122"/>
      <use transform="translate(417.9966 0)scale(0.996264)" xlink:href="#CMR17-111"/>
      <use transform="translate(463.687077 0)scale(0.996264)" xlink:href="#CMR17-110"/>
      <use transform="translate(514.582447 0)scale(0.996264)" xlink:href="#CMR17-101"/>
      <use transform="translate(585.144073 0)scale(0.996264)" xlink:href="#CMR17-112"/>
      <use transform="translate(638.641882 0)scale(0.996264)" xlink:href="#CMR17-111"/>
      <use transform="translate(684.332359 0)scale(0.996264)" xlink:href="#CMR17-115"/>
      <use transform="translate(720.133697 0)scale(0.996264)" xlink:href="#CMR17-105"/>
      <use transform="translate(745.004755 0)scale(0.996264)" xlink:href="#CMR17-116"/>
      <use transform="translate(780.285523 0)scale(0.996264)" xlink:href="#CMR17-105"/>
      <use transform="translate(805.156581 0)scale(0.996264)" xlink:href="#CMR17-111"/>
      <use transform="translate(850.847059 0)scale(0.996264)" xlink:href="#CMR17-110"/>
     </g>
    </g>
   </g>
   <g id="matplotlib.axis_2">
    <g id="ytick_1">
     <g id="line2d_7">
      <defs>
       <path d="M 0 0 
L -3.5 0 
" id="m968c576074" style="stroke:#000000;stroke-width:0.8;"/>
      </defs>
      <g>
       <use style="stroke:#000000;stroke-width:0.8;" x="61.445826" xlink:href="#m968c576074" y="294.68419"/>
      </g>
     </g>
     <g id="text_8">
      <!-- $0$ -->
      <defs>
       <path d="M 42 31.640625 
C 42 37.75 41.90625 48.125 37.703125 56.109375 
C 34 63.109375 28.09375 65.59375 22.90625 65.59375 
C 18.09375 65.59375 12 63.40625 8.203125 56.203125 
C 4.203125 48.71875 3.796875 39.4375 3.796875 31.640625 
C 3.796875 25.953125 3.90625 17.28125 7 9.671875 
C 11.296875 -0.609375 19 -2 22.90625 -2 
C 27.5 -2 34.5 -0.109375 38.59375 9.375 
C 41.59375 16.28125 42 24.359375 42 31.640625 
z
M 22.90625 -0.40625 
C 16.5 -0.40625 12.703125 5.078125 11.296875 12.6875 
C 10.203125 18.5625 10.203125 27.15625 10.203125 32.75 
C 10.203125 40.4375 10.203125 46.828125 11.5 52.921875 
C 13.40625 61.390625 19 64 22.90625 64 
C 27 64 32.296875 61.296875 34.203125 53.125 
C 35.5 47.4375 35.59375 40.734375 35.59375 32.75 
C 35.59375 26.25 35.59375 18.265625 34.40625 12.375 
C 32.296875 1.484375 26.40625 -0.40625 22.90625 -0.40625 
z
" id="CMR17-48"/>
      </defs>
      <g transform="translate(47.617337 299.527129)scale(0.14 -0.14)">
       <use transform="scale(0.996264)" xlink:href="#CMR17-48"/>
      </g>
     </g>
    </g>
    <g id="ytick_2">
     <g id="line2d_8">
      <g>
       <use style="stroke:#000000;stroke-width:0.8;" x="61.445826" xlink:href="#m968c576074" y="240.3618"/>
      </g>
     </g>
     <g id="text_9">
      <!-- $100$ -->
      <defs>
       <path d="M 26.59375 63.40625 
C 26.59375 65.5 26.5 65.5 25.09375 65.5 
C 21.203125 61.1875 15.296875 59.796875 9.703125 59.796875 
C 9.40625 59.796875 8.90625 59.796875 8.796875 59.5 
C 8.703125 59.296875 8.703125 59.09375 8.703125 57 
C 11.796875 57 17 57.59375 21 59.984375 
L 21 7.203125 
C 21 3.6875 20.796875 2.5 12.203125 2.5 
L 9.203125 2.5 
L 9.203125 0 
C 14 0 19 0 23.796875 0 
C 28.59375 0 33.59375 0 38.40625 0 
L 38.40625 2.5 
L 35.40625 2.5 
C 26.796875 2.5 26.59375 3.59375 26.59375 7.15625 
z
" id="CMR17-49"/>
      </defs>
      <g transform="translate(33.96036 245.204738)scale(0.14 -0.14)">
       <use transform="scale(0.996264)" xlink:href="#CMR17-49"/>
       <use transform="translate(45.690477 0)scale(0.996264)" xlink:href="#CMR17-48"/>
       <use transform="translate(91.380954 0)scale(0.996264)" xlink:href="#CMR17-48"/>
      </g>
     </g>
    </g>
    <g id="ytick_3">
     <g id="line2d_9">
      <g>
       <use style="stroke:#000000;stroke-width:0.8;" x="61.445826" xlink:href="#m968c576074" y="186.03941"/>
      </g>
     </g>
     <g id="text_10">
      <!-- $200$ -->
      <defs>
       <path d="M 41.703125 15.453125 
L 39.90625 15.453125 
C 38.90625 8.375 38.09375 7.171875 37.703125 6.5625 
C 37.203125 5.765625 30 5.765625 28.59375 5.765625 
L 9.40625 5.765625 
C 13 9.671875 20 16.75 28.5 24.953125 
C 34.59375 30.734375 41.703125 37.53125 41.703125 47.421875 
C 41.703125 59.21875 32.296875 66 21.796875 66 
C 10.796875 66 4.09375 56.3125 4.09375 47.34375 
C 4.09375 43.4375 7 42.9375 8.203125 42.9375 
C 9.203125 42.9375 12.203125 43.546875 12.203125 47.03125 
C 12.203125 50.109375 9.59375 51 8.203125 51 
C 7.59375 51 7 50.90625 6.59375 50.703125 
C 8.5 59.21875 14.296875 63.40625 20.40625 63.40625 
C 29.09375 63.40625 34.796875 56.515625 34.796875 47.421875 
C 34.796875 38.734375 29.703125 31.25 24 24.75 
L 4.09375 2.28125 
L 4.09375 0 
L 39.296875 0 
z
" id="CMR17-50"/>
      </defs>
      <g transform="translate(33.96036 190.882348)scale(0.14 -0.14)">
       <use transform="scale(0.996264)" xlink:href="#CMR17-50"/>
       <use transform="translate(45.690477 0)scale(0.996264)" xlink:href="#CMR17-48"/>
       <use transform="translate(91.380954 0)scale(0.996264)" xlink:href="#CMR17-48"/>
      </g>
     </g>
    </g>
    <g id="ytick_4">
     <g id="line2d_10">
      <g>
       <use style="stroke:#000000;stroke-width:0.8;" x="61.445826" xlink:href="#m968c576074" y="131.71702"/>
      </g>
     </g>
     <g id="text_11">
      <!-- $300$ -->
      <defs>
       <path d="M 22.09375 33.703125 
C 31 33.703125 34.90625 25.96875 34.90625 17.03125 
C 34.90625 5 28.5 0.390625 22.703125 0.390625 
C 17.40625 0.390625 8.796875 3.03125 6.09375 10.828125 
C 6.59375 10.625 7.09375 10.625 7.59375 10.625 
C 10 10.625 11.796875 12.21875 11.796875 14.8125 
C 11.796875 17.703125 9.59375 19 7.59375 19 
C 5.90625 19 3.296875 18.203125 3.296875 14.46875 
C 3.296875 5.234375 12.296875 -2 22.90625 -2 
C 34 -2 42.5 6.71875 42.5 16.953125 
C 42.5 26.671875 34.5 33.703125 25 34.796875 
C 32.59375 36.375 39.90625 43.0625 39.90625 52.015625 
C 39.90625 59.6875 32 65.296875 23 65.296875 
C 13.90625 65.296875 5.90625 59.828125 5.90625 52.015625 
C 5.90625 48.59375 8.5 48 9.796875 48 
C 11.90625 48 13.703125 49.296875 13.703125 51.890625 
C 13.703125 54.46875 11.90625 55.765625 9.796875 55.765625 
C 9.40625 55.765625 8.90625 55.765625 8.5 55.578125 
C 11.40625 61.859375 19.296875 63 22.796875 63 
C 26.296875 63 32.90625 61.328125 32.90625 51.875 
C 32.90625 49.109375 32.5 44.1875 29.09375 39.84375 
C 26.09375 36 22.703125 36 19.40625 35.6875 
C 18.90625 35.6875 16.59375 35.453125 16.203125 35.453125 
C 15.5 35.359375 15.09375 35.265625 15.09375 34.5 
C 15.09375 33.796875 15.203125 33.703125 17.203125 33.703125 
z
" id="CMR17-51"/>
      </defs>
      <g transform="translate(33.96036 136.559958)scale(0.14 -0.14)">
       <use transform="scale(0.996264)" xlink:href="#CMR17-51"/>
       <use transform="translate(45.690477 0)scale(0.996264)" xlink:href="#CMR17-48"/>
       <use transform="translate(91.380954 0)scale(0.996264)" xlink:href="#CMR17-48"/>
      </g>
     </g>
    </g>
    <g id="ytick_5">
     <g id="line2d_11">
      <g>
       <use style="stroke:#000000;stroke-width:0.8;" x="61.445826" xlink:href="#m968c576074" y="77.394629"/>
      </g>
     </g>
     <g id="text_12">
      <!-- $400$ -->
      <defs>
       <path d="M 33.59375 64.40625 
C 33.59375 66.5 33.5 66.5 31.703125 66.5 
L 2 19.59375 
L 2 17 
L 27.796875 17 
L 27.796875 7.140625 
C 27.796875 3.5 27.59375 2.5 20.59375 2.5 
L 18.703125 2.5 
L 18.703125 0 
C 21.90625 0 27.296875 0 30.703125 0 
C 34.09375 0 39.5 0 42.703125 0 
L 42.703125 2.5 
L 40.796875 2.5 
C 33.796875 2.5 33.59375 3.5 33.59375 7.140625 
L 33.59375 17 
L 43.796875 17 
L 43.796875 19.59375 
L 33.59375 19.59375 
z
M 28.09375 57.859375 
L 28.09375 19.59375 
L 4 19.59375 
z
" id="CMR17-52"/>
      </defs>
      <g transform="translate(33.96036 82.237568)scale(0.14 -0.14)">
       <use transform="scale(0.996264)" xlink:href="#CMR17-52"/>
       <use transform="translate(45.690477 0)scale(0.996264)" xlink:href="#CMR17-48"/>
       <use transform="translate(91.380954 0)scale(0.996264)" xlink:href="#CMR17-48"/>
      </g>
     </g>
    </g>
    <g id="ytick_6">
     <g id="line2d_12">
      <g>
       <use style="stroke:#000000;stroke-width:0.8;" x="61.445826" xlink:href="#m968c576074" y="23.072239"/>
      </g>
     </g>
     <g id="text_13">
      <!-- $500$ -->
      <defs>
       <path d="M 11.40625 57.6875 
C 12.40625 57.28125 16.5 56 20.703125 56 
C 30 56 35.09375 61.109375 38 64.0625 
C 38 64.953125 38 65.5 37.40625 65.5 
C 37.296875 65.5 37.09375 65.5 36.296875 65.046875 
C 32.796875 63.40625 28.703125 62.078125 23.703125 62.078125 
C 20.703125 62.078125 16.203125 62.484375 11.296875 64.671875 
C 10.203125 65.171875 10 65.171875 9.90625 65.171875 
C 9.40625 65.171875 9.296875 65.0625 9.296875 63.078125 
L 9.296875 34.421875 
C 9.296875 32.640625 9.296875 32.140625 10.296875 32.140625 
C 10.796875 32.140625 11 32.34375 11.5 33.03125 
C 14.703125 37.515625 19.09375 39.40625 24.09375 39.40625 
C 27.59375 39.40625 35.09375 37.21875 35.09375 20.140625 
C 35.09375 16.953125 35.09375 11.171875 32.09375 6.578125 
C 29.59375 2.484375 25.703125 0.390625 21.40625 0.390625 
C 14.796875 0.390625 8.09375 5 6.296875 12.71875 
C 6.703125 12.609375 7.5 12.421875 7.90625 12.421875 
C 9.203125 12.421875 11.703125 13.125 11.703125 16.21875 
C 11.703125 18.90625 9.796875 20 7.90625 20 
C 5.59375 20 4.09375 18.59375 4.09375 15.796875 
C 4.09375 7.09375 11 -2 21.59375 -2 
C 31.90625 -2 41.703125 6.875 41.703125 19.75 
C 41.703125 31.71875 33.90625 41 24.203125 41 
C 19.09375 41 14.796875 39.109375 11.40625 35.53125 
z
" id="CMR17-53"/>
      </defs>
      <g transform="translate(33.96036 27.915177)scale(0.14 -0.14)">
       <use transform="scale(0.996264)" xlink:href="#CMR17-53"/>
       <use transform="translate(45.690477 0)scale(0.996264)" xlink:href="#CMR17-48"/>
       <use transform="translate(91.380954 0)scale(0.996264)" xlink:href="#CMR17-48"/>
      </g>
     </g>
    </g>
    <g id="text_14">
     <!-- Phonon frequency $\omega$ ($cm^{-1}$) -->
     <defs>
      <path d="M 19.796875 31.90625 
L 35.796875 31.90625 
C 48.703125 31.90625 58.09375 40.28125 58.09375 49.75 
C 58.09375 59.234375 48.90625 68 35.796875 68 
L 5.203125 68 
L 5.203125 65.40625 
C 12.09375 65.40625 13.203125 65.40625 13.203125 60.921875 
L 13.203125 6.96875 
C 13.203125 2.5 12.09375 2.5 5.203125 2.5 
L 5.203125 0 
C 8.09375 0 13.40625 0 16.5 0 
C 19.59375 0 24.90625 0 27.796875 0 
L 27.796875 2.5 
C 20.90625 2.5 19.796875 2.5 19.796875 6.96875 
z
M 19.59375 34 
L 19.59375 61.53125 
C 19.59375 64.921875 19.796875 65.40625 23.796875 65.40625 
L 33.90625 65.40625 
C 46.796875 65.40625 50.5 58.03125 50.5 49.75 
C 50.5 40.6875 46.09375 34 33.90625 34 
z
" id="CMR17-80"/>
      <path d="M 41.5 30.203125 
C 41.5 35.296875 40.5 43.59375 28.703125 43.59375 
C 20.5 43.59375 16.5 37 15.296875 33.703125 
L 15.203125 33.703125 
L 15.203125 68.6875 
L 3.296875 67.59375 
L 3.296875 65 
C 9.203125 65 10.09375 64.40625 10.09375 59.640625 
L 10.09375 6.65625 
C 10.09375 2.875 9.703125 2.390625 3.296875 2.390625 
L 3.296875 -0.203125 
C 5.703125 0 10.09375 0 12.703125 0 
C 15.296875 0 19.796875 0 22.203125 -0.203125 
L 22.203125 2.390625 
C 15.796875 2.390625 15.40625 2.78125 15.40625 6.6875 
L 15.40625 25.90625 
C 15.40625 35.109375 21 42 28 42 
C 35.40625 42 36.203125 35.40625 36.203125 30.59375 
L 36.203125 6.6875 
C 36.203125 2.875 35.796875 2.390625 29.40625 2.390625 
L 29.40625 -0.203125 
C 31.796875 0 36.203125 0 38.796875 0 
C 41.40625 0 45.90625 0 48.296875 -0.203125 
L 48.296875 2.390625 
C 41.90625 2.390625 41.5 2.78125 41.5 6.6875 
z
" id="CMR17-104"/>
      <path d="M 15.296875 40 
L 26.703125 40 
L 26.703125 42.578125 
L 15.09375 42.578125 
L 15.09375 54.59375 
C 15.09375 62.84375 19.296875 68 23.59375 68 
C 24.90625 68 26.40625 67.609375 27.40625 66.90625 
C 26.59375 66.703125 24.5 66.015625 24.5 63.546875 
C 24.5 60.953125 26.5 60.15625 27.90625 60.15625 
C 29.296875 60.15625 31.296875 60.953125 31.296875 63.546875 
C 31.296875 67.3125 27.703125 69.59375 23.703125 69.59375 
C 18 69.59375 10.203125 64.9375 10.203125 54.390625 
L 10.203125 42.578125 
L 2.203125 42.578125 
L 2.203125 40 
L 10.203125 40 
L 10.203125 6.671875 
C 10.203125 2.875 9.796875 2.390625 3.40625 2.390625 
L 3.40625 -0.203125 
C 5.796875 0 10.40625 0 13 0 
C 15.90625 0 21 0 23.703125 -0.203125 
L 23.703125 2.390625 
C 16.5 2.390625 15.296875 2.390625 15.296875 6.859375 
z
" id="CMR17-102"/>
      <path d="M 41.09375 43.78125 
L 39.5 43.78125 
L 36.5 33.9375 
C 34.203125 39.203125 30 43.78125 23.296875 43.78125 
C 13.09375 43.78125 3.296875 34.734375 3.296875 21.609375 
C 3.296875 8.5625 12.5 -0.59375 22.5 -0.59375 
C 30.203125 -0.59375 34.5 5.28125 35.796875 7.46875 
L 35.796875 -12.328125 
C 35.796875 -16.109375 35.40625 -16.609375 29 -16.609375 
L 29 -19.1875 
C 31.40625 -19 35.796875 -19 38.40625 -19 
C 41 -19 45.5 -19 47.90625 -19.1875 
L 47.90625 -16.609375 
C 41.5 -16.609375 41.09375 -16.203125 41.09375 -12.328125 
z
M 36 13.84375 
C 36 9.5625 32.40625 5.578125 32.09375 5.28125 
C 29 1.796875 25.40625 1 23 1 
C 15.5 1 9.703125 10.453125 9.703125 21.484375 
C 9.703125 33.140625 16.296875 42 24 42 
C 32 42 36 32.9375 36 27.765625 
z
" id="CMR17-113"/>
      <path d="M 34.90625 35 
C 33 35 30.203125 35 30.203125 31.515625 
C 30.203125 28.71875 32.5 27.921875 33.796875 27.921875 
C 34.5 27.921875 37.40625 28.234375 37.40625 31.625 
C 37.40625 38.546875 30.59375 43.796875 22.90625 43.796875 
C 12.296875 43.796875 3.296875 34.03125 3.296875 21.296875 
C 3.296875 8.0625 12.703125 -1 22.90625 -1 
C 35.296875 -1 38.40625 10.578125 38.40625 11.6875 
C 38.40625 12.09375 38.296875 12.390625 37.59375 12.390625 
C 36.90625 12.390625 36.796875 12.296875 36.40625 10.984375 
C 33.796875 2.8125 28.09375 0.796875 23.796875 0.796875 
C 17.40625 0.796875 9.703125 6.671875 9.703125 21.390625 
C 9.703125 36.53125 17.09375 42 23 42 
C 26.90625 42 32.703125 40.203125 34.90625 35 
z
" id="CMR17-99"/>
      <path d="M 39 34.328125 
C 41.5 40.40625 46 40.40625 47.40625 40.40625 
L 47.40625 43 
C 45.5 43 43 43 41.09375 43 
C 39 43 35.703125 43 33.703125 43.09375 
L 33.703125 40.5 
C 37.5 40.203125 37.59375 37.40625 37.59375 36.609375 
C 37.59375 35.625 37.40625 35.125 36.90625 33.921875 
L 26 7.015625 
L 14.09375 36.03125 
C 13.59375 37.21875 13.59375 37.90625 13.59375 38.015625 
C 13.59375 40.203125 15.90625 40.40625 18.296875 40.40625 
L 18.296875 43.09375 
C 15.90625 43 11.59375 43 9.09375 43 
C 6.40625 43 3.203125 43 1 43.09375 
L 1 40.40625 
C 6.40625 40.40625 7 39.90625 8.296875 36.71875 
L 23.203125 0.234375 
C 18.703125 -11.53125 16.09375 -18.40625 9.796875 -18.40625 
C 8.703125 -18.40625 6.203125 -18.109375 4.40625 -16.3125 
C 6.703125 -16.109375 7.703125 -14.71875 7.703125 -13.015625 
C 7.703125 -11.328125 6.5 -9.828125 4.5 -9.828125 
C 2.296875 -9.828125 1.203125 -11.328125 1.203125 -13.125 
C 1.203125 -17.109375 5.296875 -20 9.796875 -20 
C 15.59375 -20 19.203125 -14.40625 21.203125 -9.4375 
z
" id="CMR17-121"/>
      <path d="M 59.40625 37.421875 
C 59.40625 40.3125 58.59375 44 55.09375 44 
C 53.09375 44 50.796875 41.515625 50.796875 39.515625 
C 50.796875 38.625 51.203125 38.03125 52 37.125 
C 53.5 35.4375 55.40625 32.75 55.40625 28.078125 
C 55.40625 24.484375 53.203125 18.8125 51.59375 15.734375 
C 48.796875 10.25 44.203125 5.578125 39 5.578125 
C 32.703125 5.578125 30.296875 9.609375 29.203125 15.234375 
C 30.296875 17.859375 32.59375 24.375 32.59375 27 
C 32.59375 28.09375 32.203125 29 30.90625 29 
C 30.203125 29 29.40625 28.609375 28.90625 27.796875 
C 27.5 25.59375 26.203125 17.640625 26.296875 15.53125 
C 24.40625 11.8125 19 5.578125 12.59375 5.578125 
C 5.90625 5.578125 4.09375 11.453125 4.09375 17.125 
C 4.09375 27.46875 10.59375 36.53125 12.40625 39.015625 
C 13.40625 40.515625 14.09375 41.515625 14.09375 41.703125 
C 14.09375 42.40625 13.703125 43.5 12.796875 43.5 
C 11.203125 43.5 10.703125 42.203125 9.90625 41.015625 
C 4.796875 33.140625 1.203125 22.09375 1.203125 12.546875 
C 1.203125 6.375 3.5 -1 11 -1 
C 19.296875 -1 24.5 6.109375 26.59375 9.90625 
C 27.40625 4.296875 30.40625 -1 37.703125 -1 
C 45.296875 -1 50.09375 5.671875 53.703125 13.734375 
C 56.296875 19.515625 59.40625 31.953125 59.40625 37.421875 
z
" id="CMMI12-33"/>
      <path d="M 30.59375 -24.390625 
C 30.59375 -24.296875 30.59375 -24.09375 30.296875 -23.796875 
C 25.703125 -19.125 13.40625 -6.359375 13.40625 24.703125 
C 13.40625 55.765625 25.5 68.421875 30.40625 73.390625 
C 30.40625 73.5 30.59375 73.703125 30.59375 74 
C 30.59375 74.296875 30.296875 74.5 29.90625 74.5 
C 28.796875 74.5 20.296875 67.125 15.40625 56.15625 
C 10.40625 45.109375 9 34.359375 9 24.8125 
C 9 17.625 9.703125 5.484375 15.703125 -7.359375 
C 20.5 -17.734375 28.703125 -25 29.90625 -25 
C 30.40625 -25 30.59375 -24.796875 30.59375 -24.390625 
z
" id="CMR17-40"/>
      <path d="M 39.09375 37.984375 
C 37.203125 37.984375 36.296875 37.984375 34.90625 36.796875 
C 34.296875 36.296875 33.203125 34.796875 33.203125 33.203125 
C 33.203125 31.203125 34.703125 30 36.59375 30 
C 39 30 41.703125 31.9375 41.703125 35.8125 
C 41.703125 40.4375 37.09375 44 30.203125 44 
C 17.09375 44 4 29.734375 4 15.5625 
C 4 6.890625 9.40625 -1 19.59375 -1 
C 33.203125 -1 41.796875 9.71875 41.796875 11.03125 
C 41.796875 11.625 41.203125 12.125 40.796875 12.125 
C 40.5 12.125 40.40625 12.03125 39.5 11.140625 
C 33.09375 2.53125 23.59375 1 19.796875 1 
C 12.90625 1 10.703125 6.96875 10.703125 11.9375 
C 10.703125 15.4375 12.40625 25.078125 16 31.859375 
C 18.59375 36.53125 24 41.90625 30.296875 41.90625 
C 31.59375 41.90625 37.09375 41.90625 39.09375 37.984375 
z
" id="CMMI12-99"/>
      <path d="M 20.59375 29.234375 
C 20.796875 29.84375 23.296875 34.828125 27 38.015625 
C 29.59375 40.40625 33 42.015625 36.90625 42.015625 
C 40.90625 42.015625 42.296875 39.015625 42.296875 35.03125 
C 42.296875 34.421875 42.296875 32.4375 41.09375 27.734375 
L 38.59375 17.46875 
C 37.796875 14.46875 35.90625 7.078125 35.703125 5.984375 
C 35.296875 4.484375 34.703125 1.890625 34.703125 1.5 
C 34.703125 0.09375 35.796875 -1 37.296875 -1 
C 40.296875 -1 40.796875 1.296875 41.703125 4.890625 
L 47.703125 28.734375 
C 47.90625 29.53125 53.09375 42.015625 64.09375 42.015625 
C 68.09375 42.015625 69.5 39.015625 69.5 35.03125 
C 69.5 29.4375 65.59375 18.5625 63.40625 12.578125 
C 62.5 10.171875 62 8.875 62 7.078125 
C 62 2.59375 65.09375 -1 69.90625 -1 
C 79.203125 -1 82.703125 13.671875 82.703125 14.265625 
C 82.703125 14.765625 82.296875 15.171875 81.703125 15.171875 
C 80.796875 15.171875 80.703125 14.875 80.203125 13.171875 
C 77.90625 5.1875 74.203125 1 70.203125 1 
C 69.203125 1 67.59375 1 67.59375 4.203125 
C 67.59375 6.8125 68.796875 10 69.203125 11.09375 
C 71 15.90625 75.5 27.703125 75.5 33.515625 
C 75.5 39.5 72 44 64.40625 44 
C 57.703125 44 52.296875 40.21875 48.296875 34.328125 
C 48 39.71875 44.703125 44 37.203125 44 
C 28.296875 44 23.59375 37.734375 21.796875 35.234375 
C 21.5 40.90625 17.40625 44 13 44 
C 10.09375 44 7.796875 42.609375 5.90625 38.8125 
C 4.09375 35.21875 2.703125 29.140625 2.703125 28.734375 
C 2.703125 28.34375 3.09375 27.84375 3.796875 27.84375 
C 4.59375 27.84375 4.703125 27.9375 5.296875 30.234375 
C 6.796875 36.125 8.703125 42.015625 12.703125 42.015625 
C 15 42.015625 15.796875 40.40625 15.796875 37.421875 
C 15.796875 35.21875 14.796875 31.328125 14.09375 28.234375 
L 11.296875 17.46875 
C 10.90625 15.5625 9.796875 11.078125 9.296875 9.28125 
C 8.59375 6.6875 7.5 2 7.5 1.5 
C 7.5 0.09375 8.59375 -1 10.09375 -1 
C 11.296875 -1 12.703125 -0.40625 13.5 1.09375 
C 13.703125 1.59375 14.59375 5.09375 15.09375 7.078125 
L 17.296875 16.0625 
z
" id="CMMI12-109"/>
      <path d="M 65.90625 23 
C 67.59375 23 69.40625 23 69.40625 25 
C 69.40625 27 67.59375 27 65.90625 27 
L 11.796875 27 
C 10.09375 27 8.296875 27 8.296875 25 
C 8.296875 23 10.09375 23 11.796875 23 
z
" id="CMSY10-0"/>
      <path d="M 26.296875 24.703125 
C 26.296875 31.875 25.59375 44.015625 19.59375 56.859375 
C 14.796875 67.234375 6.59375 74.5 5.40625 74.5 
C 5.09375 74.5 4.703125 74.390625 4.703125 73.890625 
C 4.703125 73.703125 4.796875 73.59375 4.90625 73.390625 
C 9.703125 68.40625 21.90625 55.75 21.90625 24.75 
C 21.90625 -6.359375 9.796875 -19.015625 4.90625 -24.015625 
C 4.796875 -24.203125 4.703125 -24.3125 4.703125 -24.5 
C 4.703125 -25 5.09375 -25 5.40625 -25 
C 6.5 -25 15 -17.625 19.90625 -6.65625 
C 24.90625 4.390625 26.296875 15.140625 26.296875 24.703125 
z
" id="CMR17-41"/>
     </defs>
     <g transform="translate(26.473436 239.872595)rotate(-90)scale(0.14 -0.14)">
      <use transform="scale(0.996264)" xlink:href="#CMR17-80"/>
      <use transform="translate(62.586301 0)scale(0.996264)" xlink:href="#CMR17-104"/>
      <use transform="translate(113.48167 0)scale(0.996264)" xlink:href="#CMR17-111"/>
      <use transform="translate(159.172147 0)scale(0.996264)" xlink:href="#CMR17-110"/>
      <use transform="translate(210.067517 0)scale(0.996264)" xlink:href="#CMR17-111"/>
      <use transform="translate(255.757994 0)scale(0.996264)" xlink:href="#CMR17-110"/>
      <use transform="translate(336.72933 0)scale(0.996264)" xlink:href="#CMR17-102"/>
      <use transform="translate(364.202843 0)scale(0.996264)" xlink:href="#CMR17-114"/>
      <use transform="translate(399.483611 0)scale(0.996264)" xlink:href="#CMR17-101"/>
      <use transform="translate(439.969271 0)scale(0.996264)" xlink:href="#CMR17-113"/>
      <use transform="translate(488.262187 0)scale(0.996264)" xlink:href="#CMR17-117"/>
      <use transform="translate(539.157557 0)scale(0.996264)" xlink:href="#CMR17-101"/>
      <use transform="translate(579.643217 0)scale(0.996264)" xlink:href="#CMR17-110"/>
      <use transform="translate(630.538587 0)scale(0.996264)" xlink:href="#CMR17-99"/>
      <use transform="translate(671.024247 0)scale(0.996264)" xlink:href="#CMR17-121"/>
      <use transform="translate(749.39313 0)scale(0.996264)" xlink:href="#CMMI12-33"/>
      <use transform="translate(843.787442 0)scale(0.996264)" xlink:href="#CMR17-40"/>
      <use transform="translate(879.06821 0)scale(0.996264)" xlink:href="#CMMI12-99"/>
      <use transform="translate(921.051443 0)scale(0.996264)" xlink:href="#CMMI12-109"/>
      <use transform="translate(1006.378668 36.153639)scale(0.697382)" xlink:href="#CMSY10-0"/>
      <use transform="translate(1060.619661 36.153639)scale(0.697382)" xlink:href="#CMR17-49"/>
      <use transform="translate(1093.100975 0)scale(0.996264)" xlink:href="#CMR17-41"/>
     </g>
    </g>
   </g>
   <g id="line2d_13">
    <path clip-path="url(#pdaf2c8e980)" d="M 61.445826 294.68419 
L 69.449336 272.458565 
L 74.251442 259.908734 
L 77.452846 252.161873 
L 80.654251 245.084915 
L 83.855655 238.807365 
L 85.456357 235.996996 
L 87.057059 233.412826 
L 88.657761 231.054473 
L 90.258463 228.917105 
L 91.859165 226.99143 
L 93.459867 225.265065 
L 95.060569 223.723232 
L 96.661271 222.350179 
L 99.862675 220.048594 
L 103.064079 218.249871 
L 106.265483 216.870191 
L 109.466887 215.847789 
L 112.668292 215.129702 
L 115.869696 214.661334 
L 119.0711 214.384561 
L 123.873206 214.213446 
L 125.473908 214.203233 
L 127.07461 214.024078 
L 128.675312 213.491882 
L 130.276014 212.621854 
L 131.876716 211.438495 
L 133.477418 209.973692 
L 135.07812 208.26509 
L 138.279524 204.286844 
L 147.883737 191.252458 
L 149.484439 189.440643 
L 151.085141 187.868119 
L 152.685843 186.583449 
L 154.286545 185.630091 
L 155.887247 185.04292 
L 157.487949 184.844589 
L 158.619838 185.610643 
L 159.751662 186.606916 
L 160.88355 187.829333 
L 162.015439 189.266105 
L 164.279152 192.699498 
L 166.542865 196.680406 
L 172.202243 206.988894 
L 174.465955 210.360087 
L 175.597844 211.720157 
L 176.729668 212.816709 
L 177.861557 213.621549 
L 178.993445 214.11333 
L 180.12527 214.278796 
L 185.218704 213.891694 
L 188.614305 213.864913 
L 192.009906 214.202038 
L 193.707675 214.546171 
L 195.405507 215.022687 
L 197.103276 215.639409 
L 198.801109 216.401389 
L 200.498877 217.311289 
L 202.19671 218.369489 
L 203.894479 219.57512 
L 205.592311 220.926172 
L 208.987913 224.054653 
L 212.383514 227.73581 
L 215.779115 231.956605 
L 219.174716 236.710466 
L 222.570318 241.992232 
L 225.965919 247.789681 
L 229.36152 254.07652 
L 232.757121 260.808313 
L 237.850555 271.601194 
L 242.943925 282.991296 
L 248.037359 294.68419 
L 254.968591 277.74723 
L 259.127343 268.326912 
L 261.899823 262.580201 
L 264.672303 257.365414 
L 267.444783 252.747685 
L 270.217327 248.76178 
L 272.989807 245.408513 
L 275.762287 242.655509 
L 278.534831 240.443012 
L 281.307311 238.693722 
L 284.079791 237.323929 
L 286.852271 236.254701 
L 289.624815 235.420255 
L 292.397295 234.772678 
L 296.556047 234.091258 
L 300.714799 233.72632 
L 303.487279 233.65657 
L 303.487279 233.65657 
" style="fill:none;stroke:#0000ff;stroke-linecap:square;stroke-width:1.5;"/>
   </g>
   <g id="line2d_14">
    <path clip-path="url(#pdaf2c8e980)" d="M 61.445826 294.68419 
L 69.449336 272.45851 
L 74.251442 259.908734 
L 77.452846 252.161873 
L 80.654251 245.08486 
L 83.855655 238.807365 
L 85.456357 235.996996 
L 87.057059 233.412826 
L 88.657761 231.054473 
L 90.258463 228.917105 
L 91.859165 226.99143 
L 93.459867 225.265065 
L 95.060569 223.723232 
L 96.661271 222.350179 
L 99.862675 220.048594 
L 103.064079 218.249871 
L 106.265483 216.870191 
L 109.466887 215.847789 
L 112.668292 215.129702 
L 115.869696 214.661334 
L 119.0711 214.384561 
L 123.873206 214.213446 
L 125.473908 214.203233 
L 127.07461 214.024078 
L 128.675312 213.491882 
L 130.276014 212.621854 
L 131.876716 211.438495 
L 133.477418 209.973692 
L 135.07812 208.26509 
L 138.279524 204.286844 
L 147.883737 191.252458 
L 149.484439 189.440643 
L 151.085141 187.868119 
L 152.685843 186.583449 
L 154.286545 185.630091 
L 155.887247 185.04292 
L 157.487949 184.844589 
L 159.751662 183.644933 
L 162.015439 182.645836 
L 164.279152 181.83339 
L 167.674753 180.923327 
L 171.070354 180.320077 
L 174.465955 179.955791 
L 178.993445 179.752408 
L 180.12527 179.74426 
L 181.823102 178.291136 
L 183.520871 177.293451 
L 185.218704 176.724967 
L 186.916472 176.553199 
L 188.614305 176.746967 
L 190.312073 177.281174 
L 192.009906 178.137512 
L 193.707675 179.301967 
L 195.405507 180.761609 
L 197.103276 182.500904 
L 198.801109 184.499424 
L 200.498877 186.73088 
L 203.894479 191.764229 
L 207.29008 197.332492 
L 212.383514 206.247719 
L 215.779115 212.497782 
L 219.174716 219.11615 
L 222.570318 226.273125 
L 225.965919 234.09191 
L 229.36152 242.585161 
L 232.757121 251.644886 
L 239.548324 270.691023 
L 248.037359 294.68419 
L 254.968591 277.74723 
L 259.127343 268.326912 
L 261.899823 262.580201 
L 264.672303 257.365414 
L 267.444783 252.747685 
L 270.217327 248.76178 
L 272.989807 245.408513 
L 275.762287 242.655509 
L 278.534831 240.443012 
L 281.307311 238.693722 
L 284.079791 237.323929 
L 286.852271 236.254701 
L 289.624815 235.420255 
L 292.397295 234.772678 
L 296.556047 234.091258 
L 300.714799 233.72632 
L 303.487279 233.65657 
L 303.487279 233.65657 
" style="fill:none;stroke:#0000ff;stroke-linecap:square;stroke-width:1.5;"/>
   </g>
   <g id="line2d_15">
    <path clip-path="url(#pdaf2c8e980)" d="M 61.445826 294.68419 
L 72.65074 247.798535 
L 79.053548 221.889308 
L 85.456357 196.987979 
L 90.258463 179.111512 
L 95.060569 162.035106 
L 99.862675 145.872131 
L 104.664781 130.732535 
L 107.866185 121.250888 
L 111.06759 112.275471 
L 114.268994 103.809272 
L 117.470398 95.846207 
L 120.671802 88.374325 
L 123.873206 81.378905 
L 125.473908 78.055353 
L 127.07461 78.264168 
L 128.675312 78.88051 
L 130.276014 79.876348 
L 131.876716 81.211375 
L 133.477418 82.839254 
L 135.07812 84.711801 
L 138.279524 88.998652 
L 147.883737 102.729234 
L 149.484439 104.617969 
L 151.085141 106.254214 
L 152.685843 107.588698 
L 154.286545 108.577746 
L 155.887247 109.186319 
L 157.487949 109.391821 
L 158.619838 110.066125 
L 159.751662 110.502171 
L 160.88355 110.704793 
L 162.015439 110.686649 
L 163.147263 110.467839 
L 164.279152 110.074436 
L 166.542865 108.887926 
L 169.938466 106.60204 
L 172.202243 105.092964 
L 174.465955 103.816605 
L 176.729668 102.901164 
L 177.861557 102.605053 
L 178.993445 102.425137 
L 180.12527 102.364785 
L 183.520871 108.197434 
L 188.614305 117.467931 
L 193.707675 127.214508 
L 198.801109 137.335693 
L 203.894479 147.867175 
L 208.987913 159.004297 
L 212.383514 166.919232 
L 215.779115 175.35702 
L 219.174716 184.438855 
L 222.570318 194.284299 
L 225.965919 204.996349 
L 229.36152 216.641874 
L 232.757121 229.232555 
L 236.152723 242.713579 
L 239.548324 256.963537 
L 244.641758 279.378314 
L 248.037359 294.68419 
L 260.513551 237.492383 
L 266.058575 212.869293 
L 270.217327 195.116464 
L 274.376079 178.212586 
L 278.534831 162.322526 
L 282.693519 147.531191 
L 286.852271 133.83983 
L 291.011023 121.203355 
L 293.783567 113.361049 
L 296.556047 106.048169 
L 299.328527 99.512045 
L 300.714799 96.779357 
L 302.101007 94.765137 
L 303.487279 93.984796 
L 303.487279 93.984796 
" style="fill:none;stroke:#0000ff;stroke-linecap:square;stroke-width:1.5;"/>
   </g>
   <g id="line2d_16">
    <path clip-path="url(#pdaf2c8e980)" d="M 61.445826 22.863641 
L 63.046528 22.947732 
L 64.64723 23.200657 
L 66.247932 23.624589 
L 67.848634 24.222135 
L 69.449336 24.995089 
L 71.050038 25.943069 
L 72.65074 27.061947 
L 74.251442 28.342543 
L 77.452846 31.321909 
L 82.254953 36.428539 
L 85.456357 39.85009 
L 88.657761 42.960753 
L 91.859165 45.569803 
L 93.459867 46.660216 
L 95.060569 47.609989 
L 98.261973 49.131722 
L 101.463377 50.25902 
L 104.664781 51.133176 
L 109.466887 52.202729 
L 111.06759 53.152231 
L 114.268994 57.916358 
L 117.470398 63.12028 
L 120.671802 68.762258 
L 123.873206 74.845605 
L 125.473908 78.055353 
L 127.07461 78.264168 
L 128.675312 78.88051 
L 130.276014 79.876348 
L 131.876716 81.211375 
L 133.477418 82.839254 
L 135.07812 84.711801 
L 138.279524 88.998652 
L 147.883737 102.729234 
L 149.484439 104.617969 
L 151.085141 106.254214 
L 152.685843 107.588698 
L 154.286545 108.577746 
L 155.887247 109.186319 
L 157.487949 109.391821 
L 163.147263 105.577574 
L 166.542865 103.516691 
L 169.938466 101.732255 
L 172.202243 100.749237 
L 174.465955 99.971667 
L 176.729668 99.431756 
L 178.993445 99.154875 
L 181.823102 99.175789 
L 183.520871 98.734311 
L 185.218704 97.842881 
L 186.916472 96.564132 
L 188.614305 94.964826 
L 190.312073 93.108087 
L 193.707675 88.828352 
L 197.103276 84.033586 
L 200.498877 78.891048 
L 205.592311 70.67294 
L 210.685681 61.917691 
L 222.570318 40.985102 
L 225.965919 35.80796 
L 227.663752 33.514958 
L 229.36152 31.451305 
L 231.059353 29.631776 
L 236.152723 26.753016 
L 239.548324 25.022467 
L 241.246157 24.290419 
L 242.943925 23.68668 
L 244.641758 23.23613 
L 246.339527 22.957782 
L 248.037359 22.863641 
L 250.809839 23.065286 
L 253.582319 23.653706 
L 256.354799 24.581098 
L 259.127343 25.774017 
L 263.286095 27.860758 
L 266.058575 29.428882 
L 268.831055 31.741006 
L 271.603535 34.373904 
L 274.376079 37.292591 
L 277.148559 40.466649 
L 279.921039 43.878692 
L 282.693519 47.529537 
L 285.466063 51.436675 
L 288.238543 55.626833 
L 291.011023 60.123043 
L 295.169775 67.423374 
L 299.328527 74.993254 
L 300.714799 77.255836 
L 302.101007 78.98834 
L 303.487279 79.674812 
L 303.487279 79.674812 
" style="fill:none;stroke:#ff0000;stroke-linecap:square;stroke-width:1.5;"/>
   </g>
   <g id="line2d_17">
    <path clip-path="url(#pdaf2c8e980)" d="M 61.445826 22.863641 
L 63.046528 22.947732 
L 64.64723 23.200657 
L 66.247932 23.624589 
L 67.848634 24.222135 
L 69.449336 24.995089 
L 71.050038 25.943069 
L 72.65074 27.061947 
L 74.251442 28.342543 
L 77.452846 31.321855 
L 82.254953 36.428539 
L 85.456357 39.85009 
L 88.657761 42.960753 
L 91.859165 45.569803 
L 93.459867 46.660216 
L 95.060569 47.609989 
L 98.261973 49.131722 
L 101.463377 50.25902 
L 104.664781 51.133176 
L 109.466887 52.202729 
L 115.869696 53.374192 
L 120.671802 53.974509 
L 123.873206 54.168657 
L 127.07461 54.138291 
L 130.276014 53.738369 
L 141.480929 51.664883 
L 146.283035 51.189726 
L 151.085141 50.965374 
L 157.487949 50.885629 
L 174.465955 52.66762 
L 178.993445 52.829881 
L 180.12527 52.836835 
L 185.218704 52.007169 
L 190.312073 50.913659 
L 193.707675 49.968721 
L 197.103276 48.790523 
L 200.498877 47.341093 
L 203.894479 45.613695 
L 207.29008 43.639837 
L 212.383514 40.362784 
L 222.570318 33.591172 
L 224.26815 32.709683 
L 227.663752 31.26009 
L 231.059353 29.553443 
L 232.757121 28.062674 
L 234.454954 26.741554 
L 236.152723 25.84594 
L 239.548324 24.455341 
L 242.943925 23.455266 
L 244.641758 23.129332 
L 246.339527 22.930512 
L 249.423567 22.914324 
L 252.196047 23.313485 
L 254.968591 24.079105 
L 257.741071 25.149745 
L 261.899823 27.141747 
L 270.217327 31.359283 
L 272.989807 32.556222 
L 275.762287 33.58172 
L 278.534831 34.431648 
L 282.693519 35.411027 
L 286.852271 36.111297 
L 292.397295 36.745293 
L 297.942255 37.122128 
L 303.487279 37.251035 
L 303.487279 37.251035 
" style="fill:none;stroke:#ff0000;stroke-linecap:square;stroke-width:1.5;"/>
   </g>
   <g id="line2d_18">
    <path clip-path="url(#pdaf2c8e980)" d="M 61.445826 22.863641 
L 66.247932 22.993417 
L 69.449336 23.27698 
L 72.65074 23.803907 
L 75.852144 24.640798 
L 79.053548 25.815954 
L 82.254953 27.312645 
L 85.456357 29.084641 
L 88.657761 31.085878 
L 91.859165 33.296528 
L 95.060569 35.734951 
L 98.261973 38.45069 
L 101.463377 41.505727 
L 104.664781 44.954439 
L 107.866185 48.831862 
L 109.466887 50.93642 
L 111.06759 52.52258 
L 115.869696 53.374192 
L 120.671802 53.974509 
L 123.873206 54.168657 
L 127.07461 54.138291 
L 130.276014 53.738369 
L 141.480929 51.664883 
L 146.283035 51.189726 
L 151.085141 50.965374 
L 158.619838 50.74564 
L 160.88355 50.335452 
L 163.147263 49.746217 
L 166.542865 48.554438 
L 175.597844 44.974484 
L 177.861557 44.480693 
L 180.12527 44.308328 
L 183.520871 42.896381 
L 186.916472 41.71112 
L 190.312073 40.738804 
L 195.405507 39.57712 
L 212.383514 36.108472 
L 217.476884 34.871388 
L 220.872485 33.894835 
L 222.570318 33.332815 
L 224.26815 32.510265 
L 229.36152 29.419376 
L 232.757121 27.529608 
L 234.454954 26.657028 
L 236.152723 25.657496 
L 237.850555 24.792683 
L 239.548324 24.124083 
L 241.246157 23.625839 
L 242.943925 23.271765 
L 246.339527 22.90623 
L 249.423567 22.897973 
L 252.196047 23.175615 
L 254.968591 23.746326 
L 257.741071 24.635529 
L 260.513551 25.869733 
L 263.286095 27.466757 
L 266.058575 29.309807 
L 270.217327 31.359283 
L 272.989807 32.556222 
L 275.762287 33.58172 
L 278.534831 34.431648 
L 282.693519 35.411027 
L 286.852271 36.111297 
L 292.397295 36.745293 
L 297.942255 37.122128 
L 303.487279 37.251035 
L 303.487279 37.251035 
" style="fill:none;stroke:#ff0000;stroke-linecap:square;stroke-width:1.5;"/>
   </g>
   <g id="line2d_19">
    <path clip-path="url(#pdaf2c8e980)" d="M 61.445826 294.68419 
L 61.445826 17.64 
" style="fill:none;stroke:#000000;stroke-linecap:square;stroke-width:1.5;"/>
   </g>
   <g id="line2d_20">
    <path clip-path="url(#pdaf2c8e980)" d="M 125.473908 294.68419 
L 125.473908 17.64 
" style="fill:none;stroke:#000000;stroke-linecap:square;stroke-width:1.5;"/>
   </g>
   <g id="line2d_21">
    <path clip-path="url(#pdaf2c8e980)" d="M 157.487949 294.68419 
L 157.487949 17.64 
" style="fill:none;stroke:#000000;stroke-linecap:square;stroke-width:1.5;"/>
   </g>
   <g id="line2d_22">
    <path clip-path="url(#pdaf2c8e980)" d="M 180.12527 294.68419 
L 180.12527 17.64 
" style="fill:none;stroke:#000000;stroke-linecap:square;stroke-width:1.5;"/>
   </g>
   <g id="line2d_23">
    <path clip-path="url(#pdaf2c8e980)" d="M 248.037359 294.68419 
L 248.037359 17.64 
" style="fill:none;stroke:#000000;stroke-linecap:square;stroke-width:1.5;"/>
   </g>
   <g id="line2d_24">
    <path clip-path="url(#pdaf2c8e980)" d="M 303.487279 294.68419 
L 303.487279 17.64 
" style="fill:none;stroke:#000000;stroke-linecap:square;stroke-width:1.5;"/>
   </g>
   <g id="patch_3">
    <path d="M 61.445826 294.68419 
L 61.445826 17.64 
" style="fill:none;stroke:#000000;stroke-linecap:square;stroke-linejoin:miter;stroke-width:0.8;"/>
   </g>
   <g id="patch_4">
    <path d="M 303.487279 294.68419 
L 303.487279 17.64 
" style="fill:none;stroke:#000000;stroke-linecap:square;stroke-linejoin:miter;stroke-width:0.8;"/>
   </g>
   <g id="patch_5">
    <path d="M 61.445826 294.68419 
L 303.487279 294.68419 
" style="fill:none;stroke:#000000;stroke-linecap:square;stroke-linejoin:miter;stroke-width:0.8;"/>
   </g>
   <g id="patch_6">
    <path d="M 61.445826 17.64 
L 303.487279 17.64 
" style="fill:none;stroke:#000000;stroke-linecap:square;stroke-linejoin:miter;stroke-width:0.8;"/>
   </g>
  </g>
  <g id="axes_2">
   <g id="patch_7">
    <path d="M 344.126378 294.68419 
L 424.806862 294.68419 
L 424.806862 17.64 
L 344.126378 17.64 
z
" style="fill:#ffffff;"/>
   </g>
   <g id="matplotlib.axis_3">
    <g id="text_15">
     <!-- Density of states $g(\omega)$ -->
     <defs>
      <path d="M 5.203125 68 
L 5.203125 65.40625 
C 12.09375 65.40625 13.203125 65.40625 13.203125 60.9375 
L 13.203125 7.0625 
C 13.203125 2.59375 12.09375 2.59375 5.203125 2.59375 
L 5.203125 0 
L 37 0 
C 53.09375 0 66 14.734375 66 33.453125 
C 66 52.28125 53.296875 68 37 68 
z
M 23.796875 2.59375 
C 19.796875 2.59375 19.59375 3.078125 19.59375 6.46875 
L 19.59375 61.53125 
C 19.59375 64.921875 19.796875 65.40625 23.796875 65.40625 
L 35 65.40625 
C 43.296875 65.40625 58.59375 60.53125 58.59375 33.453125 
C 58.59375 19.40625 54.5 13.734375 52.59375 11.046875 
C 50.203125 7.96875 44.5 2.59375 35 2.59375 
z
" id="CMR17-68"/>
      <path d="M 36 25.828125 
C 36 32.375 36 35.84375 31.796875 39.734375 
C 28.09375 43 23.796875 44 20.40625 44 
C 12.5 44 6.796875 37.609375 6.796875 30.796875 
C 6.796875 27 9.796875 27 10.40625 27 
C 11.703125 27 14 27.78125 14 30.53125 
C 14 33 12.09375 34.078125 10.40625 34.078125 
C 10 34.078125 9.5 33.96875 9.203125 33.875 
C 11.296875 40.5 16.703125 42.40625 20.203125 42.40625 
C 25.203125 42.40625 30.703125 37.953125 30.703125 29.453125 
L 30.703125 25 
C 24.796875 25 17.703125 24.203125 12.09375 21.203125 
C 5.796875 17.703125 4 12.703125 4 8.90625 
C 4 1.203125 13 -1 18.296875 -1 
C 23.796875 -1 28.90625 2.171875 31.09375 7.984375 
C 31.296875 3.640625 34.09375 -0.28125 38.5 -0.28125 
C 40.59375 -0.28125 45.90625 1.09375 45.90625 8.859375 
L 45.90625 14.375 
L 44.09375 14.375 
L 44.09375 8.78125 
C 44.09375 2.78125 41.40625 2 40.09375 2 
C 36 2 36 7.15625 36 11.53125 
z
M 30.703125 13.59375 
C 30.703125 4.953125 24.5 0.59375 19 0.59375 
C 14 0.59375 10.09375 4.296875 10.09375 8.90625 
C 10.09375 11.890625 11.40625 17.1875 17.203125 20.390625 
C 22 23.09375 27.5 23.5 30.703125 23.5 
z
" id="CMR17-97"/>
      <path d="M 33.796875 12.671875 
C 33.40625 11.078125 33.203125 10.671875 31.90625 9.1875 
C 27.796875 3.890625 23.59375 2 20.5 2 
C 17.203125 2 14.09375 4.59375 14.09375 11.46875 
C 14.09375 16.765625 17.09375 27.9375 19.296875 32.4375 
C 22.203125 38.015625 26.703125 42.015625 30.90625 42.015625 
C 37.5 42.015625 38.796875 33.828125 38.796875 33.234375 
L 38.5 31.828125 
z
M 40 37.421875 
C 38.703125 40.3125 35.90625 44 30.90625 44 
C 20 44 7.59375 30.328125 7.59375 15.46875 
C 7.59375 5.09375 13.90625 0 20.296875 0 
C 25.59375 0 30.296875 4.1875 32.09375 6.1875 
L 29.90625 -2.671875 
C 28.5 -8.0625 27.90625 -10.53125 24.296875 -13.96875 
C 20.203125 -18 16.40625 -18 14.203125 -18 
C 11.203125 -18 8.703125 -17.796875 6.203125 -17.015625 
C 9.40625 -16.140625 10.203125 -13.40625 10.203125 -12.328125 
C 10.203125 -10.765625 9 -9.1875 6.796875 -9.1875 
C 4.40625 -9.1875 1.796875 -11.15625 1.796875 -14.40625 
C 1.796875 -18.4375 5.90625 -20 14.40625 -20 
C 27.296875 -20 34 -11.765625 35.296875 -6.40625 
L 46.40625 38.046875 
C 46.703125 39.234375 46.703125 39.4375 46.703125 39.625 
C 46.703125 41.015625 45.59375 42.109375 44.09375 42.109375 
C 41.703125 42.109375 40.296875 40.109375 40 37.421875 
z
" id="CMMI12-103"/>
     </defs>
     <g transform="translate(318.953482 309.144962)scale(0.14 -0.14)">
      <use transform="scale(0.996264)" xlink:href="#CMR17-68"/>
      <use transform="translate(70.393556 0)scale(0.996264)" xlink:href="#CMR17-101"/>
      <use transform="translate(110.879216 0)scale(0.996264)" xlink:href="#CMR17-110"/>
      <use transform="translate(161.774586 0)scale(0.996264)" xlink:href="#CMR17-115"/>
      <use transform="translate(197.575924 0)scale(0.996264)" xlink:href="#CMR17-105"/>
      <use transform="translate(222.446982 0)scale(0.996264)" xlink:href="#CMR17-116"/>
      <use transform="translate(255.125296 0)scale(0.996264)" xlink:href="#CMR17-121"/>
      <use transform="translate(333.494178 0)scale(0.996264)" xlink:href="#CMR17-111"/>
      <use transform="translate(379.184655 0)scale(0.996264)" xlink:href="#CMR17-102"/>
      <use transform="translate(436.734134 0)scale(0.996264)" xlink:href="#CMR17-115"/>
      <use transform="translate(472.535472 0)scale(0.996264)" xlink:href="#CMR17-116"/>
      <use transform="translate(507.81624 0)scale(0.996264)" xlink:href="#CMR17-97"/>
      <use transform="translate(553.506717 0)scale(0.996264)" xlink:href="#CMR17-116"/>
      <use transform="translate(588.787485 0)scale(0.996264)" xlink:href="#CMR17-101"/>
      <use transform="translate(629.273145 0)scale(0.996264)" xlink:href="#CMR17-115"/>
      <use transform="translate(695.150449 0)scale(0.996264)" xlink:href="#CMMI12-103"/>
      <use transform="translate(745.435938 0)scale(0.996264)" xlink:href="#CMR17-40"/>
      <use transform="translate(780.716706 0)scale(0.996264)" xlink:href="#CMMI12-33"/>
      <use transform="translate(845.035052 0)scale(0.996264)" xlink:href="#CMR17-41"/>
     </g>
    </g>
   </g>
   <g id="matplotlib.axis_4">
    <g id="ytick_7">
     <g id="line2d_25">
      <g>
       <use style="stroke:#000000;stroke-width:0.8;" x="344.126378" xlink:href="#m968c576074" y="294.68419"/>
      </g>
     </g>
    </g>
    <g id="ytick_8">
     <g id="line2d_26">
      <g>
       <use style="stroke:#000000;stroke-width:0.8;" x="344.126378" xlink:href="#m968c576074" y="240.3618"/>
      </g>
     </g>
    </g>
    <g id="ytick_9">
     <g id="line2d_27">
      <g>
       <use style="stroke:#000000;stroke-width:0.8;" x="344.126378" xlink:href="#m968c576074" y="186.03941"/>
      </g>
     </g>
    </g>
    <g id="ytick_10">
     <g id="line2d_28">
      <g>
       <use style="stroke:#000000;stroke-width:0.8;" x="344.126378" xlink:href="#m968c576074" y="131.71702"/>
      </g>
     </g>
    </g>
    <g id="ytick_11">
     <g id="line2d_29">
      <g>
       <use style="stroke:#000000;stroke-width:0.8;" x="344.126378" xlink:href="#m968c576074" y="77.394629"/>
      </g>
     </g>
    </g>
    <g id="ytick_12">
     <g id="line2d_30">
      <g>
       <use style="stroke:#000000;stroke-width:0.8;" x="344.126378" xlink:href="#m968c576074" y="23.072239"/>
      </g>
     </g>
    </g>
   </g>
   <g id="line2d_31">
    <path clip-path="url(#p02e9b0883c)" d="M 344.126378 294.684192 
L 344.231529 281.103593 
L 344.511127 270.782339 
L 344.897772 262.63398 
L 345.329969 256.658517 
L 345.790494 252.312726 
L 346.101275 249.596606 
L 346.254568 249.053383 
L 346.475794 247.423711 
L 346.95076 244.707591 
L 347.250649 243.621143 
L 348.232773 240.3618 
L 348.910408 238.732128 
L 349.483965 237.645681 
L 349.926256 237.102457 
L 350.207024 236.559233 
L 351.174625 235.472785 
L 351.691222 234.929561 
L 352.469547 234.386337 
L 353.552279 233.843113 
L 355.187672 233.299889 
L 355.403089 232.756665 
L 355.878297 232.213442 
L 355.822628 231.670218 
L 355.885559 231.126994 
L 356.53423 229.497322 
L 356.581831 228.954098 
L 357.280524 226.781203 
L 357.754925 225.151531 
L 358.569798 223.521859 
L 358.960292 222.978635 
L 359.007086 222.435411 
L 359.877629 220.80574 
L 360.268122 220.262516 
L 360.873226 219.719292 
L 361.038621 219.176068 
L 362.659492 217.546396 
L 364.386054 216.459948 
L 365.333243 215.916724 
L 367.093691 215.373501 
L 370.145834 214.830277 
L 379.708892 214.287053 
L 380.982837 213.743829 
L 373.318191 213.200605 
L 368.530611 212.657381 
L 362.93784 209.398038 
L 362.152819 208.854814 
L 360.332667 206.138694 
L 360.073682 205.59547 
L 359.663826 205.052246 
L 359.411296 204.509023 
L 358.638377 203.422575 
L 357.629871 200.706455 
L 356.906167 197.990336 
L 356.540684 197.447112 
L 356.102589 195.81744 
L 355.635449 193.101321 
L 355.48377 192.558097 
L 355.591075 192.014873 
L 355.366783 190.385201 
L 355.284489 189.298753 
L 355.203808 187.669082 
L 355.437782 187.125858 
L 355.469247 186.582634 
L 356.167133 184.409738 
L 356.39788 183.866514 
L 357.496748 182.780066 
L 357.804947 181.693619 
L 357.756539 181.150395 
L 355.93074 180.607171 
L 353.586972 179.520723 
L 351.801109 178.434275 
L 350.643425 177.891051 
L 349.039658 177.347827 
L 345.999375 176.804603 
L 345.651723 176.26138 
L 346.408264 162.680782 
L 346.999007 155.075647 
L 347.770473 147.470513 
L 348.638837 140.951826 
L 349.586188 135.519587 
L 350.581462 131.173796 
L 351.412068 128.457676 
L 352.255744 126.284781 
L 353.098048 124.655109 
L 353.820138 123.568661 
L 354.92062 122.482213 
L 355.68063 121.938989 
L 358.536719 120.852541 
L 359.713041 120.309318 
L 359.025643 119.766094 
L 357.853356 119.22287 
L 356.122759 118.679646 
L 355.111833 118.136422 
L 353.799968 117.049974 
L 353.285227 116.50675 
L 350.882239 112.704183 
L 348.895563 108.901616 
L 348.340965 106.72872 
L 348.191464 106.185496 
L 348.27634 103.469377 
L 348.641823 101.296481 
L 349.013114 100.753257 
L 349.145269 100.210033 
L 349.475897 99.666809 
L 349.653152 99.123585 
L 350.110691 98.580361 
L 350.778 98.037138 
L 351.29492 96.95069 
L 351.273539 96.407466 
L 351.428688 95.864242 
L 351.443775 95.321018 
L 352.577659 90.975227 
L 353.380429 88.802331 
L 353.4006 87.715883 
L 353.724128 86.629436 
L 354.029101 84.999764 
L 354.266301 83.913316 
L 354.363925 81.740421 
L 354.382481 80.653973 
L 354.613227 80.110749 
L 354.389742 79.567525 
L 353.34251 77.937853 
L 352.716429 76.308181 
L 352.007006 73.592062 
L 351.7005 71.96239 
L 350.698772 64.357256 
L 350.186854 58.925017 
L 350.027591 56.752121 
L 349.897856 55.122449 
L 349.930048 54.579225 
L 353.912114 54.036001 
L 369.370495 53.492778 
L 388.616824 52.40633 
L 395.543244 51.863106 
L 409.129031 51.319882 
L 399.97583 50.776658 
L 399.363465 50.233434 
L 397.17299 49.69021 
L 394.046621 48.603762 
L 393.638378 48.060539 
L 391.986848 47.517315 
L 391.323654 46.974091 
L 391.188918 46.430867 
L 390.514429 45.887643 
L 390.455532 45.344419 
L 390.541054 44.801195 
L 390.424874 44.257971 
L 390.679824 43.714747 
L 391.291382 43.171523 
L 391.563276 42.6283 
L 392.100608 42.085076 
L 393.375359 40.998628 
L 394.452444 40.455404 
L 394.739666 39.91218 
L 395.671526 39.368956 
L 395.594073 38.825732 
L 394.725144 38.282508 
L 393.291451 37.739284 
L 385.846256 37.19606 
L 376.390504 36.652837 
L 370.672678 36.109613 
L 363.746258 35.023165 
L 362.20284 34.479941 
L 359.430659 33.936717 
L 355.683857 32.307045 
L 353.834661 31.220598 
L 351.746085 29.590926 
L 351.186404 29.047702 
L 350.793571 28.504478 
L 349.260077 26.874806 
L 348.92961 26.331582 
L 348.37945 25.788359 
L 348.012192 25.245135 
L 347.436537 24.701911 
L 347.040315 24.158687 
L 346.134112 23.615463 
L 344.900781 23.072239 
L 344.126378 22.529015 
L 344.126378 22.529015 
" style="fill:none;stroke:#000000;stroke-linecap:square;stroke-width:1.5;"/>
   </g>
   <g id="patch_8">
    <path d="M 344.126378 294.68419 
L 344.126378 17.64 
" style="fill:none;stroke:#000000;stroke-linecap:square;stroke-linejoin:miter;stroke-width:0.8;"/>
   </g>
   <g id="patch_9">
    <path d="M 424.806862 294.68419 
L 424.806862 17.64 
" style="fill:none;stroke:#000000;stroke-linecap:square;stroke-linejoin:miter;stroke-width:0.8;"/>
   </g>
   <g id="patch_10">
    <path d="M 344.126378 294.68419 
L 424.806862 294.68419 
" style="fill:none;stroke:#000000;stroke-linecap:square;stroke-linejoin:miter;stroke-width:0.8;"/>
   </g>
   <g id="patch_11">
    <path d="M 344.126378 17.64 
L 424.806862 17.64 
" style="fill:none;stroke:#000000;stroke-linecap:square;stroke-linejoin:miter;stroke-width:0.8;"/>
   </g>
  </g>
 </g>
 <defs>
  <clipPath id="pdaf2c8e980">
   <rect height="277.04419" width="242.041453" x="61.445826" y="17.64"/>
  </clipPath>
  <clipPath id="p02e9b0883c">
   <rect height="277.04419" width="80.680484" x="344.126378" y="17.64"/>
  </clipPath>
 </defs>
</svg>
